<svg xmlns="http://www.w3.org/2000/svg" xmlns:xlink="http://www.w3.org/1999/xlink" id="Layer_1" x="0" y="0" version="1.1" viewBox="0 0 800 544" xml:space="preserve" style="enable-background:new 0 0 800 544"><style type="text/css">.st0{fill:#1d1e1c}.st1{fill:#fff}.st2{opacity:.5;enable-background:new}</style><g><g><ellipse cx="523.9" cy="272.4" class="st0" rx="268.1" ry="268.1"/><g><g><path d="M568,81c35.3,5.2,73.9,27.5,89,43.3V197h-7.9L568,89V81z M541.1,85.6c0,0-0.7,0-1,0 c-56.9,0-89.7,78.9-88.1,185.2v0.4c-1.7,106.4,31.1,185.2,88.1,185.2c0.3,0,1,0,1,0v8.2c-85.6,5.9-201.5-59.5-199.9-193.4v-0.4 c-1.7-134,114.2-199.3,199.9-193.4V85.6z M683.9,287.5L657,299.2v120.4c-15.1,14-52.1,35.8-89,43.3v-8.7v-16.4V296.5l-26.9-9.8 v-7.4h142.7v8.2H683.9z" class="st1"/></g></g></g><path d="M112.8,32.8c2.2,0.8,3.3,2.7,4.6,4.2c10.3,11.6,9.9,11.5,2.2,24.7c-86.3,147.9-84.9,295.2,3.5,441.7 c3.4,5.7,3.8,9-0.9,14c-9.9,10.5-9.6,10.9-19.3,0.6c-46.7-49.7-74.6-108.9-85.7-175.7c-13.8-83.1-1.6-162.3,39-236.6 c13.8-25.2,31-48,51.2-68.4C109,35.6,110.3,33.5,112.8,32.8z" class="st2"/><path d="M185.6,436.4c-11.4-12.9-21-26.5-28.1-41.5c-43.2-91.6-37.8-179.5,21-263.1c1.4-1.9,3.1-3.7,4.4-5.6c2-2.8,3.7-2.4,5.4,0.2 c0.1,0.2,0.3,0.4,0.5,0.6c4.6,5.5,11.5,10.3,13.1,16.5c1.6,6-5.1,12.1-8.1,18.2c-21.7,44.4-32.4,90.9-27.8,140.4 c3.5,37.9,15.2,73.4,33.7,106.5c3.2,5.8,2.8,9.2-1.6,13.5C193.7,426.4,190,431.3,185.6,436.4z"/></g></svg>