<svg xmlns="http://www.w3.org/2000/svg" xmlns:xlink="http://www.w3.org/1999/xlink" id="Layer_1" x="0" y="0" version="1.1" viewBox="0 0 800 173.4" xml:space="preserve" style="enable-background:new 0 0 800 173.4"><style type="text/css">.st0{fill:#fff}.st1{fill:#1d1d1b}</style><g><path d="M713.3,173.4H87.4c-47.8,0-86.7-38.9-86.7-86.7S39.6,0,87.4,0h625.9C761.1,0,800,38.9,800,86.7 C800,134.5,761.1,173.4,713.3,173.4z" class="st0"/></g><g><path d="M72,112.3l8.7-1.8V49.3L72,47.4v-3.3h28.8v3.3l-9.5,1.8v61.9h25l4.4-17.8h4.7l-1.3,22.3H72V112.3z" class="st1"/><path d="M142.5,62.1l1.2,0.7v48.4l7.4,1.6v2.8h-24.2v-2.8l7.2-1.6V68.5l-7.2-1.5v-2.7L142.5,62.1z M144.7,46.6 c0,3.3-2.8,5.9-6.1,5.9c-3.5,0-6-2.7-6-5.9c0-3.4,2.6-5.8,6-5.8C141.9,40.8,144.7,43.3,144.7,46.6z" class="st1"/><path d="M190.7,100.9c0,9.8-6.7,16-20,16c-5.8,0-11.5-1.2-16.3-2.8l-0.9-12.6h4l3.3,9c2.7,1.3,5.6,2.2,9.8,2.2 c8.3,0,12.3-4,12.3-9.4c0-4.5-2.4-7.1-9.6-9.4l-5.7-1.8c-8.8-2.9-13.4-7-13.4-15.1c0-8.5,6.2-15.2,18.7-15.2 c5.9,0,11.2,0.9,14.6,1.9v11.7h-4l-2.1-8.1c-1.8-0.8-4.8-1.3-8.3-1.3c-7.3,0-10.9,3.5-10.9,8.5c0,4.3,2.4,6.6,10.1,9.2l5.6,1.8 C186.9,88.2,190.7,93,190.7,100.9z" class="st1"/><path d="M192.9,67.1v-2.9l7.7-1.7V51.1l9.3-1.5v13h14.9v4.5h-14.9v35.4c0,6.2,2.1,8.4,9.5,8.4c2.1,0,4.6-0.3,6.3-0.7 v3.3c-2.4,1.4-6.8,2.8-11.6,2.8c-8.9,0-13.6-3.2-13.6-12.7V67.1L192.9,67.1L192.9,67.1z" class="st1"/><path d="M238,89.1c0.2,14.6,6.4,21.8,18.7,21.8c6,0,10.6-1.5,14.7-4.1v4c-3.4,3.3-9.4,5.9-17.7,5.9 c-17.8,0-25.2-11.9-25.2-28.1c0-16.7,10.2-26.8,23.8-26.8c15.6,0,21.6,10.6,21.6,26.8v0.5L238,89.1L238,89.1z M237.9,85.3l25.9-0.8 c0-13-3.8-18.7-12-18.7C243.2,65.8,238.6,72.5,237.9,85.3z" class="st1"/><path d="M283.6,111.1V68.5l-7.3-1.5v-2.7l15.1-2.3l1.3,0.6v4.8h0.4c5-3,11.4-5.6,17.6-5.6c9.9,0,14.7,3.8,14.7,14.1 v35.2l7.2,1.7v2.8H309v-2.8l6.9-1.5V77.2c0-7.2-3.9-9.6-9.7-9.6c-5.4,0-9.5,1.6-13.4,3.3v40.4l6.8,1.5v2.8H276v-2.8L283.6,111.1z" class="st1"/><path d="M356.1,111.1V68.5l-7.3-1.5v-2.7l15.1-2.3l1.3,0.6v4.8h0.4c5-3,11.4-5.6,17.6-5.6c9.9,0,14.7,3.8,14.7,14.1 v35.2l7.2,1.7v2.8h-23.6v-2.8l6.9-1.5V77.2c0-7.2-3.9-9.6-9.7-9.6c-5.4,0-9.5,1.6-13.4,3.3v40.4l6.8,1.5v2.8h-23.6v-2.8 L356.1,111.1z" class="st1"/><path d="M407.2,89.5c0-16.6,11.1-27.7,24.9-27.7c15.1,0,25.3,10.6,25.3,27.2c0,16.5-11,27.9-24.9,27.9 C417.3,116.9,407.2,105.9,407.2,89.5z M417.4,88.8c0,16.4,5.6,24,15.1,24c9.1,0,14.4-7,14.4-23.1c0-16.3-5.6-23.8-14.9-23.8 C422.9,65.9,417.4,73,417.4,88.8z" class="st1"/><path d="M513.5,102.5h0.5l9.8-35.1l-6.4-1.8v-2.9h16.3v2.9l-4.7,1.8l-14,48.2h-6.8L495.1,77h-0.3l-11.7,38.6h-6.7 l-14.7-48.2l-4.7-1.8v-2.9h21.3v2.9l-6.4,1.8l10,34.5h0.6l11.4-39.1h6.3L513.5,102.5z" class="st1"/></g><polygon points="740.5 86.4 734.7 80.5 698 43.9 694 47.9 724.6 84.4 646.8 84.4 646.8 92.5 724.6 92.5 694 129.1 698 133 734.7 96.4 734.7 96.4 740.5 90.5"/></svg>