<?xml version="1.0" encoding="utf-8"?>
<!-- Generator: Adobe Illustrator 21.0.2, SVG Export Plug-In . SVG Version: 6.00 Build 0)  -->
<svg version="1.1" id="Layer_1" xmlns="http://www.w3.org/2000/svg" xmlns:xlink="http://www.w3.org/1999/xlink" x="0px" y="0px"
	 viewBox="0 0 800 696" style="enable-background:new 0 0 800 696;" xml:space="preserve">
<style type="text/css">
	.st0{opacity:0.75;fill:#FFFFFF;enable-background:new    ;}
</style>
<g>
	<path class="st0" d="M620.9,382.7c1.1,1.8,2.1,3.7,3,5.6c0.1-0.3,0.2-0.6,0.3-0.9C624.6,385.2,623.1,383.2,620.9,382.7z"/>
	<path class="st0" d="M622.6,371.3c2.1,0,3.9-1.6,4.1-3.8c0.2-2.3-1.5-4.2-3.8-4.4c-2.3-0.2-4.2,1.5-4.4,3.8
		c-0.2,2.3,1.5,4.2,3.8,4.4C622.4,371.3,622.5,371.3,622.6,371.3z"/>
	<path class="st0" d="M623.4,342.9c-2.3,0-4.1,1.8-4.1,4.1c0,0.1,0,0.2,0,0.3c0,0.1,0,0.2,0,0.3c0,2.3,1.8,4.1,4.1,4.1l0,0
		c2.3,0,4.1-1.8,4.1-4.1c0-0.1,0-0.2,0-0.3c0-0.1,0-0.2,0-0.3C627.5,344.7,625.7,342.9,623.4,342.9z"/>
	<path class="st0" d="M571.1,383.6c0.4-2.2-1-4.4-3.3-4.8c-2.2-0.4-4.4,1-4.8,3.3c-0.4,2.2,1,4.4,3.3,4.8c0.3,0,0.5,0.1,0.8,0.1
		C569.1,386.9,570.7,385.6,571.1,383.6z"/>
	<path class="st0" d="M596,331.8c0.1,0,0.3,0,0.4,0c0.9-0.1,1.8-0.5,2.4-1.1h-5.6C594.1,331.4,595,331.8,596,331.8z"/>
	<path class="st0" d="M570.4,351.9L570.4,351.9c2.3,0,4.1-1.8,4.1-4.1c0-0.1,0-0.2,0-0.2c0-0.1,0-0.1,0-0.2c0-2.3-1.8-4.1-4.1-4.1
		s-4.1,1.8-4.1,4.1c0,0.1,0,0.1,0,0.2s0,0.1,0,0.2C566.4,350.1,568.3,351.9,570.4,351.9z"/>
	<circle class="st0" cx="596.9" cy="347.3" r="4.1"/>
	<path class="st0" d="M562.9,404.1c1.8,0,3.4-1.2,3.9-2.9c0.6-2.2-0.6-4.5-2.8-5.1c-2.2-0.6-4.5,0.6-5.1,2.8
		c-0.6,2.2,0.6,4.5,2.8,5.1C562.2,404.1,562.5,404.1,562.9,404.1z"/>
	<path class="st0" d="M540.4,381.5c-0.1,0-0.1,0-0.2,0v7.9c1.5-0.3,2.8-1.4,3.2-3C544,384.3,542.6,382.1,540.4,381.5z"/>
	<path class="st0" d="M475.6,504.6c-2,1.1-2.6,3.6-1.5,5.6c0.8,1.3,2.1,2.1,3.6,2.1c0.7,0,1.4-0.2,2-0.5c2-1.1,2.6-3.6,1.5-5.6
		C480,504.1,477.5,503.4,475.6,504.6z"/>
	<path class="st0" d="M482.4,389.7c0.5,0.2,1,0.3,1.5,0.3c1.6,0,3.2-1,3.8-2.6c0.8-2.1-0.2-4.5-2.3-5.3c-2.1-0.8-4.5,0.2-5.3,2.3
		C479.3,386.5,480.4,388.9,482.4,389.7z"/>
	<path class="st0" d="M248.1,419c-1.1-2-3.5-2.8-5.5-1.7c-2,1.1-2.8,3.5-1.7,5.5c0.7,1.4,2.2,2.2,3.6,2.2c0.6,0,1.3-0.2,1.9-0.5
		C248.3,423.5,249.1,421,248.1,419z"/>
	<path class="st0" d="M485.1,438.3c1.1,0,2.3-0.5,3.1-1.4v-5.4c-0.1-0.1-0.2-0.3-0.4-0.4c-1.7-1.5-4.3-1.3-5.8,0.4
		c-1.5,1.7-1.3,4.3,0.4,5.8C483.2,438,484.1,438.3,485.1,438.3z"/>
	<path class="st0" d="M488.2,371v-2.5l-2.9-0.7C485.5,369.3,486.6,370.5,488.2,371z"/>
	<path class="st0" d="M540.2,369.7c0.6,0.5,1.4,0.9,2.2,1c0.2,0,0.3,0,0.5,0c2,0,3.8-1.5,4.1-3.6c0.1-0.8-0.1-1.6-0.4-2.3h-6.3
		L540.2,369.7L540.2,369.7z"/>
	<path class="st0" d="M544.4,450.1c1.2-1.9,0.7-4.4-1.2-5.7c-0.9-0.6-2-0.8-3-0.6v7.9c0.2,0,0.5,0.1,0.7,0.1
		C542.3,452,543.6,451.3,544.4,450.1z"/>
	<path class="st0" d="M569.7,333.8c0.1,0,0.3,0,0.4,0c1.8-0.2,3.2-1.5,3.6-3.1h-7.9C566.2,332.5,567.8,333.8,569.7,333.8z"/>
	<path class="st0" d="M622.6,331.4c0.1,0,0.2,0,0.3,0c0.7-0.1,1.3-0.3,1.9-0.7h-4.5C621,331.1,621.7,331.4,622.6,331.4z"/>
	<path class="st0" d="M566.4,308.3c-2.2,0.4-3.7,2.6-3.3,4.8c0.4,2,2.1,3.3,4,3.3c0.3,0,0.5,0,0.8-0.1c2.2-0.4,3.7-2.6,3.3-4.8
		C570.7,309.4,568.7,307.9,566.4,308.3z"/>
	<circle class="st0" cx="491.1" cy="347.6" r="4.1"/>
	<path class="st0" d="M561.9,291.2c-2.2,0.6-3.4,2.9-2.8,5.1c0.5,1.8,2.2,3,3.9,3c0.4,0,0.8-0.1,1.2-0.2c2.2-0.6,3.4-2.9,2.8-5.1
		C566.4,291.9,564.1,290.7,561.9,291.2z"/>
	<path class="st0" d="M569.9,203.2c0.8,1,2,1.6,3.2,1.6c0.9,0,1.8-0.3,2.5-0.9c1.8-1.4,2.1-4,0.7-5.8c-1.4-1.8-4-2.1-5.8-0.7
		C568.8,199,568.5,201.5,569.9,203.2z"/>
	<path class="st0" d="M488.6,324.2c-1,0.2-1.9,0.8-2.5,1.5v0.4h6.6C492,324.7,490.3,323.9,488.6,324.2z"/>
	<path class="st0" d="M487.9,307.9c-0.3-0.9-1-1.6-1.7-2v6.9C487.8,311.9,488.6,309.8,487.9,307.9z"/>
	<path class="st0" d="M494.4,272.4c-1.9,1.2-2.5,3.8-1.2,5.7c0.8,1.2,2.1,1.9,3.5,1.9c0.8,0,1.5-0.2,2.2-0.6
		c1.9-1.2,2.5-3.8,1.2-5.7C498.8,271.7,496.3,271.2,494.4,272.4z"/>
	<path class="st0" d="M498.8,163.9c-1.9-1.2-4.5-0.6-5.7,1.3c-1.2,1.9-0.6,4.5,1.3,5.7c0.7,0.4,1.4,0.6,2.2,0.6
		c1.4,0,2.7-0.7,3.5-1.9C501.4,167.5,500.8,165,498.8,163.9z"/>
	<path class="st0" d="M573,249.3c-2,1-2.9,3.5-1.8,5.5c0.7,1.4,2.2,2.3,3.7,2.3c0.6,0,1.2-0.1,1.8-0.4c0.3-0.1,0.5-0.3,0.8-0.5v-6.3
		C576.2,248.8,574.5,248.6,573,249.3z"/>
	<path class="st0" d="M639.3,272.9c-2.2,0.6-3.5,2.9-2.9,5c0.5,1.8,2.2,3,4,3c0.4,0,0.7,0,1.1-0.2c2.2-0.6,3.5-2.9,2.9-5
		C643.8,273.6,641.5,272.3,639.3,272.9z"/>
	<path class="st0" d="M646.4,304c2.2-0.4,3.7-2.5,3.3-4.8c-0.4-2.2-2.5-3.7-4.8-3.3c-2.2,0.4-3.7,2.5-3.3,4.8c0.4,2,2.1,3.4,4,3.4
		C645.9,304,646.2,304,646.4,304z"/>
	<path class="st0" d="M622,465.8c0.6,0.3,1.2,0.4,1.8,0.4c1.5,0,3-0.9,3.7-2.3c1-2,0.1-4.5-1.9-5.5s-4.5-0.1-5.5,1.9
		C619.2,462.4,620.1,464.8,622,465.8z"/>
	<path class="st0" d="M558.6,412.9c-2.1-0.8-4.5,0.2-5.3,2.3c-0.8,2.1,0.2,4.5,2.3,5.3c0.5,0.2,1,0.3,1.5,0.3c1.6,0,3.2-1,3.8-2.6
		l0,0C561.7,416.1,560.7,413.7,558.6,412.9z"/>
	<path class="st0" d="M604.5,447.1c0.6-0.2,1.1-0.5,1.6-0.9C605.5,446.6,605,446.8,604.5,447.1z"/>
	<path class="st0" d="M635.2,197.9c-2,1.1-2.6,3.7-1.5,5.6c0.8,1.3,2.1,2,3.6,2c0.7,0,1.4-0.2,2.1-0.6c2-1.1,2.6-3.6,1.5-5.6
		C639.6,197.5,637.1,196.8,635.2,197.9z"/>
	<path class="st0" d="M629.5,252.5v3.6c0.7,1.4,2.1,2.3,3.7,2.3c0.5,0,1-0.1,1.4-0.3c2.1-0.8,3.2-3.2,2.4-5.3
		c-0.8-2.1-3.2-3.2-5.3-2.4C630.7,250.9,629.9,251.6,629.5,252.5z"/>
	<path class="st0" d="M629.5,184.4c0.3-0.9,0.3-1.9,0-2.8V184.4z"/>
	<path class="st0" d="M596.4,362.8c-1.3-0.1-2.5,0.4-3.3,1.2c2.5,0.7,4.8,1.5,6.9,2.4C599.9,364.5,598.4,362.9,596.4,362.8z"/>
	<path class="st0" d="M455.5,388.5c1.5,0,2.9-0.8,3.6-2.2c1.1-2,0.3-4.5-1.7-5.5c-2-1.1-4.5-0.3-5.5,1.7c-1.1,2-0.3,4.5,1.7,5.5
		C454.2,388.4,454.9,388.5,455.5,388.5z"/>
	<path class="st0" d="M254.8,370.1c0.6-0.1,1.1-0.3,1.6-0.6l-2.8-4.7h-3.3c-0.2,0.6-0.3,1.2-0.2,1.8c0.3,2.1,2,3.5,4.1,3.5
		C254.5,370.1,254.7,370.1,254.8,370.1z"/>
	<path class="st0" d="M355.8,453.2c1.8,0,3.4-1.2,3.9-3c0.6-2.2-0.6-4.5-2.8-5.1c-1.2-0.4-2.5-0.1-3.5,0.6c0,0.9,0,1.7,0,2.6
		c0,1.4,0,2.7,0,4.1c0.4,0.3,0.8,0.5,1.2,0.6C355.2,453.2,355.6,453.2,355.8,453.2z"/>
	<path class="st0" d="M318.4,382.3c-1-2-3.5-2.8-5.5-1.7c-2,1.1-2.8,3.5-1.7,5.5c0.7,1.4,2.2,2.2,3.6,2.2c0.5,0,0.9-0.1,1.4-0.3
		c0.9-1.1,1.8-2.2,2.7-3.2C319,384,318.9,383.1,318.4,382.3z"/>
	<path class="st0" d="M295,406.9c0.7,0,1.5-0.2,2.1-0.6c1.9-1.2,2.5-3.7,1.3-5.6c-1.2-1.9-3.7-2.5-5.6-1.3c-1.9,1.2-2.5,3.7-1.3,5.6
		C292.4,406.2,293.6,406.9,295,406.9z"/>
	<path class="st0" d="M412.2,445.6c-1.7,0.9-2.6,2.9-2.1,4.8c0.3,1.2,1.1,2,2.1,2.5c0-0.9,0-1.8,0-2.7
		C412.2,448.6,412.2,447.1,412.2,445.6z"/>
	
		<ellipse transform="matrix(1 -1.631808e-03 1.631808e-03 1 -0.5661 0.7155)" class="st0" cx="438.2" cy="347.3" rx="4.1" ry="4.1"/>
	<path class="st0" d="M463.3,362.6c-2.2-0.5-4.4,0.8-5,3c-0.5,2.2,0.8,4.4,3,5c0.3,0.1,0.7,0.1,1,0.1c1.8,0,3.5-1.3,4-3.1
		C466.8,365.4,465.5,363.2,463.3,362.6z"/>
	<path class="st0" d="M489.5,194.1c-1.3,1.8-0.9,4.4,1,5.7c0.7,0.5,1.6,0.8,2.4,0.8c1.3,0,2.5-0.6,3.3-1.7c1.3-1.8,0.9-4.4-1-5.7
		C493.4,191.8,490.8,192.2,489.5,194.1z"/>
	<path class="st0" d="M434.1,331.1c0.5,0,1.1-0.1,1.6-0.3c0.1,0,0.1-0.1,0.2-0.1h-3.5C432.9,330.9,433.5,331.1,434.1,331.1z"/>
	<path class="st0" d="M176.3,382.1c-2.2,0.4-3.7,2.5-3.3,4.8c0.4,2,2.1,3.4,4,3.4c0.2,0,0.5,0,0.7-0.1c2.2-0.4,3.7-2.6,3.3-4.8
		C180.6,383.2,178.6,381.7,176.3,382.1z"/>
	<path class="st0" d="M183.9,425.2c0.5,1.4,1.8,2.3,3.2,2.5v-8c-0.3,0-0.6,0.1-0.8,0.2C184.1,420.7,183.1,423.1,183.9,425.2z"/>
	<path class="st0" d="M180.3,401.3c-2.2,0.6-3.4,2.9-2.8,5.1c0.5,1.8,2.2,3,3.9,3c0.4,0,0.7,0,1.1-0.2c2.2-0.6,3.5-2.9,2.8-5.1
		C184.8,402,182.5,400.7,180.3,401.3z"/>
	<path class="st0" d="M183.6,474.4c-1.9,1.2-2.4,3.8-1.2,5.7c0.8,1.2,2.1,1.9,3.4,1.9c0.4,0,0.8-0.1,1.2-0.2V474
		C185.9,473.6,184.7,473.7,183.6,474.4z"/>
	<path class="st0" d="M254,472.3c-1.6-1.6-4.2-1.7-5.8-0.2c-1.6,1.6-1.7,4.2-0.2,5.8c0.8,0.8,1.9,1.3,3,1.3c1,0,2-0.4,2.8-1.1
		C255.4,476.5,255.4,473.9,254,472.3z"/>
	<path class="st0" d="M257.7,435c-1.3-1.9-3.8-2.3-5.7-1.1c-1.9,1.3-2.3,3.8-1.1,5.7c0.8,1.2,2.1,1.8,3.4,1.8c0.8,0,1.6-0.2,2.3-0.7
		C258.5,439.5,259,436.9,257.7,435z"/>
	<path class="st0" d="M183.1,518.3c-1.7,1.5-1.9,4.1-0.4,5.8c0.8,0.9,2,1.4,3.1,1.4c0.4,0,0.9-0.1,1.3-0.2v-7.7
		C185.7,517.2,184.2,517.4,183.1,518.3z"/>
	<path class="st0" d="M172.1,462.8c0.7,1.4,2.2,2.1,3.6,2.1c0.7,0,1.3-0.2,1.9-0.5c2-1.1,2.7-3.6,1.7-5.6c-1.1-2-3.6-2.7-5.6-1.6
		C171.8,458.3,171.1,460.8,172.1,462.8z"/>
	<path class="st0" d="M504,288.7c-2.1,0.9-3,3.4-2,5.4c0.7,1.5,2.2,2.4,3.7,2.4c0.6,0,1.1-0.1,1.7-0.4c2.1-0.9,3-3.4,2-5.4l0,0
		C508.4,288.7,506.1,287.8,504,288.7z"/>
	<path class="st0" d="M633.8,491.1c-1.1,2-0.5,4.5,1.5,5.6c0.6,0.4,1.4,0.5,2.1,0.5c1.4,0,2.8-0.7,3.6-2c1.1-2,0.5-4.5-1.5-5.6
		C637.5,488.5,634.9,489.1,633.8,491.1z"/>
	<path class="st0" d="M462.3,332.4c0.3,0,0.6,0,1-0.1c1-0.2,1.8-0.9,2.4-1.6H459C459.8,331.8,461,332.4,462.3,332.4z"/>
	<path class="st0" d="M540,347.5c0,2.3,1.8,4.1,4.1,4.1l0,0c2.3,0,4.1-1.8,4.1-4.1s-1.8-4.1-4.1-4.1
		C541.8,343.4,540,345.2,540,347.5z"/>
	<path class="st0" d="M501.6,239.2c-1.7,1.5-1.9,4.1-0.4,5.8c0.8,0.9,1.9,1.4,3.1,1.4c1,0,1.9-0.3,2.7-1c1.7-1.5,1.9-4.1,0.4-5.8
		l0,0C505.8,237.8,503.3,237.7,501.6,239.2z"/>
	<path class="st0" d="M425.1,166.3c-0.5,2.2,0.8,4.4,3,5c0.3,0.1,0.7,0.1,1,0.1c1.9,0,3.5-1.3,4-3.1c0.5-2.2-0.8-4.4-3-5l0,0
		C427.8,162.9,425.6,164.2,425.1,166.3z"/>
	<path class="st0" d="M634.5,436.4c-2.1-0.8-4.5,0.3-5.3,2.4c-0.8,2.1,0.3,4.5,2.4,5.3c0.5,0.2,1,0.3,1.4,0.3c1.7,0,3.2-1,3.9-2.7
		C637.7,439.6,636.6,437.2,634.5,436.4z"/>
	<path class="st0" d="M676.3,342.9c-2.3,0-4.1,1.8-4.1,4.1c0,0.1,0,0.2,0,0.3c0,0.1,0,0.2,0,0.3c0,2.3,1.8,4.1,4.1,4.1
		c2.3,0,4.1-1.8,4.1-4.1c0-0.1,0-0.2,0-0.3c0-0.1,0-0.2,0-0.3C680.4,344.7,678.6,342.9,676.3,342.9z"/>
	<circle class="st0" cx="649.9" cy="347.2" r="4.1"/>
	<path class="st0" d="M517.6,343.3c-2.3,0-4.1,1.8-4.1,4.1v0.1c0,0.1,0,0.1,0,0.2l0,0c0,2.3,1.8,4.1,4.1,4.1l0,0
		c2.3,0,4.1-1.8,4.1-4.1c0-0.1,0-0.1,0-0.2c0,0,0-0.1,0-0.2C521.6,345.1,519.8,343.3,517.6,343.3z"/>
	<path class="st0" d="M464.7,343.3c-2.3,0-4.1,1.8-4.1,4.1l0,0v0.1c0,2.3,1.8,4.1,4.1,4.1c2.3,0,4.1-1.8,4.1-4.1v-0.1v-0.1
		C468.8,345.1,466.9,343.3,464.7,343.3z"/>
	<path class="st0" d="M421.4,224.3c0.4,0.1,0.8,0.2,1.2,0.2c1.8,0,3.4-1.2,3.9-2.9c0.6-2.2-0.6-4.5-2.8-5.1
		c-2.2-0.6-4.5,0.6-5.1,2.8C418.1,221.4,419.2,223.7,421.4,224.3z"/>
	<path class="st0" d="M428.1,285.4c0.7,0.5,1.5,0.7,2.3,0.7c1.3,0,2.6-0.6,3.4-1.8c0.2-0.2,0.3-0.5,0.4-0.7v-3.2
		c-0.3-0.7-0.8-1.3-1.4-1.8c-1.9-1.3-4.4-0.8-5.7,1C425.8,281.6,426.2,284.1,428.1,285.4z"/>
	<path class="st0" d="M419.4,192.2c-0.5,2.2,0.8,4.4,3,5c0.3,0.1,0.7,0.1,1,0.1c1.8,0,3.5-1.3,4-3.1c0.5-2.2-0.8-4.4-3-5
		C422.2,188.8,420,190,419.4,192.2z"/>
	<path class="st0" d="M429.1,250.9c-1,2-0.2,4.5,1.8,5.5c0.6,0.3,1.2,0.4,1.8,0.4c0.5,0,1-0.1,1.4-0.3v-7.5
		C432.2,248.2,430,249,429.1,250.9z"/>
	<path class="st0" d="M466.1,415.9c-0.4-0.3-0.8-0.6-1.2-0.8c0.6,2.1,1.1,4.2,1.6,6.3C467.9,419.8,467.7,417.3,466.1,415.9z"/>
	<path class="st0" d="M419.7,312.8c0.8,0.8,1.8,1.2,2.9,1.2s2.1-0.4,2.9-1.2c1.6-1.6,1.6-4.2,0-5.8c-1.6-1.6-4.2-1.6-5.8,0
		C418.2,308.6,418.2,311.2,419.7,312.8z"/>
	<path class="st0" d="M438,369.1c0.9-2.1-0.1-4.5-2.2-5.4c-2.1-0.9-4.5,0.1-5.4,2.2c-0.4,1-0.4,2-0.1,2.9c1.5,0.9,2.9,1.8,4.3,2.7
		C436,371.4,437.4,370.5,438,369.1z"/>
	<path class="st0" d="M553.4,434.5c1-2,0.3-4.5-1.8-5.5c-2-1-4.5-0.3-5.5,1.8c-1,2-0.3,4.5,1.8,5.5c0.6,0.3,1.2,0.5,1.9,0.5
		C551.3,436.7,552.7,435.9,553.4,434.5z"/>
	<path class="st0" d="M241.2,271.4c-1.1,2-0.3,4.5,1.7,5.5c0.6,0.3,1.3,0.5,1.9,0.5c1.5,0,2.9-0.8,3.6-2.2l0,0
		c1.1-2,0.3-4.5-1.7-5.5C244.6,268.7,242.2,269.4,241.2,271.4z"/>
	<path class="st0" d="M242.3,229.5c-1.8-1.4-4.4-1.1-5.8,0.7c-1.4,1.8-1.1,4.4,0.7,5.8c0.8,0.6,1.6,0.9,2.5,0.9
		c1.2,0,2.4-0.5,3.2-1.6C244.2,233.5,243.9,230.9,242.3,229.5z"/>
	<path class="st0" d="M242.8,124.2c-1.2-1.9-3.8-2.4-5.7-1.2c-1.9,1.3-2.4,3.8-1.2,5.7c0.8,1.2,2.1,1.8,3.4,1.8
		c0.8,0,1.6-0.2,2.3-0.7C243.5,128.6,244,126.1,242.8,124.2z"/>
	<path class="st0" d="M251.3,223.5c1.1,0,2.2-0.4,3-1.3c1.6-1.6,1.5-4.2-0.1-5.8c-1.6-1.6-4.2-1.5-5.8,0.1s-1.5,4.2,0.1,5.8
		C249.2,223.1,250.2,223.5,251.3,223.5z"/>
	<path class="st0" d="M97.4,281.8c-0.5,2.2,0.9,4.4,3.1,4.9c0.3,0.1,0.6,0.1,0.9,0.1c1.9,0,3.6-1.3,4-3.2c0.5-2.2-0.9-4.4-3.1-4.9
		C100.1,278.2,97.9,279.6,97.4,281.8z"/>
	<path class="st0" d="M138.8,444.1c2.1-0.8,3.2-3.2,2.4-5.3c-0.8-2.1-3.2-3.2-5.3-2.4c-2.1,0.8-3.2,3.2-2.4,5.3
		c0.6,1.6,2.2,2.7,3.8,2.7C137.8,444.3,138.3,444.3,138.8,444.1z"/>
	<path class="st0" d="M337.9,278.6c-1.9,1.3-2.3,3.8-1,5.7c0.8,1.1,2.1,1.8,3.4,1.8c0.8,0,1.6-0.2,2.3-0.7c1.9-1.3,2.3-3.8,1-5.7
		C342.3,277.9,339.7,277.4,337.9,278.6z"/>
	<path class="st0" d="M199.7,152.9h5.3C203.5,151.7,201.3,151.7,199.7,152.9z"/>
	<path class="st0" d="M147.9,331.9c1.1,0,2.1-0.5,2.9-1.2H145c0.7,0.7,1.5,1.1,2.6,1.2C147.6,331.9,147.7,331.9,147.9,331.9z"/>
	<path class="st0" d="M202.4,160.1c1,0,2-0.4,2.8-1.1c0.4-0.4,0.7-0.9,0.9-1.4h-7.4c0.2,0.4,0.4,0.9,0.8,1.2
		C200.2,159.7,201.3,160.1,202.4,160.1z"/>
	<path class="st0" d="M345.1,108.4c-2.2,0.4-3.7,2.5-3.4,4.7c0.3,2,2.1,3.4,4.1,3.4c0.2,0,0.5,0,0.7-0.1c2.2-0.4,3.7-2.5,3.4-4.7
		C349.4,109.6,347.3,108.1,345.1,108.4z"/>
	<path class="st0" d="M345.6,135.2c-2.2,0.4-3.7,2.6-3.3,4.8c0.4,2,2.1,3.4,4,3.4c0.3,0,0.5,0,0.8-0.1c2.2-0.4,3.7-2.6,3.3-4.8
		C349.9,136.3,347.8,134.8,345.6,135.2z"/>
	<path class="st0" d="M346.5,189.2L346.5,189.2c-2.2,0.5-3.6,2.8-3,5c0.5,1.9,2.1,3.1,4,3.1c0.3,0,0.7,0,1-0.1l0,0
		c2.2-0.5,3.6-2.8,3-5C350.9,189.9,348.7,188.7,346.5,189.2z"/>
	<path class="st0" d="M347.8,314.1c1.1,0,2.1-0.4,2.9-1.2c1.6-1.6,1.6-4.2,0-5.8s-4.2-1.6-5.8,0c-1.6,1.6-1.6,4.2,0,5.8
		C345.7,313.7,346.7,314.1,347.8,314.1z"/>
	<path class="st0" d="M327.7,195L327.7,195c-2.1,0.8-3.2,3.2-2.4,5.3c0.6,1.6,2.2,2.7,3.8,2.7c0.5,0,1-0.1,1.5-0.3
		c2.1-0.8,3.2-3.2,2.4-5.3C332.1,195.2,329.8,194.2,327.7,195z"/>
	<path class="st0" d="M328.7,223.3c-2.1,0.9-3,3.4-2,5.4c0.7,1.5,2.2,2.4,3.7,2.4c0.6,0,1.1-0.1,1.7-0.4c2.1-0.9,3-3.4,2-5.4
		C333.1,223.2,330.6,222.3,328.7,223.3z"/>
	<path class="st0" d="M340.8,163.4L340.8,163.4c-2.2,0.5-3.6,2.7-3,5c0.5,1.9,2.1,3.1,4,3.1c0.3,0,0.6,0,1-0.1c2.2-0.5,3.6-2.8,3-5
		C345.1,164.2,343,162.8,340.8,163.4z"/>
	<path class="st0" d="M334.7,254.2c0.7,1.4,2.2,2.3,3.7,2.3c0.6,0,1.2-0.1,1.8-0.4c2-1,2.9-3.5,1.9-5.5c-1-2-3.5-2.9-5.5-1.9
		C334.5,249.8,333.6,252.3,334.7,254.2z"/>
	<path class="st0" d="M323.4,168.4c-2.1,0.7-3.3,3.1-2.5,5.2c0.6,1.7,2.2,2.8,3.9,2.8c0.4,0,0.9-0.1,1.3-0.2
		c2.1-0.7,3.3-3.1,2.5-5.2C327.9,168.7,325.6,167.6,323.4,168.4z"/>
	<path class="st0" d="M110.9,432.1L110.9,432.1c-0.7-2.2-3-3.4-5.1-2.7c-1.7,0.5-2.8,2-2.9,3.7c2.3,1.1,4.4,2.3,6.4,3.5
		C110.7,435.6,111.4,433.8,110.9,432.1z"/>
	<path class="st0" d="M43.3,391c0.1,0,0.2,0,0.2,0c0.1,0,0.2,0,0.3,0c1.5-0.2,2.6-1.5,2.4-3c-0.2-1.5-1.5-2.5-2.9-2.4
		c-0.1,1-0.1,2.1-0.1,3.1C43.3,389.6,43.3,390.3,43.3,391z"/>
	<path class="st0" d="M71.8,416.8c0.3,1.6,1.8,2.7,3.3,2.7c0.2,0,0.5,0,0.7-0.1c1.8-0.4,3-2.2,2.6-4.1c-0.4-1.8-2.2-3-4.1-2.6
		C72.5,413.2,71.4,415.1,71.8,416.8z"/>
	<path class="st0" d="M68.2,366.8c-1.9,0.1-3.3,1.8-3.2,3.6c0.1,1.8,1.6,3.2,3.4,3.2c0.1,0,0.2,0,0.2,0c1.9-0.1,3.3-1.8,3.2-3.7l0,0
		C71.7,368.1,70.1,366.7,68.2,366.8z"/>
	<path class="st0" d="M133.9,416.7c-0.6-2.2-2.9-3.5-5-2.9c-2.2,0.6-3.5,2.9-2.9,5l0,0c0.5,1.8,2.1,3,4,3c0.4,0,0.7,0,1.1-0.2
		C133.2,421,134.5,418.8,133.9,416.7z"/>
	<path class="st0" d="M135.1,496.6c2-1.1,2.6-3.6,1.5-5.6c-0.8-1.4-2.2-2.1-3.7-2c-0.3,2.7-0.7,5.4-1.3,7.8c0.4,0.2,0.9,0.3,1.4,0.3
		C133.8,497.1,134.5,497,135.1,496.6z"/>
	<path class="st0" d="M71.6,297.5c-1.9-0.3-3.6,1-3.9,2.9c-0.3,1.9,1,3.6,2.9,3.9c0.2,0,0.3,0,0.5,0c1.7,0,3.1-1.2,3.4-2.9
		C74.7,299.5,73.4,297.8,71.6,297.5z"/>
	<path class="st0" d="M94.1,343.4c-2.3,0-4.1,1.8-4.1,4.1c0,2.3,1.8,4.1,4.1,4.1l0,0c2.3,0,4.1-1.8,4.1-4.1
		C98.2,345.2,96.4,343.4,94.1,343.4z"/>
	<path class="st0" d="M70.4,390c-1.9,0.3-3.2,2-2.9,3.9c0.2,1.7,1.7,2.9,3.4,2.9c0.2,0,0.3,0,0.5,0c1.9-0.3,3.2-2,2.9-3.9l0,0
		C74,391,72.3,389.7,70.4,390z"/>
	<path class="st0" d="M121.4,375.1c0.1,0,0.1,0,0.2,0c0.1,0,0.2,0,0.4,0c2.3-0.2,3.9-2.2,3.7-4.5c-0.2-2.3-2.2-3.9-4.4-3.7
		c-0.1,0-0.2,0-0.3,0.1L121.4,375.1z"/>
	<path class="st0" d="M120.5,351.4L120.5,351.4c2.3,0,4.1-1.8,4.1-4.1c0-2.3-1.8-4.1-4.1-4.1c-2.3,0-4.1,1.8-4.1,4.1
		C116.4,349.6,118.2,351.4,120.5,351.4z"/>
	<path class="st0" d="M69.2,483.8c-1.4,0.6-2,2.2-1.4,3.6l0,0c0.4,1,1.5,1.6,2.5,1.6c0.4,0,0.7-0.1,1.1-0.2c1.4-0.6,2-2.2,1.4-3.6
		l0,0C72.2,483.9,70.6,483.2,69.2,483.8z"/>
	<path class="st0" d="M78,502.4c-1.3,0.7-1.9,2.3-1.2,3.7c0.5,0.9,1.4,1.5,2.4,1.5c0.4,0,0.8-0.1,1.2-0.3c1.3-0.7,1.9-2.3,1.2-3.7
		C80.9,502.2,79.2,501.7,78,502.4z"/>
	<path class="st0" d="M101.4,390.3c-0.3-2.2-2.4-3.8-4.7-3.5c-2.2,0.3-3.8,2.4-3.5,4.7c0.3,2,2.1,3.5,4.1,3.5c0.2,0,0.4,0,0.6,0
		C100.2,394.5,101.7,392.4,101.4,390.3z"/>
	<path class="st0" d="M125.5,398.6c2.2-0.4,3.7-2.5,3.3-4.8l0,0c-0.4-2.2-2.5-3.7-4.8-3.3c-0.6,0.1-1.2,0.4-1.7,0.7l0.4,6.8
		c0.6,0.3,1.3,0.5,2,0.5C125,398.7,125.2,398.6,125.5,398.6z"/>
	<path class="st0" d="M87.7,520.3c-1.3,0.8-1.7,2.4-1,3.7c0.5,0.9,1.4,1.3,2.4,1.3c0.2,0,0.4,0,0.7-0.1c0.7-1,1.4-2.1,1.9-3.3
		c-0.1-0.3-0.1-0.5-0.3-0.8C90.7,519.9,89,519.5,87.7,520.3z"/>
	<path class="st0" d="M101.4,416.4c0.3,0,0.6,0,0.9-0.1c2.2-0.5,3.6-2.7,3.1-4.9c-0.5-2.2-2.7-3.6-4.9-3.1s-3.6,2.7-3.1,4.9
		C97.8,415.1,99.5,416.4,101.4,416.4z"/>
	<path class="st0" d="M361.2,300.1c0.7,1.6,2.2,2.5,3.8,2.5c0.5,0,1.1-0.1,1.6-0.3c2.1-0.9,3.1-3.3,2.2-5.4
		c-0.9-2.1-3.3-3.1-5.4-2.2C361.3,295.6,360.3,298,361.2,300.1z"/>
	<path class="st0" d="M648.5,319.5c-2.3,0.2-3.9,2.2-3.7,4.5c0.1,0.8,0.4,1.6,0.9,2.2h6.4c0.6-0.8,1-1.8,0.9-2.9l0,0
		C652.8,320.9,650.8,319.2,648.5,319.5z"/>
	<path class="st0" d="M641.5,413.8c-2.2-0.6-4.4,0.7-5,2.9c-0.6,2.2,0.7,4.4,2.9,5c0.4,0.1,0.7,0.1,1.1,0.1c1.8,0,3.4-1.2,4-3
		C645,416.6,643.7,414.4,641.5,413.8z"/>
	<path class="st0" d="M645.7,398.6c1.9,0,3.7-1.4,4-3.4c0.4-2.2-1.1-4.4-3.3-4.8c-2.2-0.4-4.4,1.1-4.8,3.3c-0.4,2.2,1.1,4.4,3.3,4.8
		C645.2,398.6,645.5,398.6,645.7,398.6z"/>
	<path class="st0" d="M628.1,508.1c-0.8-0.5-1.6-0.7-2.5-0.7l3.5,6.4c0,0,0,0,0.1-0.1C630.5,511.9,630,509.4,628.1,508.1z"/>
	<path class="st0" d="M565.5,152.9h5.3C569.3,151.6,567,151.7,565.5,152.9z"/>
	<path class="st0" d="M616.1,485.1L616.1,485.1c1.2-1.9,0.5-4.5-1.4-5.6c-1.3-0.8-2.8-0.7-4.1,0l3.9,7.1
		C615.1,486.3,615.7,485.8,616.1,485.1z"/>
	<path class="st0" d="M645.7,217c-2,1-2.9,3.4-1.9,5.5c0.7,1.5,2.2,2.3,3.7,2.3c0.6,0,1.2-0.1,1.8-0.4c2-1,2.9-3.4,1.9-5.5
		S647.7,216,645.7,217z"/>
	<path class="st0" d="M568.2,160.1c0.9,0,1.7-0.3,2.4-0.8l-6-1.3c0.2,0.4,0.4,0.7,0.7,1C566.1,159.7,567.2,160.1,568.2,160.1z"/>
	<path class="st0" d="M546.5,526.8c1,0,2-0.4,2.8-1.1c1.7-1.5,1.8-4.1,0.2-5.8c-1.5-1.7-4.1-1.8-5.8-0.2c-1.7,1.5-1.8,4.1-0.2,5.8
		C544.4,526.4,545.4,526.8,546.5,526.8z"/>
	<path class="st0" d="M473,406.8c0.7,0.4,1.4,0.6,2.2,0.6c1.4,0,2.7-0.7,3.5-1.9c1.2-1.9,0.6-4.5-1.3-5.7c-1.9-1.2-4.5-0.6-5.7,1.3
		C470.5,403.1,471.1,405.6,473,406.8z"/>
	<path class="st0" d="M487.9,263.8c1.7-1.5,1.9-4.1,0.4-5.8c-0.6-0.7-1.4-1.1-2.2-1.3v7.9C486.8,264.6,487.4,264.3,487.9,263.8z"/>
	<path class="st0" d="M489.4,332.2c0.2,0,0.5,0,0.7-0.1c1-0.2,1.9-0.7,2.5-1.5h-6.3C486.9,331.6,488.1,332.2,489.4,332.2z"/>
	<path class="st0" d="M355.5,241.5c-2.2,0.6-3.5,2.9-2.8,5.1c0.5,1.8,2.2,3,3.9,3c0.4,0,0.7,0,1.1-0.2c2.2-0.6,3.5-2.9,2.8-5.1
		C359.9,242.2,357.6,240.9,355.5,241.5z"/>
	<path class="st0" d="M561.8,238c0.8,1.3,2.1,1.9,3.5,1.9c0.7,0,1.5-0.2,2.2-0.6c1.9-1.2,2.5-3.7,1.3-5.7c-1.2-1.9-3.7-2.5-5.7-1.3
		C561.2,233.6,560.6,236.1,561.8,238z"/>
	<path class="st0" d="M473.1,474.8c-1.9,1.3-2.3,3.8-1,5.7c0.8,1.1,2.1,1.8,3.4,1.8c0.8,0,1.6-0.2,2.3-0.7l0,0
		c1.9-1.3,2.3-3.9,1-5.7C477.5,474,474.9,473.5,473.1,474.8z"/>
	<path class="st0" d="M544.9,492.6c1.5-1.7,1.4-4.3-0.3-5.8c-1.2-1.1-3-1.4-4.4-0.7v7.4c0.5,0.2,1.1,0.4,1.7,0.4
		C543,494,544.1,493.5,544.9,492.6z"/>
	<path class="st0" d="M487.8,463.3c-1.7,1.5-1.9,4.1-0.4,5.8c0.2,0.3,0.5,0.5,0.7,0.6V463C488,463.1,487.9,463.2,487.8,463.3z"/>
	<path class="st0" d="M516.2,309c-0.6-2.2-2.9-3.4-5.1-2.8c-2.2,0.6-3.4,2.9-2.8,5.1c0.5,1.8,2.2,3,3.9,3c0.4,0,0.8-0.1,1.1-0.2
		C515.6,313.4,516.8,311.1,516.2,309z"/>
	<path class="st0" d="M558.3,274.6l-0.4,7.9c0.3,0,0.6-0.1,0.9-0.2c2.1-0.8,3.1-3.2,2.3-5.3C560.6,275.8,559.5,275,558.3,274.6z"/>
	<path class="st0" d="M410.6,244.5c-0.6,2.2,0.6,4.5,2.8,5.1c0.4,0.1,0.8,0.2,1.1,0.2c1.8,0,3.4-1.2,3.9-3c0.6-2.2-0.6-4.5-2.8-5.1
		C413.5,241,411.2,242.3,410.6,244.5z"/>
	<path class="st0" d="M412.3,160c-2.2-0.3-4.3,1.2-4.6,3.5c-0.3,2.2,1.2,4.3,3.5,4.6c0.2,0,0.4,0,0.6,0c2,0,3.8-1.5,4.1-3.5
		C416.1,162.4,414.5,160.3,412.3,160z"/>
	<path class="st0" d="M424.8,108.3c-2.2-0.4-4.4,1.1-4.7,3.4c-0.4,2.2,1.1,4.4,3.4,4.7c0.2,0,0.4,0.1,0.7,0.1c2,0,3.7-1.4,4.1-3.4
		C428.6,110.8,427.1,108.7,424.8,108.3z"/>
	<path class="st0" d="M421.2,81.1c-2.2-0.3-4.3,1.3-4.6,3.5c-0.3,2.2,1.3,4.3,3.5,4.6c0.2,0,0.4,0,0.6,0c2,0,3.8-1.5,4.1-3.6
		C425.1,83.4,423.5,81.4,421.2,81.1z"/>
	<path class="st0" d="M365.9,212.4c-2.2,0.3-3.8,2.4-3.5,4.6c0.3,2,2,3.5,4.1,3.5c0.2,0,0.4,0,0.6,0c2.2-0.3,3.8-2.4,3.5-4.6
		C370.2,213.6,368.2,212.1,365.9,212.4z"/>
	<path class="st0" d="M355.7,269.3c-2.1,0.8-3.2,3.2-2.4,5.3c0.6,1.6,2.2,2.7,3.8,2.7c0.5,0,1-0.1,1.4-0.3c2.1-0.8,3.2-3.2,2.4-5.3
		C360.1,269.5,357.8,268.5,355.7,269.3z"/>
	<path class="st0" d="M488,231.7c0.8,0.7,1.8,1,2.7,1c1.1,0,2.3-0.5,3.1-1.4c1.5-1.7,1.4-4.3-0.3-5.8c-1.7-1.5-4.3-1.4-5.8,0.3
		C486.1,227.6,486.3,230.2,488,231.7z"/>
	<path class="st0" d="M424.1,143.3c1.9,0,3.7-1.4,4-3.4c0.4-2.2-1.1-4.4-3.3-4.8c-2.2-0.4-4.4,1.1-4.8,3.3c-0.4,2.2,1.1,4.4,3.3,4.8
		C423.6,143.3,423.9,143.3,424.1,143.3z"/>
	<path class="st0" d="M516.3,332.6c0.2,0,0.4,0,0.6,0c1.2-0.2,2.3-0.9,2.9-1.9h-6.8C513.5,331.9,514.8,332.6,516.3,332.6z"/>
	<path class="st0" d="M503.6,204.7c-1.5,1.7-1.3,4.3,0.4,5.8c0.8,0.7,1.7,1,2.7,1c1.1,0,2.3-0.5,3.1-1.4c1.5-1.7,1.3-4.3-0.4-5.8
		C507.5,202.8,505.1,203,503.6,204.7z"/>
	<path class="st0" d="M542.9,332.4c0.2,0,0.3,0,0.5,0c1.2-0.1,2.2-0.8,2.9-1.7h-6.6C540.3,331.7,541.6,332.4,542.9,332.4z"/>
	<path class="st0" d="M551.8,216.4c-1.8,1.4-2.2,3.9-0.8,5.7c0.8,1.1,2,1.6,3.3,1.6c0.9,0,1.7-0.3,2.5-0.8c1.8-1.4,2.2-3.9,0.8-5.7
		C556.1,215.4,553.6,215.1,551.8,216.4z"/>
	<path class="st0" d="M548.1,258.9c-2,1-2.8,3.5-1.8,5.5c0.7,1.4,2.2,2.2,3.7,2.2c0.6,0,1.3-0.1,1.9-0.5c2-1,2.8-3.5,1.8-5.5l0,0
		C552.6,258.6,550.1,257.8,548.1,258.9z"/>
	<path class="st0" d="M516.1,180.8c1.4-1.8,1-4.4-0.8-5.7c-1.8-1.4-4.4-1-5.8,0.8c-1.4,1.8-1,4.4,0.8,5.8c0.7,0.6,1.6,0.8,2.5,0.8
		C514.1,182.4,515.3,181.9,516.1,180.8z"/>
	<path class="st0" d="M513.7,253.9c-1.9,1.3-2.3,3.8-1,5.7c0.8,1.1,2.1,1.8,3.4,1.8c0.8,0,1.6-0.2,2.3-0.7c1.9-1.3,2.3-3.8,1-5.7
		C518.2,253.1,515.6,252.7,513.7,253.9z"/>
	<path class="st0" d="M513.1,326.1h1.2l0.9-1.4C514.3,324.9,513.6,325.4,513.1,326.1z"/>
	<path class="st0" d="M237.4,91.8c-2,1.1-2.6,3.7-1.5,5.6c0.8,1.3,2.1,2.1,3.6,2.1c0.7,0,1.4-0.2,2.1-0.6c2-1.1,2.6-3.6,1.5-5.6
		C242,91.3,239.4,90.6,237.4,91.8z"/>
	<path class="st0" d="M728.7,370.6c1.4,0,2.6-1.1,2.7-2.6c0.1-1.5-1.1-2.8-2.6-2.9c-1.5-0.1-2.8,1.1-2.9,2.6
		c-0.1,1.5,1.1,2.8,2.6,2.9C728.6,370.6,728.6,370.6,728.7,370.6z"/>
	<path class="st0" d="M669.1,286.3c0.3,0,0.6,0,0.9-0.1c2.2-0.5,3.6-2.7,3.1-4.9c-0.5-2.2-2.7-3.6-4.9-3.1c-2.2,0.5-3.6,2.7-3.1,4.9
		C665.5,285,667.2,286.3,669.1,286.3z"/>
	<path class="st0" d="M724.2,387.9c-0.2,1.5,0.9,2.9,2.4,3c0.1,0,0.2,0,0.3,0c1.4,0,2.6-1,2.7-2.4c0.2-1.5-0.9-2.9-2.4-3
		C725.7,385.3,724.3,386.4,724.2,387.9z"/>
	<path class="st0" d="M672.4,299.6c-2.2,0.3-3.8,2.4-3.4,4.7c0.1,0.8,0.5,1.6,1,2.2l4.3-6.6C673.7,299.6,673.1,299.5,672.4,299.6z"
		/>
	<circle class="st0" cx="702.8" cy="347.4" r="3.4"/>
	<path class="st0" d="M721.3,407.9c-0.3,1.5,0.7,2.9,2.2,3.2c0.2,0,0.3,0,0.5,0c1.3,0,2.5-0.9,2.7-2.3c0.3-1.5-0.7-2.9-2.2-3.2
		C722.9,405.4,721.4,406.4,721.3,407.9z"/>
	<path class="st0" d="M275.2,501.5c0.7,0.5,1.6,0.8,2.4,0.8c1.3,0,2.5-0.6,3.3-1.7c1.3-1.8,0.9-4.4-1-5.7c-1.8-1.3-4.4-0.9-5.7,1
		C272.9,497.6,273.3,500.2,275.2,501.5z"/>
	<path class="st0" d="M393.6,528.4c-2.3,0.1-4,2-3.9,4.3c0,1.1,0.5,2,1.2,2.7c2.5-0.8,4.8-2.1,6.8-3.9
		C397.2,529.7,395.5,528.3,393.6,528.4z"/>
	<path class="st0" d="M701.7,374c0.1,0,0.2,0,0.3,0c1.8,0,3.3-1.4,3.4-3.2c0.1-1.9-1.2-3.5-3.1-3.6l-3,1.3c-0.4,0.5-0.7,1.2-0.7,1.9
		C698.4,372.2,699.8,373.8,701.7,374z"/>
	<path class="st0" d="M380.2,532.6c0.1-2.3-1.6-4.2-3.9-4.3s-4.2,1.6-4.3,3.9c0,0.8,0.2,1.6,0.6,2.3c1.7,0.8,3.5,1.3,5.4,1.6
		C379.2,535.4,380.1,534.1,380.2,532.6z"/>
	<path class="st0" d="M491.4,80.2c1.6,0,3.2-1,3.8-2.6c0.8-2.1-0.2-4.5-2.3-5.3c-2.1-0.8-4.5,0.2-5.3,2.3c-0.8,2.1,0.2,4.5,2.3,5.3
		C490.4,80.2,490.9,80.2,491.4,80.2z"/>
	<path class="st0" d="M508.7,117.8L508.7,117.8c0.6,0.3,1.3,0.5,1.9,0.5c1.5,0,2.9-0.8,3.6-2.2c1.1-2,0.3-4.5-1.7-5.6
		s-4.5-0.3-5.6,1.7C506,114.3,506.8,116.7,508.7,117.8z"/>
	<path class="st0" d="M485.5,102.3c-0.9,2.1,0.1,4.5,2.2,5.4c0.5,0.2,1.1,0.3,1.6,0.3c1.6,0,3.1-0.9,3.8-2.5
		c0.9-2.1-0.1-4.5-2.2-5.4C488.8,99.4,486.4,100.3,485.5,102.3z"/>
	<path class="st0" d="M509.5,88.6c0.6,0.3,1.2,0.4,1.8,0.4c1.5,0,3-0.9,3.7-2.3c1-2,0.1-4.5-1.9-5.5c-2-1-4.5-0.1-5.5,1.9
		C506.7,85.1,507.5,87.6,509.5,88.6z"/>
	<path class="st0" d="M528.4,229.6c-1.8,1.4-2.1,4-0.7,5.8c0.8,1,2,1.6,3.2,1.6c0.9,0,1.8-0.3,2.5-0.9c1.8-1.4,2.1-4,0.7-5.8
		C532.7,228.6,530.2,228.2,528.4,229.6z"/>
	<path class="st0" d="M528.8,162.4c0.7,0.6,1.6,0.9,2.5,0.9c1.2,0,2.4-0.5,3.2-1.6c1.4-1.8,1.1-4.4-0.7-5.8
		c-1.8-1.4-4.4-1.1-5.8,0.7C526.7,158.4,527,161,528.8,162.4z"/>
	<path class="st0" d="M524.1,270.1c-2,1.1-2.8,3.5-1.7,5.5c0.7,1.4,2.2,2.2,3.6,2.2c0.6,0,1.3-0.2,1.9-0.5c2-1.1,2.8-3.5,1.7-5.5
		C528.5,269.8,526.1,269,524.1,270.1z"/>
	<path class="st0" d="M528.8,129.8c0.7,0.5,1.5,0.7,2.3,0.7c1.3,0,2.6-0.7,3.4-1.8c1.3-1.9,0.7-4.4-1.2-5.7s-4.4-0.7-5.7,1.2
		C526.4,126.1,526.9,128.5,528.8,129.8z"/>
	<path class="st0" d="M103.1,260.5c-0.7,2.2,0.6,4.5,2.7,5.1c0.4,0.1,0.8,0.2,1.2,0.2c1.8,0,3.4-1.1,3.9-2.9
		c0.7-2.2-0.5-4.5-2.7-5.1C105.9,257.1,103.7,258.3,103.1,260.5z"/>
	<path class="st0" d="M213.3,282.4c1.6,0,3.2-1,3.8-2.6c0.8-2.1-0.2-4.5-2.3-5.3c-0.8-0.3-1.6-0.4-2.3-0.2v4.9h-3.2
		c0.3,1.3,1.2,2.4,2.5,3C212.3,282.3,212.8,282.4,213.3,282.4z"/>
	<path class="st0" d="M213.9,223c0.7,0.6,1.6,0.8,2.5,0.8c1.2,0,2.5-0.6,3.3-1.6c1.4-1.8,1-4.4-0.8-5.8c-1.8-1.4-4.4-1-5.7,0.8
		c-0.2,0.3-0.4,0.7-0.6,1v2.9C212.8,221.8,213.2,222.5,213.9,223z"/>
	<path class="st0" d="M182.7,285.4c-2.2-0.6-4.5,0.6-5.1,2.8c-0.6,2.2,0.6,4.5,2.8,5.1c0.4,0.1,0.8,0.2,1.1,0.2c1.8,0,3.4-1.2,3.9-3
		C186.1,288.3,184.8,286,182.7,285.4z"/>
	<path class="st0" d="M201.2,325.5c-2.3-0.2-4.3,1.4-4.5,3.7c-0.2,2.3,1.4,4.3,3.7,4.5c0.1,0,0.3,0,0.4,0c2.1,0,3.9-1.6,4.1-3.7
		C205.1,327.8,203.5,325.8,201.2,325.5z"/>
	<path class="st0" d="M211.4,296.1c0.6-2.2-0.6-4.5-2.8-5.1c-2.2-0.6-4.5,0.6-5.1,2.8c-0.6,2.2,0.6,4.5,2.8,5.1
		c0.4,0.1,0.8,0.2,1.2,0.2C209.2,299.1,210.9,297.9,211.4,296.1z"/>
	<circle class="st0" cx="200" cy="347.2" r="4.1"/>
	<path class="st0" d="M277.3,416.7c-1.2-1.9-3.8-2.5-5.7-1.2c-1.9,1.2-2.5,3.8-1.2,5.7c0.8,1.2,2.1,1.9,3.5,1.9
		c0.8,0,1.5-0.2,2.2-0.7C277.9,421,278.5,418.5,277.3,416.7z"/>
	<path class="st0" d="M207.3,312.9c0.4-2.2-1-4.4-3.3-4.8c-2.2-0.4-4.4,1-4.8,3.3c-0.4,2.2,1,4.4,3.3,4.8c0.3,0,0.5,0.1,0.8,0.1
		C205.2,316.2,206.9,314.9,207.3,312.9z"/>
	<path class="st0" d="M177.7,325.3c-0.7-0.9-1.7-1.5-2.9-1.6c-1-0.1-1.9,0.2-2.6,0.7L177.7,325.3z"/>
	<path class="st0" d="M468.3,91.8c-2.2-0.7-4.5,0.5-5.2,2.6c-0.7,2.2,0.5,4.5,2.6,5.2c0.4,0.1,0.8,0.2,1.3,0.2
		c1.7,0,3.3-1.1,3.9-2.8C471.5,94.8,470.3,92.5,468.3,91.8z"/>
	<path class="st0" d="M108.3,195c1.2,0,2.4-0.6,3-1.7c0.9-1.6,0.3-3.7-1.3-4.7c-1.6-0.9-3.7-0.3-4.7,1.3c-0.9,1.6-0.3,3.7,1.3,4.7
		C107.2,194.9,107.8,195,108.3,195z"/>
	<path class="st0" d="M282.3,463c-1.7-1.5-4.3-1.4-5.8,0.3c-1.5,1.7-1.4,4.3,0.3,5.8c0.8,0.7,1.8,1,2.7,1c1.1,0,2.3-0.5,3.1-1.4
		C284.2,467.1,284,464.5,282.3,463z"/>
	<path class="st0" d="M112.6,244.9c0.5,0.2,1,0.3,1.5,0.3l0,0v-8.1c-1.6,0-3.2,1-3.8,2.6C109.5,241.7,110.5,244.1,112.6,244.9z"/>
	<path class="st0" d="M176.4,312.4c0.3,0,0.5,0.1,0.8,0.1c1.9,0,3.7-1.4,4-3.4c0.4-2.2-1.1-4.4-3.3-4.8c-2.2-0.4-4.4,1.1-4.8,3.3
		l0,0C172.7,309.8,174.2,312,176.4,312.4z"/>
	<path class="st0" d="M197.1,205.3c1.2,0,2.4-0.5,3.2-1.6c1.4-1.8,1.1-4.4-0.7-5.8c-1.8-1.4-4.4-1.1-5.8,0.7
		c-1.4,1.8-1.1,4.4,0.7,5.8C195.3,205,196.2,205.3,197.1,205.3z"/>
	<path class="st0" d="M172,232.2L172,232.2c-1.1,2-0.3,4.5,1.7,5.6c0.6,0.3,1.3,0.5,1.9,0.5c1.5,0,2.9-0.8,3.6-2.2
		c1.1-2,0.3-4.5-1.7-5.6C175.6,229.5,173.1,230.2,172,232.2z"/>
	<path class="st0" d="M173.5,188.5c-1.8-1.3-4.4-0.9-5.7,0.9c-1.3,1.8-0.9,4.4,0.9,5.7c0.7,0.5,1.6,0.8,2.4,0.8
		c1.3,0,2.5-0.6,3.3-1.7C175.7,192.3,175.3,189.8,173.5,188.5z"/>
	<path class="st0" d="M187.8,274.9c1.6,0,3.2-1,3.8-2.6c0.8-2.1-0.2-4.5-2.3-5.3c-2.1-0.8-4.5,0.2-5.3,2.3c-0.8,2.1,0.2,4.5,2.3,5.3
		C186.8,274.8,187.3,274.9,187.8,274.9z"/>
	<path class="st0" d="M308,519.9c1.6,0,3-0.9,3.7-2.4c0.9-2.1,0-4.5-2-5.4c-2.1-0.9-4.5,0-5.4,2c-0.9,2.1,0,4.5,2,5.4l0,0
		C306.8,519.8,307.4,519.9,308,519.9z"/>
	<path class="st0" d="M342,581.7c-0.4,2.2,1.1,4.4,3.4,4.7c0.2,0,0.5,0.1,0.7,0.1c2,0,3.7-1.4,4-3.4c0.4-2.2-1.1-4.4-3.4-4.7l0,0
		C344.4,578,342.4,579.5,342,581.7z"/>
	<path class="st0" d="M346.8,551.5c-2.2-0.4-4.4,1-4.8,3.3c-0.4,2.2,1.1,4.4,3.3,4.8c0.3,0,0.5,0.1,0.8,0.1c1.9,0,3.7-1.4,4-3.4
		C350.5,554.1,349.1,551.9,346.8,551.5z"/>
	<path class="st0" d="M260.7,606.1c-2-1-4.5-0.1-5.5,1.9c-1,2-0.1,4.5,1.9,5.5c0.6,0.3,1.2,0.4,1.8,0.4c1.5,0,3-0.9,3.7-2.3
		C263.6,609.5,262.7,607,260.7,606.1z"/>
	<path class="st0" d="M361.4,557.8c-0.2,2.3,1.5,4.3,3.7,4.5c0.1,0,0.3,0,0.4,0c2.1,0,3.9-1.6,4.1-3.7c0.2-2.3-1.5-4.3-3.7-4.5
		C363.6,554,361.6,555.5,361.4,557.8z"/>
	<path class="st0" d="M261.6,576.9c-2-1.1-4.5-0.3-5.6,1.7c-1.1,2-0.3,4.5,1.7,5.6c0.6,0.3,1.3,0.5,1.9,0.5c1.5,0,2.9-0.8,3.6-2.2
		C264.3,580.4,263.6,577.9,261.6,576.9z"/>
	<path class="st0" d="M302.1,603c0.4,0.1,0.8,0.2,1.3,0.2c1.7,0,3.3-1.1,3.9-2.8c0.7-2.2-0.5-4.5-2.6-5.2c-2.2-0.7-4.5,0.5-5.2,2.6
		C298.7,599.9,299.9,602.2,302.1,603z"/>
	<path class="st0" d="M307,548.6c0.5,0.2,1,0.3,1.5,0.3c1.6,0,3.2-1,3.8-2.6c0.8-2.1-0.2-4.5-2.3-5.3c-2.1-0.8-4.5,0.2-5.3,2.3
		C303.9,545.4,305,547.8,307,548.6z"/>
	<path class="st0" d="M401,558.5c0.2,2.1,2,3.7,4.1,3.7c0.1,0,0.2,0,0.4,0c2.3-0.2,3.9-2.2,3.7-4.5c-0.2-2.3-2.2-3.9-4.5-3.7
		C402.4,554.4,400.8,556.3,401,558.5z"/>
	<path class="st0" d="M423.7,578.4c-2.2,0.4-3.8,2.5-3.4,4.7c0.3,2,2.1,3.4,4.1,3.4c0.2,0,0.4,0,0.7-0.1c2.2-0.4,3.7-2.5,3.4-4.7
		C428.1,579.5,426,578,423.7,578.4z"/>
	<path class="st0" d="M487.9,587c-2.1,0.9-3.1,3.3-2.2,5.4c0.7,1.6,2.2,2.5,3.8,2.5c0.5,0,1.1-0.1,1.6-0.3c2.1-0.9,3-3.3,2.2-5.4
		C492.4,587.1,489.9,586.1,487.9,587z"/>
	<path class="st0" d="M508.9,576.8c-2,1.1-2.7,3.6-1.7,5.6c0.7,1.4,2.2,2.2,3.6,2.2c0.7,0,1.3-0.2,1.9-0.5l0,0
		c2-1.1,2.7-3.6,1.7-5.6S510.9,575.8,508.9,576.8z"/>
	<path class="st0" d="M565.5,535.7c-1.6,1.6-1.7,4.2-0.1,5.8c0.8,0.8,1.9,1.3,3,1.3c1,0,2-0.4,2.8-1.1c1.6-1.6,1.7-4.2,0.1-5.8
		C569.8,534.2,567.2,534.1,565.5,535.7z"/>
	<path class="st0" d="M509.7,606.1c-2,1-2.9,3.4-1.9,5.5c0.7,1.5,2.2,2.3,3.7,2.3c0.6,0,1.2-0.1,1.8-0.4c2-1,2.9-3.4,1.9-5.5
		C514.2,606,511.8,605.2,509.7,606.1z"/>
	<path class="st0" d="M449.4,521.3c-0.7-2.1-3.1-3.3-5.2-2.5c-2.1,0.7-3.3,3.1-2.6,5.2c0.6,1.7,2.2,2.8,3.9,2.8
		c0.4,0,0.9-0.1,1.3-0.2l0,0C449,525.8,450.1,523.4,449.4,521.3z"/>
	<path class="st0" d="M423.6,551.5c-2.2,0.4-3.7,2.6-3.3,4.8c0.4,2,2.1,3.4,4,3.4c0.2,0,0.5,0,0.8-0.1l0,0c2.2-0.4,3.7-2.6,3.3-4.8
		C428,552.6,425.8,551.1,423.6,551.5z"/>
	<path class="st0" d="M443.5,601.5c-2.2,0.5-3.6,2.7-3.1,4.9c0.4,1.9,2.1,3.2,4,3.2c0.3,0,0.6,0,0.9-0.1c2.2-0.5,3.6-2.7,3.1-4.9
		C447.8,602.4,445.6,601,443.5,601.5z"/>
	<path class="st0" d="M404.8,140.6c2.1,0,3.9-1.6,4.1-3.7c0.2-2.3-1.5-4.3-3.7-4.5c-2.3-0.2-4.3,1.5-4.5,3.7
		c-0.2,2.3,1.5,4.3,3.7,4.5C404.6,140.6,404.7,140.6,404.8,140.6z"/>
	<path class="st0" d="M325.4,85.3c-2.2,0.5-3.6,2.7-3.1,4.9c0.4,1.9,2.1,3.2,4,3.2c0.3,0,0.6,0,0.9-0.1c2.2-0.5,3.6-2.7,3.1-4.9
		C329.8,86.2,327.6,84.8,325.4,85.3z"/>
	<path class="st0" d="M325.5,112.6c-2.2,0.6-3.5,2.8-3,5c0.5,1.9,2.1,3.1,4,3.1c0.3,0,0.7,0,1-0.1c2.2-0.6,3.5-2.8,3-5
		C330,113.4,327.7,112,325.5,112.6z"/>
	<path class="st0" d="M312.6,148.4c-0.8-2.1-3.2-3.2-5.3-2.3c-2.1,0.8-3.2,3.2-2.3,5.3c0.2,0.6,0.7,1.2,1.2,1.6h5.4
		C312.7,151.9,313.2,150.1,312.6,148.4z"/>
	<path class="st0" d="M362.3,190.1c0.2,2.1,2,3.6,4.1,3.6c0.2,0,0.3,0,0.5,0c2.3-0.3,3.9-2.3,3.6-4.6c-0.3-2.3-2.3-3.9-4.6-3.6
		C363.6,186,362,188,362.3,190.1z"/>
	<path class="st0" d="M369.7,136.2c-0.2-2.3-2.2-3.9-4.5-3.7s-3.9,2.2-3.7,4.5c0.2,2.1,2,3.7,4.1,3.7c0.1,0,0.3,0,0.4,0
		C368.4,140.4,369.9,138.5,369.7,136.2z"/>
	<path class="st0" d="M303.5,99.7c0.4,0,0.8-0.1,1.3-0.2c2.2-0.7,3.3-3,2.6-5.2c-0.7-2.2-3-3.3-5.2-2.6c-2.2,0.7-3.3,3-2.6,5.2
		C300.1,98.6,301.7,99.7,303.5,99.7z"/>
	<path class="st0" d="M445,85.4c-2.2-0.5-4.4,0.9-4.9,3.1c-0.5,2.2,0.9,4.4,3.1,4.9c0.3,0.1,0.6,0.1,0.9,0.1c1.9,0,3.6-1.3,4-3.2
		C448.6,88.1,447.2,85.9,445,85.4z"/>
	<path class="st0" d="M465.6,151.4c0.8-2.1-0.2-4.5-2.4-5.3c-2.1-0.8-4.5,0.2-5.3,2.3c-0.6,1.6-0.1,3.4,1.1,4.5h5.4
		C464.9,152.5,465.3,152,465.6,151.4z"/>
	<path class="st0" d="M199.4,541.6c0.8,0.8,1.8,1.1,2.8,1.1c1.1,0,2.2-0.4,3-1.3c0.9-1,1.3-2.3,1.1-3.5h-8
		C197.9,539.3,198.4,540.6,199.4,541.6z"/>
	<path class="st0" d="M281.2,108c0.5,0,1.1-0.1,1.6-0.3c2.1-0.9,3.1-3.3,2.2-5.4c-0.9-2.1-3.3-3.1-5.4-2.2c-2.1,0.9-3.1,3.3-2.2,5.4
		C278.2,107.1,279.7,108,281.2,108z"/>
	<path class="st0" d="M259.9,513c-1.8-1.4-4.4-1-5.7,0.8c-1.4,1.8-1,4.4,0.8,5.8c0.7,0.6,1.6,0.8,2.5,0.8c1.2,0,2.5-0.6,3.3-1.6
		C262.1,517,261.7,514.4,259.9,513z"/>
	<path class="st0" d="M216.9,551.8c-1.4,1.8-1.1,4.4,0.6,5.8c0.8,0.6,1.7,0.9,2.6,0.9c1.2,0,2.4-0.5,3.2-1.5
		c1.4-1.8,1.1-4.4-0.6-5.8C220.8,549.7,218.2,550,216.9,551.8z"/>
	<path class="st0" d="M222.8,143.6c1.8-1.4,2.1-4,0.7-5.8c-1.4-1.8-4-2.1-5.8-0.7c-1.8,1.4-2.1,4-0.7,5.8c0.8,1,2,1.5,3.2,1.5
		C221.1,144.5,222,144.2,222.8,143.6z"/>
	<path class="st0" d="M67.6,350.5c1.9,0,3.4-1.5,3.4-3.4s-1.5-3.4-3.4-3.4c-1.9,0-3.4,1.5-3.4,3.4C64.3,348.9,65.8,350.5,67.6,350.5
		L67.6,350.5z"/>
	<path class="st0" d="M242,157c-0.2-0.2-0.3-0.4-0.5-0.5l0.1,6C243,161,243.2,158.7,242,157z"/>
	<path class="st0" d="M260.4,88.8c2-1,2.9-3.4,1.9-5.5c-1-2-3.4-2.9-5.5-1.9c-2,1-2.9,3.4-1.9,5.5c0.7,1.5,2.2,2.3,3.7,2.3
		C259.3,89.1,259.9,89,260.4,88.8z"/>
	<path class="st0" d="M259.8,118.3c0.7,0,1.3-0.2,1.9-0.5c2-1.1,2.7-3.6,1.7-5.6c-1.1-2-3.6-2.7-5.6-1.7c-2,1.1-2.7,3.6-1.7,5.6
		C256.9,117.5,258.4,118.3,259.8,118.3z"/>
	<path class="st0" d="M225.8,202c-1.5,1.7-1.4,4.3,0.3,5.8c0.8,0.7,1.8,1.1,2.8,1.1c1.1,0,2.2-0.5,3-1.3c1.5-1.7,1.4-4.3-0.3-5.8
		C229.8,200.2,227.3,200.3,225.8,202z"/>
	<path class="st0" d="M385.3,396.2L385.3,396.2c-2.4,0-4.2,1.8-4.2,4.1c0,2.3,1.8,4.1,4.1,4.1c0,0,0,0,0.1,0c0,0,0,0,0.1,0
		c2.3,0,4.1-1.8,4.1-4.1C389.4,398.1,387.6,396.2,385.3,396.2z"/>
	<path class="st0" d="M384.9,510.2L384.9,510.2c0.1,0,0.1,0,0.2,0h0.1c2.3,0,4.1-1.8,4.1-4.1c0-2.3-1.8-4.1-4.1-4.1
		c-0.1,0-0.1,0-0.2,0h-0.1l0,0c-2.3,0-4.1,1.8-4.1,4.1C380.9,508.4,382.6,510.2,384.9,510.2z"/>
	<path class="st0" d="M336.4,347.4c0-2.3-1.8-4.1-4.1-4.1c-2.3,0-4.1,1.8-4.1,4.1s1.8,4.1,4.1,4.1
		C334.5,351.5,336.4,349.7,336.4,347.4z"/>
	<path class="st0" d="M385,483.8L385,483.8c2.3,0,4.1-1.8,4.1-4.1s-1.8-4.1-4.1-4.1s-4.1,1.8-4.1,4.1
		C381,481.9,382.7,483.8,385,483.8z"/>
	<path class="st0" d="M385.1,378L385.1,378c2.3,0,4.1-1.8,4.1-4.1c0-2.3-1.8-4.1-4.1-4.1c-2.3,0-4.1,1.8-4.1,4.1
		C381,376.1,382.9,378,385.1,378z"/>
	<path class="st0" d="M340.1,366.2L340.1,366.2c-0.9-2.1-3.3-3.1-5.4-2.2c-2.1,0.9-3.1,3.3-2.2,5.4c0.4,0.9,1.1,1.6,2,2.1
		c1.9-1.3,3.9-2.5,5.9-3.6C340.4,367.2,340.3,366.6,340.1,366.2z"/>
	<path class="st0" d="M385.3,351.6c2.3,0,4.1-1.8,4.1-4.1c0,0,0,0,0-0.1c0-0.1,0,0,0-0.1c0-2.3-1.8-4.1-4.1-4.1
		c-2.3,0-4.1,1.8-4.1,4.1v0.1C381.1,349.8,383,351.6,385.3,351.6C385.2,351.6,385.2,351.6,385.3,351.6z"/>
	<path class="st0" d="M385.3,316.8c-2.3,0-4.1,1.8-4.1,4.1s1.8,4.1,4.1,4.1l0,0c2.3,0,4.1-1.8,4.1-4.1
		C389.4,318.6,387.5,316.8,385.3,316.8z"/>
	<path class="st0" d="M358.8,351.4c2.3,0,4.1-1.8,4.1-4.1c0-2.3-1.8-4.1-4.1-4.1c-2.3,0-4.1,1.8-4.1,4.1
		C354.7,349.6,356.5,351.4,358.8,351.4C358.7,351.4,358.7,351.4,358.8,351.4z"/>
	<path class="st0" d="M355.6,425.4c0.5,0.2,1,0.3,1.5,0.3c1.7,0,3.2-1,3.8-2.6c0.8-2.1-0.3-4.5-2.4-5.3c-1.5-0.6-3.1-0.2-4.2,0.8
		c-0.1,1.9-0.2,3.8-0.3,5.9C354.4,424.8,354.9,425.2,355.6,425.4z"/>
	<path class="st0" d="M376,422.1L376,422.1c-2.3-0.3-4.3,1.3-4.6,3.6c-0.3,2.3,1.3,4.3,3.6,4.6c0.2,0,0.3,0,0.5,0
		c2,0,3.8-1.5,4.1-3.6C379.9,424.5,378.3,422.4,376,422.1z"/>
	<path class="st0" d="M366.8,474.3L366.8,474.3c-2.2-0.3-4.3,1.2-4.6,3.5c-0.3,2.2,1.2,4.3,3.5,4.6c0.2,0,0.4,0,0.6,0
		c2,0,3.8-1.5,4.1-3.5C370.5,476.7,369,474.6,366.8,474.3z"/>
	<path class="st0" d="M365.5,370c0.3,0.1,0.6,0.1,1,0.1c1,0,2.1-0.4,2.9-1.2c1-1,1.4-2.5,1.1-3.8C368.6,366.4,367,368,365.5,370z"/>
	<path class="st0" d="M398.7,425.8c-0.3-2.3-2.3-3.9-4.6-3.6c-2.3,0.3-3.9,2.3-3.6,4.6c0.2,2.1,2,3.6,4.1,3.6c0.2,0,0.3,0,0.5,0l0,0
		C397.4,430,399,428,398.7,425.8z"/>
	<path class="st0" d="M375.5,448.7c-2.3-0.2-4.3,1.4-4.5,3.7c-0.2,2.3,1.4,4.3,3.7,4.5c0.1,0,0.3,0,0.4,0c2.1,0,3.9-1.6,4.1-3.7
		C379.4,450.9,377.7,448.9,375.5,448.7z"/>
	<path class="st0" d="M308.1,370.4c0.3,0,0.6,0,1-0.1c2.2-0.5,3.6-2.8,3-5c-0.5-2.2-2.8-3.6-5-3c-2.2,0.5-3.6,2.8-3,5
		C304.7,369.1,306.2,370.4,308.1,370.4z"/>
	<path class="st0" d="M365.3,509c0.2,0,0.3,0,0.5,0c2,0,3.8-1.5,4.1-3.6c0.3-2.3-1.3-4.3-3.6-4.6c-2.3-0.3-4.3,1.3-4.6,3.6
		C361.4,506.7,363,508.7,365.3,509z"/>
	<path class="st0" d="M363.4,400.1c0.5,0.2,1,0.3,1.6,0.3c1.6,0,3.1-1,3.8-2.5c0.9-2.1-0.1-4.5-2.2-5.4c-2.1-0.9-4.5,0.1-5.4,2.2
		C360.4,396.8,361.3,399.2,363.4,400.1z"/>
	<path class="st0" d="M394.6,456.9c0.1,0,0.2,0,0.4,0h0.1h0.1c2.3-0.2,3.9-2.2,3.7-4.5c-0.2-2.3-2.2-3.9-4.5-3.7h-0.1h-0.1
		c-2.3,0.2-3.9,2.2-3.7,4.5C390.8,455.3,392.6,456.9,394.6,456.9z"/>
	<path class="st0" d="M275.3,347c0,2.3,1.8,4.1,4.1,4.1l0,0c2.3,0,4.1-1.8,4.1-4.1s-1.8-4.1-4.1-4.1
		C277.2,342.9,275.3,344.8,275.3,347z"/>
	<path class="st0" d="M250.2,327.9c-0.3,2.2,1.2,4.3,3.5,4.6c0.2,0,0.4,0,0.6,0c2,0,3.8-1.5,4.1-3.5c0.3-2.2-1.2-4.3-3.5-4.6
		C252.7,324.1,250.6,325.6,250.2,327.9L250.2,327.9z"/>
	<path class="st0" d="M305.8,351.4c2.3,0,4.1-1.8,4.1-4.1c0-2.3-1.8-4.1-4.1-4.1c-2.3,0-4.1,1.8-4.1,4.1
		C301.8,349.6,303.6,351.4,305.8,351.4L305.8,351.4z"/>
	<path class="st0" d="M285.2,328.4c0.4-2.2-1-4.4-3.3-4.8c-2.2-0.4-4.4,1-4.8,3.3c-0.4,2.2,1,4.4,3.3,4.8c0.3,0,0.5,0.1,0.8,0.1
		C283.1,331.6,284.8,330.3,285.2,328.4z"/>
	<path class="st0" d="M248.8,347.2c0,2.3,1.8,4.1,4.1,4.1l0,0c2.3,0,4.1-1.8,4.1-4.1l0,0c0-2.3-1.8-4.1-4.1-4.1
		C250.7,343.1,248.8,345,248.8,347.2z"/>
	<path class="st0" d="M242,465c1.8-1.4,2.1-4,0.7-5.8c-0.9-1.1-2.2-1.7-3.6-1.6v8.1c0.1,0,0.2,0,0.3,0
		C240.3,465.8,241.2,465.6,242,465z"/>
	<path class="st0" d="M240.5,402c-0.3-0.7-0.8-1.3-1.3-1.8v6.4C240.5,405.5,241.1,403.8,240.5,402z"/>
	<path class="st0" d="M259.4,306c-2.2-0.6-4.5,0.6-5.1,2.8c-0.6,2.2,0.6,4.5,2.8,5.1c0.4,0.1,0.8,0.2,1.2,0.2c1.8,0,3.4-1.2,3.9-2.9
		C262.8,309,261.6,306.7,259.4,306z"/>
	<path class="st0" d="M255.2,175.1c-1.8,1.4-2.2,3.9-0.8,5.7c0.8,1.1,2,1.6,3.3,1.6c0.9,0,1.7-0.3,2.5-0.8c0.3-0.3,0.6-0.6,0.8-0.9
		v-4.8l0,0C259.6,174.1,257,173.8,255.2,175.1z"/>
	<path class="st0" d="M319.2,259.4c-1.8,1.4-2.2,3.9-0.8,5.7c0.8,1.1,2,1.6,3.3,1.6c0.9,0,1.7-0.3,2.5-0.8l0,0
		c1.8-1.4,2.2-3.9,0.8-5.7C323.6,258.4,321,258.1,319.2,259.4z"/>
	<path class="st0" d="M313.5,210.2c2-1,2.8-3.5,1.7-5.5c-0.5-1-1.3-1.6-2.3-2v7.6C313.2,210.4,313.4,210.3,313.5,210.2z"/>
	<path class="st0" d="M218.7,265.9c0.6,0.3,1.2,0.5,1.9,0.5c1.5,0,2.9-0.8,3.7-2.2c1-2,0.2-4.5-1.8-5.5c-2-1-4.5-0.3-5.5,1.8
		C216,262.5,216.8,264.9,218.7,265.9z"/>
	<path class="st0" d="M317.2,233.8c-0.9-1.5-2.6-2.1-4.2-1.8v7.9c0.3,0,0.5,0.1,0.8,0.1c0.8,0,1.5-0.2,2.2-0.7l0,0
		C317.9,238.2,318.3,235.7,317.2,233.8z"/>
	<path class="st0" d="M290.2,383.8l0.1,2.7C290.5,385.7,290.5,384.7,290.2,383.8L290.2,383.8z"/>
	<path class="st0" d="M260.9,209.9L260.9,209.9v-5.4C259.6,206.1,259.6,208.4,260.9,209.9z"/>
	<path class="st0" d="M307.1,332.2c0.3,0.1,0.7,0.1,1,0.1c0.6,0,1.1-0.1,1.6-0.3c-1.6-0.3-3.1-0.6-4.6-1
		C305.6,331.6,306.3,332,307.1,332.2z"/>
	<path class="st0" d="M264.3,296.3c-0.8-2.3-1.4-4.8-1.9-7.2c-0.5,0.4-0.9,0.9-1.2,1.5c-0.9,2.1,0,4.5,2,5.4
		C263.6,296.1,263.9,296.2,264.3,296.3z"/>
	<path class="st0" d="M323.1,297.7c0.8,0.7,1.8,1,2.7,1c1.1,0,2.3-0.5,3.1-1.4c1.5-1.7,1.4-4.3-0.3-5.8c-1.7-1.5-4.3-1.4-5.8,0.3
		C321.3,293.6,321.4,296.2,323.1,297.7z"/>
	<path class="st0" d="M174.4,331.8c1.1,0,2-0.4,2.8-1.1h-5.6c0.6,0.6,1.5,1,2.4,1.1C174.2,331.8,174.3,331.8,174.4,331.8z"/>
	<ellipse class="st0" cx="147.1" cy="347.5" rx="4.1" ry="4.1"/>
	<path class="st0" d="M173.5,343.2c-2.3,0-4.1,1.8-4.1,4.1c0,2.3,1.8,4.1,4.1,4.1l0,0c2.3,0,4.1-1.8,4.1-4.1
		C177.6,345,175.8,343.2,173.5,343.2z"/>
	<path class="st0" d="M166.9,255.9c1.6,0,3.1-0.9,3.8-2.5l0,0c0.9-2.1,0-4.5-2.1-5.4c-0.8-0.4-1.7-0.4-2.5-0.2v7.9
		C166.5,255.9,166.7,255.9,166.9,255.9z"/>
	<path class="st0" d="M185.9,177.2c1.1,0,2.3-0.5,3.1-1.4c1.5-1.7,1.3-4.3-0.4-5.8c-1.7-1.5-4.3-1.3-5.8,0.4s-1.3,4.3,0.4,5.8
		C184,177,184.9,177.2,185.9,177.2z"/>
	<path class="st0" d="M404.5,482.4c2.2-0.3,3.8-2.4,3.5-4.6c-0.3-2.2-2.4-3.8-4.6-3.5c-2.2,0.3-3.8,2.4-3.5,4.6
		c0.3,2.1,2,3.5,4.1,3.5C404.1,482.5,404.3,482.5,404.5,482.4z"/>
	<path class="st0" d="M385.2,290.4c-2.3,0-4.1,1.8-4.1,4.1s1.8,4.1,4.1,4.1c1,0,2-0.4,2.7-1c0.5-1.2,0.9-2.4,1.4-3.6
		C388.9,291.9,387.2,290.4,385.2,290.4z"/>
	<path class="st0" d="M366.6,332.7c1,0,2.1-0.4,2.9-1.2l0,0c1.5-1.5,1.6-3.9,0.3-5.5c-2.3,1.2-4.6,2.4-7.1,3.4
		c0.2,0.8,0.5,1.5,1.1,2.1C364.5,332.3,365.5,332.7,366.6,332.7z"/>
	<path class="st0" d="M252.4,260.3c0.7,0.5,1.5,0.7,2.3,0.7c1.3,0,2.6-0.6,3.4-1.8c1.3-1.9,0.8-4.4-1-5.7c-1.9-1.3-4.4-0.8-5.7,1
		l0,0C250.1,256.4,250.5,259,252.4,260.3z"/>
	<path class="st0" d="M226,244.8c-1.2,1.9-0.7,4.4,1.2,5.7c0.7,0.4,1.5,0.7,2.2,0.7c1.4,0,2.7-0.7,3.5-1.9c1.2-1.9,0.7-4.4-1.2-5.7
		C229.7,242.4,227.3,242.9,226,244.8z"/>
	<path class="st0" d="M242.4,507.8c1.1,0,2.2-0.5,3-1.3c1.5-1.7,1.4-4.3-0.3-5.8s-4.3-1.4-5.8,0.3c-0.1,0.1-0.2,0.3-0.3,0.4v4.7
		c0.2,0.2,0.4,0.5,0.6,0.7C240.5,507.4,241.5,507.8,242.4,507.8z"/>
	<path class="st0" d="M228.2,323.9c-2.3-0.3-4.3,1.3-4.6,3.6c-0.3,2.3,1.3,4.3,3.6,4.6c0.2,0,0.3,0,0.5,0c2,0,3.8-1.5,4.1-3.6
		C231.9,326.3,230.3,324.2,228.2,323.9z"/>
	<path class="st0" d="M226.4,351.2C226.5,351.2,226.5,351.2,226.4,351.2c2.3,0,4.1-1.8,4.1-4.1c0-2.3-1.8-4.1-4.1-4.1
		c-2.3,0-4.1,1.8-4.1,4.1C222.4,349.3,224.2,351.2,226.4,351.2z"/>
	<path class="st0" d="M235,310.1L235,310.1c0.5-2.2-0.8-4.4-3-5c-2.2-0.5-4.4,0.8-5,3c-0.5,2.2,0.8,4.4,3,5c0.3,0.1,0.7,0.1,1,0.1
		C232.9,313.2,234.6,312,235,310.1z"/>
	<path class="st0" d="M207,189.2c0.8,0.7,1.8,1.1,2.8,1.1c1.1,0,2.2-0.4,3-1.3c1.5-1.7,1.4-4.3-0.2-5.8c-1.7-1.5-4.3-1.4-5.8,0.2
		C205.2,185.1,205.4,187.7,207,189.2z"/>
	<path class="st0" d="M236.8,294.9c1.7,0,3.2-1,3.8-2.6c0.8-2.1-0.3-4.5-2.4-5.3c-2.1-0.8-4.5,0.3-5.3,2.4c-0.8,2.1,0.3,4.5,2.4,5.3
		C235.8,294.8,236.3,294.9,236.8,294.9z"/>
	<path class="st0" d="M183.4,220.7c0.7,0.5,1.5,0.7,2.2,0.7c1.3,0,2.7-0.7,3.4-1.9c1.2-1.9,0.7-4.4-1.2-5.7
		c-1.9-1.2-4.4-0.7-5.7,1.2C181,216.9,181.5,219.4,183.4,220.7z"/>
	<path class="st0" d="M372.5,162.6c0.1,2.2,1.9,3.9,4.1,3.9c0.1,0,0.1,0,0.2,0c2.3-0.1,4-2,3.9-4.3c0-0.1,0-0.2,0-0.3l-6.1-3.1
		C373.2,159.6,372.4,161,372.5,162.6z"/>
	<path class="st0" d="M399.4,242.3c0.2-1.8-0.8-3.3-2.3-4.1v7.3C398.3,245,399.2,243.8,399.4,242.3z"/>
	<path class="st0" d="M392.2,244.5v-5.2c-0.5,0.6-0.8,1.4-0.9,2.2C391.2,242.7,391.5,243.7,392.2,244.5z"/>
	<path class="st0" d="M398.9,269c0.2-1.6-0.6-3.1-1.8-3.9v5.7c0,0.4,0,0.8,0,1.2C398,271.4,398.7,270.3,398.9,269z"/>
	<path class="st0" d="M392.2,265.5c-0.7,0.6-1.2,1.5-1.3,2.5c-0.2,1.4,0.4,2.7,1.3,3.5c0-0.4,0-0.7,0-1V265.5z"/>
	<path class="st0" d="M404.1,392.5c-2.1,0.9-3.1,3.3-2.2,5.4c0.7,1.6,2.2,2.5,3.8,2.5c0.5,0,1.1-0.1,1.6-0.3
		c1.2-0.5,2.1-1.6,2.4-2.8c-0.2-1.1-0.3-2.1-0.5-3.2C408,392.4,406,391.7,404.1,392.5z"/>
	<path class="st0" d="M409.4,423.1c0.4,1.1,1.3,1.9,2.3,2.3c-0.1-2.6-0.2-5-0.3-7.3C409.6,419,408.7,421.2,409.4,423.1z"/>
	<path class="st0" d="M404.4,509.1c0.2,0,0.3,0,0.5,0c2.3-0.3,3.9-2.3,3.6-4.6s-2.3-3.9-4.6-3.6c-2.2,0.3-3.9,2.3-3.6,4.6
		C400.5,507.6,402.3,509.1,404.4,509.1z"/>
	<path class="st0" d="M385.4,192.6L385.4,192.6c2.3,0,4.1-1.8,4.1-4.1s-1.8-4.1-4.1-4.1c-2.3,0-4.1,1.8-4.1,4.1
		C381.3,190.8,383.1,192.6,385.4,192.6z"/>
	<path class="st0" d="M375.2,264.6c-2.3,0.3-3.9,2.3-3.6,4.6c0.2,2.1,2,3.6,4.1,3.6c0.2,0,0.3,0,0.5,0c2.3-0.3,3.9-2.3,3.6-4.6
		S377.5,264.3,375.2,264.6z"/>
	<path class="st0" d="M401.1,331.5c0.8,0.8,1.9,1.2,2.9,1.2c1,0,2.1-0.4,2.9-1.2c1.6-1.6,1.6-4.2,0-5.8l0,0c-1.6-1.6-4.2-1.6-5.8,0
		C399.5,327.4,399.5,329.9,401.1,331.5z"/>
	<path class="st0" d="M404.2,220.5c2,0,3.8-1.5,4.1-3.5c0.3-2.2-1.2-4.3-3.5-4.6l0,0c-2.2-0.3-4.3,1.2-4.6,3.5
		c-0.3,2.2,1.2,4.3,3.5,4.6l0,0C403.8,220.5,404,220.5,404.2,220.5z"/>
	<path class="st0" d="M375.4,237.9c-2.3,0.2-3.9,2.2-3.7,4.5c0.2,2.1,2,3.7,4.1,3.7c0.1,0,0.2,0,0.4,0c2.3-0.2,3.9-2.2,3.7-4.5
		C379.7,239.4,377.7,237.7,375.4,237.9z"/>
	<path class="st0" d="M411.7,351.6L411.7,351.6c2.3,0,4.1-1.8,4.1-4.1c0,0,0,0,0-0.1c0-0.1,0,0,0-0.1c0-2.3-1.8-4.1-4.1-4.1
		c-2.3,0-4.1,1.8-4.1,4.1v0.1C407.6,349.8,409.4,351.6,411.7,351.6z"/>
	<path class="st0" d="M417.3,274.6c0.8-2.1-0.3-4.5-2.4-5.3c-2.1-0.8-4.5,0.3-5.3,2.4c-0.8,2.1,0.3,4.5,2.4,5.3
		c0.5,0.2,1,0.3,1.5,0.3C415.1,277.3,416.7,276.3,417.3,274.6z"/>
	<path class="st0" d="M405.1,185.7c-2.3-0.3-4.3,1.3-4.6,3.6c-0.3,2.2,1.3,4.3,3.6,4.6c0.2,0,0.3,0,0.5,0c2,0,3.8-1.5,4.1-3.6
		C408.9,188.1,407.3,186,405.1,185.7z"/>
	<path class="st0" d="M389.4,215c0-2.3-1.8-4.1-4.1-4.1c-2.3,0-4.1,1.8-4.1,4.1c0,2.3,1.8,4.1,4.1,4.1
		C387.6,219.1,389.4,217.3,389.4,215z"/>
	<path class="st0" d="M407,294.7c-2.1-0.9-4.5,0.1-5.4,2.2c-0.9,2.1,0.1,4.5,2.2,5.4c0.5,0.2,1,0.3,1.6,0.3c1.6,0,3.1-1,3.8-2.5
		C410.1,297.9,409.1,295.5,407,294.7z"/>
	<path class="st0" d="M346.9,216.4c-2.2,0.6-3.4,2.9-2.8,5.1c0.5,1.8,2.2,2.9,3.9,2.9c0.4,0,0.8,0,1.2-0.2c2.2-0.6,3.4-2.9,2.8-5.1
		C351.3,217,349.1,215.8,346.9,216.4z"/>
	<path class="st0" d="M238.5,655.8c-1.4-0.6-3-0.1-3.6,1.3c-0.7,1.4-0.1,3,1.3,3.6c0.4,0.2,0.8,0.3,1.2,0.3c1,0,2-0.6,2.5-1.6
		C240.5,657.9,239.9,656.3,238.5,655.8z"/>
	<path class="st0" d="M203.2,636.2L203.2,636.2c-1.3-0.8-3-0.4-3.8,0.8c-0.8,1.3-0.4,3,0.9,3.8c0.5,0.3,1,0.4,1.5,0.4
		c0.9,0,1.8-0.5,2.3-1.3C204.8,638.7,204.5,637,203.2,636.2z"/>
	<path class="st0" d="M202.8,607.4c1.1-1.5,0.8-3.7-0.8-4.8c-1.5-1.1-3.7-0.8-4.8,0.8c-1.1,1.5-0.8,3.7,0.8,4.8
		c0.6,0.4,1.3,0.6,2,0.6C201.1,608.8,202.1,608.3,202.8,607.4z"/>
	<path class="st0" d="M182.6,625.6c-0.9,1.2-0.6,2.9,0.6,3.8l0,0c0.5,0.3,1,0.5,1.6,0.5c0.9,0,1.7-0.4,2.2-1.1
		c0.9-1.2,0.6-2.9-0.6-3.8C185.2,624.1,183.5,624.3,182.6,625.6z"/>
	<path class="st0" d="M206.3,571.9c-1.8-1.4-4.4-1.1-5.8,0.6c-1.4,1.8-1.1,4.4,0.7,5.8c0.8,0.6,1.7,0.9,2.6,0.9
		c1.2,0,2.4-0.5,3.2-1.5C208.3,575.9,208,573.3,206.3,571.9z"/>
	<path class="st0" d="M223.6,584.6c-1.9-1.3-4.4-0.8-5.7,1.1c-1.3,1.9-0.8,4.4,1.1,5.7c0.7,0.5,1.5,0.7,2.3,0.7
		c1.3,0,2.6-0.6,3.4-1.8C225.9,588.5,225.4,585.9,223.6,584.6z"/>
	<path class="st0" d="M183.8,588.7c-1.4-1.2-3.6-1-4.8,0.4c-1.2,1.5-1,3.6,0.4,4.8c0.6,0.5,1.4,0.8,2.2,0.8c1,0,2-0.4,2.6-1.2
		C185.5,592,185.3,589.9,183.8,588.7z"/>
	<path class="st0" d="M221.1,615.4c-1.6-1-3.7-0.5-4.7,1.1c-1,1.6-0.5,3.7,1.1,4.7c0.6,0.3,1.2,0.5,1.8,0.5c1.2,0,2.3-0.6,2.9-1.6
		C223.2,618.4,222.7,616.4,221.1,615.4z"/>
	<path class="st0" d="M136.2,539.1c-1.2-1.5-3.3-1.8-4.8-0.6s-1.8,3.3-0.6,4.8c0.7,0.9,1.7,1.3,2.7,1.3c0.7,0,1.5-0.2,2.1-0.7
		C137.1,542.8,137.4,540.6,136.2,539.1z"/>
	<path class="st0" d="M190.1,557.9c-1.7-1.5-4.3-1.4-5.8,0.2c-1.5,1.7-1.5,4.3,0.2,5.8c0.8,0.7,1.8,1.1,2.8,1.1c1.1,0,2.2-0.4,3-1.3
		C191.8,562,191.7,559.4,190.1,557.9L190.1,557.9z"/>
	<path class="st0" d="M151.2,599.6c-1,1.1-0.9,2.8,0.2,3.9c0.5,0.5,1.2,0.7,1.8,0.7c0.7,0,1.5-0.3,2-0.9c1-1.1,0.9-2.8-0.2-3.9
		C153.9,598.4,152.2,598.5,151.2,599.6z"/>
	<path class="st0" d="M150.9,556.7c-1.3-1.4-3.4-1.5-4.8-0.3c-1.4,1.3-1.5,3.4-0.3,4.8c0.7,0.8,1.6,1.1,2.6,1.1
		c0.8,0,1.6-0.3,2.3-0.9C152,560.3,152.2,558.1,150.9,556.7z"/>
	<path class="st0" d="M148.1,509.2c-1.3-1.9-3.8-2.4-5.7-1.1c-1.9,1.3-2.4,3.8-1.1,5.7c0.8,1.2,2.1,1.8,3.4,1.8
		c0.8,0,1.6-0.2,2.3-0.7C148.9,513.6,149.3,511.1,148.1,509.2z"/>
	<path class="st0" d="M136.6,585.3c-1.1,1.1-1.1,2.8-0.1,3.9c0.5,0.5,1.2,0.8,2,0.8c0.7,0,1.4-0.3,1.9-0.8c1.1-1.1,1.1-2.8,0.1-3.9
		C139.5,584.3,137.7,584.3,136.6,585.3z"/>
	<path class="st0" d="M169,542.6c-1.7,1.5-1.8,4.1-0.2,5.8c0.8,0.9,1.9,1.3,3,1.3c1,0,2-0.4,2.8-1.1c1.7-1.5,1.8-4.1,0.2-5.8
		C173.3,541.1,170.7,541,169,542.6z"/>
	<path class="st0" d="M166.5,613.1c-1,1.2-0.8,2.9,0.4,3.9c0.5,0.4,1.1,0.6,1.7,0.6c0.8,0,1.6-0.3,2.1-1c1-1.2,0.8-2.9-0.4-3.8
		C169.1,611.7,167.4,611.9,166.5,613.1z"/>
	<path class="st0" d="M166.7,573.3c-1.4-1.3-3.5-1.3-4.8,0.1c-1.3,1.4-1.3,3.5,0.1,4.8c0.7,0.6,1.5,1,2.4,1c0.9,0,1.8-0.3,2.5-1
		C168.1,576.8,168.1,574.6,166.7,573.3z"/>
	<path class="st0" d="M160.8,526.5L160.8,526.5c-1.4-1.8-4-2.1-5.8-0.6c-1.8,1.4-2.1,4-0.6,5.8c0.8,1,2,1.5,3.2,1.5
		c0.9,0,1.8-0.3,2.6-0.9C162,530.8,162.2,528.3,160.8,526.5z"/>
	<path class="st0" d="M220.5,646.5c-1.3-0.7-3-0.2-3.7,1.1c-0.7,1.3-0.2,3,1.1,3.7l0,0c0.4,0.2,0.9,0.3,1.3,0.3c1,0,1.9-0.5,2.4-1.4
		C222.3,648.9,221.9,647.2,220.5,646.5z"/>
	<path class="st0" d="M295.3,676.8c-1.5-0.4-3,0.5-3.4,1.9c-0.4,1.5,0.5,3,1.9,3.4c0.2,0.1,0.5,0.1,0.7,0.1c1.2,0,2.3-0.8,2.6-2
		C297.6,678.7,296.8,677.2,295.3,676.8z"/>
	<path class="st0" d="M303.3,626.9c0.7-2.2-0.5-4.5-2.7-5.1c-2.2-0.7-4.5,0.5-5.1,2.7c-0.7,2.2,0.6,4.5,2.7,5.1
		c0.4,0.1,0.8,0.2,1.2,0.2C301.1,629.8,302.8,628.6,303.3,626.9z"/>
	<path class="st0" d="M305.4,651.3c-1.8-0.5-3.7,0.6-4.2,2.4c-0.5,1.8,0.6,3.7,2.4,4.2c0.3,0.1,0.6,0.1,0.9,0.1c1.5,0,2.9-1,3.3-2.6
		C308.2,653.7,307.1,651.8,305.4,651.3z"/>
	<path class="st0" d="M293.2,567.3c0.9-2.1,0-4.5-2.1-5.4c-2.1-0.9-4.5,0-5.4,2.1s0,4.5,2.1,5.4c0.5,0.2,1.1,0.3,1.6,0.3
		C291.2,569.6,292.7,568.7,293.2,567.3z"/>
	<path class="st0" d="M315,681.4c-1.5-0.3-2.9,0.6-3.2,2.1c-0.3,1.5,0.6,2.9,2.1,3.2c0.2,0,0.4,0.1,0.6,0.1c1.3,0,2.4-0.9,2.7-2.2
		C317.4,683.2,316.5,681.8,315,681.4z"/>
	<path class="st0" d="M321.3,627.3c-2.2-0.5-4.4,0.9-4.9,3.1c-0.5,2.2,0.9,4.4,3.1,4.9l0,0c0.3,0.1,0.6,0.1,0.9,0.1
		c1.9,0,3.6-1.3,4-3.2C324.9,630,323.5,627.8,321.3,627.3z"/>
	<path class="st0" d="M283.3,644.7c-1.8-0.6-3.7,0.3-4.3,2.1c-0.6,1.8,0.3,3.7,2.1,4.3c0.4,0.1,0.7,0.2,1.1,0.2
		c1.4,0,2.8-0.9,3.2-2.3C286.1,647.2,285.1,645.3,283.3,644.7z"/>
	<path class="st0" d="M309.2,568.9c-2.1-0.7-4.5,0.4-5.2,2.6c-0.7,2.1,0.4,4.5,2.6,5.2c0.4,0.2,0.9,0.2,1.3,0.2
		c1.7,0,3.3-1.1,3.9-2.8C312.5,571.9,311.3,569.6,309.2,568.9z"/>
	<path class="st0" d="M241.8,596.1c-2-1.1-4.5-0.5-5.6,1.5c-1.1,2-0.5,4.5,1.5,5.6c0.7,0.4,1.4,0.5,2.1,0.5c1.4,0,2.8-0.7,3.6-2
		C244.3,599.7,243.6,597.2,241.8,596.1z"/>
	<path class="st0" d="M261.9,636.5c-1.7-0.7-3.7,0.1-4.5,1.8c-0.7,1.7,0.1,3.7,1.8,4.5c0.4,0.2,0.9,0.3,1.3,0.3
		c1.3,0,2.6-0.8,3.1-2.1C264.4,639.2,263.6,637.2,261.9,636.5z"/>
	<path class="st0" d="M258.4,549.1c1.2-1.9,0.7-4.4-1.2-5.7c-1.9-1.2-4.4-0.7-5.7,1.2c-1.2,1.9-0.7,4.4,1.2,5.7
		c0.7,0.5,1.5,0.7,2.2,0.7C256.3,551,257.6,550.3,258.4,549.1z"/>
	<path class="st0" d="M282.6,619.9c0.8-2.1-0.2-4.5-2.3-5.3c-2.1-0.8-4.5,0.2-5.3,2.3c-0.8,2.1,0.2,4.5,2.3,5.3
		c0.5,0.2,1,0.3,1.5,0.3C280.4,622.5,282,621.5,282.6,619.9z"/>
	<path class="st0" d="M241.1,626.7c-1.7-0.9-3.7-0.2-4.6,1.5c-0.9,1.7-0.2,3.7,1.5,4.6c0.5,0.3,1,0.4,1.6,0.4c1.2,0,2.4-0.7,3-1.9
		C243.4,629.6,242.7,627.6,241.1,626.7z"/>
	<path class="st0" d="M257,663.9c-1.4-0.6-3,0.1-3.6,1.5c-0.6,1.4,0.1,3,1.5,3.6c0.3,0.1,0.7,0.2,1,0.2c1.1,0,2.1-0.6,2.5-1.7
		C259.1,666,258.4,664.4,257,663.9z"/>
	<path class="st0" d="M276,670.9c-1.4-0.5-3,0.3-3.5,1.7c-0.5,1.4,0.3,3,1.7,3.5c0.3,0.1,0.6,0.1,0.9,0.1c1.1,0,2.2-0.7,2.6-1.9
		C278.2,672.9,277.4,671.3,276,670.9z"/>
	<path class="st0" d="M266.4,484.2c-1.7-1.5-4.3-1.3-5.8,0.4c-1.5,1.7-1.3,4.3,0.4,5.8c0.8,0.7,1.7,1,2.7,1c1.1,0,2.3-0.5,3.1-1.4
		C268.2,488.2,268,485.7,266.4,484.2L266.4,484.2z"/>
	<path class="st0" d="M275.5,558.9c1.1-2,0.3-4.5-1.7-5.6c-2-1.1-4.5-0.3-5.6,1.7c-1.1,2-0.3,4.5,1.7,5.6c0.6,0.3,1.3,0.5,1.9,0.5
		C273.3,561,274.7,560.3,275.5,558.9z"/>
	<path class="st0" d="M77.9,254.6c-0.5,1.8,0.5,3.7,2.3,4.3c0.3,0.1,0.7,0.2,1,0.2c1.5,0,2.8-1,3.3-2.4l0,0c0.5-1.8-0.5-3.7-2.3-4.3
		C80.3,251.8,78.5,252.9,77.9,254.6z"/>
	<path class="st0" d="M124.3,125.8c0.8,0,1.5-0.3,2.1-1c1-1.1,0.9-2.9-0.3-3.9c-1.1-1-2.9-0.9-3.9,0.3c-1,1.1-0.9,2.9,0.3,3.9
		C123,125.6,123.6,125.8,124.3,125.8z"/>
	<path class="st0" d="M100.3,152.9c-0.5-0.1-1-0.1-1.5,0H100.3z"/>
	<path class="st0" d="M111.4,141.6c0.8,0,1.6-0.4,2.2-1.1c0.9-1.2,0.7-2.9-0.5-3.8c-1.2-0.9-2.9-0.7-3.8,0.5
		c-0.9,1.2-0.7,2.9,0.5,3.8C110.3,141.4,110.9,141.6,111.4,141.6z"/>
	<path class="st0" d="M94.6,329.8c0.1,0,0.2,0,0.3,0c1,0,1.9-0.4,2.7-1v-2.3l1.4-0.3c0-0.1,0-0.1,0-0.2c0.2-2.3-1.5-4.2-3.8-4.4
		c-2.3-0.2-4.2,1.5-4.4,3.8C90.7,327.7,92.3,329.6,94.6,329.8z"/>
	<path class="st0" d="M96.7,308.1c0.2,0,0.4,0,0.6,0c2,0,3.7-1.5,4.1-3.5c0.3-2.2-1.2-4.3-3.5-4.7c-2.2-0.3-4.3,1.2-4.7,3.5
		C92.9,305.7,94.5,307.8,96.7,308.1z"/>
	<path class="st0" d="M138,110.8c0.7,0,1.4-0.3,2-0.8c1-1.1,1-2.8-0.1-3.9c-1.1-1.1-2.8-1-3.9,0.1s-1,2.8,0.1,3.9
		C136.7,110.5,137.3,110.8,138,110.8z"/>
	<path class="st0" d="M99.6,158.2c0.5,0,1-0.1,1.4-0.4l-3.1-0.7v-3.7c-0.2,0.2-0.4,0.3-0.5,0.5c-0.8,1.3-0.5,3,0.7,3.8
		C98.5,158.1,99.1,158.2,99.6,158.2z"/>
	<path class="st0" d="M96.3,215.3c0.5,0.2,1,0.3,1.5,0.3c1.3,0,2.5-0.7,3.1-2c0.8-1.7,0.1-3.7-1.6-4.6c-1.7-0.8-3.7-0.1-4.5,1.6
		C93.8,212.6,94.5,214.6,96.3,215.3z"/>
	<path class="st0" d="M137.4,152.9c0-1-0.5-2-1.3-2.6c-1.5-1.2-3.6-0.9-4.8,0.6c-0.5,0.6-0.7,1.3-0.7,2H137.4z"/>
	<path class="st0" d="M148.9,138.6c0.9,0,1.9-0.4,2.5-1.1c1.3-1.4,1.1-3.6-0.3-4.8c-1.4-1.3-3.6-1.1-4.8,0.3
		c-1.3,1.4-1.1,3.6,0.3,4.8C147.2,138.3,148.1,138.6,148.9,138.6z"/>
	<path class="st0" d="M184.2,70.8c0.6,0,1.1-0.2,1.6-0.5c1.2-0.9,1.5-2.6,0.6-3.8c-0.9-1.2-2.6-1.5-3.8-0.6
		c-1.2,0.9-1.5,2.6-0.6,3.8C182.5,70.4,183.4,70.8,184.2,70.8z"/>
	<path class="st0" d="M168.8,152.5c0.2,0.2,0.4,0.3,0.6,0.4h4.5c0.3-0.2,0.5-0.4,0.8-0.6c1.5-1.7,1.4-4.3-0.2-5.8
		c-1.7-1.5-4.3-1.4-5.8,0.2C167.1,148.4,167.2,151,168.8,152.5z"/>
	<path class="st0" d="M184,136.9c0.8,0.9,1.9,1.3,3,1.3c1,0,2-0.4,2.8-1.1l0,0c1.7-1.5,1.8-4.1,0.2-5.8c-1.5-1.7-4.1-1.8-5.8-0.2
		C182.6,132.7,182.5,135.2,184,136.9z"/>
	<path class="st0" d="M182.3,106.4c0.8,0,1.5-0.3,2.2-0.8c1.5-1.2,1.6-3.4,0.4-4.8c-1.2-1.5-3.4-1.6-4.8-0.4l0,0
		c-1.4,1.2-1.6,3.4-0.4,4.8C180.3,106,181.3,106.4,182.3,106.4z"/>
	<path class="st0" d="M152.6,96.5c0.7,0,1.3-0.2,1.9-0.7c1.1-1,1.2-2.8,0.2-3.9c-1-1.1-2.8-1.2-3.9-0.2c-1.1,1-1.2,2.8-0.2,3.9
		C151.2,96.2,151.9,96.5,152.6,96.5z"/>
	<path class="st0" d="M168,83.2c0.6,0,1.2-0.2,1.7-0.6c1.2-1,1.3-2.7,0.4-3.9c-1-1.2-2.7-1.3-3.9-0.4c-1.2,1-1.3,2.7-0.4,3.9
		C166.5,82.8,167.2,83.2,168,83.2z"/>
	<path class="st0" d="M165,121.9c0.9,0,1.7-0.3,2.4-1c1.4-1.3,1.4-3.5,0.1-4.8c-1.3-1.4-3.5-1.4-4.8-0.1c-1.4,1.3-1.4,3.5-0.1,4.8
		C163.2,121.6,164.1,121.9,165,121.9z"/>
	<path class="st0" d="M98.4,537.6c-1.3,0.8-1.6,2.5-0.7,3.8c0.5,0.8,1.4,1.2,2.3,1.2c0.5,0,1.1-0.2,1.5-0.5c1.3-0.8,1.6-2.6,0.7-3.8
		C101.4,537.1,99.7,536.8,98.4,537.6z"/>
	<path class="st0" d="M41.6,329.9c0.1,0,0.1,0,0.2,0c1.4,0,2.6-1.1,2.7-2.6s-1.1-2.8-2.6-2.9s-2.8,1.1-2.9,2.6
		C39,328.5,40.2,329.8,41.6,329.9z"/>
	<path class="st0" d="M87.3,175.1c0.4,0.3,0.9,0.4,1.4,0.4c0.9,0,1.9-0.5,2.4-1.3c0.8-1.3,0.3-3-1-3.7c-1.3-0.8-3-0.3-3.7,1
		C85.6,172.6,86,174.3,87.3,175.1z"/>
	<circle class="st0" cx="41.2" cy="347.6" r="2.7"/>
	<path class="st0" d="M46,289.5c0.2,0,0.3,0,0.5,0c1.3,0,2.5-0.9,2.7-2.3c0.3-1.5-0.7-2.9-2.2-3.2s-2.9,0.7-3.2,2.2
		C43.6,287.8,44.5,289.2,46,289.5z"/>
	<path class="st0" d="M43.2,309.6c0.1,0,0.2,0,0.3,0c1.4,0,2.6-1,2.7-2.4c0.2-1.5-0.9-2.9-2.4-3c-1.5-0.2-2.9,0.9-3,2.4
		C40.6,308.1,41.7,309.5,43.2,309.6z"/>
	<path class="st0" d="M122.9,520.4L122.9,520.4c-0.4-0.7-1.1-1.1-1.8-1.4c-1.3,1.6-2.7,3.1-4.2,4.5c0.1,0.2,0.2,0.4,0.3,0.6
		c0.7,1,1.7,1.5,2.9,1.5c0.7,0,1.3-0.2,1.9-0.6C123.5,524.1,123.9,522,122.9,520.4z"/>
	<path class="st0" d="M123,570.2c-1.1,1-1.3,2.7-0.3,3.9c0.5,0.6,1.3,0.9,2.1,0.9c0.6,0,1.3-0.2,1.8-0.7c1.1-1,1.3-2.7,0.3-3.9
		C125.8,569.3,124.1,569.2,123,570.2z"/>
	<path class="st0" d="M110.2,554.3c-1.2,0.9-1.4,2.6-0.5,3.8c0.5,0.7,1.4,1.1,2.2,1.1c0.6,0,1.2-0.2,1.7-0.6
		c1.2-0.9,1.4-2.6,0.5-3.8C113.1,553.6,111.4,553.4,110.2,554.3z"/>
	<path class="st0" d="M50.1,269.4c0.2,0.1,0.4,0.1,0.6,0.1c1.2,0,2.4-0.8,2.7-2.1c0.4-1.5-0.6-2.9-2-3.3c-1.5-0.3-2.9,0.6-3.3,2
		C47.7,267.6,48.6,269.1,50.1,269.4z"/>
	<path class="st0" d="M77.7,193c0.4,0.2,0.8,0.3,1.2,0.3c1,0,2-0.5,2.4-1.5c0.7-1.3,0.2-3-1.2-3.7c-1.3-0.7-3-0.2-3.7,1.2
		C75.8,190.6,76.3,192.3,77.7,193z"/>
	<path class="st0" d="M55.2,249.8c0.3,0.1,0.5,0.1,0.8,0.1c1.2,0,2.3-0.8,2.6-1.9c0.4-1.4-0.4-3-1.8-3.4c-1.5-0.4-3,0.4-3.4,1.8
		C53,247.8,53.7,249.3,55.2,249.8z"/>
	<path class="st0" d="M87.4,236.8c0.4,0.2,0.8,0.2,1.2,0.2c1.4,0,2.7-0.8,3.2-2.2c0.7-1.8-0.2-3.7-2-4.4c-1.8-0.7-3.7,0.2-4.4,2
		C84.8,234.2,85.7,236.2,87.4,236.8z"/>
	<path class="st0" d="M74.5,281.3c0.3,0.1,0.5,0.1,0.7,0.1c1.6,0,3-1.1,3.3-2.7c0.4-1.8-0.8-3.7-2.6-4.1c-1.8-0.4-3.7,0.8-4.1,2.6
		C71.5,279.1,72.7,280.9,74.5,281.3z"/>
	<path class="st0" d="M327.7,656.3c-1.9-0.3-3.6,0.9-4,2.7c-0.3,1.9,0.9,3.6,2.7,4c0.2,0,0.4,0.1,0.6,0.1c1.6,0,3.1-1.1,3.4-2.8
		C330.7,658.4,329.6,656.6,327.7,656.3z"/>
	<path class="st0" d="M61.6,230.3c0.3,0.1,0.6,0.2,0.9,0.2c1.1,0,2.2-0.7,2.6-1.8c0.5-1.4-0.2-3-1.6-3.5c-1.4-0.5-3,0.2-3.5,1.6
		C59.4,228.2,60.2,229.8,61.6,230.3z"/>
	<path class="st0" d="M69,211.5c0.4,0.2,0.7,0.2,1.1,0.2c1.1,0,2.1-0.6,2.5-1.6c0.6-1.4,0-3-1.4-3.6c-1.4-0.6-3,0-3.6,1.4
		C67,209.2,67.6,210.8,69,211.5z"/>
	<path class="st0" d="M68.3,327.3c0.1,0,0.2,0,0.3,0c1.8,0,3.3-1.4,3.4-3.2c0.1-1.9-1.3-3.5-3.2-3.7c-1.9-0.1-3.5,1.3-3.7,3.2
		C65.1,325.5,66.4,327.2,68.3,327.3z"/>
	<path class="st0" d="M615.8,599.2c-1.1,1-1.2,2.8-0.2,3.9c0.5,0.6,1.3,0.9,2,0.9s1.3-0.2,1.8-0.7c1.1-1,1.2-2.8,0.2-3.9
		S616.9,598.2,615.8,599.2z"/>
	<path class="st0" d="M568.2,603c-1.5,1.1-1.9,3.2-0.8,4.8c0.7,0.9,1.7,1.4,2.8,1.4c0.7,0,1.4-0.2,2-0.6c1.5-1.1,1.9-3.2,0.8-4.8
		C571.7,602.2,569.7,601.9,568.2,603z"/>
	<path class="st0" d="M552.6,621.4c1.6-1,2.1-3.1,1.1-4.7s-3.1-2.1-4.7-1.1c-1.6,1-2.1,3.1-1.1,4.7c0.6,1.1,1.8,1.6,2.9,1.6
		C551.4,621.9,552,621.7,552.6,621.4z"/>
	<path class="st0" d="M532.2,655.7c-1.4,0.7-1.9,2.3-1.3,3.7c0.5,1,1.5,1.6,2.5,1.6c0.4,0,0.8-0.1,1.2-0.3c1.4-0.7,1.9-2.3,1.3-3.6
		C535.1,655.6,533.5,655,532.2,655.7z"/>
	<path class="st0" d="M484.6,564c-0.9-2.1-3.3-3-5.4-2.1c-2.1,0.9-3,3.3-2.1,5.4c0.7,1.5,2.2,2.5,3.8,2.5c0.6,0,1.1-0.1,1.6-0.3l0,0
		C484.6,568.4,485.5,566.1,484.6,564z"/>
	<path class="st0" d="M547.9,551.1c-1.8,1.4-2.1,4-0.7,5.8c0.8,1,2,1.5,3.2,1.5c0.9,0,1.8-0.3,2.6-0.9c1.8-1.4,2.1-4,0.7-5.8
		C552.2,549.9,549.6,549.7,547.9,551.1z"/>
	<path class="st0" d="M569.3,578.3c1.8-1.4,2.1-4,0.7-5.8c-1.4-1.8-4-2.1-5.8-0.6c-1.8,1.4-2.1,4-0.7,5.8c0.8,1,2,1.5,3.2,1.5
		C567.7,579.2,568.6,578.9,569.3,578.3z"/>
	<path class="st0" d="M567.6,636c-1.3,0.8-1.7,2.5-0.9,3.8c0.5,0.8,1.4,1.3,2.3,1.3c0.5,0,1-0.1,1.5-0.4c1.3-0.8,1.7-2.5,0.8-3.8
		C570.5,635.6,568.9,635.2,567.6,636z"/>
	<path class="st0" d="M533.5,628.4c-0.9-1.7-2.9-2.3-4.6-1.5c-1.7,0.9-2.3,2.9-1.5,4.6c0.6,1.2,1.8,1.9,3,1.9c0.5,0,1.1-0.1,1.6-0.4
		C533.8,632,534.4,630,533.5,628.4z"/>
	<path class="st0" d="M563.5,511.6c1.5-1.7,1.4-4.3-0.2-5.8c-1.7-1.5-4.3-1.4-5.8,0.2c-1.5,1.7-1.4,4.3,0.2,5.8
		c0.8,0.7,1.8,1.1,2.8,1.1C561.6,512.9,562.7,512.4,563.5,511.6L563.5,511.6z"/>
	<path class="st0" d="M551.5,591.4c1.9-1.3,2.4-3.8,1.1-5.7c-1.3-1.9-3.8-2.4-5.7-1.1c-1.9,1.3-2.4,3.8-1.1,5.7
		c0.8,1.2,2.1,1.8,3.4,1.8C550,592.1,550.8,591.9,551.5,591.4z"/>
	<path class="st0" d="M496.6,553.4L496.6,553.4c-2,1.1-2.7,3.6-1.7,5.6c0.7,1.4,2.2,2.2,3.6,2.2c0.7,0,1.3-0.2,2-0.5
		c2-1.1,2.7-3.6,1.7-5.6C501.1,553.1,498.6,552.3,496.6,553.4z"/>
	<path class="st0" d="M495.3,617.1c-0.8-2.1-3.2-3.2-5.3-2.3c-2.1,0.8-3.2,3.2-2.3,5.3c0.6,1.6,2.2,2.6,3.8,2.6c0.5,0,1-0.1,1.5-0.3
		C495.1,621.5,496.1,619.1,495.3,617.1z"/>
	<path class="st0" d="M494.6,670.8c-1.4,0.5-2.2,2-1.7,3.5c0.4,1.1,1.5,1.9,2.6,1.9c0.3,0,0.6,0,0.9-0.1c1.4-0.5,2.2-2,1.7-3.5
		C497.6,671.1,496,670.3,494.6,670.8z"/>
	<path class="st0" d="M486.8,644.8c-1.8,0.6-2.7,2.6-2.1,4.3c0.5,1.4,1.8,2.3,3.2,2.3c0.4,0,0.7-0.1,1.1-0.2
		c1.8-0.6,2.7-2.6,2.1-4.3C490.6,645.1,488.6,644.2,486.8,644.8z"/>
	<path class="st0" d="M512.7,638.4c-0.7-1.7-2.8-2.5-4.5-1.8c-1.7,0.7-2.6,2.8-1.8,4.5c0.6,1.3,1.8,2.1,3.2,2.1
		c0.4,0,0.9-0.1,1.3-0.3C512.6,642.2,513.5,640.2,512.7,638.4z"/>
	<path class="st0" d="M513.3,543.4c-1.9,1.2-2.4,3.8-1.2,5.7c0.8,1.2,2.1,1.9,3.4,1.9c0.8,0,1.6-0.2,2.2-0.7
		c1.9-1.2,2.4-3.8,1.2-5.7C517.7,542.8,515.2,542.3,513.3,543.4z"/>
	<path class="st0" d="M530.8,603.7c0.7,0,1.4-0.2,2-0.5c2-1.1,2.6-3.6,1.5-5.6s-3.6-2.6-5.6-1.5s-2.6,3.6-1.5,5.6
		C528,603,529.4,603.7,530.8,603.7z"/>
	<path class="st0" d="M513.6,663.8c-1.4,0.6-2.1,2.2-1.5,3.6c0.4,1.1,1.5,1.7,2.5,1.7c0.3,0,0.7-0.1,1-0.2c1.4-0.6,2.1-2.2,1.5-3.6
		C516.6,663.9,515,663.2,513.6,663.8z"/>
	<path class="st0" d="M550.2,646.3c-1.3,0.7-1.8,2.4-1.1,3.7c0.5,0.9,1.4,1.4,2.4,1.4c0.4,0,0.9-0.1,1.3-0.3
		c1.3-0.7,1.8-2.4,1.1-3.7C553.1,646.1,551.5,645.6,550.2,646.3z"/>
	<path class="st0" d="M660,455.4c0.8-2.1-0.2-4.5-2.3-5.3c-2.1-0.8-4.5,0.2-5.3,2.3c-0.8,2.1,0.2,4.5,2.3,5.3c0.5,0.2,1,0.3,1.5,0.3
		C657.9,458,659.4,457,660,455.4z"/>
	<path class="st0" d="M652.1,519.8c-1.6-1-3.7-0.6-4.7,1c-1,1.6-0.6,3.7,1,4.7c0.6,0.4,1.2,0.6,1.9,0.6c1.1,0,2.2-0.5,2.9-1.5
		C654.1,523,653.7,520.8,652.1,519.8z"/>
	<path class="st0" d="M586.2,558.1c-1.5-1.7-4.1-1.8-5.8-0.2c-1.7,1.5-1.8,4.1-0.2,5.8c0.8,0.9,1.9,1.3,3,1.3c1,0,2-0.4,2.8-1.1
		C587.7,562.3,587.8,559.7,586.2,558.1z"/>
	<path class="st0" d="M656.7,554.5c-0.9,1.2-0.7,2.9,0.5,3.8c0.5,0.4,1.1,0.6,1.7,0.6c0.8,0,1.6-0.4,2.2-1.1
		c0.9-1.2,0.7-2.9-0.5-3.8C659.2,553.1,657.6,553.3,656.7,554.5z"/>
	<path class="st0" d="M669.5,538v-0.7c-0.4,0.2-0.7,0.5-1,0.8l0,0c-0.8,1.3-0.5,3,0.7,3.8c0.5,0.3,1,0.5,1.5,0.5
		c0.9,0,1.7-0.4,2.3-1.2c0.7-1,0.6-2.3-0.1-3.2L669.5,538L669.5,538z"/>
	<path class="st0" d="M638.8,538.9c-1.5-1.2-3.6-0.9-4.8,0.6s-0.9,3.6,0.6,4.8c0.6,0.5,1.4,0.7,2.1,0.7c1,0,2-0.5,2.7-1.3
		C640.5,542.2,640.3,540,638.8,538.9z"/>
	<path class="st0" d="M664.7,429.5c-2.2-0.7-4.5,0.5-5.1,2.7c-0.7,2.2,0.5,4.5,2.7,5.1c0.4,0.1,0.8,0.2,1.2,0.2
		c1.8,0,3.4-1.1,3.9-2.9C668,432.4,666.8,430.1,664.7,429.5z"/>
	<path class="st0" d="M664,499.9c-1.6-0.9-3.7-0.3-4.7,1.3c-0.9,1.6-0.3,3.7,1.3,4.7c0.5,0.3,1.1,0.4,1.7,0.4c1.2,0,2.4-0.6,3-1.7
		C666.2,502.9,665.6,500.8,664,499.9z"/>
	<path class="st0" d="M644,570.2c-1,1.1-0.9,2.9,0.3,3.9c0.5,0.4,1.2,0.7,1.8,0.7c0.8,0,1.5-0.3,2.1-1l0,0c1-1.1,0.9-2.9-0.3-3.9
		S644.9,569,644,570.2z"/>
	<path class="st0" d="M586.3,588.9c-1.5,1.2-1.6,3.4-0.4,4.8c0.7,0.8,1.6,1.2,2.6,1.2c0.8,0,1.5-0.3,2.2-0.8
		c1.5-1.2,1.6-3.4,0.4-4.8C589.9,587.9,587.7,587.7,586.3,588.9z"/>
	<path class="st0" d="M600.4,612.4L600.4,612.4c-1.2,1-1.4,2.7-0.4,3.8c0.5,0.7,1.3,1,2.1,1c0.6,0,1.2-0.2,1.7-0.6l0,0
		c1.2-1,1.3-2.7,0.4-3.8S601.6,611.5,600.4,612.4z"/>
	<path class="st0" d="M601.4,542.6c-1.7-1.5-4.3-1.5-5.8,0.2c-1.5,1.7-1.4,4.3,0.2,5.8c0.8,0.7,1.8,1.1,2.8,1.1c1.1,0,2.2-0.4,3-1.3
		C603.2,546.6,603.1,544,601.4,542.6z"/>
	<path class="st0" d="M584.3,624.7c-1.2,0.9-1.5,2.6-0.6,3.8c0.5,0.7,1.4,1.1,2.2,1.1c0.6,0,1.1-0.2,1.6-0.5
		c1.2-0.9,1.5-2.6,0.6-3.8C587.3,624.1,585.6,623.9,584.3,624.7z"/>
	<path class="st0" d="M200.7,92.2c0.7,0,1.4-0.2,2-0.6c1.5-1.1,1.9-3.2,0.8-4.8c-1.1-1.5-3.2-1.9-4.8-0.8c-1.5,1.1-1.9,3.2-0.8,4.8
		C198.5,91.7,199.6,92.2,200.7,92.2z"/>
	<path class="st0" d="M619.4,557c-1.3,1.4-1.1,3.6,0.3,4.8c0.7,0.6,1.5,0.9,2.3,0.9c0.9,0,1.9-0.4,2.5-1.1c1.3-1.4,1.1-3.6-0.3-4.8
		C622.7,555.5,620.5,555.6,619.4,557z"/>
	<path class="st0" d="M630.3,585.1c-1,1.1-1,2.8,0.1,3.9c0.5,0.5,1.2,0.8,1.9,0.8c0.7,0,1.4-0.3,2-0.8c1-1.1,1-2.8-0.1-3.9
		S631.4,584,630.3,585.1z"/>
	<path class="st0" d="M603.4,573.6L603.4,573.6c-1.4,1.3-1.4,3.5-0.1,4.8c0.7,0.7,1.6,1,2.5,1s1.7-0.3,2.4-1
		c1.4-1.3,1.4-3.5,0.1-4.8C606.9,572.3,604.8,572.3,603.4,573.6z"/>
	<path class="st0" d="M415.6,687.4c-1.5,0.1-2.6,1.5-2.5,3c0.1,1.4,1.3,2.5,2.7,2.5c0.1,0,0.2,0,0.2,0c1.5-0.1,2.6-1.5,2.5-3
		C418.5,688.4,417.1,687.2,415.6,687.4z"/>
	<path class="st0" d="M365.9,580.7c-2.3-0.2-4.2,1.5-4.4,3.8c-0.2,2.3,1.5,4.2,3.8,4.4c0.1,0,0.2,0,0.3,0c2.1,0,3.9-1.6,4.1-3.8
		C369.8,582.8,368.2,580.8,365.9,580.7z"/>
	<path class="st0" d="M373.4,668.2c0.1,0,0.2,0,0.3,0h0.1c1.8,0,3.4-1.5,3.4-3.3c0.1-1.9-1.4-3.5-3.3-3.5c-0.1,0-0.2,0-0.3,0
		s-0.2,0-0.3,0c-1.9-0.1-3.5,1.4-3.6,3.3c-0.1,1.9,1.4,3.5,3.3,3.6C373.1,668.2,373.2,668.2,373.4,668.2z"/>
	<path class="st0" d="M375.2,688.6c-1.5,0-2.8,1.1-2.8,2.7c0,1.5,1.1,2.8,2.7,2.8h0.1c1.5,0,2.7-1.2,2.7-2.7
		C377.9,689.9,376.7,688.6,375.2,688.6z"/>
	<path class="st0" d="M373.4,615.9c0.1,0,0.1,0,0.2,0c2.2,0,4-1.7,4.1-3.9c0.1-2.3-1.6-4.2-3.9-4.3s-4.2,1.6-4.3,3.9
		C369.4,613.9,371.2,615.8,373.4,615.9z"/>
	<circle class="st0" cx="385.2" cy="638.5" r="4.1"/>
	<circle class="st0" cx="385.2" cy="585.6" r="4.1"/>
	<path class="st0" d="M395.4,688.6c-1.5,0-2.7,1.3-2.7,2.8c0,1.5,1.3,2.7,2.7,2.7h0.1c1.5,0,2.7-1.3,2.7-2.8
		C398.2,689.7,396.9,688.5,395.4,688.6z"/>
	<path class="st0" d="M475.3,676.7c-1.5,0.4-2.3,1.9-1.9,3.4c0.3,1.2,1.4,2,2.6,2c0.2,0,0.5,0,0.7-0.1c1.5-0.4,2.3-1.9,1.9-3.4
		C478.2,677.1,476.7,676.4,475.3,676.7z"/>
	<path class="st0" d="M363.7,633.6c-2.3-0.2-4.2,1.5-4.4,3.8c-0.2,2.3,1.5,4.2,3.8,4.4c0.1,0,0.2,0,0.3,0c2.1,0,3.9-1.6,4.1-3.8
		C367.7,635.7,366,633.8,363.7,633.6z"/>
	<path class="st0" d="M328.2,547.1c-2.2-0.6-4.5,0.6-5.1,2.8s0.6,4.5,2.8,5.1l0,0c0.4,0.1,0.8,0.2,1.1,0.2c1.8,0,3.4-1.2,3.9-3
		C331.6,550,330.4,547.7,328.2,547.1z"/>
	<path class="st0" d="M334.9,685c-1.5-0.2-2.9,0.8-3.1,2.3c-0.2,1.5,0.8,2.9,2.3,3.1c0.1,0,0.3,0,0.4,0c1.3,0,2.5-1,2.7-2.3
		C337.4,686.6,336.4,685.2,334.9,685z"/>
	<path class="st0" d="M327.8,574.4c-2.2-0.6-4.4,0.8-5,3s0.8,4.4,3,5c0.3,0.1,0.7,0.1,1,0.1c1.8,0,3.5-1.2,4-3.1
		C331.2,577.2,330,575,327.8,574.4z"/>
	<path class="st0" d="M342.4,631.2c-2.2-0.3-4.3,1.2-4.7,3.5c-0.3,2.2,1.2,4.3,3.5,4.7c0.2,0,0.4,0,0.6,0c2,0,3.7-1.5,4.1-3.5
		C346.1,633.6,344.6,631.5,342.4,631.2z"/>
	<path class="st0" d="M349.4,613.7c0.2,0,0.4,0,0.6,0c2,0,3.8-1.5,4.1-3.6c0.3-2.3-1.3-4.3-3.5-4.6c-2.2-0.3-4.3,1.3-4.6,3.5
		C345.6,611.4,347.2,613.4,349.4,613.7z"/>
	<path class="st0" d="M355,687.4L355,687.4c-1.5-0.1-2.8,1-3,2.5c-0.1,1.5,1,2.8,2.5,3c0.1,0,0.2,0,0.2,0c1.4,0,2.6-1.1,2.7-2.5
		C357.6,688.8,356.4,687.5,355,687.4z"/>
	<path class="st0" d="M353.4,663.4c0.2-1.9-1.1-3.6-3-3.8s-3.6,1.1-3.8,3s1.1,3.6,3,3.8l0,0c0.1,0,0.3,0,0.4,0
		C351.8,666.4,353.2,665.2,353.4,663.4z"/>
	<path class="st0" d="M396.9,661.4c-1.9,0.1-3.4,1.7-3.3,3.5c0.1,1.8,1.6,3.3,3.4,3.3h0.1l0,0c1.9-0.1,3.4-1.6,3.3-3.5
		C400.4,662.8,398.8,661.3,396.9,661.4z"/>
	<path class="st0" d="M385.5,555.1c-0.1,0-0.2,0-0.3,0c-0.1,0-0.2,0-0.2,0c-2.3,0-4.1,1.8-4.1,4.1c0,2.3,1.8,4.1,4.1,4.1l0,0
		c0.1,0,0.2,0,0.3,0c0.1,0,0.2,0,0.2,0c2.3,0,4.1-1.8,4.1-4.1C389.6,556.8,387.7,555.1,385.5,555.1z"/>
	<path class="st0" d="M455.7,681.4c-1.5,0.3-2.4,1.8-2.1,3.2c0.3,1.3,1.4,2.2,2.7,2.2c0.2,0,0.4,0,0.6-0.1c1.5-0.3,2.4-1.8,2.1-3.2
		C458.5,682.1,457,681.2,455.7,681.4z"/>
	<path class="st0" d="M454,630.4c-0.5-2.2-2.7-3.6-4.9-3.1c-2.2,0.5-3.6,2.7-3.1,4.9c0.4,1.9,2.1,3.2,4,3.2c0.3,0,0.6,0,0.9-0.1
		C453.1,634.7,454.5,632.6,454,630.4z"/>
	<path class="st0" d="M442.5,656.3c-1.9,0.3-3.1,2.1-2.7,4c0.3,1.6,1.7,2.8,3.4,2.8c0.2,0,0.4,0,0.6-0.1c1.9-0.3,3.1-2.1,2.8-4
		C446.1,657.2,444.3,656.1,442.5,656.3z"/>
	<path class="st0" d="M443.7,582.4c0.3,0,0.7,0,1-0.1c2.2-0.6,3.5-2.8,3-5c-0.6-2.2-2.8-3.5-5-3c-2.2,0.6-3.5,2.8-3,5
		C440.2,581.2,441.9,582.4,443.7,582.4z"/>
	<path class="st0" d="M464.9,651.4c-1.8,0.5-2.9,2.3-2.4,4.2c0.4,1.5,1.8,2.6,3.3,2.6c0.3,0,0.6,0,0.9-0.1c1.8-0.5,2.9-2.3,2.4-4.2
		C468.6,652,466.7,651,464.9,651.4z"/>
	<path class="st0" d="M474.9,624.5c-0.7-2.2-3-3.4-5.1-2.7c-2.2,0.7-3.4,3-2.7,5.1c0.5,1.8,2.2,2.9,3.9,2.9c0.4,0,0.8-0.1,1.2-0.2
		C474.3,629,475.5,626.7,474.9,624.5z"/>
	<path class="st0" d="M443.5,555.2c0.4,0,0.7-0.1,1.1-0.2c2.2-0.6,3.4-2.9,2.8-5.1c-0.6-2.2-2.9-3.4-5.1-2.8
		c-2.2,0.6-3.4,2.9-2.8,5.1C440,554,441.7,555.2,443.5,555.2z"/>
	<path class="st0" d="M463.9,576.6c2.1-0.7,3.3-3.1,2.6-5.2c-0.7-2.1-3.1-3.3-5.2-2.6c-2.1,0.7-3.3,3.1-2.6,5.2
		c0.6,1.7,2.2,2.8,3.9,2.8C463,576.9,463.4,576.8,463.9,576.6z"/>
	<path class="st0" d="M425.1,609.1c-0.3-2.2-2.4-3.8-4.6-3.5c-2.2,0.3-3.8,2.4-3.5,4.6c0.3,2.1,2,3.6,4.1,3.6c0.2,0,0.4,0,0.6,0
		C423.8,613.5,425.4,611.4,425.1,609.1z"/>
	<path class="st0" d="M406.6,633.6c-2.3,0.2-4,2.1-3.8,4.4c0.2,2.2,2,3.8,4.1,3.8c0.1,0,0.2,0,0.3,0c2.3-0.2,4-2.1,3.8-4.4
		C410.8,635.1,408.8,633.4,406.6,633.6z"/>
	<path class="st0" d="M327.5,601.5c-0.1,0-0.1,0-0.2,0c-0.1,0-0.1,0-0.2-0.1l0,0c-2.2-0.5-4.4,0.9-4.9,3.1s0.9,4.4,3.1,4.9
		c0.1,0,0.1,0,0.2,0s0.1,0,0.2,0.1c0.3,0.1,0.6,0.1,0.9,0.1c1.9,0,3.6-1.3,4-3.2C331,604.2,329.7,602,327.5,601.5z"/>
	<path class="st0" d="M435.7,685c-1.5,0.2-2.5,1.6-2.3,3.1c0.2,1.4,1.4,2.3,2.7,2.3c0.1,0,0.3,0,0.4,0c1.5-0.2,2.5-1.6,2.3-3.1
		C438.6,685.8,437.2,684.8,435.7,685z"/>
	<path class="st0" d="M405.3,588.8c2.3-0.2,3.9-2.2,3.8-4.4c-0.2-2.3-2.2-3.9-4.4-3.8c-2.3,0.2-3.9,2.2-3.8,4.4
		c0.2,2.1,2,3.8,4.1,3.8C405,588.9,405.1,588.9,405.3,588.8z"/>
	<path class="st0" d="M419.7,659.7c-1.9,0.2-3.2,1.9-3,3.8c0.2,1.8,1.7,3.1,3.4,3.1c0.1,0,0.2,0,0.4,0c1.9-0.2,3.2-1.9,3-3.8
		C423.3,660.8,421.6,659.5,419.7,659.7z"/>
	<path class="st0" d="M432.4,526.3c-2.2,1.5-4.4,2.9-6.7,4.1c0.8,0.8,1.8,1.3,2.9,1.3c0.3,0,0.6,0,1-0.1c2.2-0.5,3.6-2.7,3-4.9
		C432.5,526.5,432.5,526.4,432.4,526.3z"/>
	<path class="st0" d="M428,631.2c-2.2,0.3-3.8,2.4-3.5,4.7c0.3,2,2.1,3.5,4.1,3.5c0.2,0,0.4,0,0.6,0c2.2-0.3,3.8-2.4,3.5-4.7
		C432.2,632.4,430.2,631,428,631.2z"/>
	<path class="st0" d="M397.2,607.7c-2.3,0.1-4,2-3.9,4.3c0.1,2.2,1.9,3.9,4.1,3.9c0.1,0,0.1,0,0.2,0c2.3-0.1,4-2,3.9-4.3
		C401.4,609.4,399.4,607.6,397.2,607.7z"/>
	<path class="st0" d="M508.2,58.2L508.2,58.2c0.4,0.2,0.9,0.3,1.3,0.3c1.3,0,2.6-0.8,3.2-2.1c0.7-1.7-0.1-3.7-1.8-4.5
		c-1.7-0.7-3.7,0.1-4.5,1.8C505.8,55.4,506.6,57.4,508.2,58.2z"/>
	<path class="st0" d="M689.5,259.3c0.3,0,0.7,0,1-0.2c1.8-0.5,2.8-2.4,2.3-4.3c-0.5-1.8-2.4-2.8-4.3-2.3c-1.8,0.5-2.8,2.4-2.3,4.3
		C686.6,258.3,688,259.3,689.5,259.3z"/>
	<path class="st0" d="M671.4,209.5c-1.7,0.8-2.4,2.8-1.6,4.6c0.6,1.2,1.8,2,3.1,2c0.5,0,1-0.1,1.5-0.3c1.7-0.8,2.4-2.8,1.6-4.6
		C675.2,209.5,673.2,208.7,671.4,209.5z"/>
	<path class="st0" d="M670.4,157.3c0.5,0,1.1-0.2,1.5-0.5c1.3-0.8,1.6-2.6,0.7-3.8c-0.8-1.3-2.6-1.6-3.8-0.7
		c-1.3,0.8-1.6,2.6-0.7,3.8C668.6,156.9,669.5,157.3,670.4,157.3z"/>
	<path class="st0" d="M680.8,230.8c-1.8,0.7-2.6,2.7-2,4.4c0.5,1.4,1.8,2.2,3.2,2.2c0.4,0,0.8-0.1,1.2-0.2c1.8-0.7,2.6-2.6,2-4.4
		l0,0C684.5,231,682.6,230.1,680.8,230.8z"/>
	<path class="st0" d="M647.4,174.1c0.7,1,1.8,1.5,2.9,1.5c0.6,0,1.3-0.2,1.9-0.6c1.6-1,2-3.2,1-4.7c-1-1.6-3.2-2-4.7-1
		C646.8,170.4,646.3,172.5,647.4,174.1z"/>
	<path class="st0" d="M662.2,257.3c-2.2,0.7-3.4,3-2.7,5.1c0.5,1.8,2.2,2.9,3.9,2.9c0.4,0,0.8-0.1,1.2-0.2c2.2-0.7,3.4-3,2.7-5.1
		C666.6,257.8,664.3,256.6,662.2,257.3z"/>
	<path class="st0" d="M658.3,140.7c0.6,0,1.2-0.2,1.7-0.6c1.2-0.9,1.4-2.6,0.5-3.8s-2.6-1.4-3.8-0.5c-1.2,0.9-1.4,2.6-0.5,3.8
		C656.8,140.4,657.6,140.7,658.3,140.7z"/>
	<path class="st0" d="M549.1,79.2c0.6,0.3,1.2,0.5,1.8,0.5c1.1,0,2.3-0.6,2.9-1.6c1-1.6,0.5-3.7-1.1-4.7c-1.6-1-3.7-0.5-4.7,1.1
		S547.5,78.2,549.1,79.2z"/>
	<path class="st0" d="M659.3,193.6c0.6,1.1,1.8,1.8,3,1.8c0.6,0,1.1-0.1,1.7-0.4c1.6-0.9,2.2-3,1.3-4.7c-0.9-1.6-3-2.2-4.7-1.3
		C659,189.9,658.4,192,659.3,193.6z"/>
	<path class="st0" d="M681.3,174.6c0.5,0,1-0.1,1.4-0.4c1.3-0.8,1.7-2.4,1-3.7c-0.8-1.3-2.5-1.7-3.8-1c-1.3,0.8-1.7,2.4-1,3.7
		C679.4,174.1,680.4,174.6,681.3,174.6z"/>
	<path class="st0" d="M719.6,268.7c0.2,0,0.4,0,0.6-0.1c1.5-0.4,2.4-1.8,2-3.3c-0.4-1.5-1.8-2.4-3.3-2c-1.5,0.4-2.4,1.8-2,3.3
		C717.3,267.8,718.4,268.7,719.6,268.7z"/>
	<path class="st0" d="M707.7,229.7c0.3,0,0.6-0.1,1-0.2c1.4-0.5,2.1-2.1,1.6-3.5l0,0c-0.5-1.4-2.1-2.1-3.5-1.6s-2.1,2.1-1.6,3.5
		C705.6,229,706.6,229.7,707.7,229.7z"/>
	<path class="st0" d="M691.2,192.4c0.4,0,0.8-0.1,1.3-0.3c1.3-0.7,1.9-2.3,1.2-3.7l0,0c-0.7-1.3-2.3-1.9-3.7-1.2
		c-1.3,0.7-1.9,2.3-1.2,3.7C689.2,191.8,690.2,192.4,691.2,192.4z"/>
	<path class="st0" d="M721.2,286.4c0.2,1.3,1.4,2.3,2.7,2.3c0.2,0,0.3,0,0.5,0c1.5-0.3,2.5-1.7,2.2-3.2s-1.7-2.5-3.2-2.2
		C721.8,283.5,720.9,284.9,721.2,286.4z"/>
	<path class="st0" d="M714.2,249.1c0.3,0,0.5,0,0.8-0.1c1.4-0.4,2.3-2,1.8-3.4c-0.4-1.4-2-2.3-3.4-1.8c-1.4,0.4-2.3,2-1.8,3.4
		C712,248.3,713.1,249.1,714.2,249.1z"/>
	<path class="st0" d="M724.1,306.4c0.2,1.4,1.3,2.4,2.7,2.4c0.1,0,0.2,0,0.3,0c1.5-0.2,2.6-1.5,2.4-3c-0.2-1.5-1.5-2.6-3-2.4
		C725,303.5,723.9,304.9,724.1,306.4z"/>
	<path class="st0" d="M700,210.8c0.4,0,0.7-0.1,1.1-0.2c1.4-0.6,2-2.2,1.4-3.6c-0.6-1.4-2.2-2-3.6-1.4c-1.4,0.6-2,2.2-1.4,3.6
		C697.9,210.2,698.9,210.8,700,210.8z"/>
	<path class="st0" d="M700.5,297.9l-0.3,6.5c1.7-0.4,2.9-2,2.7-3.8C702.7,299.3,701.7,298.3,700.5,297.9z"/>
	<path class="st0" d="M699.4,322l-0.2,4.1c0.6,0.9,1.7,1.5,2.8,1.5c0.1,0,0.2,0,0.2,0c1.9-0.1,3.3-1.8,3.2-3.7
		c-0.1-1.9-1.8-3.3-3.7-3.2C700.8,320.9,699.9,321.3,699.4,322z"/>
	<path class="st0" d="M564,122.7c0.8,0.6,1.7,0.9,2.6,0.9c1.2,0,2.4-0.5,3.2-1.5c1.4-1.8,1.1-4.4-0.7-5.8c-1.8-1.4-4.4-1.1-5.8,0.7
		C561.9,118.7,562.2,121.3,564,122.7z"/>
	<path class="st0" d="M645.6,125c0.6,0,1.3-0.2,1.8-0.7c1.1-1,1.3-2.7,0.3-3.9c-1-1.1-2.7-1.3-3.9-0.3c-1.1,1-1.3,2.7-0.3,3.9
		C644,124.7,644.8,125,645.6,125z"/>
	<path class="st0" d="M567,58.4c0.5,0.3,1,0.4,1.5,0.4c0.9,0,1.8-0.5,2.3-1.3c0.8-1.3,0.4-3-0.9-3.8c-1.3-0.8-3-0.4-3.8,0.9
		C565.4,55.9,565.8,57.6,567,58.4z"/>
	<path class="st0" d="M583,137.8c1.1,0,2.2-0.4,3-1.3c1.5-1.7,1.4-4.3-0.2-5.8c-1.7-1.5-4.3-1.4-5.8,0.2c-1.5,1.7-1.4,4.3,0.2,5.8
		C581.1,137.4,582.1,137.8,583,137.8z"/>
	<path class="st0" d="M560.2,189.8c1,0,2-0.4,2.8-1.1c1.7-1.5,1.8-4.1,0.2-5.8c-1.5-1.7-4.1-1.8-5.8-0.2c-1.7,1.5-1.8,4.1-0.2,5.8
		C558,189.4,559.1,189.8,560.2,189.8z"/>
	<path class="st0" d="M549.6,48.1c0.4,0.2,0.9,0.3,1.3,0.3c1,0,1.9-0.5,2.4-1.4c0.7-1.3,0.2-3-1.1-3.7c-1.3-0.7-3-0.2-3.7,1.1
		C547.8,45.7,548.3,47.4,549.6,48.1z"/>
	<path class="st0" d="M552.8,137.2c-1.8-1.4-4.4-1.1-5.8,0.7c-1.4,1.8-1.1,4.4,0.7,5.8c0.8,0.6,1.7,0.9,2.6,0.9
		c1.2,0,2.4-0.5,3.2-1.5C554.9,141.1,554.6,138.6,552.8,137.2z"/>
	<path class="st0" d="M585.3,70.1c0.9,0,1.7-0.4,2.2-1.1c0.9-1.2,0.6-2.9-0.6-3.8c-1.2-0.9-2.9-0.6-3.8,0.6s-0.6,2.9,0.6,3.8
		C584.2,70,584.8,70.1,585.3,70.1z"/>
	<path class="st0" d="M567.5,87.2c-1.1,1.5-0.7,3.7,0.8,4.8c0.6,0.4,1.3,0.6,2,0.6c1.1,0,2.1-0.5,2.8-1.4c1.1-1.5,0.7-3.7-0.8-4.8
		C570.6,85.3,568.6,85.6,567.5,87.2z"/>
	<path class="st0" d="M631.7,110c0.7,0,1.4-0.3,1.9-0.8c1.1-1.1,1.1-2.8,0.1-3.9c-1.1-1.1-2.8-1.1-3.9,0c-1.1,1.1-1.1,2.8,0,3.9
		C630.3,109.7,631,110,631.7,110z"/>
	<path class="st0" d="M619.4,137.8c0.7,0.8,1.6,1.1,2.6,1.1c0.8,0,1.6-0.3,2.3-0.9c1.4-1.3,1.5-3.4,0.3-4.8
		c-1.3-1.4-3.4-1.5-4.8-0.3C618.3,134.3,618.2,136.4,619.4,137.8z"/>
	<path class="st0" d="M633.3,152.9h6.7c-0.1-0.6-0.3-1.2-0.7-1.6c-1.2-1.5-3.3-1.8-4.8-0.6C633.9,151.3,633.5,152,633.3,152.9z"/>
	<path class="st0" d="M617.1,95.8c0.7,0,1.5-0.3,2-0.9c1-1.1,0.9-2.8-0.2-3.9l0,0c-1.1-1-2.8-0.9-3.9,0.2c-1,1.1-0.9,2.9,0.2,3.9
		C615.8,95.5,616.4,95.8,617.1,95.8z"/>
	<path class="st0" d="M595.4,151.9c0.5,0.5,1.1,0.9,1.8,1.1h2.4c0.6-0.2,1.1-0.5,1.6-0.9c1.7-1.5,1.8-4.1,0.2-5.8
		c-1.5-1.7-4.1-1.8-5.8-0.2C594,147.6,593.9,150.2,595.4,151.9L595.4,151.9z"/>
	<path class="st0" d="M586.4,105.9c0.6,0.5,1.4,0.8,2.2,0.8c1,0,2-0.4,2.6-1.2c1.2-1.5,1-3.6-0.4-4.8c-1.4-1.2-3.6-1-4.8,0.4
		C584.7,102.5,584.9,104.7,586.4,105.9z"/>
	<path class="st0" d="M603.5,121.3c0.7,0.6,1.5,1,2.4,1c0.9,0,1.8-0.3,2.5-1c1.3-1.4,1.3-3.5-0.1-4.8c-1.4-1.3-3.5-1.3-4.8,0.1
		C602.1,117.8,602.1,119.9,603.5,121.3z"/>
	<path class="st0" d="M601.6,82.5c0.8,0,1.6-0.3,2.1-1c1-1.2,0.8-2.9-0.4-3.9c-1.2-1-2.9-0.8-3.9,0.4s-0.8,2.9,0.4,3.8
		C600.4,82.3,601,82.5,601.6,82.5z"/>
	<path class="st0" d="M652.4,242.1c0.6,1.6,2.2,2.6,3.8,2.6c0.5,0,1-0.1,1.5-0.3c2.1-0.8,3.1-3.2,2.3-5.3c-0.8-2.1-3.2-3.1-5.3-2.3
		C652.6,237.7,651.6,240.1,652.4,242.1z"/>
	<path class="st0" d="M266.2,456.5c1,0,1.9-0.3,2.7-1c1.7-1.5,1.9-4.1,0.4-5.8c-1.5-1.7-4.1-1.9-5.8-0.4c-1.7,1.5-1.9,4.1-0.4,5.8
		C263.9,456,265,456.5,266.2,456.5z"/>
	<path class="st0" d="M271.4,530.8c0.7,0.4,1.4,0.6,2.2,0.6c1.4,0,2.7-0.7,3.5-1.9c1.2-1.9,0.6-4.5-1.3-5.7
		c-1.9-1.2-4.5-0.6-5.7,1.3C268.9,527.1,269.5,529.7,271.4,530.8z"/>
	<path class="st0" d="M279.5,594.4c0.5,0.2,1.1,0.3,1.6,0.3c1.6,0,3.1-0.9,3.8-2.5c0.9-2.1-0.1-4.5-2.2-5.4
		c-2.1-0.9-4.5,0.1-5.4,2.2C276.4,591.2,277.4,593.5,279.5,594.4z"/>
	<path class="st0" d="M262.1,383.4c-0.6-2.2-2.9-3.4-5.1-2.8c-2.2,0.6-3.4,2.9-2.8,5.1c0.5,1.8,2.2,3,3.9,3c0.4,0,0.8-0.1,1.2-0.2
		C261.5,387.8,262.7,385.5,262.1,383.4z"/>
	<path class="st0" d="M264.8,406.3c0.6,0,1.1-0.1,1.7-0.4c2.1-0.9,3-3.4,2-5.4c-0.9-2.1-3.4-3-5.4-2c-2.1,0.9-3,3.4-2,5.4
		C261.7,405.4,263.2,406.3,264.8,406.3z"/>
	<path class="st0" d="M288.2,431.2c-1.5-1.7-4.1-1.9-5.8-0.4c-1.7,1.5-1.9,4.1-0.4,5.8l0,0c0.8,0.9,2,1.4,3.1,1.4c1,0,1.9-0.3,2.7-1
		C289.5,435.6,289.7,433,288.2,431.2z"/>
	<path class="st0" d="M295.8,509.8c1.1-2,0.5-4.5-1.5-5.6c-2-1.1-4.5-0.5-5.6,1.5c-1.1,2-0.5,4.5,1.5,5.6c0.6,0.4,1.4,0.6,2.1,0.6
		C293.7,511.8,295.1,511.1,295.8,509.8z"/>
	<path class="st0" d="M288.8,540.6c0.6,0.3,1.2,0.4,1.8,0.4c1.5,0,3-0.8,3.7-2.3c1-2,0.2-4.5-1.8-5.5S288,533,287,535
		C286,537.1,286.8,539.5,288.8,540.6z"/>
	<path class="st0" d="M241.5,564.9c-1.9-1.3-4.4-0.7-5.7,1.2c-1.3,1.9-0.7,4.4,1.2,5.7c0.7,0.5,1.5,0.7,2.3,0.7
		c1.3,0,2.6-0.7,3.4-1.8C243.9,568.6,243.3,566.1,241.5,564.9z"/>
	<path class="st0" d="M725.9,326.6c0.1,1.5,1.3,2.6,2.7,2.6c0.1,0,0.1,0,0.2,0c1.5-0.1,2.7-1.4,2.6-2.9c-0.1-1.5-1.4-2.7-2.9-2.6
		S725.8,325.1,725.9,326.6z"/>
	<path class="st0" d="M163.8,423.5c-0.7-2.1-3.1-3.3-5.2-2.6c-2.1,0.7-3.3,3.1-2.6,5.2c0.6,1.7,2.2,2.8,3.9,2.8
		c0.4,0,0.9-0.1,1.3-0.2C163.4,428,164.5,425.7,163.8,423.5z"/>
	<path class="st0" d="M157.9,487.1c0.7,0,1.4-0.2,2.1-0.6c1.9-1.2,2.6-3.7,1.4-5.6c-1.2-1.9-3.7-2.6-5.6-1.4c-2,1.2-2.6,3.7-1.4,5.6
		C155.2,486.4,156.5,487.1,157.9,487.1z"/>
	<path class="st0" d="M146.7,466.2c0.6,0,1.2-0.1,1.8-0.4c2-1,2.9-3.4,1.9-5.5c-1-2-3.4-2.9-5.5-1.9c-2,1-2.9,3.4-1.9,5.5
		C143.7,465.4,145.2,466.2,146.7,466.2z"/>
	<path class="st0" d="M236.5,538.7c0.8,0.6,1.6,0.9,2.5,0.9c1.2,0,2.4-0.5,3.2-1.6l0,0h-6.4C236,538.2,236.2,538.5,236.5,538.7z"/>
	<path class="st0" d="M201.2,59.4c0.5,0,1-0.1,1.5-0.4c1.3-0.8,1.7-2.5,0.8-3.8c-0.8-1.3-2.5-1.7-3.8-0.8c-1.3,0.8-1.7,2.5-0.8,3.8
		C199.4,58.9,200.2,59.4,201.2,59.4z"/>
	<path class="st0" d="M171,506.9c0.8,0,1.7-0.3,2.4-0.8c1.8-1.3,2.2-3.9,0.9-5.7c-1.3-1.8-3.9-2.2-5.7-0.9c-1.8,1.3-2.2,3.9-0.9,5.7
		C168.5,506.3,169.7,506.9,171,506.9z"/>
	<path class="st0" d="M167,447.3c0.6,0,1.1-0.1,1.6-0.3c2.1-0.9,3-3.3,2.1-5.4c-0.9-2.1-3.3-3-5.4-2.1s-3,3.3-2.1,5.4
		C164,446.3,165.6,447.3,167,447.3z"/>
	<path class="st0" d="M154.3,410c0.3,0,0.7,0,1-0.1c2.2-0.6,3.5-2.8,3-5c-0.6-2.2-2.8-3.5-5-3c-2.2,0.6-3.5,2.8-3,5
		C150.8,408.8,152.5,410,154.3,410z"/>
	<path class="st0" d="M647.5,478c1.5,0,3-0.9,3.7-2.3c1-2,0.1-4.5-1.9-5.5s-4.5-0.1-5.5,1.9s-0.1,4.5,1.9,5.5
		C646.3,477.9,646.9,478,647.5,478z"/>
	<path class="st0" d="M557.5,477.4C557.5,477.4,557.6,477.4,557.5,477.4l-3.2-6.5c-1.3,0-2.5,0.5-3.3,1.6c-1.4,1.8-1,4.4,0.8,5.8
		c0.7,0.6,1.6,0.8,2.5,0.8C555.6,479,556.8,478.4,557.5,477.4z"/>
	<path class="st0" d="M683.3,457.6c-1.8-0.7-3.7,0.2-4.4,2l0,0c-0.7,1.8,0.2,3.7,2,4.4c0.4,0.2,0.8,0.2,1.2,0.2
		c1.4,0,2.7-0.8,3.2-2.2c0.3-0.7,0.3-1.5,0.1-2.1l-0.5-1.1C684.3,458.3,683.8,457.9,683.3,457.6z"/>
	<path class="st0" d="M529,564.8c-1.9,1.3-2.4,3.8-1.2,5.7c0.8,1.2,2.1,1.8,3.4,1.8c0.8,0,1.6-0.2,2.3-0.7c1.9-1.2,2.4-3.8,1.2-5.7
		C533.3,564.1,530.9,563.6,529,564.8z"/>
	<path class="st0" d="M729.3,344c-1.5,0-2.7,1.2-2.7,2.7c0,0.1,0,0.2,0,0.4c0,0.1,0,0.2,0,0.4c0,1.5,1.2,2.7,2.7,2.7
		c1.5,0,2.7-1.2,2.7-2.7c0-0.1,0-0.2,0-0.4c0-0.1,0-0.3,0-0.4l0,0C732,345.3,730.8,344,729.3,344z"/>
	<path class="st0" d="M531.6,539.5c0.9,0,1.8-0.3,2.5-0.9c0.3-0.2,0.5-0.5,0.7-0.7h-6.3C529.2,539,530.4,539.5,531.6,539.5z"/>
	<path class="st0" d="M679.3,521c-0.8,1.3-0.3,3,1,3.8c0.4,0.3,0.9,0.4,1.4,0.4c0.9,0,1.8-0.5,2.4-1.3l0,0c0.8-1.3,0.3-3-1-3.7
		C681.7,519.2,680,519.7,679.3,521z"/>
	<path class="st0" d="M669.9,480.7c-0.8,1.7-0.1,3.7,1.6,4.6c0.5,0.2,1,0.3,1.5,0.3c1.3,0,2.5-0.7,3.1-2l0,0
		c0.8-1.7,0.1-3.7-1.6-4.6C672.6,478.4,670.7,479.1,669.9,480.7z"/>
	<path class="st0" d="M461.9,548.9c0.5,0,1-0.1,1.5-0.3c2.1-0.8,3.2-3.2,2.3-5.3c-0.8-2.1-3.2-3.2-5.3-2.3l0,0
		c-2.1,0.8-3.2,3.2-2.3,5.3C458.7,547.9,460.3,548.9,461.9,548.9z"/>
	<path class="st0" d="M461.9,520.2c0.6,0,1.1-0.1,1.7-0.4c2.1-0.9,3-3.4,2-5.4c-0.9-2.1-3.4-3-5.4-2l0,0c-2.1,0.9-3,3.4-2,5.4
		C458.9,519.3,460.3,520.2,461.9,520.2z"/>
	<path class="st0" d="M297.2,443.4c-0.7,0.2-1.3,0.6-1.9,1.2c-1.5,1.7-1.3,4.3,0.4,5.8c0.4,0.3,0.8,0.6,1.3,0.8c0-0.4,0-0.8,0-1.2
		C297,447.7,297.1,445.5,297.2,443.4z"/>
	<path class="st0" d="M339.4,531c0.1,0,0.1,0.1,0.2,0.1C339.5,531,339.5,531,339.4,531z"/>
	<path class="st0" d="M479.9,541c0.6,0,1.2-0.1,1.8-0.4c1.1-0.5,1.8-1.5,2.1-2.6h-7.8c0.1,0.3,0.2,0.5,0.3,0.8
		C476.9,540.2,478.4,541,479.9,541z"/>
	<path class="st0" d="M323,526.3c0.4,0.2,0.9,0.2,1.3,0.2c1.7,0,3.3-1.1,3.9-2.7c-2-1.6-3.9-3.2-5.8-5c-0.9,0.5-1.6,1.3-2,2.3
		C319.7,523.2,320.9,525.5,323,526.3z"/>
	<path class="st0" d="M466,595.2c-2.2,0.7-3.3,3-2.6,5.2c0.6,1.7,2.2,2.8,3.9,2.8c0.4,0,0.9-0.1,1.3-0.2c2.1-0.7,3.3-3,2.6-5.2
		C470.4,595.7,468.2,594.5,466,595.2L466,595.2z"/>
	<path class="st0" d="M460.9,491.7L460.9,491.7c1.8-1,2.6-3.1,1.9-5C462.2,488.4,461.5,490.1,460.9,491.7
		C460.8,491.7,460.8,491.7,460.9,491.7z"/>
	<path class="st0" d="M471.7,451.7c1,0,1.9-0.3,2.7-1c1.7-1.5,1.9-4.1,0.4-5.8s-4-1.9-5.8-0.4c0,1.2,0.1,2.3,0.1,3.5
		c0,0.9,0,1.8-0.1,2.7C469.8,451.3,470.8,451.7,471.7,451.7z"/>
	<path class="st0" d="M298.1,480.2c1.3-1.9,0.8-4.4-1-5.7c-1.9-1.3-4.4-0.8-5.7,1c-1.3,1.9-0.8,4.4,1,5.7c0.7,0.5,1.5,0.7,2.3,0.7
		C296,482,297.3,481.3,298.1,480.2z"/>
	<path class="st0" d="M334,9.9c0.1,0,0.3,0,0.4,0c1.5-0.2,2.5-1.6,2.3-3.1c-0.2-1.5-1.6-2.5-3.1-2.3c-1.5,0.2-2.5,1.6-2.3,3.1
		C331.5,8.9,332.7,9.9,334,9.9z"/>
	<path class="st0" d="M341.6,63.6c0.2,0,0.4,0,0.6,0c2.2-0.3,3.8-2.4,3.4-4.7c-0.3-2.2-2.4-3.8-4.7-3.5c-2.2,0.3-3.8,2.4-3.4,4.7
		C337.9,62.2,339.6,63.6,341.6,63.6z"/>
	<path class="st0" d="M345.6,85.6c0.3,2.1,2,3.6,4.1,3.6c0.2,0,0.4,0,0.6,0c2.2-0.3,3.8-2.4,3.5-4.6c-0.3-2.3-2.4-3.8-4.6-3.5
		C346.9,81.3,345.3,83.4,345.6,85.6z"/>
	<path class="st0" d="M326.2,139.7c-2.2,0.6-3.4,2.9-2.8,5.1c0.5,1.8,2.2,3,3.9,3c0.4,0,0.7,0,1.1-0.2c2.2-0.6,3.4-2.9,2.8-5.1
		C330.6,140.4,328.4,139.2,326.2,139.7z"/>
	<path class="st0" d="M327.7,38.4c0.2,0,0.4,0,0.6-0.1c1.9-0.3,3.1-2.1,2.7-4c-0.3-1.9-2.1-3.1-4-2.8c-1.9,0.3-3.1,2.1-2.8,4
		C324.7,37.3,326.1,38.4,327.7,38.4z"/>
	<path class="st0" d="M306.3,118.2c-2.1,0.7-3.3,3.1-2.6,5.2c0.6,1.7,2.2,2.8,3.9,2.8c0.4,0,0.9-0.1,1.3-0.2
		c2.1-0.7,3.3-3.1,2.5-5.2C310.8,118.6,308.4,117.5,306.3,118.2z"/>
	<path class="st0" d="M314,13.4c0.2,0,0.4,0,0.6-0.1c1.5-0.3,2.4-1.8,2.1-3.2c-0.3-1.5-1.8-2.4-3.2-2.1c-1.5,0.3-2.4,1.8-2.1,3.2
		C311.6,12.6,312.7,13.4,314,13.4z"/>
	<path class="st0" d="M316.3,64.4c0.4,1.9,2.1,3.2,4,3.2c0.3,0,0.6,0,0.9-0.1c2.2-0.5,3.6-2.7,3.1-4.9c-0.5-2.2-2.7-3.6-4.9-3.1
		C317.2,60.1,315.8,62.3,316.3,64.4z"/>
	<path class="st0" d="M350.7,35.1c0.1,0,0.2,0,0.4,0l0,0c1.9-0.2,3.2-1.9,3-3.8c-0.2-1.9-1.9-3.2-3.8-3s-3.2,1.9-3,3.8
		C347.5,33.8,348.9,35.1,350.7,35.1z"/>
	<path class="st0" d="M361.2,110.4c0.2,2.1,2,3.8,4.1,3.8c0.1,0,0.2,0,0.3,0c2.3-0.2,3.9-2.2,3.7-4.4c-0.2-2.3-2.2-3.9-4.4-3.8
		C362.7,106.1,361.1,108.1,361.2,110.4z"/>
	<path class="st0" d="M373.3,87c0.1,0,0.1,0,0.2,0c2.3-0.1,4-2,3.9-4.3c-0.1-2.3-2-4-4.3-3.9c-2.3,0.1-4,2-3.9,4.3
		C369.3,85.3,371.1,87,373.3,87z"/>
	<path class="st0" d="M373.8,33.4L373.8,33.4c2-0.1,3.5-1.7,3.4-3.5c-0.1-1.9-1.6-3.4-3.5-3.3s-3.4,1.6-3.3,3.5
		C370.4,32,372,33.4,373.8,33.4z"/>
	<path class="st0" d="M374.6,6.2C374.6,6.2,374.7,6.2,374.6,6.2c1.6,0,2.8-1.3,2.7-2.8c0-1.5-1.3-2.7-2.8-2.7s-2.7,1.3-2.7,2.8
		C371.9,5,373.1,6.2,374.6,6.2z"/>
	<path class="st0" d="M354.3,7.4c0.1,0,0.2,0,0.2,0c1.5-0.1,2.6-1.5,2.5-3s-1.5-2.6-3-2.5s-2.6,1.5-2.5,3
		C351.7,6.4,352.9,7.4,354.3,7.4z"/>
	<ellipse transform="matrix(1 -1.711075e-03 1.711075e-03 1 -0.1863 0.659)" class="st0" cx="385" cy="109.2" rx="4.1" ry="4.1"/>
	<path class="st0" d="M355,164.6c0.3,2.1,2.1,3.5,4.1,3.5c0.2,0,0.4,0,0.6,0c2.2-0.3,3.8-2.4,3.5-4.6c-0.3-2.2-2.4-3.8-4.6-3.5
		C356.1,160.3,354.7,162.4,355,164.6z"/>
	<path class="st0" d="M305.1,43.4c0.3,0,0.6,0,0.9-0.1c1.8-0.5,2.9-2.3,2.4-4.2c-0.5-1.8-2.3-2.9-4.2-2.4c-1.8,0.5-2.9,2.3-2.4,4.2
		C302.2,42.3,303.6,43.4,305.1,43.4z"/>
	<path class="st0" d="M363.2,61.2c0.1,0,0.2,0,0.3,0c2.3-0.2,4-2.1,3.8-4.4c-0.2-2.3-2.1-4-4.4-3.8c-2.3,0.2-4,2.1-3.8,4.4
		C359.3,59.6,361.1,61.2,363.2,61.2z"/>
	<path class="st0" d="M274.8,77.8c0.6,1.6,2.2,2.6,3.8,2.6c0.5,0,1-0.1,1.5-0.3c2.1-0.8,3.1-3.2,2.3-5.3c-0.8-2.1-3.2-3.1-5.3-2.3
		C275.1,73.4,274,75.8,274.8,77.8z"/>
	<path class="st0" d="M236.8,39.5c0.4,0,0.8-0.1,1.2-0.3c1.4-0.7,1.9-2.3,1.3-3.7c-0.7-1.4-2.3-1.9-3.7-1.3
		c-1.4,0.7-1.9,2.3-1.3,3.7C234.8,39,235.8,39.5,236.8,39.5z"/>
	<path class="st0" d="M237.2,66.3c0.6,1.2,1.8,1.9,3.1,1.9c0.5,0,1.1-0.1,1.6-0.4c1.7-0.9,2.3-2.9,1.5-4.6c-0.9-1.7-2.9-2.3-4.6-1.5
		C237,62.6,236.3,64.6,237.2,66.3z"/>
	<path class="st0" d="M218.7,103.5c-1.9,1.3-2.4,3.8-1.1,5.7c0.8,1.2,2.1,1.8,3.4,1.8c0.8,0,1.6-0.2,2.3-0.7
		c1.9-1.3,2.4-3.8,1.1-5.7C223.1,102.7,220.5,102.3,218.7,103.5z"/>
	<path class="st0" d="M242.1,186.8l0.2,8c0.1,0,0.3,0,0.4,0c1,0,2-0.4,2.8-1.1c1.7-1.5,1.8-4.1,0.3-5.8
		C244.7,187.1,243.3,186.7,242.1,186.8z"/>
	<path class="st0" d="M218.2,73.2c-1.6,1-2.1,3.1-1.1,4.7c0.6,1.1,1.8,1.6,2.9,1.6c0.6,0,1.2-0.2,1.8-0.5c1.6-1,2.1-3.1,1.1-4.7
		C221.9,72.7,219.8,72.2,218.2,73.2z"/>
	<path class="st0" d="M201,116.7c-1.8,1.4-2.1,4-0.6,5.8c0.8,1,2,1.5,3.2,1.5c0.9,0,1.8-0.3,2.6-0.9c1.8-1.4,2.1-4,0.6-5.8
		C205.2,115.5,202.7,115.3,201,116.7z"/>
	<path class="st0" d="M254.8,152.1c0.8,0,1.6-0.2,2.3-0.7l0,0c1.9-1.2,2.4-3.8,1.2-5.7s-3.8-2.4-5.7-1.2s-2.4,3.8-1.2,5.7
		C252.1,151.5,253.4,152.1,254.8,152.1z"/>
	<path class="st0" d="M546.6,110c0.7,0.5,1.5,0.7,2.3,0.7c1.3,0,2.6-0.6,3.4-1.8c1.3-1.9,0.8-4.4-1.1-5.7c-1.9-1.3-4.4-0.8-5.7,1.1
		C544.4,106.1,544.9,108.7,546.6,110z"/>
	<path class="st0" d="M295.3,70.4c0.5,1.8,2.2,2.9,3.9,2.9c0.4,0,0.8-0.1,1.2-0.2c2.2-0.7,3.4-3,2.7-5.1c-0.7-2.2-3-3.4-5.1-2.7
		C295.8,65.9,294.6,68.2,295.3,70.4z"/>
	<path class="st0" d="M282.8,50.1c0.4,0,0.7-0.1,1.1-0.2l0,0c1.8-0.6,2.7-2.6,2.1-4.3c-0.6-1.8-2.6-2.7-4.3-2.1
		c-1.8,0.6-2.7,2.6-2.1,4.3C280.1,49.2,281.4,50.1,282.8,50.1z"/>
	<path class="st0" d="M255.5,31.3c0.3,0,0.7-0.1,1-0.2l0,0c1.4-0.6,2.1-2.2,1.5-3.6c-0.6-1.4-2.2-2.1-3.6-1.5
		c-1.4,0.6-2.1,2.2-1.5,3.6C253.5,30.7,254.5,31.3,255.5,31.3z"/>
	<path class="st0" d="M285.6,130.9c0.7,1.5,2.2,2.5,3.8,2.5c0.6,0,1.1-0.1,1.6-0.3c2.1-0.9,3-3.3,2.1-5.4c-0.9-2.1-3.3-3-5.4-2.1
		C285.6,126.5,284.7,128.8,285.6,130.9z"/>
	<path class="st0" d="M294.1,18.2c0.2,0,0.5,0,0.7-0.1c1.5-0.4,2.3-1.9,1.9-3.4s-1.9-2.3-3.4-1.9s-2.3,1.9-1.9,3.4
		C291.9,17.4,292.9,18.2,294.1,18.2z"/>
	<path class="st0" d="M385,60.4L385,60.4c2.3,0,4.1-1.9,4.1-4.1c0-2.3-1.8-4.1-4.1-4.1s-4.1,1.9-4.1,4.1
		C381,58.5,382.7,60.4,385,60.4z"/>
	<path class="st0" d="M258,56.2c0.6,1.3,1.8,2.1,3.1,2.1c0.5,0,0.9-0.1,1.3-0.3c1.7-0.7,2.5-2.8,1.8-4.5c-0.7-1.7-2.8-2.6-4.5-1.8
		C258.1,52.5,257.3,54.5,258,56.2z"/>
	<path class="st0" d="M274.7,24.2c0.3,0,0.6,0,0.9-0.1c1.4-0.5,2.2-2,1.7-3.5c-0.5-1.4-2-2.2-3.5-1.7c-1.4,0.5-2.2,2-1.7,3.5
		C272.4,23.5,273.5,24.2,274.7,24.2z"/>
	<path class="st0" d="M271.6,142c0.7,0,1.3-0.2,2-0.5c2-1.1,2.7-3.6,1.6-5.6c-1.1-2-3.6-2.7-5.6-1.6c-2,1.1-2.7,3.6-1.6,5.6
		C268.7,141.2,270.2,142,271.6,142z"/>
	<path class="st0" d="M218.6,49c0.5,0,0.9-0.1,1.3-0.3c1.3-0.7,1.8-2.4,1.1-3.7c-0.7-1.3-2.4-1.8-3.7-1.1c-1.3,0.7-1.8,2.4-1.1,3.7
		C216.9,48.5,217.7,49,218.6,49z"/>
	<path class="st0" d="M494.7,135.8c-1.1,2-0.3,4.5,1.7,5.6c0.6,0.3,1.3,0.5,1.9,0.5c1.5,0,2.9-0.8,3.6-2.2c1.1-2,0.3-4.5-1.7-5.6
		C498.3,133,495.8,133.8,494.7,135.8z"/>
	<path class="st0" d="M174.4,370.8c0.1,0,0.2,0,0.4,0c2.3-0.2,3.9-2.2,3.7-4.5c-0.1-0.6-0.2-1.1-0.5-1.6h-5l-2.3,3.8
		C171.4,369.9,172.8,370.8,174.4,370.8z"/>
	<path class="st0" d="M513.1,30.8c0.3,0.1,0.7,0.2,1,0.2c1.1,0,2.1-0.6,2.5-1.7c0.6-1.4-0.1-3-1.5-3.6c-1.4-0.6-3,0.1-3.6,1.5
		C511.1,28.6,511.7,30.2,513.1,30.8z"/>
	<path class="st0" d="M511.8,145.5c-1.2,1.9-0.7,4.4,1.2,5.7c0.7,0.5,1.5,0.7,2.2,0.7c1.3,0,2.7-0.7,3.4-1.9
		c1.2-1.9,0.7-4.4-1.2-5.7C515.6,143.1,513.1,143.6,511.8,145.5z"/>
	<path class="st0" d="M516.5,222.4c0.8,0.8,1.9,1.3,3,1.3c1,0,2-0.4,2.8-1.1c1.6-1.6,1.7-4.2,0.1-5.8c-1.6-1.6-4.2-1.7-5.8-0.1
		C515,218.1,514.9,220.7,516.5,222.4z"/>
	<path class="st0" d="M476.9,127.4c-0.9,2.1,0,4.5,2.1,5.4c0.5,0.2,1.1,0.3,1.6,0.3c1.6,0,3.1-0.9,3.8-2.5c0.9-2.1,0-4.5-2.1-5.4
		C480.3,124.5,477.9,125.4,476.9,127.4z"/>
	<path class="st0" d="M486.8,50c0.4,0.1,0.7,0.2,1.1,0.2c1.4,0,2.8-0.9,3.2-2.3c0.6-1.8-0.3-3.7-2.1-4.3c-1.8-0.6-3.7,0.3-4.3,2.1
		C484.1,47.5,485,49.4,486.8,50z"/>
	<path class="st0" d="M474.8,17.9L474.8,17.9c0.2,0.1,0.5,0.1,0.7,0.1c1.2,0,2.3-0.8,2.6-2c0.4-1.5-0.5-3-1.9-3.4
		c-1.5-0.4-3,0.5-3.4,1.9C472.5,16,473.3,17.5,474.8,17.9z"/>
	<path class="st0" d="M494.2,23.8L494.2,23.8c0.3,0.1,0.6,0.1,0.9,0.1c1.1,0,2.2-0.7,2.6-1.9c0.5-1.4-0.3-3-1.7-3.5
		c-1.4-0.5-3,0.3-3.5,1.7C492,21.8,492.8,23.3,494.2,23.8z"/>
	<path class="st0" d="M541.7,208.8c1,0,2-0.4,2.8-1.1c1.7-1.5,1.8-4.1,0.3-5.8c-1.5-1.7-4.1-1.8-5.8-0.3c-1.7,1.5-1.8,4.1-0.3,5.8
		C539.5,208.3,540.6,208.8,541.7,208.8z"/>
	<path class="st0" d="M532.3,287.4c-2.1,0.8-3.2,3.2-2.4,5.3c0.6,1.6,2.2,2.7,3.8,2.7h0.1l3.7-5.7
		C536.7,287.6,534.4,286.6,532.3,287.4z"/>
	<path class="st0" d="M541.2,251.4c0.8,0,1.5-0.2,2.2-0.7c1.9-1.2,2.5-3.8,1.2-5.7c-1.2-1.9-3.8-2.5-5.7-1.2
		c-1.9,1.2-2.5,3.8-1.2,5.7C538.5,250.7,539.8,251.4,541.2,251.4z"/>
	<path class="st0" d="M525.1,193.9c0.8,0.7,1.8,1.1,2.8,1.1c1.1,0,2.2-0.5,3-1.3c1.5-1.7,1.4-4.3-0.3-5.8c-1.7-1.5-4.3-1.4-5.8,0.3
		C523.3,189.8,523.4,192.3,525.1,193.9L525.1,193.9z"/>
	<path class="st0" d="M546.3,176c1.1,0,2.2-0.4,3-1.3c1.5-1.7,1.4-4.3-0.2-5.8c-1.7-1.5-4.3-1.4-5.8,0.2c-1.5,1.7-1.4,4.3,0.2,5.8
		C544.4,175.6,545.3,176,546.3,176z"/>
	<path class="st0" d="M528.5,98.6L528.5,98.6c0.6,0.4,1.3,0.5,2,0.5c1.4,0,2.8-0.7,3.6-2.1c1.1-2,0.5-4.5-1.5-5.6
		c-2-1.1-4.5-0.5-5.6,1.5C525.9,94.9,526.6,97.4,528.5,98.6z"/>
	<path class="st0" d="M529.1,67.9c0.5,0.3,1,0.4,1.6,0.4c1.2,0,2.4-0.7,3-1.9c0.9-1.7,0.2-3.7-1.5-4.6c-1.7-0.9-3.7-0.2-4.6,1.5
		C526.8,65,527.4,67,529.1,67.9z"/>
	<path class="st0" d="M531.7,38.9c0.4,0.2,0.8,0.3,1.2,0.3c1,0,2-0.6,2.5-1.6c0.6-1.4,0.1-3-1.3-3.6c-1.4-0.7-3-0.1-3.6,1.3
		C529.7,36.7,530.3,38.3,531.7,38.9z"/>
	<path class="st0" d="M442.1,147.6c0.4,0.1,0.7,0.2,1.1,0.2c1.8,0,3.4-1.2,4-3c0.6-2.2-0.7-4.5-2.8-5.1c-2.2-0.6-4.5,0.7-5.1,2.8
		C438.7,144.7,439.9,147,442.1,147.6z"/>
	<path class="st0" d="M406.4,61.2c0.1,0,0.2,0,0.3,0c2.1,0,3.9-1.6,4.1-3.8c0.2-2.3-1.5-4.2-3.8-4.4c-2.3-0.2-4.2,1.5-4.4,3.8
		C402.5,59,404.2,61,406.4,61.2z"/>
	<path class="st0" d="M415.1,7.4c0.1,0,0.2,0,0.2,0c1.4,0,2.6-1.1,2.7-2.5c0.1-1.5-1-2.8-2.5-3c-1.5-0.1-2.8,1-3,2.5
		C412.5,5.9,413.6,7.2,415.1,7.4z"/>
	<path class="st0" d="M404.4,114.1c0.1,0,0.2,0,0.3,0c2.1,0,3.9-1.6,4.1-3.8c0.2-2.3-1.5-4.2-3.8-4.4c-2.3-0.2-4.2,1.5-4.4,3.8
		C400.4,111.9,402.1,113.9,404.4,114.1z"/>
	<path class="st0" d="M427.8,63.5c0.2,0,0.4,0,0.6,0c2,0,3.8-1.5,4.1-3.5c0.3-2.2-1.2-4.3-3.5-4.7c-2.2-0.3-4.3,1.2-4.7,3.5
		C424,61.1,425.6,63.2,427.8,63.5z"/>
	<path class="st0" d="M416.8,31.3c-0.2,1.9,1.1,3.6,3,3.8l0,0c0.1,0,0.2,0,0.4,0c1.7,0,3.2-1.3,3.4-3.1c0.2-1.9-1.1-3.6-3-3.8
		C418.7,28.1,417,29.5,416.8,31.3z"/>
	<path class="st0" d="M394.9,6.2L394.9,6.2c1.5,0,2.8-1.2,2.8-2.7s-1.1-2.8-2.7-2.8c-1.5,0-2.8,1.1-2.8,2.7
		C392.3,4.9,393.5,6.1,394.9,6.2z"/>
	<path class="st0" d="M397.1,26.6c-1.9-0.1-3.5,1.4-3.5,3.3c-0.1,1.9,1.4,3.5,3.3,3.6h0.1c1.8,0,3.3-1.5,3.4-3.3
		C400.5,28.3,399,26.7,397.1,26.6L397.1,26.6z"/>
	<path class="st0" d="M397.2,78.9c-2.3-0.1-4.2,1.6-4.3,3.9c-0.1,2.3,1.6,4.2,3.9,4.3c0.1,0,0.1,0,0.2,0c2.2,0,4-1.7,4.1-3.9
		C401.3,80.9,399.5,79,397.2,78.9z"/>
	<path class="st0" d="M435.2,9.7c0.1,0,0.3,0,0.4,0c1.3,0,2.5-1,2.7-2.3c0.2-1.5-0.8-2.9-2.3-3.1c-1.5-0.2-2.9,0.8-3.1,2.3
		C432.7,8.1,433.7,9.5,435.2,9.7z"/>
	<path class="st0" d="M455.2,13.3c0.2,0,0.4,0.1,0.6,0.1c1.3,0,2.4-0.9,2.7-2.2c0.3-1.5-0.7-2.9-2.1-3.2c-1.5-0.3-2.9,0.6-3.2,2.1
		C452.7,11.5,453.7,13,455.2,13.3z"/>
	<path class="st0" d="M461,125.8c0.4,0.2,0.9,0.2,1.3,0.2c1.7,0,3.3-1.1,3.9-2.8c0.7-2.1-0.4-4.5-2.6-5.2c-2.1-0.7-4.5,0.4-5.2,2.6
		C457.7,122.8,458.9,125.1,461,125.8z"/>
	<path class="st0" d="M464.9,43.4c0.3,0.1,0.6,0.1,0.9,0.1c1.5,0,2.9-1,3.3-2.6c0.5-1.8-0.6-3.7-2.4-4.2c-1.8-0.5-3.7,0.6-4.2,2.4
		C461.9,41,463,42.9,464.9,43.4z"/>
	<path class="st0" d="M448.9,67.4c0.3,0.1,0.6,0.1,0.9,0.1c1.9,0,3.6-1.3,4-3.2c0.5-2.2-0.9-4.4-3.1-4.9c-2.2-0.5-4.4,0.9-4.9,3.1
		C445.3,64.7,446.7,66.9,448.9,67.4z"/>
	<path class="st0" d="M442.5,120.3c0.3,0.1,0.7,0.1,1,0.1c1.8,0,3.5-1.2,4-3.1c0.5-2.2-0.8-4.4-3-5c-2.2-0.5-4.4,0.8-5,3
		C439,117.5,440.3,119.8,442.5,120.3z"/>
	<path class="st0" d="M442.5,38.5c0.2,0,0.4,0.1,0.6,0.1c1.6,0,3.1-1.2,3.4-2.8c0.3-1.9-0.9-3.6-2.8-4c-1.9-0.3-3.6,0.9-4,2.7
		C439.4,36.3,440.6,38.1,442.5,38.5z"/>
	<circle class="st0" cx="385.2" cy="135.7" r="4.1"/>
	<path class="st0" d="M466.9,67.8c-0.7,2.2,0.6,4.5,2.7,5.1c0.4,0.1,0.8,0.2,1.2,0.2c1.8,0,3.4-1.1,3.9-2.9c0.7-2.2-0.6-4.5-2.7-5.1
		C469.8,64.4,467.6,65.7,466.9,67.8z"/>
	<path d="M97.6,326.6l16.6-3.5V160.8l-16.3-3.7v-4.2h143.6l1.2,57.7h-4.2l-32-53h-40.2v83.6H186l22.4-32.8h4.2v70.7h-4.2l-22.4-33
		h-19.7v77.2l19.2,3.2v4.2H97.6V326.6z M260.9,274V160.6l-15.3-3.5v-4.2h83.1v4.2l-15.8,3.2v110.9c0,33.3,13.1,44.3,40,44.3
		c27.4,0,39.2-11.8,39.2-45.1V167.7l-20.9-10.6v-4.2h42.5v4.2l-16.6,10.8v102.8c0,36-17.8,63.4-63.4,63.4
		C283.6,334.2,260.9,311,260.9,274z M417.6,326.6l16.6-3.7V160.8l-16.6-3.7v-4.2h86.3v4.2l-17.8,3.5v165.5h28.1l40.5-63.4h4.2
		l-3.2,68.1H417.6V326.6z M560.9,326.6l16.6-3.7V160.8l-16.6-3.7v-4.2h86.3v4.2l-17.8,3.5v165.5h28.1l40.5-63.4h4.2l-3.2,68.1H560.9
		V326.6z M8.8,532l-2.5-48.8h4.2l38.7,51.1c4.5,1.5,8.8,2.2,12.8,2.2c21.9,0,32.5-10.6,32.5-28.9c0-18-10.1-27.1-35.2-36.2l-9.6-4
		c-27.9-11.6-42.2-26.9-42.2-55.3c0-31.4,18.9-55.3,65.4-55.3c22.9,0,36.7,3.5,47.8,7.1l2.7,45.8h-4.2l-35.7-46.8
		c-3.2-1.2-6.6-2-10.6-2c-19.9,0-29.6,11.1-29.6,27.6c0,15.6,8.1,24.4,30.9,32.3l9.8,4c31.1,11.8,49.3,22.2,49.3,56.7
		c0,38-26.4,59.2-70.5,59.2C42.5,540.9,21.1,537.5,8.8,532z M168.8,533.7l18.3-3.7V364.9H173l-34.5,56.9h-4.2l2.2-61.6h152.9l2,61.6
		h-4.2l-33.5-56.9h-14.6v165.2l18.3,3.7v4.2h-88.5V533.7z M382.6,540.9c-49.3,0-85.5-31.4-85.5-91c0-63.1,42-92.8,86.8-92.8
		c49.1,0,85.3,30.9,85.3,90.8C469.2,510.6,427.8,540.9,382.6,540.9z M353.6,448.4c0,70.2,7.9,88,29.6,88c20.7,0,29.1-18.3,29.1-86.3
		c0-71.5-8.4-88.5-29.1-88.5C362.4,361.6,353.6,380.6,353.6,448.4z M627.7,409.2c0,20.2-13.1,35.2-31.8,41.7v1.2l41.2,76.7l8.4,5
		v4.2h-57.9L548,458h-7.9v72.5l15.1,3.2v4.2H471v-4.2l17.1-3.7V368.5l-16.8-4.2v-4.2h89.3C609,360.1,627.7,378.7,627.7,409.2z
		 M576.2,409c0-33.5-8.6-44.1-27.6-44.1h-8.4v87.8h7.9C567.6,452.7,576.2,441.1,576.2,409z M669.5,533.7l18.3-3.7V465l-45.3-94.6
		l-11.3-6v-4.2h78.2v4.2l-13.6,5.7l40.7,86.3h1.2l31.8-80.2l-22.7-11.8v-4.2h46.8v4.2l-19.2,12.1l-34.5,87v66.6l17.5,3.7v4.2h-87.8
		L669.5,533.7L669.5,533.7z"/>
</g>
</svg>
