<?xml version="1.0" encoding="utf-8"?>
<!-- Generator: Adobe Illustrator 21.0.2, SVG Export Plug-In . SVG Version: 6.00 Build 0)  -->
<svg version="1.1" id="Layer_1" xmlns="http://www.w3.org/2000/svg" xmlns:xlink="http://www.w3.org/1999/xlink" x="0px" y="0px"
	 viewBox="0 0 800 133.8" style="enable-background:new 0 0 800 133.8;" xml:space="preserve">
<g>
	<path d="M466.9,110.2h-25.1l-5.9,17.4l7.8,1.7v3.1H424v-3.2l6.2-1.6L453,62h7.8l22.8,65.5l6.2,1.6v3.2h-25.4v-3.1l8.2-1.7
		L466.9,110.2z M443.6,104.9h21.5L454.6,73h-0.4L443.6,104.9z"/>
	<path d="M487.7,83.9v-2.7l15.1-1.5l1.5,0.6v37.9c0,6.9,3.8,9.4,9.5,9.4c5.4,0,9.3-1.6,13.2-3.2V85.5l-7.1-1.6v-2.7l14.9-1.5
		l1.4,0.6v46.4l7,1.7v2.6l-14.6,2.2l-1.4-0.5v-5.2h-0.4c-4.9,2.8-10.5,5.7-16.8,5.7c-10,0-14.9-4.3-14.9-14.1V85.5L487.7,83.9z"/>
	<path d="M582.5,117.9c0,9.7-6.6,15.8-19.7,15.8c-5.8,0-11.3-1.2-16.1-2.7l-0.9-12.4h3.9l3.2,8.9c2.6,1.3,5.6,2.1,9.7,2.1
		c8.2,0,12.1-3.9,12.1-9.3c0-4.4-2.3-7-9.5-9.3l-5.7-1.8c-8.7-2.8-13.2-6.9-13.2-14.9c0-8.4,6.1-15,18.4-15c5.8,0,11,0.9,14.3,1.9
		v11.5h-3.9l-2-8c-1.8-0.8-4.7-1.3-8.2-1.3c-7.2,0-10.7,3.4-10.7,8.4c0,4.2,2.3,6.5,9.9,9.1l5.6,1.8
		C578.8,105.4,582.5,110.1,582.5,117.9z"/>
	<path d="M584.1,84.6v-2.8l7.6-1.7V68.9l9.2-1.5v12.8h14.7v4.4h-14.7v34.9c0,6.1,2,8.3,9.4,8.3c2,0,4.5-0.3,6.2-0.7v3.2
		c-2.3,1.4-6.7,2.7-11.4,2.7c-8.8,0-13.4-3.1-13.4-12.5v-36h-7.6V84.6z"/>
	<path d="M633.1,79.7l1.2,0.7v7.5h0.5c3-5.4,8.3-8.7,13.9-8.7c1.4,0,2.5,0.2,3.1,0.4v8.3c-1.1-0.3-2.4-0.4-4-0.4
		c-5.7,0-9.8,1.3-13.2,4V128l8.4,1.6v2.7h-24.9v-2.7l7.2-1.6V86l-7.2-1.5v-2.6L633.1,79.7z"/>
	<path d="M681.5,102.2V96c0-8.8-1.8-12.4-10.3-12.4c-3.4,0-5.9,0.6-8.2,1.4l-2.6,9.5h-4.3V82.3c4.2-1.1,11.2-2.8,17.5-2.8
		c12.3,0,17.3,4.7,17.3,15.2v33l6.9,1.6v2.5c-1.8,0.8-5,1.6-8.2,1.6c-4.7,0-6.7-1.9-7.2-5.4h-0.6c-2.9,2.8-6.8,5.8-14.2,5.8
		c-8.9,0-14.8-5.6-14.8-14.2c0-8.7,5.9-13.1,15.8-14.8L681.5,102.2z M681.5,124.3V107l-10.3,1.1c-7.2,0.7-9.3,4.4-9.3,10.1
		c0,6.4,3.2,9.8,9.8,9.8C676,128,679.4,126.5,681.5,124.3z"/>
	<path d="M713.7,54.8l1.3,0.7v72.4l7.4,1.7v2.7h-23.8v-2.7l7.1-1.7v-67l-7.1-1.2v-2.6L713.7,54.8z"/>
	<path d="M738.5,79.7l1.2,0.7V128l7.3,1.6v2.7h-23.8v-2.7l7.1-1.6V86l-7.1-1.5v-2.6L738.5,79.7z M740.6,64.5c0,3.2-2.7,5.8-6,5.8
		c-3.4,0-5.9-2.6-5.9-5.8c0-3.3,2.5-5.8,5.9-5.8C737.9,58.7,740.6,61.1,740.6,64.5z"/>
	<path d="M777.4,102.2V96c0-8.8-1.8-12.4-10.3-12.4c-3.4,0-5.9,0.6-8.2,1.4l-2.6,9.5H752V82.3c4.2-1.1,11.2-2.8,17.5-2.8
		c12.3,0,17.3,4.7,17.3,15.2v33l6.9,1.6v2.5c-1.8,0.8-5,1.6-8.2,1.6c-4.7,0-6.7-1.9-7.2-5.4h-0.6c-2.9,2.8-6.8,5.8-14.2,5.8
		c-8.9,0-14.8-5.6-14.8-14.2c0-8.7,5.9-13.1,15.8-14.8L777.4,102.2z M777.4,124.3V107l-10.4,1c-7.2,0.7-9.3,4.4-9.3,10.1
		c0,6.4,3.2,9.8,9.8,9.8C771.8,128,775.2,126.5,777.4,124.3z"/>
</g>
<g>
	<g>
		<g>
			<g>
				<path d="M97.6,70.4l7-3.7V11.5h-5.3l-13,17.2h-1.5l0.8-19.2H142l0.8,19.2h-1.5l-12.7-17.2h-5.4v55.1l7.1,3.7v1.9H97.6V70.4z"/>
				<path d="M148.3,68V6.8l-5.5-2.2V3.5L162.5,0h2.1v29l0.5-0.5c4.4-3.8,10.6-6.3,16.9-6.3c8.6,0,12.5,4.9,12.5,14V68l4.6,2.5v1.9
					h-25.8v-1.8l4.6-2.5v-32c0-5-2.2-7-6.3-7c-2.7,0-5.1,0.9-6.8,2.3v36.8l4.5,2.5v1.8h-25.8v-1.8L148.3,68z"/>
				<path d="M213.1,49.2c0.5,10.1,5.1,17.9,15.8,17.9c5.2,0,8.9-2.4,12.4-4.2v2c-2.7,3.7-9.5,8.8-19,8.8c-16.6,0-25.1-9.3-25.1-25.3
					c0-15.7,9.3-25.4,24.3-25.4c14.1,0,21.5,7.1,21.5,25.7v0.5H213.1z M212.9,46.9l14.6-0.9c0-12.5-2.1-20.8-6.4-20.8
					C216.5,25.1,212.9,34.8,212.9,46.9z"/>
				<path d="M5.9,96.8c0-26.6,17.6-36.1,37.3-36.1c8.3,0,16.2,1.3,20.6,3.2l0.4,18.6h-1.9l-11.5-18c-2-0.8-3.8-1.2-7.3-1.2
					c-10.4,0-15.8,12.1-15.6,31.8c0.2,23.7,4.3,34.4,13.9,34.4c2.5,0,4.4-0.4,5.7-1v-25.3l-6.3-3.6v-2.1h30.6v2.3l-6.2,3.5v25
					c-5.2,2-13.9,3.9-23.1,3.9C20,132.1,5.9,121.8,5.9,96.8z"/>
				<path d="M69.1,84.3v-1.5l20.6-3.6l2.3,0.2v40.5c0,4.9,2.3,6.4,6.3,6.4c2.5,0,4.8-1,6.7-3.1V86.9l-5.6-2.4v-1.6l20.6-3.6l2.1,0.2
					v46.4l5.5,2.3v1.5l-20.3,2.5l-2.1-0.2v-6.1h-0.6c-3.8,3.5-9,6.5-15.4,6.5c-9.9,0-14.4-5.8-14.4-14.6V87L69.1,84.3z"/>
				<path d="M197.9,79.1l1.7,0.2v15h0.5c2.2-11,7-15.1,13-15.1c0.9,0,2,0.1,2.5,0.4v15.3c-0.9-0.3-2.6-0.4-4.2-0.4
					c-4.7,0-8.1,0.8-11.2,2.2v29.6l4.7,2.6v1.9h-26.7V129l4.8-2.6V86l-5.6-1.7v-1.4L197.9,79.1z"/>
				<path d="M249.5,80.4V64.6l-5.6-2v-1.3l20.7-3.8l2,0.3v67.9l5.7,2.1v1.8l-20.5,2.8l-1.6-0.2v-5.6h-0.5c-3,3-7.1,5.7-13.6,5.7
					c-11.2,0-19.3-8.5-19.3-26c0-18.4,9.5-27.5,23.8-27.5C244.8,78.8,247.9,79.5,249.5,80.4z M249.4,123.9V83.3
					c-1.3-0.8-2.3-1.9-5.7-1.8c-5.5,0.2-9,8.6-9,23.5c0,13.4,2.5,20.9,9.9,20.7C246.7,125.6,248.4,124.8,249.4,123.9z"/>
				<path d="M294.7,79l1.8,0.2v47.2l4.7,2.6v1.9h-26.7V129l4.8-2.6V86.7l-5.7-2.3v-1.6L294.7,79z M296.6,66.3c0,5-4.2,8.7-9.1,8.7
					c-5.1,0-9-3.8-9-8.7c0-5,3.9-8.8,9-8.8C292.4,57.5,296.6,61.3,296.6,66.3z"/>
				<path d="M356.4,126.4V86.3l-5.6-2v-1.9l20.5-3.8l2.1,0.2v6h0.6c4.4-3.9,11-6.5,17.5-6.5c8.9,0,12.9,4.2,12.9,13.6v34.5l4.8,2.7
					v1.9h-26.7v-2l4.8-2.6V92.8c0-5.2-2.3-7.2-6.5-7.2c-2.7,0-5,0.7-7,2.2v38.6l4.7,2.6v1.9h-26.7V129L356.4,126.4z"/>
				<path d="M327.4,101.2v-6.7c0-10.1-2.2-13.5-8.5-13.5c-0.7,0-1.4,0.1-2.1,0.2l-11.2,15.1H304V82.4c4.8-1.5,10.8-3.2,18.7-3.2
					c13.7,0,21.6,3.8,21.6,15.2v32.8l4.9,1.3v1.3c-1.9,1.2-5.8,2.3-10.1,2.3c-6.7,0-10-2.2-11.4-5.9h-0.5c-2.9,3.9-6.9,6.1-13.3,6.1
					c-8.1,0-13.6-5.1-13.6-13.8c0-8.5,5.3-13.1,16-15.1L327.4,101.2z M327.4,123.9v-20.3l-3.4,0.3c-5.4,0.5-7.3,3.9-7.3,11.4
					c0,8.2,2.7,10.3,6.5,10.3C325.3,125.6,326.5,125,327.4,123.9z"/>
				<path d="M154.4,101.2v-6.7c0-10.1-2.2-13.5-8.5-13.5c-0.7,0-1.4,0.1-2.1,0.2l-11.2,15.1H131V82.4c4.8-1.5,10.8-3.2,18.7-3.2
					c13.7,0,21.6,3.8,21.6,15.2v32.8l4.9,1.3v1.3c-1.9,1.2-5.8,2.3-10.1,2.3c-6.7,0-10-2.2-11.4-5.9h-0.5c-2.9,3.9-6.9,6.1-13.3,6.1
					c-8.1,0-13.6-5.1-13.6-13.8c0-8.5,5.3-13.1,16-15.1L154.4,101.2z M154.4,123.9v-20.3l-3.4,0.3c-5.4,0.5-7.3,3.9-7.3,11.4
					c0,8.2,2.7,10.3,6.5,10.3C152.3,125.6,153.5,125,154.4,123.9z"/>
			</g>
		</g>
	</g>
</g>
</svg>
