<?xml version="1.0" encoding="utf-8"?>
<!-- Generator: Adobe Illustrator 19.2.1, SVG Export Plug-In . SVG Version: 6.00 Build 0)  -->
<svg version="1.1" id="Layer_1" xmlns="http://www.w3.org/2000/svg" xmlns:xlink="http://www.w3.org/1999/xlink" x="0px" y="0px"
	 viewBox="0 0 397.4 397.4" style="enable-background:new 0 0 397.4 397.4;" xml:space="preserve">
<style type="text/css">
	.st0{opacity:0.4;fill:none;stroke:#FFFFFF;stroke-width:4;stroke-miterlimit:10;}
	.st1{fill:none;stroke:#FFFFFF;stroke-width:4;stroke-miterlimit:10;}
	.st2{opacity:0.38;fill:none;stroke:#FFFFFF;stroke-width:4;stroke-miterlimit:10;}
	.st3{opacity:0.98;fill:none;stroke:#FFFFFF;stroke-width:4;stroke-miterlimit:10;}
	.st4{opacity:0.36;fill:none;stroke:#FFFFFF;stroke-width:4;stroke-miterlimit:10;}
	.st5{opacity:0.96;fill:none;stroke:#FFFFFF;stroke-width:4;stroke-miterlimit:10;}
	.st6{opacity:0.34;fill:none;stroke:#FFFFFF;stroke-width:4;stroke-miterlimit:10;}
	.st7{opacity:0.94;fill:none;stroke:#FFFFFF;stroke-width:4;stroke-miterlimit:10;}
	.st8{opacity:0.32;fill:none;stroke:#FFFFFF;stroke-width:4;stroke-miterlimit:10;}
	.st9{opacity:0.92;fill:none;stroke:#FFFFFF;stroke-width:4;stroke-miterlimit:10;}
	.st10{opacity:0.3;fill:none;stroke:#FFFFFF;stroke-width:4;stroke-miterlimit:10;}
	.st11{opacity:0.9;fill:none;stroke:#FFFFFF;stroke-width:4;stroke-miterlimit:10;}
	.st12{opacity:0.28;fill:none;stroke:#FFFFFF;stroke-width:4;stroke-miterlimit:10;}
	.st13{opacity:0.88;fill:none;stroke:#FFFFFF;stroke-width:4;stroke-miterlimit:10;}
	.st14{opacity:0.26;fill:none;stroke:#FFFFFF;stroke-width:4;stroke-miterlimit:10;}
	.st15{opacity:0.86;fill:none;stroke:#FFFFFF;stroke-width:4;stroke-miterlimit:10;}
	.st16{opacity:0.24;fill:none;stroke:#FFFFFF;stroke-width:4;stroke-miterlimit:10;}
	.st17{opacity:0.84;fill:none;stroke:#FFFFFF;stroke-width:4;stroke-miterlimit:10;}
	.st18{opacity:0.22;fill:none;stroke:#FFFFFF;stroke-width:4;stroke-miterlimit:10;}
	.st19{opacity:0.82;fill:none;stroke:#FFFFFF;stroke-width:4;stroke-miterlimit:10;}
	.st20{opacity:0.18;fill:none;stroke:#FFFFFF;stroke-width:4;stroke-miterlimit:10;}
	.st21{opacity:0.8;fill:none;stroke:#FFFFFF;stroke-width:4;stroke-miterlimit:10;}
	.st22{opacity:0.16;fill:none;stroke:#FFFFFF;stroke-width:4;stroke-miterlimit:10;}
	.st23{opacity:0.78;fill:none;stroke:#FFFFFF;stroke-width:4;stroke-miterlimit:10;}
	.st24{opacity:0.14;fill:none;stroke:#FFFFFF;stroke-width:4;stroke-miterlimit:10;}
	.st25{opacity:0.76;fill:none;stroke:#FFFFFF;stroke-width:4;stroke-miterlimit:10;}
	.st26{opacity:0.12;fill:none;stroke:#FFFFFF;stroke-width:4;stroke-miterlimit:10;}
	.st27{opacity:0.74;fill:none;stroke:#FFFFFF;stroke-width:4;stroke-miterlimit:10;}
	.st28{opacity:0.1;fill:none;stroke:#FFFFFF;stroke-width:4;stroke-miterlimit:10;}
	.st29{opacity:0.72;fill:none;stroke:#FFFFFF;stroke-width:4;stroke-miterlimit:10;}
	.st30{opacity:8.000000e-02;fill:none;stroke:#FFFFFF;stroke-width:4;stroke-miterlimit:10;}
	.st31{opacity:0.7;fill:none;stroke:#FFFFFF;stroke-width:4;stroke-miterlimit:10;}
	.st32{opacity:6.000000e-02;fill:none;stroke:#FFFFFF;stroke-width:4;stroke-miterlimit:10;}
	.st33{opacity:0.68;fill:none;stroke:#FFFFFF;stroke-width:4;stroke-miterlimit:10;}
	.st34{opacity:4.000000e-02;fill:none;stroke:#FFFFFF;stroke-width:4;stroke-miterlimit:10;}
	.st35{opacity:0.66;fill:none;stroke:#FFFFFF;stroke-width:4;stroke-miterlimit:10;}
	.st36{opacity:2.000000e-02;fill:none;stroke:#FFFFFF;stroke-width:4;stroke-miterlimit:10;}
	.st37{opacity:0.64;fill:none;stroke:#FFFFFF;stroke-width:4;stroke-miterlimit:10;}
	.st38{opacity:0;fill:none;stroke:#FFFFFF;stroke-width:4;stroke-miterlimit:10;}
	.st39{opacity:0.62;fill:none;stroke:#FFFFFF;stroke-width:4;stroke-miterlimit:10;}
	.st40{opacity:0.6;fill:none;stroke:#FFFFFF;stroke-width:4;stroke-miterlimit:10;}
	.st41{opacity:0.58;fill:none;stroke:#FFFFFF;stroke-width:4;stroke-miterlimit:10;}
	.st42{opacity:0.56;fill:none;stroke:#FFFFFF;stroke-width:4;stroke-miterlimit:10;}
	.st43{opacity:0.54;fill:none;stroke:#FFFFFF;stroke-width:4;stroke-miterlimit:10;}
	.st44{opacity:0.52;fill:none;stroke:#FFFFFF;stroke-width:4;stroke-miterlimit:10;}
	.st45{opacity:0.5;fill:none;stroke:#FFFFFF;stroke-width:4;stroke-miterlimit:10;}
	.st46{opacity:0.48;fill:none;stroke:#FFFFFF;stroke-width:4;stroke-miterlimit:10;}
	.st47{opacity:0.46;fill:none;stroke:#FFFFFF;stroke-width:4;stroke-miterlimit:10;}
	.st48{opacity:0.44;fill:none;stroke:#FFFFFF;stroke-width:4;stroke-miterlimit:10;}
	.st49{opacity:0.42;fill:none;stroke:#FFFFFF;stroke-width:4;stroke-miterlimit:10;}
</style>
<line class="st0" x1="198.7" y1="387.4" x2="198.7" y2="397.4"/>
<line class="st1" x1="198.7" y1="0" x2="198.7" y2="10"/>
<line class="st2" x1="218.4" y1="386.4" x2="219.5" y2="396.4"/>
<line class="st3" x1="178" y1="1.1" x2="179" y2="11"/>
<line class="st4" x1="238" y1="383.3" x2="240" y2="393.1"/>
<line class="st5" x1="157.4" y1="4.3" x2="159.5" y2="14.1"/>
<line class="st6" x1="257" y1="378.2" x2="260.1" y2="387.7"/>
<line class="st7" x1="137.3" y1="9.7" x2="140.4" y2="19.2"/>
<line class="st8" x1="275.5" y1="371.1" x2="279.5" y2="380.3"/>
<line class="st9" x1="117.9" y1="17.2" x2="122" y2="26.3"/>
<line class="st10" x1="293.1" y1="362.2" x2="298.1" y2="370.8"/>
<line class="st11" x1="99.4" y1="26.6" x2="104.4" y2="35.3"/>
<line class="st12" x1="309.7" y1="351.4" x2="315.5" y2="359.5"/>
<line class="st13" x1="81.9" y1="38" x2="87.8" y2="46"/>
<line class="st14" x1="325" y1="339" x2="331.7" y2="346.4"/>
<line class="st15" x1="65.8" y1="51" x2="72.4" y2="58.5"/>
<line class="st16" x1="339" y1="325" x2="346.4" y2="331.7"/>
<line class="st17" x1="51" y1="65.8" x2="58.5" y2="72.4"/>
<line class="st18" x1="351.4" y1="309.7" x2="359.5" y2="315.5"/>
<line class="st19" x1="38" y1="81.9" x2="46" y2="87.8"/>
<line class="st20" x1="362.2" y1="293.1" x2="370.8" y2="298.1"/>
<line class="st21" x1="26.6" y1="99.4" x2="35.3" y2="104.4"/>
<line class="st22" x1="371.1" y1="275.5" x2="380.3" y2="279.5"/>
<line class="st23" x1="17.2" y1="117.9" x2="26.3" y2="122"/>
<line class="st24" x1="378.2" y1="257" x2="387.7" y2="260.1"/>
<line class="st25" x1="9.7" y1="137.3" x2="19.2" y2="140.4"/>
<line class="st26" x1="383.3" y1="238" x2="393.1" y2="240"/>
<line class="st27" x1="4.3" y1="157.4" x2="14.1" y2="159.5"/>
<line class="st28" x1="386.4" y1="218.5" x2="396.4" y2="219.5"/>
<line class="st29" x1="1.1" y1="177.9" x2="11" y2="179"/>
<line class="st30" x1="387.4" y1="198.7" x2="397.4" y2="198.7"/>
<line class="st31" x1="0" y1="198.7" x2="10" y2="198.7"/>
<line class="st32" x1="386.4" y1="179" x2="396.4" y2="178"/>
<line class="st33" x1="1.1" y1="219.5" x2="11" y2="218.4"/>
<line class="st34" x1="383.3" y1="159.5" x2="393.1" y2="157.4"/>
<line class="st35" x1="4.3" y1="240" x2="14.1" y2="238"/>
<line class="st36" x1="378.2" y1="140.4" x2="387.7" y2="137.3"/>
<line class="st37" x1="9.7" y1="260.1" x2="19.2" y2="257"/>
<line class="st38" x1="371.1" y1="122" x2="380.3" y2="117.9"/>
<line class="st39" x1="17.2" y1="279.5" x2="26.3" y2="275.5"/>
<line class="st38" x1="362.2" y1="104.4" x2="370.8" y2="99.4"/>
<line class="st40" x1="26.6" y1="298.1" x2="35.3" y2="293.1"/>
<line class="st38" x1="351.4" y1="87.8" x2="359.5" y2="81.9"/>
<line class="st41" x1="38" y1="315.5" x2="46" y2="309.6"/>
<line class="st38" x1="339" y1="72.4" x2="346.4" y2="65.8"/>
<line class="st42" x1="51" y1="331.7" x2="58.5" y2="325"/>
<line class="st38" x1="325" y1="58.5" x2="331.7" y2="51"/>
<line class="st43" x1="65.8" y1="346.4" x2="72.4" y2="339"/>
<line class="st38" x1="309.7" y1="46" x2="315.5" y2="38"/>
<line class="st44" x1="81.9" y1="359.5" x2="87.8" y2="351.4"/>
<line class="st38" x1="293.1" y1="35.3" x2="298.1" y2="26.6"/>
<line class="st45" x1="99.4" y1="370.8" x2="104.4" y2="362.2"/>
<line class="st38" x1="275.5" y1="26.3" x2="279.5" y2="17.2"/>
<line class="st46" x1="117.9" y1="380.3" x2="122" y2="371.1"/>
<line class="st38" x1="257" y1="19.2" x2="260.1" y2="9.7"/>
<line class="st47" x1="137.3" y1="387.7" x2="140.4" y2="378.2"/>
<line class="st38" x1="238" y1="14.1" x2="240" y2="4.3"/>
<line class="st48" x1="157.4" y1="393.1" x2="159.5" y2="383.3"/>
<line class="st38" x1="218.5" y1="11" x2="219.5" y2="1.1"/>
<line class="st49" x1="178" y1="396.4" x2="179" y2="386.4"/>
</svg>
