<svg xmlns="http://www.w3.org/2000/svg" xmlns:xlink="http://www.w3.org/1999/xlink" style="enable-background:new 0 0 397.4 397.4" id="Layer_1" x="0" y="0" version="1.1" viewBox="0 0 397.4 397.4" xml:space="preserve"><style type="text/css">.st0{opacity:.4}.st0,.st1,.st2,.st3,.st4,.st5,.st6,.st7,.st8,.st9{fill:none;stroke:#fff;stroke-width:4;stroke-miterlimit:10}.st2{opacity:.38}.st3{opacity:.98}.st4{opacity:.36}.st5{opacity:.96}.st6{opacity:.34}.st7{opacity:.94}.st8{opacity:.32}.st9{opacity:.92}.st10{opacity:.3}.st10,.st11,.st12,.st13,.st14,.st15,.st16,.st17,.st18,.st19{fill:none;stroke:#fff;stroke-width:4;stroke-miterlimit:10}.st11{opacity:.9}.st12{opacity:.28}.st13{opacity:.88}.st14{opacity:.26}.st15{opacity:.86}.st16{opacity:.24}.st17{opacity:.84}.st18{opacity:.22}.st19{opacity:.82}.st20{opacity:.18}.st20,.st21,.st22,.st23,.st24,.st25,.st26,.st27,.st28,.st29{fill:none;stroke:#fff;stroke-width:4;stroke-miterlimit:10}.st21{opacity:.8}.st22{opacity:.16}.st23{opacity:.78}.st24{opacity:.14}.st25{opacity:.76}.st26{opacity:.12}.st27{opacity:.74}.st28{opacity:.1}.st29{opacity:.72}.st30{opacity:8.000000e-02}.st30,.st31,.st32,.st33,.st34,.st35,.st36,.st37,.st38,.st39{fill:none;stroke:#fff;stroke-width:4;stroke-miterlimit:10}.st31{opacity:.7}.st32{opacity:6.000000e-02}.st33{opacity:.68}.st34{opacity:4.000000e-02}.st35{opacity:.66}.st36{opacity:2.000000e-02}.st37{opacity:.64}.st38{opacity:0}.st39{opacity:.62}.st40{opacity:.6}.st40,.st41,.st42,.st43,.st44,.st45,.st46,.st47,.st48,.st49{fill:none;stroke:#fff;stroke-width:4;stroke-miterlimit:10}.st41{opacity:.58}.st42{opacity:.56}.st43{opacity:.54}.st44{opacity:.52}.st45{opacity:.5}.st46{opacity:.48}.st47{opacity:.46}.st48{opacity:.44}.st49{opacity:.42}</style><line x1="198.7" x2="198.7" y1="387.4" y2="397.4" class="st0"/><line x1="198.7" x2="198.7" y1="0" y2="10" class="st1"/><line x1="218.4" x2="219.5" y1="386.4" y2="396.4" class="st2"/><line x1="178" x2="179" y1="1.1" y2="11" class="st3"/><line x1="238" x2="240" y1="383.3" y2="393.1" class="st4"/><line x1="157.4" x2="159.5" y1="4.3" y2="14.1" class="st5"/><line x1="257" x2="260.1" y1="378.2" y2="387.7" class="st6"/><line x1="137.3" x2="140.4" y1="9.7" y2="19.2" class="st7"/><line x1="275.5" x2="279.5" y1="371.1" y2="380.3" class="st8"/><line x1="117.9" x2="122" y1="17.2" y2="26.3" class="st9"/><line x1="293.1" x2="298.1" y1="362.2" y2="370.8" class="st10"/><line x1="99.4" x2="104.4" y1="26.6" y2="35.3" class="st11"/><line x1="309.7" x2="315.5" y1="351.4" y2="359.5" class="st12"/><line x1="81.9" x2="87.8" y1="38" y2="46" class="st13"/><line x1="325" x2="331.7" y1="339" y2="346.4" class="st14"/><line x1="65.8" x2="72.4" y1="51" y2="58.5" class="st15"/><line x1="339" x2="346.4" y1="325" y2="331.7" class="st16"/><line x1="51" x2="58.5" y1="65.8" y2="72.4" class="st17"/><line x1="351.4" x2="359.5" y1="309.7" y2="315.5" class="st18"/><line x1="38" x2="46" y1="81.9" y2="87.8" class="st19"/><line x1="362.2" x2="370.8" y1="293.1" y2="298.1" class="st20"/><line x1="26.6" x2="35.3" y1="99.4" y2="104.4" class="st21"/><line x1="371.1" x2="380.3" y1="275.5" y2="279.5" class="st22"/><line x1="17.2" x2="26.3" y1="117.9" y2="122" class="st23"/><line x1="378.2" x2="387.7" y1="257" y2="260.1" class="st24"/><line x1="9.7" x2="19.2" y1="137.3" y2="140.4" class="st25"/><line x1="383.3" x2="393.1" y1="238" y2="240" class="st26"/><line x1="4.3" x2="14.1" y1="157.4" y2="159.5" class="st27"/><line x1="386.4" x2="396.4" y1="218.5" y2="219.5" class="st28"/><line x1="1.1" x2="11" y1="177.9" y2="179" class="st29"/><line x1="387.4" x2="397.4" y1="198.7" y2="198.7" class="st30"/><line x1="0" x2="10" y1="198.7" y2="198.7" class="st31"/><line x1="386.4" x2="396.4" y1="179" y2="178" class="st32"/><line x1="1.1" x2="11" y1="219.5" y2="218.4" class="st33"/><line x1="383.3" x2="393.1" y1="159.5" y2="157.4" class="st34"/><line x1="4.3" x2="14.1" y1="240" y2="238" class="st35"/><line x1="378.2" x2="387.7" y1="140.4" y2="137.3" class="st36"/><line x1="9.7" x2="19.2" y1="260.1" y2="257" class="st37"/><line x1="371.1" x2="380.3" y1="122" y2="117.9" class="st38"/><line x1="17.2" x2="26.3" y1="279.5" y2="275.5" class="st39"/><line x1="362.2" x2="370.8" y1="104.4" y2="99.4" class="st38"/><line x1="26.6" x2="35.3" y1="298.1" y2="293.1" class="st40"/><line x1="351.4" x2="359.5" y1="87.8" y2="81.9" class="st38"/><line x1="38" x2="46" y1="315.5" y2="309.6" class="st41"/><line x1="339" x2="346.4" y1="72.4" y2="65.8" class="st38"/><line x1="51" x2="58.5" y1="331.7" y2="325" class="st42"/><line x1="325" x2="331.7" y1="58.5" y2="51" class="st38"/><line x1="65.8" x2="72.4" y1="346.4" y2="339" class="st43"/><line x1="309.7" x2="315.5" y1="46" y2="38" class="st38"/><line x1="81.9" x2="87.8" y1="359.5" y2="351.4" class="st44"/><line x1="293.1" x2="298.1" y1="35.3" y2="26.6" class="st38"/><line x1="99.4" x2="104.4" y1="370.8" y2="362.2" class="st45"/><line x1="275.5" x2="279.5" y1="26.3" y2="17.2" class="st38"/><line x1="117.9" x2="122" y1="380.3" y2="371.1" class="st46"/><line x1="257" x2="260.1" y1="19.2" y2="9.7" class="st38"/><line x1="137.3" x2="140.4" y1="387.7" y2="378.2" class="st47"/><line x1="238" x2="240" y1="14.1" y2="4.3" class="st38"/><line x1="157.4" x2="159.5" y1="393.1" y2="383.3" class="st48"/><line x1="218.5" x2="219.5" y1="11" y2="1.1" class="st38"/><line x1="178" x2="179" y1="396.4" y2="386.4" class="st49"/></svg>