<svg xmlns="http://www.w3.org/2000/svg" viewBox="0 0 394.7 234.7"><defs><style>.a{fill:#fff;stroke:#cc2b12;stroke-miterlimit:10;stroke-width:7px;}.b{fill:#005689;}.c{fill:#cc2b12;}</style></defs><title>logo</title><polygon class="a" points="391.2 231.2 180.2 231.2 180.2 74.2 285.7 4.2 391.2 74.2 391.2 231.2"/><path class="b" d="M0,150.93v-3c0-11.32,6.07-16.57,15.3-16.57S30.6,136.65,30.6,148v3c0,11.32-6,16.62-15.3,16.62S0,162.25,0,150.93Zm22.64,1.43v-5.86c0-7.19-3-9.94-7.34-9.94S8,139.3,8,146.49v5.86c0,7.24,3.06,10,7.34,10S22.64,159.6,22.64,152.36Z"/><path class="b" d="M34.94,160.62V143.79H32.64V139H42v19.73c0,2.5,1.12,3.52,3.62,3.52a9.21,9.21,0,0,0,5.2-1.73V143.79H48.5V139h9.33v23.66h2.35v4.44H51v-2.6h-0.2a12.67,12.67,0,0,1-8.47,3.11C37.08,167.65,34.94,165.16,34.94,160.62Z"/><path class="b" d="M64.26,161.08V143.79h-2.7V139h2.7v-5.86h7V139h4.9v4.74h-4.9V160c0,1.89.76,2.7,2.5,2.7h2.4v4.13a17.09,17.09,0,0,1-5.15.71C66.61,167.55,64.26,165.87,64.26,161.08Z"/><path class="b" d="M77.83,166.48V159.9h5.25v2.86a9.64,9.64,0,0,0,3.57.51c3.11,0,4.64-1.33,4.64-3.57,0-2.4-1.33-3.16-3.93-3.82l-2.55-.66C80,154,78,151.39,78,146.8c0-4.95,2.86-8.31,10.66-8.31a24.31,24.31,0,0,1,8.21,1.12V146H91.8v-2.6a9.54,9.54,0,0,0-3.26-.41c-3,0-4.18,1.12-4.18,3.06,0,2.24,1.12,2.91,3.93,3.67l2.5,0.71c4.74,1.28,7.34,3.42,7.34,8.21,0,5.81-3.77,9-11.32,9A31.12,31.12,0,0,1,77.83,166.48Z"/><path class="b" d="M100,162.71h2.45V143.79H100V139h9.49v23.66h2.45v4.44H100v-4.44Zm2.29-31.77h7.19v5.35h-7.19v-5.35Z"/><path class="b" d="M113.93,154.45v-2.5c0-9.43,4.69-13.16,10.35-13.16a12.21,12.21,0,0,1,6.68,1.68h0.2v-5.92h-2.6v-4.69h9.64v32.84h2.29v4.44h-8.57v-2.55h-0.2c-1.73,1.89-4.13,3-7.7,3C117.15,167.55,113.93,163.93,113.93,154.45ZM131.17,161V145.32a6.66,6.66,0,0,0-4.44-1.48c-3.16,0-5.51,1.94-5.51,7.7v3.93c0,5.66,2,7.39,5.2,7.45A6.75,6.75,0,0,0,131.17,161Z"/><path class="b" d="M142.49,154.4v-2.5c0-9,4.9-13.41,12.39-13.41,7.09,0,11.32,3.82,11.32,12.6v3.82H149.63c0.1,5.71,2.91,7.65,7.9,7.65a21.11,21.11,0,0,0,8.06-1.43v4.28a19,19,0,0,1-9.54,2.19C146.78,167.6,142.49,163.22,142.49,154.4Zm7-3.62h10.2V150c0-4.84-1.84-6.53-4.74-6.53S149.48,145.37,149.48,150.77Z"/><path class="c" d="M195.52,164.26H198V145h-2.49v-4.82h9.64v24.05h2.49v4.51H195.52v-4.51ZM197.86,132h7.31v5.44h-7.31V132Z"/><path class="c" d="M209.36,164.26h2.33V145h-2.33v-4.82h9.23v3.06h0.21a12.3,12.3,0,0,1,9-3.63c4.25,0,7.21,2,7.21,6.48v18.14h2.28v4.51h-11.2v-4.51h1.81V148.61c0-2.64-1.19-3.47-3.63-3.47a10.16,10.16,0,0,0-5.39,1.71v17.42h1.76v4.51H209.36v-4.51Z"/><path class="c" d="M192.45,208h1.92l10.21-31.41h8.29L222.93,208h1.87v4.51H211.74V208h2.8l-1.81-6.17H202.09L200.28,208H203v4.51H192.45V208Zm10.94-10.57h8l-3.84-13.27h-0.26Z"/><path class="c" d="M226.36,208h2.33V188.76h-2.33v-4.82h9.23v3h0.21a12,12,0,0,1,8.6-3.52c3.21,0,5.44,1.19,6.43,3.63H251a12.73,12.73,0,0,1,8.86-3.63c4.2,0,6.95,2,6.95,6.58v18h2.28v4.51H258V208h1.66V192.33c0-2.49-1-3.47-3.32-3.47a9.76,9.76,0,0,0-5.08,1.71c0.05,0.52.05,1.19,0.05,1.87V208H253v4.51H242.48V208h1.71V192.33c0-2.44-.93-3.47-3.32-3.47a10.05,10.05,0,0,0-5,1.61V208h1.71v4.51h-11.2V208Z"/><path class="c" d="M271.1,199.54V197c0-9.12,5-13.63,12.6-13.63,7.21,0,11.51,3.89,11.51,12.8v3.89H278.35c0.1,5.81,3,7.78,8,7.78a21.47,21.47,0,0,0,8.19-1.45v4.35a19.3,19.3,0,0,1-9.69,2.23C275.45,213,271.1,208.51,271.1,199.54Zm7.1-3.68h10.37v-0.78c0-4.92-1.87-6.63-4.82-6.63S278.2,190.37,278.2,195.86Z"/><path class="c" d="M297.28,208h2.38V188.76h-2.44v-4.82h9.28v4.35h0.21a9.2,9.2,0,0,1,8-4.51v6.32a13.4,13.4,0,0,0-7.88,2.59V208h2.8v4.51H297.28V208Z"/><path class="c" d="M316.3,208h2.49V188.76H316.3v-4.82h9.64V208h2.49v4.51H316.3V208Zm2.33-32.29h7.31v5.44h-7.31V175.7Z"/><path class="c" d="M330.5,199.85v-2.8c0-9.75,5.65-13.68,13-13.68a30,30,0,0,1,8.92,1.19v8.14h-5.24v-3.89a9.36,9.36,0,0,0-3.11-.47c-3.06,0-6.22,1.66-6.22,7.57v3.47c0,6.43,3.16,8.5,7.88,8.5a15.78,15.78,0,0,0,6.84-1.45v4.35a16.51,16.51,0,0,1-8.92,2.18C335.48,213,330.5,208.2,330.5,199.85Z"/><path class="c" d="M354.87,205.34v-1.4c0-5,3.73-6.95,8.4-7.67l6.48-1V192.7c0-2.75-1.61-3.63-5.65-3.63a27.86,27.86,0,0,0-7.15.93v-4.72a28.84,28.84,0,0,1,10.37-1.92c6.17,0,9.59,2.23,9.59,8.09v14.67c0,1.45.47,1.87,1.61,1.87h0.93v4.15a9.61,9.61,0,0,1-3.68.62c-3.47,0-4.87-1.24-5.18-3.37h-0.21a8.86,8.86,0,0,1-7.52,3.53C357.67,212.91,354.87,210.42,354.87,205.34Zm14.88,1.3v-7.26l-3.78.26c-2.54.16-4.2,1.14-4.2,3.83v1.61c0,2.18,1.35,3.32,3.68,3.32A6.34,6.34,0,0,0,369.75,206.64Z"/></svg>