<svg width="108" height="171" viewBox="0 0 108 171" fill="none" xmlns="http://www.w3.org/2000/svg">
<path d="M50.7641 2.71729C51.3156 2.71729 51.8447 2.93641 52.2347 3.32644C52.6247 3.71648 52.8439 4.24549 52.8439 4.79708V20.278C52.8439 23.1775 51.692 25.9582 49.6418 28.0085C47.5916 30.0587 44.8108 31.2105 41.9113 31.2105V31.2105C41.3597 31.2105 40.8307 30.9914 40.4407 30.6014C40.0507 30.2113 39.8315 29.6823 39.8315 29.1307V13.5684C39.853 10.6831 41.0143 7.92319 43.0622 5.89052C45.1102 3.85784 47.8786 2.71721 50.7641 2.71729V2.71729Z" fill="#827C75"/>
<path d="M78.769 58.8627H53.6306C51.8162 58.8662 50.0189 58.512 48.3416 57.8201C46.6643 57.1282 45.1399 56.1124 43.8557 54.8306C42.5714 53.5489 41.5526 52.0265 40.8574 50.3506C40.1623 48.6746 39.8044 46.8781 39.8044 45.0637V20.7481C39.8044 18.0276 40.3407 15.3339 41.3826 12.8208C42.4245 10.3078 43.9516 8.02483 45.8765 6.10244C47.8014 4.18005 50.0864 2.65597 52.6008 1.61737C55.1152 0.578765 57.8096 0.0460129 60.5301 0.0495783H61.5067C63.7728 0.0472017 66.0171 0.491484 68.1113 1.35702C70.2056 2.22256 72.1087 3.49239 73.7119 5.0939C75.3151 6.69542 76.5869 8.59721 77.4547 10.6906C78.3224 12.7839 78.769 15.0278 78.769 17.2938V58.8627Z" fill="#F5C5A2"/>
<path d="M70.6396 36.7084C70.6396 35.0988 71.117 33.5253 72.0112 32.187C72.9055 30.8486 74.1765 29.8055 75.6636 29.1896C77.1507 28.5736 78.787 28.4124 80.3657 28.7264C81.9444 29.0405 83.3945 29.8156 84.5327 30.9537C85.6708 32.0919 86.4459 33.542 86.76 35.1207C87.074 36.6994 86.9128 38.3357 86.2968 39.8228C85.6809 41.3099 84.6378 42.5809 83.2994 43.4752C81.9611 44.3695 80.3876 44.8468 78.778 44.8468C76.6196 44.8468 74.5495 43.9893 73.0233 42.4631C71.4971 40.9369 70.6396 38.8668 70.6396 36.7084Z" fill="#F5C5A2"/>
<path d="M69.9163 0.00452152H66.2269H52.2923C51.7219 -0.0218945 51.1521 0.0676427 50.6172 0.267719C50.0824 0.467796 49.5938 0.774256 49.1808 1.16857C48.7678 1.56288 48.439 2.03686 48.2144 2.56183C47.9898 3.08681 47.874 3.65189 47.874 4.2229C47.874 4.7939 47.9898 5.35898 48.2144 5.88396C48.439 6.40894 48.7678 6.88291 49.1808 7.27722C49.5938 7.67154 50.0824 7.978 50.6172 8.17807C51.1521 8.37815 51.7219 8.46769 52.2923 8.44127H62.9354C64.5423 8.44127 66.0833 7.80296 67.2195 6.66676C68.3557 5.53057 68.994 3.98955 68.994 2.38273V19.7084C68.9964 22.0555 69.9298 24.3058 71.5895 25.9655C73.2492 27.6252 75.4995 28.5587 77.8467 28.5611H78.7509V8.87532C78.7533 7.71276 78.5267 6.56112 78.084 5.48615C77.6413 4.41118 76.9912 3.43393 76.1708 2.6102C75.3505 1.78647 74.3759 1.13239 73.3027 0.68531C72.2296 0.238226 71.0789 0.00689408 69.9163 0.00452152V0.00452152Z" fill="#827C75"/>
<path d="M53.4768 44.7111H47.2645C46.8549 44.7417 46.4721 44.9259 46.1927 45.227C45.9133 45.528 45.7581 45.9235 45.7581 46.3342C45.7581 46.7449 45.9133 47.1404 46.1927 47.4415C46.4721 47.7425 46.8549 47.9268 47.2645 47.9574H53.4768C53.7001 47.974 53.9245 47.9445 54.1359 47.8704C54.3472 47.7964 54.5411 47.6796 54.7052 47.5272C54.8694 47.3749 55.0003 47.1903 55.0899 46.985C55.1794 46.7797 55.2257 46.5582 55.2257 46.3342C55.2257 46.1102 55.1794 45.8887 55.0899 45.6834C55.0003 45.4781 54.8694 45.2935 54.7052 45.1412C54.5411 44.9888 54.3472 44.872 54.1359 44.798C53.9245 44.724 53.7001 44.6944 53.4768 44.7111Z" fill="#C5957A"/>
<path d="M89.1589 109.275L96.6824 128.527H78.6152V109.565L89.1589 109.275Z" fill="#827C75"/>
<path d="M2.93771 63.4204C3.86224 62.4894 4.96181 61.7506 6.17309 61.2464C7.38438 60.7422 8.68344 60.4827 9.99546 60.4827C11.3075 60.4827 12.6065 60.7422 13.8178 61.2464C15.0291 61.7506 16.1287 62.4894 17.0532 63.4204L19.0697 65.4369L5.08081 79.4258L2.93771 77.5359C2.00677 76.6113 1.26793 75.5118 0.763749 74.3005C0.259566 73.0892 0 71.7902 0 70.4781C0 69.1661 0.259566 67.867 0.763749 66.6558C1.26793 65.4445 2.00677 64.3449 2.93771 63.4204V63.4204Z" fill="#F5C5A2"/>
<path d="M50.4656 62.0006C48.6123 60.1491 46.0998 59.1091 43.4802 59.1091C40.8605 59.1091 38.348 60.1491 36.4948 62.0006L26.1139 72.3454L24.0341 70.3017L10.0542 84.3087L18.9883 93.0801L19.1782 93.2971C21.0314 95.1486 23.5439 96.1886 26.1636 96.1886C28.7833 96.1886 31.2958 95.1486 33.149 93.2971L50.4837 75.9624C52.33 74.1071 53.365 71.5952 53.3616 68.9778C53.3582 66.3603 52.3167 63.8511 50.4656 62.0006V62.0006Z" fill="#827C75"/>
<path d="M34.8038 106.969V159.001H33.5921C32.8508 158.971 32.111 159.091 31.4172 159.354C30.7234 159.617 30.0899 160.017 29.5547 160.531C29.0195 161.045 28.5937 161.662 28.3029 162.344C28.012 163.027 27.8621 163.761 27.8621 164.503C27.8621 165.245 28.012 165.979 28.3029 166.662C28.5937 167.344 29.0195 167.961 29.5547 168.475C30.0899 168.989 30.7234 169.39 31.4172 169.652C32.111 169.915 32.8508 170.036 33.5921 170.005H55.2401L55.1768 134.206H62.9173V159.001H61.5066C60.7653 158.971 60.0255 159.091 59.3317 159.354C58.6379 159.617 58.0044 160.017 57.4692 160.531C56.9341 161.045 56.5083 161.662 56.2174 162.344C55.9265 163.027 55.7766 163.761 55.7766 164.503C55.7766 165.245 55.9265 165.979 56.2174 166.662C56.5083 167.344 56.9341 167.961 57.4692 168.475C58.0044 168.989 58.6379 169.39 59.3317 169.652C60.0255 169.915 60.7653 170.036 61.5066 170.005H83.2089V106.969H34.8038Z" fill="#827C75"/>
<path d="M44.8322 58.7814H57.8083L65.5307 48.292H79.1851V61.8559H79.7728V99.6178C78.7058 100.359 76.8249 102.457 75.2515 106.951H34.804L37.0917 68.7283C37.0917 63.2304 39.3795 58.7814 44.8322 58.7814Z" fill="white"/>
<path d="M19.0607 65.4458L24.0341 70.3378L10.0633 84.3087L5.08081 79.4257L19.0607 65.4458Z" fill="white"/>
<path d="M107.307 93.9027C107.326 92.0767 106.841 90.281 105.906 88.7123L91.6366 63.6191C90.7689 62.1539 89.5366 60.9383 88.0598 60.0905C86.5829 59.2428 84.9118 58.7917 83.2089 58.7813H71.752C69.1457 58.7764 66.6436 59.8041 64.793 61.6394C62.9425 63.4746 61.8942 65.9682 61.8774 68.5744C61.8774 68.5744 61.8774 68.6739 61.8774 68.7191V93.6224C61.9106 97.1613 63.3349 100.545 65.8425 103.043C68.3501 105.54 71.7396 106.95 75.2786 106.969C75.2786 106.969 76.4451 109.827 79.0313 115.397L78.0637 117.486C82.2685 120.958 83.86 123.11 87.3324 118.906L105.047 100.377C106.551 98.5593 107.353 96.2619 107.307 93.9027V93.9027Z" fill="#827C75"/>
<path d="M43.2769 122.188V67.9324C43.2745 66.7315 43.509 65.5419 43.9669 64.4318C44.4248 63.3216 45.0972 62.3127 45.9455 61.4627C46.7938 60.6127 47.8014 59.9383 48.9107 59.4782C50.0199 59.0181 51.209 58.7813 52.4099 58.7813H44.0817C41.6445 58.7763 39.3036 59.7323 37.5668 61.4421C35.83 63.1518 34.8373 65.4774 34.804 67.9143V122.17L43.2769 122.188Z" fill="#827C75"/>
<path d="M72.6021 80.4385C79.6138 80.4385 85.2979 74.7544 85.2979 67.7427C85.2979 60.731 79.6138 55.0469 72.6021 55.0469C65.5904 55.0469 59.9062 60.731 59.9062 67.7427C59.9062 74.7544 65.5904 80.4385 72.6021 80.4385Z" fill="#57BACA"/>
<path d="M72.6955 78.6623L68.3882 78.4351L67.4278 96.6396L71.7351 96.8669L72.6955 78.6623Z" fill="#57BACA"/>
<path d="M73.4908 96.863L77.7981 96.6357L76.8377 78.4312L72.5303 78.6584L73.4908 96.863Z" fill="#57BACA"/>
<path d="M80.5323 67.7427L74.8445 60.2012V63.5017H66.3535V71.9837H74.8445V75.2752L80.5323 67.7427Z" fill="white"/>
<path d="M57.7632 58.8176H50.4658V106.969H57.7632V58.8176Z" fill="#57BACA"/>
<path d="M50.4658 77.4996L57.7632 68.656V58.8176L50.4658 67.7336V77.4996Z" fill="#14142B"/>
<path d="M50.4658 97.1132L57.7632 88.2695V78.4221L50.4658 87.3472V97.1132Z" fill="#14142B"/>
<path d="M50.5198 106.969H57.7629V98.1167L50.5198 106.969Z" fill="#14142B"/>
<path d="M83.1277 158.648H61.5611C60.055 158.648 58.6106 159.246 57.5456 160.311C56.4806 161.376 55.8823 162.821 55.8823 164.327C55.8823 165.833 56.4806 167.277 57.5456 168.342C58.6106 169.407 60.055 170.005 61.5611 170.005H83.1277V166.533V158.648Z" fill="#14142B"/>
<path d="M55.1767 158.648H33.6373C32.1312 158.648 30.6867 159.246 29.6218 160.311C28.5568 161.376 27.9585 162.821 27.9585 164.327C27.9585 165.833 28.5568 167.277 29.6218 168.342C30.6867 169.407 32.1312 170.005 33.6373 170.005H55.1767V166.533V158.648Z" fill="#14142B"/>
</svg>
