<svg xmlns="http://www.w3.org/2000/svg" width="77" height="167" fill="none" viewBox="0 0 77 167"><path fill="#BFB09D" d="M12.9014 0.153809C10.3141 3.39673 9.95895 7.95868 11.6682 12.1655L12.0038 11.8338C12.6747 13.1831 13.7079 14.3191 14.9878 15.1145C16.2677 15.9098 17.7437 16.3332 19.2506 16.3372H30.0292V22.5811C30.0292 29.3791 32.5345 35.2757 39.3482 35.2757L42.4194 32.6728C45.7009 32.6635 48.8455 31.3561 51.1662 29.0361C53.487 26.716 54.7954 23.5719 54.8057 20.2904V12.544C54.7965 9.26147 53.4886 6.11593 51.1679 3.79443C48.8471 1.47293 45.702 0.164105 42.4194 0.153809L12.9014 0.153809Z"/><path fill="#FFC49D" d="M41.8693 7.77515H10.7747V7.82198C9.19411 8.00483 7.73591 8.76228 6.67746 9.95025C5.61902 11.1382 5.03417 12.6738 5.03418 14.2649V20.2356C5.03417 21.238 5.26679 22.2267 5.71372 23.124C6.16064 24.0212 6.80969 24.8025 7.60979 25.4063V46.1088L19.3171 54.9009L38.2283 59.377H47.6292V14.7059L41.8693 7.77515Z"/><path fill="#BFB09D" d="M45.6429 6.92456C39.7893 6.92456 34.9698 12.7041 34.642 18.4953V31.6972L49.6234 39.6504C49.6234 39.6504 51.2937 6.92456 45.6429 6.92456Z"/><path fill="#FFC49D" d="M7.60974 43.0455L15.1688 39.2718L7.60974 25.4065V43.0455Z"/><path fill="#333" d="M45.4204 25.231H0.585327V27.9627H45.4204V25.231Z"/><path fill="#333" d="M0.585327 25.231V28.0407C0.585327 29.9037 1.32539 31.6904 2.64272 33.0077C3.96005 34.325 5.74673 35.0651 7.60971 35.0651C9.47269 35.0651 11.2594 34.325 12.5767 33.0077C13.894 31.6904 14.6341 29.9037 14.6341 28.0407V25.231H0.585327ZM11.9024 28.0407C11.9024 29.1792 11.4501 30.2711 10.6451 31.0761C9.84006 31.8811 8.7482 32.3334 7.60971 32.3334C6.47122 32.3334 5.37936 31.8811 4.57433 31.0761C3.76929 30.2711 3.31703 29.1792 3.31703 28.0407V27.9627H11.9024V28.0407Z"/><path fill="#333" d="M13.1005 25.231V28.0407C13.1005 29.9037 13.8405 31.6904 15.1579 33.0077C16.4752 34.325 18.2619 35.0651 20.1248 35.0651C21.9878 35.0651 23.7745 34.325 25.0918 33.0077C26.4092 31.6904 27.1492 29.9037 27.1492 28.0407V25.231H13.1005ZM24.4175 28.0407C24.4175 29.1792 23.9653 30.2711 23.1602 31.0761C22.3552 31.8811 21.2633 32.3334 20.1248 32.3334C18.9864 32.3334 17.8945 31.8811 17.0895 31.0761C16.2844 30.2711 15.8322 29.1792 15.8322 28.0407V27.9627H24.4175V28.0407Z"/><path fill="#BFB09D" d="M53.0731 155.346H32.3317C30.8827 155.346 29.4931 155.921 28.4685 156.946C27.4439 157.97 26.8683 159.36 26.8683 160.809C26.8683 162.258 27.4439 163.648 28.4685 164.672C29.4931 165.697 30.8827 166.273 32.3317 166.273H53.0731V162.936V155.346Z"/><path fill="#BFB09D" d="M26.2087 155.346H5.46341C4.01442 155.346 2.62478 155.921 1.6002 156.946C0.575607 157.97 0 159.36 0 160.809C0 162.258 0.575607 163.648 1.6002 164.672C2.62478 165.697 4.01442 166.273 5.46341 166.273H26.2087V162.936V155.346Z"/><path fill="#FFC49D" d="M40.0897 32.8719C40.089 31.2623 40.5656 29.6887 41.4594 28.35C42.3531 27.0114 43.6238 25.9679 45.1108 25.3516C46.5977 24.7352 48.234 24.5738 49.8127 24.8876C51.3914 25.2014 52.8416 25.9764 53.9797 27.1146C55.1179 28.2528 55.8929 29.7029 56.2067 31.2816C56.5205 32.8603 56.3591 34.4966 55.7428 35.9836C55.1264 37.4705 54.083 38.7412 52.7443 39.635C51.4057 40.5287 49.832 41.0054 48.2224 41.0046C46.0658 41.0036 43.9978 40.1464 42.4729 38.6215C40.9479 37.0965 40.0908 35.0285 40.0897 32.8719Z"/><path fill="#BFB09D" d="M34.6224 31.6973V39.3226L24 44.2514C23.2315 42.752 22.0642 41.4937 20.6265 40.6151C19.1888 39.7365 17.5366 39.2717 15.8517 39.2719H7.60974V45.6095C7.61794 49.2523 9.06629 52.7441 11.6389 55.3233C14.2115 57.9025 17.6996 59.3597 21.3424 59.3772H42.2087V27.4709L34.6224 31.6973Z"/><path fill="#9C9081" d="M18.5756 45.2932H12.601C12.187 45.2932 11.79 45.4577 11.4972 45.7504C11.2045 46.0432 11.04 46.4402 11.04 46.8542C11.04 47.2682 11.2045 47.6652 11.4972 47.958C11.79 48.2507 12.187 48.4152 12.601 48.4152H18.5756C18.9896 48.4152 19.3867 48.2507 19.6794 47.958C19.9722 47.6652 20.1366 47.2682 20.1366 46.8542C20.1366 46.4402 19.9722 46.0432 19.6794 45.7504C19.3867 45.4577 18.9896 45.2932 18.5756 45.2932Z"/><path fill="#14142D" d="M58.8487 107.853L66.0838 126.366H48.7024V108.126L58.8487 107.853Z"/><path fill="#14142D" d="M26.2088 155.35L26.1581 131.834H33.6039V155.35H53.0732V105.629H6.54443V155.35"/><path fill="#fff" d="M16.1991 59.2992H28.6868L36.1015 49.2075H49.2332V62.2456H49.799V98.5733C48.7727 99.2836 46.9697 101.305 45.4829 105.629H6.54443L8.72589 68.8016C8.72589 63.5529 10.9503 59.2992 16.1991 59.2992Z"/><path fill="#14142D" d="M76.3043 93.0551C76.3261 91.2978 75.8572 89.5693 74.9502 88.0639L61.2292 63.9235C60.3911 62.5223 59.206 61.3607 57.7884 60.5507C56.3707 59.7407 54.7683 59.3096 53.1356 59.2991H42.0956C39.594 59.2948 37.1921 60.2792 35.413 62.0379C33.6339 63.7965 32.6217 66.1869 32.597 68.6883C32.597 68.7352 32.597 68.782 32.597 68.8249V92.7859C32.6298 96.1913 34.0009 99.4472 36.4141 101.85C38.8273 104.253 42.089 105.61 45.4946 105.629C45.4946 105.629 46.6107 108.36 49.1004 113.734L48.1717 115.74C52.2185 119.092 53.7404 121.153 57.0887 117.11L74.1267 99.2483C75.5677 97.5095 76.34 95.3131 76.3043 93.0551Z"/><path fill="#14142D" d="M14.7005 120.271V68.0874C14.6995 65.7583 15.6235 63.5241 17.2693 61.8761C18.9151 60.2281 21.148 59.3011 23.4771 59.2991H15.4771C10.6264 59.2991 6.54443 63.2327 6.54443 68.0874V120.271H14.7005Z"/><path fill="#C70000" d="M28.679 59.2991H21.6547V105.629H28.679V59.2991Z"/></svg>