<svg width="52" height="161" viewBox="0 0 52 161" fill="none" xmlns="http://www.w3.org/2000/svg">
<path d="M21.1551 129.769H9.23315V154.312H21.1551V129.769Z" fill="#FFC49D"/>
<path d="M0.179443 160.321L21.155 143.701V160.321H15.8321V156.84L10.9228 160.321H0.179443Z" fill="#14142D"/>
<path d="M42.4858 129.769H30.2126V154.312H42.4858V129.769Z" fill="#FFC49D"/>
<path d="M21.155 160.321L42.4857 143.701V160.321H36.8116V156.84L31.9023 160.321H21.155Z" fill="#14142D"/>
<path d="M42.4858 96.9731V100.345V138.546H0V96.9731H42.4858Z" fill="#14142D"/>
<path d="M42.9268 53.2854V53.2581H11.2936C4.88585 53.2581 0.183414 57.8239 0 64.4073V96.1536V96.9614H33.7756V103.447H50.7707V61.7615C50.7648 59.6223 49.9551 57.5634 48.5021 55.9933C47.0492 54.4233 45.0591 53.4567 42.9268 53.2854Z" fill="#EE6F00"/>
<path d="M42.4857 112.598C47.1687 112.598 50.7706 108.774 50.7706 104.103V103.459H33.7755V104.103C33.7755 108.774 37.8145 112.598 42.4857 112.598Z" fill="#FFC49D"/>
<path d="M11.2936 53.2581C12.4309 55.2396 14.0709 56.8859 16.048 58.0307C18.0251 59.1756 20.2694 59.7785 22.5541 59.7785C24.8387 59.7785 27.083 59.1756 29.0601 58.0307C31.0372 56.8859 32.6772 55.2396 33.8145 53.2581H11.2936Z" fill="#FFC49D"/>
<path d="M39.6878 6.36255L34.6146 53.2581H17.6312C8.67903 53.2581 3.51221 46.8815 3.51221 38.5732V12.9967L39.6878 6.36255Z" fill="#FFC49D"/>
<path d="M17.6586 43.7128H11.6839C11.1147 43.7128 10.5688 43.4867 10.1662 43.0842C9.76373 42.6817 9.5376 42.1357 9.5376 41.5665C9.5376 40.9973 9.76373 40.4513 10.1662 40.0488C10.5688 39.6463 11.1147 39.4202 11.6839 39.4202H17.6586C18.2278 39.4202 18.7737 39.6463 19.1763 40.0488C19.5788 40.4513 19.8049 40.9973 19.8049 41.5665C19.8049 42.1357 19.5788 42.6817 19.1763 43.0842C18.7737 43.4867 18.2278 43.7128 17.6586 43.7128Z" fill="#E2352D"/>
<path d="M51.0673 13.3675C51.0673 6.29234 45.3658 0.153809 38.2907 0.153809H12.7414C5.79121 0.153809 0.214634 6.08161 0.0195122 12.9967H0V23.7284H19.4341C23.3283 23.1876 26.9068 21.2897 29.5389 18.3692C32.171 15.4486 33.6879 11.6929 33.8224 7.76356V53.3752C42.4585 53.3752 51.0985 49.0552 51.0985 44.7352C51.0985 44.7352 51.0673 13.7811 51.0673 13.3675Z" fill="#662E00"/>
</svg>
