<svg width="58" height="159" viewBox="0 0 58 159" fill="none" xmlns="http://www.w3.org/2000/svg">
<path d="M0 51.7869V83.5058C0 90.9946 5.94731 97.7458 13.4322 97.7458H26.5131V51.7869H0Z" fill="#FFDF51"/>
<path d="M27.8555 128.294H15.9336V152.837H27.8555V128.294Z" fill="#FFC49E"/>
<path d="M6.8761 158.842L27.8556 142.226V158.842H22.5288V155.365L17.6234 158.842H6.8761Z" fill="#14142D"/>
<path d="M48.8311 128.294H36.9092V152.837H48.8311V128.294Z" fill="#FFC49E"/>
<path d="M27.8556 158.842L48.8312 142.226V158.842H43.5083V155.365L38.599 158.842H27.8556Z" fill="#14142D"/>
<path d="M50.3804 86.0776L49.0809 98.8698V135.377H6.8761V86.0776H50.3804Z" fill="#FFDF51"/>
<path d="M18.1697 51.7751C11.6371 51.7751 6.8761 56.5205 6.8761 63.3068V95.8961H49.8029V51.7986L18.1697 51.7751Z" fill="#14142D"/>
<path d="M29.6 62.6668V51.7791H17.8693C11.5434 51.7791 7.16488 56.2278 6.8761 62.6707L29.6 62.6668Z" fill="#14142D"/>
<path d="M49.4946 111.116C51.7469 111.109 53.9052 110.212 55.4978 108.619C57.0905 107.027 57.9879 104.868 57.9941 102.616V101.976H40.9951V102.616C41.0013 104.868 41.8988 107.027 43.4914 108.619C45.084 110.212 47.2423 111.109 49.4946 111.116Z" fill="#F2AF80"/>
<path d="M49.4945 51.7751C49.3774 51.7751 49.2643 51.7751 49.1472 51.7751H24.2848V81.4336C24.2848 88.9185 30.3804 96.099 37.8653 96.099H40.9872V101.953H57.9862V60.2746C57.98 58.0237 57.0837 55.8666 55.4927 54.2742C53.9018 52.6818 51.7455 51.7834 49.4945 51.7751Z" fill="#FFDF51"/>
<path d="M25.7911 0.153809H12.2809C9.54726 0.248711 6.95679 1.39948 5.05381 3.36431C3.15083 5.32914 2.08349 7.95509 2.07605 10.6904V26.1128C2.08429 28.9047 3.19703 31.58 5.17124 33.5542C7.14545 35.5284 9.82068 36.6411 12.6126 36.6494H13.2682C19.0633 36.6494 25.3658 31.9079 25.3658 26.1128L25.7911 0.153809Z" fill="#D6842B"/>
<path d="M46.0721 24.7432H39.3365V51.7753L49.0497 45.6797L46.0721 24.7432Z" fill="#14142D"/>
<path d="M39.3365 14.5071H25.717V51.7714H39.3365V14.5071Z" fill="#FFC49D"/>
<path d="M29.5258 51.6934C40.4526 39.9861 33.7209 21.0241 25.717 14.5071H6.83704V38.7022C6.83704 46.1597 12.8624 51.6817 20.2263 51.6817H29.5258V51.6934Z" fill="#FFC49D"/>
<path d="M32.4956 33.1021C32.4956 29.3401 35.5434 21.1528 39.3054 21.1528C43.0673 21.1528 46.1151 29.3479 46.1151 33.1021C46.1151 34.9081 45.3976 36.6402 44.1206 37.9173C42.8435 39.1944 41.1114 39.9118 39.3054 39.9118C37.4993 39.9118 35.7672 39.1944 34.4901 37.9173C33.2131 36.6402 32.4956 34.9081 32.4956 33.1021Z" fill="#FFC49D"/>
<path d="M50.8136 2.10504C49.0317 0.832476 46.8959 0.150116 44.7063 0.153824H17.8302C12.0351 0.153824 4.88586 4.89528 4.88586 10.6904V24.7392H21.959C26.9307 24.7392 30.4663 20.7704 30.9346 15.8182C38.2595 20.626 43.4224 28.107 43.4224 37.5352C43.4361 42.5622 42.0482 47.4934 39.4146 51.7752C40.4253 51.7947 55.2507 52.5752 55.2507 39.6308V10.3236C55.2535 8.69263 54.8491 7.0868 54.0743 5.65166C53.2995 4.21652 52.1787 2.99747 50.8136 2.10504Z" fill="#D6842B"/>
<path d="M19.122 42.3742H13.1551C12.5859 42.3742 12.04 42.1481 11.6374 41.7456C11.2349 41.3431 11.0088 40.7971 11.0088 40.2279C11.0088 39.6586 11.2349 39.1127 11.6374 38.7102C12.04 38.3077 12.5859 38.0815 13.1551 38.0815H19.122C19.6912 38.0815 20.2371 38.3077 20.6396 38.7102C21.0422 39.1127 21.2683 39.6586 21.2683 40.2279C21.2683 40.7971 21.0422 41.3431 20.6396 41.7456C20.2371 42.1481 19.6912 42.3742 19.122 42.3742Z" fill="#E2352D"/>
</svg>
