<svg xmlns="http://www.w3.org/2000/svg" width="104" height="170" fill="none" viewBox="0 0 104 170"><path fill="#FFB68D" d="M72.7555 12.8601H39.8033C36.7257 16.1936 34.9872 20.546 34.9214 25.0825V48.6727C34.9 51.5822 35.7882 54.4255 37.4619 56.8054C38.8032 58.6738 40.5749 60.1915 42.6271 61.2301C44.6792 62.2687 46.9513 62.7977 49.2511 62.7722H76.1779V25.3791C74.5116 25.0201 72.7711 12.8601 72.7711 12.8601"/><path fill="#FFE9CC" d="M79.7721 12.5675L85.3682 11.1665C81.4423 5.34408 73.095 2.58116 65.8911 4.37237C63.339 5.00868 60.9675 6.22383 58.9604 7.92374C56.9533 9.62365 55.3643 11.7627 54.3165 14.1753"/><path fill="#FFE9CC" d="M77.4228 10.2377C75.6199 3.03381 69.2277 0.871857 62.2579 0.153809L66.4296 12.7704"/><path fill="#FFE9CC" d="M35.4444 12.5675L29.8522 11.1665C33.7546 5.34408 42.1214 2.58116 49.3292 4.37237C51.8811 5.00922 54.2523 6.22458 56.2594 7.92443C58.2664 9.62427 59.8556 11.763 60.9038 14.1753"/><path fill="#FFE9CC" d="M47.0814 3.82983H68.8569C71.7911 3.82983 74.6052 4.99544 76.68 7.07023C78.7547 9.14502 79.9203 11.959 79.9203 14.8932V34.2064H47.0814C43.8543 34.2064 40.7593 32.9244 38.4774 30.6425C36.1955 28.3606 34.9136 25.2657 34.9136 22.0386V15.9976C34.9136 12.7705 36.1955 9.6756 38.4774 7.3937C40.7593 5.11179 43.8543 3.82983 47.0814 3.82983Z"/><path fill="#FFB68D" d="M68.3184 41.0863C68.3231 39.5353 68.7874 38.0205 69.6528 36.7333C70.5182 35.4461 71.7458 34.4444 73.1804 33.8548C74.615 33.2651 76.1922 33.114 77.7126 33.4206C79.2331 33.7272 80.6285 34.4776 81.7225 35.5771C82.8166 36.6766 83.5601 38.0757 83.8591 39.5977C84.1581 41.1196 83.9991 42.696 83.4024 44.1277C82.8056 45.5593 81.7978 46.7819 80.5064 47.6409C79.2149 48.4999 77.6978 48.9567 76.1467 48.9536C75.1155 48.9531 74.0946 48.749 73.1425 48.353C72.1904 47.957 71.3259 47.3768 70.5986 46.6459C69.8713 45.9149 69.2954 45.0475 68.9041 44.0935C68.5129 43.1394 68.3138 42.1175 68.3184 41.0863Z"/><path fill="#CF9475" d="M48.9117 49.2036H42.9254C42.5114 49.2036 42.1143 49.3681 41.8216 49.6608C41.5288 49.9536 41.3644 50.3506 41.3644 50.7646C41.3644 51.1786 41.5288 51.5756 41.8216 51.8684C42.1143 52.1611 42.5114 52.3256 42.9254 52.3256H48.9C49.314 52.3256 49.711 52.1611 50.0038 51.8684C50.2965 51.5756 50.461 51.1786 50.461 50.7646C50.461 50.3506 50.2965 49.9536 50.0038 49.6608C49.711 49.3681 49.314 49.2036 48.9 49.2036"/><path fill="#14142D" d="M85.7662 111.326L93.0013 129.84H75.6199V111.6L85.7662 111.326Z"/><path fill="#FFB68D" d="M2.81217 67.2056C3.70336 66.3136 4.76158 65.6061 5.92635 65.1233C7.09112 64.6406 8.33961 64.3921 9.60046 64.3921C10.8613 64.3921 12.1098 64.6406 13.2746 65.1233C14.4393 65.6061 15.4976 66.3136 16.3887 67.2056L18.34 69.1568L4.87266 82.6046L2.81217 80.786C1.01155 78.985 0 76.5425 0 73.9958C0 71.449 1.01155 69.0066 2.81217 67.2056Z"/><path fill="#14142D" d="M48.5369 65.8435C47.6545 64.9603 46.6066 64.2597 45.4532 63.7817C44.2998 63.3037 43.0635 63.0576 41.815 63.0576C40.5665 63.0576 39.3302 63.3037 38.1768 63.7817C37.0234 64.2597 35.9755 64.9603 35.0931 65.8435L25.1067 75.826L23.1048 73.8747L9.66089 87.303L18.2462 95.7401C18.3087 95.8103 18.3633 95.8806 18.4297 95.9469C20.2129 97.7287 22.6307 98.7296 25.1516 98.7296C27.6725 98.7296 30.0903 97.7287 31.8735 95.9469L48.5525 79.2991C49.436 78.4151 50.1365 77.3656 50.6139 76.2106C51.0913 75.0556 51.3363 73.8179 51.3349 72.5681C51.3334 71.3183 51.0856 70.0811 50.6055 68.9272C50.1254 67.7733 49.4224 66.7255 48.5369 65.8435Z"/><path fill="#14142D" d="M33.4619 109.106V159.162H32.2912C31.5839 159.143 30.8799 159.266 30.2209 159.523C29.5618 159.781 28.9611 160.168 28.454 160.661C27.947 161.155 27.544 161.745 27.2688 162.396C26.9936 163.048 26.8518 163.749 26.8518 164.456C26.8518 165.164 26.9936 165.864 27.2688 166.516C27.544 167.168 27.947 167.758 28.454 168.251C28.9611 168.745 29.5618 169.131 30.2209 169.389C30.8799 169.646 31.5839 169.769 32.2912 169.75H53.1184L53.0716 135.311H60.5175V159.162H59.1633C58.456 159.143 57.7521 159.266 57.0931 159.523C56.434 159.781 55.8332 160.168 55.3262 160.661C54.8191 161.155 54.4161 161.745 54.1409 162.396C53.8657 163.048 53.724 163.749 53.724 164.456C53.724 165.164 53.8657 165.864 54.1409 166.516C54.4161 167.168 54.8191 167.758 55.3262 168.251C55.8332 168.745 56.434 169.131 57.0931 169.389C57.7521 169.646 58.456 169.769 59.1633 169.75H79.9984V109.106H33.4619Z"/><path fill="#fff" d="M43.1165 62.7724H55.6043L63.0385 52.6846H76.1702V65.7148H76.736V102.046C75.7097 102.753 73.9067 104.778 72.4199 109.102H33.4619L35.6434 72.2748C35.6434 67.026 37.8522 62.7724 43.1165 62.7724Z"/><path fill="#fff" d="M18.3166 69.1567L23.1049 73.8592L9.66097 87.3031L4.87268 82.6045L18.3166 69.1567Z"/><path fill="#14142D" d="M103.222 96.5439C103.241 94.7799 102.766 93.0457 101.852 91.5371L88.1311 67.4005C87.2925 65.9977 86.1063 64.8348 84.6872 64.0241C83.2681 63.2134 81.664 62.7822 80.0296 62.7722H69.0131C66.5111 62.769 64.1092 63.7543 62.3302 65.5135C60.5512 67.2728 59.5392 69.6636 59.5145 72.1654C59.5145 72.2083 59.5145 72.2551 59.5145 72.302V96.259C59.5463 99.6651 60.9169 102.922 63.3302 105.326C65.7436 107.73 69.0058 109.088 72.4121 109.106C72.4121 109.106 73.5282 111.838 76.0179 117.211L75.0891 119.217C79.136 122.565 80.6579 124.63 84.0062 120.583L101.044 102.725C102.482 100.989 103.254 98.7977 103.222 96.5439Z"/><path fill="#14142D" d="M41.618 123.744V71.5683C41.617 70.4137 41.8436 69.2703 42.2848 68.2034C42.726 67.1364 43.3733 66.167 44.1895 65.3504C45.0057 64.5338 45.9749 63.8861 47.0416 63.4444C48.1084 63.0027 49.2517 62.7756 50.4063 62.7761H42.3946C37.5439 62.7761 33.4619 66.7098 33.4619 71.5683V123.744H41.618Z"/><path fill="#0084C6" d="M55.5379 62.7722H48.3574V109.102H55.5379V62.7722Z"/></svg>