<svg width="1061" height="639" viewBox="0 0 1061 639" xmlns="http://www.w3.org/2000/svg"><title>Artboard</title><desc>Created with Sketch.</desc><defs><linearGradient x1="75.785%" y1="45.923%" x2="20.25%" y2="59.889%" id="a"><stop stop-color="#AAD801" stop-opacity=".8" offset="0%"/><stop stop-color="#FF008E" stop-opacity=".5" offset="57.065%"/><stop stop-color="#E04293" stop-opacity="0" offset="100%"/></linearGradient><linearGradient x1="44.633%" y1="34.009%" x2="36.28%" y2="57.291%" id="b"><stop stop-color="#E04293" stop-opacity="0" offset="0%"/><stop stop-color="#FF008E" offset="67.582%"/><stop stop-color="#AAD801" offset="100%"/></linearGradient><linearGradient x1="36.281%" y1="-7.397%" x2="31.724%" y2="63.348%" id="c"><stop stop-color="#E04293" stop-opacity="0" offset="0%"/><stop stop-color="#FF008E" offset="83.593%"/><stop stop-color="#AAD801" offset="100%"/></linearGradient><linearGradient x1="31.724%" y1="0%" x2="64.137%" y2="130.627%" id="d"><stop stop-color="#E04293" stop-opacity="0" offset="0%"/><stop stop-color="#FF008E" offset="83.593%"/><stop stop-color="#AAD801" offset="100%"/></linearGradient><linearGradient x1="39.44%" y1="5.253%" x2="8.54%" y2="108.866%" id="e"><stop stop-color="#E04293" stop-opacity="0" offset="0%"/><stop stop-color="#AAD801" offset="63.829%"/><stop stop-color="#FF0072" stop-opacity=".987" offset="100%"/></linearGradient><linearGradient x1="45.338%" y1="5.053%" x2="40.844%" y2="31.832%" id="f"><stop stop-color="#E04293" stop-opacity="0" offset="0%"/><stop stop-color="#E3FF7D" stop-opacity="0" offset="61.768%"/><stop stop-color="#C8FF00" offset="100%"/></linearGradient><linearGradient x1="44.322%" y1="27.435%" x2="11.434%" y2="62.767%" id="g"><stop stop-color="#E04293" stop-opacity="0" offset="0%"/><stop stop-color="#FF008E" offset="67.084%"/><stop stop-color="#FF0072" offset="100%"/></linearGradient></defs><g fill="none"><path d="M266.917 352.04l-41.883 9.653-35.867-22.425-8.841-41.366 23.364-36.076 41.883-9.653 35.867 22.425 8.841 41.366-23.364 36.076zm-76.845-153.273l-41.883 9.653-35.867-22.425-8.841-41.366 23.364-36.076 41.883-9.653 35.867 22.425 8.841 41.366-23.364 36.076zm-53.322 124.921l-41.883 9.653-35.867-22.425-8.841-41.366 23.364-36.076 41.883-9.653 35.867 22.425 8.841 41.366-23.364 36.076zm313.289-67.959l-41.883 9.653-35.867-22.425-8.841-41.366 23.364-36.076 41.883-9.653 35.867 22.425 8.841 41.366-23.364 36.076zm-22.913 268.031l-41.883 9.653-35.867-22.425-8.841-41.366 23.364-36.076 41.883-9.653 35.867 22.425 8.841 41.366-23.364 36.076zm-390.385-85.672l-41.883 9.653-35.867-22.425-8.841-41.366 23.364-36.076 41.883-9.653 35.867 22.425 8.841 41.366-23.364 36.076zm259.967 56.961l-41.883 9.653-35.867-22.425-8.841-41.366 23.364-36.076 41.883-9.653 35.867 22.425 8.841 41.366-23.364 36.076zm-130.167-28.352l-41.883 9.653-35.867-22.425-8.841-41.366 23.364-36.076 41.883-9.653 35.867 22.425 8.841 41.366-23.364 36.076zm230.541-86.304l-41.883 9.653-35.867-22.425-8.841-41.366 23.364-36.076 41.883-9.653 35.867 22.425 8.841 41.366-23.364 36.076zm-76.845-153.273l-41.883 9.653-35.867-22.425-8.841-41.366 23.364-36.076 41.883-9.653 35.867 22.425 8.841 41.366-23.364 36.076z" id="Combined-Shape-Copy-2" fill="url(#a)" opacity=".497"/><path d="M546.003 246.443l44.153-12.654-2.709-5.203-3.238-1.021-35.456 10.161-2.751 8.716zm-1.087 3.444l-.311.984 2.985 5.734 47.376-13.578-3.391-6.513-46.66 13.372zm4.926-15.605l29.163-8.358-10.635-3.353-17.746 9.231-.783 2.48zm-.832 25.049l3.596 6.907 41.548-11.907 2.528-8.009-.296-.569-47.376 13.578zm5.511 9.491l13.189 4.158 18.623-5.337 4.329-2.252 2.404-7.615-38.545 11.047zm57.028-5.274l-11.009 5.726-1.862 5.9 35.412-10.149-13.189-4.158-9.352 2.68zm-38.633 11.073l.004-.002-.006.002zm24.674 3.998l-2.755 8.727 46.65-13.37-3.596-6.907-40.299 11.55zm-59.865 28.228l-2.755 8.727 43.769-12.544-2.491-4.785-4.052-1.277-34.472 9.879zm1.087-3.444l28.179-8.076-9.821-3.096-17.746 9.231-.613 1.941zm56.717-13.122l3.596 6.907 47.376-13.578-3.596-6.907-47.376 13.578zm-61.646 28.738l-.477 1.512 2.966 5.697 47.376-13.578-3.589-6.894-46.276 13.262zm66.661-19.105l3.21 6.166 1.389.438 37.691-10.802 2.749-8.71-45.039 12.908zm98.655 49.188l-2.755 8.727 43.115-12.357-2.121-4.074-5.411-1.706-32.829 9.409zm1.087-3.444l26.536-7.605-8.462-2.668-17.746 9.231-.329 1.042zm-179.071 51.321l29.927-8.577 2.749-8.71-39.45 11.306-.83-2.895 41.367-11.856 1.268-4.016-1.941-3.729-40.807 11.695-.83-2.895 40.217-11.526-3.596-6.907-36.735 10.528-.83-2.895 36.146-10.359-.858-1.649-10.041-3.165-25.36 7.268-.406-1.415-1.017.529-6.019 19.069 9.234 17.736 7.811 2.462zm5.205 1.641l6.062 1.911 15.619-8.124-21.68 6.213zm67.121-22.369l38.201-10.948 2.749-8.71-45.242 12.966 3.325 6.388.966.305zm5.205 1.641l12.906 4.069 17.746-9.231 1.257-3.983-31.909 9.145zm39.794 1.317l-2.182 6.911 40.267-11.54-.508-.976-8.581-2.705-28.997 8.31zm56.244-16.119l-.188.595 2.603 4.999 47.376-13.578-2.848-5.47-46.943 13.454zm-44.308 7.914l6.564-3.414 2.547.803-9.111 2.611zm-91.963 29.489l-2.755 8.727 43.563-12.485-2.374-4.561-4.481-1.413-33.953 9.731zm1.087-3.444l27.661-7.928-9.392-2.961-17.746 9.231-.523 1.658zm75.671-7.484l-1.996 6.324.99 1.902 47.376-13.578-3.596-6.907-42.773 12.259zm-80.6 23.1l-.567 1.795 2.856 5.486 47.376-13.578-3.596-6.907-46.069 13.203zm143.947-41.254l3.596 6.907 42.224-12.101 2.235-7.08-.679-1.304-47.376 13.578zm-62.934 29.107l3.596 6.907 45.071-12.917.999-3.166-2.291-4.401-47.376 13.578zm-77.304 22.155l3.596 6.907 41.776-11.973 2.429-7.696-.425-.817-47.376 13.578zm145.253-41.629l.197.378 12.467 3.93 23.645-6.776.712-.37 2.697-8.544-39.717 11.383zm-62.934 29.107l1.809 3.476 6.552 2.066 31.448-9.013 2.755-8.727-42.565 12.199zm-77.153 22.112l13.189 4.158 20.318-5.823 3.109-1.617 2.503-7.929-39.118 11.211zm157.955-45.269l1.406.443 3.622-1.884-5.027 1.441zm-91.575 37.316l-7.657 2.195-12.229 6.361-6.019 19.069 9.234 17.736 19.078 6.014 17.746-9.231 6.019-19.069-9.234-17.736-16.937-5.339zm24.34-6.976l7.32 2.308 17.746-9.231.09-.287-25.156 7.21zm-72.326 20.728l.475.15 1.225-.637-1.7.487zm-44.149-109.107l3.596 6.907 41.582-11.917 2.513-7.962-.315-.606-47.376 13.578zm72.557-20.795l12.484 3.936 17.746-9.231 1.169-3.703-31.398 8.999zm39.857-.352l-2.755 8.727 40.47-11.599-.623-1.197-10.903-3.437-26.19 7.506zm10.362-6.103l10.622-3.044-2.97-.936-7.652 3.981zm-117.316 36.755l13.189 4.158 18.876-5.41 4.147-2.157 2.419-7.662-38.631 11.071zm66.046-7.858l-7.841 2.247-12.097 6.293-1.774 5.621 34.901-10.002-13.189-4.158zm-91.235 23.015l13.704-3.928-3.832-1.208-9.873 5.136zm128.301-33.638l-1.908 6.045 1.105 2.123 47.376-13.578-3.596-6.907-42.977 12.317zm-84.718 24.28l.072.023.187-.097-.259.074zm64.949-7.544l-40.096 11.491-2.755 8.727 46.447-13.311-3.596-6.907zm20.385-5.842l3.596 6.907 44.868-12.859 1.088-3.446-2.176-4.18-47.376 13.578zm-15.37 15.476l-47.376 13.578 3.596 6.907 47.376-13.578-3.596-6.907zm20.385-5.842l1.694 3.254 6.975 2.199 30.938-8.867 2.755-8.727-42.362 12.141zm13.874 7.094l6.898 2.174 17.746-9.231.002-.007-24.646 7.063z" id="Combined-Shape" fill="url(#b)" opacity=".25"/><path d="M389.362 330.113l-3.283-1.215-5.907 2.715 27.305 17.071-4.554-10.093-13.561-8.478zm11.212 4.151l.475.176.076.169-.551-.345zm-23.038-1.439l-6.063 2.787-.204.54 33.323 20.834 2.216-5.86-29.272-18.301zm-7.142 5.64l-2.216 5.86 32.461 20.295 1.29-.593 1.788-4.728-33.323-20.834zm-3.09 8.173l-1.516 4.01 1.437 3.186 24.1 15.068 6.679-3.07-30.7-19.194zm1.718 11.179l3.331 7.382 14.971 5.542 1.366-.628-19.667-12.296zm-28.542 52.861l-6.679 3.07 29.401 18.382.872-2.306-2.762-6.122-20.832-13.024zm4.514-.037l14.521 9.078-2.006-4.446-12.515-4.633zm-61.112-35.348l-6.679 3.07 31.625 19.772 1.976-5.225-.493-1.093-26.429-16.523zm2.636-1.212l21.996 13.752-4.275-9.474-14.971-5.542-2.75 1.264zm126.562 81.987l-33.26-20.795-.094.043-2.185 5.778 33.323 20.834 2.216-5.86zm.874-2.313l1.913-5.06-.613-1.358-26.134-16.339-6.666 3.064 31.499 19.693zm-52.028-18.252l-21.535-13.464.59-.943-9.817-6.137-3.233 1.486-1.143 3.023 33.323 20.834 1.815-4.799zm46.466 29.051l-32.127-20.086-1.815 4.799 28.472 17.801 5.469-2.514zm-133.762-84.941l-2.216 5.86 33.323 20.834 2.216-5.86-33.323-20.834zm51.284 42.168l-2.216 5.86 30.57 19.113 4.12-1.894.849-2.245-33.323-20.834zm-54.374-33.995l-2.216 5.86 28.346 17.722 6.679-3.07-32.809-20.513zm128.747 80.493l-25.293-15.813 4.554 10.093 7.657 4.787 8.371 3.099 4.711-2.165zm14.758 19.332l-11.238-7.026-5.285-1.956-5.436 2.499 26.513 16.576-4.554-10.093zm-92.221-57.657l-.577 1.527 3.367 7.463 19.34 12.092 6.679-3.07-28.809-18.011zm-52.766-32.989l4.554 10.093 6.727 4.206 9.172 3.395 4.522-2.079-24.976-15.615zm149.349 103.479l-28.957-18.104-6.534 3.003-.048.127 33.323 20.834 2.216-5.86zm-109.395-68.394l-12.336-7.713-4.338-1.606-5.659 2.601 26.888 16.81-4.554-10.093zm17.399 10.878l1.401 3.105 8.741 3.236-10.142-6.341zm88.906 65.689l-33.323-20.834-4.763 12.596 6.565 14.551 14.971 5.542 14.606-6.713 1.944-5.141zm-48.952-30.605l-25.724-16.083-9.639 4.43-5.686 15.036 6.565 14.551 14.97 5.542 14.606-6.713 5.686-15.036-.779-1.726zm-1.797-3.983l-3.989-8.841-14.971-5.542-2.331 1.072 21.291 13.311zm-51.419-29.288l-29.106-18.197-6.311 2.901-5.686 15.036 6.565 14.551 14.97 5.542 14.606-6.713 4.961-13.119zm73.812-64.992l-6.679 3.07 29.564 18.484.953-2.519-2.596-5.754-21.242-13.281zm3.722-.533l15.723 9.83-2.172-4.814-13.551-5.016zm-49.652-18.079l-3.561-1.318-5.842 2.685 27.195 17.002-4.554-10.093-13.238-8.277zm11.212 4.151l.197.073.032.07-.229-.143zm25.404 18.742l-2.989 1.374-1.224 3.237 33.323 20.834 2.216-5.86-31.326-19.585zm-48.654-20.314l-6.129 2.817-.183.483 33.323 20.834 2.216-5.86-29.228-18.273zm43.566 27.238l-2.216 5.86 30.407 19.011 4.364-2.006.768-2.031-33.323-20.834zm-50.752-21.626l-2.216 5.86 32.505 20.322 1.224-.563 1.81-4.786-33.323-20.834zm47.662 29.798l-.497 1.313 3.533 7.831 18.93 11.835 6.679-3.07-28.646-17.91zm-50.752-21.626l-1.538 4.068 1.393 3.087 24.21 15.136 6.679-3.07-30.744-19.221zm55.586 34.753l1.235 2.737 7.704 2.852-8.939-5.589zm-53.934-23.615l3.375 7.481 14.971 5.542 1.431-.658-19.777-12.365zm92.091 54.716l-4.155-9.209-14.971-5.542-2.575 1.184 21.701 13.567zm-100.086 64.296l5.686-15.036-6.565-14.551-14.97-5.542-14.606 6.713-5.686 15.036 6.565 14.551 14.97 5.542 14.606-6.713z" id="Combined-Shape" fill="url(#c)" opacity=".1"/><path d="M771.877 333.457l-8.875 4.32-3.276 9.484 4.243 9.093 9.276 3.375 8.875-4.32 3.276-9.484-4.243-9.093-9.276-3.375zm7.81 40.152l-8.875 4.32-3.276 9.484 4.243 9.093 9.276 3.375 8.875-4.32 3.276-9.484-4.243-9.093-9.276-3.375zm-27.171-15.729l-8.875 4.32-3.276 9.484 4.243 9.093 9.276 3.375 8.875-4.32 3.276-9.484-4.243-9.093-9.276-3.375zm65.792-33.112l-8.875 4.32-3.276 9.484 4.243 9.093 9.276 3.375 8.875-4.32 3.276-9.484-4.243-9.093-9.276-3.375zm-41.881-47.16l-8.875 4.32-3.276 9.484 4.243 9.093 9.276 3.375 8.875-4.32 3.276-9.484-4.243-9.093-9.276-3.375zm-57.976 73.369l-8.875 4.32-3.276 9.484 4.243 9.093 9.276 3.375 8.875-4.32 3.276-9.484-4.243-9.093-9.276-3.375zm38.621-48.841l-8.875 4.32-3.276 9.484 4.243 9.093 9.276 3.375 8.875-4.32 3.276-9.484-4.243-9.093-9.276-3.375zm-19.361 24.423l-8.875 4.32-3.276 9.484 4.243 9.093 9.276 3.375 8.875-4.32 3.276-9.484-4.243-9.093-9.276-3.375zm53.529-17.525l-8.875 4.32-3.276 9.484 4.243 9.093 9.276 3.375 8.875-4.32 3.276-9.484-4.243-9.093-9.276-3.375zm7.81 40.152l-8.875 4.32-3.276 9.484 4.243 9.093 9.276 3.375 8.875-4.32 3.276-9.484-4.243-9.093-9.276-3.375z" fill="url(#d)" opacity=".403"/><path d="M103.809 262.836l-3.36-.982-5.702 3.123 28.434 15.113-5.25-9.748-14.122-7.506zm11.475 3.354l.486.142.088.163-.574-.305zm-23.081.181l-5.852 3.205-.166.553 34.701 18.444 1.799-6.001-30.482-16.201zm-6.728 6.126l-1.799 6.001 33.803 17.967 1.245-.682 1.452-4.842-34.701-18.444zm-2.509 8.369l-1.231 4.107 1.657 3.077 25.096 13.339 6.447-3.531-31.969-16.992zm2.498 11.03l3.84 7.13 15.322 4.478 1.318-.722-20.48-10.885zm-24.762 54.73l-6.447 3.531 30.617 16.273.708-2.361-3.185-5.913-21.693-11.53zm4.5-.354l15.121 8.037-2.313-4.294-12.808-3.743zm-63.438-30.972l-6.447 3.531 32.932 17.504 1.604-5.351-.569-1.056-27.521-14.628zm2.544-1.393l22.905 12.174-4.929-9.15-15.322-4.478-2.655 1.454zm131.995 72.902l-34.635-18.409-.09.05-1.774 5.917 34.701 18.444 1.799-6.001zm.71-2.368l1.554-5.181-.707-1.312-27.214-14.465-6.434 3.524 32.801 17.434zm-53.177-14.556l-22.425-11.919.522-.982-10.222-5.433-3.121 1.709-.928 3.096 34.701 18.444 1.473-4.914zm48.386 25.718l-33.455-17.782-1.473 4.914 29.649 15.759 5.279-2.891zm-139.383-75.343l-1.799 6.001 34.701 18.444 1.799-6.001-34.701-18.444zm54.113 38.464l-1.799 6.001 31.834 16.92 3.977-2.178.689-2.299-34.701-18.444zm-56.622-30.095l-1.799 6.001 29.518 15.689 6.447-3.531-34.166-18.159zm134.069 71.259l-26.339-13.999 5.25 9.748 7.973 4.238 8.568 2.504 4.547-2.49zm16.077 18.248l-11.702-6.22-5.409-1.581-5.247 2.874 27.609 14.675-5.25-9.748zm-96.033-51.043l-.469 1.564 3.882 7.208 20.139 10.704 6.447-3.531-29.999-15.945zm-54.947-29.205l5.25 9.748 7.006 3.723 9.388 2.743 4.365-2.391-26.009-13.824zm156.231 92.741l-30.154-16.027-6.307 3.454-.039.13 34.701 18.444 1.799-6.001zm-113.917-60.548l-12.846-6.828-4.44-1.298-5.462 2.991 27.999 14.882-5.25-9.748zm18.118 9.63l1.615 2.999 8.945 2.614-10.561-5.613zm93.29 59.287l-34.701-18.444-3.867 12.898 7.57 14.053 15.322 4.478 14.098-7.721 1.578-5.265zm-50.976-27.094l-26.788-14.238-9.304 5.095-4.616 15.397 7.57 14.053 15.322 4.478 14.098-7.721 4.616-15.397-.898-1.667zm-2.072-3.847l-4.599-8.539-15.322-4.478-2.25 1.232 22.171 11.784zm-53.344-25.607l-30.309-16.109-6.092 3.336-4.616 15.397 7.57 14.053 15.322 4.478 14.098-7.721 4.028-13.434zm69.066-70.006l-6.447 3.531 30.786 16.363.773-2.58-2.993-5.557-22.12-11.757zm3.675-.792l16.373 8.702-2.504-4.649-13.868-4.053zm-50.795-14.55l-3.645-1.065-5.639 3.088 28.319 15.052-5.25-9.748-13.785-7.327zm11.475 3.354l.202.059.036.068-.238-.127zm26.654 16.913l-2.885 1.58-.994 3.315 34.701 18.444 1.799-6.001-32.62-17.338zm-49.957-16.85l-5.916 3.24-.148.494 34.701 18.444 1.799-6.001-30.436-16.177zm45.367 24.113l-1.799 6.001 31.664 16.83 4.212-2.307.624-2.08-34.701-18.444zm-52.141-18.011l-1.799 6.001 33.849 17.991 1.182-.647 1.469-4.901-34.701-18.444zm49.632 26.38l-.403 1.345 4.074 7.563 19.713 10.478 6.447-3.531-29.83-15.855zm-52.141-18.011l-1.249 4.165 1.606 2.981 25.211 13.4 6.447-3.531-32.014-17.016zm57.884 30.766l1.424 2.643 7.885 2.304-9.309-4.948zm-55.455-19.772l3.892 7.225 15.322 4.478 1.381-.757-20.595-10.946zm95.697 48.118l-4.791-8.895-15.322-4.478-2.485 1.361 22.598 12.011zm-95.323 71.155l4.616-15.397-7.57-14.053-15.322-4.478-14.098 7.721-4.616 15.397 7.57 14.053 15.322 4.478 14.098-7.721z" id="Combined-Shape" fill="url(#c)" opacity=".1"/><path d="M288.667 292.804l.121 3.078 19.22 17.431 31.612 11.489 26.74-1.305 1.699-1.839-79.393-28.854zm-.352-8.935l85.837 31.196 9.302-10.067-95.678-34.772.538 13.644zm278.757 101.309l51.609 18.756 15.368-.75 4.92-5.325-82.8-30.092.308 7.802 10.595 9.608zm16.205 14.696l6.056 5.492 7.984-.389-14.039-5.102zm-160.984-67.313l79.526 28.902 9.302-10.067-89.367-32.479.538 13.644zm10.415 12.592l22.569 20.467 29.754-1.452-52.323-19.016zm-51.508 25.853l-32.699 1.595 75.504 27.44-24.803-22.493-18.002-6.542zm112.712 40.963l-13.558.661-5.458 5.907 83.369 30.299-.339-8.591-9.221-8.363-54.793-19.913zm21.365-1.042l17.223 6.259-7.429-6.737-9.794.478zm-174.14-32.195l-9.324 10.091 93.366 33.932-.539-13.675-83.503-30.347zm127.668 46.399l-9.324 10.091 99.677 36.226-.539-13.675-89.813-32.641zm-182.924-69.104l-28.077-25.462-44.716 2.182-30.383 32.881 1.748 44.32 32.856 29.796 44.716-2.182 30.383-32.881-1.747-44.293-5.622-2.043.842-2.317zm39.84 39.389l-9.324 10.091 109.139 39.664.506-.547-.51-12.933-99.81-36.274zm127.668 46.399l-3.417 3.698.342 8.663 102.89 37.394 6.471-7.004-.165-4.184-106.121-38.568zm-136.702-27.396l1.399 35.471 32.856 29.796 44.716-2.182 23.785-25.741-102.757-37.345zm133.979 48.692l1.054 26.722 32.856 29.796 44.716-2.182 17.82-19.285-96.446-35.051zm156.829-165.833l-22.383 1.092-2.942 3.184 80.707 29.331-.193-4.9-15.915-14.433-39.274-14.273zm21.365-1.042l1.704.619-.735-.667-.969.047zm-133.649-39.765l-32.699 1.595 58.492 21.258-24.803-22.493-.99-.36zm80.868 51.676l-9.324 10.091 97.015 35.258-.539-13.675-87.151-31.674zm-127.847-46.464l-9.324 10.091 90.448 32.872-.539-13.675-80.585-29.287zm-119.797-43.538l-11.011.537-6.184 6.693 84.137 30.578-.381-9.656-7.29-6.611-59.271-21.541zm21.365-1.042l21.701 7.887-9.361-8.489-12.341.602zm210.864 107.727l-5.934 6.422.196 4.973 105.552 38.361 3.955-4.28-.311-7.874-103.459-37.6zm-127.847-46.464l-9.324 10.091 106.756 38.798-.539-13.675-96.892-35.214zm-127.668-46.399l-9.324 10.091 100.445 36.505-.539-13.675-90.582-32.92zm250.13 113.191l.539 13.675 89.244 32.434 9.324-10.091-99.108-36.019zm-134.414-48.85l.539 13.675 95.811 34.821 9.324-10.091-105.675-38.405zm-131.132-47.657l-2.691 2.912.384 9.728 102.122 37.114 7.198-7.789-.123-3.119-106.889-38.847zm-18.088 251.293l-32.856-29.796-44.716 2.182-30.383 32.881 1.748 44.32 32.856 29.796 44.716-2.182 30.383-32.881-1.748-44.32zm267.073 79.469l-32.856-29.796-44.716 2.182-30.383 32.881 1.748 44.32 32.856 29.796 44.716-2.182 30.383-32.881-1.748-44.32zm-133.439-39.526l-32.856-29.796-44.716 2.182-30.383 32.881 1.748 44.32 32.856 29.796 44.716-2.182 30.383-32.881-1.748-44.32z" id="Combined-Shape" fill="url(#e)" opacity=".333"/><path d="M-513.295 454.726l31.239-22.749 161.748 145.654-5.982 42.199-2.022 1.473-184.982-166.577zm-12.329 8.978l184.982 166.577-65.991 48.056-99.67-15.663-60.613-80.657 13.95-98.403 27.341-19.91zm59.345-37.599l68.446 10.756 67.872 61.119 17.62 23.447-5.444 38.398-148.495-133.72zm243.565 148.37l-36.351-48.371 4.431-31.252 138.669 124.871-68.446-10.756-38.303-34.492zm-29.396-97.431l6.397-45.12 182.656 164.482-31.239 22.749-157.814-142.111zm-210.572-260.58l6.397-45.12 172.218 155.082-22.599 16.457-18.931-2.975-137.084-123.444zm-2.524 17.807l112.596 101.393-53.726-8.443-60.613-80.657 1.743-12.294zm229.496 186.581l31.239-22.749 184.982 166.577-31.239 22.749-184.982-166.577zm-218.051-267.314l.762-5.376 27.456-19.994 184.982 166.577-31.178 22.704-182.022-163.911zm261.618 235.588l27.37-19.931 8.344 1.311 146.682 132.088-6.384 45.031-176.012-158.499zm553.817 2.194l6.397-45.12 167.613 150.936-16.808 12.24-31.618-4.969-125.583-113.087zm-2.524 17.807l101.095 91.036-41.039-6.449-60.613-80.657.557-3.93zm-697.618-628.206l113.286 102.014-6.384 45.031-153.681-138.39-9.985 11.088 161.141 145.108-3.228 22.77-15.474 11.269-160.123-144.191-9.985 11.088 157.779 142.081-31.239 22.749-144.224-129.874-9.985 11.088 141.881 127.764-8.971 6.533-48.79-7.667-101.804-91.674-6.519 7.24-3.169-4.218 13.95-98.403 80.342-58.506 45.183 7.1zm27.013 4.245l27.475 4.318 47.476 63.176-74.951-67.493zm253.947 248.76l148.109 133.372-6.384 45.031-176.583-159.013 28.088-20.454 6.77 1.064zm27.013 4.245l65.887 10.354 60.613 80.657-2.879 20.31-123.621-111.321zm182.415 79.921l4.714-33.251 157.306 141.654-3.847 2.802-42.012-6.602-116.161-104.603zm220.359 198.433l.265-1.871 21.726-15.821 184.982 166.577-23.022 16.765-183.952-165.649zm-183.7-131.958l21.843 29.067 12.641 1.986-34.484-31.053zm-354.125-338.97l6.397-45.12 171.248 154.209-21.379 15.569-21.604-3.395-134.661-121.263zm-2.524 17.807l110.173 99.211-51.054-8.023-60.613-80.657 1.493-10.532zm327.228 203.63l4.602-32.46 8.765-6.383 184.982 166.577-31.239 22.749-167.11-150.483zm-315.783-284.363l1.012-7.138 26.297-19.15 184.982 166.577-31.239 22.749-181.052-163.037zm563.223 507.183l31.239-22.749 166.213 149.675-4.833 34.089-7.637 5.561-184.982-166.577zm-221.745-270.641l31.239-22.749 176.52 158.956-2.179 15.369-20.598 15-184.982-166.577zm-301.841-271.808l31.239-22.749 162.578 146.402-5.769 40.691-3.066 2.233-184.982-166.577zm567.154 510.722l2.719-1.98 62.488 9.82 97.598 87.887-6.397 45.12-156.409-140.846zm-221.745-270.641l15.68-11.419 34.09 5.357 123.342 111.069-6.397 45.12-166.716-150.128zm-299.636-269.822l68.446 10.756 74.111 66.737 13.669 18.189-5.657 39.905-150.568-135.587zm613.6 552.548l10.169 1.598 17.572 23.383-27.741-24.981zm-331.733-369.686l-32.064-28.874-40.303-53.63 13.95-98.403 80.342-58.506 99.67 15.663 60.613 80.657-13.95 98.403-80.342 58.506-87.916-13.816zm94.551 85.144l38.567 6.061 60.613 80.657-.326 2.301-98.854-89.018zm-280.96-253.005l.154.024.267.355-.421-.379zm-437.458 386.525l31.239-22.749 161.657 145.572-6.006 42.365-1.907 1.389-184.982-166.577zm283.798 255.56l64.314 10.107 60.613 80.657-2.732 19.273-122.194-110.036zm179.305 90.505l6.397-45.12 157.877 142.168-4.566 3.325-58.443-9.184-101.265-91.189zm35.475 52.025l24.563 32.685 14.215 2.234-38.778-34.919zm-451.425-426.589l68.446 10.756 67.185 60.5 18.056 24.026-5.42 38.232-148.267-133.514zm280.571 181.695l-34.009-30.625-39.07-51.99 4.284-30.215 137.242 123.587-68.446-10.756zm-373.082-315.88l65.109 58.631-23.867-3.751-41.242-54.88zm517.382 445.823l4.455-31.422 9.483-6.906 184.982 166.577-31.239 22.749-167.681-150.997zm-53.33-118.983l-157.243-141.597 6.397-45.12 182.085 163.968-31.239 22.749zm79.596 71.677l31.239-22.749 175.949 158.442-2.326 16.407-19.88 14.477-184.982-166.577zm-36.029-103.403l-184.982-166.577 31.239-22.749 184.982 166.577-31.239 22.749zm79.596 71.677l14.962-10.895 35.664 5.604 121.915 109.785-6.397 45.12-166.144-149.613zm77.638-1.046l36.993 5.813 60.613 80.657-.179 1.263-97.427-87.733z" fill-opacity=".9" fill="url(#f)"/><path d="M584.982 364.11l-5.97-35.652-29.445-20.998-35.672 5.956-21.002 29.421 5.97 35.652 29.445 20.998 35.672-5.956 21.002-29.421zm-146.513-12.304l-5.97-35.652-29.445-20.998-35.672 5.956-21.002 29.421 5.97 35.652 29.445 20.998 35.672-5.956 21.002-29.421zm81.696-80.373l-5.97-35.652-29.445-20.998-35.672 5.956-21.002 29.421 5.97 35.652 29.445 20.998 35.672-5.956 21.002-29.421zm48.022 265.361l-5.97-35.652-29.445-20.998-35.672 5.956-21.002 29.421 5.97 35.652 29.445 20.998 35.672-5.956 21.002-29.421zm205.048-101.116l-5.97-35.652-29.445-20.998-35.672 5.956-21.002 29.421 5.97 35.652 29.445 20.998 35.672-5.956 21.002-29.421zm-194.9-277.749l-5.97-35.652-29.445-20.998-35.672 5.956-21.002 29.421 5.97 35.652 29.445 20.998 35.672-5.956 21.002-29.421zm129.718 184.988l-5.97-35.652-29.445-20.998-35.672 5.956-21.002 29.421 5.97 35.652 29.445 20.998 35.672-5.956 21.002-29.421zm-64.817-92.677l-5.97-35.652-29.445-20.998-35.672 5.956-21.002 29.421 5.97 35.652 29.445 20.998 35.672-5.956 21.002-29.421zm6.563 206.546l-5.97-35.652-29.445-20.998-35.672 5.956-21.002 29.421 5.97 35.652 29.445 20.998 35.672-5.956 21.002-29.421zm-146.513-12.304l-5.97-35.652-29.445-20.998-35.672 5.956-21.002 29.421 5.97 35.652 29.445 20.998 35.672-5.956 21.002-29.421z" fill="url(#g)" opacity=".5"/></g></svg>