<?xml version="1.0" encoding="UTF-8" standalone="no"?>
<svg width="1061px" height="639px" viewBox="0 0 1061 639" version="1.1" xmlns="http://www.w3.org/2000/svg" xmlns:xlink="http://www.w3.org/1999/xlink">
    <!-- Generator: Sketch 47.1 (45422) - http://www.bohemiancoding.com/sketch -->
    <title>Artboard</title>
    <desc>Created with Sketch.</desc>
    <defs>
        <linearGradient x1="75.7849368%" y1="45.9225507%" x2="20.2503969%" y2="59.889018%" id="linearGradient-1">
            <stop stop-color="#AAD801" stop-opacity="0.8" offset="0%"></stop>
            <stop stop-color="#FF008E" stop-opacity="0.5" offset="57.0647428%"></stop>
            <stop stop-color="#E04293" stop-opacity="0" offset="100%"></stop>
        </linearGradient>
        <linearGradient x1="44.6332761%" y1="34.0087866%" x2="36.2801771%" y2="57.2912392%" id="linearGradient-2">
            <stop stop-color="#E04293" stop-opacity="0" offset="0%"></stop>
            <stop stop-color="#FF008E" offset="67.5818587%"></stop>
            <stop stop-color="#AAD801" offset="100%"></stop>
        </linearGradient>
        <linearGradient x1="36.2809552%" y1="-7.39665154%" x2="31.7239612%" y2="63.3480506%" id="linearGradient-3">
            <stop stop-color="#E04293" stop-opacity="0" offset="0%"></stop>
            <stop stop-color="#FF008E" offset="83.5933667%"></stop>
            <stop stop-color="#AAD801" offset="100%"></stop>
        </linearGradient>
        <linearGradient x1="31.7239612%" y1="0%" x2="64.137129%" y2="130.627441%" id="linearGradient-4">
            <stop stop-color="#E04293" stop-opacity="0" offset="0%"></stop>
            <stop stop-color="#FF008E" offset="83.5933667%"></stop>
            <stop stop-color="#AAD801" offset="100%"></stop>
        </linearGradient>
        <linearGradient x1="39.4396783%" y1="5.25259046%" x2="8.53950784%" y2="108.865636%" id="linearGradient-5">
            <stop stop-color="#E04293" stop-opacity="0" offset="0%"></stop>
            <stop stop-color="#AAD801" offset="63.8292718%"></stop>
            <stop stop-color="#FF0072" stop-opacity="0.987007473" offset="100%"></stop>
        </linearGradient>
        <linearGradient x1="45.3384336%" y1="5.05301788%" x2="40.8436979%" y2="31.8317495%" id="linearGradient-6">
            <stop stop-color="#E04293" stop-opacity="0" offset="0%"></stop>
            <stop stop-color="#E3FF7D" stop-opacity="0" offset="61.7680939%"></stop>
            <stop stop-color="#C8FF00" offset="100%"></stop>
        </linearGradient>
        <linearGradient x1="44.3216811%" y1="27.4349567%" x2="11.4341815%" y2="62.7667593%" id="linearGradient-7">
            <stop stop-color="#E04293" stop-opacity="0" offset="0%"></stop>
            <stop stop-color="#FF008E" offset="67.0838648%"></stop>
            <stop stop-color="#FF0072" offset="100%"></stop>
        </linearGradient>
    </defs>
    <g id="Page-1" stroke="none" stroke-width="1" fill="none" fill-rule="evenodd">
        <g id="Artboard">
            <g id="Group" transform="translate(-842.000000, -634.000000)">
                <path d="M1065.68553,952.470574 L1105.51865,968.60199 L1122.01807,1007.54667 L1105.51865,1046.49136 L1065.68553,1062.62277 L1025.8524,1046.49136 L1009.35298,1007.54667 L1025.8524,968.60199 L1065.68553,952.470574 Z M1040.64884,1122.06999 L1080.48196,1138.20141 L1096.98138,1177.14609 L1080.48196,1216.09078 L1040.64884,1232.22219 L1000.81572,1216.09078 L984.316295,1177.14609 L1000.81572,1138.20141 L1040.64884,1122.06999 Z M1155.99643,1050.38364 L1195.82956,1066.51506 L1212.32898,1105.45974 L1195.82956,1144.40442 L1155.99643,1160.53584 L1116.16331,1144.40442 L1099.66389,1105.45974 L1116.16331,1066.51506 L1155.99643,1050.38364 Z M860.474112,926.24386 L900.307237,942.375276 L916.806658,981.31996 L900.307237,1020.26464 L860.474112,1036.39606 L820.640988,1020.26464 L804.141567,981.31996 L820.640988,942.375276 L860.474112,926.24386 Z M1033.04842,719.927041 L1072.88154,736.058458 L1089.38096,775.003141 L1072.88154,813.947825 L1033.04842,830.079241 L993.215293,813.947825 L976.715872,775.003141 L993.215293,736.058458 L1033.04842,719.927041 Z M1303.53405,1014.10335 L1343.36717,1030.23477 L1359.8666,1069.17945 L1343.36717,1108.12414 L1303.53405,1124.25555 L1263.70093,1108.12414 L1247.20151,1069.17945 L1263.70093,1030.23477 L1303.53405,1014.10335 Z M1123.35932,818.27722 L1163.19245,834.408636 L1179.69187,873.35332 L1163.19245,912.298003 L1123.35932,928.429419 L1083.5262,912.298003 L1067.02678,873.35332 L1083.5262,834.408636 L1123.35932,818.27722 Z M1213.67023,916.190286 L1253.50335,932.321702 L1270.00277,971.266386 L1253.50335,1010.21107 L1213.67023,1026.34249 L1173.8371,1010.21107 L1157.33768,971.266386 L1173.8371,932.321702 L1213.67023,916.190286 Z M975.374621,854.557508 L1015.20775,870.688924 L1031.70717,909.633608 L1015.20775,948.578291 L975.374621,964.709707 L935.541496,948.578291 L919.042076,909.633608 L935.541496,870.688924 L975.374621,854.557508 Z M950.337934,1024.15693 L990.171059,1040.28834 L1006.67048,1079.23303 L990.171059,1118.17771 L950.337934,1134.30913 L910.50481,1118.17771 L894.005389,1079.23303 L910.50481,1040.28834 L950.337934,1024.15693 Z" id="Combined-Shape-Copy-2" fill="url(#linearGradient-1)" opacity="0.497452446" transform="translate(1082.004081, 976.074617) rotate(145.000000) translate(-1082.004081, -976.074617) "></path>
                <path d="M1572.64533,1049.6548 L1581.41115,1004.55856 L1586.83112,1006.8047 L1588.12992,1009.94184 L1581.09083,1046.15482 L1572.64533,1049.6548 Z M1569.30804,1051.03783 L1568.35466,1051.43293 L1562.38104,1048.95735 L1571.78659,1000.56996 L1578.57144,1003.38173 L1569.30804,1051.03783 Z M1584.42812,1044.77178 L1590.218,1014.98542 L1594.48432,1025.29032 L1586.83112,1043.77594 L1584.42812,1044.77178 Z M1559.54133,1047.78052 L1552.34593,1044.79861 L1560.59444,1002.36368 L1568.35466,999.147703 L1568.94689,999.393135 L1559.54133,1047.78052 Z M1549.60468,1043.11527 L1544.31377,1030.33556 L1548.01108,1011.31456 L1549.8782,1006.8047 L1557.25715,1003.74672 L1549.60468,1043.11527 Z M1549.89585,985.832372 L1545.14809,997.300178 L1539.43118,999.669373 L1546.46152,963.501415 L1551.75243,976.281131 L1549.89585,985.832372 Z M1542.225,1025.29032 L1542.2269,1025.28572 L1542.22568,1025.29198 Z M1536.09389,1001.05241 L1527.63767,1004.55683 L1536.89919,956.910437 L1544.09459,959.892351 L1536.09389,1001.05241 Z M1513.17802,1063.15942 L1504.7218,1066.66384 L1513.41138,1021.95978 L1518.39629,1024.02563 L1520.02171,1027.95168 L1513.17802,1063.15942 Z M1516.51531,1061.77638 L1522.10979,1032.99526 L1526.04949,1042.51125 L1518.39629,1060.99687 L1516.51531,1061.77638 Z M1524.65393,1004.121 L1517.45852,1001.13909 L1526.86407,952.751697 L1534.05948,955.73361 L1524.65393,1004.121 Z M1501.3845,1068.04687 L1499.91983,1068.65386 L1493.98477,1066.19426 L1503.39033,1017.80687 L1510.57168,1020.78296 L1501.3845,1068.04687 Z M1514.61881,999.962258 L1508.19517,997.300178 L1507.63801,995.954421 L1515.1208,957.458826 L1523.5605,953.961253 L1514.61881,999.962258 Z M1457.02032,905.942637 L1448.5641,909.447056 L1457.12377,865.411353 L1461.36727,867.169939 L1463.53786,872.412805 L1457.02032,905.942637 Z M1460.35762,904.5596 L1465.62595,877.456385 L1469.02047,885.655559 L1461.36727,904.141179 L1460.35762,904.5596 Z M1424.80632,1087.45516 L1430.74781,1056.88882 L1439.18752,1053.39125 L1431.35546,1093.68371 L1434.3122,1094.25844 L1442.52481,1052.00821 L1446.41624,1050.39553 L1450.30043,1052.00521 L1442.19895,1093.68371 L1445.15569,1094.25844 L1453.14013,1053.18203 L1460.33554,1056.16395 L1453.04244,1093.68371 L1455.99918,1094.25844 L1463.17524,1057.34077 L1464.8927,1058.05252 L1468.92073,1067.78187 L1463.88593,1093.68371 L1465.33119,1093.96464 L1464.8927,1095.02376 L1446.41624,1102.68076 L1427.93978,1095.02376 L1424.80632,1087.45516 Z M1422.71824,1082.41158 L1420.28658,1076.53814 L1427.02247,1060.2682 L1422.71824,1082.41158 Z M1439.16528,1013.5847 L1446.74946,974.567505 L1455.18916,971.069932 L1446.20709,1017.2787 L1439.55297,1014.52111 L1439.16528,1013.5847 Z M1437.0772,1008.54112 L1431.89977,996.035487 L1439.55297,977.549867 L1443.41217,975.950541 L1437.0772,1008.54112 Z M1432.30105,969.00449 L1425.60437,971.779723 L1433.59865,930.652714 L1434.61548,931.074108 L1438.05778,939.388684 L1432.30105,969.00449 Z M1443.46727,911.559279 L1442.89081,911.798174 L1437.68311,909.640001 L1447.08866,861.252612 L1452.78688,863.614061 L1443.46727,911.559279 Z M1439.43792,956.39716 L1442.26868,949.559728 L1441.24678,947.091418 L1439.43792,956.39716 Z M1418.05895,1050.59662 L1409.60272,1054.10104 L1418.25132,1009.60787 L1423.0023,1011.57676 L1424.79973,1015.9183 L1418.05895,1050.59662 Z M1421.39624,1049.21358 L1426.88781,1020.96188 L1430.6555,1030.06238 L1423.0023,1048.548 L1421.39624,1049.21358 Z M1422.26707,973.16276 L1416.13902,975.702342 L1414.15798,974.881362 L1423.56353,926.493974 L1430.75894,929.475887 L1422.26707,973.16276 Z M1406.26543,1055.48407 L1404.52584,1056.205 L1398.81065,1053.83652 L1408.21621,1005.44913 L1415.41162,1008.43104 L1406.26543,1055.48407 Z M1434.8434,908.463174 L1427.64799,905.48126 L1436.03071,862.3559 L1442.89081,859.512945 L1444.24896,860.075785 L1434.8434,908.463174 Z M1411.31827,973.704535 L1404.12287,970.722622 L1413.07098,924.688566 L1416.13902,923.417113 L1420.72383,925.317146 L1411.31827,973.704535 Z M1395.97095,1052.65969 L1388.77554,1049.67778 L1397.06934,1007.00988 L1404.52584,1003.91977 L1405.3765,1004.2723 L1395.97095,1052.65969 Z M1424.80829,904.304433 L1424.41435,904.141179 L1419.41311,892.061128 L1424.10731,867.911578 L1424.41435,867.169939 L1432.69342,863.738937 L1424.80829,904.304433 Z M1401.28316,969.545794 L1397.66256,968.045348 L1395.03394,961.696161 L1401.27746,929.576022 L1409.73369,926.071603 L1401.28316,969.545794 Z M1385.96589,1048.34634 L1380.67498,1035.56663 L1384.70866,1014.81515 L1386.04938,1011.57676 L1393.73205,1008.39292 L1385.96589,1048.34634 Z M1417.32503,887.017548 L1416.76115,885.655559 L1418.32313,881.882733 L1417.32503,887.017548 Z M1388.11364,981.512199 L1386.59344,989.332958 L1381.31927,1002.07224 L1362.84281,1009.72924 L1344.36635,1002.07224 L1336.71315,983.586623 L1344.36635,965.101003 L1362.84281,957.444008 L1381.31927,965.101003 L1388.11364,981.512199 Z M1392.94586,956.652581 L1390.00936,949.559728 L1397.66256,931.074108 L1397.94017,930.959059 L1392.94586,956.652581 Z M1378.58689,1030.52305 L1378.39618,1030.06238 L1378.92448,1028.7863 L1378.58689,1030.52305 Z M1491.14507,1065.01743 L1483.94966,1062.03552 L1492.20493,1019.56583 L1499.91983,1016.36863 L1500.55062,1016.63004 L1491.14507,1065.01743 Z M1505.54993,990.910841 L1500.54197,978.814558 L1508.19517,960.328938 L1511.78351,958.841863 L1505.54993,990.910841 Z M1502.43193,951.166625 L1493.97571,954.671044 L1502.01037,913.336272 L1503.25768,913.853179 L1507.63142,924.417563 L1502.43193,951.166625 Z M1507.61067,940.310155 L1509.71951,929.461143 L1510.91088,932.338799 L1507.61067,940.310155 Z M1481.1982,1060.40468 L1475.9073,1047.62497 L1479.65479,1028.34579 L1481.44337,1024.02563 L1488.86764,1020.94887 L1481.1982,1060.40468 Z M1483.2797,993.911405 L1481.72311,1001.91938 L1476.50589,1014.52111 L1471.05984,1016.77805 L1477.98879,981.13169 L1483.2797,993.911405 Z M1468.28805,1086.82262 L1471.00882,1072.82545 L1472.5459,1076.53814 L1468.28805,1086.82262 Z M1490.63842,956.054081 L1484.78122,958.481414 L1482.56971,957.56492 L1491.97526,909.177532 L1499.17067,912.159445 L1490.63842,956.054081 Z M1473.81921,1042.58139 L1473.79017,1042.51125 L1473.87061,1042.31695 L1473.81921,1042.58139 Z M1475.68287,977.208793 L1467.72255,1018.16109 L1459.26632,1021.66551 L1468.48746,974.226879 L1475.68287,977.208793 Z M1479.73,956.388093 L1472.53459,953.40618 L1481.44232,907.579888 L1484.78122,906.196185 L1489.13556,908.000704 L1479.73,956.388093 Z M1465.64775,973.050052 L1456.2422,1021.43744 L1449.04679,1018.45553 L1458.45235,970.068139 L1465.64775,973.050052 Z M1469.69489,952.229352 L1466.30476,950.824419 L1463.50667,944.065886 L1469.64881,912.467343 L1478.10503,908.962925 L1469.69489,952.229352 Z M1461.41859,939.022306 L1458.65156,932.338799 L1466.30476,913.853179 L1466.31151,913.85038 L1461.41859,939.022306 Z" id="Combined-Shape" fill="url(#linearGradient-2)" opacity="0.25" transform="translate(1465.598732, 981.096850) scale(1, -1) rotate(95.000000) translate(-1465.598732, -981.096850) "></path>
                <path d="M1296.99382,1115.06019 L1295.64251,1118.29053 L1289.62612,1120.75814 L1295.77217,1089.13947 L1300.04626,1099.35678 L1296.99382,1115.06019 Z M1301.60891,1104.0277 L1301.80455,1103.56003 L1301.73305,1103.38909 L1301.60891,1104.0277 Z M1286.94149,1121.85924 L1280.76604,1124.3921 L1280.23163,1124.17291 L1287.73232,1085.58517 L1293.53022,1087.96317 L1286.94149,1121.85924 Z M1277.94346,1123.23442 L1272.14556,1120.85642 L1279.45224,1083.2668 L1280.76604,1082.72795 L1285.44416,1084.64668 L1277.94346,1123.23442 Z M1269.85739,1119.91793 L1265.88956,1118.29053 L1264.54047,1115.0655 L1269.96516,1087.15792 L1276.76762,1084.3679 L1269.85739,1119.91793 Z M1262.85368,1111.03319 L1259.72752,1103.56003 L1265.88956,1088.82953 L1267.28053,1088.25902 L1262.85368,1111.03319 Z M1204.71663,1095.83836 L1197.91417,1098.62838 L1204.53215,1064.58186 L1206.81323,1065.51744 L1209.40575,1071.71493 L1204.71663,1095.83836 Z M1207.82409,1092.56195 L1211.09254,1075.74724 L1212.97527,1080.24794 L1207.82409,1092.56195 Z M1191.97702,1161.37798 L1185.17456,1164.168 L1192.29303,1127.54664 L1197.46278,1129.667 L1197.92584,1130.77396 L1191.97702,1161.37798 Z M1194.66164,1160.27688 L1199.61263,1134.80627 L1203.62482,1144.3975 L1197.46278,1159.128 L1194.66164,1160.27688 Z M1221.05823,1011.76813 L1213.57163,1050.28336 L1213.47619,1050.32251 L1207.75963,1047.97787 L1215.26033,1009.39013 L1221.05823,1011.76813 Z M1223.3464,1012.70662 L1228.35266,1014.75993 L1228.92789,1016.13502 L1223.04542,1046.39769 L1216.25625,1049.18227 L1223.3464,1012.70662 Z M1201.194,1063.21272 L1196.34676,1088.1496 L1197.43917,1088.36194 L1195.22955,1099.72948 L1191.93675,1101.08002 L1188.94538,1099.85311 L1196.44608,1061.26537 L1201.194,1063.21272 Z M1211.65293,1009.40617 L1204.42149,1046.60873 L1199.67357,1044.66138 L1206.08238,1011.69093 L1211.65293,1009.40617 Z M1182.50417,1165.19589 L1176.70627,1162.81788 L1184.20697,1124.23014 L1190.00486,1126.60815 L1182.50417,1165.19589 Z M1186.65721,1098.91462 L1180.85932,1096.53662 L1187.7403,1061.13704 L1191.93675,1059.41587 L1194.15791,1060.32688 L1186.65721,1098.91462 Z M1174.4181,1161.87939 L1168.6202,1159.50139 L1175.00069,1126.67666 L1181.80314,1123.88664 L1174.4181,1161.87939 Z M1203.39775,1012.79202 L1197.70454,1042.08102 L1193.43046,1031.86371 L1195.15395,1022.9971 L1198.59971,1014.75993 L1203.39775,1012.79202 Z M1199.32921,988.807133 L1196.79971,1001.82032 L1194.62425,1007.0208 L1189.08727,1009.29179 L1195.05512,978.589821 L1199.32921,988.807133 Z M1178.57115,1095.59813 L1177.06028,1094.97844 L1173.89997,1087.42365 L1178.25321,1065.02816 L1185.05567,1062.23814 L1178.57115,1095.59813 Z M1166.69415,1156.7 L1162.42006,1146.48268 L1163.93433,1138.6924 L1167.70983,1129.667 L1172.31606,1127.77776 L1166.69415,1156.7 Z M1192.92057,976.861042 L1186.40264,1010.39289 L1179.74777,1013.12238 L1179.62198,1013.07078 L1187.12267,974.48304 L1192.92057,976.861042 Z M1168.29687,1103.53899 L1165.52006,1117.82447 L1163.73437,1122.09321 L1157.97065,1124.45719 L1164.02278,1093.32168 L1168.29687,1103.53899 Z M1172.21318,1083.39134 L1170.89824,1080.24794 L1174.49594,1071.64755 L1172.21318,1083.39134 Z M1184.83451,973.54455 L1177.33381,1012.13229 L1164.8713,1007.0208 L1158.70926,992.290304 L1164.8713,977.559804 L1179.74777,971.458231 L1184.83451,973.54455 Z M1173.81591,1030.23033 L1168.02564,1060.01867 L1158.20834,1064.04522 L1143.33186,1057.94365 L1137.16983,1043.21315 L1143.33186,1028.48265 L1158.20834,1022.38108 L1173.08482,1028.48265 L1173.81591,1030.23033 Z M1175.5027,1034.26265 L1179.24686,1043.21315 L1173.08482,1057.94365 L1170.71026,1058.91757 L1175.5027,1034.26265 Z M1161.83744,1091.85418 L1155.28603,1125.55828 L1148.85789,1128.19478 L1133.98141,1122.09321 L1127.81938,1107.36271 L1133.98141,1092.63221 L1148.85789,1086.53063 L1161.83744,1091.85418 Z M1259.73641,1082.21739 L1252.93395,1085.00741 L1259.58856,1050.77243 L1262.08107,1051.79473 L1264.51773,1057.61962 L1259.73641,1082.21739 Z M1262.6655,1079.85865 L1266.20452,1061.65194 L1268.24311,1066.52523 L1262.6655,1079.85865 Z M1242.00749,1128.50911 L1240.54164,1132.01324 L1234.59187,1134.45353 L1240.71316,1102.96225 L1244.98725,1113.17956 L1242.00749,1128.50911 Z M1246.62258,1117.47662 L1246.70368,1117.28274 L1246.67404,1117.21188 L1246.62258,1117.47662 Z M1250.24933,1086.10851 L1247.2046,1087.3573 L1244.0018,1086.04368 L1251.50249,1047.45593 L1257.30039,1049.83394 L1250.24933,1086.10851 Z M1231.90725,1135.55463 L1225.66517,1138.11481 L1225.18754,1137.91892 L1232.68824,1099.33118 L1238.48614,1101.70918 L1231.90725,1135.55463 Z M1241.71363,1085.10519 L1235.91573,1082.72718 L1242.76008,1047.51607 L1247.2046,1045.69316 L1249.21432,1046.51744 L1241.71363,1085.10519 Z M1222.89937,1136.98043 L1217.10148,1134.60242 L1224.418,1096.96219 L1225.66517,1096.45067 L1230.40007,1098.39268 L1222.89937,1136.98043 Z M1233.62756,1081.78869 L1232.32812,1081.25573 L1229.01195,1073.32835 L1233.27299,1051.40719 L1240.07545,1048.61717 L1233.62756,1081.78869 Z M1214.81331,1133.66393 L1210.78869,1132.01324 L1209.48147,1128.88829 L1214.93091,1100.85331 L1221.73337,1098.06329 L1214.81331,1133.66393 Z M1227.32516,1069.29603 L1226.16608,1066.52523 L1229.33734,1058.94426 L1227.32516,1069.29603 Z M1207.79467,1124.85598 L1204.62665,1117.28274 L1210.78869,1102.55224 L1212.24629,1101.95441 L1207.79467,1124.85598 Z M1230.61468,1020.16734 L1234.5147,1029.49043 L1228.35266,1044.22093 L1225.73004,1045.2966 L1230.61468,1020.16734 Z M1115.29645,1049.49584 L1130.17293,1055.59741 L1136.33496,1070.32791 L1130.17293,1085.05841 L1115.29645,1091.15998 L1100.41997,1085.05841 L1094.25794,1070.32791 L1100.41997,1055.59741 L1115.29645,1049.49584 Z" id="Combined-Shape" fill="url(#linearGradient-3)" opacity="0.1" transform="translate(1198.031244, 1068.327059) scale(1, -1) rotate(47.000000) translate(-1198.031244, -1068.327059) "></path>
                <path d="M1606.73028,967.644742 L1615.81506,971.495913 L1619.57811,980.793461 L1615.81506,990.091009 L1606.73028,993.942179 L1597.64549,990.091009 L1593.88245,980.793461 L1597.64549,971.495913 L1606.73028,967.644742 Z M1601.02013,1008.13445 L1610.10492,1011.98562 L1613.86796,1021.28317 L1610.10492,1030.58071 L1601.02013,1034.43188 L1591.93534,1030.58071 L1588.1723,1021.28317 L1591.93534,1011.98562 L1601.02013,1008.13445 Z M1627.32759,991.020242 L1636.41238,994.871412 L1640.17542,1004.16896 L1636.41238,1013.46651 L1627.32759,1017.31768 L1618.2428,1013.46651 L1614.47976,1004.16896 L1618.2428,994.871412 L1627.32759,991.020242 Z M1559.92747,961.383448 L1569.01226,965.234618 L1572.7753,974.532166 L1569.01226,983.829714 L1559.92747,987.680885 L1550.84268,983.829714 L1547.07964,974.532166 L1550.84268,965.234618 L1559.92747,961.383448 Z M1599.28669,912.127931 L1608.37148,915.979101 L1612.13452,925.276649 L1608.37148,934.574197 L1599.28669,938.425368 L1590.20191,934.574197 L1586.43886,925.276649 L1590.20191,915.979101 L1599.28669,912.127931 Z M1660.97667,982.358784 L1670.06145,986.209955 L1673.8245,995.507503 L1670.06145,1004.80505 L1660.97667,1008.65622 L1651.89188,1004.80505 L1648.12884,995.507503 L1651.89188,986.209955 L1660.97667,982.358784 Z M1619.88401,935.607785 L1628.96879,939.458956 L1632.73184,948.756504 L1628.96879,958.054052 L1619.88401,961.905222 L1610.79922,958.054052 L1607.03618,948.756504 L1610.79922,939.458956 L1619.88401,935.607785 Z M1640.48132,958.983285 L1649.56611,962.834455 L1653.32915,972.132003 L1649.56611,981.429551 L1640.48132,985.280722 L1631.39653,981.429551 L1627.63349,972.132003 L1631.39653,962.834455 L1640.48132,958.983285 Z M1586.13296,944.269243 L1595.21775,948.120413 L1598.98079,957.417961 L1595.21775,966.715509 L1586.13296,970.56668 L1577.04818,966.715509 L1573.28513,957.417961 L1577.04818,948.120413 L1586.13296,944.269243 Z M1580.42282,984.758947 L1589.5076,988.610118 L1593.27065,997.907666 L1589.5076,1007.20521 L1580.42282,1011.05638 L1571.33803,1007.20521 L1567.57499,997.907666 L1571.33803,988.610118 L1580.42282,984.758947 Z" id="Combined-Shape-Copy-2" fill="url(#linearGradient-4)" opacity="0.402502264" transform="translate(1610.452068, 973.279907) scale(1, -1) rotate(183.000000) translate(-1610.452068, -973.279907) "></path>
                <path d="M1018.83669,1049.85819 L1017.48539,1053.08852 L1011.46899,1055.55614 L1017.61504,1023.93746 L1021.88913,1034.15477 L1018.83669,1049.85819 Z M1023.45179,1038.8257 L1023.64742,1038.35802 L1023.57592,1038.18709 L1023.45179,1038.8257 Z M1008.78437,1056.65723 L1002.60891,1059.19009 L1002.0745,1058.9709 L1009.5752,1020.38316 L1015.37309,1022.76117 L1008.78437,1056.65723 Z M999.786331,1058.03241 L993.988434,1055.65441 L1001.29512,1018.0648 L1002.60891,1017.52595 L1007.28703,1019.44467 L999.786331,1058.03241 Z M991.700265,1054.71592 L987.732434,1053.08852 L986.383347,1049.8635 L991.808031,1021.95592 L998.61049,1019.16589 L991.700265,1054.71592 Z M984.696556,1045.83118 L981.570395,1038.35802 L987.732434,1023.62752 L989.123406,1023.05701 L984.696556,1045.83118 Z M926.559503,1030.63636 L919.757045,1033.42638 L926.375019,999.379854 L928.656102,1000.31544 L931.248624,1006.51292 L926.559503,1030.63636 Z M929.666968,1027.35994 L932.935415,1010.54524 L934.818141,1015.04594 L929.666968,1027.35994 Z M913.819892,1096.17597 L907.017433,1098.966 L914.135906,1062.34463 L919.305652,1064.465 L919.768711,1065.57195 L913.819892,1096.17597 Z M916.504517,1095.07488 L921.455503,1069.60427 L925.46769,1079.1955 L919.305652,1093.926 L916.504517,1095.07488 Z M942.901101,946.566123 L935.414498,985.081355 L935.319058,985.1205 L929.602508,982.775863 L937.103205,944.188121 L942.901101,946.566123 Z M945.189271,947.504613 L950.195534,949.557928 L950.77076,950.933018 L944.888292,981.195688 L938.099124,983.980259 L945.189271,947.504613 Z M923.036871,998.010716 L918.189632,1022.94759 L919.282045,1023.15994 L917.07242,1034.52747 L913.779626,1035.87801 L910.788255,1034.6511 L918.288953,996.063361 L923.036871,998.010716 Z M933.495806,944.20416 L926.26436,981.406724 L921.516441,979.45937 L927.925248,946.488919 L933.495806,944.20416 Z M904.347039,1099.99388 L898.549143,1097.61588 L906.04984,1059.02814 L911.847737,1061.40614 L904.347039,1099.99388 Z M908.500086,1033.71261 L902.702189,1031.33461 L909.583169,995.935038 L913.779626,994.213865 L916.000783,995.124871 L908.500086,1033.71261 Z M896.260973,1096.67739 L890.463077,1094.29939 L896.843558,1061.47466 L903.646016,1058.68463 L896.260973,1096.67739 Z M925.240623,947.590015 L919.547418,976.879017 L915.273329,966.661705 L916.996823,957.795096 L920.442581,949.557928 L925.240623,947.590015 Z M921.172086,923.605127 L918.642578,936.618317 L916.467122,941.818797 L910.930138,944.089786 L916.897997,913.387815 L921.172086,923.605127 Z M900.41402,1030.39612 L898.90315,1029.77644 L895.742843,1022.22165 L900.096085,999.826157 L906.898544,997.036135 L900.41402,1030.39612 Z M888.537019,1091.49799 L884.26293,1081.28068 L885.777207,1073.4904 L889.552699,1064.465 L894.158933,1062.57575 L888.537019,1091.49799 Z M914.763444,911.659036 L908.245513,945.190883 L901.590645,947.92037 L901.46485,947.868776 L908.965547,909.281034 L914.763444,911.659036 Z M890.139746,1038.33698 L887.362929,1052.62247 L885.577239,1056.8912 L879.813526,1059.25518 L885.865657,1028.11967 L890.139746,1038.33698 Z M894.056052,1018.18933 L892.741112,1015.04594 L896.338812,1006.44555 L894.056052,1018.18933 Z M906.677378,908.342543 L899.176681,946.930285 L886.714169,941.818797 L880.552131,927.088298 L886.714169,912.357798 L901.590645,906.256225 L906.677378,908.342543 Z M895.658778,965.028325 L889.868512,994.816659 L880.051214,998.843215 L865.174737,992.741642 L859.012699,978.011142 L865.174737,963.280642 L880.051214,957.179069 L894.92769,963.280642 L895.658778,965.028325 Z M897.345569,969.06064 L901.089728,978.011142 L894.92769,992.741642 L892.553138,993.715563 L897.345569,969.06064 Z M883.680315,1026.65218 L877.128901,1060.35628 L870.700763,1062.99277 L855.824287,1056.8912 L849.662248,1042.1607 L855.824287,1027.4302 L870.700763,1021.32863 L883.680315,1026.65218 Z M981.579283,1017.01538 L974.776825,1019.80541 L981.431432,985.570421 L983.923946,986.592724 L986.360605,992.417615 L981.579283,1017.01538 Z M984.508369,1014.65665 L988.047396,996.44993 L990.085985,1001.32322 L984.508369,1014.65665 Z M963.850359,1063.3071 L962.384515,1066.81123 L956.434746,1069.25153 L962.55603,1037.76025 L966.830119,1047.97756 L963.850359,1063.3071 Z M968.465451,1052.27461 L968.546553,1052.08073 L968.516911,1052.00987 L968.465451,1052.27461 Z M972.092199,1020.9065 L969.04747,1022.1553 L965.844669,1020.84167 L973.345366,982.253929 L979.143262,984.63193 L972.092199,1020.9065 Z M953.750121,1070.35262 L947.508038,1072.91281 L947.030416,1072.71691 L954.531113,1034.12917 L960.32901,1036.50717 L953.750121,1070.35262 Z M963.556499,1019.90318 L957.758602,1017.52518 L964.602949,982.314067 L969.04747,980.491151 L971.057196,981.315438 L963.556499,1019.90318 Z M944.742247,1071.77842 L938.94435,1069.40042 L946.26087,1031.76019 L947.508038,1031.24866 L952.242944,1033.19068 L944.742247,1071.77842 Z M955.470433,1016.58669 L954.170994,1016.05372 L950.854824,1008.12634 L955.115865,986.205185 L961.918324,983.415163 L955.470433,1016.58669 Z M936.656181,1068.46193 L932.631562,1066.81123 L931.324338,1063.68628 L936.773786,1035.6513 L943.576245,1032.86128 L936.656181,1068.46193 Z M949.168033,1004.09403 L948.008955,1001.32322 L951.180214,993.742254 L949.168033,1004.09403 Z M929.637547,1059.65397 L926.469524,1052.08073 L932.631562,1037.35023 L934.089161,1036.7524 L929.637547,1059.65397 Z M952.457551,954.965332 L956.357572,964.288428 L950.195534,979.018927 L947.572918,980.094591 L952.457551,954.965332 Z M837.139323,984.293831 L852.015799,990.395404 L858.177838,1005.1259 L852.015799,1019.8564 L837.139323,1025.95798 L822.262847,1019.8564 L816.100808,1005.1259 L822.262847,990.395404 L837.139323,984.293831 Z" id="Combined-Shape" fill="url(#linearGradient-3)" opacity="0.1" transform="translate(919.874116, 1003.125053) scale(1, -1) rotate(51.000000) translate(-919.874116, -1003.125053) "></path>
                <path d="M1440.1464,1123.85287 L1437.30568,1125.04515 L1413.37783,1115.00241 L1389.59156,1091.21615 L1379.4601,1066.43213 L1380.40767,1064.11414 L1440.1464,1123.85287 Z M1448.39251,1120.39191 L1383.80473,1055.80412 L1388.992,1043.11478 L1460.98425,1115.10704 L1448.39251,1120.39191 Z M1238.64293,910.64233 L1199.80981,871.809205 L1193.98696,857.565111 L1196.73064,850.85342 L1259.03318,913.155959 L1251.83255,916.178127 L1238.64293,910.64233 Z M1218.46844,902.174915 L1210.92954,899.010772 L1207.90463,891.611105 L1218.46844,902.174915 Z M1347.5808,1019.5802 L1287.74153,959.74093 L1292.92881,947.051594 L1360.17255,1014.29533 L1347.5808,1019.5802 Z M1331.76285,1015.46933 L1303.66611,1003.67687 L1292.39256,976.099036 L1331.76285,1015.46933 Z M1330.12792,1073.08477 L1342.51734,1103.3923 L1285.70479,1046.57976 L1316.58259,1059.53944 L1330.12792,1073.08477 Z M1245.31834,988.275192 L1250.45527,1000.84137 L1247.41171,1008.28667 L1184.68109,945.556058 L1192.60969,942.228357 L1204.08982,947.046668 L1245.31834,988.275192 Z M1237.22352,968.473291 L1224.26431,955.514083 L1233.51269,959.395712 L1237.22352,968.473291 Z M1340.07784,1112.65988 L1334.87852,1125.37868 L1264.62572,1055.12587 L1277.24669,1049.82873 L1340.07784,1112.65988 Z M1244.01465,1016.59669 L1238.81533,1029.31549 L1163.81401,954.314161 L1176.43498,949.017025 L1244.01465,1016.59669 Z M1384.0324,1153.12728 L1418.98583,1167.79755 L1435.92841,1209.24321 L1418.98583,1250.68887 L1378.08282,1267.85623 L1337.17982,1250.68887 L1320.23724,1209.24321 L1337.17982,1167.79755 L1378.0584,1150.64044 L1382.28882,1154.87086 L1384.0324,1153.12728 Z M1331.48147,1133.6887 L1326.28215,1146.40749 L1244.16122,1064.28656 L1244.44325,1063.59663 L1256.3796,1058.58684 L1331.48147,1133.6887 Z M1235.41828,1037.62551 L1233.51269,1042.28703 L1225.51739,1045.64273 L1148.09803,968.223369 L1151.70669,959.395712 L1155.5679,957.775127 L1235.41828,1037.62551 Z M1318.08299,1149.91541 L1285.34626,1163.65531 L1244.44325,1146.48795 L1227.50067,1105.04229 L1240.76416,1072.59658 L1318.08299,1149.91541 Z M1217.27128,1049.1037 L1192.60969,1059.45439 L1151.70669,1042.28703 L1134.76411,1000.84137 L1144.70097,976.533392 L1217.27128,1049.1037 Z M1301.19756,836.819587 L1309.67813,857.565111 L1308.03775,861.577883 L1247.31008,800.850214 L1251.83255,798.952094 L1271.64592,807.267943 L1301.19756,836.819587 Z M1293.10274,817.017687 L1291.82041,815.735357 L1292.73555,816.119449 L1293.10274,817.017687 Z M1385.68549,921.307518 L1398.07491,951.61505 L1354.06253,907.602666 L1384.94033,920.562353 L1385.68549,921.307518 Z M1304.64069,869.887905 L1299.44137,882.606699 L1226.44299,809.608317 L1239.06397,804.311181 L1304.64069,869.887905 Z M1400.83886,966.086079 L1395.63955,978.804872 L1327.58236,910.747687 L1340.20334,905.450551 L1400.83886,966.086079 Z M1490.97932,1056.22653 L1495.15126,1066.43213 L1491.70274,1074.86806 L1428.39407,1011.5594 L1437.30568,1007.81911 L1446.38081,1011.62803 L1490.97932,1056.22653 Z M1482.88449,1036.42463 L1466.5553,1020.09544 L1478.20869,1024.98647 L1482.88449,1036.42463 Z M1296.04432,890.916722 L1292.73555,899.010772 L1288.14637,900.93689 L1208.72407,821.514581 L1210.92954,816.119449 L1218.19688,813.069283 L1296.04432,890.916722 Z M1392.24249,987.114895 L1387.04317,999.833689 L1306.71527,919.505789 L1319.33625,914.208653 L1392.24249,987.114895 Z M1488.30568,1083.17809 L1483.10636,1095.89688 L1407.52698,1020.3175 L1420.14796,1015.02036 L1488.30568,1083.17809 Z M1279.90026,904.397856 L1267.27929,909.694992 L1200.12769,842.543398 L1205.32701,829.824604 L1279.90026,904.397856 Z M1381.03963,1005.53723 L1368.41866,1010.83436 L1296.32587,938.741571 L1301.52518,926.022778 L1381.03963,1005.53723 Z M1479.70931,1104.2069 L1478.20869,1107.87779 L1469.23037,1111.64607 L1392.38906,1034.80476 L1396.40268,1024.98647 L1399.28087,1023.77847 L1479.70931,1104.2069 Z M1259.63711,1226.92015 L1300.54011,1244.08751 L1317.48269,1285.53317 L1300.54011,1326.97883 L1259.63711,1344.14618 L1218.73411,1326.97883 L1201.79153,1285.53317 L1218.73411,1244.08751 L1259.63711,1226.92015 Z M1074.62306,1018.51831 L1115.52607,1035.68567 L1132.46865,1077.13133 L1115.52607,1118.57699 L1074.62306,1135.74435 L1033.72006,1118.57699 L1016.77748,1077.13133 L1033.72006,1035.68567 L1074.62306,1018.51831 Z M1166.90054,1122.71923 L1207.80354,1139.88659 L1224.74612,1181.33225 L1207.80354,1222.77791 L1166.90054,1239.94527 L1125.99754,1222.77791 L1109.05496,1181.33225 L1125.99754,1139.88659 L1166.90054,1122.71923 Z" id="Combined-Shape" fill="url(#linearGradient-5)" opacity="0.333220109" transform="translate(1255.964374, 1071.549139) scale(1, -1) rotate(115.000000) translate(-1255.964374, -1071.549139) "></path>
                <path d="M1320.09211,1201.22091 L1284.49658,1186.15977 L1326.03557,972.460214 L1365.29349,955.849452 L1367.59795,956.824512 L1320.09211,1201.22091 Z M1334.14006,1207.16486 L1381.64591,962.768465 L1456.83918,994.584141 L1494.75865,1088.09795 L1456.83918,1181.61177 L1365.29349,1220.34646 L1334.14006,1207.16486 Z M1271.33425,1175.65966 L1245.29394,1111.44122 L1262.72444,1021.76904 L1273.74781,994.584141 L1309.46975,979.46952 L1271.33425,1175.65966 Z M1273.05255,890.421076 L1250.31144,946.503318 L1221.23689,958.805301 L1256.84884,775.597698 L1282.88916,839.816141 L1273.05255,890.421076 Z M1204.67108,965.814606 L1162.69566,983.575191 L1209.60419,742.251696 L1245.19972,757.312828 L1204.67108,965.814606 Z M1089.76115,1280.57628 L1047.78572,1298.33687 L1092.01348,1070.80479 L1117.76378,1081.70022 L1124.96617,1099.46215 L1089.76115,1280.57628 Z M1106.32696,1273.56698 L1135.24311,1124.80628 L1155.68325,1175.21403 L1117.76378,1268.72784 L1106.32696,1273.56698 Z M1148.05039,980.704138 L1112.45486,965.643006 L1159.96071,721.246611 L1195.55623,736.307743 L1148.05039,980.704138 Z M1031.21991,1305.34617 L1026.21809,1307.46253 L994.933692,1294.22552 L1042.43954,1049.82913 L1077.96552,1064.86083 L1031.21991,1305.34617 Z M1098.4069,959.699053 L1067.22006,946.503318 L1064.04571,938.675 L1101.71565,744.879965 L1143.60907,727.154078 L1098.4069,959.699053 Z M814.978953,483.793132 L773.003531,501.553717 L816.048698,280.105527 L835.200949,288.209202 L847.230215,317.874772 L814.978953,483.793132 Z M831.544769,476.783826 L857.507158,343.21891 L873.120414,381.723015 L835.200949,475.236828 L831.544769,476.783826 Z M652.387342,1398.46889 L681.480696,1248.79655 L723.374112,1231.07067 L683.906922,1434.11176 L698.556742,1436.95939 L739.939928,1224.06136 L761.122782,1215.0985 L778.755063,1222.55905 L737.633381,1434.11176 L752.283201,1436.95939 L792.80302,1228.503 L828.398547,1243.56413 L791.35984,1434.11176 L806.00966,1436.95939 L842.446504,1249.50809 L852.668469,1253.83319 L871.230787,1299.61003 L845.086299,1434.11176 L854.65127,1435.971 L852.668469,1440.86082 L761.122782,1479.59551 L669.577095,1440.86082 L652.387342,1398.46889 Z M642.110399,1373.12475 L631.65763,1347.347 L661.358742,1274.1006 L642.110399,1373.12475 Z M724.541554,1027.26764 L762.577887,831.587675 L804.471303,813.861788 L759.122447,1047.16143 L727.117163,1033.6194 L724.541554,1027.26764 Z M714.264611,1001.92351 L689.197697,940.105582 L727.117163,846.591769 L746.012071,838.596981 L714.264611,1001.92351 Z M688.805215,804.370327 L657.871296,817.459045 L698.269473,609.628444 L702.653293,611.48332 L718.63675,650.900384 L688.805215,804.370327 Z M745.396211,513.23489 L743.655261,513.971518 L718.899367,503.496837 L766.405214,259.100442 L792.637449,270.19979 L745.396211,513.23489 Z M726.907495,738.69726 L740.572758,704.997133 L735.763516,693.136983 L726.907495,738.69726 Z M618.749528,1216.90734 L576.774105,1234.66793 L620.752758,1008.41737 L645.113225,1018.72474 L653.332361,1038.99409 L618.749528,1216.90734 Z M635.315343,1209.89803 L663.609304,1064.33822 L683.03269,1112.23855 L645.113225,1205.75237 L635.315343,1209.89803 Z M641.305481,824.468351 L611.107605,837.245636 L601.120142,833.019754 L648.625989,588.623359 L684.221516,603.684491 L641.305481,824.468351 Z M560.208289,1241.67723 L553.567538,1244.48706 L523.603427,1231.80868 L571.109273,987.412287 L606.7048,1002.47342 L560.208289,1241.67723 Z M704.85141,497.552884 L669.255883,482.491752 L711.94152,262.893189 L743.655261,249.474512 L752.357257,253.156489 L704.85141,497.552884 Z M587.072185,827.0758 L551.476658,812.014668 L596.809286,578.798516 L611.107605,572.74863 L634.578031,582.679406 L587.072185,827.0758 Z M509.555469,1225.86473 L473.959943,1210.8036 L515.712095,996.007396 L553.567538,979.990052 L557.061316,981.468334 L509.555469,1225.86473 Z M655.207926,476.547799 L652.109574,475.236828 L628.335895,416.60817 L653.400282,287.66308 L695.375704,269.902495 L655.207926,476.547799 Z M537.428701,806.070715 L519.561918,798.510946 L506.592253,766.526243 L538.268048,603.568407 L580.24347,585.807822 L537.428701,806.070715 Z M460.478355,1201.94593 L434.438041,1137.72748 L453.470726,1039.81281 L462.021851,1018.72474 L499.146279,1003.0167 L460.478355,1201.94593 Z M618.058952,391.264032 L614.190109,381.723015 L625.183267,354.612609 L618.058952,391.264032 Z M472.033262,866.10241 L463.798839,908.464846 L438.585482,970.643918 L347.039795,1009.37861 L255.494108,970.643918 L217.574642,877.130105 L255.494108,783.616292 L347.039795,744.881602 L438.585482,783.616292 L472.033262,866.10241 Z M496.31531,741.182105 L481.642453,704.997133 L519.561918,611.48332 L521.702232,610.577713 L496.31531,741.182105 Z M424.161098,1112.38335 L424.102385,1112.23855 L424.269214,1111.82713 L424.161098,1112.38335 Z M980.885735,1288.28157 L945.290208,1273.22043 L986.80572,1059.64164 L1026.21809,1042.96553 L1028.39158,1043.88517 L980.885735,1288.28157 Z M1053.76877,913.330862 L1029.3006,852.989505 L1067.22006,759.475692 L1085.14984,751.889271 L1053.76877,913.330862 Z M1038.98448,712.99075 L997.00906,730.751335 L1037.55393,522.166068 L1042.75619,524.367243 L1064.99073,579.200201 L1038.98448,712.99075 Z M1065.3091,655.776788 L1080.67566,617.881056 L1075.26767,604.544339 L1065.3091,655.776788 Z M932.163037,1262.53945 L906.122724,1198.321 L923.376791,1109.55652 L934.672407,1081.70022 L970.239905,1066.65095 L932.163037,1262.53945 Z M943.384999,928.408786 L934.650955,973.341548 L910.208537,1033.6194 L882.09913,1045.51301 L917.344686,864.190343 L943.384999,928.408786 Z M864.786909,1410.97533 L881.507731,1324.95416 L890.587934,1347.347 L864.786909,1410.97533 Z M980.443245,737.760641 L951.210506,750.129559 L940.404598,745.557377 L987.910445,501.160983 L1023.50597,516.222115 L980.443245,737.760641 Z M905.915262,844.775204 L865.533314,1052.52232 L823.557892,1070.2829 L870.319735,829.714072 L905.915262,844.775204 Z M926.356641,739.613424 L890.761114,724.552292 L935.94705,492.090806 L951.210506,485.632553 L973.862488,495.21703 L926.356641,739.613424 Z M856.271778,823.770119 L808.765931,1068.16651 L773.170404,1053.10538 L820.676251,808.708987 L856.271778,823.770119 Z M876.713157,718.608339 L859.664819,711.394869 L846.096411,677.933598 L877.405812,516.860697 L919.381234,499.100112 L876.713157,718.608339 Z M835.819468,652.58946 L821.745353,617.881056 L859.664819,524.367243 L860.839996,523.870003 L835.819468,652.58946 Z" id="Combined-Shape-Copy" fill-opacity="0.9" fill="url(#linearGradient-6)" transform="translate(856.166644, 864.535009) rotate(121.000000) translate(-856.166644, -864.535009) "></path>
                <path d="M1396.64246,959.961914 L1430.0472,973.808148 L1443.8839,1007.23591 L1430.0472,1040.66368 L1396.64246,1054.50991 L1363.23772,1040.66368 L1349.40102,1007.23591 L1363.23772,973.808148 L1396.64246,959.961914 Z M1375.64627,1105.53582 L1409.05101,1119.38205 L1422.88771,1152.80982 L1409.05101,1186.23759 L1375.64627,1200.08382 L1342.24153,1186.23759 L1328.40483,1152.80982 L1342.24153,1119.38205 L1375.64627,1105.53582 Z M1472.37874,1044.00458 L1505.78348,1057.85081 L1519.62017,1091.27858 L1505.78348,1124.70635 L1472.37874,1138.55258 L1438.974,1124.70635 L1425.1373,1091.27858 L1438.974,1057.85081 L1472.37874,1044.00458 Z M1224.54865,937.450486 L1257.95339,951.29672 L1271.79009,984.724486 L1257.95339,1018.15225 L1224.54865,1031.99849 L1191.14391,1018.15225 L1177.30721,984.724486 L1191.14391,951.29672 L1224.54865,937.450486 Z M1369.27242,760.36058 L1402.67716,774.206814 L1416.51386,807.634581 L1402.67716,841.062347 L1369.27242,854.908581 L1335.86768,841.062347 L1322.03098,807.634581 L1335.86768,774.206814 L1369.27242,760.36058 Z M1596.10631,1012.86377 L1629.51105,1026.71001 L1643.34775,1060.13777 L1629.51105,1093.56554 L1596.10631,1107.41177 L1562.70157,1093.56554 L1548.86487,1060.13777 L1562.70157,1026.71001 L1596.10631,1012.86377 Z M1445.0087,844.778438 L1478.41344,858.624672 L1492.25014,892.052438 L1478.41344,925.480204 L1445.0087,939.326438 L1411.60396,925.480204 L1397.76726,892.052438 L1411.60396,858.624672 L1445.0087,844.778438 Z M1520.74497,928.821105 L1554.14971,942.667339 L1567.98641,976.095105 L1554.14971,1009.52287 L1520.74497,1023.3691 L1487.34023,1009.52287 L1473.50353,976.095105 L1487.34023,942.667339 L1520.74497,928.821105 Z M1320.90619,875.919247 L1354.31093,889.765481 L1368.14763,923.193247 L1354.31093,956.621013 L1320.90619,970.467247 L1287.50145,956.621013 L1273.66475,923.193247 L1287.50145,889.765481 L1320.90619,875.919247 Z M1299.90999,1021.49315 L1333.31474,1035.33939 L1347.15143,1068.76715 L1333.31474,1102.19492 L1299.90999,1116.04115 L1266.50525,1102.19492 L1252.66856,1068.76715 L1266.50525,1035.33939 L1299.90999,1021.49315 Z" id="Combined-Shape" fill="url(#linearGradient-7)" opacity="0.5" transform="translate(1410.327483, 980.222200) scale(1, -1) rotate(-283.000000) translate(-1410.327483, -980.222200) "></path>
            </g>
        </g>
    </g>
</svg>