<svg width="419" height="94" viewBox="0 0 419 94" xmlns="http://www.w3.org/2000/svg"><title>Title</title><desc>Created with Sketch.</desc><g fill="none"><path d="M291 29.343h18.431c0-9.654.549-16.785 1.317-24.575h-12.946c-3.62 7.241-5.924 15.688-6.802 24.575zm26.659 51.453h41.689v-10.642l-9.545-1.865v-64.289h-10.751l-22.271 10.532v10.642l10.642-.768v43.883l-9.764 1.865v10.642zm53.318 0h24.794l23.148-63.741v-12.287h-54.415l-1.097 23.478h11.958l2.852-7.789h25.891v.549l-33.132 59.791z" fill="#EC2991"/><path d="M.84 40h16.98v-5.46l-2.52-.66v-17.46c1.26-.42 2.46-.78 4.02-.78 2.52 0 3.72.84 3.72 3.42v14.82l-2.52.66v5.46h16.74v-5.46l-3.18-.84v-18.48c0-5.7-3.42-7.92-8.34-7.92-4.44 0-7.5 1.56-10.56 3.9h-.36v-3.42l-.96-.42-13.2 1.38v5.58l3.6.96v18.42l-3.42.84v5.46zm55.2.78c-11.22 0-17.1-6.06-17.1-16.86 0-10.5 6.48-16.62 16.2-16.62 9.9 0 14.58 4.92 14.58 18.36h-19.38c.6 5.64 3.6 7.62 8.7 7.62 4.2 0 6.9-.78 9.18-1.5v5.82c-2.28 1.56-6.06 3.18-12.18 3.18zm-5.7-20.22l8.7-.36c0-4.98-1.68-6.48-4.02-6.48-2.46 0-4.26 1.5-4.68 6.84zm21.42 19.44h13.68v-5.46l-2.58-.6 4.02-5.88h.18l4.02 5.88-2.52.6v5.46h18.06v-5.46l-2.82-.78-7.02-9.36 7.26-10.2 2.28-.78v-5.46h-12.84v5.46l2.52.66-3.84 6h-.24l-3.84-6 2.52-.66v-5.46h-18.3v5.46l2.88.9 7.14 9.42-7.68 10.02-2.88.78v5.46zm49.74.66c3.48 0 6.3-.84 7.74-1.74v-5.7c-.84.24-1.92.42-2.94.42-2.64 0-3.9-.84-3.9-3.66v-15.48h6.48v-6.54h-6.48v-7.5h-8.64l-1.38 7.44-4.38 1.62v4.98h3.42v17.28c0 6.78 3.6 8.88 10.08 8.88zm-106.32 52.58c-10.2 0-15.18-3.06-15.18-7.32 0-3.54 3.12-5.52 6.72-6.48v-.3c-2.82-.84-4.2-2.58-4.2-5.16s2.04-5.1 4.62-6.78c-2.94-1.62-4.92-4.38-4.92-8.1 0-6.96 5.76-10.8 14.1-10.8 2.64 0 4.92.36 6.78 1.02l10.26-1.44v6.48l-4.32-.18c.84 1.26 1.38 2.58 1.38 4.26 0 6.96-5.58 10.8-14.1 10.8-1.62 0-3.06-.12-4.44-.42-.48.54-.72 1.26-.72 1.8 0 .78.54 1.62 2.22 1.62h10.38c5.52 0 9.9 2.4 9.9 8.76 0 6.66-5.4 12.24-18.48 12.24zm.84-6.12c5.58 0 7.56-1.68 7.56-3.66 0-1.74-1.02-2.28-3.78-2.28h-7.56c-1.26.54-2.1 1.44-2.1 2.94 0 1.74 1.56 3 5.88 3zm.3-23.22c2.16 0 3.84-1.26 3.84-5.04 0-4.2-1.68-5.16-3.84-5.16s-3.72 1.2-3.72 4.98c0 3.96 1.62 5.22 3.72 5.22zm35.82 17.88c-11.22 0-17.1-6.06-17.1-16.86 0-10.5 6.48-16.62 16.2-16.62 9.9 0 14.58 4.92 14.58 18.36h-19.38c.6 5.64 3.6 7.62 8.7 7.62 4.2 0 6.9-.78 9.18-1.5v5.82c-2.28 1.56-6.06 3.18-12.18 3.18zm-5.7-20.22l8.7-.36c0-4.98-1.68-6.48-4.02-6.48-2.46 0-4.26 1.5-4.68 6.84zm21.36 19.44h16.98v-5.46l-2.52-.66v-17.46c1.26-.42 2.46-.78 4.02-.78 2.52 0 3.72.84 3.72 3.42v14.82l-2.52.66v5.46h16.74v-5.46l-3.18-.84v-18.48c0-5.7-3.42-7.92-8.34-7.92-4.44 0-7.5 1.56-10.56 3.9h-.36v-3.42l-.96-.42-13.2 1.38v5.58l3.6.96v18.42l-3.42.84v5.46zm55.2.78c-11.22 0-17.1-6.06-17.1-16.86 0-10.5 6.48-16.62 16.2-16.62 9.9 0 14.58 4.92 14.58 18.36h-19.38c.6 5.64 3.6 7.62 8.7 7.62 4.2 0 6.9-.78 9.18-1.5v5.82c-2.28 1.56-6.06 3.18-12.18 3.18zm-5.7-20.22l8.7-.36c0-4.98-1.68-6.48-4.02-6.48-2.46 0-4.26 1.5-4.68 6.84zm21.36 19.44h18.9v-5.46l-4.44-.84v-15.48c1.8-.84 3.84-1.2 6.78-1.2 1.02 0 2.1.12 2.82.3v-9.72c-.42-.12-1.08-.18-1.62-.18-3.66 0-6.42 2.28-8.1 5.16h-.36v-4.8l-.96-.42-13.2 1.38v5.58l3.6.96v18.42l-3.42.84v5.46zm34.86.78c-5.76 0-9.48-3.6-9.48-8.76 0-6.3 4.44-8.34 11.7-9.66l5.58-1.08v-1.56c0-3.24-1.2-4.44-6-4.44-2.82 0-6.06.24-8.22.6v-6.36c3.06-1.08 7.98-2.22 13.44-2.22 8.1 0 11.76 3.36 11.76 10.5v14.28c0 1.5.96 1.92 2.16 1.92h.96v5.22c-1.08.72-3.78 1.5-6.42 1.5-3.48 0-5.58-1.08-6.48-3.72h-.3c-1.62 2.04-4.62 3.78-8.7 3.78zm4.68-6.36c1.32 0 2.52-.6 3.12-1.2v-6.9l-2.82.12c-2.46.18-3.54 1.44-3.54 4.02 0 2.7.96 3.96 3.24 3.96zm32.04 6.24c3.48 0 6.3-.84 7.74-1.74v-5.7c-.84.24-1.92.42-2.94.42-2.64 0-3.9-.84-3.9-3.66v-15.48h6.48v-6.54h-6.48v-7.5h-8.64l-1.38 7.44-4.38 1.62v4.98h3.42v17.28c0 6.78 3.6 8.88 10.08 8.88zm9.9-.66h17.7v-5.46l-3.24-.84v-25.92l-1.02-.42-13.74 1.38v5.58l3.72.96v18.42l-3.42.84v5.46zm8.64-34.62c3.36 0 6.06-2.04 6.06-5.4 0-3.3-2.7-5.34-6.06-5.34-3.3 0-6.06 2.04-6.06 5.34 0 3.36 2.76 5.4 6.06 5.4zm27.48 28.8c2.94 0 4.86-2.1 4.86-9.96 0-8.28-2.04-10.38-5.04-10.38-2.94 0-4.92 1.86-4.92 9.96 0 8.28 2.04 10.38 5.1 10.38zm-.06 6.6c-10.74 0-16.62-6.42-16.62-16.56 0-11.04 7.32-16.92 16.56-16.92 10.68 0 16.62 6 16.62 16.5 0 10.98-7.38 16.98-16.56 16.98zm18.36-.78h16.98v-5.46l-2.52-.66v-17.46c1.26-.42 2.46-.78 4.02-.78 2.52 0 3.72.84 3.72 3.42v14.82l-2.52.66v5.46h16.74v-5.46l-3.18-.84v-18.48c0-5.7-3.42-7.92-8.34-7.92-4.44 0-7.5 1.56-10.56 3.9h-.36v-3.42l-.96-.42-13.2 1.38v5.58l3.6.96v18.42l-3.42.84v5.46z" fill="#fff"/></g></svg>