<?xml version="1.0" encoding="UTF-8" standalone="no"?>
<svg width="100px" height="57px" viewBox="0 0 100 57" version="1.1" xmlns="http://www.w3.org/2000/svg" xmlns:xlink="http://www.w3.org/1999/xlink">
    <!-- Generator: Sketch 39.1 (31720) - http://www.bohemiancoding.com/sketch -->
    <title>rio-2016</title>
    <desc>Created with Sketch.</desc>
    <defs></defs>
    <g id="Page-1" stroke="none" stroke-width="1" fill="none" fill-rule="evenodd">
        <g id="Artboard-1-Copy-5" transform="translate(-1074.000000, -12.000000)">
            <g id="rio-2016" transform="translate(1074.000000, 12.000000)">
                <g id="Group">
                    <polygon id="Shape" fill="#EA3E59" points="62.3188406 39.9809659 33.8969404 20.0633523 62.3188406 0.145738636 90.7407407 20.0633523"></polygon>
                    <polygon id="Shape" fill="#269448" points="55.5555556 39.9809659 27.1336554 20.0633523 55.5555556 0.145738636 83.9774557 20.0633523"></polygon>
                    <polygon id="Shape" fill="#333333" points="48.7922705 39.9809659 20.3703704 20.0633523 48.7922705 0.145738636 77.2141707 20.0633523"></polygon>
                    <polygon id="Shape" fill="#F8B847" points="42.0289855 39.9809659 13.6070853 20.0633523 42.0289855 0.145738636 70.4508857 20.0633523"></polygon>
                    <polygon id="Shape" fill="#1991C6" points="35.2657005 39.9809659 6.84380032 20.0633523 35.2657005 0.145738636 63.6876006 20.0633523"></polygon>
                    <path d="M34.3961353,42.1184659 L38.4541063,42.1184659 C41.6908213,42.1184659 43.0917874,43.6730114 43.0917874,46.0857955 C43.0917874,48.1747159 42.1095008,49.4863636 40,49.9721591 L40,50.0369318 L44.057971,56.7571023 L42.7375201,56.7571023 L38.8405797,50.2474432 L35.5877617,50.2474432 L35.5877617,56.7571023 L34.4122383,56.7571023 L34.4122383,42.1184659 L34.3961353,42.1184659 Z M38.4057971,49.2920455 C40.9822866,49.2920455 41.8518519,47.9965909 41.8518519,46.1181818 C41.8518519,44.2235795 40.9339775,43.1224432 38.373591,43.1224432 L35.5877617,43.1224432 L35.5877617,49.2920455 L38.4057971,49.2920455 L38.4057971,49.2920455 Z M45.2979066,42.4099432 L46.4573269,42.4099432 L46.4573269,43.7377841 L45.2979066,43.7377841 L45.2979066,42.4099432 L45.2979066,42.4099432 Z M45.2979066,46.0534091 L46.4573269,46.0534091 L46.4573269,56.7571023 L45.2979066,56.7571023 L45.2979066,46.0534091 L45.2979066,46.0534091 Z M47.9066023,51.5752841 L47.9066023,51.3 C47.9066023,47.8022727 49.9194847,45.8590909 52.6731079,45.8590909 C55.5555556,45.8590909 57.4396135,47.7213068 57.4396135,51.2190341 L57.4396135,51.478125 C57.4396135,55.0082386 55.4267311,56.9514205 52.6570048,56.9514205 C49.7745572,56.9352273 47.9066023,55.0892045 47.9066023,51.5752841 L47.9066023,51.5752841 Z M56.2640902,51.6076705 L56.2640902,51.2028409 C56.2640902,48.0127841 54.7181965,46.8144886 52.6570048,46.8144886 C50.5152979,46.8144886 49.0821256,48.3366477 49.0821256,51.2028409 L49.0821256,51.6076705 C49.0821256,54.7491477 50.6280193,55.9960227 52.6731079,55.9960227 C54.8148148,55.9960227 56.2640902,54.4900568 56.2640902,51.6076705 L56.2640902,51.6076705 Z M61.5780998,55.8664773 L65.1529791,52.2715909 C67.310789,50.1017045 68.9371981,48.3690341 68.9371981,46.0372159 C68.9371981,43.9482955 67.7777778,42.928125 65.5555556,42.928125 C64.057971,42.928125 62.979066,43.284375 61.9484702,43.81875 L61.9484702,42.8633523 C63.0434783,42.2642045 64.1706924,41.8917614 65.8293076,41.8917614 C68.647343,41.8917614 70.1771337,43.3653409 70.1771337,45.9400568 C70.1771337,48.5309659 68.4057971,50.4417614 65.958132,52.8383523 L63.0756844,55.6721591 L63.0756844,55.7207386 L70.531401,55.7207386 L70.531401,56.7409091 L61.5942029,56.7409091 L61.5942029,55.8664773 L61.5780998,55.8664773 Z M71.610306,49.8264205 L71.610306,49.1463068 C71.610306,44.2559659 73.9613527,41.9079545 77.2785829,41.9079545 C80.5797101,41.9079545 82.8663446,44.2073864 82.8663446,49.0815341 L82.8663446,49.7616477 C82.8663446,54.6357955 80.6602254,56.9676136 77.2624799,56.9676136 C73.8808374,56.9676136 71.610306,54.6034091 71.610306,49.8264205 L71.610306,49.8264205 Z M81.6425121,49.9073864 L81.6425121,49.0653409 C81.6425121,45.1627841 80.257649,42.8957386 77.2785829,42.8957386 C74.2995169,42.8957386 72.8663446,45.0980114 72.8663446,48.9681818 L72.8663446,49.8264205 C72.8663446,53.7127841 74.2995169,55.9474432 77.2463768,55.9474432 C80.2415459,55.9636364 81.6425121,53.8747159 81.6425121,49.9073864 L81.6425121,49.9073864 Z M86.2640902,43.3491477 L83.4782609,43.8835227 L83.4782609,43.1710227 L86.9887279,42.0051136 L87.4557166,42.0051136 L87.4557166,56.7571023 L86.2801932,56.7571023 L86.2801932,43.3491477 L86.2640902,43.3491477 Z M89.9194847,50.4255682 L89.9194847,49.7940341 C89.9194847,43.9482955 92.7697262,41.9241477 96.2640902,41.9241477 C97.4879227,41.9241477 98.4863124,42.1346591 99.1143317,42.4747159 L99.1143317,43.4301136 C98.4863124,43.1710227 97.5040258,42.9605114 96.4412238,42.9605114 C93.5426731,42.9605114 91.3204509,44.2559659 91.1755233,49.2920455 C92.0611916,48.5795455 93.52657,47.915625 95.394525,47.915625 C98.0193237,47.915625 100,49.2434659 100,52.2068182 C100,55.0730114 98.2125604,56.9838068 95.2334944,56.9838068 C91.7230274,56.9676136 89.9194847,54.2633523 89.9194847,50.4255682 L89.9194847,50.4255682 Z M98.7600644,52.3039773 C98.7600644,49.7130682 97.2302738,48.9034091 95.0885668,48.9034091 C93.3655395,48.9034091 92.1095008,49.5025568 91.1916264,50.1988636 L91.1916264,50.4579545 C91.1916264,53.6318182 92.3188406,55.9960227 95.2173913,55.9960227 C97.4074074,55.9636364 98.7600644,54.7329545 98.7600644,52.3039773 L98.7600644,52.3039773 Z" id="Shape" fill="#333333"></path>
                    <polygon id="Shape" fill="#FBE400" points="28.5024155 40.0295455 0 20.1119318 28.5024155 0.194318182 57.0048309 20.1119318"></polygon>
                    <ellipse id="Oval" fill="#21449B" cx="28.4702093" cy="20.1443182" rx="8.79227053" ry="8.84147727"></ellipse>
                </g>
            </g>
        </g>
    </g>
</svg>