<svg xmlns="http://www.w3.org/2000/svg" width="71" height="69"><g fill="none" fill-rule="evenodd"><path fill="#BFB09D" d="M56.92 2.2H49.6l1.1-1.1c-1.78-.7-3.74-.5-5 .77-1.3 1.26-1.52 3.2-.8 4.97l.14-.13c.52 1.1 1.6 1.8 2.83 1.8h4.2v2.4c0 2.7 1 4.9 3.65 4.9l1.2-1c2.66 0 4.84-2.1 4.84-4.8V7c0-2.65-2.18-4.8-4.84-4.8"/><path fill="#C8B89A" d="M56.92 16.2h-2.84V9.7l2.84-.07"/><path fill="#FFC49D" d="M56.7 5.14H44.56v.02c-1.26.15-2.24 1.2-2.24 2.5v2.3c0 .82.4 1.54 1 2v8l4.58 3.4 7.38 1.72h3.67V7.82L56.7 5.14z"/><path fill="#BFB09D" d="M42.1 63.9c-1.16 0-2.1.93-2.1 2.08s.94 2.08 2.1 2.08h8.3V63.9h-8.3zm18.98 0H52.8c-1.17 0-2.1.93-2.1 2.08s.93 2.08 2.1 2.08h8.28V63.9zm-2.9-59.1c-2.3 0-4.17 2.25-4.3 4.5v-.02 5.1l5.85 3.08S60.38 4.8 58.18 4.8"/><path fill="#FFC49D" d="M56 15.9c0-1.74 1.43-3.15 3.18-3.15 1.76 0 3.18 1.4 3.18 3.15 0 1.73-1.42 3.14-3.18 3.14-1.75 0-3.17-1.4-3.17-3.14"/><path fill="#BFB09D" d="M53.87 14.4v2.93l-4.14 1.9c-.6-1.13-1.8-1.92-3.2-1.92h-3.2v2.5c0 3 2.4 5.3 5.36 5.3h8.1V12.8l-3 1.63z"/><path fill="#FFF" d="M59.82 21.32h-7.36l-2.57 3.76h-3.5c-2.1 0-3.9 1.65-3.1 3.7v19.47h9.1c3.1 0 5.6-2.73 5.6-5.76.6-1.7 1.3-2.5 1.7-2.8V21.3z"/><path fill="#FFC49D" d="M43.33 18.77l2.95-1.46-2.95-5.9"/><path fill="#13132D" d="M70.32 37.6c0-.68-.16-1.36-.54-1.98l-5.46-8.75c-.7-1.16-1.94-1.78-3.22-1.8h-4.4c-2.05 0-3.77 1.64-3.77 3.68v8.73c0 2.15 1.42 4 3.37 4.7H46.08v-13.4c0-2.05 1.7-3.7 3.78-3.7H46.4c-2.07 0-3.83 1.65-3.83 3.7V63.9h7.8V52.85h2.97V63.9h7.74V52.97h4.72l-2.35-5.95 6-7c.6-.7.88-1.58.87-2.43"/><path fill="#FFC49D" d="M45.57 19.26v.27c0 1.13.93 2.05 2.07 2.05 1.14 0 2.07-.92 2.07-2.05v-.27h-4.1z"/><path fill="#6D5943" d="M3.72 18.26l.42-1.98v.34c.82-.54 1.8-.84 2.83-.83 2.67 0 4.9 2.1 5.05 4.8.1 1.8-.78 3.5-2.17 4.5L7.4 26.9l-3.5-2.55c-1.44-.97-2.08-2.25-2.08-3.6l1.9-2.5zM18.3 21.8h-1.94c-2.58 0-3.27-2.14-3.27-4.75v-1.2c.2-.1-.9-.13-.6-.13l7.7-.34c1.2 0 2.7.96 2.7 2.47 0 2.73-2.2 3.94-4.7 3.94"/><path fill="#FFC49D" d="M7.46 16.38V12.2l4.4-6.36 8.43 4.44v11.06c0 3.22-2.8 5.6-5.7 5.6H7.4V22.3c-1.63 0-2.95-1.33-2.95-2.97 0-1.64 1.33-2.97 2.96-2.97"/><path fill="#FFF" d="M8.4 22.34c0-.58-.48-1.06-1.06-1.06-.58 0-1.04.48-1.04 1.06 0 .58.46 1.06 1.04 1.06.58 0 1.05-.48 1.05-1.06"/><path fill="#BFB09D" d="M11.37 4.65h2.04c4.8 0 9.6 3.6 9.6 8.7v4.4c0-1.25-1.4-2.3-2.7-2.3l-1.9-.02s-3.8.2-6.5-2.94c0 0-.4 8.2-7.7 8.2H1.8v-7.4c0-5 4.6-8.7 9.55-8.7"/><path fill="#E2352D" d="M17.48 21.7c-.53.85-1.47 1.42-2.54 1.42s-2-.57-2.54-1.42h5.08z"/><path fill="#FFC49D" d="M16.76 65.74H12.2v-9.42h4.56"/><path fill="#13132D" d="M20.22 68.05l-8-6.38v6.38h2.02V66.7l1.88 1.35"/><path fill="#FFC49D" d="M8.76 65.74h-4.7v-9.42h4.7"/><path fill="#13132D" d="M12.2 68.05l-8.13-6.38v6.38h2.17V66.7l1.87 1.35m-4-25.43V59.7h16.2V42.6"/><path fill="#1730AD" d="M3.9 26.94h12.08c2.44 0 4.24 1.75 4.3 4.27v11.5H7.4v3.6H.9V30.2c0-1.7 1.34-3.13 3-3.26"/><path fill="#FFC49D" d="M4.07 49.72C2.3 49.72.9 48.25.9 46.46v-.25h6.5v.3c0 1.8-1.54 3.3-3.33 3.3M13.7 26v5.74l-6.3-4.76"/></g></svg>
