<svg xmlns="http://www.w3.org/2000/svg" width="78" height="65"><g fill="none" fill-rule="evenodd"><path fill="#CE1111" d="M23 22.58v12.28c0 2.9-2.28 5.5-5.16 5.5H12.8V22.6H23z"/><path fill="#FFC49E" d="M16.88 61.7H12.3v-9.5h4.58"/><path fill="#CE1111" d="M20.36 64.02L12.3 57.6V64h2.04v-1.35l1.9 1.35"/><path fill="#FFC49E" d="M8.82 61.7H4.24v-9.5h4.58"/><path fill="#CE1111" d="M12.3 64.02L4.24 57.6V64h2.04v-1.35L8.18 64M3.64 35.86l.5 4.95V55h16.22V35.9"/><path fill="#13132D" d="M16.02 22.58c2.5 0 4.34 1.84 4.34 4.46v12.62H3.86V22.58h12.16z"/><path fill="#13132D" d="M11.63 26.8v-4.22h4.5c2.43 0 4.12 1.72 4.23 4.22h-8.73z"/><path fill="#F2AF80" d="M4.2 45.55c-1.8 0-3.28-1.48-3.28-3.3V42h6.53v.27c0 1.8-1.47 3.3-3.26 3.3"/><path fill="#CE1111" d="M4.2 22.58h9.67v11.5c0 2.88-2.34 5.66-5.22 5.66h-1.2V42H.92V25.88c0-1.8 1.47-3.3 3.27-3.3"/><path fill="#D6842B" d="M13.1 2.6h5.18c2.17.07 3.92 1.88 3.92 4.08v5.97c0 2.24-1.82 4.07-4.05 4.07h-.25c-2.23 0-4.65-1.83-4.65-4.07L13.1 2.6z"/><path fill="#13132D" d="M5.3 12.12h2.6v10.46l-3.75-2.36"/><path fill="#FFC49D" d="M13.12 22.58H7.9V8.16h5.22"/><path fill="#FFC49D" d="M11.66 22.55c-4.2-4.53-1.62-11.87 1.46-14.4h7.25v9.37c0 2.9-2.3 5.03-5.14 5.03h-6.5 2.93z"/><path fill="#FFC49D" d="M10.52 15.35c0-1.45-1.18-4.62-2.62-4.62-1.45 0-2.62 3.17-2.62 4.62C5.28 16.8 6.45 18 7.9 18c1.44 0 2.62-1.2 2.62-2.65"/><path fill="#D6842B" d="M3.48 3.36c.66-.48 1.47-.76 2.34-.76h10.33c2.23 0 4.97 1.84 4.97 4.08v5.44h-6.56c-1.9 0-3.27-1.54-3.44-3.46-2.82 1.86-4.8 4.76-4.8 8.4 0 2.03.56 3.92 1.54 5.52-.4 0-6.08.3-6.08-4.7V6.54c0-1.33.67-2.5 1.7-3.18"/><path fill="#E2352D" d="M16.88 17.34c-.23.75-.92 1.3-1.75 1.3-.82 0-1.5-.55-1.74-1.3h3.4z"/><path fill="#13132D" d="M70.5 41.2l2.76 7.22h-6.6V41.3"/><path fill="#FFB68D" d="M65.58 2.74s.66 4.75 1.3 4.9v14.6h-10.2c-1.9 0-3.5-.92-4.48-2.34-.6-.88-.96-1.97-.96-3.18v-9.2c.02-1.84.72-3.52 1.85-4.78h12.4z"/><path fill="#D6842B" d="M62.14.4h-3.9c-2.03 0-3.87.9-5.15 2.34.2.42.4.8.8 1.15 1.2 1.2 3 1.6 4.5 1l-1.9-2.2h3.6c1.5.1 2.8 1.3 2.9 3.4v3c0 2.4 1.4 4.3 3.8 4.3H69V7.5C69 3.6 65.9.4 62.02.4"/><path fill="#FFF" d="M52.9 15.97c.64 1.07 1.78 1.78 3.1 1.78 1.3 0 2.45-.7 3.1-1.78h-6.2z"/><path fill="#FFB68D" d="M63.9 13.76c0-1.7 1.32-3.06 2.97-3.06 1.64 0 2.98 1.37 2.98 3.06 0 1.7-1.34 3.07-2.98 3.07-1.65 0-2.97-1.37-2.97-3.07"/><path fill="#F2AF80" d="M39.07 23.96c1.42-1.46 3.72-1.46 5.14 0l.8.76-5.1 5.25-.8-.7c-1.4-1.47-1.4-3.84 0-5.3"/><path fill="#13132D" d="M56.4 23.43c-1.4-1.45-3.7-1.45-5.1 0l-3.78 3.9-.76-.77-5.1 5.25 3.26 3.3.07.1c1.4 1.5 3.6 1.5 5 0l6.3-6.5c1.4-1.4 1.4-3.8 0-5.2m-5.7 16.9v19.5h-.5c-1.1 0-2 1-2 2.1 0 1.2.9 2.1 2 2.1H58V50.6h2.8v9.32h-.5c-1.1 0-2 .94-2 2.07s.9 2.03 2 2.03h7.9v-23.7H50.7z"/><path fill="#72C8FC" d="M54.34 22.23h4.74l2.8-3.94h5v5h.2v14.2c-.38.2-1.07 1-1.63 2.7H50.7l.8-14.4c0-2.1.86-3.7 2.84-3.7m-9.4 2.5l1.82 1.8-5.1 5.22-1.8-1.8"/><path fill="#13132D" d="M77.13 35.4c0-.65-.16-1.33-.5-1.94l-5.2-9.42c-.7-1.16-1.87-1.8-3.1-1.8h-4.17c-1.96 0-3.6 1.63-3.6 3.66v9.4c0 2.76 2.22 5.03 4.9 5.03 0 0 .4 1.07 1.36 3.17l-.35.77c1.53 1.3 2.1 2.1 3.38.53l6.45-6.97c.57-.7.84-1.57.83-2.42m-20.8 7.4h2.72V22.3h-2.72"/><path fill="#13132D" d="M53.78 46.04V25.66c0-1.9 1.5-3.43 3.33-3.43h-3c-1.8 0-3.3 1.54-3.3 3.43v20.38h3.1z"/></g></svg>
