<?xml version="1.0" encoding="UTF-8" standalone="no"?>
<svg width="137px" height="48px" viewBox="0 0 137 48" version="1.1" xmlns="http://www.w3.org/2000/svg" xmlns:xlink="http://www.w3.org/1999/xlink">
    <!-- Generator: Sketch 3.8.3 (29802) - http://www.bohemiancoding.com/sketch -->
    <defs></defs>
    <g id="Page-1" stroke="none" stroke-width="1" fill="none" fill-rule="evenodd">
        <g id="Desktop" transform="translate(-608.000000, -290.000000)" fill="#FFFFFF">
            <g id="Group">
                <g id="guardian-members-mainlogo-copy" transform="translate(608.000000, 290.000000)">
                    <g id="Group-2" transform="translate(43.705521, 0.000000)">
                        <path d="M70.4179471,0.0790588235 C69.5585882,0.0790588235 68.87063,0.772755418 68.87063,1.64002477 C68.87063,2.49183901 69.5585882,3.18494118 70.4179471,3.18494118 C71.2614027,3.18494118 71.9646751,2.49124458 71.9646751,1.64002477 C71.9646751,0.772755418 71.2614027,0.0790588235 70.4179471,0.0790588235" id="Shape"></path>
                        <path d="M81.5448474,12.8200124 L86.3258039,12.8200124 L86.3258039,12.0163467 L85.4045995,11.5746873 L85.4045995,5.86937461 C85.7479896,5.6203096 86.1544033,5.5353065 86.5920343,5.5353065 C87.3895476,5.5353065 87.763566,5.86580805 87.763566,6.78122601 L87.763566,11.5752817 L86.8423616,12.0169412 L86.8423616,12.8206068 L91.6233181,12.8206068 L91.6233181,12.0169412 L90.6703074,11.5752817 L90.6703074,6.11903406 C90.6703074,4.49505882 89.9358177,3.76866873 88.4821525,3.76866873 C87.2953067,3.76866873 86.1385002,4.19487307 85.3574791,4.9200743 L85.3574791,3.7680743 L85.1230549,3.7680743 L81.4983159,4.35180186 L81.4983159,5.12455728 L82.498447,5.58167183 L82.498447,11.5746873 L81.5454364,12.0163467 L81.5454364,12.8200124 L81.5448474,12.8200124 Z" id="Shape"></path>
                        <polygon id="Shape" points="68.0277633 4.32089164 68.0277633 5.1251517 69.0119913 5.58167183 69.0119913 11.5586378 68.0742947 11.9997028 68.0742947 12.8200124 72.8552512 12.8200124 72.8552512 11.9997028 71.9175547 11.5586378 71.9175547 3.73656966 71.6837196 3.73656966"></polygon>
                        <path d="M63.9606813,11.1591827 C63.7498174,11.3345387 63.5077361,11.4641238 63.0706942,11.4641238 C61.9138876,11.4641238 61.3672907,10.5177957 61.3672907,8.34159752 C61.3672907,5.85035294 62.0540709,5.01458824 62.9758643,5.01458824 C63.491833,5.01458824 63.7486393,5.17686687 63.9600923,5.41166563 L63.9600923,11.1591827 L63.9606813,11.1591827 Z M63.9606813,4.16277399 C63.601388,3.90954799 63.0394769,3.76747988 62.5547255,3.76747988 C60.4036779,3.76747988 58.3698424,5.01221053 58.3698424,8.57580186 C58.3698424,11.9664149 60.418403,13.0565944 61.7890185,13.0565944 C62.8828015,13.0565944 63.6331943,12.5679752 63.9924876,12.0942167 L64.0855504,12.0942167 L64.0855504,13.0250898 L64.3364667,13.0250898 L67.7892161,12.614935 L67.7892161,11.9723591 L66.8674227,11.4522353 L66.8674227,0.172978328 L66.6329986,0.172978328 L62.9923565,0.756705882 L62.9923565,1.56156037 L63.9612703,2.00262539 L63.9612703,4.16277399 L63.9606813,4.16277399 Z" id="Shape"></path>
                        <path d="M51.8907834,4.32089164 L51.8907834,5.1251517 L52.8602862,5.58226625 L52.8602862,11.5592322 L51.9379038,12.0002972 L51.9379038,12.8206068 L56.9697766,12.8206068 L56.9697766,12.0002972 L55.7658497,11.5592322 L55.7658497,6.87752322 C56.2806404,6.4691517 56.9226562,6.34016099 57.7030883,6.34016099 C57.9540046,6.34016099 58.2655884,6.37166563 58.438167,6.41862539 L58.438167,3.84772755 C58.3439261,3.81562848 58.1572114,3.80017337 58.001125,3.80017337 C57.0475253,3.80017337 56.1728524,4.43145511 55.6574727,5.59772136 L55.6574727,3.73656966 L55.4071454,3.73656966 L51.8907834,4.32089164 L51.8907834,4.32089164 Z" id="Shape"></path>
                        <path d="M45.6479156,5.01696594 C45.8552454,4.92423529 46.2793293,4.91947988 46.4206906,4.91947988 C47.5451018,4.91947988 47.8737668,5.48775232 47.8737668,6.60705882 L47.8714108,7.60391331 L46.2057036,7.91955418 C44.4999441,8.23697833 43.2129674,8.75947988 43.2129674,10.5736718 C43.2129674,12.0395294 44.2331247,13.056 45.6237663,13.056 C46.7181383,13.056 47.7488977,12.5834303 48.1399972,11.7952198 L48.217746,11.7952198 C48.3585182,12.741548 49.1707566,13.0411393 50.0766469,13.0411393 C50.7799193,13.0411393 51.4596315,12.8200124 51.7176158,12.524582 L51.7176158,12.0163467 L50.7958224,11.5746873 L50.7958224,6.4495356 C50.7958224,4.46295975 49.3898666,3.73597523 47.0456253,3.73597523 C45.5148003,3.73597523 44.5140802,4.12175851 43.7018418,4.51229721 L43.7018418,6.74972136 L45.0612662,6.74972136 L45.6479156,5.01696594 L45.6479156,5.01696594 Z M47.8731778,11.0682353 C47.7059003,11.3173003 47.3890154,11.4486687 47.0762536,11.4486687 C46.5131644,11.4486687 45.9830596,11.1324334 45.9830596,10.155195 C45.9830596,9.45733746 46.6079943,8.81476161 47.2912405,8.70895356 L47.8731778,8.59779567 L47.8731778,11.0682353 L47.8731778,11.0682353 Z" id="Shape"></path>
                        <path d="M75.2030266,5.01696594 C75.4091785,4.92423529 75.8338514,4.91947988 75.9752126,4.91947988 C77.1002129,4.91947988 77.4276999,5.48775232 77.4276999,6.60705882 L77.4259329,7.60391331 L75.7602257,7.91955418 C74.0544662,8.23697833 72.7674894,8.75947988 72.7674894,10.5736718 C72.7674894,12.0395294 73.7876467,13.056 75.1788774,13.056 C76.2720713,13.056 77.3028307,12.5834303 77.6945193,11.7952198 L77.772857,11.7952198 C77.9136293,12.741548 78.7252787,13.0411393 79.6323469,13.0411393 C80.3350303,13.0411393 81.0147425,12.8200124 81.2733159,12.524582 L81.2733159,12.0163467 L80.3509335,11.5746873 L80.3509335,6.4495356 C80.3509335,4.46295975 78.9443887,3.73597523 76.6013253,3.73597523 C75.0693224,3.73597523 74.0686023,4.12175851 73.2575419,4.51229721 L73.2575419,6.74972136 L74.6163773,6.74972136 L75.2030266,5.01696594 L75.2030266,5.01696594 Z M77.4276999,11.0682353 C77.2616004,11.3173003 76.9447155,11.4486687 76.6307756,11.4486687 C76.0688645,11.4486687 75.5375817,11.1324334 75.5375817,10.155195 C75.5375817,9.45733746 76.1625164,8.81476161 76.8469406,8.70895356 L77.4276999,8.59779567 L77.4276999,11.0682353 L77.4276999,11.0682353 Z" id="Shape"></path>
                        <path d="M34.2335806,10.249709 C34.2335806,11.7797647 34.9839735,13.0571889 36.7498116,13.0571889 C37.9219322,13.0571889 38.9526916,12.537065 39.5151917,11.8433684 L39.5151917,13.0423282 L39.7496159,13.0423282 L43.2966062,12.6155294 L43.2966062,11.973548 L42.3117892,11.4528297 L42.3117892,3.78471827 L42.0773651,3.78471827 L38.4367229,4.36785139 L38.4367229,5.17270588 L39.4050477,5.62982043 L39.4050477,10.9261672 C39.0816838,11.1431331 38.8584508,11.2435913 38.3454271,11.2435913 C37.6109374,11.2435913 37.1397331,11.0230588 37.1397331,10.0137214 L37.1397331,3.78471827 L36.8899948,3.78471827 L33.2493527,4.36785139 L33.2493527,5.17270588 L34.2335806,5.62982043 L34.2335806,10.249709 L34.2335806,10.249709 Z" id="Shape"></path>
                        <path d="M30.5505301,10.8809907 L27.4252677,10.8809907 C27.0812885,10.8809907 26.800333,10.6289536 26.800333,10.3127183 C26.800333,10.0773251 26.9723225,9.82409907 27.1908435,9.66717028 C27.6596918,9.80864396 28.0507914,9.84074303 28.6280166,9.84074303 C30.8786061,9.84074303 32.4253342,8.81476161 32.4253342,6.89178947 C32.4253342,6.02452012 32.0660409,5.5353065 31.5188549,5.03063777 L33.0007924,5.49726316 L33.0037375,3.73835294 L30.644771,4.17941796 C30.097585,3.97434056 29.332467,3.72170898 28.6286056,3.72170898 C26.3791941,3.72170898 24.8165629,4.88916409 24.8165629,6.79727554 C24.8165629,7.9635418 25.3949662,8.83140557 26.2696391,9.3206192 L26.3397308,9.36401238 C25.8396652,9.71115789 24.8006598,10.5035294 24.8006598,11.433808 C24.8006598,12.1275046 25.2541939,12.8051517 26.1918904,13.0102291 L26.1918904,13.0126068 C25.2070735,13.2176842 24.0979764,13.640322 24.0979764,14.792322 C24.0979764,15.9752322 25.7854767,17.1444706 28.5349538,17.1444706 C31.9570749,17.1444706 33.4413684,15.5175232 33.4413684,13.4203839 C33.4407794,11.6846563 32.4877688,10.8809907 30.5505301,10.8809907 M28.6280166,4.76195666 C29.2688545,4.76195666 29.7076634,5.21253251 29.7076634,6.79608669 C29.7076634,8.41946749 29.2535403,8.75115789 28.6280166,8.75115789 C28.0030819,8.75115789 27.5648619,8.41946749 27.5648619,6.79608669 C27.5648619,5.13287926 28.0036709,4.76195666 28.6280166,4.76195666 M28.6138805,15.8016594 C27.020621,15.8016594 26.4469298,15.1733498 26.472846,14.5545511 C26.4899272,14.1295356 26.697846,13.5785015 27.4464719,13.5303529 L29.9308965,13.5303529 C30.649483,13.5303529 31.1036062,14.0332384 31.1036062,14.4909474 C31.1036062,15.4057709 30.42625,15.8016594 28.6138805,15.8016594" id="Shape"></path>
                        <path d="M24.2611309,8.6726935 C24.2611309,4.96643963 22.631942,3.75143034 20.3701614,3.75143034 C17.7614567,3.75143034 16.0580532,5.47110836 16.0580532,8.38974613 C16.0580532,11.3862539 17.6047813,13.056 20.6051746,13.056 C22.2143372,13.056 23.4830548,12.2012136 23.8894685,11.6335356 L23.9336439,10.9124954 C23.3234343,11.1015232 22.6990886,11.2120867 21.5894025,11.2120867 C19.995554,11.2120867 19.0407763,10.3899938 19.0425434,8.6726935 L24.2611309,8.6726935 L24.2611309,8.6726935 Z M20.32363,4.74590712 C21.0422166,4.74590712 21.4327271,5.27316409 21.4327271,7.47432817 L19.0113261,7.61580186 C19.0443104,5.36827245 19.5261168,4.74590712 20.32363,4.74590712 L20.32363,4.74590712 Z" id="Shape"></path>
                        <path d="M6.57801188,12.8200124 L11.3589684,12.8200124 L11.3589684,12.0163467 L10.437764,11.5746873 L10.435997,5.88185759 C10.7846882,5.63933127 11.1834448,5.50855728 11.6204868,5.50855728 C12.418,5.50855728 12.8114556,6.01619814 12.7967305,6.78063158 L12.7967305,11.5746873 L11.8755261,12.0163467 L11.8755261,12.8200124 L16.6564826,12.8200124 L16.6564826,12.0163467 L15.704061,11.5746873 L15.704061,6.11843963 C15.704061,4.4944644 14.7757885,3.7680743 13.516495,3.7680743 C12.3290602,3.7680743 11.1698977,4.19427864 10.3876986,4.91947988 L10.3912326,4.91947988 L10.3912326,0 L10.1568085,0 L6.53265847,0.583727554 L6.53265847,1.35588854 L7.53220057,1.8130031 L7.53220057,11.5752817 L6.57918989,12.0169412 L6.57918989,12.8200124 L6.57801188,12.8200124 Z" id="Shape"></path>
                        <path d="M1.34352123,10.4072322 C1.34352123,12.030613 2.10805019,13.0565944 3.84208198,13.0565944 C4.74856123,13.0565944 5.71511903,12.8200124 6.26583904,12.4056966 L6.26583904,11.3190836 C6.03671596,11.393387 5.64031535,11.4641238 5.32814251,11.4641238 C4.48468683,11.4641238 4.25026269,11.0230588 4.25026269,10.155195 L4.25026269,5.50320743 L6.15628404,5.50320743 L6.15628404,3.98920124 L4.24967369,3.98920124 L4.24967369,1.92297214 L1.34352123,2.33372136 L1.34352123,3.98920124 L0,4.24421053 L0,5.50320743 L1.34352123,5.50320743 L1.34352123,10.4072322 L1.34352123,10.4072322 Z" id="Shape"></path>
                    </g>
                    <path d="M8.87287528,47.2905483 C8.64139617,47.2721211 8.40815005,47.1734462 8.17843796,46.9957124 L8.02470756,46.880988 C7.58472055,46.5558363 7.03635656,46.1504369 7.31377809,45.2379911 C7.63537501,44.1840716 9.81705088,37.2994152 9.83531004,37.1525917 C9.58144873,37.5847403 5.90841129,40.7209384 2.94865935,42.4661768 C2.6682928,42.6314276 1.79303083,43.1765174 1.35893388,43.0629818 C-0.674312633,42.534536 0.0248367318,40.4831675 0.590870885,40.0088146 C0.629745239,39.9761211 0.794077735,39.8804183 0.977847408,39.8025483 C2.00801779,39.363861 4.89767809,37.8427217 7.98112116,34.9508332 C10.0402839,33.0207279 13.1873396,28.9173966 13.4188187,28.3972728 C13.4759522,28.2682821 13.5336747,28.1398858 13.5913972,28.0138672 C13.7427716,27.6881211 14.0961748,26.9242821 14.8530467,26.9855081 C15.0008871,26.9968022 15.1569735,27.0419787 15.3165939,27.1186598 C16.2637146,27.5698301 16.6577592,28.3390189 16.3473533,29.1260406 C16.1317774,29.6699415 15.8402197,30.1799601 15.5586751,30.6739292 C15.3542903,31.0317744 15.1428374,31.4003192 14.9690808,31.7712418 C14.332366,33.122375 13.7038973,34.5436505 13.0436222,36.1159106 C12.6389756,37.0794771 12.2926404,38.0668208 11.9739885,38.996505 C11.916855,39.1605669 11.8844597,39.3377062 11.8555984,39.5249508 C11.8985958,39.4839353 11.9368812,39.4399477 11.9675095,39.397149 C12.4563839,38.6963192 14.0378633,36.3007774 15.8796831,33.8826474 C17.7209138,31.4645174 21.0270009,27.2256567 21.69081,26.7839973 C22.5083494,26.2406908 23.557957,27.170375 23.8277214,27.7142759 C24.1016089,28.2664988 24.1587424,28.8591428 23.9826298,29.3382511 C23.1480092,31.6143131 22.3027865,33.886214 21.4575638,36.1587093 L20.7495794,38.0626598 C20.6412024,38.3545236 20.5287024,38.6451985 20.4179694,38.9358734 L20.4114903,38.9513285 C20.5770008,38.8591923 20.7307312,38.7682449 20.8379302,38.6553038 C22.0860326,37.3481583 24.9003002,34.3094462 24.9003002,34.3094462 C27.2109682,31.8152295 29.5228143,29.3198239 31.8234692,26.8166908 C32.2186918,26.3875143 32.6127364,26.1949199 33.0268072,26.2288022 C33.2129329,26.2430685 33.3984696,26.3060778 33.5792942,26.4136691 C34.0334173,26.6841335 34.7950013,27.1358982 34.4940195,28.1523688 C34.3862315,28.5173471 31.6980111,37.4842821 31.5595948,37.8991923 C31.251545,38.8193657 30.9328931,39.7710437 30.7143721,40.7209384 C30.6360344,41.0657062 30.5635867,41.7760468 30.8710475,42.2896319 C31.6756289,42.0756381 35.1754987,39.8417805 35.1754987,39.8417805 C35.1754987,39.8417805 35.0765458,39.335923 35.1495825,38.2195886 C35.3775276,34.7511056 36.8641771,32.0197124 38.4191513,30.1609384 C39.8569133,28.4424493 41.8188902,27.2375452 43.0457884,27.3183874 C44.105409,27.3885298 45.1438255,28.297409 45.0501736,29.6467589 C44.977137,30.7131613 44.6266788,31.9222264 44.0364954,33.1425855 C42.4756312,36.3721087 40.919479,38.608344 38.9893084,40.3928146 C38.720133,40.6412852 38.5881958,40.7512542 38.2654209,41.0139911 C38.2654209,41.0139911 38.4091382,41.3635143 38.834989,41.3979911 C39.7432353,41.4711056 40.5442826,41.1435762 41.2075026,40.8136691 C43.4551471,39.6955514 45.5019407,37.9616072 47.4633286,35.5143502 C48.4675827,34.2624864 49.2056065,33.1954895 49.7869547,32.1599973 C50.2817192,31.2766784 50.692845,30.3148951 51.0898346,29.3846165 C51.2635912,28.9780282 51.4379368,28.5702511 51.6193504,28.1672295 C51.7984081,27.7683688 52.1323741,27.0265236 52.894547,27.0871552 C53.0518115,27.1002326 53.219678,27.1483812 53.3928456,27.231601 C53.8964452,27.4699663 54.2386573,27.8295948 54.3829636,28.2706598 C54.5313929,28.7212357 54.4560003,29.22531 54.1927149,29.7436505 C53.444089,31.2101025 51.0156199,36.9522697 51.0156199,36.9522697 C50.916667,37.2566165 50.9531854,37.5098425 51.0515493,37.5306474 C51.1505022,37.5502635 54.9972962,33.1907341 56.8656212,31.0751675 C56.8656212,31.0751675 59.920792,27.7083316 60.0927816,27.4836381 C60.4120225,27.0645669 61.2277949,26.4475514 62.0135281,26.9058548 C62.7427167,27.333248 63.0383974,28.5981892 62.781002,29.3138796 C62.0594705,31.3093719 61.352664,33.3108084 60.6470356,35.3116505 L59.9849936,37.2536443 C60.1852554,37.0503502 60.3737371,36.8565669 60.5286455,36.6431675 C63.3770755,32.7330251 69.5940271,26.634796 71.1101269,26.757248 C71.7709909,26.8107465 72.2109779,27.4039849 72.5885303,28.0376443 C72.768177,28.3372357 72.9454676,28.7878115 72.5590801,29.3697558 C71.8257684,30.4753905 69.7347993,36.1075886 69.5793019,36.545087 C69.3543019,37.1823131 68.3300216,40.3868703 68.3052833,40.4992171 C68.2817231,40.5990809 68.1880713,40.8766784 68.1986734,41.0050747 C68.1986734,41.0050747 73.3565933,36.9492976 75.0918031,34.8432418 C78.1416729,31.1429322 82.8519488,19.3774338 83.0669357,18.9654957 C83.5057447,18.1231923 84.3279962,17.6030685 85.186177,17.6946103 C86.1203395,17.7932852 86.3541746,18.4108951 86.3812689,18.9773843 C86.4755097,20.9437496 79.7932439,32.7776072 79.8574455,32.8911428 C80.1260319,32.5957124 85.0253785,28.3461521 87.7754446,29.1837 C88.91517,29.5308456 88.9958637,30.3434276 89.2243978,31.4377682 C89.6402356,33.4350437 87.1298947,45.4864617 78.0162147,45.8674895 C76.8847354,45.9144493 75.2331644,45.066796 74.644159,43.4012109 C74.6270779,43.3542511 74.3861747,43.5801335 74.1446825,43.4594648 C73.646384,43.1848394 73.318897,42.8775205 73.1916718,42.5553409 C73.0844728,42.2878487 73.1633996,41.9876629 73.2859127,41.4871552 C73.4478891,40.8255576 75.7556122,38.1595514 72.8200094,40.9402821 C70.360323,43.2710313 67.8658853,44.9586103 67.4677177,45.2397744 C67.1107805,45.4924059 66.6548903,45.7741644 66.1742619,45.7194771 C65.7118927,45.6665731 65.1458586,45.3717372 64.8148376,44.9562326 C64.3265521,44.3421892 64.5674553,43.5260406 64.9938952,42.574957 C65.3207932,41.8503502 65.8031886,39.7746103 65.9180446,39.4238982 L66.6048248,37.3439973 C67.1537778,35.6855452 67.7009638,34.0264988 68.2393147,32.3644802 C68.3005713,32.1701025 68.4378095,31.7284431 68.3512257,31.6856443 C68.3512257,31.6856443 65.7495891,34.5733719 64.8819842,35.5565545 C64.3542354,36.1515762 59.8942868,41.5959353 58.7180431,43.0707093 C58.4123493,43.4529261 58.0430429,43.6288765 57.6207261,43.5955886 C57.2590768,43.5664617 56.9245217,43.3845669 56.6553463,43.2377434 C55.9261576,42.8454214 55.7170607,42.2753657 55.9968383,41.5234152 C56.3355164,40.6085917 56.5669955,39.6236257 56.7925845,38.6713533 C56.9321788,38.0757372 57.0758961,37.4610994 57.2472967,36.8613223 C57.4746527,36.063601 57.7503072,35.2712295 58.0183047,34.5044183 C58.1437628,34.143601 58.26981,33.7804059 58.3923231,33.4178053 C58.4406215,33.2703874 58.4871529,33.1217805 58.5319174,32.9743626 C58.4194173,33.1473409 51.027989,41.8770994 49.9082898,42.8686041 C49.6715097,43.0790313 49.2550829,43.3744617 48.8427792,43.3411737 C48.6166011,43.3239353 47.7978836,42.8840592 47.2306715,42.2908208 C46.9444149,41.9918239 46.7582892,41.7320592 47.3820459,40.6014586 C47.50397,40.3815205 47.7660773,39.8958734 47.7501742,39.6646412 C47.7460512,39.6022264 47.7383941,39.5065236 47.6912737,39.4274648 C47.6017449,39.4601583 45.0289694,42.3413471 41.5662069,43.8220654 C40.6744528,44.2030932 39.8097929,44.3843935 38.9881304,44.307118 C37.0285096,44.12344 35.9565198,42.8067836 35.9565198,42.8067836 C35.9565198,42.8067836 31.6585477,45.8781892 28.9679712,46.357892 C28.4125392,46.4565669 27.6974867,46.1201211 27.3211122,45.6029694 C26.9447378,45.0840344 27.3087431,43.1360963 27.630929,41.7267093 C28.1357066,39.5207898 29.4091362,35.6213471 29.6588745,34.9228951 C29.9427751,34.1281459 30.2278537,33.3328022 30.5017412,32.5344864 C30.5005632,32.5332976 30.4952621,32.5208146 30.4887831,32.5035762 C30.3815841,32.5243812 30.2378668,32.5541025 30.1989924,32.5921459 C29.7937567,33.0005174 26.0011512,37.2328394 26.0011512,37.2328394 C24.5038996,38.8889137 23.007237,40.5455824 21.5146974,42.2058177 C20.7130611,43.0956753 20.048074,43.8505979 19.4078252,44.6405917 C19.1133225,45.0037867 18.7216339,45.2457186 18.3323014,45.1535824 C17.3975499,44.9342387 16.7714372,43.9463007 16.8397618,43.3875391 C16.9929032,42.1487527 17.2573666,40.8184245 17.6749714,39.1962326 C17.9924453,37.9633905 19.2947362,33.8339044 19.4278514,33.4796257 C19.4437545,33.4386103 19.4590687,33.3958115 19.4749718,33.3542016 C19.4084142,33.3809508 19.3465686,33.4088889 19.3306655,33.4332604 C18.5702596,34.5174957 12.471698,43.3530623 10.9638443,45.4894338 C10.5656767,46.0553285 10.2175745,46.4862883 9.87123937,46.8435391 C9.55671051,47.1675019 9.22038844,47.3184864 8.87287528,47.2905483 M42.0303431,30.7500158 C40.372882,31.3723812 38.2477507,34.4033657 37.5433003,38.09357 C38.9062587,36.6889384 41.9225552,32.1035267 42.0303431,30.7500158 M78.3466467,42.7384245 C85.4529964,41.8105236 88.7066621,30.2197867 84.7944884,32.4881211 C82.1616345,34.0146103 78.7719086,37.7208641 77.3588847,41.5822635 C77.1191596,42.2367279 77.2340156,43.0611985 78.3466467,42.7384245" id="Shape"></path>
                    <path d="M117.883329,46.5923136 C116.625213,46.4550009 115.571483,45.8058864 114.920043,44.7680164 C114.227372,43.6671372 114.068341,42.2720164 114.492425,41.0356078 C114.79164,40.1588276 115.682805,39.5584561 116.757151,39.0918307 C117.260161,38.872487 120.128617,37.4203013 120.128617,37.4203013 C120.128617,37.4203013 120.515594,36.5244994 120.652832,36.148227 C120.960882,35.2916573 121.701851,33.243261 121.959246,32.524004 C121.959246,32.524004 120.841314,33.1856016 118.870502,33.8513601 C116.860815,34.5307904 113.664872,35.2530195 112.448576,35.4045985 C111.23228,35.555583 110.792882,35.9538492 110.358196,36.4900226 C109.214348,37.9023818 107.796612,39.7855273 106.532017,41.4368462 C106.191572,41.8802889 105.699753,42.4955211 104.958195,42.4366728 C104.733195,42.4182455 103.958653,42.1115211 103.657082,41.6752115 C103.41559,41.3244994 103.324294,41.0237192 103.710093,40.1588276 C103.887383,39.7611557 105.180839,37.3864189 105.382279,36.9887471 C105.370499,37.0036078 105.424098,36.8841279 105.378156,36.8686728 C104.383915,37.8708771 98.1021727,43.8448709 94.3867269,43.5452796 C91.0747497,43.2783818 90.663035,39.1940722 90.663035,39.1940722 C90.663035,39.1940722 89.8902599,39.4098492 89.7170923,39.4015273 C89.3654561,39.3831 88.9372492,38.9794839 88.6009272,38.1972177 C88.3847622,37.6895768 88.0048538,36.7164994 88.4795921,36.6112858 C89.8908489,36.298617 90.6512549,36.0679793 90.6512549,36.0679793 C91.213755,32.4330567 92.9813601,30.0375149 93.6269099,29.2671372 C95.3285464,27.234196 97.256361,26.6570071 97.7676176,26.5892424 C100.065917,26.2831124 101.057802,27.7739359 101.093142,29.1185304 C101.144974,31.1330443 100.253809,32.7903075 99.5093065,33.8870257 C97.2763872,37.1718307 93.6952346,38.3077811 93.6952346,38.3077811 C93.6952346,38.3077811 93.6469361,40.1909266 94.8714783,40.2896016 C97.5379055,40.5041898 104.531755,34.3233353 107.184635,31.000487 C107.724164,30.3246232 110.605579,26.6237192 110.812319,26.3865427 C110.990199,26.1838431 111.23228,26.1505551 111.704663,26.3235335 C112.224165,26.5131557 113.554728,27.438679 112.940396,28.4652548 C112.326063,29.4930195 110.473641,32.7433477 110.473641,32.7433477 C110.831168,32.4277068 111.279401,32.1851805 112.052176,32.1245489 C117.208918,31.7042889 121.710097,29.852648 123.272139,27.7299483 C124.062584,26.6546294 125.315398,25.5341341 126.456302,26.4335025 C127.522991,27.2716449 127.687323,28.3766852 127.33392,29.068004 C127.09125,29.5387904 126.441577,30.1486728 125.585752,30.681874 L123.740398,35.8248585 C123.740398,35.8248585 132.695047,31.2287471 134.175806,30.6277811 C134.635819,30.4405366 135.643018,30.6848462 136.201985,31.4766232 C136.541252,31.9551372 136.487063,32.4395954 136.009969,32.6631 C133.386539,33.8876201 122.352112,39.6190876 122.352112,39.6190876 C122.352112,39.6190876 120.635162,44.236004 119.867688,45.5627657 C119.382347,46.4020969 118.363957,46.6309514 117.92986,46.5958802 L117.883329,46.5923136 L117.883329,46.5923136 Z M118.805122,41.298939 C117.87096,41.7382208 117.26664,42.1804746 117.187713,42.5472362 C117.144127,42.7523136 117.295501,43.1339359 117.559376,43.3199917 C117.96579,43.6053167 118.593669,42.0395954 118.805122,41.298939 L118.805122,41.298939 Z M95.38568,31.6751619 C94.5369232,33.141614 94.1116614,34.7364622 94.0987032,34.901713 C96.6903268,33.4786542 98.4809031,31.2792734 98.2288088,29.3580845 C98.2235078,29.3265799 98.1911125,29.3152858 98.1728533,29.3176635 C97.7110731,29.3836449 96.2043974,30.2622084 95.38568,31.6751619 L95.38568,31.6751619 Z" id="Shape"></path>
                </g>
            </g>
        </g>
    </g>
</svg>