<svg xmlns="http://www.w3.org/2000/svg" width="182" height="46" viewBox="0 0 182 46">
  <g fill="none">
    <polygon fill="#FFF" points="31.321 23.771 33.687 22.539 33.687 3.917 31.895 3.917 27.521 9.723 27.03 9.723 27.307 3.252 46.275 3.252 46.552 9.723 46.033 9.723 41.749 3.917 39.909 3.917 39.909 22.497 42.289 23.757 42.289 24.387 31.321 24.387"/>
    <path fill="#FFF" d="M48.7109506 22.9472243L48.7109506 2.31825095 46.8771103 1.57779468 46.8771103 1.19718631 53.5273764 0 54.2193916 0 54.2193916 9.7643346 54.4062357 9.6051711C55.9983464 8.24992676 58.0176639 7.50003456 60.1084411 7.48760456 63.0218251 7.48760456 64.3089734 9.12768061 64.3089734 12.193308L64.3089734 22.9472243 65.8660076 23.7914829 65.8660076 24.4142966 57.1742966 24.4142966 57.1742966 23.7914829 58.738251 22.9403042 58.738251 12.1656274C58.738251 10.4771103 58.0047148 9.80585551 56.6206844 9.80585551 55.7903608 9.78954535 54.9795114 10.0582003 54.3231939 10.5670722L54.3231939 22.9749049 55.8525475 23.8191635 55.8525475 24.4142966 47.1539163 24.4142966 47.1539163 23.8191635 48.7109506 22.9472243zM71.3675285 16.608365C71.5474525 20.02 73.0768061 22.6565779 76.6960456 22.6565779 78.4468441 22.6565779 79.6855513 21.8469202 80.8481369 21.2310266L80.8481369 21.9230418C79.2838123 23.8382154 76.933556 24.938227 74.4608365 24.9125475 68.8485932 24.9125475 65.9836502 21.7915589 65.9836502 16.3938403 65.9836502 11.1137643 69.1184791 7.82669202 74.1909506 7.82669202 78.9589354 7.82669202 81.4294297 10.2072243 81.4294297 16.4838023L81.4294297 16.608365 71.3675285 16.608365zM71.2775665 15.8263878L76.211635 15.5219011C76.211635 11.3006084 75.5196198 8.49102662 74.0387072 8.49102662 72.5577947 8.49102662 71.2706464 11.7504183 71.2706464 15.8194677L71.2775665 15.8263878zM0 32.6492776C0 23.6530798 5.94441065 20.4698099 12.5669962 20.4698099 14.918181 20.4192248 17.2601206 20.7798835 19.4871483 21.5355133L19.6186312 27.8051711 18.9888973 27.8051711 15.0997719 21.7431179C14.3177659 21.4313917 13.4764383 21.2966847 12.6361977 21.3486692 9.1138403 21.3486692 7.31460076 25.4177186 7.36996198 32.0818251 7.4391635 40.0607605 8.82319392 43.68 12.0549049 43.68 12.7159217 43.7005294 13.3744628 43.5899886 13.9925475 43.3547529L13.9925475 34.808365 11.8611407 33.5834981 11.8611407 32.8914829 22.1929278 32.8914829 22.1929278 33.6526996 20.1168821 34.8291255 20.1168821 43.2440304C17.6084853 44.1325528 14.9651075 44.5797496 12.3040304 44.5657795 4.7818251 44.5657795 0 41.0780228 0 32.6492776M22.0891255 28.4556654L22.0891255 27.936654 29.0092776 26.7117871 29.7704943 26.7740684 29.7704943 40.4344487C29.7704943 42.0814449 30.5593916 42.586616 31.8880608 42.586616 32.7647311 42.6009363 33.5983043 42.2071624 34.1440304 41.5209125L34.1440304 29.2791635 32.2479087 28.4556654 32.2479087 27.9158935 39.1680608 26.6910266 39.860076 26.753308 39.860076 42.4136122 41.7285171 43.1955894 41.7285171 43.6938403 34.8914068 44.5311787 34.1993916 44.4688973 34.1993916 42.3928517 34.0125475 42.3928517C32.6221558 43.7531776 30.7670839 44.5347812 28.8224335 44.5796198 25.5007605 44.5796198 23.978327 42.6142966 23.978327 39.6455513L23.978327 29.2653232 22.0891255 28.4556654zM66.4334601 26.6841065L67.0009125 26.7463878 67.0009125 31.8326996 67.1254753 31.8326996C67.8659316 28.1234981 69.4990875 26.7463878 71.4920913 26.7463878 71.7812492 26.7315084 72.0705011 26.7738379 72.34327 26.8709506L72.34327 32.0403042C71.8748858 31.9411944 71.3961937 31.8993669 70.9177186 31.9157414 69.6223462 31.883646 68.3361664 32.1413548 67.1531559 32.670038L67.1531559 42.635057 68.7309506 43.5069962 68.7309506 44.1574905 59.7347529 44.1574905 59.7347529 43.5139163 61.3540684 42.635057 61.3540684 29.0023574 59.4579468 28.4349049 59.4579468 27.9712548 66.4334601 26.6841065z"/>
    <path fill="#FFF" d="M83.8030418 27.1131559L83.8030418 21.7846388 81.9069202 21.0926236 81.9069202 20.6912548 88.9031939 19.3764259 89.5952091 19.473308 89.5952091 42.3790114 91.5259316 43.0710266 91.5259316 43.6592395 84.6057795 44.5865399 84.0660076 44.5242586 84.0660076 42.6696578 83.9068441 42.6696578C82.717272 43.9301178 81.0516716 44.6310266 79.3187833 44.6003802 75.5542205 44.6003802 72.8 41.721597 72.8 35.8325475 72.8 29.6044106 75.9971103 26.5803042 80.8412167 26.5803042 81.8609135 26.5365571 82.8775179 26.7209644 83.8168821 27.120076M83.8168821 41.7838783L83.8168821 28.0888973C83.2876684 27.6390074 82.5980188 27.4241166 81.9069202 27.4937643 80.0384791 27.5629658 78.8828137 30.3863878 78.8828137 35.4173384 78.8828137 39.9431179 79.7132319 42.4758935 82.2044867 42.3928517 82.7979744 42.391877 83.3709283 42.1754825 83.8168821 41.7838783M99.1865399 26.6702662L99.7885932 26.7325475 99.7885932 42.6488973 101.366388 43.5208365 101.366388 44.1713308 92.3701901 44.1713308 92.3701901 43.5277567 93.9825856 42.6488973 93.9825856 29.2445627 92.0380228 28.4902662 92.0380228 27.9574144 99.1865399 26.6702662zM99.8162738 22.3797719C99.7784684 24.0397257 98.4037461 25.3556197 96.7437262 25.3208365 95.6526676 25.3736211 94.6211215 24.8215886 94.0597822 23.8845222 93.4984429 22.9474559 93.4984429 21.777487 94.0597822 20.8404207 94.6211215 19.9033544 95.6526676 19.3513219 96.7437262 19.4041065 98.4124614 19.3809694 99.785952 20.7111518 99.8162738 22.3797719zM121.545551 42.635057L121.545551 29.0992395 119.64251 28.4072243 119.64251 27.7498099 126.562662 26.4626616 127.254677 26.524943 127.254677 28.5802281 127.441521 28.5802281C129.083043 27.1759038 131.170323 26.4008384 133.33057 26.3934601 136.333916 26.3934601 137.669506 27.8190114 137.669506 30.9815209L137.669506 42.6073764 139.281901 43.5069962 139.281901 44.1574905 130.285703 44.1574905 130.285703 43.5139163 131.898099 42.635057 131.898099 31.3067681C131.898099 29.5698099 131.136882 28.8708745 129.711331 28.8708745 128.855188 28.84469 128.015633 29.1107119 127.330798 29.6251711L127.330798 42.6281369 128.915513 43.5069962 128.915513 44.1574905 119.919316 44.1574905 119.919316 43.5139163 121.545551 42.635057zM111.573612 34.1301901L111.573612 31.8326996C111.573612 28.4141445 110.826236 27.2930798 108.715589 27.2930798 108.483841 27.2993303 108.252714 27.3201317 108.023574 27.3553612L104.259011 32.4555133 103.73308 32.4555133 103.73308 27.7844106C105.76151 27.0914389 107.887051 26.7247246 110.030418 26.6979468 114.632319 26.6979468 117.303498 27.9712548 117.303498 31.8257795L117.303498 42.904943 118.950494 43.3409125 118.950494 43.7768821C117.90245 44.3137655 116.736838 44.580191 115.55962 44.5519392 113.28981 44.5519392 112.203346 43.8045627 111.705095 42.5589354L111.552852 42.5589354C110.590951 43.8668441 109.22076 44.634981 107.075513 44.634981 104.307452 44.634981 102.473612 42.9257034 102.473612 39.9707985 102.473612 37.0158935 104.245171 35.5557414 107.85057 34.8706464L111.573612 34.1301901zM111.573612 41.7769582L111.573612 34.9398479 110.424867 35.0298099C108.618707 35.1820532 107.968213 36.3377186 107.968213 38.8843346 107.968213 41.6523954 108.867833 42.3444106 110.141141 42.3444106 110.686053 42.3941332 111.22089 42.174514 111.573612 41.7561977L111.573612 41.7769582zM51.4374905 34.1301901L51.4374905 31.8326996C51.4374905 28.4141445 50.6901141 27.2930798 48.5794677 27.2930798 48.3477194 27.2993303 48.1165926 27.3201317 47.8874525 27.3553612L44.1228897 32.4555133 43.5969582 32.4555133 43.5969582 27.7844106C45.6298202 27.0901092 47.7601295 26.7233783 49.9081369 26.6979468 54.510038 26.6979468 57.1812167 27.9712548 57.1812167 31.8257795L57.1812167 42.904943 58.8282129 43.3409125 58.8282129 43.7768821C57.7801684 44.3137655 56.6145566 44.580191 55.4373384 44.5519392 53.1675285 44.5519392 52.0810646 43.8045627 51.5828137 42.5589354L51.4305703 42.5589354C50.4686692 43.8668441 49.0984791 44.634981 46.9532319 44.634981 44.1851711 44.634981 42.3513308 42.9257034 42.3513308 39.9707985 42.3513308 37.0158935 44.1228897 35.5557414 47.728289 34.8706464L51.4374905 34.1301901zM51.4374905 41.7769582L51.4374905 34.9398479 50.2887452 35.0298099C48.4825856 35.1820532 47.8320913 36.3377186 47.8320913 38.8843346 47.8320913 41.6523954 48.731711 42.3444106 50.005019 42.3444106 50.549931 42.3941332 51.0847683 42.174514 51.4374905 41.7561977L51.4374905 41.7769582z"/>
    <path fill="#E6E7E8" d="M179.135057,28.7601521 C179.135057,31.3275285 177.481141,33.2305703 175.100608,34.0471483 L175.100608,34.2063118 L180.325323,43.9291255 L181.391027,44.5519392 L181.391027,45.0847909 L174.034905,45.0847909 L169.031635,34.9467681 L168.028213,34.9467681 L168.028213,44.1436502 L169.938175,44.5519392 L169.938175,45.0847909 L159.121977,45.0847909 L159.121977,44.5519392 L161.281065,44.0813688 L161.281065,24.6288213 L158.872852,23.0648669 L158.872852,22.5320152 L170.63711,22.5320152 C176.761445,22.5320152 179.135057,24.9125475 179.135057,28.7601521 Z M172.602433,28.7601521 C172.602433,24.5111787 171.509049,23.161749 169.100837,23.161749 L168.035133,23.161749 L168.035133,34.261673 L169.038555,34.261673 C171.502129,34.261673 172.602433,32.7876806 172.602433,28.7255513 L172.602433,28.7601521 Z"/>
    <polygon fill="#BCBEC0" points="150.493 23.847 152.679 23.065 152.679 22.532 142.078 22.532 142.078 23.065 143.579 23.909 153.489 45.078 156.222 45.078 158.326 40.725"/>
  </g>
</svg>
