<svg xmlns="http://www.w3.org/2000/svg" width="66.93" height="64.45" viewBox="0 0 66.93 64.45"><path fill="#767676" d="M34.99 16.81v-.09.09z"/><circle fill="#E31F26" cx="26.62" cy="37.27" r="3.8"/><circle fill="#E31F26" cx="38.79" cy="37.27" r="3.8"/><circle fill="#E31F26" cx="32.71" cy="49.44" r="3.8"/><circle fill="#E31F26" cx="27.43" cy="60.65" r="3.8"/><circle fill="#E31F26" cx="20.54" cy="49.44" r="3.8"/><circle fill="#E31F26" cx="14.8" cy="60.24" r="3.8"/><path fill="#767676" d="M54.76 15.21c-1.61 0-3.23.29-4.71.91-2.83-3.2-7.01-4.9-11.26-4.71C36.7 4.77 30.8 0 23.88 0 14.99 0 7.76 7.17 7.76 15.97 3.26 17.97 0 22.6 0 27.38c0 6.71 5.46 12.17 12.17 12.17h4.56l2.28-4.56h-6.84c-4.26 0-7.61-3.4-7.61-7.61 0-3.49 2.82-6.71 6.08-7.61l1.37 3.04 1.82-.61c-.75-2.04-1.52-4.01-1.52-6.24 0-6.3 5.17-11.41 11.56-11.41 6.38 0 11.1 5.87 11.1 12.17 5.37-2.34 12.05.39 13.69 6.08 1.4-1.87 3.75-3.04 6.08-3.04 4.2 0 7.61 3.4 7.61 7.61 0 4.2-3.41 7.61-7.61 7.61h-6.08l-2.28 4.56h8.37c6.72 0 12.17-5.45 12.17-12.17.01-6.71-5.44-12.16-12.16-12.16z"/></svg>