<svg xmlns="http://www.w3.org/2000/svg" viewBox="37.88 42.76 66.1 56.91" enable-background="new 37.88 42.76 66.1 56.91">
    <path fill="#DCDCDC" d="M41.35 78.54l6.82-6.34 4.65-10.56 9.45-3.57 6.86 2.64 3.53 7.88 5.34.95 4.51 2.65 4.88 2.15 5.36-.31s5.54 2.48 6.13 2.48 2.45 9.76 2.45 9.76l-3.41 4.65-4.81 6.35-25.88.54-1.59-5.34-19.79-.62-5.27-6.2.77-7.11z"/>
    <path fill="#767676" d="M103.98 83.14c0-6.64-5.38-12.02-12.02-12.02-1.59 0-3.19.29-4.66.9-2.79-3.16-6.92-4.85-11.12-4.66-2.06-6.55-7.88-11.26-14.72-11.26-8.78 0-15.93 7.08-15.93 15.77-4.44 1.98-7.66 6.55-7.66 11.27 0 6.63 5.39 12.02 12.02 12.02h14.5c1.35 2.69 3.97 4.51 6.98 4.51h17.58c3.13 0 5.79-2.24 6.91-5.26 4.7-1.64 8.12-6.02 8.12-11.27zM88.96 96.21H71.38c-2.65 0-4.81-2.35-4.81-5.26 0-2.91 2.16-5.26 4.81-5.26.97 0 1.8.22 2.56.75.96-2.56 3.33-4.36 6.01-4.36 3.16 0 5.79 2.56 6.31 5.86.75-.7 1.64-1.13 2.7-1.13 2.36 0 4.36 2.07 4.36 4.66-.01 2.59-2.01 4.74-4.36 4.74zm7.21-6.91c-.87-3.46-3.77-6.01-7.21-6.01-.35 0-.71.1-1.05.15-1.72-2.9-4.63-4.81-7.96-4.81-2.84 0-5.42 1.34-7.21 3.61-.42-.08-.92-.15-1.35-.15-4.6 0-7.9 4.18-7.96 8.56H49.9c-4.2 0-7.51-3.36-7.51-7.51 0-3.45 2.79-6.63 6.01-7.51l1.35 3 1.8-.6c-.74-2.02-1.5-3.96-1.5-6.16 0-6.22 5.11-11.27 11.42-11.27s10.97 5.8 10.97 12.02c5.3-2.31 11.9.39 13.52 6.01 1.38-1.84 3.71-3 6.01-3 4.15 0 7.51 3.36 7.51 7.51-.01 2.57-1.34 4.81-3.31 6.16z"/>
    <g fill="#04588A"><path d="M95.87 70.85l7.96-.07.15-3.38-7.81-1.05zM82.5 50.87l-.08-7.96-3.38-.15-1.05 7.81zM69.73 53.42l-5.71-5.55-2.48 2.25 4.81 6.23zM93.31 58.08l5.56-5.71-2.25-2.47-6.24 4.8zM72.58 61.39c.27-.29 2.97-3.12 7.21-2.85 4.96.31 8.73 4.65 8.41 9.62-.09 1.39-.56 2.61-1.2 3.75.1.1.21.2.3.3 1.54-.64 3.19-.91 4.84-.89.26-.91.5-2.05.56-3.01.46-7.44-5.18-13.81-12.62-14.27-4.25-.26-8.3 1.5-10.97 4.43 1.31.78 2.46 1.8 3.47 2.92"/></g>
</svg>