<svg xmlns="http://www.w3.org/2000/svg" width="60.57" height="60.57" viewBox="41.13 40.98 60.57 60.57" enable-background="new 41.13 40.98 60.57 60.57"><path fill="#04588A" d="M71.41 60.25c6.07 0 11.01 4.94 11.01 11.01 0 6.07-4.94 11.01-11.01 11.01-6.07 0-11.01-4.94-11.01-11.01s4.94-11.01 11.01-11.01zm0-5.51c-9.11 0-16.52 7.41-16.52 16.52s7.41 16.52 16.52 16.52 16.52-7.41 16.52-16.52c0-8.99-7.53-16.52-16.52-16.52zM92.06 74.02l9.63-.69V69.2l-9.63-.69zM41.13 73.33l9.63.69v-5.51l-9.63.69M73.48 101.55l.68-9.64h-5.5l.69 9.64"/><path fill="#04588A" d="M74.16 50.62l-.68-9.64h-4.13l-.69 9.64zM84.07 87.78l7.3 6.33 2.89-2.89-6.33-7.29zM58.75 54.74l-7.3-6.33-2.89 2.89 6.33 7.3zM54.89 83.93l-6.33 7.29 2.89 2.89 7.3-6.33zM87.93 58.6l6.33-7.3-2.89-2.89-7.3 6.33z"/></svg>