<svg xmlns="http://www.w3.org/2000/svg" width="201.41" height="231.18" viewBox="0 0 201.41 231.18"><g fill-rule="evenodd" clip-rule="evenodd" fill="#0C0C0C"><path d="M71.36 215.69c-.01-1.4.06-2.8-.03-4.19-.04-.63-.06-1.23.06-1.84.01-.07.05-.16.03-.21-.04-.09-.1-.19-.18-.25-.19-.13-.42-.1-.64-.1-.88 0-1.77-.01-2.65.01-2.1.04-4.2-.04-6.3.04-1.21.05-2.43-.05-3.64-.1-.46-.02-.6.07-.61.53-.01.44.03.88.03 1.33.01 2.62.02 5.23.04 7.85 0 .25-.03.52.12.75.09.13.22.21.37.19.09-.01.18-.11.24-.19.19-.3.14-.65.14-.97-.03-1.43-.01-2.87 0-4.3.01-1.1-.02-2.21-.12-3.3-.11-1.3.25-1.17 1.24-1.13.43.02.5.11.51.53.08 1.87-.11 3.74.03 5.62-.27 1.42.19 2.86-.08 4.29-.04.21.35.5.62.47.22-.02.29-.21.34-.38.02-.07.03-.14.02-.22-.03-1.1-.06-2.19-.08-3.29-.03-1.73-.05-3.46-.08-5.18-.01-.48-.01-.96 0-1.44 0-.2.1-.37.32-.37.92-.02 1.84-.03 2.76-.04.21 0 .34.13.37.34.02.22.03.44.03.66.02 1.36.04 2.72.05 4.08.02 1.98.03 3.96.04 5.94 0 .37-.04.74.13 1.08.07.14.18.23.34.22.16-.02.25-.14.29-.29.02-.07.04-.14.04-.21 0-.99.02-1.98-.03-2.97-.05-1.03-.05-2.05-.02-3.08.03-.73.19-1.47.04-2.2-.2-1.02-.07-2.05-.13-3.07-.02-.37.14-.5.56-.5.74 0 1.47.02 2.21.03.22 0 .33.13.33.35v.44c.02 1.95.03 3.9.06 5.85.02 1.66.05 3.31.08 4.97 0 .18.01.37.05.55.04.22.31.41.47.37.24-.06.21-.28.22-.45.06-1.25.01-2.5.01-3.74.01-2.47 0-4.93-.06-7.4 0-.18.02-.37.05-.55.05-.34.14-.41.52-.4.32.01.65.03 1.02.05V211c.01 2.54.03 5.08.04 7.62 0 .22 0 .44.03.66.03.2.4.45.59.4.22-.05.25-.25.27-.43.01-.14-.01-.29-.02-.44-.01-1.06-.03-2.09-.04-3.12zM149.35 209.12c-.3-.09-.54-.43-.92-.24-.24.12-.51.05-.76.04l-2.64-.03c-1.47-.01-2.94-.03-4.41-.01-2.06.03-4.12.1-6.17.15-.11 0-.22.03-.32.06-.18.04-.25.32-.08.41.37.19.38.49.38.83-.01 2.24 0 4.49 0 6.73 0 .46.15.73.35.69.22-.04.43-.33.46-.69.01-.18-.03-.36-.04-.55-.02-.4-.05-.81-.06-1.21l-.03-4.74c-.01-1.07-.11-.87.95-.99.17-.02.36.06.54.09.21.04.29.18.3.39.04 1.54.11 3.09.13 4.63.01.88-.07 1.76-.04 2.63.01.31-.05.66.15.97.12.18.39.22.56.07.12-.11.19-.23.19-.38-.03-.8-.08-1.6-.09-2.41-.02-1.36-.01-2.72-.01-4.08v-1.75c.47-.26.96-.17 1.43-.18.66-.01 1.3.22 1.97.07.21-.05.32.13.31.35-.11 1.54-.07 3.08-.05 4.62.01.84.01 1.69.01 2.54 0 .22.02.44.04.66.02.26.2.38.43.42.24.04.33-.16.38-.32.07-.24.12-.5.12-.76-.06-1.84.11-3.68-.07-5.51-.05-.51-.04-1.03-.04-1.54 0-.34.1-.45.44-.5.84-.13 1.67.03 2.55.04.04 1.09.15 2.15.11 3.2-.07 1.62.12 3.23.04 4.84-.01.18.03.37.17.51.11.11.25.17.38.06.25-.2.36-.44.32-.77-.12-1.03-.09-2.05-.1-3.08-.02-1.17.11-2.35-.01-3.53-.04-.38-.06-.79.09-1.18.7-.04 1.35-.17 1.99-.05.03.05.07.08.07.1l.03 9.72c0 .29.01.59.03.88 0 .09.41.37.51.35.15-.03.25-.13.33-.27.23-.37.19-.79.16-1.19-.11-1.39.03-2.78-.13-4.16-.03-.25-.02-.51-.02-.77-.01-1.25-.01-2.5-.02-3.76 0-.4-.1-.8.21-1.15.05-.06-.03-.22-.12-.25zM120.06 209c-.84 0-1.7-.09-2.53-.05-.87.04-1.75.02-2.62.15-.53.08-.66.13-.69.52-.01.11 0 .22 0 .33.01 1.91.03 3.82.04 5.73.01 1.51 0 3.02.02 4.53 0 .33-.07.67.11.97.05.09.16.19.25.2.09 0 .2-.1.26-.18.2-.29.14-.63.13-.96-.01-1.66-.03-3.31-.05-4.97-.02-1.4 0-2.8-.09-4.19-.1-1.65-.22-1.27 1.37-1.37.04 0 .07.01.11.01.32.03.46.14.5.47.03.18.02.37.02.55 0 .62-.01 1.25-.01 1.88l.06 8.62c.01.59.04 1.18.07 1.77.01.14.05.29.12.41.04.08.14.16.24.2.15.06.18-.08.24-.17.18-.3.15-.64.16-.97.06-1.22-.05-2.43-.09-3.64-.05-1.62-.04-3.24-.02-4.86.02-1.36-.16-2.72.06-4.2.52-.02 1-.05 1.47-.06.33 0 .46.13.48.46.01.26.04.51.03.77-.05 1.62 0 3.23.02 4.85.02 1.14.15 2.27.07 3.41-.03.38.47.76.61.68.25-.14.56-.39.56-.66v-.22c0-1.07-.22-2.14-.22-3.21-.01-2.1-.14-4.19-.15-6.29.02-.36-.21-.52-.53-.51zM106.75 209.45c0-.07-.01-.15-.02-.22-.03-.25-.22-.43-.46-.34-.47.18-.94.13-1.42.13-1.28.01-2.56.01-3.84.01-.4 0-.61.14-.62.47-.01.95-.17 1.91-.02 2.86 0 .08.01.16.01.23-.15 1.62 0 3.24-.03 4.85-.02.81.02 1.62.04 2.43.01.19.06.37.26.45.15.06.43-.12.52-.32.11-.21.06-.43.07-.65.07-1.39-.07-2.78-.1-4.17-.03-1.43.03-2.85-.05-4.28-.08-1.36-.2-1.29 1.21-1.19.11.01.22-.02.33 0 .16.02.28.11.29.27.03.22.04.44.04.66-.01.81-.03 1.62-.03 2.42.01 2.03.04 4.05.06 6.08 0 .22.02.44.04.66.02.16.12.27.28.29.15.02.29 0 .35-.18.07-.21.2-.38.19-.62-.02-.62.01-1.25 0-1.87-.04-1.58-.11-3.15-.15-4.73-.01-.51-.13-1.02-.04-1.54.08-.46-.23-1.03.15-1.37.37-.33.93.02 1.39-.1.1-.03.22.02.33.03.21.03.31.14.32.36.02.37.07.73.07 1.1 0 2.03-.02 4.05-.03 6.08 0 .44.03.88.06 1.32.02.29.23.55.43.58.17.03.36-.25.38-.57.01-.18 0-.37 0-.55.1-2.85-.09-5.71-.01-8.58zM92.75 211.91c0-.7-.04-1.39-.08-2.09-.02-.41-.08-.81-.41-1.22-.29.35-.59.49-.99.47-.92-.03-1.84-.01-2.76-.01-.48 0-.96.01-1.43.02-.32.01-.44.15-.47.48-.01.15-.01.29-.01.44.01 1.58 0 3.16.03 4.74.01.7-.1 1.4-.06 2.09.04.84.09 1.69.09 2.53 0 .18.03.37.1.54.05.13.16.25.33.25.21.01.34-.12.42-.3.04-.1.05-.22.05-.32-.01-.62-.02-1.25-.04-1.87-.03-.91-.15-1.83-.1-2.73.07-1.25-.02-2.49-.07-3.73-.07-1.85-.24-1.4 1.5-1.47.37-.02.48.08.49.43.03.66.02 1.33.03 1.99.03 1.58.05 3.15.09 4.73.01.33.05.66.12.98.03.15.17.24.33.23.16 0 .26-.11.31-.26.02-.07.05-.14.05-.21-.03-1.18.01-2.35.05-3.53.04-1.21-.06-2.42-.09-3.64-.02-.7.01-.71.74-.72.89 0 .82-.09.86.83.01.29 0 .59 0 .88 0 .77-.02 1.54-.01 2.31.02 1.5.05 3 .08 4.51.01.66.03 1.32.06 1.98.01.2.15.33.37.32.2-.01.38-.13.43-.29.06-.24.06-.51.05-.76-.03-1.28-.09-2.57-.1-3.85-.01-1.26.04-2.5.04-3.75zM201.4 147.53c-.05-.36-.11-.72-.14-1.09-.14-2.1.07-4.19-.02-6.29-.04-1.1.08-2.21-.03-3.3-.12-1.21.11-2.42-.09-3.62.26-1.5.03-3.01.06-4.51.04-2.28-.08-4.56 0-6.83.07-1.95-.17-3.89-.1-5.84.01-.26.02-.51.01-.77-.02-.37-.04-.73-.09-1.1-.03-.2-.33-.32-.54-.22-.17.08-.29.22-.32.42-.54.17-1.1 0-1.64.07-.21.03-.33-.13-.34-.34-.01-.29-.02-.59-.01-.88.01-1.62.04-3.23.04-4.85 0-2.39-.03-4.78-.04-7.17 0-.44-.03-.87-.19-1.29.19-.94.08-1.89.04-2.84-.05-1.47-.02-2.94-.08-4.41-.04-1.09.11-2.19-.11-3.28.23-1.86-.06-3.74.08-5.6.01-.1-.02-.23-.07-.32-.1-.15-.25-.31-.44-.27-.12.03-.28.16-.31.28-.06.25-.06.51-.06.76-.01.99.01 1.98-.01 2.98-.01.47-.12.95-.09 1.42.14 2.28.19 4.55.13 6.83-.01.51.01 1.03 0 1.54 0 .21-.12.35-.34.34-.62-.01-1.25-.02-1.87-.04-.11.03-.21.07-.32.07-2.65-.04-5.29-.05-7.94.03-1.61.05-3.22-.08-4.84 0-1.36.07-2.72-.05-4.08-.05-1.1 0-2.2.06-3.3.07-.48 0-.95-.1-1.43-.09-2.2.02-4.41.07-6.61.1-.26 0-.52.05-.77 0-.69-.14-1.38-.13-2.13-.07.02-.45.21-.8.39-1.14l1.62-3c.99-1.84 1.97-3.68 2.94-5.53.71-1.36 1.21-2.82 2-4.15.35-.59.55-1.28.82-1.92.11-.27.22-.54.37-.8.15-.27.37-.44.71-.42.66.04 1.31-.07 1.98-.04.99.04 1.98.04 2.97-.04 1.02-.08 2.05.01 3.07.02 1.39.01 2.78.04 4.16 0 1.32-.04 2.65.02 3.97-.04.72-.03 1.11.4 1.33.9.43.97.86 1.95 1.1 2.99.02.11.04.22.09.32.67 1.24.94 2.62 1.43 3.92.74 1.96 1.54 3.89 2.34 5.82.35.85.7 1.69 1.05 2.54.07.02.14.06.21.07.66.09.79-.04.57-.59-.49-1.19-.98-2.38-1.51-3.55-.97-2.18-1.83-4.41-2.66-6.65-.5-1.38-1.04-2.75-1.47-4.15-.35-1.11-.85-2.19-.73-3.41.05-.47.01-.95 0-1.43-.01-.81-.16-1.64-.09-2.42s.02-1.53-.03-2.3c-.02-.4-.05-.81-.03-1.21.09-1.36-.06-2.71.04-4.07.09-1.24-.06-2.49-.08-3.73-.01-.55.06-1.1.03-1.65-.1-1.73-.05-3.45-.06-5.18 0-.66-.05-1.32-.03-1.98.03-1.51.04-3.02-.11-4.52-.03-.31-.19-.53-.32-.48-.21.09-.21.28-.23.46-.03.22-.04.43-.04.65.03 1.25.01 2.49.03 3.74.02 1.2-.12 2.4-.01 3.6.07.88.01 1.77.01 2.65 0 .1-.02.16-.1.14-.07-.01-.17-.04-.18-.09-.15-.49-.27-.99-.42-1.48-.33-1.13-.74-2.24-.99-3.38-.31-1.4-.72-2.77-1.11-4.15-.1-.35-.18-.71-.25-1.07-.35-1.58-.62-3.18-1.05-4.74-.53-1.91-.85-3.87-1.3-5.8-.26-1.13-.39-2.32-.53-3.48-.16-1.32-.56-2.58-.71-3.89-.09-.77-.18-1.54-.4-2.28-.5-1.67-.6-3.4-.88-5.1-.18-1.12-.3-2.26-.49-3.38-.09-.55-.17-1.09-.13-1.64.05-.67-.27-1.36.09-2.02.03-.06-.01-.14-.01-.22-.03-1.95-.08-3.9-.1-5.85-.02-3.09 0-6.18-.03-9.28-.01-.77.02-1.55-.2-2.3.03-.25.14-.52-.22-.62-.07-.06-.14-.05-.21.02-.15.06-.22.18-.22.33-.01.39 0 .77 0 1.16-.02.33-.07.66-.07.99.01 1.76.04 3.53.05 5.29.01 2.79 0 5.59.02 8.38.02 2.35-.11 4.69-.41 7.03-.31 2.44-.81 4.85-1 7.32-.12 1.67-.57 3.32-.84 4.98-.46 2.83-1.2 5.59-1.74 8.4-.41 2.13-.99 4.22-1.55 6.31-.42 1.6-.85 3.19-1.29 4.78-.37 1.34-.77 2.68-1.16 4.02-.22.18-.25.45-.35.69.15-.32.12-.62-.05-.92-.21-1.38.09-2.76-.1-4.14-.05-.36-.11-.73-.05-1.08.12-.78-.02-1.53-.13-2.28-.17-.11.03-.56-.4-.44-.03.37-.08.73-.08 1.1.02 1.94-.1 3.89.02 5.84.01.18.02.37.02.55-.01.62-.04 1.25-.04 1.88-.01.66 0 1.32 0 1.99 0 .62 0 1.25-.04 1.87-.04.64.03 1.28.04 1.92.04 4.41.04 8.82.05 13.23 0 .36-.09.72.12 1.08.12.19.01.42-.1.62-.36.68-.74 1.35-1.03 2.06-.95 2.31-2.24 4.46-3.21 6.75-.03.07-.08.12-.12.19-.96 1.82-1.92 3.63-2.89 5.45-.27.5-.58.98-.9 1.51-.35-.61-.13-1.22-.27-1.78v-.23c.06-.13.13-.25.11-.41-.04-.4-.11-.81-.08-1.2.09-1.4-.07-2.78-.09-4.17-.01-.49.07-1.02-.16-1.5.02-.33.1-.65-.02-.97-.04-.11-.26-.17-.38-.11-.14.07-.22.19-.27.33-.19.49-.22.99-.01 1.48-.01.15-.04.29-.04.44.01 1.51.04 3.01.05 4.52l.03 3.42c0 .4-.04.79-.03 1.19.02 1.03.13 2.06.08 3.08-.08 1.88.14 3.74.11 5.62-.02.88-.02 1.76 0 2.64.04 1.54.03 3.08.02 4.62 0 .48-.17.64-.67.65-.51.01-1.02-.01-1.53-.02-.33-.01-.48.09-.55.38-.04.18-.07.36-.07.54 0 .37.03.73.02 1.1-.02 3.46-.04 6.91-.05 10.37 0 .1-.02.15-.1.14-.38-.29-.28-.81-.55-1.14.01-1.76.04-3.52.04-5.28 0-1.1-.02-2.2-.04-3.3-.01-.2.03-.46-.26-.54-.2-.05-.39.19-.42.53-.01.11 0 .22 0 .33-.01 1.06-.02 2.12-.02 3.19 0 1.03-.03 2.06.02 3.08.03.51.1 1.02-.06 1.52-.1.06-.18.13-.17.25.06.6-.09 1.17-.21 1.74-.23 1.07-.22 2.2-.79 3.19-.09.15-.1.35-.1.54-.01.3-.11.57-.19.85-.2.67-.33 1.35-.51 2.02-.13.49-.21 1.01-.55 1.43-.15.19-.16.4-.07.62-.13 1.62-.01 3.25 0 4.87-.16.44-.04.88 0 1.31.04.47-.08.92-.04 1.4.1 1.28.04 2.57.07 3.86.01.39-.21.7-.26 1.06.34.28.24.67.24 1.03 0 1.54-.03 3.09-.01 4.64.02 2.21.06 4.41.08 6.62.01.85-.03 1.69-.06 2.54-.02.49-.07.53-.61.56-.04 0-.07.01-.11.01-.33.01-.4-.05-.4-.35 0-.29.01-.59 0-.88-.01-.85-.01-1.69-.03-2.54-.02-.5 0-1.02-.58-1.3-.18-.09-.21-.36-.26-.58-.74-3.04-1.48-6.07-2.24-9.1-.06-.25-.19-.48-.26-.72-.12-.37-.35-.48-.74-.47-1.62.04-3.24.03-4.86.04-.92.01-.9.08-1.2-.92-.21-.72-.34-1.49-.38-2.25-.08-1.43-.07-2.86-.08-4.29-.01-.7 0-1.4 0-2.09 0-.24-.09-.44-.29-.56-.08-.05-.22-.08-.3-.05-.08.03-.19.15-.19.24-.03.51-.06 1.02-.04 1.53.05 1.18.05 2.36-.01 3.53-.03.55-.14 1.11-.08 1.64.1.99-.23 1.88-.52 2.78-.07.22-.19.39-.45.41-.84.05-1.69.14-2.53.16-.95.03-1.91 0-2.86-.02-.28-.01-.48.08-.69.26-.3.24-.5.53-.62.89-.23.74-.44 1.48-.69 2.21-.86 2.47-1.31 5.05-1.96 7.57-.06.25-.09.51-.09.76.02.96.06 1.91.08 2.87.01.39-.02.78.21 1.18-.21.03-.36.06-.5.06-.49 0-.57-.08-.6-.57-.01-.22 0-.44-.01-.66-.02-1.69-.04-3.39-.04-5.08 0-1.43.08-2.87-.06-4.3.28-2.12-.13-4.23.02-6.35.08-1.12-.06-2.26-.11-3.39.16-.67.19-1.63.06-2.2-.01-.03-.05-.05-.07-.08.26-.66.13-1.32.02-1.99.05-.06.05-.12.01-.19.36-.61.58-1.2.25-1.93-.17-.36-.14-.85.07-1.26.01-.01-.09-.08-.14-.12-.76-1.06-1.07-2.32-1.53-3.51-.41-1.06-.74-2.15-1.09-3.23-.46-1.43-.91-2.86-1.35-4.29-.05-.17-.06-.36-.06-.54-.01-.58.01-1.16-.01-1.74-.03-.8-.09-1.6-.13-2.39.17-.17.13-.34.01-.52.04-.14.04-.27-.05-.39.01-.14 0-.27-.2-.23-.09-.04-.16-.02-.21.07-.37.31-.25.74-.25 1.12 0 2.04.02 4.08.03 6.12-.32.33-.18.77-.28 1.15-.66 2.45-1.31 4.9-1.96 7.36-.07.25-.12.49-.39.62-.23.11-.26.33-.24.56.2 2.87-.02 5.73.09 8.6.07 1.72-.13 3.46-.05 5.18.12 2.64-.04 5.28.09 7.91.09 1.87.01 3.75.05 5.62.04 1.77.01 3.54.01 5.31 0 .81.01 1.62.02 2.43 0 .16-.04.29-.2.35-.11.04-.2-.04-.27-.12-.09-.1-.21-.27-.34-.08-.19.27-.54.22-.76.42-.09.08-.15.16-.14.27.01.13.12.21.22.21.39 0 .5.21.49.56-.01.18.05.37.05.55.01.32-.13.45-.48.44-1.36-.02-2.71-.06-4.07-.07-.62-.01-1.25.02-1.87.03-1.13.02-2.27.06-3.4.05-1.99 0-3.98-.04-5.96-.05-1.18 0-2.35.06-3.53.04-1.17-.02-2.34.14-3.52-.02-.11-.01-.22.01-.33.01-2.09 0-4.19 0-6.28.02-1.73.01-3.46.05-5.18.08-.83.01-1.67.02-2.5 0-.42-.01-.59-.19-.6-.62-.01-.44.03-.88.01-1.32-.01-.16.01-.4-.23-.44-.13-.03-.28.02-.46.03-.02-1.59-.03-3.17-.05-4.74-.01-.77-.08-1.55-.03-2.32.2-3.08-.09-6.16.01-9.25.06-1.72-.02-3.45-.01-5.18 0-.44.15-.89.1-1.32-.22-1.72 0-3.44-.06-5.17-.05-1.32-.1-2.64-.02-3.96.01-.18-.06-.37-.05-.55.07-.87-.15-1.77.33-2.59.11-.18.05-.36 0-.53-.08-.28-.19-.56-.29-.83-.56-1.4-1.12-2.8-1.52-4.25-.34-1.2-.81-2.35-1.15-3.55-.19-.67-.57-1.27-.56-2 .01-.85-.01-1.69 0-2.54.02-1.36-.05-2.72-.15-4.08-.03-.41-.17-.72-.41-1.06-.29.41-.29.82-.29 1.22 0 2.24 0 4.49-.01 6.73 0 .36-.07.73-.15 1.09-.14.68-.3 1.36-.46 2.05-.4 1.76-.79 3.52-1.2 5.28-.1.43-.26.84-.36 1.27-.11.5-.62.67-.85 1.1.26.22.48.44.35.84-.08.23-.04.51-.04.77-.02 1.51.04 3.01-.14 4.51-.04.29-.05.59-.01.88.17 1.35.12 2.71.09 4.07-.03 1.23-.12 2.46 0 3.69.06.69.04 1.39 0 2.08-.06.88-.21 1.75.01 2.63.04.17.02.37 0 .55-.15 1.65-.01 3.3-.05 4.95-.02.8.04 1.6.05 2.4 0 .49-.07.55-.6.56-.18 0-.36-.02-.56-.03-.04-.17-.09-.3-.1-.45-.02-.37-.03-.74-.04-1.1-.02-.99-.01-1.99-.05-2.98-.02-.43-.12-.52-.61-.55-.27-.02-.4-.12-.46-.37-.12-.54-.25-1.07-.37-1.61-.08-.4-.12-.81-.23-1.19-.6-2.09-1-4.21-1.51-6.32-.08-.32.06-.74-.21-.94-.28-.2-.67-.25-1.02-.32-.21-.05-.44-.03-.66-.03-.92 0-1.84.02-2.76.02-.44 0-.88-.03-1.33-.05-.24-.01-.41-.11-.49-.36-.23-.7-.46-1.4-.71-2.09-.14-.39-.18-.78-.18-1.19 0-1.83.14-3.67.04-5.5-.02-.48-.18-.76-.45-.73-.25.03-.43.26-.44.67-.03 1.03-.08 2.06-.02 3.09.06 1.02-.21 2.04-.06 3.06l-.78 2.76c-.09.31-.31.38-.6.36-.59-.03-1.18-.04-1.76.08-.13.03-.29 0-.43-.04-.78-.23-1.53.03-2.28.12-.41.05-.73.31-.86.75-.16.52-.33 1.05-.54 1.55-.25.58-.28 1.23-.52 1.8-.39.93-.54 1.91-.79 2.86-.28 1.02-.5 2.06-.94 3.03-.17.37-.26.75-.31 1.16-.19 1.43-.13 2.86 0 4.29.02.21-.07.28-.21.29-.21.02-.46.06-.63-.11-.15-.15-.02-.34-.02-.52-.01-.77-.03-1.53-.06-2.3-.01-.29-.04-.58-.07-.88.01-2.2.03-4.4.02-6.6-.01-2.42-.05-4.83-.05-7.25 0-1.98.03-3.96.04-5.94 0-.43.08-.89-.22-1.28.14-.38.23-.76.15-1.18-.06-.35-.08-.73-.03-1.09.09-.61-.05-1.15-.28-1.71-.25-.61-.43-1.25-.62-1.88-.14-.46-.17-.95-.37-1.37-.43-.93-.72-1.92-1.06-2.88-.22-.62-.38-1.27-.64-1.87-.46-1.07-.65-2.16-.58-3.32.06-1.13.06-2.28.05-3.41 0-.51-.08-1.02-.13-1.53-.02-.15-.13-.25-.3-.26-.16-.01-.28.07-.33.22-.04.1-.07.21-.07.32-.02 1.43-.08 2.85-.03 4.28.04 1-.11 1.98-.34 2.93-.66 2.75-1.46 5.46-2.06 8.22-.07.3-.19.52-.44.73-.33.28-.49.65-.46 1.15.1 1.57.09 3.15.17 4.73.07 1.35-.17 2.68-.07 4.04.11 1.56.01 3.14.01 4.71 0 .17-.1.37.07.51.02.91-.03 1.83-.04 2.74-.01 1.25-.1 2.49.09 3.73.03.18.02.37-.02.55-.12.58-.07 1.17-.07 1.76 0 .96.02 1.91.03 2.86.01 1.87.02 3.75.04 5.62.01.84.05 1.69.04 2.53-.02.99.14 1.29-1.14 1.09-.24-.04-.44.01-.6.18-.09.11-.23.24-.23.35.01.22.23.24.42.27.11.02.21.05.36.08.02.32.05.65.05.98 0 1.72-.01 3.45-.01 5.18 0 .88-.02 1.76 0 2.64 0 .17.14.34.14.52 0 .03-.04.06-.04.09-.02 1.25-.04 2.49-.05 3.74 0 .66.04 1.32.06 1.98.01.22-.12.34-.31.39-.14.03-.29.02-.44.02-1.94-.03-3.89-.06-5.83-.08-.29 0-.59 0-.88.01-1.32.02-2.64.06-3.96.07-.51 0-1.03-.08-1.54-.07-1.1.03-2.2.07-3.3 0-.37-.03-.74-.01-1.1 0-1.32.03-2.64.03-3.96.09-1.06.05-2.12-.16-3.18-.06-.77.07-1.54.11-2.31.09-1.25-.03-2.5-.04-3.75-.01-2.02.05-4.04.02-6.07.01-2.46 0-4.93.05-7.39-.08-.22-.01-.44.03-.66.08-.1.02-.23.1-.26.18-.05.15.07.27.19.36.22.17.48.15.74.16.91.04 1.82-.08 2.73-.04.95.05 1.92.05 2.87 0 .94-.04 1.88.02 2.83.03.99 0 1.98-.03 2.97-.03 2.5 0 5 .01 7.51 0 1.21 0 2.42-.04 3.64-.05 2.09-.01 4.18 0 6.28 0 .99 0 1.99-.05 2.98-.06 1.21-.01 2.43.02 3.64.02 2.65-.01 5.3-.03 7.95-.04.52 0 .58.06.62.53.08 1.24-.02 2.48.04 3.73.04.73-.15 1.48-.04 2.18.12.75-.15 1.46-.05 2.19.03.21.05.46-.04.65-.17.37-.07.71.02 1.06.04.14.15.29.12.41-.2.88.15 1.75.03 2.63-.09.65.01 1.32 0 1.98-.01.81.05 1.62-.12 2.42-.06.29-.15.36-.44.34-.16-.01-.29-.05-.33-.22-.08-.4-.13-.79-.07-1.21.05-.36.08-.73.08-1.1-.01-.65-.14-.77-.78-.78-.62-.01-1.25-.02-1.88-.05-.41-.02-.43-.05-.43-.45v-6.18c0-.51-.01-1.03-.07-1.54-.02-.24-.05-.53-.37-.61-.2-.05-.35.2-.4.67-.21 1.62-.03 3.24-.06 4.85-.02 1.06.03 2.12.05 3.15-.26.2-.51.21-.77.21-.48-.02-.96-.05-1.43-.04-.65.01-.75.18-.72.7.03.44.01.88.04 1.32.13 1.48.01 1.42-1.46 1.34-.37-.02-.52-.19-.52-.58 0-1.95-.02-3.9.03-5.84.01-.42.01-.85.03-1.28.02-.61-.32-1.11-.53-1.65-.65-1.64-1.18-3.32-1.56-5.05-.09-.4-.3-.66-.77-.65-.07.43-.12.86-.22 1.28-.32 1.36-.65 2.72-.99 4.08-.08.32-.15.66-.32.94-.2.34-.32.63-.03.98.12.14.07.35.06.53-.08.77-.14 1.52.06 2.29.12.44.08.95-.05 1.42-.06.21-.13.42-.06.65.23.72.1 1.46.07 2.19-.03.52-.12.59-.68.66-.3.04-.43-.06-.43-.34 0-.51.04-1.03.04-1.54-.02-1.67.21-1.35-1.42-1.42-1.57-.07-1.14.06-1.32-1.35-.06-.5.1-1.03.06-1.54-.08-1.17-.1-2.34-.1-3.52 0-.37-.03-.74-.06-1.1-.02-.22-.32-.32-.53-.2-.22.12-.28.3-.28.55 0 1.14-.02 2.28-.02 3.42 0 .81.03 1.41 0 2.22-.06 1.43.13 1.13-1.31 1.13h-.33c-1.15 0-1.08.14-1.09 1.28-.01.55.01 1.21-.02 1.75-.02.39-.19.58-.56.59-.37.01-.74.04-1.1.05-.23 0-.31-.15-.36-.33-.02-.07-.02-.14-.01-.21.1-1.25.03-2.48-.03-3.73-.06-1.31-.08-2.63.02-3.95.03-.41.04-.89-.49-1.12-.11-.05-.17-.24-.22-.37-.69-1.7-1.36-3.41-2.05-5.12-.04-.1-.08-.2-.14-.28-.08-.13-.42-.09-.48.05-.03.07-.05.14-.07.21-.45 1.74-.91 3.48-1.34 5.23-.17.68-.47 1.36-.14 2.1.08.18-.01.44-.01.66-.05 1.66-.11 3.31.01 4.97.03.48 0 .96-.03 1.44-.03.47-.15.56-.62.53-.4-.02-.48-.11-.49-.54 0-.66-.01-1.33 0-1.99 0-.36-.2-.55-.5-.64-.21-.06-.43-.07-.65-.08-.4-.03-.81-.03-1.21-.06-.32-.03-.44-.17-.46-.5-.01-.11 0-.22.01-.33.04-1.02.09-2.04.01-3.07-.04-.54.04-1.1.05-1.65.02-.59.04-1.17.01-1.76-.01-.21-.15-.41-.39-.48-.14-.04-.35.2-.38.45-.02.18-.03.37-.03.55l.06 5.96c0 .11.01.22 0 .33-.02.4-.13.54-.53.54-.73-.01-1.47.19-2.18-.12-.1-.04-.22.02-.24.14-.05.21-.1.43-.11.65-.03.73-.05 1.47-.07 2.2-.01.37-.09.45-.47.46-.18.01-.37-.02-.55-.01-.62.05-.86-.05-.77-.82.03-.22 0-.44 0-.66-.01-.48.09-.95.15-1.42.05-.44-.19-.92-.18-1.4.02-1.25.02-2.5.03-3.76.01-.74-.11-1.45-.35-2.16-.28-.83-.71-1.61-.93-2.47-.18-.71-.48-1.39-.75-2.07-.11-.28-.44-.49-.58-.42-.19.1-.19.3-.25.47-.07.21-.15.41-.21.62-.46 1.59-1.16 3.1-1.56 4.71-.05.21-.14.43-.27.59-.28.35-.33.72-.26 1.14.18 1.06-.05 2.13.08 3.19.03.25-.05.51-.08.77-.02.2-.15.29-.33.39-.33.17-.35.28-.09.4.36.17.48.41.44.79-.03.25.01.52.01.77 0 1.88.03 3.75-.01 5.63-.01.65-.13 1.3.02 1.94-.01.11-.03.22-.03.33l.03 5.72c0 .07 0 .15.04.21.07.12.14.28.3.27.1-.01.22-.08.27-.16.22-.32.24-.68.2-1.05-.14-1.54-.1-3.07.05-4.6.02-.19 0-.37-.15-.51.16-.25-.02-.6.16-.75 1.03-.21 1.98-.1 2.92-.1.54 0 .64.11.67.63.01.22.02.44.02.66v4.85c0 .22.01.44.17.62.13.14.32.13.45-.01.26-.29.18-.62.17-.94-.03-1.75-.08-3.5-.12-5.26-.01-.46.05-.56.45-.55 1.28.05 2.57-.09 3.85.02.69.06 1.38.07 2.07.01.88-.07 1.76-.06 2.64 0 .36.02.44.1.45.47.03 1.17.05 2.35.08 3.52.01.4.01.8.04 1.2.01.08.13.18.22.22.1.04.22-.01.27-.12.06-.13.17-.28.15-.41-.12-.98.12-1.96-.02-2.94-.07-.46-.06-.94-.08-1.41-.01-.26.11-.41.37-.46.95-.18 1.9-.12 2.85-.08.3.01.43.18.45.52.03.51.03 1.03.03 1.55.01 1.62.01 3.24.02 4.86 0 .28.18.55.3.5.19-.08.26-.27.31-.43.04-.13.01-.29.01-.44.02-1.8.04-3.6.05-5.4.01-1.4-.12-1.05 1.2-1.21.11-.01.22.02.33.02 1.25 0 2.49-.01 3.74-.02 1.39-.01 2.78-.17 4.14-.06.17.22.18.44.16.66-.15 1.58.1 3.17-.08 4.74-.01.11.01.22.01.33 0 .21.11.36.29.43.14.06.43-.16.51-.34.09-.21.06-.43.06-.65-.06-1.35-.1-2.71-.15-4.06-.01-.26 0-.51 0-.77 0-.16.08-.31.24-.31.87 0 1.75-.14 2.62.05-.01 1.36-.03 2.72-.04 4.09 0 .51.01 1.03.04 1.54.01.14.06.28.11.42s.26.17.36.07c.19-.2.25-.43.24-.71-.03-.7-.04-1.39-.07-2.09-.03-.59.13-1.18.01-1.77.02-.5.04-1.01.07-1.52.31-.09.58-.16.86-.24.61.19 1.21.09 1.83.07 2.17-.07 4.34-.04 6.51-.06.21 0 .34.08.48.21 0 .51.01 1.03 0 1.54-.02 1.17-.05 2.35-.06 3.52 0 .5.19.83.49.89.24.05.44-.38.39-.88-.05-.54-.18-1.09.02-1.63.04-.13.02-.3-.01-.43-.12-.47-.06-.95-.06-1.43 0-.39.14-.8-.07-1.18.15-.52.16-1.04.12-1.58-.09-1.1-.1-2.21-.12-3.31-.01-.62.01-1.25.05-1.88.04-.47.29-.73.72-.6.53.16 1.01-.03 1.51 0 1.38.07 2.77-.08 4.15.08.15.02.3.03.44 0 .44-.08.86-.05 1.31.2v2.94c.01 2.31.04 4.63.04 6.94 0 .77.03 1.53.08 2.29.02.26.22.42.43.41.25-.02.43-.14.45-.39.03-.4.05-.81.04-1.21-.03-.92-.11-1.85-.08-2.75s-.33-1.82.03-2.71c-.21-.87-.08-1.76-.12-2.63-.04-.92.01-1.84.03-2.75.01-.35.12-.44.48-.45 1.18-.02 2.36-.04 3.54-.04h7.51c2.94-.01 5.89-.03 8.83-.04.82 0 .81.02.83.82.01.44.04.88.05 1.32.02 1.69.03 3.38.04 5.07.02 1.62.05 3.23.07 4.85.01 1.17-.01 2.35 0 3.52 0 .15.03.29.06.44.04.15.16.27.3.28.09.01.19-.09.28-.16.25-.17.22-.45.23-.7.05-1.18-.05-2.35-.09-3.53-.06-1.73-.03-3.46-.04-5.19v-.88c-.01-1.8-.02-3.6-.02-5.4 0-.36.08-.43.47-.44.77-.02 1.55-.03 2.32-.03 1.29 0 2.57 0 3.86.03.51.01.58.09.58.59.01 1.29.03 2.57.03 3.86 0 .74-.06 1.47-.03 2.21.12 3.2-.03 6.4.16 9.6.06.91 0 1.83-.02 2.75-.01.34.02.67.18.96.04.08.17.14.26.16.17.03.29-.09.3-.25.03-.7.07-1.4.06-2.09 0-1.1-.1-2.21-.03-3.31.06-.99.05-1.98.02-2.96-.05-1.61-.07-3.22-.04-4.83 0-.15.05-.3.03-.44-.28-1.8-.05-3.6-.13-5.4-.01-.25-.02-.52.14-.8.32-.06.67-.19 1.03-.2 1.79-.02 3.58-.02 5.37 0 .54.01 1.09-.03 1.64.1.43.1.48.12.46.58-.03.89-.01 1.77.1 2.65.06.51.08 1.03.03 1.54-.13 1.28-.1 2.55-.04 3.83.01.15.02.3.01.44-.18 1.8.14 3.59.1 5.38 0 .14.03.3.11.41.1.15.26.27.46.22.15-.04.23-.17.25-.33.08-.44.06-.88-.03-1.32-.08-.4-.22-.83-.06-1.19.2-.47-.16-.86-.05-1.29.02-.07.02-.15.04-.21.14-.32.08-.64.05-.97-.14-1.31-.2-2.63-.1-3.95.04-.48-.04-.96-.24-1.4.16-.46.12-.94.13-1.41l.09-3.06c.14-.03.28-.05.42-.08.88.13 1.77.04 2.65.03.22.19.19.45.2.71.11 2.5-.08 5 .01 7.5.09 2.46.03 4.93.04 7.39 0 .48.01.96.05 1.43.02.24.19.39.41.47.16.06.36-.12.47-.38.09-.21.11-.43.04-.64-.13-.4-.06-.8-.05-1.2.03-.69.09-1.39.05-2.08-.03-.54.02-1.08 0-1.63-.03-.57.06-1.15-.1-1.73-.04-.13 0-.29.01-.44.01-.44.05-.88.04-1.32-.02-1.17-.03-2.35-.1-3.52-.04-.72-.02-1.45-.11-2.18-.1-.78-.16-1.61.16-2.38 2.06-.01 4.12-.03 6.17-.04 1.03-.01 2.06 0 3.09-.01.28 0 .5.06.66.3-.15.33.02.65 0 .98-.08 1.35-.06 2.71-.03 4.06.01.59.07 1.17.07 1.76.01 3.09 0 6.19 0 9.28 0 .22.01.44.04.66.02.18.37.46.47.39.11-.08.21-.21.25-.34.06-.17.08-.36.08-.54-.01-.69-.04-1.39-.06-2.08-.03-.77-.06-1.53-.08-2.3-.03-1.14-.03-2.28-.07-3.42-.04-1.13.22-2.27 0-3.4-.08-.42.13-.77.1-1.18-.08-.99-.12-1.98-.11-2.97.01-1.45-.17-1.18 1.25-1.2.15 0 .3-.01.44 0 .31.02.47.15.49.48.02.44-.02.88-.02 1.32.02 2.8.03 5.59.06 8.39.01.66.05 1.32.08 1.99.01.22.01.44.01.65 0 .62 0 1.25-.01 1.88-.01 1.1.17 2.2-.01 3.29-.06.4.11.62.39.83.16.12.34.08.45-.08.14-.19.2-.41.17-.63-.16-1.16-.03-2.33-.07-3.5-.04-1.17-.07-2.35-.09-3.53-.03-1.61-.05-3.22-.09-4.83-.04-1.65-.1-3.3-.14-4.95-.01-.33.03-.66.06-.99.02-.21.18-.31.37-.35.11-.02.22-.01.33-.01 2.35 0 4.7-.01 7.05-.01.77 0 1.54 0 2.31.01.21 0 .34.12.33.34 0 .7-.01 1.4-.01 2.09-.01 1.36-.08 2.72.11 4.08.03.18.04.37.02.55-.19 1.36-.01 2.71-.01 4.07 0 2.76.06 5.52.08 8.28 0 .33-.07.66-.04.99.03.36.11.74.57.84.45-.91.39-1.85.34-2.81-.08-1.65-.12-3.29-.14-4.94 0-.44.01-.88-.01-1.31-.04-1.13-.06-2.27-.01-3.41.02-.51.05-1.01-.04-1.51-.04-.21-.05-.44-.05-.65.01-1.47.04-2.94.05-4.41.01-.69-.01-1.39-.02-2.08.71-.26 1.44-.08 2.16-.12h.11c1.65-.01 3.29-.03 4.94-.04.23 0 .31.15.31.36 0 .29-.01.59 0 .88.03 2.43.08 4.86.09 7.29.01 1.77-.1 3.53-.02 5.3.04.77.09 1.54.1 2.32.03 1.8.04 3.6.07 5.41.01.33.06.66.12.98.01.08.14.17.23.19.16.04.27-.06.33-.21.03-.07.06-.14.06-.21.03-.51.12-1.03.06-1.54-.16-1.5-.06-3-.11-4.5-.07-2.16-.02-4.33-.04-6.5s-.09-4.34-.11-6.51c-.01-.77-.01-1.54.05-2.31.06-.75.29-.94 1.04-.98.62-.03 1.25-.04 1.87-.07h.22c.29.07.59.08.88-.01.69.02 1.37.07 2.06.06 1.23 0 2.46-.04 3.69-.06.07 0 .15-.01.23-.01.37.08.73.07 1.1 0 1.55.04 3.1.08 4.64-.02.37.01.73.03 1.1.03 1.77.02 3.54.03 5.3.04.02.4.04.81.04 1.21-.01.92-.04 1.84-.04 2.75.01 1.91.06 3.81.06 5.72 0 3.02-.04 6.03-.05 9.05 0 .59.04 1.18.08 1.76.01.18.08.36.15.53.04.1.12.17.25.17.14 0 .2-.1.21-.2.05-.44.09-.88.12-1.32.05-.66-.11-1.33-.04-1.97.14-1.43-.03-2.85.02-4.27.03-.91-.09-1.83-.09-2.74 0-.88.08-1.77.06-2.64-.03-.92-.02-1.83-.04-2.75-.02-1.69-.03-3.38-.04-5.07.12-.2.3-.27.53-.27.41-.01.64-.03 1.04-.05h-.18.19-.01c.84 0 1.07-.01 1.55.02 1.39.07 2.88-.11 4.27.05.1.58.12 1.17.11 1.76-.03 1.43-.08 2.87 0 4.3.08 1.5-.06 3 .12 4.5.14 1.17-.14 2.34-.1 3.52.02.4.13.77.11 1.18-.08 1.28-.14 2.56-.08 3.83.06 1.28-.03 2.56 0 3.84 0 .18-.02.29 0 .47.14.95.01 1.76-.05 2.76h.88c.29 0 .02-.86.03-1.33.03-.99.01-1.94.01-2.93-.02-2.79-.04-5.57-.04-8.36 0-.41-.03-.79-.06-1.2-.04-.62.03-1.24.03-1.86 0-1.1 0-2.2-.01-3.29l-.03-2.64c0-.4.01-.8.03-1.21.01-.17.11-.26.28-.26 1.44 0 2.87.01 4.31.01.21 0 .35.1.36.32.02.29.03.59.02.88 0 .44-.08.89-.02 1.32.1.81.11 1.61.06 2.42-.04.58-.06 1.17.02 1.75.09.61.1 1.25.05 1.86-.12 1.58.04 3.16 0 4.74-.02.56.14 1.09.32 1.61.04.12.29.13.38.04.19-.21.21-.46.22-.72.04-1.25.11-2.5.11-3.75 0-1.21-.06-2.43-.08-3.64-.01-.62.11-1.26.03-1.87-.16-1.25.04-2.5-.07-3.75-.03-.39.08-.79.14-1.25 1.48 0 2.92 0 4.35.01.23 0 .38.07.38.39 0 1.65.18 3.29.02 4.94-.01.15-.06.33 0 .44.22.36.06.71.05 1.07-.01.26 0 .51 0 .77.02.98.1 1.97-.02 2.96-.11.88.12 1.75.19 2.62.02.2.12.39.31.4.19.01.3-.16.32-.37.07-.88.18-1.75.13-2.64-.07-1.32-.07-2.65-.04-3.97.01-.59.11-1.17 0-1.76-.12-.62.02-1.24-.01-1.86-.04-.97-.12-1.97.19-2.95.71-.12 1.41-.07 2.11-.05.33.01.42.13.42.5-.01.95-.04 1.91-.04 2.86 0 1.06.07 2.13.05 3.19-.02 1.14.13 2.28-.1 3.41-.01.07.01.15.03.22.14.62.12 1.24.11 1.87-.01.25.03.51.09.76.02.09.12.2.21.23.17.04.25-.13.31-.24.06-.12.07-.28.07-.43.04-1.58.13-3.15.02-4.73-.03-.4.02-.81.04-1.21.01-.33.01-.66 0-.99-.05-1.66-.06-3.31-.07-4.97 0-.38.09-.47.45-.47 1.4-.01 2.79-.02 4.19-.01.36 0 .45.09.46.46.03 1.25.04 2.5.05 3.75.01 1.14-.04 2.29.04 3.42.11 1.54.09 3.08.08 4.62 0 .18.01.37.05.55.05.21.23.26.42.29.23.03.34-.12.4-.29.05-.13.05-.29.05-.43 0-1.03.04-2.06-.01-3.09-.1-2.05.16-4.12-.16-6.16-.01-.07.04-.14.03-.21-.12-.84.15-1.67.08-2.51-.03-.29.08-.37.39-.39.88-.07 1.76-.05 2.64-.04.21 0 .36.11.37.32.02.48.02.96.03 1.43.03 1.61.15 3.22.07 4.83-.12 2.32.11 4.63.1 6.94 0 .07.02.15.03.22.02.17.12.24.29.25.2.02.37-.02.44-.23.03-.1.06-.22.05-.32-.16-1.69 0-3.37 0-5.06 0-.48-.12-.95-.11-1.43.03-1.58.03-3.16-.04-4.75-.03-.62.03-1.25.04-1.87.01-.22.13-.33.34-.33.88-.01 1.75-.03 2.62-.03.18 0 .35.07.54.12.02.18.04.32.04.46.03 2.91.04 5.81.07 8.72.02 1.58-.01 3.15.18 4.72-.01.59-.04 1.18-.04 1.76.01.56.17.95.62 1.58.08-.68.21-1.28.21-1.89.02-2.06 0-4.12 0-6.17 0-.22.02-.45-.14-.63.17-.38.13-.78.1-1.18-.05-.79-.13-1.59-.09-2.38.05-1.21.03-2.41.03-3.61 0-1.58 0-1.58 1.53-1.54.11 0 .22.04.33.04.91.01 1.82.01 2.72-.12.28.26.61.12.92.11.29-.01.4.08.41.37.02.5.01 1 .02 1.51-.01.92-.12 1.85.01 2.76.21 1.58.02 3.15.12 4.73.12 1.8.05 3.61.05 5.41 0 1.58 0 3.17-.01 4.75 0 .32.05.55.39.7.2.09.31.13.4-.09.17-.42.19-.86.16-1.3-.16-2.57-.01-5.15-.19-7.72-.1-1.46-.04-2.94-.05-4.42-.01-2.72-.01-5.44-.04-8.16-.03-2.53-.1-5.06-.14-7.59-.01-.51.1-1.03.09-1.54-.01-.99-.07-1.98-.07-2.97-.01-1.9.01-3.81 0-5.71-.01-2.28-.11-4.56-.06-6.84.04-1.88-.06-3.75-.03-5.63.03-1.87-.22-3.73-.12-5.61.05-.95-.02-1.9-.07-2.85-.08-1.5-.02-3.01-.03-4.51-.01-.88-.02-1.76-.04-2.65l-.06-3.18c-.01-1.1.04-2.19-.03-3.29-.11-1.8-.05-3.61-.07-5.41 0-.07-.01-.15.01-.22.05-.2.17-.31.39-.29.37.03.73.08 1.1.09.51-.01.68-.19.62-.68zm-12.29-67.89c-.08.15-.22.17-.37.17-1.03 0-1.85.02-2.88.02h-4.87v.19h-8.14c-.11 0-.22-.11-.33-.09-.4.05-.61-.21-.77-.53-.03-.07-.07-.15-.1-.22-.24-.57-.08-.85.53-.87.84-.02 1.69-.01 2.53-.02 1.76-.01 3.53-.07 5.29-.02.84.03 1.68-.06 2.51-.01.8.05 1.61.04 2.42.03.99-.01 1.97-.04 2.96-.06.18 0 .37 0 .55.03.24.04.59-.07.7.21.14.37.17.79-.03 1.17zm-17.22-17.2c.76-2.04 1.29-4.14 1.73-6.26.12-.6.34-1.2.53-1.78.43-1.33.55-2.73.98-4.05.06-.17.07-.36.13-.54.63-1.96 1.02-3.98 1.51-5.98.33-1.36.69-2.71.96-4.07.3-1.51.52-3.04.79-4.56.24-1.41.53-2.82.73-4.23.22-1.53.46-3.05.75-4.56.1-.54-.04-1.11.23-1.63.07 0 .14 0 .22.01.34 2.11.68 4.22 1.02 6.32.05.29.12.58.21.86.34 1.02.46 2.08.58 3.14.16 1.54.32 3.07.52 4.6.11.8.33 1.58.47 2.38.42 2.39 1.08 4.72 1.65 7.08.31 1.29.56 2.59.89 3.87.49 1.88 1.03 3.75 1.56 5.63.37 1.31.76 2.61 1.14 3.91-.02.47-.39.33-.65.36-.55.05-1.1-.08-1.64.08-2.87.01-5.74.01-8.61.02-1.84.01-3.68.02-5.52.02-.07 0-.13-.05-.2-.07-.1-.2-.05-.38.02-.55zm-.37 1.6c.06-.25.22-.37.47-.37.44-.01.64-.03 1.08-.03h6.92v.02c3-.03 5.59-.06 8.27-.08.62-.01.98.31.82.9-.05.18-.11.32-.33.32-.51.01-.99.01-1.5.03-.62.03-1.23-.11-1.85.08-.1.03-.22.02-.32 0-1.1-.2-2.19-.05-3.29-.04-.92 0-1.83.02-2.75.02-.76 0-1.52.08-2.29-.04-.11-.02-.22-.01-.33 0-1.35.17-2.71-.13-4.06.04-.21.03-.44-.01-.66-.04-.21-.03-.32-.16-.29-.37.03-.16.07-.3.11-.44zm.17 1.45c.15-.01.29-.02.44-.02 3.38 0 6.76.01 10.15.01 2.05 0 4.1-.03 6.15-.05.18 0 .36.02.61.04.12.43.18.86.19 1.29.02 1.73.02 3.46.02 5.18 0 1.32-.01 2.65-.02 3.97 0 .4 0 .81-.02 1.21-.02.37-.13.44-.55.49-.74.1-1.47.01-2.2.01 0-.36.23-.66.23-1.04-.05-2.15-.05-4.3-.07-6.46.06-.17.05-.34-.03-.5-.12-.25-.34-.23-.61.05-.02.07-.05.14-.05.21.02 1.86.16 3.72-.1 5.57-.02.14.02.29.05.43.14.57.06 1.14 0 1.71-1.74 0-1.41.06-1.44-1.38-.03-1.24-.05-2.49-.05-3.73 0-.91-.14-1.83-.22-2.74-.02-.16-.14-.28-.29-.28-.16 0-.24.15-.25.3-.01.11-.01.22-.01.33 0 .37.01.73.01 1.1-.01 1.76-.11 3.53-.02 5.29.01.26-.02.51-.04.77-.02.21-.14.34-.35.35-.44.01-.88.03-1.32 0-1.1-.07-2.19.15-3.27 0 .02-1.08.02-2.13.05-3.18.02-.81.02-1.62.04-2.42.02-.83-.15-1.67-.25-2.51-.01-.06-.09-.16-.11-.15-.1.02-.22.05-.28.13-.17.21-.2.46-.21.72-.03 1.98-.11 3.97-.02 5.95.02.4.01.81.01 1.21 0 .18-.11.26-.26.29-.11.03-.22.05-.33.04-1.65-.16-3.31.01-4.96-.05-.15-.01-.29 0-.44-.02-.21-.02-.34-.15-.37-.35-.03-.18-.01-.37-.02-.55-.04-2.05-.09-4.11-.1-6.16 0-1.58.08-3.16-.01-4.74-.02-.17.1-.31.32-.32zM6.38 211.27c0 .37-.07.43-.45.44-.92.02-1.84.02-2.76.01-.36 0-.58-.36-.53-.76.04-.29.09-.58.09-.88-.03-1.91-.07-3.82-.11-5.72-.01-.3.05-.34.4-.36.87-.06 1.74.08 2.61-.02.53-.06.72.24.72.79.01 1.06 0 2.25 0 3.25h.02c.01 1 .01 2.15.01 3.25zm.01-10.25h-.04c0 1 .01 1.31 0 1.93-.01.33-.14.5-.47.51-.95.01-1.9.02-2.85.01-.26 0-.38-.16-.39-.42-.03-.69-.07-1.38-.08-2.08-.01-.47.02-.95.06-1.42.04-.51.36-.8.88-.76.77.07 1.53.03 2.3-.02.52-.03.6-.13.61.55-.01.59-.02 1.7-.02 1.7zm-3.23-2.88c-.13-.16-.15-.3-.11-.45.45-1.35.9-2.69 1.36-4.04.05-.13.14-.25.25-.44.3.48.37 1.01.59 1.47.25.53.2 1.15.49 1.68.26.47.43 1 .66 1.54-1.09.49-2.21-.01-3.24.24zm13.58 13.02c0 .28-.18.38-.43.39-.7.03-1.4.06-2.09.06-1.91.02-3.81.02-5.72.02-.18 0-.37-.01-.55-.02-.52-.03-.64-.11-.65-.65-.01-.62-.11-1.24.01-1.87.06-.29.04-.59.04-.88.01-.88.12-.93 1-.91.48.01.79.32 1.18.53.15-.21.26-.4.4-.57.08-.09.14-.2.09-.29-.42-.73-.05-1.51-.14-2.26-.05-.42.2-.69.57-.6.64.16 1.29-.02 1.94.12.62.13 1.3-.02 1.96-.03.43-.01.54.07.55.47.01.66.01 1.32-.04 1.98-.01.17-.16.34.01.48.16.14.34.28.59.25.29-.04.58-.07.87-.08.25 0 .41.13.41.41.01 1.17.01 2.31 0 3.45zm.86-13.58c.31-1.32.57-2.65 1.05-3.92.01-.03.06-.04.09-.06.39.53 1.6 3.23 1.91 4.31h-2.73c-.25 0-.37-.11-.32-.33zm-.18 1.67c.02-.41.13-.54.53-.52.88.04 1.76 0 2.64-.08.34-.03.5.15.5.45.01.62 0 .92 0 1.92h.01v1.71c0 .47-.04.52-.44.58-.91.14-1.83.12-2.75.06-.32-.02-.43-.18-.48-.51-.01-.04-.02-.08-.01-.11.12-1.16-.06-2.33 0-3.5zm3.67 11.32c0 .18-.01.37-.04.55-.03.2-.15.32-.37.33-.84.03-1.69.09-2.53.09-.58 0-.71-.13-.73-.72-.02-.66 0-1.32 0-1.99.03-.73.08-1.45-.02-2.18-.07-.54-.02-1.1 0-1.65.01-.33-.03-.71.13-.96.2-.31.61-.08.93-.1.62-.04 1.24-.07 1.86-.1.6-.03.68.05.74.67.02.22.02.44.03.66.08.91-.04 1.82.02 2.73.06.9 0 1.79-.02 2.67zm9.71.99c-.81.03-1.62.05-2.42.01-1.94-.09-3.88-.15-5.82-.03-.14.01-.29-.04-.43-.08-.15-.04-.27-.11-.28-.29-.01-.07-.03-.15-.03-.22-.03-.92-.06-1.83-.07-2.75 0-.25.07-.5.1-.73.87-.36 1.77-.12 2.65-.26.03-.9.05-1.76.08-2.63.01-.29.15-.48.48-.48.18 0 .38-.11.54-.07.87.21 1.73.11 2.59.03.25-.02.51.02.77.02.28.01.38.16.38.42.01.77.02 1.54.02 2.31 0 .22-.04.44.06.65.08.16.3.28.45.18.27-.19.51-.41.88-.37.35.03.54.19.54.54.02 1.07.02 2.13.02 3.2.01.41-.1.54-.51.55zm1.66-15.29c.22-.69.22-1.44.58-2.09.06-.11.13-.11.2 0 .29.59.49 1.21.66 1.85.1.39.23.77.36 1.15.08.21.15.41.07.67-.12.03-.25.1-.39.1-1.81.03-2.22.59-1.48-1.68zm-.48 4.75H32v-1.84c0-.26.16-.45.41-.46.59-.03 1.17-.08 1.76-.08.37 0 .55.15.56.53.01.77-.02 1.54-.03 2.31-.01.48-.01.95-.02 1.43-.01.26-.14.39-.42.39-.59 0-1.17.03-1.76.01-.4-.01-.52-.07-.53-.47 0-.64.01-1.82.01-1.82zm2.75 7.9c.07.58.04 1.18.04 1.76 0 .15-.01.29-.02.44-.01.21-.13.31-.34.35-.73.15-1.46-.03-2.19 0-.14.01-.26-.17-.24-.32.12-1.32-.16-2.63.05-3.95.08-.53 0-1.09-.03-1.64-.03-.54-.08-1.08-.13-1.68.83-.02 1.62-.04 2.42-.05.21 0 .34.13.36.34.03.4 0 .81.06 1.21.09.59-.09 1.15-.13 1.73.38.56.07 1.2.15 1.81zm10.38-.68c-.01.87-.17 1.74-.04 2.62.09.55-.07.67-.6.67-2.43-.01-4.85.16-7.28.04-.44-.02-.88.03-1.32.04-.28 0-.42-.12-.43-.38-.02-.52-.06-1.04-.02-1.55.06-.63.05-1.25.01-1.87-.02-.35.1-.47.44-.48.55-.01 1.1 0 1.66.01.29 0 .59.01.88-.01.22-.01.35-.25.2-.36-.45-.3-.41-.72-.37-1.17.04-.55.04-1.1.06-1.65.72-.04 1.41-.09 2.09.02.14.02.32.06.44.01.67-.29 1.37 0 2.05-.14.27-.06.4.08.41.38.03.62.03 1.25.05 1.88.01.3-.25.43-.4.69.2.19.32.33.48.43.22.13.45.24.71.07.12-.08.27-.11.41-.13.37-.06.58.1.58.46.02.13 0 .27-.01.42zm35.12-80.05c.26.01.19.25.25.39.08.16.16.33.21.5.09.28.12.59.24.84.67 1.35 1 2.82 1.62 4.19.06.13.1.27.14.41.42 1.51.39 1.32-.94 1.31-.73-.01-1.47 0-2.2 0-.37 0-.73.03-1.08-.09.04-.97 1.38-6.76 1.76-7.55zm-2.4 9.5c.01-.29.09-.59.15-.87.04-.21.17-.31.38-.31 1.5-.01 3-.03 4.5-.03.27 0 .37.14.35.43-.1 1.32-.08 2.63 0 3.95.04.59-.03 1.16-.12 1.74-.04.29-.22.36-.46.36h-3.95c-.11 0-.22.01-.33 0-.4-.03-.5-.13-.5-.53v-2.39h-.03c0-1.02-.01-1.58.01-2.35zm.02 5.96c.7.26 1.35 0 2.01.06.83.07 1.68 0 2.52-.01.14 0 .29.01.43.02.16.01.29.09.29.26.02 1.25.04 2.5.04 3.76 0 .35-.12.47-.46.48-.96.01-1.92 0-2.87 0-.44 0-.88-.01-1.33-.01-.47 0-.57-.08-.6-.56-.02-.33-.08-.67-.04-.99.12-.96 0-1.91.01-3.01zm.02 12.25c.1-1.08-.06-2.12-.04-3.18.03-1.06 0-2.13 0-3.2 0-.46.09-.57.59-.57.4 0 .8.07 1.2.05.73-.04 1.45.09 2.18-.03.29-.05.59-.02.88.01.24.02.41.14.42.42.01.84.03 1.68.03 2.53.01 1.66.01 3.31.01 4.97-.01 1.66-.04 3.31-.03 4.97.01 1.98.05 3.97.06 5.95.01 1.07 0 2.13-.02 3.2-.01.4-.13.5-.54.53-.22.01-.44.02-.66-.01-.69-.12-1.37.02-2.06.05-.6.03-1.17-.01-1.86-.12-.02-.31-.05-.56-.05-.82-.03-1.95-.09-3.89-.05-5.84.03-1.57.01-3.14-.05-4.71-.06-1.41-.15-2.82-.01-4.2zm-4.69.74c0-.14 0-.29.01-.43 0-.03.03-.07.04-.1.05.04.12.08.14.13.03.1.02.21.02.32.31.7.39 1.46.55 2.2.04.17-.04.28-.2.32-.15.04-.29.01-.39-.12-.06-.08-.16-.2-.14-.29.14-.61-.08-1.22 0-1.83-.05-.06-.07-.13-.03-.2zm-4.26-7.65c.8-.01 1.6-.03 2.4-.04.42 0 .47.04.58.49.26 1.11.51 2.21.76 3.32.04.17.08.39.01.54-.53 1.28-.39 2.61-.31 3.92.03.59-.03 1.16-.05 1.75-.53.18-1.05.05-1.55.08-.65.04-.72.09-.72.68 0 1.29 0 2.57-.01 3.85 0 .51-.04.55-.58.55h-.33c-.55-.01-.6-.07-.6-.65 0-.88 0-1.76-.01-2.64l-.03-3.42c0-.22-.07-.49.03-.65.48-.8.04-1.48-.19-2.2-.54-1.67-1.07-3.34-1.61-5.02-.03-.1-.03-.22-.05-.39.8-.22 1.53-.16 2.26-.17zm-4.92.42c.27-.94.56-1.88.85-2.87.4.51.47 1.12.63 1.66.2.69.41 1.39.59 2.09.15.6.43 1.16.64 1.75.39 1.1.77 2.21 1.14 3.31.08.25-.08.45-.34.42-1.46-.15-2.93.08-4.4-.04-.18-.01-.37 0-.54-.06-.12-.04-.26-.16-.22-.34.13-.57.27-1.14.42-1.71l1.23-4.21zm-6.21 2.48c.01-.86.29-1.65.54-2.45.09-.3.27-.4.57-.39.77.01 1.53-.02 2.3 0 .62.01 1.25-.14 1.95.1-.13.52-.23.94-.34 1.37-.4 1.53-.8 3.06-1.2 4.58-.05.18-.08.37-.18.52-.33.47-.36.93-.05 1.43.16.26.06.58.06.87.02 1.98.02 3.97.07 5.95 0 .19-.01.26-.17.29-.29.04-.58.09-.86-.06-.15-1.35.01-2.7-.14-4.04-.02-.18-.01-.37-.07-.54-.07-.2-.16-.3-.45-.32-.51-.03-1.02-.07-1.52-.1-.44-.02-.59-.17-.62-.61-.02-.51-.01-1.03 0-1.54.03-1.69.09-3.37.11-5.06zm-1.2 3.41c.05-.03-.03-.15.01-.15-.04-.13.11-.17-.01-.28.02-.11.06-.22.19-.21.1.01.2.04.2.19-.01.75-.01 1.49-.01 2.24.01.51.04 1.03.04 1.54 0 .33-.15.47-.48.47-.32 0-.66.09-1.03-.14.35-1.21.72-2.43 1.09-3.66zm-3.78 2.65c.02.01.03.03.05.04-.02.01-.03.02-.05.03 0 .27 0 .54-.01.81-.07.76-.13 1.54-.1 2.29.02.68.05 1.36.07 2.04.03 1.05-.05 2.1.17 3.14-.18 1.6-.12 3.21-.14 4.81 0 .28-.12.4-.4.41-.29 0-.59-.02-.88-.03-.19-.01-.37 0-.5.17-1.35-.03-2.7-.05-4.1-.08-.25-.91-.22-1.85-.19-2.79.03-.95.14-1.91.08-2.86-.08-1.13-.01-2.25-.09-3.38-.05-.76-.04-1.52-.01-2.28.06-1.43-.23-2.86.04-4.29-.21-1.83-.09-3.67-.14-5.5-.01-.44.02-.88.04-1.32 1.06-.13 2.13-.02 3.19-.06.62-.02 1.25-.04 1.87-.05.25 0 .51.03.82.06.14.54.13 1.09.15 1.63.02.77.01 1.54 0 2.3-.01 1.25.05 2.49-.06 3.74-.03.31.1.64.16.97.03.06.03.13.03.2zm-6.16-13.78c0-.26.19-.4.43-.39.88.04 1.75.03 2.62.02.84 0 1.68-.01 2.52 0 .35 0 .49.12.49.44 0 1.2-.01 2.4-.03 3.6-.01.38-.15.49-.56.51-.95.04-1.9.15-2.85-.05-.4-.08-.8-.03-1.2.04-.29.05-.58.08-.87.09-.32.01-.47-.13-.52-.44-.01-.07-.03-.15-.03-.22-.01-1.2-.01-2.4 0-3.6zm.67-9.21c.4-1.52.8-3.05 1.23-4.57.28-.99.39-2.02.87-3.14.32.97.65 1.79.86 2.64.34 1.4.88 2.72 1.35 4.07.2.59.39 1.18.59 1.76-.28.25-.59.16-.86.16-1.25.03-2.5.03-3.75.05-.27 0-.38-.13-.36-.42.01-.18.02-.37.07-.55zm-.69 2.66c.03-.33.12-.65.37-.89.24-.23.53-.13.83-.14 1.43 0 2.85-.05 4.28-.08.58-.01.58 0 .63.63.04.47.08.94-.06 1.42-.11.39-.08.8.09 1.19-.74.82-.73 2.01.02 2.74-.04.1-.06.21-.11.31-.06.13-.1.28-.3.26-1.35-.19-2.7-.06-4.05.02-.43.03-.88-.03-1.32-.07-.26-.02-.38-.18-.39-.44 0-.22-.01-.44-.01-.66-.01-1.07-.03-2.13-.03-3.2.01-.36.02-.72.05-1.09zm-1.02 34.82c.78-.18 4.96-.23 7.19-.1.32.49.32.49.86.34.09.79.15 1.57.06 2.36-.04.38-.17.52-.54.57-.22.03-.44.05-.66.04-1.28-.05-2.56.09-3.83-.12-.32-.05-.66-.03-.98-.02-.65.03-1.31.08-1.96.12-.1-.15-.23-.28-.23-.48-.01-.58-.03-1.17-.02-1.75.01-.33.07-.65.11-.96zm.05 12.79c-.02-1.7-.08-3.4-.12-5.1-.01-.01-.02-.03-.03-.04.01 0 .02 0 .03-.01 0-.15 0-.29-.01-.44.21-.67.11-1.36.05-2.04-.1-1.25-.1-1.3 1.21-1.32 2.09-.03 4.19.03 6.28.05.55.01.62.07.65.65.06 1.29.12 2.57.12 3.86.02 2.39 0 4.78.01 7.17l.03 9.16c0 .45-.26.8-.6.71-.67-.18-1.32-.01-1.98-.03-1.21-.05-2.43-.02-3.64-.03-.54 0-1.07.21-1.6.02-.07-.02-.13-.06-.23-.11-.11-.63-.1-1.29-.06-1.95.04-.66.06-1.3-.05-1.97-.1-.65-.03-1.32-.03-1.98-.01-2.2-.01-4.4-.03-6.6zm8.3 18.79c0 .61-.07.6-.64.67-.95.12-1.9.01-2.85.05-.91.04-1.83.03-2.74.04-.55 0-1.1-.01-1.64-.03-.16-.01-.28-.12-.31-.27-.05-.21-.08-.43-.08-.65 0-1.58 0-3.15.01-4.73 0-.31.22-.41.51-.41 1.21-.01 2.77 0 3.77 0v.01c1 0 2.28-.01 3.49.01.52.01.49.06.5.58.01 1.57-.02 3.15-.02 4.73zm22.07.17c0 .26-.15.41-.4.43-.33.02-.66.02-.99.02-3.01.01-6.03.03-9.04.04-1.62 0-3.23-.01-4.85 0-.59 0-1.18.02-1.76.08-.88.1-1.75-.13-2.63-.09-.47.02-.95-.04-1.42-.07-.21-.48-.14-1-.15-1.5-.03-1.36.01-2.71.02-4.07 0-.28.16-.39.42-.38 1.06 0 1.99.01 3.05.02h6.71v-.04c3 0 5.71-.01 8.5.01.62 0 1.31-.13 1.94-.02.49.09.56.11.6.62.01.07.03.15.03.22-.01 1.58-.01 3.16-.03 4.73zm.04-17.07c.02.37-.01.73-.01 1.1 0 1.21.01 2.42 0 3.63-.01 1.14-.04 2.27-.05 3.41 0 .62.03 1.25.03 1.88 0 .47-.15.64-.56.63-.7-.03-1.39.06-2.09-.08-.14-.03-.29-.04-.43-.03-2.19.09-4.39.16-6.58.12-.72-.01-1.45.07-2.17.09-.33.01-.65-.01-.98-.03-1.02-.04-2.04.04-3.05-.02-1.03-.06-2.06-.01-3.08 0-.62.01-1.25.05-1.87.06-.24.01-.41-.14-.42-.4-.02-.81-.01-1.62-.02-2.42 0-.77.05-1.54-.18-2.29.16-.12.19-.31.19-.49-.01-.47-.03-.95-.03-1.42-.01-2.19 0-4.38-.02-6.56 0-.47.07-.95-.14-1.39 0-1.03-.05-2.06.01-3.08.04-.66-.14-1.31-.07-1.96.02-.18-.05-.37-.02-.55.17-.83-.11-.99 1.04-.98 2.17.02 4.34.03 6.51 0 1.24-.02 2.49.01 3.73.01 1.21 0 2.43.02 3.64.01 1.98-.01 3.96-.03 5.93-.04.15 0 .3-.01.44.03.08.03.17.13.2.22.04.1.01.22.01.33l-.02 5.41v.11c.2 1.55-.04 3.13.06 4.7zm.03-13.75c0 .22-.01.44-.04.66-.07.5.2 1.12-.2 1.47-.34.3-.92.1-1.38.1-2.64.03-5.28.01-7.92 0-.51 0-1.02-.03-1.53-.06-.58-.04-1.15-.09-1.74.03-.53.12-1.07-.08-1.62-.06-1.97.08-3.95.08-5.93.1-.18 0-.37-.01-.55-.03-.38-.04-.59-.22-.67-.72-.12-.7.04-1.38-.01-2.06-.03-.4.1-.5.54-.5 1.32-.01 2.64 0 3.96-.01 2.42-.01 4.85-.04 7.27-.05 1.46-.01 2.93.03 4.4.02 1.02-.01 2.04.01 3.06-.07.73-.06 1.46.04 2.19.07.18.38.17.75.17 1.11zm.05-2.23c-.13.33-.4.43-.68.43-.76-.02-1.52.16-2.3-.03-.55-.13-1.17-.1-1.73-.01-.41.06-.77.09-1.18-.01-.45-.11-.92-.17-1.41 0-.29.1-.65.06-.97.04-1.27-.09-2.54-.08-3.81.06-.07.01-.15.01-.22 0-.87-.22-1.75-.13-2.63-.08-1.35.07-2.69.06-4.04-.03-.69-.04-1.39 0-2.08 0-.25 0-.55.06-.71-.19-.25-.4-.47-.03-.71-.01-.23-2.12-.01-4.23-.03-6.29.2-.26.45-.19.65-.25.21-.06.43-.09.65-.14.1-.02.23-.05.14-.2-.27-.44 0-.9-.05-1.35-.05-.43.02-.88.06-1.32.05-.62.08-1.23-.1-1.9 1-.14 1.94-.1 2.88-.11.4 0 .81.05 1.21.02.49-.03.63.14.62.65-.01 1.03.02 2.06-.04 3.09-.05.92.53 1.29 1.26 1.31.26.01.51-.01.77-.02.25-.01.38-.11.37-.41-.01-.39.52-.6.42-1.05-.08-.36-.11-.72-.11-1.09.02-1.91.01-3.82.01-5.76.32-.17.71-.16 1.05-.15 1.17.01 2.34.09 3.51-.09.14-.02.3.01.43.05.22.07.39.22.4.47 0 .18-.04.37-.04.55-.02 1.97-.04 3.95.03 5.92.01.36-.06.73-.07 1.09 0 .29.22.55.47.51.69-.1 1.38.04 2.08-.02.58-.05.71-.16.72-.74 0-.99-.01-1.99-.03-2.98 0-.26-.02-.52-.01-.77.01-.53.09-.6.67-.6.66 0 1.33.03 1.99.01.35-.01.63.15.94.26.24.09.35.28.36.5.03.55.02 1.1.03 1.64.01.59.01 1.18.05 1.76.04.58.23.77.81.86.33.05.66.02.99.05.21.02.32.16.34.37 0 .04.01.07.01.11-.13 1.76.07 3.52.05 5.28 0 .11.01.22-.01.33-.03.17.05.39-.15.49-.26.13-.27-.15-.38-.26-.2-.18-.4-.19-.48.01zm.51 1.51c0-.37.14-.52.45-.46.92.19 1.82-.1 2.74-.04 1.09.08 2.19.01 3.28 0 .32 0 .61.26 1.02.03.01.59.01 1.06-.04 1.54-.05.47.02.94.04 1.42.01.28-.12.44-.38.4-.73-.09-1.45.06-2.18-.01-.72-.07-1.46-.04-2.18.02-.36.03-.69-.15-1.07-.03-.3.1-.65.09-.98.09-.5 0-.61-.08-.64-.54-.03-.8-.05-1.61-.06-2.42zm7.41 31.42c-.02.45-.13.52-.61.56-1.42.14-2.83-.01-4.25-.05-.73-.03-1.45.27-2.27-.06-.08-.67-.11-1.32-.09-1.97.03-1.1-.01-2.2-.03-3.3-.01-.55.01-.61.5-.62 1.97-.06 3.94-.1 5.91-.15.15 0 .29.03.44.03.29-.01.38.19.43.41.03.14.04.29.01.43-.12.47-.07.95-.03 1.42.1 1.1.05 2.2-.01 3.3zm.09-12.8c-.03 1.17-.08 2.34-.08 3.52 0 .81.05 1.61.06 2.42 0 .32-.12.4-.47.42-.37.02-.73.07-1.09.1-.22.02-.45.08-.66.03-.69-.16-1.38-.04-2.07 0-.24-.11-.48-.24-.73 0-.06-.04-.12-.04-.19 0-.09-.2-.19-.16-.28 0-.47-.04-.94-.1-1.41-.13-.26-.02-.4-.16-.42-.41-.01-.15-.02-.29 0-.44.2-1.91.04-3.82.02-5.73-.01-.7.04-1.4 0-2.09-.06-1.14-.1-2.27.01-3.4.03-.36-.1-.72-.1-1.09 0-.66.03-1.32.08-1.98.07-.94-.03-1.9-.05-2.85-.02-.95-.03-1.91-.02-2.86 0-.39.08-.46.46-.46.91-.01 1.81-.05 2.72-.01.62.02 1.26.06 1.88-.02.66-.08 1.31.02 1.97-.03.27-.02.39.11.38.39-.01.44-.02.88-.06 1.32-.03.37-.04.73.02 1.1.03.22.07.44.05.66-.15 1.39.01 2.78 0 4.17-.04 2.44.04 4.91-.02 7.37zm36.06 2.39c.58-.04 1.16-.07 1.75-.08.44-.01.53.07.54.5.02.99.03 1.98.04 2.97 0 .28-.17.39-.42.4-.69.03-1.38.05-2.08.06-.22 0-.44-.03-.44-.03-1.27.08-2.33.14-3.39-.02-.23-.04-.44-.03-.65.02-.94.23-1.89.11-2.84.09-.37-.01-.49-.15-.55-.54-.02-.14-.04-.29-.04-.44 0-.88.01-1.76.01-2.64 0-.27.14-.41.39-.42.51-.01 1.03 0 1.54 0 .32 0 .4-.11.46-.46.15-.87.21-1.74.21-2.62 0-.49.11-.62.58-.59 1.28.08 2.56-.02 3.84 0 .38.01.49.11.49.43 0 .77-.01 1.54-.02 2.32 0 .11-.03.22-.05.32-.12.52.11.76.63.73zm-26.7 10.49c-.01.26-.17.4-.41.44-.22.03-.44.05-.66.05-1.8-.04-3.6.08-5.4-.07-.32-.03-.66.01-.98.05-.29.03-.58.06-.88-.04-.17-.29-.19-.61-.2-.95-.02-.92-.06-1.83-.1-2.75 0-.11-.03-.24.01-.32.24-.47.1-.93.02-1.4-.03-.18 0-.36 0-.57.63-.18 1.26-.31 1.88-.32 2.02-.04 4.04-.23 6.06-.23h.11c.43 0 .54.32.54.73.02 1.21.02 2.53.03 3.75 0 .5 0 1.12-.02 1.63zm-8.59-9.42c0-.78-.01-.89.83-.95.29-.02.58-.05.87-.07.8-.06.8-.11.74-.91-.05-.73-.07-1.48-.08-2.21-.01-.47.07-.55.56-.66.47-.1.95-.1 1.42-.05.62.06 1.24.14 1.87.07.34-.04.42.07.42.46 0 .92 0 1.84-.02 2.76-.01.29.16.36.38.44.43.17.88-.01 1.31.09.22.05.32.15.32.36 0 .99.01 1.98-.01 2.98-.01.4-.11.5-.51.59-.36.08-.73.16-1.09.09-.73-.13-1.44-.07-2.17-.01-.55.05-1.1.02-1.65 0-.64-.03-1.29-.14-1.93.04-.21.06-.44.02-.66 0-.5-.04-.61.03-.63-.5-.01-.48 0-1.23 0-1.23h.04c-.01-1-.01-.92-.01-1.29zm9.23-9.9c-.01-.44.08-.55.47-.55.95-.01 1.91 0 2.92 0 .25 1.7.05 3.37-.03 5.05-1.01.15-1.96.06-2.92.05-.21 0-.33-.15-.34-.36-.03-.66-.05-1.32-.07-1.98l-.03-2.21zm.82-1.25c-.21 0-.39-.12-.34-.33.3-1.28.62-2.55.95-3.82.01-.05.1-.11.16-.11.04-.01.13.06.14.11.43 1.2.86 2.4 1.28 3.61.14.41.07.53-.33.56-.29.02-.86.03-.86.04v-.05c.01-.01-.67-.01-1-.01zm-.78 9.77v-2.87c0-.16.11-.28.27-.3.91-.09 1.83-.1 2.74-.04.16.01.26.11.32.26.12.28.12.57.12.87-.01.29-.01.58-.01.88-.02 1.65.05 3.29-.1 4.94-.02.24-.1.44-.38.45-.26.01-.41.27-.71.22-.53-.09-1.04-.23-1.6-.11-.31.07-.46-.18-.5-.55-.13-1.26-.14-2.5-.15-3.75zm.64 11.29c-.24-.1-.49-.19-.46-.53.07-.87-.15-1.72-.03-2.61.11-.82-.03-1.67-.07-2.51-.02-.4.1-.53.49-.53h2.41c.21 0 .35.1.38.31.05.55.13 1.1.13 1.64.02 1.39 0 2.79 0 4.18-.94.02-1.9.03-2.85.05zm13.48-.05c-.18-.14-.38-.17-.6-.13-.35.12-.7.08-1.05-.03-.46-.09-.92-.09-1.38-.02-.23.05-.45.12-.68.1-.09 0-.18-.01-.27 0-.18.01-.36-.01-.54-.05-.19-.03-.39-.02-.58.01-.04 0-.08-.01-.12-.01 0 0 0-.01-.01-.01v.01c-.17-.01-.33-.06-.5-.09-1.26.04-2.55-.28-3.78.17 0-.04-.01-.07-.01-.11-.06-.01-.13-.01-.19-.02-.04-.06-.11-.12-.12-.18-.13-1.76-.12-3.53-.08-5.3.01-.24.17-.38.43-.4.44-.03.88-.11 1.32-.12 2.28-.03 4.55-.05 6.83-.07h.11c1.33.11 1.39-.19 1.29 1.31-.04.66.02 1.32.03 1.99.02.99.08 1.97-.1 2.95zm-7.33-11.64c-.04-.09-.13-.21-.11-.29.31-.89.1-1.82.19-2.78h3.13c.4 0 .81-.03 1.21-.02.26 0 .4.16.41.41.02.4.03.81.03 1.21 0 .29-.04.59-.02.88.12 1.37.03 1.15 1.25 1.24.39.03.87-.18 1.15.16.23.28.08.71.08 1.07.01.88 0 1.76 0 2.7-.75.3-1.6.06-2.42.14-.83.08-1.67-.07-2.51-.03-.8.04-1.61-.07-2.41-.05-.84.02-1.67.12-2.53-.17-.12-1.11-.05-2.24-.07-3.38 0-.34.1-.43.48-.44.62-.02 1.25-.01 1.87-.04.46.01.5-.12.27-.61zm9.74 11.63c-.37.01-.73.01-1.1 0-.25-.01-.4-.12-.41-.4-.03-.95-.17-1.89-.05-3.07v-2.3c0-.25.08-.43.37-.42 1.92.1 1.65-.29 1.7 1.61.03 1.32 0 2.63.14 3.95.05.47-.13.62-.65.63zm-.74-25.24c.27.19.37.43.31.74.38.99.63 2.02.87 3.05.07.32 0 .43-.29.43-.47-.01-.93-.03-1.4-.05-.23-.5-.01-1.01.04-1.5.07-.65.25-1.29.38-1.93-.06-.25-.06-.49.09-.74zm-.3 4.99c.51.06 1.13-.28 1.49.06.36.34.02.94.04 1.44.04.99.02 1.96.01 2.95-.01.46-.07.54-.49.56-1.81.09-1.57.35-1.54-1.26.01-.4 0-1.05 0-1.05h-.03v-2.14c0-.41.09-.61.52-.56zm1.51 13.19c-.59.06-1.06.13-1.54.15-.3.01-.46-.17-.46-.47v-6.71c0-.21.06-.36.29-.38.29-.03.58-.08.88-.07.75.01.87.14.86.9l-.03 5.94v.64zm.6-14.9c-.4-1.45-.83-2.9-1.24-4.34-.05-.17-.09-.36-.17-.52-.16-.33-.43-.34-.7-.07-.24.24-.37.51-.43.86-.21 1.34-.46 2.68-.69 4.02-.02.11-.05.22-.04.33.07.53-.7.93-.21 1.52v1.66c0 2.1.01 4.2.01 6.3 0 .49-.01.49-.5.5h-.66c-.42-.01-.45-.02-.47-.42-.04-.66-.04-1.32-.06-1.97-.01-.22-.01-.44-.02-.66-.04-.59-.05-.56-.64-.57-.62-.01-1.24-.07-1.86-.12-.32-.03-.43-.17-.46-.51-.01-.22 0-.44 0-.66l.03-5.3c0-.22-.01-.44-.03-.66-.01-.2-.07-.36-.31-.38-.25-.02-.45.09-.5.33-.05.25-.05.51-.05.77v5.3c0 .15.01.29 0 .44-.02.58-.03.6-.63.63-.44.02-.88.02-1.32.03-.52.02-.68.12-.69.64-.02 1.02.01 2.04.03 3.09-.18.01-.4.03-.62.03-1.28-.02-1.21.19-1.2-1.14.02-2.39-.02-4.78-.02-7.17 0-.6 0-1.17-.42-1.67-.16-.19-.21-.46-.29-.71l-1.14-3.57c-.08-.25-.17-.49-.25-.73-.11-.3-.32-.48-.62-.59-.16-.06-.29-.06-.37.1-.07.17-.15.34-.17.52-.18 1.39-.66 2.71-.92 4.09-.07.36-.17.71-.29 1.06-.13.38-.66.63-.57 1.02.08.35.19.69.19 1.04 0 1.36-.02 2.72-.03 4.09 0 1.07.02 2.13.02 3.2 0 .18.02.44-.17.47-.27.05-.59.12-.85-.07-.13-.09-.12-.26-.12-.4l.03-2.54c0-.22.05-.46-.09-.64-.11-.15-.22-.43-.49-.18-.12.11-.25.12-.4.12-.37-.01-.73 0-1.12 0-.43-.61-.29-1.28-.25-1.91.08-1.5.1-3.01-.03-4.51-.05-.55-.04-1.1-.06-1.65-.01-.15-.07-.3-.25-.29-.2.01-.36.13-.36.33-.04 1.36-.08 2.72-.09 4.08-.01.84.04 1.69.06 2.54.01.44.03.89-.11 1.31-.56.23-1.16.06-1.73.21-.09.02-.22-.03-.3-.09-.14-.11-.27-.33-.45-.25-.26.12-.49.33-.71.52-.07.07-.07.23.05.28.45.21.49.58.47 1.02-.02.29.01.59.03.88.02.41.02.81-.17 1.19-.07.02-.13.07-.2.07-1.4 0-1.17.2-1.35-1.21-.05-.36-.01-.74-.01-1.1.01-1.39.04-2.78.04-4.17 0-2.06-.05-4.12-.04-6.18.01-.96-.01-1.91-.11-2.86-.04-.43-.08-.9.25-1.26.11-.12.05-.18 0-.27-.02-.03-.06-.05-.08-.08-.32-.4-.21-.85-.03-1.23.15-.32.55-.16.81-.13 1.54.15 3.07-.06 4.61.03.98.06 1.98-.04 2.96-.07.58-.02 1.17.05 1.75.06 2.23.03 4.47-.1 6.7-.05 2.27.05 4.55-.1 6.82.03.84.05 1.69-.06 2.53-.06 1.98-.01 3.96.05 5.94 0 1.36-.04 2.72.07 4.07-.1.07-.01.15 0 .22 0 1.29.06 1.2-.09 1.18 1.21-.02 1.17 0 2.35.02 3.53.05 3.17.09 6.33.03 9.5-.02.85.03 1.69.03 2.54 0 .48-.01.96-.04 1.43-.02.35-.1.4-.5.39-.11 0-.22 0-.33-.01-.4-.04-.89.11-1.17-.16-.29-.28-.06-.76-.06-1.15.02-.62-.02-1.24.12-1.87.1-.45-.24-.69-.75-.67-.47.02-.95.04-1.42.04-.22 0-.44-.04-.64-.06-.27-.48-.19-.97-.16-1.43.11-2.03-.04-4.05.01-6.07.01-.37.01-.73.01-1.1 0-.19-.08-.36-.29-.41-.19-.04-.44.15-.48.37-.02.07-.03.14-.03.22 0 1.21-.01 2.42 0 3.62.01 1.43.04 2.86.06 4.29 0 .42-.12.56-.61.59-.55.04-1.1.03-1.65.04-.68.01-.73.2-.71.7.03.85.02 1.69.03 2.54 0 .57-.03.58-.62.61-.11 0-.22.02-.33.02-.97-.08-.84-.04-.86-.89-.04-1.62-.01-3.23-.01-4.85 0-.77-.01-1.55 0-2.32 0-.4.11-.81.03-1.19-.08-.41-.22-.76-.32-1.11zm10.76 21.51c-.03.21-.14.32-.36.33-.22.01-.45.07-.65.04-.59-.1-1.18-.04-1.76-.02-.59.02-1.18-.01-1.77-.07-1.16.15-2.33.09-3.5.02-.58-.03-1.17.11-1.76.15-.46.03-.57-.08-.63-.56-.02-.18-.03-.37-.03-.55 0-1.25-.04-2.5.03-3.75.08-1.57-.12-1.31 1.29-1.34 1.36-.03 2.72.06 4.08-.02 1.49-.09 2.98.02 4.46-.07.54-.03.59.04.59.54 0 1.65-.08 3.31.06 4.96.01.12-.03.23-.05.34zm75.8-89.35l.01.01c.48.4.96.41 1.45.08-.01.04-.03.08-.03.13.01 5.64.22 11.27.12 16.91-.04 2.16.05 4.34.13 6.5.04 1.18-.1 1.29-1.23 1.3-1.58.01-3.17.02-4.76 0-1.13-.01-1.2-.14-1.25-1.3-.13-3.35.01-6.71-.04-10.06-.06-3.98 0-7.96-.05-11.94-.01-.81.37-1.11 1.11-1.18 1.1-.11 2.21-.06 3.31-.1.44-.02.92.07 1.23-.35zm-34.72-16.44c.37 0 .74-.01 1.11-.01 7.66 0 15.33.01 22.99-.01 2.24-.01 4.49.05 6.73-.17.04-.01.07-.01.11-.01.23.18.56.14.85.17 1.28.12 1.26.11 1.3 1.43.03.76-.21 1.6.49 2.2-.52.56-.59 1.27-.47 1.95.32 1.85-.06 3.68 0 5.51.02.56-.21.84-.76.84-1.11.01-2.2.18-3.31.19-2.8.04-5.6-.02-8.39.01-6.74.07-13.49.01-20.23.04-.84 0-1.18-.34-1.2-1.18-.1-3.31.2-6.63-.18-9.94-.08-.68.27-1.01.96-1.02zm-3.94 16.78c.32-.06.66-.13.98-.09 1.32.16 2.63-.02 3.95.01.77.02 1.54.05 2.3.03.56-.02.65.05.66.6.02 1.25.05 2.5.03 3.75-.04 2.87 0 5.74.03 8.6.02 1.84-.07 3.68-.06 5.51.01 1.83-.11 3.67.03 5.5.01.18.02.37.02.55-.01.24-.1.44-.38.45-.81.02-1.61.02-2.42.03-1.08.13-2.17.14-3.25 0-.18-.11-.2-.31-.2-.49-.03-.77 0-1.54-.07-2.31-.04-.4.04-.81.26-1.03.37-.38.21-.56-.04-.88-.24-.31-.37-.72-.5-1.1-.5-1.42-.98-2.84-1.49-4.26-.06-.18-.11-.34-.1-.53.13-3.02 0-6.03-.04-9.05-.02-1.62-.03-3.23-.08-4.85-.01-.31.16-.4.37-.44zm1.73 26.47c.07-.61.05-.59.67-.78.3-.09.58-.07.88-.07 1.46.02 2.92-.06 4.38.06.26.34.28.75.28 1.16-.01 1.69-.01 3.39-.02 5.08 0 .4-.09.49-.55.49-1.18.02-2.36.02-3.54.02-.59 0-1.18 0-1.77-.01-.22 0-.34-.13-.34-.34-.01-1.21-.05-2.43.02-3.64.02-.65-.09-1.31-.01-1.97zm-5.68 24.1c-.03-1.28.02-2.56-.07-3.84-.05-.76.01-1.54 0-2.31-.04-2.06-.02-4.11-.04-6.17-.01-1.36-.03-2.72-.03-4.08 0-.51.08-.58.57-.59 1.36-.02 2.73-.02 4.09-.02.36 0 .48.11.49.45.03.73.08 1.47.03 2.2-.03.47-.06.92.04 1.38.15.72.07 1.45.03 2.16-.07 1.36-.01 2.71.01 4.06.05 2.61-.1 5.21.08 7.82.09 1.35.02 2.72.01 4.08 0 .26-.3.42-.58.42h-2.4v.03h-1.9c-.37 0-.37-.08-.39-.44-.03-.7-.03-1.39.01-2.09.07-1.01.06-2.04.05-3.06zm-.25-21.66c-.02-.44.02-.48.5-.49l4.3-.03c.34 0 .44.09.45.47.03.99.05 1.98.06 2.97 0 .55-.48 1.03-1.05 1.05-.73.02-1.48-.08-2.2.04-.64.11-1.23.02-1.84-.07-.06-.16-.08-.19-.08-.22-.05-1.23-.1-2.47-.14-3.72zm.62-9.07c.15-.75.3-1.51.48-2.25.37-1.5.77-2.98 1.15-4.47.24-.01.27.18.34.34.94 2 1.32 4.19 2.15 6.22.07.16.11.35-.02.57-.91-.03-1.84.29-2.8.08-.27-.06-.58.05-.87.06-.39.01-.51-.15-.43-.55zm-.64 2.18c-.01-.44.12-.78.43-1.08 1.36 0 2.71-.01 4.07-.01.62 0 .73.08.74.65.01 1.14.04 2.27-.01 3.41-.04.73.07 1.45.04 2.18-.01.29-.11.41-.38.41-1.43 0-2.86 0-4.29-.01-.54-.01-.61-.1-.61-.67l-.01-.88c.04-.06.11-.13.1-.19-.16-1.26-.04-2.54-.08-3.81zm-4.43 17.58c.34.4.42.72.49 1.03.2.82.39 1.64.57 2.47.1.48 0 .59-.48.62-.48.03-.57-.04-.58-.55-.01-1.14 0-2.28 0-3.57zm-6.84-5.94c.08-.02.18-.07.28-.07 1.62 0 3.23-.01 4.85 0 .5 0 .49.02.61.55.2.9.4 1.79.62 2.69.05.2.04.36-.14.48-.25.16-.29.4-.28.67.03 1.14.06 2.28.08 3.42 0 .33-.05.66-.05.98-.01.43.23.95-.12 1.25-.32.28-.85.1-1.28.11-.29.01-.59-.01-.88 0-.25.01-.41.17-.41.42 0 .66.03 1.32.04 1.98.01.73.03 1.47.03 2.2 0 .39-.11.48-.54.49-.51.01-.67-.13-.63-.66.11-1.32.03-2.64-.03-3.96-.01-.25-.01-.51.02-.77.13-1.07-.19-2.11-.17-3.18 0-.14-.08-.28-.12-.42-.61-1.84-1.22-3.69-1.83-5.53-.08-.19-.16-.4-.05-.65zm-1.89-.49c.1-.35.24-.69.38-1.1.45.66.39 1.4.7 2.03.3.62.43 1.32.63 1.99.2.67.39 1.34.6 2 .2.67.41 1.33.61 1.99-.11.04-.21.1-.31.1-1.5 0-3.01-.01-4.51-.01.04-.25.06-.51.13-.76.58-2.08 1.17-4.16 1.77-6.24zm-7.59 3.21c.26-.77.54-1.52.79-2.29.11-.33.36-.51.66-.48 1.03.12 2.05-.08 3.08-.01.47.03.94.09 1.43.02.38-.06.56.18.46.53-.44 1.56-.89 3.11-1.31 4.67-.15.55-.46.99-.81 1.42-.21.27-.36.54-.08.88.17.21.11.49.11.75.01 1.14 0 2.28.02 3.42.01 1.03.04 2.06.04 3.09 0 .34-.12.45-.47.47-.3.02-.45-.09-.39-.36.12-.59-.05-1.17.04-1.76-.03-.55-.06-1.1-.08-1.64-.01-.33-.01-.63-.31-.89s-.6-.41-.98-.42c-.48-.02-.96-.02-1.43-.04-.37-.01-.45-.09-.45-.46-.01-1.36-.01-2.72-.01-4.08 0-.4.01-.81-.01-1.21 0-.14-.02-.34-.11-.41-.47-.36-.33-.79-.19-1.2zm-.96 4.02l.03-.43c.01-.13 0-.27.02-.4 0-.03.08-.06.12-.08.01 0 .06.05.06.07 0 .13-.01.26-.01.39-.01.15-.01.3-.02.44.15.98.11 1.96.06 2.95-.01.19-.09.35-.31.38-.26.04-.51.05-.74-.1-.04-.03-.06-.14-.05-.19.29-1 .43-2.05.84-3.03zm-3.74 13.14c0 .59.03 1.18.04 1.76.01.29 0 .58 0 .99-.66-.12-1.16-.09-1.68-.03-.65.08-1.32.09-1.98.04-.55-.04-1.09-.08-1.64 0-.36.05-.53-.13-.53-.52-.01-.77.02-1.54.01-2.32 0-1.4 0-2.79-.03-4.19-.01-.51.09-1.03-.1-1.53-.02-.07-.03-.15-.01-.22.31-1.75-.04-3.5.01-5.25.02-.81.05-1.62.04-2.42-.02-1.58.14-3.15 0-4.73-.03-.33 0-.66-.04-.99-.04-.31.13-.39.38-.39.99 0 1.98.03 2.98.03.59 0 1.18-.06 1.76-.03.81.03.75.09.75.74 0 2.57-.01 5.14 0 7.71 0 1.47.04 2.94.05 4.41 0 2.32-.01 4.63-.01 6.94zm-.17-20.58c-.73.01-1.46.03-2.19.04-.99.02-1.98.04-2.97.05-.33 0-.48-.11-.5-.45-.04-.73-.06-1.46-.08-2.2-.01-.51 0-.81-.02-1.32-.01-.28.1-.19.38-.19h2.51v-.46c1 0 1.62-.01 2.39 0 .49.01.59.07.59.59 0 .55-.04 1.1-.04 1.65-.02.77.15 1.54-.07 2.29zm-5.35-13.54c.58-2.09 1.17-4.17 1.75-6.25.04-.14.05-.29.11-.43.06-.16.07-.41.26-.45.29-.05.3.26.4.44.39.75.63 1.55.87 2.37.44 1.51.95 3.01 1.42 4.51.07.21.13.42.15.64.01.07-.11.17-.19.23-.05.04-.14.02-.21.03l-4.3.03c-.11 0-.21-.04-.38-.06-.08-.43.03-.75.12-1.06zm-.44 2.57c.09-.74.2-.8.98-.83 1.5-.05 3-.11 4.51-.04.15.01.29.03.44.04.01 1.55.01 3.09.02 4.64-.02.51-.04 1.02-.07 1.54-.02.24-.11.41-.4.4-1.65 0-3.29.01-4.94.01-.31 0-.42-.14-.43-.49l-.12-4.61c-.02-.22-.02-.44.01-.66zm-.85 35.14c1.91-.18 3.78-.16 5.64-.1.44.01.88 0 1.32.05.48.05.67.24.69.7.02.62.02 1.25-.01 1.88-.02.39-.16.53-.54.56-.66.04-1.31.07-1.97.08-1.4.02-2.79.04-4.19.05-.15 0-.29-.02-.44-.03-.21-.01-.33-.12-.38-.33-.22-.94-.17-1.88-.12-2.86zm7.55 32.06c-.26.17-.7.1-1.06.11-1.43.02-2.86.05-4.29.04-.55 0-1.09.17-1.64.05-.14-.03-.29-.04-.5-.08-.02-.38-.04-.66-.04-.95l.09-4.81c.01-.26.11-.41.39-.41 1.72.01 3.44.01 5.16.02.51 0 1.03-.01 1.54 0 .33.01.46.14.46.48.01 1.32 0 2.64 0 3.96 0 .18.01.37-.01.55-.04.36.23.82-.1 1.04zm.14-16.93c-.12 1.91.02 3.82 0 5.73-.01 1.25.02 2.5.03 3.75 0 .39-.12.51-.52.57-.14.02-.29.02-.44.03l-5.71.12c-.29.01-.59.04-.9-.13-.04-.56-.1-1.13-.09-1.72.02-1.3.2-2.6-.03-3.91-.13-.74-.04-1.52.01-2.28.06-.84-.07-1.67-.03-2.5.05-.98-.04-1.97.02-2.95.04-.69 0-1.37-.04-2.06-.04-.75.09-1.52.12-2.28.02-.51.01-1.01-.1-1.52-.11-.55.01-1.15.07-1.73.02-.23.2-.39.46-.4.77-.03 1.54-.11 2.29-.06 1.21.07 2.41.04 3.62.03h.77c.2 0 .34.11.47.25-.03 1.25-.09 2.5.02 3.76 0 .15.04.3.04.45-.06.96.03 1.92.03 2.88v2.88c0 .04.02.05.05.06-.02.33.03.69-.14 1.03zm22.63 16.46c-.02.12-.03.23-.03.35 0 .07.02.14.03.21-.08 0-.17 0-.25.01-.22-.07-.45-.09-.67-.13-.11-.01-.21-.01-.32 0-.62.1-1.25.12-1.87-.02-.16-.03-.31-.03-.47-.01-.32.1-.63 0-.94-.07-.69-.06-1.38-.14-2.06.08-.08.04-.13.11-.16.18-.2-.05-.4-.1-.6-.11-.21-.05-.43-.09-.64-.16-.95.02-1.94-.33-2.84.23-.07-.07-.16-.13-.26-.18-1.01-.22-2.03-.02-3.04-.14-1.54-.01-3.09-.01-4.63 0-.42 0-.87-.03-1.24.21-.1-.02-.2-.05-.28-.1-.87-.06-1.2-.54-1.16-1.39.04-.84-.01-1.69-.03-2.54-.04-1.59.09-1.71 1.65-1.71 4.27-.02 8.54.04 12.81-.04 2.02-.04 4.05-.15 6.07.02.68.05 1.01.32.99 1.02-.05 1.42.04 2.85-.06 4.29zm-.05-6.53c-.37.01-.74.03-1.11.03-2.21.01-4.41.1-6.62 0-.37-.02-.75-.02-1.1.05-.41.08-.79.11-1.19-.01-.36-.1-.73.11-1.07.06-.33-.05-.66-.12-.98-.05-.59.14-1.16.05-1.75.02-.8-.05-1.61.09-2.41.05-1.68-.07-3.36.07-5.03-.11-.38-.04-.46-.09-.47-.47-.05-.95-.18-1.91-.09-2.85.14-1.51.06-3.02.08-4.52.01-1.1.1-2.2 0-3.3-.04-.4-.07-.8-.16-1.2.05-.76-.14-1.5-.21-2.25-.03-.18-.03-.35 0-.53.16-.92.14-1.84.01-2.77.06-.61-.18-1.24.15-1.83.16-.36-.01-.73.04-1.09.04-.25.14-.44.4-.44.77-.01 1.53-.13 2.31-.09 1.17.06 2.35.01 3.52 0 1.61-.01 3.21-.01 4.82-.03 3.24-.03 6.47-.07 9.71-.1.19 0 .37 0 .55.01.93.03 1.01.07.93 1.04-.13 1.65.05 3.29.04 4.94 0 1.95-.03 3.9-.02 5.84 0 2.95.02 5.89.03 8.84 0 .11.01.22 0 .33.01.26-.11.42-.38.43zm.35-22.52c-.01.22-.15.41-.43.43-.22.02-.44.08-.66.08-1.46 0-2.92-.02-4.38-.02-.8 0-1.6-.01-2.4.1-.11.02-.22.02-.33.01-2.04-.18-4.1.16-6.14-.12-.04-.01-.07-.02-.11-.01-1.46.29-2.93.04-4.39.13-.95.06-1.9-.03-2.85-.06-.35-.01-.47-.11-.49-.46-.05-.8-.06-1.61-.07-2.42 0-.16.11-.28.27-.29.26-.03.68-.04.94-.04H143v.03c3-.03 5.93-.05 8.97-.07.44 0 .8.02 1.24.04.6.04.7.15.71.69 0 .66-.04 1.32-.08 1.98zm.05-3.83c-.14.21-.3.3-.54.31-1.06.01-2.12.07-3.18.1-1.1.03-2.19-.06-3.28.03-.22.02-.45.04-.66.01-1.17-.15-2.34.03-3.5.01-1.57-.03-3.14.02-4.72-.01-1.61-.03-3.23-.07-4.84.03-.33.02-.67-.07-.99-.01-.54.11-.73-.41-1.12-.56-.14-.05-.13-.25-.12-.4.02-.36.08-.72.08-1.09-.02-1.28-.06-2.56-.1-3.84-.01-.18-.04-.37-.04-.55 0-.25.12-.42.38-.46.33-.05.66-.08.98-.13.08-.01.26-.07.16-.19-.36-.41.12-.74.09-1.13-.05-.81-.01-1.62-.01-2.43 0-.26-.02-.52-.01-.77 0-.22.15-.35.36-.33 1.32.15 2.64-.05 3.96 0 .42.02.53.11.53.52 0 .88.05 1.77-.04 2.65-.06.53.33.97.18 1.49-.03.1.11.17.21.19.8.17 1.59.13 2.4-.04.19-.48.04-.96 0-1.42-.04-.48-.08-.95.03-1.43.04-.18.05-.36.04-.54-.02-1.25-.06-2.49-.07-3.74 0-.35.08-.7.13-1.05 1.31.01 2.61 0 3.92.03.35.01.64-.09.93-.23.14.21.27.4.27.69 0 2.06.02 4.13.04 6.19 0 .29.01.59.06.88.08.57.27.77.85.81.7.04 1.39-.04 2.13-.2.27-1.54-.18-3.13.18-4.63.21-.24.44-.19.65-.19.99 0 1.98.01 2.97.04.49.01.52.04.54.48.02.59.02 1.18.02 1.77 0 .74-.01 1.47-.02 2.21 0 .21.23.5.46.52.18.02.37.02.55-.02.38-.09.72-.04 1.14.15v4.93c0 .48.02.95.02 1.43 0 .16-.19.23-.32.13-.06-.04-.1-.1-.15-.16-.18-.21-.38-.3-.55-.05zm.68 1.56c.06-.25.16-.4.42-.4.59-.01 1.24-.01 1.83-.01h1.17v-.01s1.18.01 1.81 0c.59-.01 1.11.01 1.67.3.54.29.57.22.56.47-.05.66.14 1.31.01 1.97-.05.25-.17.39-.43.4-.37.01-.73.06-1.1.04-.55-.03-1.09 0-1.64.06-.47.05-.95-.03-1.42-.04-.81-.03-1.61-.05-2.42-.08-.26-.01-.4-.13-.41-.4-.06-.77-.24-1.53-.05-2.3zm.03 3.92c.01-.45.11-.55.5-.55 1.73-.01 3.46-.01 5.19-.02.55 0 1.03.4 1.57.17.26.8.17 1.51.17 2.2 0 .76.19 1.55-.16 2.29-.03.06-.04.15-.01.21.49 1.13.14 2.31.22 3.47.05.66-.01 1.32-.01 1.98 0 .44.05.89.02 1.32-.09 1.29-.01 2.57 0 3.86.01 1.77 0 3.53-.01 5.3 0 .47-.12.58-.58.62-.18.02-.37.01-.55.02-1.95.01-3.9.01-5.86.01-.45 0-.52-.07-.51-.52.03-1.03.07-2.05.11-3.08.01-.15.07-.3.04-.44-.34-1.68-.05-3.37-.11-5.06-.03-.66-.01-1.32-.02-1.98-.02-2.35-.03-4.71-.04-7.06.01-.9.01-1.82.04-2.74zm7.51 24.46c.02.41-.07.69-.44.9-.18.1-.16.34.04.41.35.12.44.34.41.67-.03.29-.04.59 0 .88.05.38-.19.52-.45.68l-.32-.03c-.38-.11-.79-.05-1.18-.08-.49 0-.97.01-1.46.01-.39 0-.79.03-1.17-.09-.22-.04-.44-.05-.65 0-.08.04-.16.07-.23.11-.54-.37-1.08-.35-1.63.07-.29-.15-.43-.41-.43-.72 0-1.65 0-3.31.02-4.96.01-.49.16-.57.7-.61 1.9-.15 3.81-.15 5.72-.14 1.02.01 1.15.14 1.13 1.13-.03.59-.09 1.18-.06 1.77zm.07-29.76c-.29.06-.44-.01-.46-.24-.03-.55-.09-1.1-.04-1.65.17-1.71-.05-3.43.09-5.14.05-.67-.03-1.31-.09-1.96-.08-.88-.05-1.76-.08-2.65-.03-.98-.16-1.96.04-2.94.02-.1 0-.22-.02-.33-.29-1.94-.11-3.9-.21-5.84-.02-.4.05-.81.08-1.21.02-.17-.07-.38.14-.49.25-.12.36-.44.73-.42.73.04 1.47 0 2.2.01.81.01 1.61.04 2.42.07.52.02.61.07.63.54.05 1.14.26 2.27.13 2.98-.2 2.05-.04 3.67.02 5.29.05 1.36-.04 2.72-.01 4.08.03 1.32-.03 2.64.03 3.96.09 1.91.04 3.83.03 5.74-.01 1.1.01 2.21.08 3.31.02.27-.06.5-.09.75-.02.2-.18.31-.39.31-.55 0-1.1.12-1.65 0-.36-.08-.73-.07-1.1-.05-.52.02-1.03.01-1.55-.01-.2-.01-.34-.12-.34-.34 0-.88 0-1.77.01-2.65 0-.26.03-.52.02-.77 0-.3-.26-.43-.62-.35zm.64 5.6c.01-.57-.13-.66.4-.67.66-.02 1.76 0 1.76 0v.03h2.3c.28 0 .5.15.5.41.03 1.09.12 2.19.14 3.28 0 .31-.12.5-.41.5-1.39.02-2.78.03-4.17.03-.44 0-.57-.16-.57-.62.02-.99.03-1.97.05-2.96zm5.1 26.97c-.03.98.09 1.96-.01 2.95-.03.25-.08.43-.36.45-1.35.07-2.7.2-4.06.11-.49-.03-.55-.08-.6-.59-.05-.61-.12-1.22.02-1.85.11-.48.01-1.01.01-1.52 0-.18-.01-.37 0-.55.02-.34.11-.45.47-.45.92-.01 1.83-.02 2.75 0 .58.01 1.16.09 1.72.13.24.45.07.89.06 1.32zm.11-19.92c-.12 1.14-.01 2.27 0 3.41.01.66 0 1.31-.06 1.98-.08.83.04 1.68.04 2.52 0 1.54-.04 3.09-.05 4.63 0 .36.08.73.06 1.09-.03.7.01 1.39-.12 2.09-.1.53.04 1.1.04 1.64.01.45-.04.46-.51.45-1.32-.03-2.64-.04-3.96-.06-.47-.01-.47-.02-.51-.51-.07-.92-.12-1.84.04-2.74.07-.4.14-.72-.01-1.13-.13-.36-.05-.8-.05-1.2.02-1.32.06-2.65-.1-3.96-.02-.14-.02-.29 0-.44.21-1.35.03-2.71.03-4.06 0-1.21.03-2.42.03-3.63 0-.69-.04-1.39-.07-2.08-.01-.22-.06-.44.07-.65.37-.19.79-.13 1.18-.09.66.07 1.31.06 1.97.01.51-.04 1.02-.01 1.53.01.25.01.4.17.41.43.03.75.12 1.53.04 2.29zm.28-61.7c-.01-.81-.04-1.61-.04-2.42-.01-1.4-.01-2.79 0-4.19 0-.21.13-.36.32-.39.29-.04.59-.08.88-.06 1.38.13 2.77-.04 4.15.01.28.01.59-.08.83.21-.48.57-1.14.91-1.74 1.31-1.28.87-2.17 2.09-2.97 3.37-.42.67-.9 1.34-1.03 2.16-.13.01-.26.01-.4 0zm23.65 4.18c-.12-.09-.18-.1-.18-.13-.09-.68-.17-1.36-.26-2.04-.24-.84-.48-1.68-.79-2.51-.84-2.27-2.39-3.92-4.3-5.28-.47-.34-.94-.7-1.53-.85-.26 0-.45-.12-.61-.36.27-.13.54-.08.8-.05l6.13-.06c.18 0 .37-.04.54.13.07 1.65-.03 3.33.15 4.99.1 2.03.01 4.06.05 6.16zm-.19 5.88c.19.68.15 1.38.14 2.08-.01.88-.03 1.76-.05 2.64 0 .25-.11.44-.37.44-2.06.01-4.12.02-6.18.02-.02 0-.04-.05-.08-.13 3.23-1.86 5.28-4.65 6.29-8.22-.08-.29-.03-.58.02-.86.26-.15.31.07.39.23-.01 1.06-.01 2.12-.02 3.18-.01.21.03.44-.14.62zm-6.98-16c0 .01-.01.03-.01.04.33.13.64.3.91.49.08 0 .16.01.24.06.16.09.33.17.47.28.92.68 1.71 1.51 2.43 2.39.07.08.13.18.19.27.09.16.1.3.04.43.21.25.4.52.57.8.04-.02.07-.04.11-.05.86 1.64 1.29 3.35 1.32 5.17-.03.01-.06.02-.09.04.01.07.01.13.02.21.02.24 0 .49-.03.74h.01c-.02 1.61-.53 3.05-1.2 4.44-.16.33-.3.45-.5.43-.11.24-.24.47-.39.69.01.01.02.01.03.02-.05.45-.35.7-.57.97-.61.74-1.34 1.35-2.09 1.94-.15.12-.27.15-.37.1-.22.14-.46.26-.71.36-.04.11-.14.21-.3.28-.92.35-1.85.68-2.78 1.02-.1.04-.21.08-.32.08-.82-.01-1.13.07-1.24-.14-.08 0-.15.01-.23.01-.2 0-.39-.01-.58-.03-.03.16-.12.19-.38.19h-.77c-1.21 0-2.05-.2-3.38-.8 0-.01.01-.01.01-.02-.33-.13-.63-.29-.91-.49-.1.02-.2 0-.32-.06-.16-.08-.31-.19-.47-.29-.27-.18-.54-.36-.82-.54-.02-.11-.08-.17-.2-.16-.03-.07-.08-.11-.15-.1-.04-.13-.12-.2-.26-.22-.03-.13-.11-.2-.24-.21-.02-.12-.09-.2-.22-.23-.01-.13-.08-.21-.21-.23-.02-.13-.08-.21-.21-.24 0 .14.08.21.21.24-.11-.05-.19 0-.21-.12v.11h-.22l.07-.07.09-.09c-.03 0-.04-.03-.06-.04.04-.01.08-.01.12-.02-.01-.14-.09-.22-.22-.25 0 .03-.01.06-.01.09 0-.02-.01-.04-.02-.07.01-.07-.01-.13-.07-.17-.01-.01-.01-.03-.01-.04.01.01.01.02.03.03l.06-.34c-.18-.2-.34-.41-.48-.63-.03.01-.06.03-.09.05-1.02-1.46-1.49-3.08-1.78-4.77-.08-.34-.12-.69-.12-1.05 0-.21.04-.42.06-.62 0-.01-.01-.02-.01-.03.06-.58.12-1.17.22-1.74.19-1.09.5-2.14 1.06-3.1.16-.27.32-.49.63-.56.02.03.04.04.06.06.07-.18.15-.36.23-.53l-.02-.01c-.06-.29-.07-.57.16-.81.63-.65 1.25-1.31 1.89-1.96.1-.1.22-.19.35-.26.38-.21.62-.35.81-.36.29-.23.63-.42.99-.57.02-.08.06-.15.14-.19.85-.46 1.75-.78 2.71-.82.4-.02.8-.05 1.2-.11.29-.04.45 0 .55.14.19-.02.38-.03.58-.03.15 0 .3.01.45.02.12-.19.41-.13 1.15-.05 1.08.12 2.08.45 3.1 1.03zm-16.38 16.94c-.06-.88-.05-1.74.17-2.75.54 1.24 1.07 2.34 1.87 3.29 0 .14.06.23.2.26l.06-.05-.05.06c.03.18.13.29.29.35l.01.02c0 .13.07.21.2.21l.01.01c.02.12.09.19.21.2l.01.02c.01.13.08.2.21.21l.01.01c.01.13.08.2.21.22l.01.01c.01.13.08.2.21.21l.02.01c.02.12.09.19.21.2.19.33.48.54.79.73.27.17.58.32.77.6.24.12.49.25.77.39-.31.14-.56.09-.81.04-.95.01-1.9.02-2.86.04-.66.01-1.31.05-1.97.05-.43 0-.5-.1-.5-.52 0-1.26.04-2.54-.05-3.82zm0 5.82c.07-.21.05-.55.17-.61.32-.14.61-.43 1.01-.35.89.17 1.8.01 2.7.05.6.02 1.22.19 1.82-.03.71.33 1.42.14 2.12-.03.04-.01.08-.04.1-.02.67.41 1.44.18 2.14.36.72.19 1.46.13 2.19.06 1.08-.11 2.14-.48 3.24-.17.6-.25 1.24-.04 1.86-.12.65-.08 1.32-.05 1.98-.04.75.01 1.5.11 2.25-.11.24-.07.55.09.83.14.29.05.58.09.87.13.08.46.26.87.24 1.32-.02.4-.14.53-.52.55-.66.03-1.33.08-1.99.05-1.84-.09-3.68.08-5.52.03-2.05-.05-4.1.06-6.15-.03-.84-.04-1.69.03-2.53.03-1.28 0-2.56-.03-3.84-.04-.8-.01-1.61.02-2.42 0-.44-.01-.47-.07-.54-.52-.03-.21-.08-.42-.01-.65zm.3 30.03c-.02-.51-.04-1.02 0-1.53.12-1.32.03-2.64-.02-3.96-.04-1.13-.09-2.26-.13-3.39-.04-1.03.01-2.06-.06-3.08-.04-.51.07-1.02.06-1.53-.02-2.02-.06-4.04-.09-6.05v-.33c.04-.66.12-.73.8-.74 1.13 0 2.27-.02 3.4.01.28 0 .59-.04.91.18.01.33.06.69.04 1.05-.08 1.32-.03 2.65-.01 3.97.02 1.39-.02 2.79-.02 4.18 0 .66.03 1.32.04 1.98.03 2.42-.1 4.84-.01 7.26.07 1.83-.12 3.67.11 5.5-.16.76.14 1.53-.04 2.3-.07.3-.13.46-.43.52-.25.05-.5.16-.75.05-.47-.2-.97-.13-1.42-.05-.66.11-1.32-.12-1.97.06-.18.05-.28-.13-.3-.26-.07-.4-.14-.8-.13-1.2.01-.77.11-1.54.11-2.3.01-.9-.07-1.77-.09-2.64zm.01 9.63c-.01-.69-.01-1.39-.01-2.08 0-.26.15-.42.4-.42.95-.01 1.9 0 2.86 0 .37 0 .73 0 1.1-.03.62-.04.68-.01.7.62.02.58.01 1.16.01 1.75 0 .36 0 .73.01 1.09.03.77.03.77-.79.78h-1.65v.01c-.66 0-1.32.01-1.98 0-.4-.01-.52-.1-.57-.51-.05-.4-.07-.81-.08-1.21zm.17 15.62c-.09-1.13-.07-2.27-.06-3.4.01-.76.05-1.52-.05-2.29-.1-.74.05-1.52.09-2.29.01-.22.04-.44.01-.66-.19-1.32-.1-2.65-.14-3.97-.01-.38.06-.46.43-.5.44-.04.88-.06 1.31-.06.95 0 1.9 0 2.85.03.37.01.46.12.46.47.02 2.61.03 5.22.04 7.83v1.88c-.12 2.13.04 4.27.05 6.4.01 1.14-.03 2.28-.05 3.42 0 .24-.1.47-.36.47-1.4 0-2.79.16-4.19.05-.21-.02-.34-.12-.34-.34 0-.52.01-1.03-.01-1.55-.04-1.1-.12-2.19-.01-3.3.07-.72.03-1.46-.03-2.19zm5.1 10.36c-.14.65-.14 1.31-.12 1.97.01.4-.15.56-.51.57-1.32.01-2.65.02-3.97.01-.35 0-.43-.08-.43-.47-.02-1.29-.03-2.57-.03-3.86 0-.41.11-.51.55-.51 1.43-.01 2.86 0 4.34 0 .05.7.1 1.28.15 1.87 0 .13.05.28.02.42zm-.56-56.99c-1.44.01-2.87 0-4.31 0-.42 0-.6-.02-.6-.66.01-1.54-.06-3.08-.1-4.63 0-.15-.04-.29-.04-.44.03-1.06.08-1.09 1.14-1.09 1.14.01 2.28-.07 3.41-.04 1.87.05 3.74 0 5.61-.01 2.69-.01 5.38-.01 8.06-.04l4.3-.06c.15 0 .3.02.44.01.39-.04.5.23.59.53-.07 1.18-.05 2.36.01 3.54-.13.32-.07.65-.06.98 0 .26.03.52.02.77-.06 1.27-.25 1.09-1.17 1.09-1.66-.01-3.31-.05-4.97-.06-1.36 0-2.72.04-4.08.04-2.73.04-5.49.06-8.25.07zm1.25 28.63c.29-.18.55-.12.8-.13 2.28-.1 1.79-.23 1.91 1.77.04.58.07 1.17.07 1.75 0 .57-.16.72-.72.72-.59 0-1.17-.03-1.76-.05-.17-.01-.25-.12-.29-.27-.01-.04-.02-.07-.02-.11-.02-1.24-.13-2.48.01-3.68zm2.69 30.88c-.72.18-1.42.05-2.11.1-.29.02-.47-.19-.49-.48-.03-.33.03-.65.02-.98-.05-.95-.04-1.9-.02-2.84.01-.52.08-.6.56-.62.55-.03 1.1-.01 1.65.01.26.01.38.18.4.43.02.29.04.59.04.88-.02 1.16-.03 2.33-.05 3.5zm.15-13.49c-.04.66-.09 1.32-.14 1.97-.05.62.15 1.23.11 1.86-.07.91-.01 1.83-.02 2.75-.01.44-.06.87-.1 1.35-.66.05-1.28.15-1.89.12-.71-.03-.72-.19-.72-.72-.01-1.22 0-2.43 0-3.65 0-.66-.01-1.32 0-1.98.01-1.14.07-2.28.02-3.41-.14-3.27.04-6.54-.07-9.81-.01-.22-.02-.44 0-.66.01-.2.14-.35.35-.36.66-.03 1.32-.05 1.98-.05.25 0 .39.17.42.43.03.29.08.59.08.88 0 1.03-.02 2.05-.03 3.08-.02 1.32-.14 2.65-.03 3.96.08.92-.05 1.82 0 2.72.02.4-.07.81.06 1.2 0 .09-.01.21-.02.32zm.29-26.12c0-.07-.01-.15-.01-.22.21-.89.05-1.77 0-2.65.05-.66.16-1.33-.01-1.99.03-.51.08-1.03.08-1.54-.02-2.72-.05-5.45-.08-8.17-.01-1.18-.04-2.35-.05-3.53 0-.27-.02-.52-.3-.64-.19-.08-.34.17-.31.59.16 2.75-.12 5.51.13 8.27-.16.88.07 1.76.02 2.64-.05.88.08 1.74.12 2.61-.12.84-.03 1.68-.02 2.52.02 2.74.02 5.47.01 8.21 0 .55-.04 1.1-.07 1.64-.73.05-1.47.1-2.2.14-.25.01-.42-.1-.44-.37-.02-.18-.08-.37-.07-.55.1-1.65-.06-3.3 0-4.96.06-1.54-.06-3.08-.08-4.63-.03-2.65-.02-5.3-.04-7.95-.02-1.65-.06-3.31-.1-4.96-.02-1.03-.06-2.05-.09-3.08-.01-.4.12-.58.49-.55.99.07 1.98-.18 2.97.05 1.21-.2 2.42 0 3.63-.06.18-.01.37-.04.55-.03.54.05.75-.03.73.76-.03 1.13-.08 2.28.2 3.41.04.17.03.37.02.55-.1 1.84.03 3.68.05 5.52.01 1.03.07 2.06.11 3.09.04 1.1.06 2.2.08 3.3.05 3.2.06 6.4.08 9.6 0 .18.01.37-.03.55-.02.08-.12.16-.21.21-.05.03-.14.02-.22.02-1.44-.01-2.87-.03-4.31-.04-.26 0-.41-.1-.41-.39 0-.77-.02-1.54-.03-2.31-.01-1.36-.01-2.72-.01-4.08-.03-.34-.01-.67-.18-.98zm.21 9.01c.02-.35.11-.45.47-.47.18-.01.36 0 .55 0 1.21-.01 2.42.03 3.62-.07.36-.03.52.09.52.41 0 1.24-.02 2.47-.03 3.73-1.53.22-2.92.24-4.32.19-.15-.01-.29 0-.44-.02-.21-.02-.33-.15-.34-.36-.04-.55-.09-1.1-.09-1.65-.01-.59.03-1.17.06-1.76zm.18 17.28c0-1.87-.17-3.73-.05-5.6.06-.8-.05-1.61-.07-2.42-.03-1.21-.05-2.43-.07-3.64 0-.18 0-.37.02-.55.04-.45.1-.54.51-.54.84-.02 1.68 0 2.53 0 .59 0 1.17-.02 1.76.01.31.01.44.2.44.51l.09 8.72v.79H183v4.61c0 1.1.18 2.2.17 3.31 0 .7.08 1.4.06 2.09-.01.37-.07.49-.41.49-1.36.01-2.7.01-4.05-.01-.46-.01-.51-.08-.53-.51-.04-.77-.06-1.54-.05-2.31.03-1.66.01-3.31.01-4.95zm5.18 12.93c0 .34-.09.42-.48.44-.33.02-.66.01-.99.01-1.13.01-2.27.03-3.4.04-.16 0-.28-.09-.29-.26-.02-.29-.04-.59-.01-.88.09-1.14.02-2.27.01-3.41 0-.1.04-.21.07-.31 1.51-.14 3.01-.12 4.5-.09.46.01.49.04.54.5.12 1.31.04 2.63.05 3.96zm.54-31.89c.06-1.42-.01-2.85-.01-4.27 0-.87.1-1.74.02-2.62-.08-.83-.12-1.68-.1-2.52.04-1.54-.14-3.08.03-4.62.05-.53-.06-1.08-.1-1.61-.03-.54.02-1.07-.2-1.6-.21-.5-.04-1.08.04-1.58.1-.62.06-1.23.01-1.83-.11-1.45-.24-2.9-.27-4.36-.01-.26-.02-.52-.05-.77-.09-.68-.09-.69.51-.74.29-.03.59-.05.88-.03.81.04 1.61.05 2.42-.03.19-.02.37-.01.53.12-.16 1.16-.16 2.33-.04 3.49.04.34-.06.64-.05.96.04 1.98.05 3.97.06 5.95.01 1.43-.01 2.86.01 4.29.02 1.64.09 3.28.09 4.91.01 2.32-.02 4.63-.03 6.95 0 .29-.19.39-.42.39-.99 0-1.99-.01-2.98-.02-.25-.01-.36-.16-.35-.46zm.2 18.38c-.03-.17.05-.36.07-.54.03-.26.12-.55.04-.76-.28-.73-.01-1.46-.06-2.18-.05-.72-.11-1.45-.11-2.18 0-1.43.04-2.85.04-4.28 0-.61-.08-1.22-.09-1.83-.01-.33.12-.46.46-.48.29-.02.58-.01.88.01.44.03.88.08 1.32 0 .21-.03.44.01.65.04.2.03.34.15.37.35.05.4.13.81.11 1.21-.14 3.09.01 6.18-.01 9.27-.01 1.58.03 3.16.02 4.74 0 1.47-.02 2.93-.04 4.4 0 .07-.01.15-.02.22-.02.26-.16.42-.41.41-.99-.01-1.98-.03-2.99-.05-.04-.33-.11-.62-.09-.9.09-1.17-.1-2.34-.09-3.51.01-1.31.17-2.63-.05-3.94zm3.7 10.94c-.02.81-.02 1.62-.05 2.43-.02.45-.11.56-.49.56-.85.01-1.69 0-2.54-.01-.31 0-.52-.17-.48-.47.15-1.14-.14-2.27-.08-3.41.01-.18.03-.37.06-.55.06-.33.16-.45.51-.46.96-.02 1.91 0 2.95 0 .17.67.14 1.29.12 1.91zm.17-24.46c0 .33-.26.52-.54.52-.95 0-1.96-.01-2.9-.04-.34-.01-.52-.18-.49-.48.11-1.09-.14-2.17-.02-3.26.03-.26.11-.4.38-.41.91-.03 1.82-.05 2.74-.06.32 0 .61.13.65.43.09.62.18 1.24.18 1.87v1.43zm.35-9.39c-.11-1.47-.03-2.94-.09-4.41-.05-1.25-.01-2.5-.01-3.75l-.03-6.29c-.01-1.88-.03-3.75-.04-5.63 0-.62.04-1.24-.18-1.82.1-.07.16-.14.22-.15 1.1-.01 2.21-.03 3.31-.02.33 0 .42.12.43.5.01 2.69.01 5.37.03 8.06.01 1.66.02 3.31.05 4.96.03 2.09.08 4.18.12 6.27 0 .07.01.15.01.22-.17 1.91.05 3.82.02 5.72 0 .22-.01.44-.02.66-.03.55-.1.61-.67.62-.84.02-1.69.05-2.53.04-.49 0-.57-.1-.57-.58-.02-1.46.05-2.94-.05-4.4zm.05 6.27c-.01-.49.1-.61.55-.61.88 0 1.75.01 2.63.03.34.01.42.09.42.49.01.58 0 1.17 0 1.91.03.32.08.79.11 1.27.03.34-.08.47-.42.49-.69.04-1.38.15-2.08.02-.21-.04-.44 0-.66-.01-.44-.01-.49-.05-.5-.51-.02-1.03-.04-2.05-.05-3.08zm3.79 28.49h-.02s-.01 1.16 0 1.82c.01.29-.13.32-.39.32-.88.01-1.76-.02-2.64-.03-.45 0-.54-.15-.54-.64.01-.51.03-1.04.03-1.55 0-.73-.03-1.47-.03-2.2 0-.5.06-.55.58-.55.84-.01 1.69-.01 2.53-.01.38 0 .46.22.46.59.03.69.02 1.25.02 2.25zm0-4.12c-.01.5-.16.65-.69.64-.85-.02-1.69-.01-2.54-.02-.21 0-.34-.08-.34-.31l-.03-2.53c-.02-1.76.05-3.53-.05-5.29-.06-1.06-.04-2.13.01-3.19.03-.8-.04-1.61-.04-2.42-.02-1.95-.04-3.89-.05-5.84 0-.18-.01-.37.01-.55.02-.25.14-.42.41-.43.95-.02 1.9-.03 2.86-.04.28 0 .38.11.39.41.03 1.07.06 2.02.06 3.08.01 2.24 0 4.61 0 6.61h.01v6.96c-.01.95 0 1.97-.01 2.92zm-3.02-86.41c-.18.01-.37-.01-.55-.02-.88-.06-1.76-.04-2.64-.04-1.57.01-3.15.07-4.72-.1-.11-.01-.22-.03-.32-.07-.86-.31-1.72-.12-2.59-.03-1.68.18-3.36.24-5.05.17-1.1-.05-2.2.07-3.3.05-1.43-.03-2.86-.04-4.29.02-.84.03-1.68-.04-2.52-.08-.51-.03-.52-.05-.59-.58-.01-.07-.03-.15-.02-.22.04-.65-.09-1.32.14-1.96.57-.36 1.22-.18 1.82-.19 2.35-.04 4.79.01 7.14.01 2.75.01 5.33 0 8.33 0v-.01c2 0 3.5.01 5.3 0 1.94-.02 3.84-.07 5.78-.09 1.43-.02 2.85-.05 4.28 0 .47.01.93-.12 1.42.02.25.08.4.18.38.44-.05.73-.08 1.46.08 2.18.06.28-.16.48-.46.51-.07.01-.15.01-.22.01-1.1 0-2.22.09-3.31-.02-1.39-.16-2.74-.06-4.09 0zm3.61 50.85c-.14-3.38-.03-6.77-.15-10.15-.04-1.18 0-2.36-.01-3.54-.01-.8-.04-1.61-.06-2.41-.01-.32-.05-.65.12-1.03l3.28-.03h2.2c.41 0 .54.08.6.61.02.15.02.3 0 .44-.13 1.39 0 2.79.01 4.18.02 3.91.02 7.81.05 11.72.01 1.73.06 3.46.12 5.19.03.7.05 1.4-.01 2.1-.06.74-.03 1.47.02 2.21.02.43-.16.6-.6.59-1.66-.03-3.31-.04-4.97-.05-.38 0-.46-.07-.48-.44-.03-.59-.06-1.18-.06-1.77-.02-2.53.05-5.08-.06-7.62zm6.21 14.49c.02.26-.2.4-.51.43-.73.07-1.45-.08-2.17-.11-.99-.04-1.98-.01-2.97-.01-.21 0-.38-.09-.38-.3-.03-1.17-.04-2.34-.04-3.51 0-.28.13-.4.4-.4.92-.01 1.84-.03 2.76-.04.88-.01 1.76 0 2.72 0 .28 1.37.11 2.66.19 3.94zm-.11 22.51c-.17.42-.15.86-.13 1.3.05 1.09.17 2.19-.13 3.26 0 .02-.01.04-.01.05-.36-.22-.73-.22-1.1-.01-.06-.01-.12-.03-.19-.04-.16-.03-.33-.03-.49 0-.23.05-.46.14-.68.17l-.38-.01c-.19-.03-.38-.03-.58-.01l-1.1-.03c-.23-.06-.46-.19-.65-.44-.07-.99.01-1.99-.04-2.98-.04-.83.32-1.1 1.11-1.1 1.14.01 2.29.08 3.42-.07.26-.07.52-.14.78-.22.11-.01.22-.01.33-.03-.06.05-.13.1-.16.16zm-.17-.84c-.66.02-1.32.03-1.98.03-1.06 0-2.13 0-3.2-.02-.37-.01-.43-.08-.43-.47-.02-1.95-.02-3.9-.04-5.84-.02-2.05-.12-4.11-.06-6.16.04-1.4-.11-2.79-.02-4.18.05-.68.11-1.39-.1-2.07.18-.33.16-.7.12-1.05-.03-.26.03-.5.08-.74.91-.16 1.82-.02 2.73-.05.18-.01.36-.01.54-.01.03-.1.06-.27.1-.28.2-.02.16.16.18.28.62.1 1.24.05 1.87.02.37-.02.39.01.41.44.08 1.83.15 3.66.13 5.5-.03 2.35 0 4.7 0 7.05 0 1.95.01 3.89.02 5.84 0 .44.03.88.04 1.32.01.23-.13.38-.39.39zm1.59-54.45c-.01.26-.17.41-.43.4-1.79-.06-3.58.17-5.37.04-.47-.04-.95.01-1.43.02-.32 0-.46-.12-.5-.46-.11-.9-.08-1.81-.1-2.72 0-.18-.04-.36-.06-.54.09-.81.13-1.62 0-2.43.02-.11.05-.21.05-.32.01-.21.11-.35.32-.37.22-.03.44-.04.66-.04 2.23-.05 4.46-.09 6.77-.14.1.47.11.93.11 1.39.01 1.17.04 2.35.04 3.52.01.55-.03 1.1-.06 1.65zM162.04 95.01c-.03 0-.07-.01-.1-.02h.1v.02zM192.84 223.43v-.01.01l.01.01zM173.08 86.88c.06.19.17.35.36.38.24.04.4-.12.52-.32.05-.09.09-.21.1-.31.01-.59.03-1.18-.01-1.76-.01-.25-.13-.5-.23-.72-.09-.18-.3-.21-.48-.21s-.19.19-.23.32c-.16.46-.1.95-.11 1.45.03.37-.05.77.08 1.17zM187.47 83.4c-.2.1-.35.26-.36.51-.02.44-.05.88-.09 1.5.01.18.04.55.04.91 0 .27.1.5.26.71.09.12.28.13.36.01.06-.09.14-.18.15-.28.13-1.1.17-2.19-.1-3.27-.03-.15-.18-.13-.26-.09zM170.46 90.52c-.05-.1-.12-.21-.24-.16-.09.03-.21.12-.23.2-.28.9-.14 1.82-.1 2.74.01.14.17.23.33.26.21.04.36-.07.45-.24.2-.38.06-.8.07-1.2 0-.26-.02-.52 0-.77.01-.32-.14-.57-.28-.83zM189.33 89.87c-.09.03-.21.12-.23.2-.15.68-.09 1.38-.07 2.07v1.42c0 .18 0 .37.05.54.02.08.14.17.23.2.1.03.19-.05.25-.15.16-.27.16-.56.16-.85 0-.76-.02-1.53-.05-2.29-.01-.33-.08-.65-.14-.97 0-.09-.08-.2-.2-.17zM180.67 83.15c-.56 1.19-.27 2.43-.19 3.65 0 .03.02.07.05.09.09.06.17.13.27.16.05.01.13-.06.18-.11.06-.08.14-.19.15-.28.04-1.02.12-2.04-.03-3.06-.03-.21-.16-.4-.25-.61-.07.07-.15.1-.18.16zM177.26 90.52c-.21-.03-.34.12-.4.3-.28.82-.14 1.66-.06 2.5.02.19.26.25.44.25.15 0 .29-.16.3-.31.05-.4.06-1.24.09-1.24h-.02s.02-.77-.01-1.17c0-.19-.16-.3-.34-.33zM184.05 90.29c-.24-.02-.32.16-.32.34 0 .95.02 1.89.04 2.84 0 .04 0 .08.02.11.08.18.22.28.42.26.18-.02.23-.26.24-.41.01-.44 0-.41 0-1.41h.03c.01 0 .03-.19.02-.33-.01-.4 0-.75-.04-1.14-.03-.21-.22-.24-.41-.26zM173.21 106.55c.01.13.13.17.24.24.17.11.2-.22.3-.24.41-.11.55-.36.5-.8-.06-.51-.01-1.04-.01-1.55 0-.63-.11-1.25-.28-1.85-.03-.08-.15-.19-.24-.2-.09-.01-.21.07-.27.15-.21.27-.27.83-.28 1.17-.01.44 0 .56 0 1.56h.03c0-.01-.01.93.01 1.52zM176.78 105.63c-.03.13.04.29.09.42.13.31.48.35.69.09.14-.17.24-.35.23-.59-.02-.91.01-1.83-.03-2.74-.02-.42-.06-.88-.51-1.26-.57.76-.54 1.61-.5 2.45.02.55.15 1.08.03 1.63zM187.65 107.02c.34-.09.4-.39.4-.7v-2.31s.01-.94 0-1.42c-.01-.33-.03-.65-.06-.98-.01-.15-.08-.29-.25-.31-.16-.02-.29.09-.32.23-.16.6-.3 1.2-.27 1.83.04.97.06 1.95.07 2.92.01.47.18.81.43.74zM180.86 106.86c.19.05.42-.12.46-.37.04-.22.05-.44.05-.66.01-.59 0-1.17 0-1.76h-.06c0-.77.01-1.54-.01-2.31 0-.14-.07-.28-.14-.4-.05-.08-.16-.15-.26-.02-.15.17-.22.36-.24.6-.04.81-.13 1.61-.15 2.42-.01.69.04 1.39.08 2.08.02.18.05.36.27.42zM169.99 105.15c-.01.47-.01.95 0 1.42 0 .15.09.27.25.32.2.07.36.01.49-.14.12-.14.2-.29.2-.49-.02-1.02-.01-2.04-.04-3.06-.01-.25-.08-.5-.15-.75-.05-.18-.38-.35-.53-.29-.15.06-.2.2-.2.35-.04.66-.04 1.31.04 1.96-.03.24-.06.46-.06.68zM183.88 106.19c-.01.14.04.3.1.42.04.08.16.17.25.18.09.01.2-.07.27-.14.17-.17.18-.39.18-.61v-1.77c.03-.5 0-1.24-.08-1.97-.03-.22-.06-.43-.27-.57-.13-.09-.31-.06-.34.08-.03.18-.05.36-.08.54-.2 1.27.04 2.56-.03 3.84zM191.66 105.72c-.02.1.02.22.05.32.06.18.19.36.36.38.19.02.29-.18.32-.37.03-.18.07-.36.07-.54 0-.95.01-1.9-.02-2.84-.01-.36-.1-.72-.18-1.07-.02-.07-.16-.17-.24-.17-.09 0-.22.08-.26.17-.06.12-.09.28-.09.42-.01.62 0 1.24 0 1.87-.15.6.12 1.21-.01 1.83zM180.91 74.02v3.04c0 .11.02.14.04.25.03.12.13.15.23.15.1-.01.24-.06.29-.13.09-.15.17-.34.18-.52.04-.98.05-1.98.07-2.96 0-.22.01-.45-.05-.66-.11-.37-.06-.73-.06-1.1 0-.77-.02-1.54-.05-2.31 0-.14-.04-.31-.22-.33-.23-.03-.32.15-.38.31-.13.35-.14.87-.14 1.24.01.96 0 2.02 0 3.02h.09zM175.27 75.01c-.1.56.07 1.09.04 1.64-.01.28.25.53.47.5.29-.05.28-.07.28-.28.01-1.02 0-1.84 0-2.84h-.03v-3.41c0-.23-.04-.55-.21-.72-.13-.13-.37-.19-.46-.02-.05.09-.13.17-.13.27-.01 1.16-.05 2.31.01 3.47.03.46.11.93.03 1.39zM184.02 145.81c0 .25.12.42.39.44.29.02.44-.14.45-.49 0-.11 0-.22-.01-.33-.03-.87-.2-1.74-.08-2.62.03-.24-.08-.5-.16-.74-.03-.08-.18-.15-.27-.14-.09 0-.21.09-.24.17-.06.17-.1.33-.1.51-.01.48-.01 1.42-.01 1.42h.03c-.01.99-.01 1.19 0 1.78zM187.56 146.2c.11.14.35.13.47-.01.12-.15.19-.42.18-.62-.01-.48 0-.55 0-1.55h-.04s.01-.68 0-1.09c-.01-.22-.03-.38-.08-.59-.02-.08-.13-.15-.21-.18-.15-.04-.3.02-.38.17-.06.12-.13.29-.12.42.1.91.04 1.82-.04 2.73-.03.27.06.51.22.72zM181.33 142.32c-.01-.09-.07-.22-.22-.18-.06.01-.15.05-.17.1-.06.13-.11.27-.15.41-.15.54-.04 1.09-.07 1.47 0 .6-.01 1.04.01 1.48 0 .14.05.28.1.42.09.24.32.25.51.05.14-.14.18-.3.18-.49 0-.47.03-.94 0-1.41-.04-.63-.11-1.24-.19-1.85zM173.81 141.99c-.26.01-.41.17-.44.41-.05.4-.05.8-.07 1.11 0 .31-.01.53 0 .75.02.36.04.73.1 1.09.04.27.38.36.6.18.17-.14.29-.29.33-.54.12-.87-.03-1.73-.07-2.59-.01-.23-.25-.42-.45-.41zM170.81 142.64c-.01-.23-.14-.42-.39-.47-.19-.04-.36.14-.37.44-.02.77-.01 1.54-.01 2.31 0 .22.02.44.05.66.03.17.32.26.45.14.1-.1.21-.22.23-.35.06-.36.07-.73.1-1.1h-.05c0-.54.01-1.09-.01-1.63zM177.6 142.14c-.15-.19-.42-.13-.53.08-.11.21-.13.41-.11.64.03.25.05.51.07.66-.03.36-.04.62-.06.87-.03.3.05.58.22.83.06.08.17.16.26.17.17.03.24-.13.3-.25.04-.1.06-.21.06-.32 0-.77.01-1.53-.01-2.3-.01-.13-.11-.27-.2-.38zM126.9 154.95c0-.29-.1-.58-.18-.86-.05-.17-.19-.31-.39-.36-.27.25-.26.58-.26.91l-.03 4.85c0 .55 0 1.1.01 1.65.01.29.16.33.44.18.34-.18.44-.43.44-.8 0-.65-.1-1.29-.05-1.96.08-1.19.03-2.4.02-3.61zM80.53 159.57c.13.07.2-.05.27-.12.16-.17.19-.13.19-.37-.01-.77 0-2.07 0-2.07h-.08v-2.56c0-.27-.02-.66-.31-.76-.18-.07-.39.22-.4.6 0 .55.02 1.06.02 1.61-.01.88-.03 1.75-.05 2.62-.01.29-.02.58.12.85.03.11.14.15.24.2zM157.61 160.31c.07.14.14.25.31.28.19.03.29-.11.31-.24.19-.82.35-1.66.29-2.5-.07-1.02-.17-2.04-.19-3.06 0-.33-.08-.65-.15-.98-.02-.08-.16-.19-.22-.18-.09.01-.21.12-.24.21-.05.17-.06.36-.08.54-.15 1.36-.04 2.71-.05 4.07 0 .37.01.74 0 1.1-.01.25-.11.51.02.76zM146.41 189.45c-.1-.32-.08-.65-.09-.98-.02-.77.01-1.54-.02-2.31-.02-.69-.17-1.38-.07-2.07.1-.76-.05-1.47-.34-2.15-.39-.91-.87-1.74-1.73-2.35-.62-.45-1.28-.68-1.97-.93-.75-.28-1.49-.32-2.26-.1-.96.28-1.87.68-2.58 1.41-.1.1-.23.23-.24.35-.12 1.2-.59 2.36-.34 3.59.02.11.02.22-.01.33-.17.58-.08 1.04-.09 1.63-.01 1.1 0 2.17 0 3.17v1.67c.01 1.03.01 2.12.04 3.15.02.63.19.79.79.77 1.12-.04 2.26-.13 3.38-.06 1.06.06 2.1.1 3.15-.01.35-.04.72-.02 1.08.12.14.05.3.05.35.21.06.2.18.38.36.36.24-.02.33-.23.4-.46.1-.35.13-.61.08-1.08-.03-.22-.02-.44 0-.66.1-1.09 0-2.19.2-3.28-.01-.11-.06-.22-.09-.32zm-8.14-8.94c.06-.03.12-.1.14-.17.22-.9 1.02-.96 1.7-1.13.54-.14 1.11-.12 1.64.01 1.62.4 2.86 1.3 3.51 2.88.07.16.12.35.11.53-.1 2.09-.08 4.18-.08 6.27 0 .07-.04.14-.08.3-.38.04-.7.1-1.03.11-1.99.03-3.97.05-5.96.05-.52 0-.58-.06-.6-.56-.03-.77-.05-1.54-.02-2.3.05-1.24.03-2.48-.03-3.73-.01-.15 0-.29-.01-.44-.03-.71-.02-1.4.71-1.82zm6.75 13.33c-.4.03-.8.08-1.2.07-1.93-.07-3.87.07-5.8-.07-.23-.02-.32-.13-.36-.33-.04-.18-.09-.36-.09-.54.02-.88.05-1.75.08-2.63.01-.22.15-.33.35-.35.47-.03.95-.05 1.42-.06.73-.01 1.46 0 2.27 0 .9.15 1.88-.05 2.87-.03.66.01.72.04.74.63.03.88-.04 1.75.09 2.62.02.14-.04.29-.08.43-.01.17-.13.25-.29.26zM68.51 189.41c-.02-.29-.02-.59-.02-.88-.01-1.88-.02-3.75-.02-5.62 0-.49-.11-.95-.37-1.37-.17-.28-.37-.55-.57-.8-1.26-1.54-2.8-2.34-4.84-1.87-.32.07-.67.12-.95.27-.99.55-1.75 1.33-2.22 2.38-.48 1.06-.58 2.21-.54 3.34.04 1.21-.02 2.43.05 3.64 0 1.07.02 2.13-.01 3.2-.03.96.12 1.9.2 2.85.04.45.28.56.68.29.21-.14.41-.12.62-.13.25-.01.49.08.75.07 2.2-.05 4.41-.06 6.61-.08.38 0 .55-.12.59-.47.03-.26.02-.52.02-.77.01-.88.01-1.77.02-2.65 0-.15.01-.29.03-.44.04-.26.4-.24.44-.44.07-.34-.45-.23-.47-.52zm-8.71-5.1c0-.15-.01-.29-.04-.44-.29-1.37.32-2.43 1.21-3.38.15-.16.35-.27.52-.42 1.1-1.01 3.01-.77 3.92-.17.62.41 1.16.9 1.54 1.55.26.44.67.83.79 1.31.12.47-.02 1.02-.04 1.53-.01.22-.02.45.03.66.13.62.11 1.25.02 1.87-.11.78.09 1.54.05 2.31-.02.37-.23.47-.58.48-1.03.01-2.23 0-3.23 0v-.05h-1.95c-.26 0-.44.02-.7.01-1.53-.09-1.49-.09-1.5-1.62-.02-1.21-.02-2.42-.04-3.64zm7.94 9.72c-1.02 0-1.98.15-2.97.06-1.24-.1-2.49-.03-3.74-.03-.18 0-.37.03-.55.02-.39-.01-.53-.13-.57-.51-.02-.22-.03-.44-.03-.66 0-.7.01-1.4.01-2.1.01-.66.05-.72.67-.73.74-.01 1.47-.01 2.21 0 .99.02 1.98-.06 2.97.1.29.05.64.08.97-.05.19-.08.44-.02.65.01.19.03.34.14.38.35.01.04.02.07.02.11.05 1.12.14 2.25-.02 3.43zM49.95 156.16c-.01-.77-.01-1.55-.04-2.32-.01-.22-.16-.41-.41-.44-.19-.02-.41.18-.43.42-.02.29-.03.59-.02.88.01 1.66.04 3.31.02 4.97-.01.51.2.8.61 1.04.42-.46.3-1.04.31-1.58.01-.99-.03-1.98-.04-2.97z"/></g></svg>