<svg xmlns="http://www.w3.org/2000/svg" viewBox="0 0 555.75 231.46"><defs><style>.a{fill:#b51800;}.b{fill:#333;}</style></defs><title>logo</title><path class="a" d="M6.7,70.95V42.15H1v-8.3l7.3-2.7,2.3-12.4H25v12.5H35.8v10.9H25v25.8c0,4.7,2.1,6.1,6.5,6.1a18.69,18.69,0,0,0,4.9-.7v9.5c-2.4,1.5-7,2.9-12.9,2.9C12.8,85.75,6.7,82.25,6.7,70.95Z" transform="translate(-1 -9.65)"/><path class="a" d="M41.9,75.55l5.8-1.4V22.85l-6.1-1.6v-9.3l22.6-2.3,1.7,0.8v26h0.5c4.8-3.7,9.6-6.3,17-6.3,8.2,0,13.9,3.7,13.9,13.2v30.8l5.3,1.4v9.1H74.7v-9.1l4.3-1.1V49.75c0-4.3-2-5.8-6.3-5.8a20,20,0,0,0-6.7,1.4v29.1l4.2,1.1v9.1H41.9v-9.1Z" transform="translate(-1 -9.65)"/><path class="a" d="M103.4,57.85c0-17.5,10.8-27.7,27.1-27.7s24.2,8.2,24.2,30.6H122.5c1,9.3,5.9,12.7,14.4,12.7a46.49,46.49,0,0,0,15.3-2.5v9.7c-3.8,2.6-10.1,5.3-20.3,5.3C113.2,85.95,103.4,75.85,103.4,57.85Zm33.6-6.2c0-8.3-2.9-10.8-6.8-10.8-4.1,0-7.2,2.5-7.8,11.4Z" transform="translate(-1 -9.65)"/><path class="a" d="M1.3,151.55l5.8-1.4v-30.7L1,117.85v-9.3l22.1-2.3,1.5,0.7v8h0.6c2.9-4.8,7.4-8.6,13.5-8.6a11.17,11.17,0,0,1,2.7.3v16.2a20.47,20.47,0,0,0-4.7-.5c-4.9,0-8.3.6-11.3,2v25.8l7.5,1.4v9.1H1.3v-9.1Z" transform="translate(-1 -9.65)"/><path class="a" d="M43.6,133.85c0-17.5,10.8-27.7,27.1-27.7s24.2,8.2,24.2,30.6H62.7c1,9.3,5.9,12.7,14.4,12.7a46.49,46.49,0,0,0,15.3-2.5v9.7c-3.8,2.6-10.1,5.3-20.3,5.3C53.4,161.95,43.6,151.85,43.6,133.85Zm33.6-6.2c0-8.3-2.9-10.8-6.8-10.8-4.1,0-7.2,2.5-7.8,11.4Z" transform="translate(-1 -9.65)"/><path class="a" d="M99.4,158.65L98.5,144h11.4l2,5.9a14.79,14.79,0,0,0,6.9,1.6c4.4,0,7.1-1.7,7.1-4.7s-1.7-4.1-6.4-5.2l-5.9-1.4c-10-2.4-15.2-6.8-15.2-16.3,0-10.4,7.3-17.9,23.9-17.9,6.6,0,13.3,1.1,17.7,2.9v13.9H128.9l-1.2-5.3a12.27,12.27,0,0,0-6.1-1.3c-3.8,0-6.9,1.2-6.9,4.2,0,2.8,1.9,3.9,7.3,5.2l6.4,1.5c10.8,2.5,15,7.8,15,15.9,0,11.3-7.4,18.9-25.2,18.9A53.91,53.91,0,0,1,99.4,158.65Z" transform="translate(-1 -9.65)"/><path class="a" d="M144.7,151.55l5.8-1.4v-30.7l-6.3-1.6v-9.3l22.9-2.3,1.7,0.7v43.2l5.4,1.4v9.1H144.7v-9.1Zm4.3-57.6c0-5.5,4.6-8.9,10.1-8.9s10.1,3.4,10.1,8.9-4.5,9-10.1,9S149,99.55,149,93.95Z" transform="translate(-1 -9.65)"/><path class="a" d="M178,158.65L177.1,144h11.4l2,5.9a14.79,14.79,0,0,0,6.9,1.6c4.4,0,7.1-1.7,7.1-4.7s-1.7-4.1-6.4-5.2l-5.9-1.4c-10-2.4-15.2-6.8-15.2-16.3,0-10.4,7.3-17.9,23.9-17.9,6.6,0,13.3,1.1,17.7,2.9v13.9H207.5l-1.2-5.3a12.27,12.27,0,0,0-6.1-1.3c-3.8,0-6.9,1.2-6.9,4.2,0,2.8,1.9,3.9,7.3,5.2l6.4,1.5c10.8,2.5,15,7.8,15,15.9,0,11.3-7.4,18.9-25.2,18.9A53.91,53.91,0,0,1,178,158.65Z" transform="translate(-1 -9.65)"/><path class="a" d="M227.6,146.95v-28.8h-5.7v-8.3l7.3-2.7,2.3-12.4h14.4v12.5h10.8v10.9H245.9v25.8c0,4.7,2.1,6.1,6.5,6.1a18.69,18.69,0,0,0,4.9-.7v9.5c-2.4,1.5-7,2.9-12.9,2.9C233.7,161.75,227.6,158.25,227.6,146.95Z" transform="translate(-1 -9.65)"/><path class="a" d="M260.69,147.35c0-10.5,7.4-13.9,19.5-16.1l9.3-1.8v-2.6c0-5.4-2-7.4-10-7.4a92.52,92.52,0,0,0-13.7,1v-10.6a70.75,70.75,0,0,1,22.4-3.7c13.5,0,19.6,5.6,19.6,17.5v23.8c0,2.5,1.6,3.2,3.6,3.2h1.7v8.7c-1.9,1.2-6.4,2.5-10.8,2.5-5.7,0-9.2-1.8-10.7-6.2H291c-2.7,3.4-7.7,6.3-14.4,6.3C266.9,161.95,260.69,155.95,260.69,147.35Zm28.8,2v-11.5l-4.7.2c-4.1.3-5.9,2.4-5.9,6.7,0,4.5,1.6,6.6,5.4,6.6A7.77,7.77,0,0,0,289.5,149.35Z" transform="translate(-1 -9.65)"/><path class="a" d="M317.29,151.55l5.8-1.4v-30.7l-6.1-1.6v-9.3l22.1-2.3,1.5,0.7v5.7h0.6c5.1-3.9,10.2-6.5,17.6-6.5,8.2,0,13.9,3.7,13.9,13.2v30.8l5.3,1.4v9.1H350.1v-9.1l4.3-1.1v-24.7c0-4.3-2-5.7-6.3-5.7a20,20,0,0,0-6.7,1.3v29.1l4.2,1.1v9.1h-28.3v-9.1Z" transform="translate(-1 -9.65)"/><path class="a" d="M378.89,134.35c0-19.6,11.9-28.2,29.7-28.2,6.6,0,13.2,1,16.4,2.1V125H413.3l-1.4-7.3a9.57,9.57,0,0,0-4.1-.7c-5.9,0-9.4,4.1-9.4,15.8,0,12.6,5.3,16.5,14.4,16.5a35.06,35.06,0,0,0,12.5-2.2V157c-3.2,2.3-9.3,4.9-18.4,4.9C388,161.95,378.89,151.35,378.89,134.35Z" transform="translate(-1 -9.65)"/><path class="a" d="M429.59,133.85c0-17.5,10.8-27.7,27.1-27.7s24.2,8.2,24.2,30.6h-32.2c1,9.3,5.9,12.7,14.4,12.7a46.5,46.5,0,0,0,15.3-2.5v9.7c-3.8,2.6-10.1,5.3-20.3,5.3C439.39,161.95,429.59,151.85,429.59,133.85Zm33.6-6.2c0-8.3-2.9-10.8-6.8-10.8-4.1,0-7.2,2.5-7.8,11.4Z" transform="translate(-1 -9.65)"/><path class="a" d="M1.3,227.55l5.8-1.4v-30.7L1,193.85v-9.3l22.1-2.3,1.5,0.7v5.7h0.6c5.1-3.9,10.2-6.5,17.6-6.5,8.2,0,13.9,3.7,13.9,13.2v30.8l5.3,1.4v9.1H34.1v-9.1l4.3-1.1v-24.7c0-4.3-2-5.7-6.3-5.7a20,20,0,0,0-6.7,1.3v29.1l4.2,1.1v9.1H1.3v-9.1Z" transform="translate(-1 -9.65)"/><path class="a" d="M62.9,210.35c0-18.4,12.2-28.2,27.6-28.2,17.9,0,27.7,10,27.7,27.5,0,18.3-12.3,28.3-27.6,28.3C72.8,237.95,62.9,227.25,62.9,210.35Zm35.9,0c0-13.8-3.4-17.3-8.4-17.3s-8.2,3.1-8.2,16.6c0,13.8,3.4,17.3,8.5,17.3C95.6,226.95,98.8,223.45,98.8,210.35Z" transform="translate(-1 -9.65)"/><path class="a" d="M122.9,193.75l-4.1-1.4v-9.1h26.8v9.1l-4.4,1.2,5.6,21.6h0.4l9.4-31.9h12.7l9.5,31.9h0.4l5.5-21.6-4.2-1.2v-9.1h21.8v9.1l-4.1,1.4-12.8,42.9H169.7l-8.8-30.1h-0.3l-9,30.1H135.7Z" transform="translate(-1 -9.65)"/><path class="b" d="M210,200l1.72-.41v-8.93l-1.81-.46v-2.7l6.54-.68,0.44,0.2v1.66h0.18a8.11,8.11,0,0,1,5.2-1.9c2.43,0,4.11,1.07,4.12,3.83v9L228,200v2.65h-8.25V200l1.27-.32v-7.18c0-1.25-.59-1.66-1.87-1.65a6,6,0,0,0-2,.38v8.46l1.24,0.32v2.65H210V200Z" transform="translate(-1 -9.65)"/><path class="b" d="M228.82,194.81c0-5.09,3.18-8.06,8-8.07s7.16,2.37,7.17,8.89l-9.53,0c0.3,2.7,1.75,3.69,4.27,3.69a14,14,0,0,0,4.53-.73v2.82a10.47,10.47,0,0,1-6,1.55C231.74,203,228.83,200,228.82,194.81Zm9.94-1.82c0-2.41-.86-3.14-2-3.14s-2.13.73-2.3,3.32Z" transform="translate(-1 -9.65)"/><path class="b" d="M245.62,190.1l-1.21-.41v-2.65h7.93v2.65L251,190l1.67,6.28h0.12l2.77-9.28h3.76l2.83,9.27h0.12l1.62-6.28-1.24-.35V187h6.45v2.65l-1.21.41-3.77,12.48h-4.65l-2.62-8.75h-0.09l-2.65,8.76h-4.7Z" transform="translate(-1 -9.65)"/><path class="b" d="M270.14,202l-0.27-4.25h3.37l0.59,1.71a4.43,4.43,0,0,0,2,.46c1.3,0,2.1-.5,2.1-1.37s-0.5-1.19-1.9-1.51l-1.75-.4c-3-.69-4.5-2-4.5-4.73,0-3,2.15-5.21,7.06-5.22a15.16,15.16,0,0,1,5.24.83v4h-3.28L278.5,190a3.68,3.68,0,0,0-1.81-.38c-1.12,0-2,.35-2,1.23s0.56,1.13,2.16,1.51l1.89,0.43c3.2,0.72,4.44,2.26,4.45,4.62,0,3.29-2.18,5.5-7.45,5.51A16.2,16.2,0,0,1,270.14,202Z" transform="translate(-1 -9.65)"/><path class="b" d="M289.37,194.86c0-5.7,3.51-8.21,8.77-8.22a17.68,17.68,0,0,1,4.85.6v4.89h-3.46L299.12,190a2.87,2.87,0,0,0-1.21-.2c-1.75,0-2.78,1.2-2.77,4.6,0,3.66,1.58,4.8,4.27,4.79a10.54,10.54,0,0,0,3.7-.65v2.88a9.52,9.52,0,0,1-5.44,1.43C292.07,202.89,289.38,199.81,289.37,194.86Z" transform="translate(-1 -9.65)"/><path class="b" d="M304.37,194.84c0-5.35,3.6-8.21,8.15-8.21,5.3,0,8.2,2.9,8.21,8,0,5.32-3.63,8.24-8.15,8.24C307.31,202.86,304.38,199.75,304.37,194.84Zm10.62,0c0-4-1-5-2.49-5s-2.42.91-2.42,4.83,1,5,2.52,5S315,198.63,315,194.82Z" transform="translate(-1 -9.65)"/><path class="b" d="M322.2,190l-1.3-.41v-2.65h8.34v2.65l-1.36.32,2.5,7.33h0.12l2.47-7.33-1.42-.32v-2.65h6.66v2.65l-1.27.41-4.77,12.48H327Z" transform="translate(-1 -9.65)"/><path class="b" d="M338.49,194.64c0-5.09,3.18-8.06,8-8.07s7.16,2.37,7.17,8.89l-9.53,0c0.3,2.7,1.75,3.69,4.27,3.69a14,14,0,0,0,4.53-.73v2.82a10.47,10.47,0,0,1-6,1.55C341.4,202.81,338.5,199.88,338.49,194.64Zm9.94-1.82c0-2.41-.86-3.14-2-3.14s-2.13.73-2.3,3.32Z" transform="translate(-1 -9.65)"/><path class="b" d="M354.62,199.76l1.72-.41v-8.93l-1.81-.46v-2.7l6.54-.68,0.44,0.2v2.33h0.18a4.71,4.71,0,0,1,4-2.51,3.36,3.36,0,0,1,.8.09v4.71a6.17,6.17,0,0,0-1.39-.14,7.72,7.72,0,0,0-3.34.59v7.5l2.22,0.4v2.65h-9.35v-2.65Z" transform="translate(-1 -9.65)"/><path class="b" d="M366.58,198.52c0-3.05,2.18-4,5.76-4.69l2.75-.53v-0.76c0-1.57-.6-2.15-3-2.15a27.93,27.93,0,0,0-4.05.3v-3.08a21.24,21.24,0,0,1,6.63-1.09c4,0,5.8,1.62,5.81,5.08v6.92a0.89,0.89,0,0,0,1.07.93h0.5V202a7,7,0,0,1-3.19.73c-1.69,0-2.72-.52-3.17-1.8h-0.18a5.41,5.41,0,0,1-4.26,1.84C368.42,202.77,366.58,201,366.58,198.52Zm8.52,0.57v-3.34l-1.39.06a1.67,1.67,0,0,0-1.74,2c0,1.31.48,1.92,1.6,1.92A2.32,2.32,0,0,0,375.1,199.09Z" transform="translate(-1 -9.65)"/><path class="b" d="M381.91,204.75c0-1.72,1.56-2.68,3.31-3.15v-0.15a2.46,2.46,0,0,1-2-2.5,4.3,4.3,0,0,1,2.24-3.29,4.35,4.35,0,0,1-2.43-3.92c0-3.37,2.83-5.24,7-5.25a10,10,0,0,1,3.31.49l5.06-.71v3.14l-2.13-.08a3.52,3.52,0,0,1,.68,2.06c0,3.37-2.74,5.24-6.94,5.25a10.4,10.4,0,0,1-2.19-.2,1.39,1.39,0,0,0-.35.87,0.88,0.88,0,0,0,1.1.78h5.12c2.75,0,4.88,1.16,4.89,4.24s-2.62,5.94-9.1,5.95C384.38,208.3,381.92,206.82,381.91,204.75Zm11.63-1.21c0-.84-0.5-1.1-1.87-1.1h-3.73a1.45,1.45,0,0,0-1,1.43c0,0.84.77,1.45,2.87,1.45C392.57,205.32,393.54,204.5,393.54,203.54Zm-1.71-11.92c0-2-.83-2.5-1.9-2.5s-1.83.58-1.83,2.42,0.8,2.53,1.84,2.53S391.84,193.45,391.83,191.62Z" transform="translate(-1 -9.65)"/><path class="b" d="M398.59,194.55c0-5.09,3.18-8.06,8-8.07s7.16,2.37,7.17,8.89l-9.53,0c0.3,2.7,1.75,3.69,4.27,3.69a14,14,0,0,0,4.53-.73v2.82a10.48,10.48,0,0,1-6,1.55C401.5,202.71,398.6,199.78,398.59,194.55Zm9.94-1.82c0-2.41-.86-3.14-2-3.14s-2.13.73-2.3,3.32Z" transform="translate(-1 -9.65)"/><path class="b" d="M419.87,198.44c0-3.05,2.18-4,5.76-4.69l2.75-.53v-0.76c0-1.57-.59-2.15-3-2.15a27.78,27.78,0,0,0-4.05.3v-3.08a21.26,21.26,0,0,1,6.63-1.09c4,0,5.8,1.62,5.81,5.08v6.92a0.89,0.89,0,0,0,1.07.93h0.5v2.53a7.05,7.05,0,0,1-3.19.73c-1.69,0-2.72-.52-3.17-1.8h-0.18a5.41,5.41,0,0,1-4.26,1.84C421.71,202.68,419.87,200.94,419.87,198.44Zm8.52,0.57v-3.34l-1.39.06a1.67,1.67,0,0,0-1.74,2c0,1.31.48,1.92,1.6,1.92A2.32,2.32,0,0,0,428.39,199Z" transform="translate(-1 -9.65)"/><path class="b" d="M437.15,201.26l0-16.72-1.69-.46v-2.82l6.54-.68,0.5,0.23V188h0.21a6.53,6.53,0,0,1,4.38-1.64c2.84,0,5.71,1.68,5.72,7.49,0,6.37-3.51,8.76-8.6,8.77A16,16,0,0,1,437.15,201.26Zm10-6.7c0-3.29-.86-4.36-2.55-4.36a4.48,4.48,0,0,0-2,.44V199a2.77,2.77,0,0,0,1.78.52C446.09,199.47,447.12,198.54,447.11,194.56Z" transform="translate(-1 -9.65)"/><path class="b" d="M453.86,194.6c0-5.35,3.6-8.21,8.15-8.21,5.3,0,8.2,2.9,8.21,8,0,5.32-3.63,8.24-8.15,8.24C456.8,202.63,453.87,199.52,453.86,194.6Zm10.62,0c0-4-1-5-2.49-5s-2.42.91-2.42,4.83,1,5,2.52,5S464.49,198.4,464.48,194.59Z" transform="translate(-1 -9.65)"/><path class="b" d="M472.57,198.27v-8.08l-1.66-.49V187l6.63-.62,0.44,0.23,0,10.09c0,1.28.45,1.83,1.78,1.83a5.13,5.13,0,0,0,2.1-.44v-7.94l-1.57-.49V187l6.51-.62,0.47,0.23,0,12.07,1.72,0.46v2.65l-6.45.71-0.47-.2v-1.69h-0.18a6.49,6.49,0,0,1-4.76,2C473.88,202.57,472.57,201,472.57,198.27Z" transform="translate(-1 -9.65)"/><path class="b" d="M491.12,198.21v-8.38h-1.69v-2.41l2.16-.79,0.67-3.61h4.26v3.64h3.2v3.17h-3.2v7.5c0,1.37.62,1.77,1.93,1.77a5.59,5.59,0,0,0,1.45-.21v2.76a7.73,7.73,0,0,1-3.81.85C492.94,202.51,491.13,201.5,491.12,198.21Z" transform="translate(-1 -9.65)"/><path class="b" d="M210.07,238.52l1.69-.38,0-14.83-1.78-.46v-2.7l6.51-.68,0.47,0.2v1.51h0.18a6.7,6.7,0,0,1,4.55-1.78c2.84,0,5.71,1.68,5.72,7.49,0,6.37-3.48,8.76-8,8.77a9.55,9.55,0,0,1-2.19-.17v2.68l2,0.35v2.59h-9.05v-2.59Zm11.64-11c0-3.29-.87-4.36-2.55-4.36a4.47,4.47,0,0,0-2,.44V232a2.86,2.86,0,0,0,1.81.52C220.69,232.48,221.72,231.55,221.71,227.56Z" transform="translate(-1 -9.65)"/><path class="b" d="M228.46,227.47c0-5.09,3.18-8.06,8-8.07s7.16,2.37,7.17,8.89l-9.53,0c0.3,2.7,1.75,3.69,4.27,3.69a14,14,0,0,0,4.53-.73v2.82a10.47,10.47,0,0,1-6,1.55C231.37,235.63,228.47,232.7,228.46,227.47Zm9.94-1.82c0-2.41-.86-3.14-2-3.14s-2.13.73-2.3,3.32Z" transform="translate(-1 -9.65)"/><path class="b" d="M244.68,227.59c0-5.35,3.6-8.21,8.15-8.21,5.3,0,8.2,2.9,8.21,8,0,5.32-3.63,8.24-8.15,8.24C247.62,235.61,244.68,232.5,244.68,227.59Zm10.62,0c0-4-1-5-2.49-5s-2.42.91-2.42,4.83,1,5,2.52,5S255.3,231.38,255.3,227.57Z" transform="translate(-1 -9.65)"/><path class="b" d="M261.92,238.44l1.69-.38,0-14.83-1.78-.46v-2.7l6.51-.68,0.47,0.2v1.51H269a6.7,6.7,0,0,1,4.55-1.78c2.84,0,5.71,1.68,5.72,7.49,0,6.37-3.48,8.76-8,8.77a9.52,9.52,0,0,1-2.19-.17v2.68l2,0.35V241h-9.05v-2.59Zm11.64-11c0-3.29-.87-4.36-2.55-4.36a4.46,4.46,0,0,0-2,.44v8.32a2.86,2.86,0,0,0,1.81.52C272.53,232.4,273.56,231.47,273.56,227.48Z" transform="translate(-1 -9.65)"/><path class="b" d="M280.22,232.53l1.74-.41,0-14.89-1.89-.49v-2.68l6.83-.68,0.47,0.2,0,18.53,1.69,0.4v2.65h-8.85v-2.65Z" transform="translate(-1 -9.65)"/><path class="b" d="M289.92,227.37c0-5.09,3.18-8.06,8-8.07s7.16,2.37,7.17,8.89l-9.53,0c0.3,2.7,1.75,3.69,4.27,3.69a14,14,0,0,0,4.53-.73V234a10.48,10.48,0,0,1-6,1.55C292.83,235.54,289.93,232.6,289.92,227.37Zm9.94-1.82c0-2.41-.86-3.14-2-3.14s-2.13.73-2.3,3.32Z" transform="translate(-1 -9.65)"/><path class="b" d="M306.76,230.45h5.15a20.58,20.58,0,0,1-1.82,7h-3.64A70,70,0,0,0,306.76,230.45Z" transform="translate(-1 -9.65)"/><path class="b" d="M318.57,232.47l1.72-.41v-8.93l-1.87-.46V220l6.77-.68,0.5,0.2,0,12.56,1.6,0.4v2.65h-8.73v-2.65Zm1.25-16.75a3,3,0,1,1,3,2.61A2.71,2.71,0,0,1,319.82,215.72Z" transform="translate(-1 -9.65)"/><path class="b" d="M328.24,227.72c0-6.22,3.36-8.47,7.65-8.48a6.48,6.48,0,0,1,2.57.43v-2.53l-1.86-.46V214l6.77-.68,0.5,0.2,0,18.06,1.69,0.46v2.65l-6.09.71-0.47-.2v-1.51h-0.18a5.5,5.5,0,0,1-4.44,1.78C331.45,235.45,328.25,233.65,328.24,227.72Zm10.24,3.5V223a2.75,2.75,0,0,0-1.81-.55c-1.66,0-2.75.91-2.74,4.69,0,3.43.92,4.56,2.58,4.56A4.21,4.21,0,0,0,338.48,231.22Z" transform="translate(-1 -9.65)"/><path class="b" d="M346.53,227.28c0-5.09,3.18-8.06,8-8.07s7.16,2.37,7.17,8.89l-9.53,0c0.3,2.7,1.75,3.69,4.27,3.69a14,14,0,0,0,4.53-.73v2.82a10.47,10.47,0,0,1-6,1.55C349.44,235.45,346.54,232.52,346.53,227.28Zm9.94-1.82c0-2.41-.86-3.14-2-3.14s-2.13.73-2.3,3.32Z" transform="translate(-1 -9.65)"/><path class="b" d="M362.63,231.18c0-3.05,2.18-4,5.76-4.69l2.75-.53v-0.76c0-1.57-.6-2.15-3-2.15a28,28,0,0,0-4.05.3v-3.08a21.25,21.25,0,0,1,6.63-1.09c4,0,5.8,1.62,5.81,5.08v6.92a0.89,0.89,0,0,0,1.07.93h0.5v2.53a7,7,0,0,1-3.19.73c-1.69,0-2.72-.52-3.17-1.8H371.6a5.41,5.41,0,0,1-4.26,1.84C364.47,235.42,362.64,233.68,362.63,231.18Zm8.52,0.57V228.4l-1.39.06a1.67,1.67,0,0,0-1.74,2c0,1.31.48,1.92,1.6,1.92A2.32,2.32,0,0,0,371.15,231.75Z" transform="translate(-1 -9.65)"/><path class="b" d="M379.18,234.44l-0.27-4.25h3.37l0.59,1.72a4.44,4.44,0,0,0,2,.46c1.3,0,2.1-.5,2.1-1.37s-0.5-1.19-1.9-1.51l-1.75-.4c-3-.69-4.5-2-4.5-4.73,0-3,2.15-5.21,7.06-5.22a15.13,15.13,0,0,1,5.24.83v4h-3.28l-0.36-1.54a3.68,3.68,0,0,0-1.8-.38c-1.12,0-2,.35-2,1.23s0.56,1.13,2.16,1.51l1.89,0.43c3.2,0.72,4.44,2.26,4.45,4.62,0,3.29-2.18,5.5-7.45,5.51A16.23,16.23,0,0,1,379.18,234.44Z" transform="translate(-1 -9.65)"/><path class="b" d="M398.29,231.12c0-3.05,2.18-4,5.76-4.69l2.75-.53v-0.76c0-1.57-.59-2.15-3-2.15a27.81,27.81,0,0,0-4.05.3v-3.08a21.26,21.26,0,0,1,6.63-1.09c4,0,5.8,1.62,5.81,5.08v6.92a0.89,0.89,0,0,0,1.07.93h0.5v2.53a7.05,7.05,0,0,1-3.19.73c-1.69,0-2.72-.52-3.17-1.8h-0.18a5.41,5.41,0,0,1-4.26,1.84C400.13,235.37,398.29,233.63,398.29,231.12Zm8.52,0.57v-3.34l-1.39.06a1.67,1.67,0,0,0-1.74,2c0,1.31.48,1.92,1.6,1.92A2.32,2.32,0,0,0,406.81,231.69Z" transform="translate(-1 -9.65)"/><path class="b" d="M414.45,232.32l1.72-.41V223l-1.81-.46v-2.7l6.54-.68,0.44,0.2V221h0.18a8.11,8.11,0,0,1,5.21-1.9c2.43,0,4.11,1.07,4.12,3.83v9l1.57,0.4v2.65h-8.25v-2.65l1.27-.32V224.8c0-1.25-.59-1.66-1.87-1.65a6,6,0,0,0-2,.38V232l1.24,0.32V235h-8.37v-2.65Z" transform="translate(-1 -9.65)"/><path class="b" d="M433.38,227.55c0-6.22,3.36-8.47,7.65-8.48a6.48,6.48,0,0,1,2.57.43V217l-1.87-.46v-2.7l6.77-.68,0.5,0.2,0,18.06,1.69,0.46v2.65l-6.09.71-0.47-.2v-1.51H444a5.5,5.5,0,0,1-4.43,1.78C436.59,235.28,433.39,233.48,433.38,227.55Zm10.24,3.5v-8.2a2.75,2.75,0,0,0-1.81-.55c-1.66,0-2.75.91-2.75,4.69,0,3.43.92,4.56,2.58,4.56A4.21,4.21,0,0,0,443.62,231.05Z" transform="translate(-1 -9.65)"/><path class="b" d="M456.77,238.13l1.69-.38,0-14.83-1.78-.46v-2.7l6.51-.68,0.47,0.2v1.51h0.18a6.71,6.71,0,0,1,4.55-1.78c2.84,0,5.71,1.68,5.72,7.49,0,6.37-3.48,8.76-8,8.77a9.54,9.54,0,0,1-2.19-.17v2.68l2,0.35v2.59h-9.05v-2.59Zm11.64-11c0-3.29-.87-4.36-2.55-4.36a4.47,4.47,0,0,0-2,.44v8.32a2.87,2.87,0,0,0,1.81.52C467.38,232.09,468.42,231.16,468.41,227.17Z" transform="translate(-1 -9.65)"/><path class="b" d="M475.08,232.22l1.71-.41v-8.93l-1.81-.46v-2.7l6.54-.68,0.44,0.2v2.33h0.18a4.71,4.71,0,0,1,4-2.51,3.36,3.36,0,0,1,.8.09v4.71a6.19,6.19,0,0,0-1.39-.14,7.72,7.72,0,0,0-3.34.59v7.5l2.22,0.4v2.65h-9.35v-2.65Z" transform="translate(-1 -9.65)"/><path class="b" d="M487.59,227.2c0-5.35,3.6-8.21,8.15-8.21,5.3,0,8.2,2.9,8.21,8,0,5.32-3.63,8.24-8.15,8.24C490.53,235.22,487.6,232.12,487.59,227.2Zm10.62,0c0-4-1-5-2.49-5s-2.42.91-2.42,4.83,1,5,2.52,5S498.22,231,498.21,227.19Z" transform="translate(-1 -9.65)"/><path class="b" d="M506.41,230.84v-8.38h-1.69V220l2.16-.79,0.67-3.61h4.26v3.64H515v3.17h-3.2V230c0,1.37.62,1.77,1.93,1.77a5.59,5.59,0,0,0,1.45-.21v2.76a7.73,7.73,0,0,1-3.81.85C508.23,235.14,506.42,234.12,506.41,230.84Z" transform="translate(-1 -9.65)"/><path class="b" d="M516.17,227c0-5.09,3.18-8.06,8-8.07s7.16,2.37,7.17,8.89l-9.53,0c0.3,2.7,1.75,3.69,4.27,3.69a14,14,0,0,0,4.53-.73v2.82a10.47,10.47,0,0,1-6,1.55C519.09,235.18,516.18,232.25,516.17,227Zm9.94-1.82c0-2.41-.86-3.14-2-3.14s-2.13.73-2.3,3.32Z" transform="translate(-1 -9.65)"/><path class="b" d="M532.7,234.2L532.42,230h3.37l0.59,1.71a4.43,4.43,0,0,0,2,.46c1.3,0,2.1-.5,2.1-1.37s-0.5-1.19-1.9-1.51l-1.75-.4c-3-.69-4.5-2-4.5-4.73,0-3,2.15-5.21,7.06-5.22a15.15,15.15,0,0,1,5.24.83v4h-3.28L541,222.23a3.68,3.68,0,0,0-1.81-.38c-1.12,0-2,.35-2,1.22s0.56,1.13,2.16,1.51l1.89,0.43c3.2,0.72,4.44,2.26,4.45,4.62,0,3.29-2.18,5.5-7.45,5.51A16.19,16.19,0,0,1,532.7,234.2Z" transform="translate(-1 -9.65)"/><path class="b" d="M548,230.77V222.4h-1.69V220l2.16-.79,0.67-3.61h4.26v3.64h3.2v3.17h-3.2v7.5c0,1.37.62,1.77,1.93,1.77a5.62,5.62,0,0,0,1.45-.21v2.76a7.73,7.73,0,0,1-3.81.85C549.77,235.07,548,234.06,548,230.77Z" transform="translate(-1 -9.65)"/></svg>