<?xml version="1.0" encoding="utf-8"?>
<!-- Generator: Adobe Illustrator 19.2.1, SVG Export Plug-In . SVG Version: 6.00 Build 0)  -->
<svg version="1.1" id="Layer_1" xmlns="http://www.w3.org/2000/svg" xmlns:xlink="http://www.w3.org/1999/xlink" x="0px" y="0px"
	 viewBox="0 0 482.8 258.7" style="enable-background:new 0 0 482.8 258.7;" xml:space="preserve">
<style type="text/css">
	.st0{fill:#B51800;}
	.st1{fill:#333333;}
</style>
<g>
	<path class="st0" d="M6.7,70.9V42.1H1v-8.3l7.3-2.7l2.3-12.4H25v12.5h10.8v10.9H25v25.8c0,4.7,2.1,6.1,6.5,6.1
		c1.7,0,3.5-0.3,4.9-0.7v9.5c-2.4,1.5-7,2.9-12.9,2.9C12.8,85.7,6.7,82.2,6.7,70.9z"/>
	<path class="st0" d="M41.9,75.5l5.8-1.4V22.8l-6.1-1.6v-9.3l22.6-2.3l1.7,0.8v26h0.5c4.8-3.7,9.6-6.3,17-6.3
		c8.2,0,13.9,3.7,13.9,13.2v30.8l5.3,1.4v9.1H74.7v-9.1l4.3-1.1V49.7c0-4.3-2-5.8-6.3-5.8c-2.6,0-4.6,0.7-6.7,1.4v29.1l4.2,1.1v9.1
		H41.9V75.5z"/>
	<path class="st0" d="M103.4,57.8c0-17.5,10.8-27.7,27.1-27.7c16.4,0,24.2,8.2,24.2,30.6h-32.2c1,9.3,5.9,12.7,14.4,12.7
		c7,0,11.5-1.3,15.3-2.5v9.7c-3.8,2.6-10.1,5.3-20.3,5.3C113.2,85.9,103.4,75.8,103.4,57.8z M137,51.6c0-8.3-2.9-10.8-6.8-10.8
		c-4.1,0-7.2,2.5-7.8,11.4L137,51.6z"/>
	<path class="st0" d="M1.3,151.5l5.8-1.4v-30.7L1,117.8v-9.3l22.1-2.3l1.5,0.7v8h0.6c2.9-4.8,7.4-8.6,13.5-8.6c0.9,0,2,0.1,2.7,0.3
		v16.2c-1.1-0.3-3-0.5-4.7-0.5c-4.9,0-8.3,0.6-11.3,2v25.8l7.5,1.4v9.1H1.3V151.5z"/>
	<path class="st0" d="M43.6,133.8c0-17.5,10.8-27.7,27.1-27.7c16.4,0,24.2,8.2,24.2,30.6H62.7c1,9.3,5.9,12.7,14.4,12.7
		c7,0,11.5-1.3,15.3-2.5v9.7c-3.8,2.6-10.1,5.3-20.3,5.3C53.4,161.9,43.6,151.8,43.6,133.8z M77.2,127.6c0-8.3-2.9-10.8-6.8-10.8
		c-4.1,0-7.2,2.5-7.8,11.4L77.2,127.6z"/>
	<path class="st0" d="M99.4,158.6L98.5,144h11.4l2,5.9c1.2,0.7,3.8,1.6,6.9,1.6c4.4,0,7.1-1.7,7.1-4.7s-1.7-4.1-6.4-5.2l-5.9-1.4
		c-10-2.4-15.2-6.8-15.2-16.3c0-10.4,7.3-17.9,23.9-17.9c6.6,0,13.3,1.1,17.7,2.9v13.9h-11.1l-1.2-5.3c-1.3-0.7-3.1-1.3-6.1-1.3
		c-3.8,0-6.9,1.2-6.9,4.2c0,2.8,1.9,3.9,7.3,5.2l6.4,1.5c10.8,2.5,15,7.8,15,15.9c0,11.3-7.4,18.9-25.2,18.9
		C112.1,161.9,104.9,160.8,99.4,158.6z"/>
	<path class="st0" d="M144.7,151.5l5.8-1.4v-30.7l-6.3-1.6v-9.3l22.9-2.3l1.7,0.7v43.2l5.4,1.4v9.1h-29.5V151.5z M149,93.9
		c0-5.5,4.6-8.9,10.1-8.9c5.6,0,10.1,3.4,10.1,8.9c0,5.6-4.5,9-10.1,9C153.6,102.9,149,99.5,149,93.9z"/>
	<path class="st0" d="M178,158.6l-0.9-14.6h11.4l2,5.9c1.2,0.7,3.8,1.6,6.9,1.6c4.4,0,7.1-1.7,7.1-4.7s-1.7-4.1-6.4-5.2l-5.9-1.4
		c-10-2.4-15.2-6.8-15.2-16.3c0-10.4,7.3-17.9,23.9-17.9c6.6,0,13.3,1.1,17.7,2.9v13.9h-11.1l-1.2-5.3c-1.3-0.7-3.1-1.3-6.1-1.3
		c-3.8,0-6.9,1.2-6.9,4.2c0,2.8,1.9,3.9,7.3,5.2l6.4,1.5c10.8,2.5,15,7.8,15,15.9c0,11.3-7.4,18.9-25.2,18.9
		C190.7,161.9,183.5,160.8,178,158.6z"/>
	<path class="st0" d="M227.6,146.9v-28.8h-5.7v-8.3l7.3-2.7l2.3-12.4h14.4v12.5h10.8v10.9h-10.8v25.8c0,4.7,2.1,6.1,6.5,6.1
		c1.7,0,3.5-0.3,4.9-0.7v9.5c-2.4,1.5-7,2.9-12.9,2.9C233.7,161.7,227.6,158.2,227.6,146.9z"/>
	<path class="st0" d="M260.7,147.3c0-10.5,7.4-13.9,19.5-16.1l9.3-1.8v-2.6c0-5.4-2-7.4-10-7.4c-4.7,0-10.1,0.4-13.7,1v-10.6
		c5.1-1.8,13.4-3.7,22.4-3.7c13.5,0,19.6,5.6,19.6,17.5v23.8c0,2.5,1.6,3.2,3.6,3.2h1.7v8.7c-1.9,1.2-6.4,2.5-10.8,2.5
		c-5.7,0-9.2-1.8-10.7-6.2H291c-2.7,3.4-7.7,6.3-14.4,6.3C266.9,161.9,260.7,155.9,260.7,147.3z M289.5,149.3v-11.5l-4.7,0.2
		c-4.1,0.3-5.9,2.4-5.9,6.7c0,4.5,1.6,6.6,5.4,6.6C286.5,151.3,288.5,150.3,289.5,149.3z"/>
	<path class="st0" d="M317.3,151.5l5.8-1.4v-30.7l-6.1-1.6v-9.3l22.1-2.3l1.5,0.7v5.7h0.6c5.1-3.9,10.2-6.5,17.6-6.5
		c8.2,0,13.9,3.7,13.9,13.2v30.8l5.3,1.4v9.1h-27.9v-9.1l4.3-1.1v-24.7c0-4.3-2-5.7-6.3-5.7c-2.6,0-4.6,0.6-6.7,1.3v29.1l4.2,1.1
		v9.1h-28.3V151.5z"/>
	<path class="st0" d="M378.9,134.3c0-19.6,11.9-28.2,29.7-28.2c6.6,0,13.2,1,16.4,2.1V125h-11.7l-1.4-7.3c-0.8-0.3-1.7-0.7-4.1-0.7
		c-5.9,0-9.4,4.1-9.4,15.8c0,12.6,5.3,16.5,14.4,16.5c5.2,0,9.8-1.1,12.5-2.2v9.9c-3.2,2.3-9.3,4.9-18.4,4.9
		C388,161.9,378.9,151.3,378.9,134.3z"/>
	<path class="st0" d="M429.6,133.8c0-17.5,10.8-27.7,27.1-27.7c16.4,0,24.2,8.2,24.2,30.6h-32.2c1,9.3,5.9,12.7,14.4,12.7
		c7,0,11.5-1.3,15.3-2.5v9.7c-3.8,2.6-10.1,5.3-20.3,5.3C439.4,161.9,429.6,151.8,429.6,133.8z M463.2,127.6
		c0-8.3-2.9-10.8-6.8-10.8c-4.1,0-7.2,2.5-7.8,11.4L463.2,127.6z"/>
	<path class="st0" d="M1.3,227.5l5.8-1.4v-30.7L1,193.8v-9.3l22.1-2.3l1.5,0.7v5.7h0.6c5.1-3.9,10.2-6.5,17.6-6.5
		c8.2,0,13.9,3.7,13.9,13.2v30.8l5.3,1.4v9.1H34.1v-9.1l4.3-1.1v-24.7c0-4.3-2-5.7-6.3-5.7c-2.6,0-4.6,0.6-6.7,1.3v29.1l4.2,1.1v9.1
		H1.3V227.5z"/>
	<path class="st0" d="M62.9,210.3c0-18.4,12.2-28.2,27.6-28.2c17.9,0,27.7,10,27.7,27.5c0,18.3-12.3,28.3-27.6,28.3
		C72.8,237.9,62.9,227.2,62.9,210.3z M98.8,210.3c0-13.8-3.4-17.3-8.4-17.3c-4.9,0-8.2,3.1-8.2,16.6c0,13.8,3.4,17.3,8.5,17.3
		C95.6,226.9,98.8,223.4,98.8,210.3z"/>
	<path class="st0" d="M122.9,193.7l-4.1-1.4v-9.1h26.8v9.1l-4.4,1.2l5.6,21.6h0.4l9.4-31.9h12.7l9.5,31.9h0.4l5.5-21.6l-4.2-1.2
		v-9.1h21.8v9.1l-4.1,1.4l-12.8,42.9h-15.7l-8.8-30.1h-0.3l-9,30.1h-15.9L122.9,193.7z"/>
</g>
<g>
	<path class="st1" d="M209,201.1c0-2.9,2.1-3.9,5.5-4.5l2.6-0.5v-0.7c0-1.5-0.6-2.1-2.8-2.1c-1.3,0-2.9,0.1-3.9,0.3v-3
		c1.4-0.5,3.8-1,6.3-1c3.8,0,5.6,1.6,5.6,4.9v6.6c0,0.7,0.5,0.9,1,0.9h0.5v2.4c-0.5,0.3-1.8,0.7-3.1,0.7c-1.6,0-2.6-0.5-3-1.7h-0.2
		c-0.8,0.9-2.2,1.8-4.1,1.8C210.7,205.1,209,203.5,209,201.1z M217.1,201.6v-3.2l-1.3,0.1c-1.2,0.1-1.7,0.7-1.7,1.9
		c0,1.3,0.5,1.8,1.5,1.8C216.3,202.2,216.8,201.9,217.1,201.6z"/>
	<path class="st1" d="M229.4,202.2l1.6-0.4v-8.9h-1.7v-2.3l1.7-0.6v-1.4c0-3.5,2.4-4.6,5-4.6c1.4,0,2.4,0.3,2.8,0.5v3
		c-0.2-0.1-0.5-0.1-0.9-0.1c-1,0-1.7,0.4-1.7,1.8v0.8h8.4l0.5,0.2v11.7l1.5,0.4v2.5h-7.9v-2.5l1.2-0.3v-9h-3.7v9l1.2,0.3v2.5h-8
		V202.2z M239.8,186.2c0-1.5,1.2-2.5,2.7-2.5s2.7,0.9,2.7,2.5c0,1.6-1.2,2.5-2.7,2.5S239.8,187.8,239.8,186.2z"/>
	<path class="st1" d="M247.1,207.1c0-1.6,1.5-2.6,3.2-3v-0.1c-1.3-0.4-2-1.2-2-2.4c0-1.2,0.9-2.4,2.2-3.1c-1.4-0.8-2.3-2-2.3-3.8
		c0-3.2,2.7-5,6.7-5c1.2,0,2.3,0.2,3.2,0.5l4.8-0.7v3l-2-0.1c0.4,0.6,0.7,1.2,0.7,2c0,3.2-2.6,5-6.7,5c-0.8,0-1.4-0.1-2.1-0.2
		c-0.2,0.3-0.3,0.6-0.3,0.8c0,0.4,0.3,0.8,1,0.8h4.9c2.6,0,4.7,1.1,4.7,4.1c0,3.1-2.5,5.7-8.7,5.7
		C249.4,210.5,247.1,209,247.1,207.1z M258.2,205.9c0-0.8-0.5-1.1-1.8-1.1h-3.6c-0.6,0.3-1,0.7-1,1.4c0,0.8,0.7,1.4,2.7,1.4
		C257.3,207.6,258.2,206.8,258.2,205.9z M256.6,194.5c0-2-0.8-2.4-1.8-2.4c-1,0-1.8,0.6-1.8,2.3c0,1.8,0.8,2.4,1.8,2.4
		C255.8,196.8,256.6,196.3,256.6,194.5z"/>
	<path class="st1" d="M263.5,202.2l1.6-0.4v-14.3l-1.7-0.4v-2.6l6.4-0.6l0.5,0.2v7.2h0.1c1.4-1,2.7-1.8,4.8-1.8c2.3,0,3.9,1,3.9,3.7
		v8.6l1.5,0.4v2.5h-7.9v-2.5l1.2-0.3v-6.9c0-1.2-0.6-1.6-1.8-1.6c-0.7,0-1.3,0.2-1.9,0.4v8.1l1.2,0.3v2.5h-8V202.2z"/>
	<path class="st1" d="M282.5,201v-8h-1.6v-2.3l2.1-0.8l0.7-3.5h4.1v3.5h3.1v3h-3.1v7.2c0,1.3,0.6,1.7,1.8,1.7c0.5,0,1-0.1,1.4-0.2
		v2.6c-0.7,0.4-2,0.8-3.7,0.8C284.3,205.1,282.5,204.1,282.5,201z"/>
	<path class="st1" d="M296.9,202.2l1.6-0.4v-8.9h-1.7v-2.3l1.7-0.6v-1.3c0-3.6,2.7-4.8,5.6-4.8c1.6,0,2.7,0.3,3.3,0.5v3
		c-0.5-0.1-1-0.2-1.7-0.2c-1.3,0-2,0.4-2,1.9v0.7h2.8v3h-2.8v8.9l2,0.4v2.5h-8.8V202.2z"/>
	<path class="st1" d="M307,197.5c0-5.1,3.5-7.9,7.8-7.9c5.1,0,7.8,2.8,7.8,7.7c0,5.1-3.5,7.9-7.8,7.9
		C309.8,205.1,307,202.2,307,197.5z M317.2,197.5c0-3.8-1-4.8-2.4-4.8c-1.4,0-2.3,0.9-2.3,4.6c0,3.8,1,4.8,2.4,4.8
		C316.3,202.1,317.2,201.1,317.2,197.5z"/>
	<path class="st1" d="M323.5,202.2l1.6-0.4v-8.6l-1.7-0.4v-2.6l6.3-0.6l0.4,0.2v2.2h0.2c0.8-1.3,2.1-2.4,3.8-2.4
		c0.3,0,0.6,0,0.8,0.1v4.5c-0.3-0.1-0.9-0.1-1.3-0.1c-1.4,0-2.4,0.2-3.2,0.6v7.2l2.1,0.4v2.5h-9V202.2z"/>
	<path class="st1" d="M340.5,202.2l1.6-0.4v-8.9h-1.7v-2.3l1.7-0.6v-1.3c0-3.6,2.7-4.8,5.6-4.8c1.6,0,2.7,0.3,3.3,0.5v3
		c-0.5-0.1-1-0.2-1.7-0.2c-1.3,0-2,0.4-2,1.9v0.7h2.8v3h-2.8v8.9l2,0.4v2.5h-8.8V202.2z"/>
	<path class="st1" d="M350.5,201.1c0-2.9,2.1-3.9,5.5-4.5l2.6-0.5v-0.7c0-1.5-0.6-2.1-2.8-2.1c-1.3,0-2.9,0.1-3.9,0.3v-3
		c1.4-0.5,3.8-1,6.3-1c3.8,0,5.6,1.6,5.6,4.9v6.6c0,0.7,0.5,0.9,1,0.9h0.5v2.4c-0.5,0.3-1.8,0.7-3.1,0.7c-1.6,0-2.6-0.5-3-1.7h-0.2
		c-0.8,0.9-2.2,1.8-4.1,1.8C352.3,205.1,350.5,203.5,350.5,201.1z M358.7,201.6v-3.2l-1.3,0.1c-1.2,0.1-1.7,0.7-1.7,1.9
		c0,1.3,0.5,1.8,1.5,1.8C357.8,202.2,358.4,201.9,358.7,201.6z"/>
	<path class="st1" d="M366,202.2l1.6-0.4v-8.6l-1.8-0.4v-2.6l6.5-0.6l0.5,0.2v12l1.5,0.4v2.5H366V202.2z M367.2,186.2
		c0-1.5,1.3-2.5,2.9-2.5c1.6,0,2.9,0.9,2.9,2.5c0,1.6-1.3,2.5-2.9,2.5C368.6,188.7,367.2,187.8,367.2,186.2z"/>
	<path class="st1" d="M375.1,202.2l1.6-0.4v-8.6l-1.7-0.4v-2.6l6.3-0.6l0.4,0.2v2.2h0.2c0.8-1.3,2.1-2.4,3.8-2.4
		c0.3,0,0.6,0,0.8,0.1v4.5c-0.3-0.1-0.9-0.1-1.3-0.1c-1.4,0-2.4,0.2-3.2,0.6v7.2l2.1,0.4v2.5h-9V202.2z"/>
	<path class="st1" d="M387.1,202.2l1.6-0.4v-8.6l-1.7-0.4v-2.6l6.3-0.6l0.4,0.2v1.6h0.2c1.4-1.1,2.9-1.8,5-1.8c2.3,0,3.9,1,3.9,3.7
		v8.6l1.5,0.4v2.5h-7.9v-2.5l1.2-0.3v-6.9c0-1.2-0.6-1.6-1.8-1.6c-0.7,0-1.3,0.2-1.9,0.4v8.1l1.2,0.3v2.5h-8V202.2z"/>
	<path class="st1" d="M405.2,197.3c0-4.9,3.1-7.7,7.7-7.7c4.6,0,6.9,2.3,6.9,8.5h-9.1c0.3,2.6,1.7,3.5,4.1,3.5c2,0,3.3-0.4,4.3-0.7
		v2.7c-1.1,0.7-2.9,1.5-5.8,1.5C407.9,205.1,405.2,202.3,405.2,197.3z M414.7,195.6c0-2.3-0.8-3-1.9-3c-1.2,0-2,0.7-2.2,3.2
		L414.7,195.6z"/>
	<path class="st1" d="M421,204.2l-0.3-4.1h3.2l0.6,1.6c0.3,0.2,1.1,0.4,2,0.4c1.2,0,2-0.5,2-1.3s-0.5-1.1-1.8-1.4l-1.7-0.4
		c-2.8-0.7-4.3-1.9-4.3-4.5c0-2.9,2.1-5,6.8-5c1.9,0,3.8,0.3,5,0.8v3.9h-3.1l-0.3-1.5c-0.4-0.2-0.9-0.4-1.7-0.4c-1.1,0-2,0.3-2,1.2
		c0,0.8,0.5,1.1,2.1,1.4l1.8,0.4c3.1,0.7,4.2,2.2,4.2,4.4c0,3.1-2.1,5.3-7.1,5.3C424.6,205.1,422.5,204.8,421,204.2z"/>
	<path class="st1" d="M434.7,204.2l-0.3-4.1h3.2l0.6,1.6c0.3,0.2,1.1,0.4,2,0.4c1.2,0,2-0.5,2-1.3s-0.5-1.1-1.8-1.4l-1.7-0.4
		c-2.8-0.7-4.3-1.9-4.3-4.5c0-2.9,2.1-5,6.8-5c1.9,0,3.8,0.3,5,0.8v3.9h-3.1l-0.3-1.5c-0.4-0.2-0.9-0.4-1.7-0.4c-1.1,0-2,0.3-2,1.2
		c0,0.8,0.5,1.1,2.1,1.4l1.8,0.4c3.1,0.7,4.2,2.2,4.2,4.4c0,3.1-2.1,5.3-7.1,5.3C438.3,205.1,436.3,204.8,434.7,204.2z"/>
	<path class="st1" d="M209,232.3c0-2.9,2.1-3.9,5.5-4.5l2.6-0.5v-0.7c0-1.5-0.6-2.1-2.8-2.1c-1.3,0-2.9,0.1-3.9,0.3v-3
		c1.4-0.5,3.8-1,6.3-1c3.8,0,5.6,1.6,5.6,4.9v6.6c0,0.7,0.5,0.9,1,0.9h0.5v2.4c-0.5,0.3-1.8,0.7-3.1,0.7c-1.6,0-2.6-0.5-3-1.7h-0.2
		c-0.8,0.9-2.2,1.8-4.1,1.8C210.7,236.4,209,234.7,209,232.3z M217.1,232.9v-3.2l-1.3,0.1c-1.2,0.1-1.7,0.7-1.7,1.9
		c0,1.3,0.5,1.8,1.5,1.8C216.3,233.5,216.8,233.2,217.1,232.9z"/>
	<path class="st1" d="M224.4,233.5l1.6-0.4v-8.6l-1.7-0.4v-2.6l6.3-0.6l0.4,0.2v1.6h0.2c1.4-1.1,2.9-1.8,5-1.8c2.3,0,3.9,1,3.9,3.7
		v8.6l1.5,0.4v2.5h-7.9v-2.5l1.2-0.3v-6.9c0-1.2-0.6-1.6-1.8-1.6c-0.7,0-1.3,0.2-1.9,0.4v8.1l1.2,0.3v2.5h-8V233.5z"/>
	<path class="st1" d="M242.6,229c0-6,3.2-8.1,7.3-8.1c1.2,0,1.8,0.2,2.5,0.4v-2.4l-1.8-0.4v-2.6l6.5-0.6l0.5,0.2v17.3l1.6,0.4v2.5
		l-5.8,0.7l-0.5-0.2v-1.4h-0.2c-0.8,1-2.3,1.7-4.3,1.7C245.6,236.4,242.6,234.7,242.6,229z M252.4,232.3v-7.9
		c-0.4-0.3-0.8-0.5-1.7-0.5c-1.6,0-2.6,0.9-2.6,4.5c0,3.3,0.9,4.4,2.5,4.4C251.3,232.8,251.9,232.6,252.4,232.3z"/>
	<path class="st1" d="M266.5,232.2v-8h-1.6v-2.3l2.1-0.8l0.7-3.5h4.1v3.5h3.1v3h-3.1v7.2c0,1.3,0.6,1.7,1.8,1.7c0.5,0,1-0.1,1.4-0.2
		v2.6c-0.7,0.4-2,0.8-3.7,0.8C268.2,236.4,266.5,235.4,266.5,232.2z"/>
	<path class="st1" d="M275.9,233.5l1.6-0.4v-14.3l-1.7-0.4v-2.6l6.4-0.6l0.5,0.2v7.2h0.1c1.4-1,2.7-1.8,4.8-1.8c2.3,0,3.9,1,3.9,3.7
		v8.6l1.5,0.4v2.5h-7.9v-2.5l1.2-0.3v-6.9c0-1.2-0.6-1.6-1.8-1.6c-0.7,0-1.3,0.2-1.9,0.4v8.1l1.2,0.3v2.5h-8V233.5z"/>
	<path class="st1" d="M293.9,228.6c0-4.9,3.1-7.7,7.7-7.7c4.6,0,6.9,2.3,6.9,8.5h-9.1c0.3,2.6,1.7,3.5,4.1,3.5c2,0,3.3-0.4,4.3-0.7
		v2.7c-1.1,0.7-2.9,1.5-5.8,1.5C296.7,236.4,293.9,233.6,293.9,228.6z M303.4,226.9c0-2.3-0.8-3-1.9-3c-1.2,0-2,0.7-2.2,3.2
		L303.4,226.9z"/>
	<path class="st1" d="M315.8,232.2v-8h-1.6v-2.3l2.1-0.8l0.7-3.5h4.1v3.5h3.1v3H321v7.2c0,1.3,0.6,1.7,1.8,1.7c0.5,0,1-0.1,1.4-0.2
		v2.6c-0.7,0.4-2,0.8-3.7,0.8C317.6,236.4,315.8,235.4,315.8,232.2z"/>
	<path class="st1" d="M325.2,233.5l1.6-0.4v-8.6l-1.7-0.4v-2.6l6.3-0.6l0.4,0.2v2.2h0.2c0.8-1.3,2.1-2.4,3.8-2.4
		c0.3,0,0.6,0,0.8,0.1v4.5c-0.3-0.1-0.9-0.1-1.3-0.1c-1.4,0-2.4,0.2-3.2,0.6v7.2l2.1,0.4v2.5h-9V233.5z"/>
	<path class="st1" d="M338.7,232.3v-7.7l-1.6-0.5v-2.6l6.3-0.6l0.4,0.2v9.7c0,1.2,0.4,1.8,1.7,1.8c1,0,1.5-0.2,2-0.4v-7.6l-1.5-0.5
		v-2.6l6.2-0.6l0.5,0.2v11.6l1.6,0.4v2.5l-6.2,0.7l-0.5-0.2v-1.6h-0.2c-1,1-2.4,1.9-4.6,1.9C340,236.4,338.7,234.9,338.7,232.3z"/>
	<path class="st1" d="M356.5,232.2v-8h-1.6v-2.3l2.1-0.8l0.7-3.5h4.1v3.5h3.1v3h-3.1v7.2c0,1.3,0.6,1.7,1.8,1.7c0.5,0,1-0.1,1.4-0.2
		v2.6c-0.7,0.4-2,0.8-3.7,0.8C358.2,236.4,356.5,235.4,356.5,232.2z"/>
	<path class="st1" d="M365.9,233.5l1.6-0.4v-14.3l-1.7-0.4v-2.6l6.4-0.6l0.5,0.2v7.2h0.1c1.4-1,2.7-1.8,4.8-1.8c2.3,0,3.9,1,3.9,3.7
		v8.6l1.5,0.4v2.5h-7.9v-2.5l1.2-0.3v-6.9c0-1.2-0.6-1.6-1.8-1.6c-0.7,0-1.3,0.2-1.9,0.4v8.1l1.2,0.3v2.5h-8V233.5z"/>
</g>
</svg>
