<?xml version="1.0" encoding="UTF-8" standalone="no"?>
<svg width="232px" height="55px" viewBox="0 0 232 55" version="1.1" xmlns="http://www.w3.org/2000/svg" xmlns:xlink="http://www.w3.org/1999/xlink">
    <!-- Generator: Sketch 43.2 (39069) - http://www.bohemiancoding.com/sketch -->
    <title>Group</title>
    <desc>Created with Sketch.</desc>
    <defs></defs>
    <g id="Page-1" stroke="none" stroke-width="1" fill="none" fill-rule="evenodd">
        <g id="Artboard-2" transform="translate(-2.000000, -106.000000)">
            <g id="Group" transform="translate(0.000000, 84.000000)">
                <g id="Summer" transform="translate(67.922106, 44.153713) rotate(-79.000000) translate(-67.922106, -44.153713) translate(37.422106, -18.846287)">
                    <g id="Group-17" transform="translate(0.217111, 3.397009)">
                        <path d="M47.0621116,100.273243 L55.1622645,98.1577617 L54.1517225,94.3502364 L53.0662902,94.6335986 L51.6376585,89.2504739 C52.3495923,88.8400808 54.1942175,88.2177805 55.0412586,87.9966105 L53.6194872,82.6397616 C52.0982431,83.0932545 50.9015235,84.0234914 50.5505112,85.6875587 L50.4182622,85.722152 L49.8745933,83.6739673 L43.0186095,85.4644985 L44.0988967,89.5347812 L45.0518895,89.2858233 L46.8986108,96.2445474 L46.0515696,96.4657173 L47.0621116,100.273243 Z" id="Fill-1" fill="#DC4E1F" transform="translate(49.090437, 91.456502) rotate(-285.000000) translate(-49.090437, -91.456502) "></path>
                        <polygon id="Fill-3" points="44.6842162 86.4407169 46.7199735 82.8006758 49.5873365 84.3498105 47.1007132 89.1688573"></polygon>
                        <path d="M27.578871,75.7338538 L34.6219851,71.4104544 L32.3567931,67.779298 L32.0033034,67.9963092 L28.1292096,61.7859712 C28.3540709,61.474821 28.4081901,61.3377712 28.6858366,61.1672625 C29.0644802,60.9347505 29.36023,60.9610262 29.7975663,61.6621538 L33.2655758,67.2214583 L32.9120862,67.4384695 L35.1772782,71.0694369 L41.7659056,67.0248628 L39.5009042,63.3938954 L39.1474146,63.6109066 L35.2576947,57.375427 C35.422339,57.1359208 35.5774552,56.9366788 35.8299478,56.7818599 C36.2085914,56.5493479 36.5043412,56.5756236 36.9416774,57.2767512 L40.4096869,62.8360557 L40.0561973,63.0530669 L42.3211988,66.6840343 L49.3138144,62.3916365 L47.0488129,58.76048 L46.2915257,59.225504 L41.5581948,51.6378633 C40.1366138,49.359057 37.9623191,49.3431781 36.0942551,50.4898591 C34.0495415,51.7450457 33.5491298,53.1257509 33.3722897,54.6888741 L33.2459481,54.7663781 C31.9600462,53.824232 30.3639119,54.0075951 28.950144,54.8752617 C26.9054304,56.1304483 26.4303632,57.4956527 26.3040216,59.0277743 L26.17768,59.1052783 L25.2405038,57.6028351 L18.7528734,61.5852169 L21.1741344,65.4668436 L21.9819201,64.970818 L26.1216553,71.6068609 L25.313679,72.1028864 L27.578871,75.7338538 Z" id="Fill-5" fill="#D3672A" transform="translate(34.033344, 62.737690) rotate(-273.000000) translate(-34.033344, -62.737690) "></path>
                        <polygon id="Fill-7" points="34.0938194 59.4655477 36.1295767 55.8255066 38.9969397 57.3748303 36.5103165 62.1936881"></polygon>
                        <path d="M13.9071328,26.0168776 C19.9493248,26.5414473 23.3186937,24.6718999 23.7805173,19.4339534 L23.8752064,18.3611847 C24.1672755,15.0481727 22.3580854,13.3967706 18.7141753,11.8404527 L17.6952675,11.4022716 C15.6258253,10.5232629 15.0700748,10.2841348 15.1563809,9.30607223 L15.1590482,9.27450353 C15.2259212,8.51723284 15.7128936,8.08264339 16.7304677,8.17092232 C17.207533,8.2123208 17.7106997,8.31950314 18.1391821,8.5474783 L18.0001016,10.1251571 L23.9152159,10.6385738 L24.4159058,4.95904356 C22.9340313,4.32180953 20.9004071,3.7637808 17.2431605,3.44620348 C11.1055174,2.91350532 8.04993702,5.22350229 7.70204515,9.16769925 L7.62697977,10.019676 C7.25146232,14.2791819 8.96672543,15.5409847 12.610826,17.0973026 L13.6295433,17.5354837 C15.4212055,18.2950228 15.8704547,18.6519192 15.7673827,19.819394 L15.7647154,19.8509627 C15.6894594,20.7029394 15.1914368,21.2638037 14.1420456,21.1726892 C13.3151832,21.1008563 12.9764364,20.944336 12.6668393,20.8220309 L12.8644099,18.5817876 L6.85403492,18.0600534 L6.30590519,24.2760624 C8.02821759,25.0932569 10.5044227,25.7214173 13.9071328,26.0168776" id="Fill-9" fill="#F05A22" transform="translate(15.360905, 14.736076) rotate(52.000000) translate(-15.360905, -14.736076) "></path>
                        <polygon id="Fill-11" points="14.5280256 9.60779801 16.5637829 5.96775695 19.4311459 7.51708062 16.9445227 12.3359385"></polygon>
                        <path d="M23.2122955,49.2183831 L28.3534258,50.5136449 L29.0320116,47.8630085 L28.7741833,47.7981697 L29.9346964,43.2647534 C30.1791855,43.229026 30.2670338,43.1927314 30.4697901,43.2437706 C30.7461028,43.3135242 30.8653936,43.4602147 30.7344786,43.9721191 L29.695543,48.0301146 L29.4375242,47.9652759 L28.7589385,50.6157233 L33.5684935,51.8274321 L34.2470793,49.1767956 L33.9890605,49.1119569 L35.1543376,44.5602043 C35.3389907,44.5288246 35.5003954,44.5112444 35.6846673,44.5575578 C35.9609799,44.6273114 36.0804613,44.7740019 35.9493558,45.2859063 L34.9104202,49.3440908 L34.6524014,49.2790631 L33.9738156,51.9295105 L39.0781677,53.2155096 L39.7567535,50.5650622 L39.2039376,50.425744 L40.6218979,44.8870443 C41.0478005,43.223544 40.0879475,42.2227974 38.724297,41.8791333 C37.231637,41.5031444 36.3678265,41.8887741 35.5632803,42.503324 L35.471049,42.4800728 C35.3365134,41.4732771 34.5413046,40.8254571 33.5094198,40.5653462 C32.0167598,40.1893573 31.1714337,40.5797128 30.4036657,41.2035254 L30.3114344,41.1802742 L30.5923205,40.0834982 L25.8565123,38.8903148 L25.1310487,41.7237473 L25.7208333,41.8723281 L24.4804753,46.7163275 L23.8908813,46.5677466 L23.2122955,49.2183831 Z" id="Fill-15" fill="#F9A31A" transform="translate(31.968129, 46.052912) rotate(-330.000000) translate(-31.968129, -46.052912) "></path>
                        <path d="M27.3864538,38.2810418 C28.9259916,37.1509959 29.1996364,36.1727443 29.3435096,34.9786157 L29.4650871,34.8893916 L30.1695891,35.8338061 L35.3758911,32.0122923 L33.2023586,29.0983313 L32.554072,29.5741302 L26.2581454,21.1337566 L20.9302659,25.0446836 L23.2537694,28.1595878 L23.8614667,27.7134673 L27.4140851,32.476182 C27.3473889,32.6807169 27.2654479,32.8652142 26.981894,33.0735298 C26.5563725,33.3858142 26.2901596,33.2389347 25.8705455,32.6763691 L20.4439556,25.40158 L15.1160761,29.3125069 L17.4395796,32.4274112 L18.0472769,31.9812907 L22.0797265,37.3870995 C23.4887304,39.2761175 25.0770518,39.9762998 27.3864538,38.2810418" id="Fill-13" fill="#F5811F" transform="translate(25.245984, 30.188414) rotate(-225.000000) translate(-25.245984, -30.188414) "></path>
                        <path d="M45.6580245,84.3919482 C47.7990825,84.9533795 49.5273426,84.8915654 50.633966,84.5773907 L51.4892504,81.7577577 C50.505653,81.7460376 49.4071636,81.6369649 47.868221,81.2335661 C46.2402117,80.806727 45.5154771,80.2587171 45.6830364,79.0715828 L52.0395118,80.7381076 L52.5678116,78.9965363 C53.7000569,75.2644356 52.2971546,72.9047227 48.6395224,71.9457526 C44.7364484,70.9225109 41.9412179,72.5173917 40.9096302,75.9175485 L40.5635308,77.0578023 C39.5321465,80.4581481 40.7066883,83.0938509 45.6580245,84.3919482 L45.6580245,84.3919482 Z M46.3264315,76.5544045 C46.6471124,75.4969476 47.1011899,75.1907123 47.6364035,75.3309756 C48.1494522,75.4655679 48.3037938,75.9088529 47.983113,76.9663098 L47.9578977,77.0492958 L46.3075201,76.6165967 L46.3264315,76.5544045 Z" id="Fill-20" fill="#F1674A" transform="translate(46.585016, 78.227066) rotate(63.000000) translate(-46.585016, -78.227066) "></path>
                    </g>
                    <polygon id="Fill-22" fill="#745511" transform="translate(35.638529, 62.674410) rotate(180.000000) translate(-35.638529, -62.674410) " points="11.0662359 0.338990584 11.0599474 0.341448027 11.1552276 2.03254728 59.2399166 125.00983 60.2171106 124.633841 12.1167956 1.61667221"></polygon>
                    <g id="Group-17" transform="translate(0.217111, 3.397009)">
                        <path d="M47.0621116,100.273243 L55.1622645,98.1577617 L54.1517225,94.3502364 L53.0662902,94.6335986 L51.6376585,89.2504739 C52.3495923,88.8400808 54.1942175,88.2177805 55.0412586,87.9966105 L53.6194872,82.6397616 C52.0982431,83.0932545 50.9015235,84.0234914 50.5505112,85.6875587 L50.4182622,85.722152 L49.8745933,83.6739673 L43.0186095,85.4644985 L44.0988967,89.5347812 L46.9517929,88.5344617 L47.6377726,92.0409079 L46.0515696,96.4657173 L47.0621116,100.273243 Z" id="Fill-1" fill="#DC4E1F" transform="translate(49.090437, 91.456502) rotate(-285.000000) translate(-49.090437, -91.456502) "></path>
                        <polygon id="Fill-3" points="44.6842162 86.4407169 46.7199735 82.8006758 49.5873365 84.3498105 47.1007132 89.1688573"></polygon>
                        <path d="M31.1553118,71.9650716 L38.1984259,67.6416722 L35.9332339,64.0105157 L35.5797443,64.2275269 L31.7056504,58.0171889 C31.9305117,57.7060387 31.9846309,57.568989 32.2622775,57.3984802 C32.6409211,57.1659682 32.9366709,57.192244 33.3740071,57.8933715 L36.8420167,63.452676 L36.488527,63.6696872 L38.7537191,67.3006546 L45.3423465,63.2560805 L43.077345,59.6251131 L42.7238554,59.8421243 L38.8341356,53.6066447 C38.9987798,53.3671385 39.153896,53.1678965 39.4063886,53.0130776 C39.7850322,52.7805656 45.1346356,47.8690811 45.1346356,47.8690811 C43.7130547,45.5902747 41.53876,45.5743959 39.6706959,46.7210768 C37.6259823,47.9762634 37.1255706,49.3569686 36.9487305,50.9200918 L36.8223889,50.9975958 C35.5364871,50.0554497 33.9403528,50.2388128 32.5265848,51.1064794 C30.4818712,52.361666 30.006804,53.7268704 29.8804625,55.258992 L29.7541209,55.336496 L28.8169446,53.8340528 L22.3293142,57.8164346 L24.7505753,61.6980613 L25.558361,61.2020358 L29.6980961,67.8380786 L28.8901198,68.3341042 L31.1553118,71.9650716 Z" id="Fill-5" fill="#D3672A" transform="translate(33.835830, 58.968908) rotate(-273.000000) translate(-33.835830, -58.968908) "></path>
                        <polygon id="Fill-7" points="34.0938194 59.4655477 36.1295767 55.8255066 38.9969397 57.3748303 36.5103165 62.1936881"></polygon>
                        <path d="M23.8000641,19.441735 L23.8947726,18.3689664 C24.1869018,15.0559544 22.3773398,13.4045523 18.7326807,11.8482344 L17.7135634,11.4100533 C15.6436959,10.5310446 15.087831,10.2919164 15.1741549,9.31385389 C15.2437095,8.5250145 15.730782,8.09042506 16.7485653,8.17870399 C17.2257287,8.22010246 17.7289988,8.32728481 18.1575693,8.55525996 L18.0184601,10.1329387 L23.9347903,10.6463554 L24.4355832,4.96682522 C22.953404,4.3295912 20.9193618,3.77156247 17.2613635,3.45398514 C11.1224587,2.92128699 10.9258327,4.17341197 10.5778694,8.11760893 L10.2696249,9.35345289 C9.89403026,13.6129588 8.98322716,15.5487663 12.6280768,17.1050843 L13.6470035,17.5432654 C15.4390339,18.3028045 15.8883755,18.6597009 15.7852823,19.8271756 C15.7073431,20.7107211 15.209218,21.2715853 14.1596111,21.1804709 C13.3325788,21.1086379 12.9937623,20.9521177 12.6841016,20.8298126 L12.8817128,18.5895692 L6.87010237,18.067835 L6.32185997,24.2838441 C8.0445264,25.1010386 10.5212405,25.729199 13.9246501,26.0246593 C19.9680841,26.549229 23.3381456,24.6796815 23.8000641,19.441735 Z" id="Fill-9" fill="#F05A22" transform="translate(15.378722, 14.723611) rotate(52.000000) translate(-15.378722, -14.723611) "></path>
                        <polygon id="Fill-11" points="14.5280256 9.60779801 16.5637829 5.96775695 19.4311459 7.51708062 16.9445227 12.3359385"></polygon>
                        <path d="M29.4249561,43.4547235 L29.3894325,44.5468959 C29.6339215,44.5111685 29.7217699,44.4748739 29.9245262,44.5259132 C30.2008389,44.5956667 30.3201297,44.7423572 30.1892147,45.2542616 L29.1502791,49.3122571 L28.8922603,49.2474184 L28.2136745,51.8978658 L33.0232296,53.1095746 L33.7018154,50.4589381 L33.4437965,50.3940994 L34.6090737,45.8423468 C34.7937267,45.8109671 34.9551314,45.7933869 35.1394034,45.8397003 C35.415716,45.9094539 35.5351974,46.0561444 35.4040918,46.5680488 L34.3651563,50.6262333 L34.1071375,50.5612056 L33.4285517,53.211653 L38.5329038,54.4976521 L39.2114896,51.8472047 L38.6586737,51.7078866 L40.076634,46.1691868 C40.5025366,44.5056865 39.5426836,43.5049399 38.1790331,43.1612758 C36.6863731,42.785287 35.8225626,43.1709166 35.0180164,43.7854665 L34.9257851,43.7622153 C34.7912495,42.7554196 33.9960407,42.1075996 32.9641559,41.8474887 C31.4714959,41.4714998 30.6261698,41.8618553 29.8584017,42.4856679 L29.7661705,42.4624167 L29.4249561,43.4547235 Z" id="Fill-15" fill="#F9A31A" transform="translate(34.196187, 48.098850) rotate(-330.000000) translate(-34.196187, -48.098850) "></path>
                        <path d="M29.0290684,34.2194875 L29.1506459,34.1302634 L29.8551479,35.0746779 L35.0614499,31.253164 L32.8879174,28.3392031 L32.2396308,28.8150019 L26.6570484,21.2640024 L24.3240547,25.775601 L24.931752,25.3294804 C24.931752,25.3294804 26.1444839,25.4315872 26.3617334,26.0717007 C26.5789828,26.7118141 27.0996439,31.7170538 27.0996439,31.7170538 C27.0329477,31.9215887 26.9510067,32.106086 26.6674528,32.3144016 C26.2419313,32.626686 25.9757183,32.4798065 25.5561042,31.9172409 L20.1295144,24.6424518 L14.8016349,28.5533787 L17.1251384,31.668283 L17.7328357,31.2221625 L21.7652853,36.6279712 C23.1742892,38.5169892 24.7626105,39.2171716 27.0720126,37.5219136 C28.6115504,36.3918676 28.8851952,35.413616 29.0290684,34.2194875 Z" id="Fill-13" fill="#F5811F" transform="translate(24.931542, 29.873972) rotate(-225.000000) translate(-24.931542, -29.873972) "></path>
                        <path d="M50.633966,84.5773907 L51.4892504,81.7577577 C50.505653,81.7460376 49.4071636,81.6369649 47.868221,81.2335661 C46.2402117,80.806727 45.5154771,80.2587171 45.6830364,79.0715828 L52.5678116,78.9965363 C53.7000569,75.2644356 52.2971546,72.9047227 48.6395224,71.9457526 C44.7364484,70.9225109 41.9412179,72.5173917 40.9096302,75.9175485 L40.5635308,77.0578023 C39.5321465,80.4581481 40.7066883,83.0938509 45.6580245,84.3919482 C47.7990825,84.9533795 49.5273426,84.8915654 50.633966,84.5773907 Z M46.3264315,76.5544045 C46.6471124,75.4969476 47.1011899,75.1907123 47.6364035,75.3309756 C48.1494522,75.4655679 48.3037938,75.9088529 47.983113,76.9663098 L47.9578977,77.0492958 L46.3075201,76.6165967 L46.3264315,76.5544045 Z" id="Fill-20" fill="#F1674A" transform="translate(46.585016, 78.227066) rotate(63.000000) translate(-46.585016, -78.227066) "></path>
                    </g>
                </g>
                <g id="food" transform="translate(98.499258, 51.457628) rotate(-105.000000) translate(-98.499258, -51.457628) translate(79.999258, -1.042372)">
                    <g id="Group-13" transform="translate(0.000000, 18.685125)">
                        <path d="M6,18.9908875 L16.2814983,20.605428 L17.0589849,15.7387445 L15.6722766,15.5211662 L17.0930952,6.62711078 L18.4798036,6.84468905 L19.3108377,1.64265905 L17.9241293,1.42489174 L17.9670054,1.15627425 C18.0582839,0.585769272 18.3431718,0.320932467 18.9857416,0.421876688 L20.237152,0.618283141 L20.9395578,-3.7784615 C20.4252352,-4.03120012 19.1490519,-4.50680998 17.6272362,-4.74574911 C13.3320037,-5.42022285 10.8106985,-4.61210198 10.2155782,-0.886617505 L10.0438832,0.187474376 L9.02933941,0.0281186116 L8.19830531,5.23033765 L9.21284912,5.38950438 L7.79203043,14.2835598 L6.77748662,14.1243931 L6,18.9908875 Z" id="Fill-1" fill="#50B748" transform="translate(13.469779, 7.822070) rotate(-270.000000) translate(-13.469779, -7.822070) "></path>
                        <path d="M12.8853094,30.0105595 C17.100697,30.6736912 20.3522299,28.6239942 21.083982,24.0348128 L21.2263307,23.1425718 C21.9580828,18.5533904 19.5032831,15.6059704 15.2878955,14.9426496 C11.0725078,14.2795179 7.87242628,16.3373434 7.14067416,20.9265248 L6.99832551,21.8189549 C6.2665734,26.4081362 8.66992174,29.3474278 12.8853094,30.0105595 M13.5614178,25.9353619 C12.841671,25.8221305 12.7391495,25.3094699 12.9830669,23.7796168 L13.4017282,21.1535547 C13.6456455,19.6238906 13.9027116,19.1677513 14.6224584,19.2809827 C15.3422052,19.3942142 15.4449173,19.9068747 15.2009999,21.4367279 L14.7823386,24.0627899 C14.5384212,25.592454 14.2811646,26.0485933 13.5614178,25.9353619" id="Fill-3" fill="#009350" transform="translate(14.111325, 22.476773) rotate(-300.000000) translate(-14.111325, -22.476773) "></path>
                        <path d="M20.3020862,49.2836566 C25.1167864,47.0057955 27.002382,42.6090508 24.4806956,37.3650553 L23.9903836,36.3454052 C21.4685067,31.1014096 16.836935,29.7880005 12.0222348,32.0656727 C7.20772513,34.3435338 5.38063157,38.7124905 7.90250851,43.9564861 L8.39282054,44.9763251 C10.9145069,50.2203207 15.4873859,51.5615178 20.3020862,49.2836566 M18.08987,44.6084647 C17.2677922,44.9973079 16.7961551,44.5409796 15.955593,42.792981 L14.5126693,39.7922534 C13.6719166,38.0442549 13.6113184,37.3934104 14.4333961,37.0045672 C15.2552833,36.615724 15.7269204,37.0720524 16.5676731,38.8200509 L18.0105968,41.8207785 C18.8511589,43.5687771 18.9119477,44.2194325 18.08987,44.6084647" id="Fill-5" fill="#82C341" transform="translate(16.185112, 40.671520) rotate(-240.000000) translate(-16.185112, -40.671520) "></path>
                        <polygon id="Fill-7" points="18.1623299 44.1934838 20.1982777 40.5534427 23.0656407 42.1025774 20.5790175 46.9216242"></polygon>
                        <path d="M20.1629478,66.4954648 C21.7678479,66.8922475 22.732846,66.7877116 23.6279084,66.0773214 L23.7673986,66.1119146 L23.535296,67.0351573 L29.0478286,68.3982823 L29.889153,65.0514332 L29.1913206,64.878845 L32.5975886,51.3298243 L26.3176691,49.776909 L25.4182238,53.3545688 L26.2787948,53.5674212 L26.0699405,54.3984152 L25.9072019,54.358151 C25.5115984,53.8679855 24.7381136,53.4071203 23.505378,53.1022083 C20.9469135,52.4697001 18.4997362,53.7522966 17.4552744,57.9070776 L17.1360857,59.1764417 C16.0916239,63.3312227 16.6741672,65.6327131 20.1629478,66.4954648 M22.9813368,63.4412405 C22.3591569,63.2629814 22.2309098,62.5938006 22.5384743,61.3703717 L23.1360719,58.9930786 C23.4842258,57.6080256 23.8967892,57.2443239 24.5481248,57.405381 C24.9667861,57.5089717 25.0540628,57.7511244 25.14153,57.9934662 L23.7893131,63.3714869 C23.6324818,63.5041889 23.3767497,63.5391602 22.9813368,63.4412405" id="Fill-9" fill="#599F63" transform="translate(24.633334, 59.087596) rotate(-240.000000) translate(-24.633334, -59.087596) "></path>
                        <polygon id="Fill-11" points="10.087331 8.30062986 12.1232788 4.66058881 14.9906418 6.20972344 12.5040186 11.0287703"></polygon>
                    </g>
                    <polygon id="Fill-14" fill="#745511" points="6.25502704 0.0013988525 6.09438459 1.68777226 29.2451921 104.421579 30.2681205 104.194738 7.10778504 1.41915477 6.26169666 7.56136488e-05"></polygon>
                    <g id="Group-13" transform="translate(0.000000, 18.685125)">
                        <path d="M6,18.9908875 L16.2814983,20.605428 L17.0589849,15.7387445 L15.6722766,15.5211662 L17.0930952,6.62711078 L18.4798036,6.84468905 L19.3108377,1.64265905 L17.9241293,1.42489174 L17.9670054,1.15627425 C18.0582839,0.585769272 18.3431718,0.320932467 18.9857416,0.421876688 L20.237152,0.618283141 L20.9395578,-3.7784615 C20.4252352,-4.03120012 19.1490519,-4.50680998 17.6272362,-4.74574911 C13.3320037,-5.42022285 10.8106985,-4.61210198 10.2155782,-0.886617505 L10.0438832,0.187474376 L9.02933941,0.0281186116 L8.19830531,5.23033765 L9.21284912,5.38950438 C9.21284912,5.38950438 11.2067946,7.57418384 11.006382,8.82872861 C10.9460472,9.20641309 11.2261626,9.85461408 10.8148358,10.5712793 C10.403509,11.2879444 7.79203043,14.2835598 7.79203043,14.2835598 L6.77748662,14.1243931 L6,18.9908875 Z" id="Fill-1" fill="#50B748" transform="translate(13.469779, 7.822070) rotate(-270.000000) translate(-13.469779, -7.822070) "></path>
                        <polygon id="Fill-11" points="10.087331 8.30062986 12.1232788 4.66058881 14.9906418 6.20972344 12.5040186 11.0287703"></polygon>
                        <polygon id="Path-2" fill="#009350" points="16.1390865 22.6641016 15.0480368 23.0966248 16.4395218 29.2197918 17.5525682 28.7861696"></polygon>
                        <path d="M1,1.26709262 C1,1.26709262 1.86499927,0.930006011 1.60038318,2.84217094e-13 L5.16874678,6.79821758 L4.30378747,7.59558794 L1,1.26709262 Z" id="Rectangle" fill="#82C341"></path>
                        <path d="M19.3490954,41.9379139 C19.3490954,41.9379139 20.467377,41.4412752 20.2027609,40.5112692 L21.898518,48.3604356 L20.9112838,48.8623835 L19.3490954,41.9379139 Z" id="Rectangle" fill="#82C341"></path>
                    </g>
                </g>
                <g id="Special" transform="translate(174.000000, 46.000000) rotate(-90.000000) translate(-174.000000, -46.000000) translate(128.000000, -14.000000)">
                    <g id="Group-10" transform="translate(47.401385, 57.558629) rotate(-28.000000) translate(-47.401385, -57.558629) translate(26.401385, 4.058629)">
                        <path d="M29.1983714,25.7819008 C35.4611404,22.9505477 37.7922663,19.2630591 35.3877746,14.0292714 C33.6847359,10.3221232 30.969059,9.70625004 26.9625256,10.4202319 L25.3671536,10.7024599 C23.6452494,10.9981092 22.8690967,11.0417761 22.435,10.0967945 C22.1177169,9.40625289 22.3568702,8.77128727 23.1991474,8.39057255 C23.8218989,8.10910074 24.2548523,8.08887409 24.5612735,8.08206886 L25.128953,9.31778492 L30.8425269,6.73482268 L28.2711042,1.13752232 C26.3725505,1.33752042 23.8352382,2.26511086 21.1982627,3.45716004 C14.3127421,6.56998492 13.3143959,10.2695717 15.2678311,14.5220833 C16.954291,18.1929369 19.507801,19.8038857 23.8138954,18.7789427 L25.4490946,18.3908557 C26.7212761,18.0791384 27.4143445,18.3362248 27.7649757,19.0995446 C28.1824936,20.0082316 27.7068547,20.7059566 26.7912118,21.1199413 C26.2786042,21.3516971 25.7890544,21.4414883 25.5024515,21.395364 L24.8846545,20.0505753 L19.0247303,22.6996995 L21.6460798,28.4060725 C23.5511125,28.0276262 26.1951387,27.1395439 29.1983714,25.7819008" id="Fill-1" fill="#7CB2E0" transform="translate(25.350845, 14.771797) rotate(-75.000000) translate(-25.350845, -14.771797) "></path>
                        <path d="M14.7896323,37.9017222 L22.1189682,35.8510801 L21.1833164,32.559996 L20.0538646,32.876061 L19.7895573,31.9460132 C20.190687,31.9883568 21.0415394,31.8789061 21.5943553,31.7242761 C26.0639506,30.4736264 26.9189953,28.0976565 25.7055064,23.828888 L25.420809,22.8273852 C23.9292924,17.5809322 21.7812951,16.8690297 18.9937769,17.6489845 C17.7682827,17.9918923 16.7398279,18.8459485 16.3284079,19.862196 L16.2081643,19.895655 L15.9099372,18.8465156 L9.85430733,20.5408285 L10.9050576,24.2372017 L11.6259478,24.0355023 L14.5750613,34.4091278 L13.8541711,34.6108272 L14.7896323,37.9017222 Z M19.8084228,28.3623043 C19.3998612,28.4766699 19.0602825,28.4685415 18.8927798,28.3352724 L17.4216532,23.1604633 C17.5836296,22.9090479 17.90339,22.6651939 18.1196761,22.604703 C18.9127887,22.3827769 19.1210713,22.6591448 19.561647,24.2092246 L20.144762,26.2602448 C20.5786681,27.7863173 20.3610481,28.2076744 19.8084228,28.3623043 L19.8084228,28.3623043 Z" id="Fill-4" fill="#2383C5" transform="translate(18.030000, 27.642378) rotate(-225.000000) translate(-18.030000, -27.642378) "></path>
                        <path d="M19.3242539,48.4915012 C20.911813,49.0650307 22.2243934,49.1117222 23.0815343,48.9194745 L23.8999914,46.6877376 C23.1556623,46.623277 22.330345,46.473751 21.189269,46.0616566 C19.9820686,45.6255549 19.466412,45.1418166 19.6651666,44.191542 L24.3782981,45.8939833 L24.883855,44.5155465 C25.9671911,41.5616993 25.0473558,39.5753288 22.3352995,38.595754 C19.4412581,37.5502062 17.2277079,38.6834658 16.2407954,41.3747446 L15.9097919,42.2773825 C14.9226888,44.9686613 15.6529164,47.1652378 19.3242539,48.4915012 L19.3242539,48.4915012 Z M20.3046874,42.1923172 C20.6114898,41.3554631 20.9739357,41.133159 21.3708731,41.2766359 C21.7512318,41.4140637 21.8413669,41.7809789 21.534374,42.618022 L21.5103634,42.6836169 L20.2865842,42.2416551 L20.3046874,42.1923172 Z" id="Fill-6" fill="#81D4F6" transform="translate(20.418557, 43.615913) rotate(-259.000000) translate(-20.418557, -43.615913) "></path>
                        <path d="M18.3689355,66.6799621 C21.191898,65.9032209 22.8732128,64.8306413 23.967792,63.6142068 L22.7535408,59.2703917 C22.0431315,59.9064915 20.668619,60.4879604 19.1778646,60.8981645 C16.8307316,61.5439051 15.2151602,61.1408843 14.4584446,58.4339157 L13.7808117,56.0101202 C13.2177056,53.9955835 14.1958523,53.2180862 14.8302281,53.0434187 C15.2426009,52.9299982 15.6408722,52.8882216 15.8257158,52.9390718 L16.3185051,54.701815 L21.1080514,53.3840581 L19.3657572,47.1516031 C18.3174842,47.0671049 15.262038,47.5009382 12.8514484,48.1642589 C7.80826618,49.5517694 4.85381703,53.2797113 6.52560382,59.2603729 L7.00962736,60.9917364 C8.29438588,65.5873449 12.4059181,68.3205893 18.3689355,66.6799621" id="Fill-8" fill="#3AB0E4" transform="translate(15.012044, 57.150345) rotate(-270.000000) translate(-15.012044, -57.150345) "></path>
                        <path d="M10.2636104,73.5288951 L16.0048155,75.5186683 L16.9707664,72.7738929 L16.3220986,72.5493203 L19.1197165,64.5993013 L14.0269886,62.8342897 L12.9945321,65.7682883 L13.6430093,65.9928608 L11.8778479,71.0090703 L11.2293707,70.7843087 L10.2636104,73.5288951 Z M14.6990953,62.7486572 L19.1814581,64.3021396 L20.1939058,61.4250403 L15.711543,59.8715579 L14.6990953,62.7486572 Z" id="Fill-11" fill="#6ABEEB" transform="translate(15.228758, 67.695113) rotate(-283.000000) translate(-15.228758, -67.695113) "></path>
                        <path d="M10.4941435,91.1242762 C12.426617,90.6282507 13.7235714,89.6430049 13.9631059,88.0396174 L14.1031678,88.003701 C14.7299211,89.1475464 15.8568956,89.6885621 18.2934014,89.0632372 C19.8897263,88.6534112 20.57441,88.2997284 21.1607645,87.9120194 L20.1540336,84.0489181 L19.7618602,84.1496733 C19.4259022,84.2358728 19.2776461,84.1256659 19.1907506,83.7922098 L17.4671313,77.1775278 C16.5472961,73.6478826 14.0494297,72.7768134 9.90454948,73.8406974 C6.96382068,74.5955107 5.09232654,75.6688464 3.60557394,76.613828 L4.70625107,80.8383626 C5.74156598,80.4538672 6.7280974,80.1117154 8.15634795,79.7451782 C10.3969577,79.1701364 11.0574402,79.2971674 11.2457139,80.0196558 L11.3543334,80.4366651 L8.69773017,81.5929868 C6.20176945,82.6782317 4.21460512,84.2260431 4.98237316,87.1721399 L5.17788818,87.9224163 C6.01082789,91.1186052 7.91757571,91.7855176 10.4941435,91.1242762 M12.4300471,86.7430324 C12.0938984,86.829421 11.5807192,86.6942616 11.4286519,86.1105242 L11.1752065,85.1377546 C10.9290024,84.1929621 11.3045971,83.7999602 11.9061964,83.5861626 L12.1510666,83.4937249 L12.9041615,86.3842456 C12.828509,86.5519189 12.6821585,86.6783827 12.4300471,86.7430324" id="Fill-12" fill="#0088BE" transform="translate(12.383169, 82.385595) rotate(-270.000000) translate(-12.383169, -82.385595) "></path>
                        <polygon id="Fill-14" fill="#78BDDE" transform="translate(11.491959, 96.633137) rotate(-244.000000) translate(-11.491959, -96.633137) " points="5.37935153 89.5586294 6.49146229 92.7603004 7.20358668 92.5172025 10.5934664 102.276467 9.88096094 102.519754 10.9930717 105.721236 17.6045664 103.464358 16.4924556 100.262687 15.7803312 100.505974 11.2785313 87.545038"></polygon>
                    </g>
                    <polygon id="Fill-22" fill="#745511" transform="translate(45.401385, 60.558629) rotate(147.000000) translate(-45.401385, -60.558629) " points="59.1064919 -0.616593487 58.2424908 0.844262208 31.5274408 121.510602 32.5509409 121.733852 59.2753284 1.02573497 59.1131615 -0.615270248"></polygon>
                    <g id="Group-10" transform="translate(47.429382, 58.676312) rotate(-28.000000) translate(-47.429382, -58.676312) translate(26.929382, 6.176312)">
                        <path d="M33.3219675,14.1879836 C31.6189288,10.4808354 30.1385693,13.0758833 26.132036,13.7898652 L26.1483445,9.72052764 C24.4264403,10.016177 23.6502876,10.0598439 23.2161909,9.11486232 C22.8989077,8.42432067 23.1380611,7.78935505 23.9803383,7.40864033 C24.6030898,7.12716852 25.0360431,7.10694187 25.3424643,7.10013664 L25.9101439,8.3358527 L31.6237178,5.75289046 L29.0522951,0.155590104 C27.1537414,0.355588205 24.616429,1.28317864 21.9794536,2.47522781 C15.093933,5.5880527 14.0955868,9.2876395 16.049022,13.5401511 C17.7354819,17.2110047 20.2889919,18.8219535 24.5950863,17.7970105 L26.2302855,17.4089235 C27.502467,17.0972062 28.1955353,17.3542926 28.5461666,18.1176124 C28.9636845,19.0262994 28.4880456,19.7240243 27.5724027,20.1380091 C27.0597951,20.3697649 26.5702453,20.4595561 26.2836424,20.4134318 L25.6658454,19.068643 L19.8059211,21.7177672 L22.4272706,27.4241403 C24.3323034,27.045694 26.9763296,26.1576117 29.9795622,24.7999686 C36.2423313,21.9686155 35.7264592,19.4217713 33.3219675,14.1879836 Z" id="Fill-1" fill="#7CB2E0" transform="translate(25.078055, 13.789865) rotate(-75.000000) translate(-25.078055, -13.789865) "></path>
                        <path d="M23.9919014,35.3249335 L23.7072041,34.3234307 C22.2156875,29.0769777 20.0676902,28.3650752 17.280172,29.14503 C16.9031818,29.2505164 14.9614442,34.5291732 16.4992986,34.0590039 C17.1294413,33.86635 17.2758004,33.8216035 17.7519015,35.37886 C18.2280026,36.9361164 24.503698,37.1253133 23.9919014,35.3249335 Z" id="Fill-4" fill="#2383C5" transform="translate(19.968320, 32.745300) rotate(-225.000000) translate(-19.968320, -32.745300) "></path>
                        <path d="M21.0843403,44.1490971 L25.7974718,45.8515384 L26.3030287,44.4731016 C27.3863648,41.5192544 26.4665295,39.5328839 23.7544733,38.5533091 C20.8604318,37.5077613 18.6468816,38.6410209 17.6599691,41.3322997 L17.3289656,42.2349376 C16.3418625,44.9262164 19.1234128,43.5495814 21.0843403,44.1490971 Z M21.7238611,42.1498723 C22.0306635,41.3130182 22.3931094,41.0907141 22.7900468,41.234191 C23.1704055,41.3716188 23.2605406,41.738534 22.9535477,42.5755771 L22.9295371,42.6411719 L21.7057579,42.1992102 L21.7238611,42.1498723 Z" id="Fill-6" fill="#81D4F6" transform="translate(21.934986, 42.009752) rotate(-259.000000) translate(-21.934986, -42.009752) "></path>
                        <path d="M23.7435047,61.8384941 L22.5292535,57.494679 C21.8188442,58.1307788 20.4443317,58.7122478 18.9535773,59.1224518 C16.6064443,59.7681924 14.9908728,59.3651717 14.2341573,56.658203 L13.5565243,54.2344075 C12.9934182,52.2198709 13.971565,51.4423735 14.6059407,51.267706 C15.0183135,51.1542855 15.4165848,51.112509 15.6014285,51.1633592 L16.0942178,52.9261024 L20.883764,51.6083455 L19.1414699,45.3758905 C18.0931969,45.2913922 15.0377507,45.7252255 12.627161,46.3885463 C8.6097263,47.493847 10.0826923,48.7970203 9.99894724,52.8283769 C9.91520217,56.8597335 5.9612869,56.2682361 6.30131647,57.4846602 L6.78534,59.2160237 C8.07009853,63.8116323 12.1816307,66.5448766 18.1446482,64.9042495 C20.9676106,64.1275083 22.6489255,63.0549287 23.7435047,61.8384941 Z" id="Fill-8" fill="#3AB0E4" transform="translate(15.012044, 55.374632) rotate(-270.000000) translate(-15.012044, -55.374632) "></path>
                        <path d="M10.2636104,71.5288951 L16.0048155,73.5186683 L16.9707664,70.7738929 L16.3220986,70.5493203 L19.1197165,62.5993013 L14.0269886,60.8342897 L15.6139457,63.7404321 L14.8633227,65.5571747 L11.8778479,69.0090703 L11.2293707,68.7843087 L10.2636104,71.5288951 Z M14.6990953,60.7486572 L19.1814581,62.3021396 L20.1939058,59.4250403 L15.711543,57.8715579 L14.6990953,60.7486572 Z" id="Fill-11" fill="#6ABEEB" transform="translate(15.228758, 65.695113) rotate(-283.000000) translate(-15.228758, -65.695113) "></path>
                        <path d="M13.9631059,86.0396174 L14.1031678,86.003701 C14.7299211,87.1475464 15.8568956,87.6885621 18.2934014,87.0632372 C19.8897263,86.6534112 20.57441,86.2997284 21.1607645,85.9120194 L20.1540336,82.0489181 L19.7618602,82.1496733 C19.4259022,82.2358728 19.2776461,82.1256659 19.1907506,81.7922098 L17.4671313,75.1775278 C16.5472961,71.6478826 14.0494297,70.7768134 9.90454948,71.8406974 C6.96382068,72.5955107 5.09232654,73.6688464 3.60557394,74.613828 C3.60557394,74.613828 11.0574402,77.2971674 11.2457139,78.0196558 L11.3543334,78.4366651 L8.69773017,79.5929868 C6.20176945,80.6782317 4.21460512,82.2260431 4.98237316,85.1721399 L5.17788818,85.9224163 C6.01082789,89.1186052 7.91757571,89.7855176 10.4941435,89.1242762 C12.426617,88.6282507 13.7235714,87.6430049 13.9631059,86.0396174 Z M11.4286519,84.1105242 L11.1752065,83.1377546 C10.9290024,82.1929621 11.3045971,81.7999602 11.9061964,81.5861626 L12.1510666,81.4937249 L12.9041615,84.3842456 C12.828509,84.5519189 12.6821585,84.6783827 12.4300471,84.7430324 C12.0938984,84.829421 11.5807192,84.6942616 11.4286519,84.1105242 Z" id="Fill-12" fill="#0088BE" transform="translate(12.383169, 80.385595) rotate(-270.000000) translate(-12.383169, -80.385595) "></path>
                        <path d="M5.37935153,87.5586294 L6.49146229,90.7603004 L7.20358668,90.5172025 C7.20358668,90.5172025 9.73121739,91.9521707 10.0350067,92.8267624 C10.126048,93.0888647 10.7049182,93.9332646 10.7816041,94.8889094 C10.85829,95.8445541 10.5934664,100.276467 10.5934664,100.276467 L9.88096094,100.519754 L10.9930717,103.721236 L17.6045664,101.464358 L16.4924556,98.2626866 L15.7803312,98.5059735 L11.2785313,85.545038 L5.37935153,87.5586294 Z" id="Fill-14" fill="#78BDDE" transform="translate(11.491959, 94.633137) rotate(-244.000000) translate(-11.491959, -94.633137) "></path>
                    </g>
                </g>
            </g>
        </g>
    </g>
</svg>