<?xml version="1.0" encoding="UTF-8" standalone="no"?>
<svg width="176px" height="278px" viewBox="0 0 176 278" version="1.1" xmlns="http://www.w3.org/2000/svg" xmlns:xlink="http://www.w3.org/1999/xlink">
    <!-- Generator: Sketch 43.2 (39069) - http://www.bohemiancoding.com/sketch -->
    <title>Summer food special</title>
    <desc>Created with Sketch.</desc>
    <defs>
        <polygon id="path-1" points="1.95527115 0.321802817 4.29619523 10.7671056 2.36324946 11.1980915 0.0226854664 0.752788732"></polygon>
    </defs>
    <g id="Page-1" stroke="none" stroke-width="1" fill="none" fill-rule="evenodd">
        <g id="Artboard" transform="translate(-121.000000, -175.000000)">
            <g id="Summer-food-special" transform="translate(121.000000, 175.000000)">
                <g id="Summer" transform="translate(0.000000, 40.598592)">
                    <g id="Group-17" transform="translate(11.000000, 36.086014)">
                        <path d="M60.8697154,177.64083 L76.1759236,173.621527 L74.2663835,166.387428 L72.2153293,166.925801 L69.5157588,156.698146 C70.861043,155.918421 74.3466829,154.736083 75.9472685,154.315872 L73.2606612,144.138139 C70.3860885,144.999752 68.1247436,146.767154 67.4614638,149.928794 L67.2115636,149.99452 L66.184236,146.103076 L53.2290343,149.504992 L55.2703662,157.238315 L57.0711601,156.765308 L60.560761,169.98652 L58.9601753,170.406731 L60.8697154,177.64083 Z" id="Fill-1" fill="#DC4E1F"></path>
                        <polygon id="Fill-3" points="61.3670672 161.200225 65.2138742 154.284338 70.6320998 157.227613 65.9333275 166.383549"></polygon>
                        <path d="M36.4640785,139.407638 L49.7728855,131.193406 L45.4925341,124.294399 L44.8245731,124.706708 L37.5040091,112.907392 C37.9289115,112.316223 38.0311761,112.055835 38.5558226,111.731877 C39.271315,111.290117 39.8301696,111.340039 40.6565688,112.672145 L47.2097879,123.234532 L46.5418269,123.646842 L50.8221783,130.54549 L63.2721783,122.861011 L58.992187,115.962363 L58.324226,116.374673 L50.9741349,104.527589 C51.2852499,104.072539 51.5783605,103.69399 52.0554755,103.399842 C52.7709679,102.958082 53.3298226,103.008004 54.1562217,104.34011 L60.7094408,114.902497 L60.0414798,115.314807 L64.3214711,122.213455 L77.5348551,114.058124 L73.2548638,107.159117 L71.823879,108.042638 L62.8796837,93.6265183 C60.1934364,89.2969056 56.0848464,89.2667366 52.5549158,91.4453704 C48.6911848,93.8301592 47.745597,96.4534268 47.4114364,99.4232789 L47.1726989,99.5705324 C44.7428334,97.7805042 41.7267466,98.1288845 39.0552629,99.7774056 C35.1915319,102.162194 34.2938356,104.756011 34.055098,107.666962 L33.8163605,107.814215 L32.0454538,104.959652 L19.7862998,112.525969 L24.3615623,119.900856 L25.8879701,118.958434 L33.710495,131.566568 L32.1837271,132.50899 L36.4640785,139.407638 Z" id="Fill-5" fill="#D3672A"></path>
                        <polygon id="Fill-7" points="41.3552451 109.948817 45.2020521 103.03293 50.6202777 105.976563 45.9215054 115.132141"></polygon>
                        <path d="M14.3676061,43.157493 C25.7873978,44.1541479 32.1555323,40.6021056 33.0283826,30.6502817 L33.2073458,28.6120775 C33.7593588,22.3175282 30.3399748,19.1799507 23.4529553,16.2230282 L21.5272113,15.390507 C17.6159488,13.7204366 16.5655757,13.2661056 16.728695,11.407838 L16.7337362,11.3478592 C16.8601267,9.90908451 17.7805085,9.08338732 19.7037319,9.25111268 C20.6053892,9.32976761 21.5563783,9.53340845 22.3662134,9.9665493 L22.1033501,12.9640563 L33.282964,13.9395211 L34.229272,3.14871127 C31.4285171,1.938 27.584951,0.877774648 20.6727254,0.274394366 C9.07253015,-0.737704225 3.29745857,3.65116901 2.63994013,11.1449366 L2.49806594,12.7636479 C1.78833492,20.8564859 5.0301961,23.2538451 11.9175757,26.2107676 L13.8429597,27.0432887 C17.2292156,28.4863732 18.0783002,29.1644577 17.8834933,31.3825986 L17.8784521,31.4425775 C17.7362178,33.0612887 16.794951,34.1269014 14.8115931,33.9537887 C13.2488165,33.8173099 12.6085822,33.5199296 12.0234412,33.2875563 L12.3968512,29.0312113 L1.03719393,28.0399437 L0.00122429501,39.8500352 C3.25640868,41.402662 7.9364564,42.5961338 14.3676061,43.157493" id="Fill-9" fill="#F05A22"></path>
                        <polygon id="Fill-11" points="4.38333623 15.2217042 8.23014317 8.3058169 13.6483688 11.2494507 8.94959653 20.4050282"></polygon>
                        <path d="M28.6808751,69.6993655 C31.5900161,67.5523373 32.1071007,65.6937106 32.3789662,63.4249289 L32.6087015,63.2554077 L33.9399423,65.0497458 L43.7778729,57.7890697 L39.6707232,52.2526965 L38.445708,53.1566894 L26.5488013,37.1204218 L16.4811354,44.5509782 L20.8716733,50.4691331 L22.01999,49.6215275 L28.7330876,58.6704359 C28.6070573,59.0590415 28.45222,59.4095768 27.9164108,59.8053655 C27.1123371,60.3986894 26.6092959,60.1196261 25.8163848,59.050781 L15.5621939,45.2290627 L5.49452798,52.659619 L9.88506594,58.5777739 L11.0333826,57.7301683 L18.6531787,68.0009218 C21.3156603,71.589957 24.3169835,72.9202669 28.6808751,69.6993655" id="Fill-13" fill="#F5811F"></path>
                        <path d="M21.679672,87.5462408 L31.3944529,90.0071704 L32.6767219,84.9711 L32.1895245,84.8479099 L34.3824529,76.2346563 C34.8444443,76.1667761 35.0104443,76.0978183 35.3935766,76.1947901 C35.9157024,76.3273183 36.1411167,76.6060225 35.8937371,77.5786141 L33.930544,85.288593 L33.4429866,85.1654028 L32.1607176,90.2011141 L41.2489475,92.5032972 L42.5312165,87.4672268 L42.043659,87.3440366 L44.2455896,78.6959451 C44.5945137,78.6363254 44.8995072,78.6029239 45.2477111,78.6909169 C45.7698369,78.8234451 45.9956113,79.1021493 45.7478716,80.0747408 L43.7846785,87.7850789 L43.297121,87.6615296 L42.0148521,92.6972408 L51.6601362,95.1405718 L52.9424052,90.1048606 L51.8977935,89.8401634 L54.5771991,79.3169239 C55.3819931,76.1563606 53.568236,74.2549944 50.9914551,73.6020507 C48.1708954,72.8876915 46.5386221,73.6203676 45.0183358,74.7879803 L44.8440538,74.7438042 C44.5898325,72.8309451 43.0871905,71.6001211 41.1373206,71.1059239 C38.316761,70.3915648 36.7194161,71.1332197 35.2686265,72.318431 L35.0943445,72.2742549 L35.6251124,70.190438 L26.676236,67.9234521 L25.3053857,73.3068254 L26.4198542,73.5891211 L24.0760495,82.7924662 L22.961941,82.5101704 L21.679672,87.5462408 Z" id="Fill-15" fill="#F9A31A"></path>
                    </g>
                    <polygon id="Fill-18" fill="#745511" points="25.1204065 67.4240056 30.0762807 80.1679 31.8749141 79.3303507 27.0263458 66.8626465"></polygon>
                    <polygon id="Fill-19" fill="#745511" points="54.2260759 142.268696 62.712961 164.092387 64.5530043 163.361506 56.4193644 142.446837"></polygon>
                    <path d="M64.5707926,184.561021 C68.3621462,185.627711 71.4225236,185.510268 73.3821158,184.913352 L74.8966408,179.556197 C73.1549011,179.53393 71.2097124,179.326697 68.4845757,178.560261 C65.601721,177.749289 64.3183718,176.708099 64.6150833,174.452606 L75.8710356,177.618915 L76.806541,174.310021 C78.8115041,167.219225 76.3272655,162.735894 69.8503848,160.913901 C62.9388794,158.969796 57.9891267,161.999986 56.1624065,168.460106 L55.5495388,170.626528 C53.7231787,177.087007 55.8030399,182.094704 64.5707926,184.561021 L64.5707926,184.561021 Z M65.7543978,169.670099 C66.3222547,167.660986 67.1263284,167.079155 68.0740768,167.345648 C68.9825757,167.601366 69.2558816,168.443585 68.6880247,170.452697 L68.643374,170.610366 L65.7209098,169.788261 L65.7543978,169.670099 Z" id="Fill-20" fill="#F1674A"></path>
                    <polygon id="Fill-22" fill="#745511" points="0.0119908894 0.358939437 0.00010802603 0.363608451 0.18015141 3.57660845 91.0419258 237.227003 92.8884508 236.512644 1.99714924 2.78646761"></polygon>
                    <g id="Group-58" transform="translate(13.160521, 46.860662)">
                        <polygon id="Fill-26" points="58.3524208 134.387155 61.2338351 141.797599 59.3876703 142.511599 56.5058959 135.101155"></polygon>
                        <path d="M68.2055111,149.144508 L67.3553462,145.923606 C68.7006304,145.143522 72.1862703,143.961543 73.786856,143.541332 L71.1002486,133.363599 C68.2253158,134.225212 65.9639709,135.992613 65.3010512,139.154254 L65.0507909,139.21998 L64.0238234,135.328536 L51.0686217,138.730451 L53.1095935,146.463416 L54.9103874,145.990768 L57.36978,152.671409 L68.2055111,149.144508 Z" id="Fill-28" fill="#DC4E1F"></path>
                        <polygon id="Fill-30" points="12.8190889 22.7873028 9.93767462 15.3768592 11.7838395 14.6628592 14.6656139 22.0733028"></polygon>
                        <polygon id="Fill-32" points="17.0140998 28.1491268 19.8958742 35.5595704 18.0493492 36.2735704 15.1679349 28.8631268"></polygon>
                        <path d="M30.867862,19.8758134 L31.0468252,17.8376092 C31.5988382,11.5430599 28.1794542,8.40548239 21.2924347,5.44855986 L19.3666907,4.61603873 C15.4554282,2.94560915 14.4050551,2.49163732 14.5681744,0.633010563 L14.5732156,0.57303169 C14.6996061,-0.865742958 0.210434707,4.5700669 0.31594013,5.64537676 C0.831944469,10.9109472 4.03743688,12.980757 9.7570551,15.4359401 L11.682439,16.2684613 C15.068695,17.7119049 15.9177796,18.3899894 15.7229727,20.6081303 L15.7179315,20.6681092 C15.5756972,22.2868204 29.9950117,29.8272782 30.867862,19.8758134" id="Fill-34" fill="#F05A22"></path>
                        <polygon id="Fill-36" points="21.8932755 46.1054366 19.0118612 38.694993 20.858026 37.980993 23.7398004 45.3914366"></polygon>
                        <path d="M30.4480369,52.480688 L31.7792777,54.2753852 L41.6175683,47.01435 L37.5100586,41.4779768 L36.2850434,42.3819697 L24.3881367,26.3457021 L14.3204707,33.7762585 L18.7110087,39.6944134 L19.8593254,38.8468077 L26.5727831,47.8957162 C26.4463926,48.284681 26.2915553,48.634857 25.7557462,49.0306458 C24.9520325,49.6239697 30.4480369,52.480688 30.4480369,52.480688" id="Fill-38" fill="#F5811F"></path>
                        <polygon id="Fill-40" points="32.5738091 73.5908451 29.3913623 65.4075 31.2375271 64.6935 34.419974 72.8768451"></polygon>
                        <polygon id="Fill-42" points="27.1685466 54.2061761 29.7384859 60.8142676 27.891961 61.5282676 25.3223818 54.9201761"></polygon>
                        <path d="M19.5191514,76.771593 L29.2339323,79.2325225 L30.5162013,74.1964521 L30.0290039,74.073262 L32.2219323,65.4600085 C32.6839236,65.3921282 32.8499236,65.3231704 33.233056,65.4201423 C33.7551818,65.5526704 33.9805961,65.8313746 33.7332165,66.8039662 L42.085069,67.9212972 C42.4339931,67.8616775 42.7389866,67.8282761 43.0871905,67.916269 C43.6093163,68.0487972 43.8350907,68.3275014 43.587351,69.300093 L41.6241579,77.010431 L41.1366004,76.8868817 L39.8543315,81.922593 L50.7818846,79.3302127 L49.7372729,79.0655155 L52.4166785,68.5422761 C53.2214725,65.3817127 51.4077154,63.4803465 48.8309345,62.8274028 C46.0103748,62.1130437 44.3781015,62.8457197 42.8578152,64.0133324 L42.6835332,63.9691563 C42.4293119,62.0562972 40.9266698,60.8254732 38.9768,60.3312761 C36.1562403,59.6169169 34.5588954,60.3585718 33.1081059,61.5437831 L32.9338239,61.499607 L33.4645918,59.4157901 L24.5157154,57.1488042 L23.1448651,62.5321775 L24.2593336,62.8144732 L21.9155289,72.0178183 L20.8014204,71.7355225 L19.5191514,76.771593 Z" id="Fill-44" fill="#F9A31A"></path>
                        <polygon id="Fill-46" points="55.3723427 132.185894 52.4909284 124.775451 54.3370933 124.061451 57.2188677 131.471894"></polygon>
                        <polygon id="Fill-48" points="48.9718004 110.297197 51.8535748 117.707282 50.0070499 118.421641 47.1256356 111.011197"></polygon>
                        <polygon id="Fill-50" points="53.2298265 121.215148 55.0608677 125.922951 53.2143427 126.63731 51.3836616 121.929148"></polygon>
                        <polygon id="Fill-52" points="38.3676052 83.028 41.2490195 90.4384437 39.4028547 91.1524437 36.5210803 83.742"></polygon>
                        <path d="M51.4546347,127.591872 L62.710587,130.758182 L63.6460924,127.449287 C65.6510555,120.358851 63.1668169,115.875161 56.6899362,114.053168 C49.7784308,112.109062 44.8286781,115.139252 43.0019579,121.599372 L42.3890902,123.766154 C40.5623701,130.226273 51.1579232,129.847365 51.4546347,127.591872 L51.4546347,127.591872 Z M52.5939492,122.809365 C53.1618061,120.800252 53.9658798,120.218421 54.9136282,120.485273 C55.8221271,120.740632 56.095433,121.58321 55.5275761,123.591963 L55.4829254,123.749632 L52.5604612,122.927527 L52.5939492,122.809365 Z" id="Fill-54" fill="#F1674A"></path>
                        <path d="M50.5899584,96.6161599 L48.8136503,93.7529768 C49.1247653,93.2975683 49.4178759,92.9193782 49.8949909,92.6252303 C50.6104833,92.1834697 51.1689779,92.2333923 51.9957371,93.5654979 L58.5485961,104.127885 L57.8809952,104.539836 L62.1609866,111.438843 L75.3743705,103.283512 L71.0943792,96.3845049 L69.6630343,97.2676669 L60.7191991,82.8515472 C58.0329518,78.5222937 53.9243618,78.4921246 50.3944312,80.6707585 C46.5303401,83.0555472 45.5851124,85.6788148 45.2509518,88.6486669 L45.0122143,88.7959204 C42.5823488,87.0055331 39.566262,87.3539134 36.8947783,89.0027937 C33.0310473,91.3875824 32.133351,93.9813993 31.8946134,96.89235 L39.7257805,100.949723 L50.5899584,96.6161599 Z" id="Fill-56" fill="#D3672A"></path>
                    </g>
                </g>
                <g id="food" transform="translate(57.091106, 0.000000)">
                    <g id="Group-13" transform="translate(0.000000, 26.001021)">
                        <path d="M0,45.5814296 L19.4281215,48.6489718 L20.8972755,39.4025282 L18.2769241,38.9891408 L20.961731,22.0909014 L23.5820824,22.5042887 L25.1524208,12.6207042 L22.5320694,12.2069577 L22.6130889,11.6965986 C22.7855705,10.612669 23.3239002,10.109493 24.5381128,10.3012817 L26.9028026,10.6744437 L28.2300824,2.32085915 C27.2582082,1.84066901 24.8467072,0.937035211 21.9710542,0.48306338 C13.8546985,-0.798401408 9.09039046,0.736985915 7.96583948,7.81521127 L7.6414013,9.85592958 L5.72429935,9.55316197 L4.15396095,19.4371056 L6.07106291,19.7395141 L3.38625597,36.6377535 L1.46915401,36.3353451 L0,45.5814296 Z" id="Fill-1" fill="#50B748"></path>
                        <path d="M16.5300351,75.3342908 C24.4955145,76.5942063 30.6396751,72.6998894 32.0224082,63.9806852 L32.2913931,62.2854739 C33.6741262,53.5662697 29.0354885,47.9663261 21.0700091,46.7060514 C13.1045297,45.4461359 7.05759262,49.3558965 5.67485944,58.0751007 L5.40587462,59.7706711 C4.02314143,68.4898754 8.56455575,74.0743754 16.5300351,75.3342908 M17.807623,67.5916289 C16.4475753,67.3764951 16.2538486,66.4024669 16.7147597,63.4958261 L17.5058703,58.5064458 C17.9667813,55.6001641 18.4525384,54.7335232 19.8125861,54.948657 C21.1726338,55.1637908 21.3667206,56.137819 20.9058095,59.0444599 L20.1146989,64.0338401 C19.6537879,66.9401218 19.1676707,67.8067627 17.807623,67.5916289" id="Fill-3" fill="#009350"></path>
                        <path d="M42.1164325,105.234837 C51.2143848,100.90702 54.7774434,92.5534352 50.0124152,82.5901183 L49.0859119,80.6528366 C44.3205236,70.6895197 35.5686148,68.1941113 26.4706625,72.521569 C17.3730703,76.8493859 13.9205584,85.1501746 18.6859466,95.1134915 L19.6124499,97.0511324 C24.3774781,107.014449 33.0184803,109.562654 42.1164325,105.234837 M37.9361852,96.3522169 C36.3827709,97.0909986 35.4915562,96.2239986 33.9032134,92.902893 L31.1766364,87.2016676 C29.5879336,83.880562 29.473426,82.6439915 31.0268403,81.9052099 C32.5798946,81.1664282 33.4711093,82.0334282 35.0598121,85.3545338 L37.7863892,91.0557592 C39.3747319,94.3768648 39.4895996,95.6130761 37.9361852,96.3522169" id="Fill-5" fill="#82C341"></path>
                        <polygon id="Fill-7" points="22.9821779 93.4650423 26.8293449 86.5491549 32.2475705 89.4924296 27.5487983 98.6483662"></polygon>
                        <path d="M26.7625848,135.837638 C29.7952356,136.591504 31.618715,136.392892 33.3100425,135.043187 L33.573626,135.108913 L33.1350403,136.863025 L43.5516304,139.452892 L45.1414134,133.094054 L43.8227757,132.766145 L50.2593267,107.023715 L38.3926672,104.073258 L36.6930577,110.870624 L38.3192095,111.275032 L37.9245544,112.853877 L37.6170403,112.777377 C36.8695002,111.846089 35.407908,110.970469 33.0785067,110.391152 C28.2439818,109.18942 23.6197475,111.626286 21.6461119,119.520152 L21.0429666,121.931877 C19.069331,129.825744 20.1701163,134.198455 26.7625848,135.837638 M32.0882681,130.034772 C30.9125848,129.696089 30.6702464,128.42468 31.2514265,126.10023 L32.3806586,121.583497 C33.0385371,118.951969 33.8181249,118.260955 35.0489015,118.566955 C35.8400121,118.763772 36.0049319,119.223849 36.1702117,119.684286 L33.615036,129.902244 C33.3186846,130.15437 32.8354482,130.220814 32.0882681,130.034772" id="Fill-9" fill="#599F63"></path>
                        <polygon id="Fill-11" points="7.72350108 25.2705 11.5706681 18.3546127 16.9888937 21.2978873 12.2901215 30.4538239"></polygon>
                    </g>
                    <polygon id="Fill-14" fill="#745511" points="0.481904121 0.00265774648 0.178350976 3.20667887 43.9245722 198.395531 45.857518 197.964545 2.09329241 2.69631972 0.494507158 0.000143661972"></polygon>
                    <g id="Group-36" transform="translate(3.960954, 26.001021)">
                        <g id="Group-17" transform="translate(2.160521, 3.232394)">
                            <mask id="mask-2" fill="white">
                                <use xlink:href="#path-1"></use>
                            </mask>
                            <g id="Clip-16"></g>
                            <polygon id="Fill-15" mask="url(#mask-2)" points="1.95527115 0.321802817 4.29619523 10.7671056 2.36324946 11.1980915 0.0226854664 0.752788732"></polygon>
                        </g>
                        <polygon id="Fill-18" points="27.3547115 106.957775 29.6956356 117.403077 27.7630499 117.834063 25.4221258 107.388761"></polygon>
                        <polygon id="Fill-20" points="19.0727158 70.0725634 21.4136399 80.5178662 19.4810542 80.9488521 17.1401302 70.5035493"></polygon>
                        <polygon id="Fill-22" points="12.9872495 42.9563662 15.3281735 53.401669 13.3955879 53.8326549 11.0546638 43.3873521"></polygon>
                        <path d="M48.1116612,92.3432577 C48.3619215,89.3572437 47.7170061,86.0727718 46.0512447,82.5900465 L45.1247414,80.6527648 C40.3597132,70.6894479 31.6074443,68.1940394 22.5098521,72.5218563 C14.2692664,76.4416732 10.6608369,83.6211803 13.5948239,92.3432577 L19.0897479,94.4055254 L29.6744985,92.3432577 L27.2154659,87.2015958 C25.6271232,83.8804901 25.5126156,82.6442789 27.0656698,81.905138 C28.6190842,81.1663563 29.5102989,82.0333563 31.0986416,85.354462 L33.8255787,91.0556873 C34.050633,91.5268986 34.2429193,91.9514197 34.4081991,92.3432577 L48.1116612,92.3432577 Z" id="Fill-24" fill="#82C341"></path>
                        <path d="M16.7654239,23.5724873 L17.0009206,22.0906141 L19.6209119,22.5043606 L21.1916104,12.6204169 L18.571259,12.2070296 L18.6522785,11.6966704 C18.8244,10.6127408 19.3630898,10.1095648 20.5773024,10.3009944 L22.9419922,10.6745155 L24.269272,2.32093099 C23.2973978,1.84074085 20.8858967,0.937107042 18.0098837,0.483135211 C9.89352798,-0.798329577 5.12921996,0.737057746 4.00466898,7.8152831 L3.68059089,9.85600141 L1.76348894,9.5532338 L0.192790456,19.4371775 L2.11025249,19.7395859 L0.868673319,27.5547972 L16.7654239,23.5724873 Z" id="Fill-26" fill="#50B748"></path>
                        <polygon id="Fill-28" points="14.8186508 60.1228944 13.0801518 52.3662254 15.0130976 51.9352394 16.7512364 59.6919085"></polygon>
                        <path d="M28.3302946,62.2854021 C29.7130278,53.5661979 25.07439,47.9662542 17.1089106,46.7063387 C9.14343124,45.4464232 3.09649414,49.3558246 1.71376095,58.0750289 L1.44513623,59.7705993 C1.23988677,61.0628387 1.17435098,62.2807331 1.22152234,63.4314655 L12.7637436,63.4314655 L13.5447718,58.5067331 C14.0056829,55.6000923 14.4918,54.7338106 15.8518477,54.9485852 C17.2115354,55.163719 17.4056221,56.1381063 16.9447111,59.044388 L28.1484508,63.4314655 L28.3302946,62.2854021 Z" id="Fill-30" fill="#009350"></path>
                        <polygon id="Fill-32" points="29.4432148 116.403549 31.1817137 124.160218 29.2487679 124.591204 27.5106291 116.834535"></polygon>
                        <path d="M42.3359414,122.871391 L46.2983362,107.02368 L34.4316768,104.073222 L32.7320672,110.870947 L34.3582191,111.274996 L33.963564,112.853842 L33.6560499,112.777342 C32.9085098,111.846053 31.4469176,110.970433 29.1175163,110.391116 C24.2829913,109.189384 19.658757,111.62625 17.6851215,119.520116 L17.0819761,121.932201 C17.0013167,122.254004 16.9343406,122.561081 16.8641236,122.871391 L28.0977505,122.871391 L28.4196681,121.583461 C29.0775466,118.952292 29.8574946,118.260919 31.0879111,118.566919 C31.8790217,118.763736 32.0439414,119.223813 32.2092213,119.68425 L31.4119892,122.871391 L42.3359414,122.871391 Z" id="Fill-34" fill="#599F63"></path>
                    </g>
                </g>
                <g id="Special" transform="translate(142.585605, 146.757245) rotate(1.000000) translate(-142.585605, -146.757245) translate(110.357839, 30.391048)">
                    <g id="Group-10" transform="translate(6.841649, 5.473521)">
                        <g id="Group-3" transform="translate(15.843818, 0.000000)" fill="#7CB2E0">
                            <path d="M27.9922811,47.0843134 C39.8265328,41.7048908 44.2314742,34.6988556 39.6878993,24.7549331 C36.4698039,17.7115458 31.3382074,16.541419 23.7673831,17.8979472 L20.7527367,18.4341655 C17.4989926,18.9958838 16.0323592,19.0788486 15.2120816,17.2834331 C14.6125371,15.9714401 15.064446,14.7650387 16.6560295,14.0417007 C17.8327931,13.506919 18.6509102,13.4684894 19.2299297,13.4555599 L20.3026282,15.8033556 L31.0991098,10.8958627 L26.2400989,0.261285211 C22.6525544,0.641271127 17.8579991,2.40364437 12.8751184,4.66847535 C-0.135896746,10.5826796 -2.02239132,17.6117007 1.66885813,25.69125 C4.85562603,32.6656796 9.68078872,35.7263979 17.8176694,33.7790599 L20.907574,33.0417148 C23.3115132,32.4494683 24.6211488,32.937919 25.2837085,34.3881866 C26.0726586,36.1146444 25.173882,37.4402852 23.4436651,38.2268345 C22.4750317,38.6671585 21.5499688,38.837757 21.0083983,38.7501232 L19.840997,36.1950951 L8.76796876,41.2282923 L13.7213223,52.0701021 C17.3211098,51.3510739 22.3173137,49.6637641 27.9922811,47.0843134" id="Fill-1"></path>
                        </g>
                        <path d="M25.3936069,86.0868866 L39.2432642,82.1907739 L37.4752382,75.9378866 L35.3410039,76.5383937 L34.8415636,74.7713514 C35.5995462,74.8518021 37.2073336,74.6438514 38.2519453,74.3500627 C46.6977805,71.9738937 48.3134898,67.4596754 46.0204573,59.3492387 L45.4824876,57.4464359 C42.6640885,47.47845 38.6051905,46.1258725 33.3378412,47.6077458 C31.0221232,48.2592528 29.0787349,49.8819148 28.3013076,51.8127317 L28.0740928,51.8763021 L27.510557,49.8829923 L16.0677197,53.1020979 L18.0532382,60.1250134 L19.4154464,59.7417951 L24.9881492,79.4511401 L23.625941,79.8343585 L25.3936069,86.0868866 Z M34.8772121,67.9624923 C34.1051861,68.179781 33.4635115,68.1643373 33.1469952,67.9111331 L30.3671254,58.0792669 C30.6731991,57.6015908 31.2774247,57.138281 31.6861232,57.0233514 C33.1848043,56.6017035 33.5783792,57.126788 34.4108998,60.0718585 L35.5127653,63.9686894 C36.3326829,66.8681472 35.9214638,67.6687035 34.8772121,67.9624923 L34.8772121,67.9624923 Z" id="Fill-4" fill="#2383C5"></path>
                        <path d="M21.6197176,100.739079 C24.6196004,101.828755 27.0998781,101.917466 28.7195484,101.552206 L30.266121,97.3120225 C28.8596221,97.1895507 27.3000863,96.9054592 25.1438868,96.1225014 C22.8627371,95.293931 21.8883423,94.3748535 22.2639128,92.5693817 L31.1699388,95.803931 L32.125249,93.1849732 C34.1723423,87.5728183 32.4342035,83.7988183 27.3094486,81.9376775 C21.8408108,79.9511915 17.658043,82.1043254 15.7931536,87.2176141 L15.1676829,88.9325789 C13.3024334,94.0458676 14.6822859,98.2192479 21.6197176,100.739079 L21.6197176,100.739079 Z M23.472364,88.7709592 C24.0521037,87.1809803 24.7369887,86.7586141 25.4870495,87.0312127 C26.2057826,87.2923183 26.3761037,87.989438 25.7960039,89.5797761 L25.750633,89.7044028 L23.4381557,88.8646986 L23.472364,88.7709592 Z" id="Fill-6" fill="#81D4F6"></path>
                        <path d="M23.3725839,136.188173 C28.7069093,134.712406 31.8839549,132.674561 33.9522933,130.363399 L31.6578204,122.110377 C30.3154169,123.318934 27.7181111,124.423694 24.9011523,125.203061 C20.4659636,126.429934 17.4131479,125.664215 15.9832434,120.521117 L14.7027748,115.916032 C13.6387184,112.088518 15.4870438,110.611314 16.6857727,110.279455 C17.4650004,110.063962 18.2175818,109.984589 18.5668659,110.081201 L19.4980503,113.430321 L28.5484711,110.926652 L25.2561978,99.0853141 C23.2753605,98.9247718 17.5017293,99.7490324 12.9466317,101.009307 C3.41693536,103.645504 -2.16584989,110.728399 0.993191323,122.091342 L1.90781171,125.380842 C4.3355167,134.112258 12.1047488,139.305279 23.3725839,136.188173" id="Fill-8" fill="#3AB0E4"></path>
                    </g>
                    <path d="M11.1190113,158.474204 L21.9677054,162.254668 L23.7929852,157.039739 L22.5672499,156.613063 L27.8536837,141.508443 L18.2303649,138.155013 L16.2794148,143.729457 L17.50479,144.156133 L14.1693063,153.686668 L12.943931,153.259633 L11.1190113,158.474204 Z M19.5003909,137.992316 L27.9703518,140.943851 L29.8834928,135.477513 L21.4135319,132.525978 L19.5003909,137.992316 Z" id="Fill-11" fill="#6ABEEB"></path>
                    <path d="M17.2234902,193.804454 C20.8751302,192.862031 23.3258807,190.990115 23.7785098,187.943763 L24.0431735,187.875524 C25.2274989,190.04877 27.3570521,191.076672 31.9611215,189.888587 C34.9775683,189.109939 36.2713601,188.437961 37.3793471,187.701334 L35.4770087,180.361644 L34.7359501,180.553073 C34.1011171,180.716848 33.8209696,180.507461 33.6567701,179.873911 L30.3997852,167.306362 C28.6616464,160.600221 23.9416291,158.945235 16.1093818,160.966559 C10.5525228,162.400665 7.01611063,164.439946 4.20671367,166.235362 L6.28657484,174.261756 C8.24292625,173.531235 10.1070954,172.881165 12.8059458,172.184763 C17.039846,171.092214 18.2879067,171.333566 18.6436725,172.706256 L18.8489219,173.498552 L13.8289523,175.695503 C9.11253579,177.757411 5.35755098,180.698172 6.80834056,186.295601 L7.17778959,187.721087 C8.75172885,193.793679 12.354757,195.060777 17.2234902,193.804454 M20.8816117,185.48032 C20.2464187,185.644454 19.276705,185.387658 18.9893557,184.278587 L18.5104403,182.430376 C18.0452082,180.63532 18.7549393,179.888637 19.8917332,179.482432 L20.3544447,179.306806 L21.7775076,184.798644 C21.6345531,185.117214 21.3580065,185.357489 20.8816117,185.48032" id="Fill-12" fill="#0088BE"></path>
                    <polygon id="Fill-14" fill="#78BDDE" points="0 192.729754 2.10146638 198.812761 3.44711063 198.350888 9.85269414 216.89298 8.50632972 217.355212 10.6077961 223.43786 23.1010065 219.149909 20.9995401 213.066902 19.6538959 213.529135 11.1472061 188.904036"></polygon>
                    <g id="Group-21" transform="translate(5.401302, 104.959437)">
                        <polygon id="Fill-15" points="0.233696312 96.8867113 3.9267462 90.2477324 9.12855965 93.0732042 4.61775271 101.863162"></polygon>
                        <polygon id="Fill-17" points="10.9286334 39.3357254 19.5408286 37.9368169 21.2735662 48.5491268 12.6613709 49.9480352"></polygon>
                        <polygon id="Fill-19" points="20.0384685 6.64903521 23.7315184 0.010056338 28.9333319 2.83552817 24.4225249 11.6254859"></polygon>
                    </g>
                    <polygon id="Fill-22" fill="#745511" points="53.7357124 0.000179577465 52.103079 2.77572887 1.62179479 232.035454 3.55582082 232.459616 54.0547492 3.12051761 53.7483154 0.00269366197"></polygon>
                    <g id="Group-41" transform="translate(7.201735, 17.684789)">
                        <polygon id="Fill-23" points="29.9228503 53.0777113 31.7150022 44.9468028 33.6681128 45.3749155 31.8756009 53.5061831"></polygon>
                        <polygon id="Fill-25" points="39.7715835 8.32090141 41.5640954 0.189633803 43.5172061 0.618105634 41.7246941 8.74901408"></polygon>
                        <path d="M24.6278824,67.2397648 L23.2656742,67.6229831 L25.0333401,73.8755113 L38.8829974,69.9793986 L37.1149714,63.7268704 L34.9810972,64.3270183 L34.4812967,62.5599761 C35.2392794,62.6404268 36.8474269,62.4324761 37.8916785,62.1386873 C45.7945028,59.9155183 47.716646,55.8193563 46.052685,48.6574479 L34.2760473,48.6574479 L35.1524985,51.7573141 C35.9724161,54.657131 35.561557,55.4573282 34.5169453,55.7511169 C33.7452794,55.9684056 33.1036048,55.9533211 32.7867284,55.6997577 L30.7958087,48.6574479 L19.3742165,48.6574479 L24.6278824,67.2397648 Z" id="Fill-27" fill="#2383C5"></path>
                        <path d="M26.8776685,94.0008296 L24.8961111,86.8741183 C22.9152738,86.7135761 17.1416425,87.5378366 12.5865449,88.7981113 C8.81967722,89.8400197 18.5312174,89.8737803 16.2939983,92.2948437 L26.8776685,94.0008296 Z" id="Fill-29" fill="#3AB0E4"></path>
                        <polygon id="Fill-31" points="20.1922256 106.604007 18.4810933 114.366782 16.5279826 113.93831 18.239115 106.175894"></polygon>
                        <path d="M23.0124972,123.976906 C28.3468226,122.501138 31.5238681,120.463293 33.5922065,118.152131 L31.2977336,109.89911 C29.9553302,111.107666 27.3580243,112.212427 24.5410655,112.991793 C20.1058768,114.218666 17.0530612,113.452948 15.6231566,108.309849 L14.3426881,103.704765 C13.2786317,99.8772507 15.126957,98.4000465 16.3256859,98.0681873 C17.1049137,97.8526944 -2.52593666,98.517131 0.633104555,109.880075 L1.54772495,113.169575 C3.97542993,121.90099 11.744662,127.094011 23.0124972,123.976906" id="Fill-33" fill="#3AB0E4"></path>
                        <polygon id="Fill-35" points="6.42754881 159.74888 8.13868113 151.986465 10.0917918 152.414577 8.38065944 160.176993"></polygon>
                        <polygon id="Fill-37" points="6.2399436 169.994852 3.42946638 182.745211 1.47635575 182.317099 4.28683297 169.566739"></polygon>
                        <polygon id="Fill-39" points="13.0455835 139.071972 10.2351063 151.822331 8.28199566 151.393859 11.0924729 138.6435"></polygon>
                    </g>
                    <polygon id="Fill-42" fill="#78BDDE" points="0 192.729754 2.10146638 198.812761 3.44711063 198.350529 6.03145336 201.025515 15.9338395 202.821289 11.1472061 188.904036"></polygon>
                    <path d="M17.2234902,193.804454 C20.8751302,192.862031 23.3258807,190.990115 23.7785098,187.943763 L24.0431735,187.875524 C25.2274989,190.04877 27.3570521,191.076672 31.9611215,189.888587 C34.9775683,189.109939 36.2713601,188.437961 37.3793471,187.701334 L35.4770087,180.361644 L34.7359501,180.553073 C34.1011171,180.716848 33.8209696,180.507461 33.6567701,179.873911 L30.3997852,167.306362 C28.6616464,160.600221 23.9416291,158.945235 16.1093818,160.966559 C10.5525228,162.400665 7.01611063,164.439946 4.20671367,166.235362 L6.28657484,174.261756 C8.24292625,173.531235 10.1070954,172.881165 12.8059458,172.184763 C17.039846,171.092214 18.2879067,171.333566 18.6436725,172.706256 L18.8489219,173.498552 C18.8489219,173.498552 12.354757,195.060777 17.2234902,193.804454 M20.8816117,185.48032 C20.2464187,185.644454 19.276705,185.387658 18.9893557,184.278587 L18.5104403,182.430376 C18.0452082,180.63532 18.7549393,179.888637 19.8917332,179.482432 L20.3544447,179.306806 L21.7775076,184.798644 C21.6345531,185.117214 21.3580065,185.357489 20.8816117,185.48032" id="Fill-43" fill="#0088BE"></path>
                    <path d="M27.9703158,140.94378 L29.8834568,135.477442 L21.4134959,132.525906 L19.5003549,137.992244 L27.9703158,140.94378 Z M27.8536477,141.508371 L18.2303289,138.154942 L16.2793787,143.729385 L17.504754,144.15642 L17.4640642,149.127484 L24.6657996,150.204949 L27.8536477,141.508371 Z" id="Fill-45" fill="#6ABEEB"></path>
                    <g id="Group-56" transform="translate(21.605206, 5.473521)">
                        <polygon id="Fill-46" points="11.7399089 91.7533099 10.7572321 96.2111408 8.80412148 95.782669 9.78679826 91.324838"></polygon>
                        <polygon id="Fill-48" points="25.3328243 30.0321761 23.5403124 38.1634437 21.5872017 37.7349718 23.3797137 29.6040634"></polygon>
                        <polygon id="Fill-50" points="13.557987 83.5645775 11.7654751 91.6958451 9.81236443 91.2673732 11.6048764 83.1364648"></polygon>
                        <path d="M7.50024729,92.5692739 L16.4062733,95.8041824 L17.3615835,93.1848655 C19.4086768,87.5727106 17.670898,83.7990697 12.5457831,81.9375697 C7.07714534,79.9510838 2.89437744,82.1042176 1.02948807,87.2178655 L0.404017354,88.9324711 C-1.46087202,94.046119 7.12467679,94.3751049 7.50024729,92.5692739 L7.50024729,92.5692739 Z M8.70869848,88.7708514 C9.28879826,87.1808725 9.97332321,86.7588655 10.7233839,87.0311049 C11.4421171,87.2922106 11.6124382,87.9896894 11.0323384,89.5796683 L10.9869675,89.7042951 L8.67449024,88.8645908 L8.70869848,88.7708514 Z" id="Fill-52" fill="#81D4F6"></path>
                        <path d="M40.7681957,24.7551127 C37.5501002,17.7113662 32.4185037,16.5415986 24.8473193,17.8981268 L21.833033,18.4343451 C18.5792889,18.9960634 17.1126555,19.078669 16.2923779,17.2832535 C15.6928334,15.9712606 16.1447423,14.7652183 17.7363258,14.0415211 C18.9130894,13.5067394 19.7312065,13.4683099 20.310226,13.4553803 L27.3203952,0.261464789 C23.7328508,0.641091549 18.9382954,2.40346479 13.9554148,4.66865493 C0.944399566,10.5828592 -0.942095011,17.6118803 2.74915445,25.6910704 C5.93592234,32.6655 10.761085,35.7262183 18.8979657,33.7788803 L21.9878703,33.0415352 C24.3918095,32.4492887 25.7014451,32.9380986 26.3640048,34.3883662 C27.1529549,36.1144648 45.0391848,34.1024789 40.7681957,24.7551127" id="Fill-54" fill="#7CB2E0"></path>
                    </g>
                </g>
            </g>
        </g>
    </g>
</svg>