<?xml version="1.0" encoding="utf-8"?>
<!-- Generator: Adobe Illustrator 14.0.0, SVG Export Plug-In . SVG Version: 6.00 Build 43363)  -->
<!DOCTYPE svg PUBLIC "-//W3C//DTD SVG 1.1//EN" "http://www.w3.org/Graphics/SVG/1.1/DTD/svg11.dtd">
<svg version="1.1" id="Layer_1" xmlns="http://www.w3.org/2000/svg" xmlns:xlink="http://www.w3.org/1999/xlink" x="0px" y="0px"
	 width="104.958px" height="51.653px" viewBox="0 0 104.958 51.653" enable-background="new 0 0 104.958 51.653"
	 xml:space="preserve">
<g>
	<path fill="#FFFFFF" d="M6.082,48.338V4.586L0.654,3.782V1.839L9.632,0.7l0.604,0.268v18.559h0.268
		c2.948-2.144,6.365-3.953,11.122-3.953c6.768,0,13.468,3.618,13.468,16.616c0,12.597-6.566,18.895-16.751,18.895
		C13.117,51.085,8.895,49.745,6.082,48.338z M30.537,33.062c0-10.653-4.422-14.003-10.854-14.003c-3.753,0-6.969,1.407-9.313,2.747
		v24.12c1.809,1.206,4.154,2.412,8.509,2.412C25.847,48.338,30.537,44.317,30.537,33.062z"/>
	<path fill="#FFFFFF" d="M38.178,47.869L49.77,36.345c6.633-6.566,11.725-12.261,11.725-19.498c0-6.231-3.015-10.184-10.787-10.184
		c-4.221,0-7.37,1.139-10.452,2.412V6.596c3.216-1.876,7.571-3.35,12.127-3.35c8.51,0,13.937,4.355,13.937,13.132
		c0,7.705-5.628,14.07-14.271,21.91l-8.844,8.107v0.133h20.033l2.211-6.498h2.345l-0.67,10.385H38.178V47.869z"/>
	<path fill="#FFFFFF" d="M75.367,48.338V4.586l-5.428-0.804V1.839L78.917,0.7l0.604,0.268v18.559h0.268
		c2.948-2.144,6.365-3.953,11.122-3.953c6.768,0,13.468,3.618,13.468,16.616c0,12.597-6.566,18.895-16.751,18.895
		C82.402,51.085,78.18,49.745,75.367,48.338z M99.822,33.062c0-10.653-4.422-14.003-10.854-14.003c-3.753,0-6.969,1.407-9.313,2.747
		v24.12c1.809,1.206,4.154,2.412,8.509,2.412C95.132,48.338,99.822,44.317,99.822,33.062z"/>
</g>
</svg>
