<svg xmlns="http://www.w3.org/2000/svg" xmlns:xlink="http://www.w3.org/1999/xlink" width="109" height="108" version="1.1" viewBox="0 0 109 108"><title>Group 15 Copy</title><desc>Created with Sketch.</desc><defs><linearGradient id="linearGradient-1" x1="50%" x2="50%" y1="0%" y2="100%"><stop offset="0%" stop-color="#E5E5E5"/><stop offset="100%" stop-color="#FFF"/></linearGradient></defs><g id="Page-1" fill="none" fill-rule="evenodd" stroke="none" stroke-width="1"><g id="Group-15-Copy" transform="translate(54.490726, 54.099094) rotate(-330.000000) translate(-54.490726, -54.099094) translate(0.490726, -20.900906)"><path id="Oval-36-Copy-2" fill="url(#linearGradient-1)" d="M53.9507781,128.695196 C83.6110079,128.695196 107.655375,104.650829 107.655375,74.9905993 C107.655375,45.3303695 83.6110079,21.2860025 53.9507781,21.2860025 C24.2905483,21.2860025 0.246181255,45.3303695 0.246181255,74.9905993 C0.246181255,104.650829 24.2905483,128.695196 53.9507781,128.695196 Z" transform="translate(53.950778, 74.990599) rotate(-270.000000) translate(-53.950778, -74.990599)"/><path id="Oval-36-Copy-3" stroke="#FD7054" stroke-dasharray="2 2" stroke-width="5" d="M72.1674589,73.5643538 C82.2674329,63.7995716 88.547312,50.108261 88.547312,34.950206 C88.547312,19.814137 82.2856371,6.14056066 72.2113834,-3.621427" transform="translate(61.695014, 27.404981) rotate(-270.000000) translate(-61.695014, -27.404981)"/><path id="Oval-36-Copy-7" stroke="#FD7054" stroke-dasharray="2 2" stroke-width="5" d="M71.9684479,168.852832 C82.0684219,159.088049 88.348301,145.396739 88.348301,130.238684 C88.348301,115.102615 82.0866261,101.429039 72.0123724,91.6670509" transform="translate(61.496003, 122.693459) scale(1, -1) rotate(-270.000000) translate(-61.496003, -122.693459)"/></g></g></svg>