<?xml version="1.0" encoding="UTF-8" standalone="no"?>
<svg width="102px" height="103px" viewBox="0 0 102 103" version="1.1" xmlns="http://www.w3.org/2000/svg" xmlns:xlink="http://www.w3.org/1999/xlink">
    <!-- Generator: Sketch 39.1 (31720) - http://www.bohemiancoding.com/sketch -->
    <title>Group 12 Copy 2</title>
    <desc>Created with Sketch.</desc>
    <defs>
        <linearGradient x1="50%" y1="0%" x2="50%" y2="100%" id="linearGradient-1">
            <stop stop-color="#464646" offset="0%"></stop>
            <stop stop-color="#000000" offset="100%"></stop>
        </linearGradient>
    </defs>
    <g id="Page-1" stroke="none" stroke-width="1" fill="none" fill-rule="evenodd">
        <g id="Group-12-Copy-2" transform="translate(51.667296, 51.667296) rotate(-30.000000) translate(-51.667296, -51.667296) translate(0.667296, 0.667296)">
            <g id="Group-11" transform="translate(-0.000000, -0.000000)">
                <ellipse id="Oval-75" fill="url(#linearGradient-1)" cx="50.716228" cy="50.716228" rx="50.716228" ry="50.716228"></ellipse>
                <path d="M50.716228,69.04226 C60.837416,69.04226 69.04226,60.837416 69.04226,50.716228 C69.04226,40.59504 60.837416,32.390196 50.716228,32.390196 C40.59504,32.390196 32.390196,40.59504 32.390196,50.716228 C32.390196,60.837416 40.59504,69.04226 50.716228,69.04226 Z" id="Oval-75-Copy" fill="#FFFFFF"></path>
                <path d="M50.716228,50.9293214 C53.8938103,50.9293214 56.4697497,48.353382 56.4697497,45.1757998 C56.4697497,41.9982175 53.8938103,39.4222781 50.716228,39.4222781 C47.5386458,39.4222781 44.9627064,41.9982175 44.9627064,45.1757998 C44.9627064,48.353382 47.5386458,50.9293214 50.716228,50.9293214 L50.716228,50.9293214 Z M50.716228,47.0936403 C49.6570339,47.0936403 48.7983875,46.2349938 48.7983875,45.1757998 C48.7983875,44.1166057 49.6570339,43.2579592 50.716228,43.2579592 C51.7754221,43.2579592 52.6340686,44.1166057 52.6340686,45.1757998 C52.6340686,46.2349938 51.7754221,47.0936403 50.716228,47.0936403 L50.716228,47.0936403 Z" id="Oval-77" fill="#000000"></path>
                <path d="M50.716228,62.010178 C54.8353162,62.010178 58.1744969,58.6709973 58.1744969,54.5519091 C58.1744969,50.432821 54.8353162,47.0936403 50.716228,47.0936403 C46.5971399,47.0936403 43.2579592,50.432821 43.2579592,54.5519091 C43.2579592,58.6709973 46.5971399,62.010178 50.716228,62.010178 L50.716228,62.010178 Z M50.716228,58.1744969 C48.7155281,58.1744969 47.0936403,56.5526091 47.0936403,54.5519091 C47.0936403,52.5512092 48.7155281,50.9293214 50.716228,50.9293214 C52.716928,50.9293214 54.3388157,52.5512092 54.3388157,54.5519091 C54.3388157,56.5526091 52.716928,58.1744969 50.716228,58.1744969 L50.716228,58.1744969 Z" id="Oval-77-Copy" fill="#000000"></path>
            </g>
        </g>
    </g>
</svg>