<?xml version="1.0" encoding="utf-8"?>
<!-- Generator: Adobe Illustrator 19.2.1, SVG Export Plug-In . SVG Version: 6.00 Build 0)  -->
<svg version="1.1" id="Layer_1" xmlns="http://www.w3.org/2000/svg" xmlns:xlink="http://www.w3.org/1999/xlink" x="0px" y="0px"
	 viewBox="0 0 619 197.1" style="enable-background:new 0 0 619 197.1;" xml:space="preserve">
<style type="text/css">
	.st0{fill:#1E3F74;}
	.st1{fill:#B51800;}
</style>
<g>
	<path class="st0" d="M128.5,26.4l3-0.7V7.1h-2.9l-1.2,4.8h-4.7l0.3-9.4h25l0.4,9.4h-4.7l-1.2-4.8h-2.9v18.6l3,0.7v3.9h-14V26.4z"/>
	<path class="st0" d="M149.3,26.6l2.3-0.6V5.5l-2.4-0.6V1.2l9-0.9l0.7,0.3V11h0.2c1.9-1.5,3.8-2.5,6.8-2.5c3.3,0,5.6,1.5,5.6,5.3V26
		l2.1,0.6v3.6h-11.2v-3.6l1.7-0.4v-9.9c0-1.7-0.8-2.3-2.5-2.3c-1,0-1.8,0.3-2.7,0.6v11.6l1.7,0.4v3.6h-11.3V26.6z"/>
	<path class="st0" d="M174,19.5c0-7,4.3-11.1,10.8-11.1c6.6,0,9.7,3.3,9.7,12.2h-12.9c0.4,3.7,2.4,5.1,5.8,5.1c2.8,0,4.6-0.5,6.1-1
		v3.9c-1.5,1-4,2.1-8.1,2.1C177.9,30.8,174,26.7,174,19.5z M187.4,17c0-3.3-1.2-4.3-2.7-4.3c-1.6,0-2.9,1-3.1,4.6L187.4,17z"/>
	<path class="st0" d="M202.8,26.6l2.3-0.6V13.2h-2.4V9.9l2.4-0.9V6.9c0-5,3.4-6.6,7-6.6c2,0,3.3,0.4,4,0.7v4.3
		c-0.3-0.1-0.7-0.1-1.3-0.1c-1.4,0-2.4,0.6-2.4,2.5v1.2h11.9l0.6,0.3V26l2.2,0.6v3.6H216v-3.6l1.7-0.4V13.2h-5.2v12.9l1.7,0.4v3.6
		h-11.3V26.6z M217.5,3.6c0-2.2,1.7-3.6,3.8-3.6s3.8,1.4,3.8,3.6c0,2.2-1.7,3.6-3.8,3.6S217.5,5.8,217.5,3.6z"/>
	<path class="st0" d="M228.2,26.6l2.3-0.6V13.8l-2.4-0.6V9.4l8.8-0.9l0.6,0.3V12h0.2c1.2-1.9,3-3.4,5.4-3.4c0.4,0,0.8,0,1.1,0.1v6.5
		c-0.4-0.1-1.2-0.2-1.9-0.2c-2,0-3.3,0.2-4.5,0.8V26l3,0.6v3.6h-12.6V26.6z"/>
	<path class="st0" d="M245.5,29.4l-0.4-5.8h4.6l0.8,2.4c0.5,0.3,1.5,0.6,2.8,0.6c1.8,0,2.8-0.7,2.8-1.9s-0.7-1.6-2.6-2.1l-2.4-0.6
		c-4-1-6.1-2.7-6.1-6.5c0-4.2,2.9-7.2,9.6-7.2c2.6,0,5.3,0.4,7.1,1.2v5.6h-4.4l-0.5-2.1c-0.5-0.3-1.2-0.5-2.4-0.5
		c-1.5,0-2.8,0.5-2.8,1.7c0,1.1,0.8,1.6,2.9,2.1l2.6,0.6c4.3,1,6,3.1,6,6.4c0,4.5-3,7.6-10.1,7.6C250.6,30.8,247.7,30.3,245.5,29.4z
		"/>
	<path class="st0" d="M265.9,24.8V13.2h-2.3V9.9l2.9-1.1l0.9-5h5.8v5h4.3v4.4h-4.3v10.3c0,1.9,0.8,2.4,2.6,2.4c0.7,0,1.4-0.1,2-0.3
		v3.8c-1,0.6-2.8,1.2-5.2,1.2C268.4,30.7,265.9,29.3,265.9,24.8z"/>
	<path class="st0" d="M286.7,26.4l3.6-0.7v-16l-3.9,0.3V6.1l8.1-3.8h3.9v23.4l3.5,0.7v3.9h-15.2V26.4z"/>
	<path class="st0" d="M302.4,16.5c0-10.2,5.8-14.5,12.4-14.5c6.9,0,12.2,4.4,12.2,14.2c0,10.2-5.8,14.5-12.3,14.5
		C307.6,30.7,302.4,26.3,302.4,16.5z M318.5,16.6c0-7.4-1-9.9-3.8-9.9c-2.6,0-3.8,2.8-3.8,9.4c0,7.4,1,9.8,3.8,9.8
		C317.3,26,318.5,23.3,318.5,16.6z"/>
	<path class="st0" d="M328.6,16.5c0-10.2,5.8-14.5,12.4-14.5c6.9,0,12.2,4.4,12.2,14.2c0,10.2-5.8,14.5-12.3,14.5
		C333.8,30.7,328.6,26.3,328.6,16.5z M344.7,16.6c0-7.4-1-9.9-3.8-9.9c-2.6,0-3.8,2.8-3.8,9.4c0,7.4,1,9.8,3.8,9.8
		C343.4,26,344.7,23.3,344.7,16.6z"/>
	<path class="st0" d="M361.9,20.1c0-8.6,4.6-11.6,10.4-11.6c1.6,0,2.6,0.2,3.5,0.6V5.6l-2.5-0.6V1.2l9.2-0.9l0.7,0.3v24.8l2.3,0.6
		v3.6l-8.2,1l-0.6-0.3v-2.1h-0.2c-1.1,1.5-3.3,2.4-6,2.4C366.2,30.7,361.9,28.2,361.9,20.1z M375.7,24.9V13.6
		c-0.6-0.4-1.2-0.8-2.4-0.8c-2.2,0-3.7,1.2-3.7,6.4c0,4.7,1.2,6.3,3.5,6.3C374.2,25.6,375.1,25.3,375.7,24.9z"/>
	<path class="st0" d="M386.3,24.9c0-4.2,3-5.6,7.8-6.4l3.7-0.7v-1c0-2.2-0.8-3-4-3c-1.9,0-4,0.2-5.5,0.4V9.9c2-0.7,5.4-1.5,9-1.5
		c5.4,0,7.8,2.2,7.8,7V25c0,1,0.6,1.3,1.4,1.3h0.7v3.5c-0.8,0.5-2.6,1-4.3,1c-2.3,0-3.7-0.7-4.3-2.5h-0.2c-1.1,1.4-3.1,2.5-5.8,2.5
		C388.8,30.8,386.3,28.4,386.3,24.9z M397.8,25.7v-4.6l-1.9,0.1c-1.6,0.1-2.4,1-2.4,2.7c0,1.8,0.6,2.6,2.2,2.6
		C396.6,26.5,397.4,26.1,397.8,25.7z"/>
	<path class="st0" d="M409.4,37.7v-4.6c0.9,0.2,1.5,0.3,2.2,0.3c1.7,0,2.9-0.4,3.5-1.9l0.6-1.6l-7.1-16.8l-1.8-0.6V8.9h11.5v3.6
		l-2,0.5l3.6,9.6h0.2L423,13l-2-0.5V8.9h9.2v3.6l-1.7,0.6l-7.4,19.4c-1.5,3.9-3.4,5.9-7.8,5.9C412,38.4,410.2,38.1,409.4,37.7z"/>
	<path class="st0" d="M431.4,29.4l-0.4-5.8h4.6l0.8,2.4c0.5,0.3,1.5,0.6,2.8,0.6c1.8,0,2.8-0.7,2.8-1.9s-0.7-1.6-2.6-2.1l-2.4-0.6
		c-4-1-6.1-2.7-6.1-6.5c0-4.2,2.9-7.2,9.6-7.2c2.6,0,5.3,0.4,7.1,1.2v5.6h-4.4l-0.5-2.1c-0.5-0.3-1.2-0.5-2.4-0.5
		c-1.5,0-2.8,0.5-2.8,1.7c0,1.1,0.8,1.6,2.9,2.1l2.6,0.6c4.3,1,6,3.1,6,6.4c0,4.5-3,7.6-10.1,7.6C436.5,30.8,433.6,30.3,431.4,29.4z
		"/>
	<path class="st0" d="M457.4,19.7c0-7.4,4.9-11.3,11-11.3c7.2,0,11.1,4,11.1,11c0,7.3-4.9,11.3-11,11.3
		C461.3,30.8,457.4,26.5,457.4,19.7z M471.7,19.7c0-5.5-1.4-6.9-3.4-6.9c-2,0-3.3,1.2-3.3,6.6c0,5.5,1.4,6.9,3.4,6.9
		C470.5,26.4,471.7,25,471.7,19.7z"/>
	<path class="st0" d="M480.2,26.6l2.3-0.6V13.2h-2.4V9.9l2.4-0.9V7.1c0-5.2,3.8-6.8,7.8-6.8c2.3,0,3.8,0.4,4.6,0.8v4.4
		c-0.7-0.2-1.4-0.2-2.4-0.2c-1.9,0-2.8,0.5-2.8,2.7v1h3.9v4.4h-3.9V26l2.8,0.6v3.6h-12.4V26.6z"/>
</g>
<g>
	<path class="st0" d="M62.6,146l12.7-2.9V63.6H62.8l-5.1,20.7h-20L39,44.1h107l1.5,40.2h-20.2l-5.1-20.7h-12.5v79.5l12.8,2.9v16.6
		h-60V146z"/>
	<path class="st0" d="M150.9,147l9.9-2.4V92.1l-10.4-2.7V73.5l37.8-3.9l2.6,1.2v13.7h1c5-8.2,12.7-14.7,23.1-14.7
		c1.5,0,3.4,0.2,4.6,0.5v27.7c-1.9-0.5-5.1-0.9-8-0.9c-8.4,0-14.2,1-19.3,3.4v44.1L205,147v15.6h-54V147z"/>
	<path class="st0" d="M234.5,139.3V91.8l-9.6-2.9V73.1l38.3-3.6l2.6,1.4v59.3c0,7.5,2.6,10.8,10.3,10.8c5.8,0,9.1-1.4,12.1-2.6V91.8
		l-9.1-2.9V73.1l37.6-3.6l2.7,1.4v71l9.9,2.7v15.6l-37.3,4.1l-2.7-1.2v-9.9h-1c-6.2,6.2-14.7,11.5-27.5,11.5
		C242.1,164.6,234.5,155.2,234.5,139.3z"/>
	<path class="st0" d="M332.5,147l9.9-2.4V92.1L332,89.4V73.5l37.8-3.9l2.6,1.2v9.4h1c8-6.3,16.2-10.8,29.1-10.8
		c9.6,0,17.3,3.6,20.9,11.6h0.9c7.5-6.5,17.6-11.6,30.3-11.6c13.3,0,23.6,6.8,23.6,22.9v52.3l9.1,2.4v15.6h-47.2V147l6.8-1.9v-41.7
		c0-7.9-2.9-10.4-10.3-10.4c-3.9,0-7.4,1-10.9,2.4c0.2,0.7,0.3,2.6,0.3,4.1v45.7l7,1.9v15.6h-45.1V147l6.8-1.9v-41.7
		c0-7.9-3.1-10.4-9.9-10.4c-4.8,0-7.4,1-10.9,2.4v49.8l7,1.9v15.6h-48.2V147z"/>
	<path class="st0" d="M484,181.6l9.7-2.2V92.1l-10.3-2.7V73.5l37.6-3.9l2.7,1.2v8.9h1c5.1-4.8,14-10.4,26.3-10.4
		c16.4,0,33,9.9,33,44.1c0,37.5-20.2,51.5-46.5,51.5c-6.7,0-9.4-0.3-12.7-1v15.7l11.3,2.1v15.2H484V181.6z M551.4,117.3
		c0-19.3-5-25.7-14.7-25.7c-5.1,0-8.9,1.2-11.6,2.6v48.9c2.2,1.5,5,3.1,10.4,3.1C545.4,146.2,551.4,140.7,551.4,117.3z"/>
</g>
<g>
	<polygon class="st1" points="501,9.1 501,26.1 602,26.1 602,180.1 544,180.1 544,197.1 619,197.1 619,9.1 	"/>
	<polygon class="st1" points="476,180.1 17,180.1 17,26.1 116,26.1 116,9.1 0,9.1 0,197.1 476,197.1 	"/>
</g>
</svg>
