<?xml version="1.0" encoding="utf-8"?>
<!-- Generator: Adobe Illustrator 16.0.1, SVG Export Plug-In . SVG Version: 6.00 Build 0)  -->
<!DOCTYPE svg PUBLIC "-//W3C//DTD SVG 1.1//EN" "http://www.w3.org/Graphics/SVG/1.1/DTD/svg11.dtd">
<svg version="1.1" id="Layer_1" xmlns="http://www.w3.org/2000/svg" xmlns:xlink="http://www.w3.org/1999/xlink" x="0px" y="0px"
	 width="21.967px" height="19.662px" viewBox="0 0 21.967 19.662" enable-background="new 0 0 21.967 19.662" xml:space="preserve">
<g>
	<polygon fill-rule="evenodd" clip-rule="evenodd" fill="#E9212C" points="18.643,11.855 18.643,19.669 17.004,19.669 
		17.004,16.389 8.864,16.389 8.864,19.669 7.226,19.669 7.226,11.855 18.643,11.855 	"/>
	<path fill-rule="evenodd" clip-rule="evenodd" fill="#214581" d="M11.963,7.476L12.5,5.777l0.549,1.699h1.812l-1.478,1.099
		l0.574,1.742L12.5,9.244l-1.458,1.073l0.567-1.742l-1.464-1.099H11.963L11.963,7.476z M19.04,5.354H7.169L4.848,3.947V0
		L3.114,3.032L0.135,1.68l2.363,3.115L0,10.394l0.996,0.984l4.398-2.336l1.324,1.926h11.924V6.87l2.391,4.33l0.942-0.547
		L19.04,5.354L19.04,5.354z"/>
</g>
</svg>
