<?xml version="1.0" encoding="utf-8"?>
<!-- Generator: Adobe Illustrator 16.0.1, SVG Export Plug-In . SVG Version: 6.00 Build 0)  -->
<!DOCTYPE svg PUBLIC "-//W3C//DTD SVG 1.1//EN" "http://www.w3.org/Graphics/SVG/1.1/DTD/svg11.dtd">
<svg version="1.1" id="Layer_1" xmlns="http://www.w3.org/2000/svg" xmlns:xlink="http://www.w3.org/1999/xlink" x="0px" y="0px"
	 width="42.635px" height="38.16px" viewBox="0 0 42.635 38.16" enable-background="new 0 0 42.635 38.16" xml:space="preserve">
<g>
	<polygon fill-rule="evenodd" clip-rule="evenodd" fill="#E9212C" points="36.21,23.026 36.21,38.202 33.027,38.202 33.027,31.833 
		17.216,31.833 17.216,38.202 14.034,38.202 14.034,23.026 36.21,23.026 	"/>
	<path fill-rule="evenodd" clip-rule="evenodd" fill="#214581" d="M23.235,14.521l1.042-3.299l1.067,3.299h3.52l-2.87,2.135
		l1.116,3.384l-2.833-2.085l-2.831,2.085l1.102-3.384l-2.843-2.135H23.235L23.235,14.521z M36.979,10.398H13.925L9.416,7.667V0
		L6.047,5.889L0.263,3.263l4.589,6.05L0,20.187l1.935,1.913l8.542-4.538l2.572,3.741h23.16v-7.959l4.643,8.411l1.829-1.062
		L36.979,10.398L36.979,10.398z"/>
</g>
</svg>
