<?xml version="1.0" encoding="utf-8"?>
<!-- Generator: Adobe Illustrator 16.0.1, SVG Export Plug-In . SVG Version: 6.00 Build 0)  -->
<!DOCTYPE svg PUBLIC "-//W3C//DTD SVG 1.1//EN" "http://www.w3.org/Graphics/SVG/1.1/DTD/svg11.dtd">
<svg version="1.1" id="Layer_1" xmlns="http://www.w3.org/2000/svg" xmlns:xlink="http://www.w3.org/1999/xlink" x="0px" y="0px"
	 width="19.49px" height="17.474px" viewBox="0 0 19.49 17.474" enable-background="new 0 0 19.49 17.474" xml:space="preserve">
<g>
	<g>
		<path fill="#E9212C" d="M16.29,11.088C16.289,11.05,16.302,11.905,16.29,11.088L16.29,11.088z"/>
		<g>
			<path fill="#E9212C" d="M16.29,11.088C16.289,11.05,16.302,11.905,16.29,11.088L16.29,11.088z"/>
			<path fill="#E9212C" d="M17.653,13.664l0.004,1.349c0,0.14,0.031,0.503-0.298,0.503c-0.25,0.002-0.175,0.002-0.25,0.002
				c-0.582,0-0.763-2.772-0.819-4.43c0.012,0.817-0.001-0.038,0,0V8.161L0.005,8.172v8.931H4.2v-3.308l5.282-0.009v3.332h3.944
				l0.001-4.411l0.189,0.051c0.237,0.281,0.42,0.741,0.544,1.382c0.396,2.02,1.243,3.154,2.544,3.401
				c0.498,0.095,0.984,0.017,1.31-0.163c0.814-0.442,1.368-1.002,1.368-2.516v-1.199H17.653z"/>
		</g>
	</g>
	<g>
		<path fill="#214581" d="M13.662,0.958c-1.825-0.913-4.636-1.16-7.943-0.797C1.718,0.599,0.353,2.172,0,4.109l0.01,3.308h16.208
			V3.879C16.217,2.452,14.987,1.621,13.662,0.958z M9.219,5.76L8.175,5.005L7.135,5.76l0.397-1.227l-1.04-0.761h1.289L8.178,2.55
			l0.398,1.223h1.289L8.821,4.534L9.219,5.76z"/>
	</g>
</g>
</svg>
