<?xml version="1.0" encoding="utf-8"?>
<!-- Generator: Adobe Illustrator 16.0.1, SVG Export Plug-In . SVG Version: 6.00 Build 0)  -->
<!DOCTYPE svg PUBLIC "-//W3C//DTD SVG 1.1//EN" "http://www.w3.org/Graphics/SVG/1.1/DTD/svg11.dtd">
<svg version="1.1" id="Layer_1" xmlns="http://www.w3.org/2000/svg" xmlns:xlink="http://www.w3.org/1999/xlink" x="0px" y="0px"
	 width="39.219px" height="35.162px" viewBox="0 0 39.219 35.162" enable-background="new 0 0 39.219 35.162" xml:space="preserve">
<g>
	<g>
		<path fill="#E9212C" d="M32.58,22.176C32.578,22.1,32.603,23.81,32.58,22.176L32.58,22.176z"/>
		<g>
			<path fill="#E9212C" d="M32.58,22.176C32.578,22.1,32.603,23.81,32.58,22.176L32.58,22.176z"/>
			<path fill="#E9212C" d="M35.307,27.327l0.007,2.698c0,0.281,0.063,1.006-0.595,1.007c-0.5,0.004-0.35,0.004-0.5,0.004
				c-1.164,0-1.526-5.544-1.639-8.859c0.023,1.634-0.002-0.076,0,0v-5.855L0.01,16.344v17.861h8.39V27.59l10.564-0.018v6.663h7.888
				l0.002-8.823l0.378,0.103c0.474,0.562,0.84,1.483,1.087,2.764c0.791,4.04,2.486,6.307,5.089,6.802
				c0.996,0.189,1.968,0.034,2.619-0.326c1.628-0.885,2.736-2.004,2.736-5.031v-2.397H35.307z"/>
		</g>
	</g>
	<g>
		<path fill="#214581" d="M27.325,1.916c-3.65-1.826-9.271-2.32-15.888-1.594C3.436,1.198,0.705,4.344,0,8.217l0.02,6.616h32.415
			V7.758C32.435,4.903,29.974,3.242,27.325,1.916z M18.438,11.52l-2.088-1.511l-2.08,1.511l0.794-2.453l-2.08-1.521h2.577
			l0.794-2.445l0.797,2.445h2.577l-2.087,1.521L18.438,11.52z"/>
	</g>
</g>
</svg>
