<svg xmlns="http://www.w3.org/2000/svg" width="250" height="107" viewBox="0 0 250 107">
  <g fill="none" fill-rule="evenodd">
    <polygon fill="#58BDC7" points="61 106.613 201.224 106.613 201.224 71 61 71"/>
    <polygon fill="#3A464A" points="0 71.613 214.12 71.613 214.12 36 0 36"/>
    <polygon fill="#869CA4" points="77 88.613 249.721 88.613 249.721 53 77 53" style="mix-blend-mode:multiply"/>
    <polygon fill="#FBB916" points="33 35.613 166.992 35.613 166.992 0 33 0"/>
    <polygon fill="#143961" points="43.536 53.419 157.644 53.419 157.644 17.806 43.536 17.806" style="mix-blend-mode:multiply"/>
    <g fill="#FEFEFE" transform="translate(56.09 18.251)">
      <path d="M1.08671652 32.7054701L1.08671652 32.0092451 4.73165954 29.9205698 4.73165954 5.18410261 1.08671652 3.8735613 1.08671652 3.17733623 13.3730413 3.17733623 25.0860043 22.9173647 25.2907764 22.9173647 25.2907764 5.96223651 21.2772436 3.8735613 21.2772436 3.17733623 29.3452635 3.17733623 29.3452635 3.8735613 26.1098647 5.9212821 26.1098647 32.7054701 21.4001068 32.7054701 5.75551994 6.49464392 5.55074786 6.49464392 5.55074786 29.9205698 9.52332621 32.0501995 9.52332621 32.7054701 1.08671652 32.7054701zM30.5262642 32.7054701L30.5262642 32.0092451 33.3111645 31.4358832 33.3111645 4.44692312 30.5262642 3.8735613 30.5262642 3.17733623 44.3279024 3.17733623 44.3279024 3.8735613 41.9525463 4.40596871 41.9525463 17.0199288 49.8157942 17.0199288 49.8157942 4.40596871 47.440438 3.8735613 47.440438 3.17733623 61.2011218 3.17733623 61.2011218 3.8735613 58.4571759 4.44692312 58.4571759 31.4358832 61.2420762 32.0092451 61.2420762 32.7054701 47.440438 32.7054701 47.440438 32.0092451 49.8157942 31.5177921 49.8157942 18.0028348 41.9525463 18.0028348 41.9525463 31.5177921 44.3279024 32.0092451 44.3279024 32.7054701 30.5262642 32.7054701zM72.6616809 33.1969231C69.3034188 33.1969231 65.7403846 32.6235613 63.6926638 31.7225641L63.2831197 23.6135898 63.9793447 23.6135898 70.409188 32.0911539C71.1463675 32.3368804 71.883547 32.4597436 72.5388177 32.4597436 76.1837607 32.4597436 77.9448006 30.6987037 77.9448006 27.668077 77.9448006 24.6784046 76.2656695 23.1630912 72.0883191 21.6477778L70.4910969 20.9925072C65.8632479 19.0676496 63.4878917 16.5284758 63.4878917 11.818718 63.4878917 6.61750717 66.6413818 2.64492882 74.340812 2.64492882 78.1495726 2.64492882 80.4430199 3.21829064 82.2859687 3.83260688L82.7364672 11.4501283 82.0402422 11.4501283 76.1018519 3.66878922C75.5694444 3.46401714 74.9960826 3.34115389 74.340812 3.34115389 71.0235043 3.34115389 69.4262821 5.18410261 69.4262821 7.92804848 69.4262821 10.5081767 70.7777778 11.9825357 74.545584 13.293077L76.1837607 13.9483476C81.3440171 15.9141596 84.3746439 17.6342451 84.3746439 23.3678633 84.3746439 29.6748434 79.9925214 33.1969231 72.6616809 33.1969231zM33.3587963 56.0085328L38.2733262 55.0665812 38.2733262 52.0769089C38.2733262 47.5309687 37.2904202 46.0566097 34.7922009 46.0566097 34.5055199 46.0566097 34.2597934 46.0975641 33.9731125 46.1385186L28.4442664 53.6331767 27.7480413 53.6331767 27.911859 46.670926C30.0414886 46.0156553 32.7035256 45.2784758 36.2256054 45.2784758 42.286859 45.2784758 45.8089387 46.9576069 45.8089387 52.0359545L45.8089387 66.6157265 47.9795228 67.1890884 47.9795228 67.7624502C47.1194801 68.2948576 45.3993946 68.7863106 43.5154915 68.7863106 40.5258191 68.7863106 39.0924145 67.8034046 38.4371439 66.165228L38.2323718 66.165228C36.9627849 67.8853134 35.1607906 68.8682194 32.3349359 68.8682194 28.7309473 68.8682194 26.2736823 66.6157265 26.2736823 62.725057 26.2736823 58.9572508 28.608084 56.90953 33.3587963 56.0085328zM36.3894231 65.9195015C37.3313746 65.9195015 37.8637821 65.6328206 38.2733262 65.1413676L38.2733262 56.1313961 36.7580128 56.2542593C34.3826567 56.4590314 33.522614 57.9743448 33.522614 61.3326069 33.522614 64.9775499 34.710292 65.9195015 36.3894231 65.9195015zM50.8872863 47.367151L47.6928419 47.367151 47.6928419 46.6299716 50.8872863 45.8108832 50.8872863 41.7973505 58.34099 40.6096724 58.34099 45.8108832 63.2964744 45.8108832 63.2964744 47.367151 58.34099 47.367151 58.34099 62.2745585C58.34099 64.5680057 59.0372151 65.5099573 61.4944801 65.5099573 62.272614 65.5099573 63.0507479 65.4280485 63.5422009 65.3051852L63.5422009 66.0014103C62.2316595 67.3938604 59.9791667 68.7044018 57.3171296 68.7044018 53.0578704 68.7044018 50.8872863 66.7385898 50.8872863 61.9059687L50.8872863 47.367151z"/>
      <polygon points="73.207 68.254 89.303 44.869 89.303 44.664 74.149 44.664 71.446 49.21 70.75 49.21 71.16 38.726 91.268 38.726 91.268 42.043 81.357 68.254"/>
      <path d="M103.964209,68.7453562 C97.0838675,68.7453562 91.227386,63.5850998 91.227386,53.6331767 C91.227386,43.230755 97.329594,38.2343163 104.25089,38.2343163 C111.090278,38.2343163 116.782942,43.1898006 116.782942,53.3874502 C116.782942,63.6260542 110.967415,68.7453562 103.964209,68.7453562 Z M104.087073,68.0081767 C107.035791,68.0081767 108.018697,63.3393733 108.018697,53.7150855 C108.018697,43.5583904 107.035791,38.9714958 104.046118,38.9714958 C101.138355,38.9714958 99.9916311,43.6812536 99.9916311,53.3055414 C99.9916311,63.2984188 101.0974,68.0081767 104.087073,68.0081767 Z"/>
    </g>
  </g>
</svg>
