<?xml version="1.0" encoding="utf-8"?>
<!-- Generator: Adobe Illustrator 20.1.0, SVG Export Plug-In . SVG Version: 6.00 Build 0)  -->
<svg version="1.1" id="Layer_1" xmlns="http://www.w3.org/2000/svg" xmlns:xlink="http://www.w3.org/1999/xlink" x="0px" y="0px"
	 viewBox="0 0 117.6 29.7" style="enable-background:new 0 0 117.6 29.7;" xml:space="preserve">
<style type="text/css">
	.st0{fill:#FFCE4B;}
	.st1{fill:#E6711B;}
	.st2{fill:#CEB41D;}
	.st3{fill:#FDADBA;}
	.st4{fill:#FF5B3A;}
</style>
<title>Muxes</title>
<desc>Created with Sketch.</desc>
<g>
	<path class="st0" d="M0,27.4l3.7-0.8V2.5L0,1.7V0h9.8L17,21.3h0.2L24.4,0h10.2v1.7l-4,0.8v24.1l4,0.8v1.7H23.3v-1.7l3.2-0.8V3h-0.1
		l-8.7,24.7h-2.6L6.8,3H6.6v23.6l3.3,0.8v1.7H0V27.4z"/>
	<path class="st1" d="M38.2,23.2v-13L35,9.5V7.9l6.6-0.7L42,7.5v14.7c0,3,0.8,4.5,4.2,4.5c2.6,0,4-0.7,5.3-1.2V10.2l-3.1-0.7V7.9
		l6.5-0.7l0.5,0.3v18.9l3.2,0.7v1.4l-6.3,1l-0.5-0.2V27h-0.3c-1.8,1.6-4.2,2.6-7.1,2.6C40,29.5,38.2,27.1,38.2,23.2z"/>
	<path class="st2" d="M59.6,27.7l2.6-0.6l6-8.6l-5.9-8.8l-2.5-0.6V7.6h9.3v1.5l-2.5,0.5l4.4,6.8h0.1l4.3-6.8l-2.6-0.5V7.6h7.8v1.5
		l-2.4,0.6l-5.8,8.2l6.1,9.1l2.6,0.6v1.4h-9.5v-1.4l2.6-0.5l-4.6-7h-0.1l-4.7,7l2.7,0.5v1.4h-8V27.7z"/>
	<path class="st3" d="M81.5,18.1c0-6.9,4.4-11,9.9-11c6.3,0,8.8,4.4,8.8,11.1H85.5c0.2,5.8,2.9,8.6,7.3,8.6c3.1,0,4.7-0.6,6.3-1.1
		v1.9c-1.3,0.8-3.5,2-7.1,2C84.6,29.6,81.5,24.8,81.5,18.1z M95.8,15.8c0-4.5-1.6-6.4-4.7-6.4c-3.4,0-5.3,2.1-5.6,6.8L95.8,15.8z"/>
	<path class="st4" d="M102.6,28.5l-0.3-5.8h2l1.1,3.7c0.8,0.4,2.2,0.9,4.2,0.9c2.6,0,4.6-1,4.6-3.3c0-2.2-1.1-2.9-4.1-3.9l-2.3-0.8
		c-3.4-1.1-5.3-2.9-5.3-6c0-3.4,2.6-6.2,7.8-6.2c2.4,0,4.5,0.4,6,0.8v5.5h-1.9l-1-3.3c-0.7-0.4-1.7-0.7-3.4-0.7
		c-2.3,0-4.1,0.8-4.1,3c0,1.8,1,2.7,4.2,3.7l2.3,0.8c3.9,1.3,5.3,3.1,5.3,6.1c0,3.7-2.8,6.6-8.4,6.6
		C106.9,29.7,104.5,29.1,102.6,28.5z"/>
</g>
</svg>
