<svg width="219" height="102" xmlns="http://www.w3.org/2000/svg"><g fill="none" fill-rule="evenodd"><path fill="#FF4E36" fill-rule="nonzero" d="M10.08 101.352H219l-10.079-8H0z"/><path fill="#F6F6F6" fill-rule="nonzero" d="M128.842.25L41.774 31.295l20.638 70.067h94.561z"/><path fill="#FFF" fill-rule="nonzero" d="M135.791 3.613l-94.017 27.68 20.638 70.069h102.201z"/><path stroke="#121212" d="M78.553 51.643L120.27 38.76l12.882 41.717L91.435 93.36z"/><path d="M91.4 62.54c.041.2.184.288.327.376-.054-.23-.166-.332-.328-.377zM123.878 69.07l-.13-.057c.043.02.087.038.13.057z" fill="#121212" fill-rule="nonzero"/><path d="M98.833 66.523l.127-.23c.348.152-.016.33.34.408.282-.29.534.26.74.143-.019.044.155.12.086.22.12-.156.193.032.299.027.063-.025.007-.075-.018-.138l.268.04c.068.081.055.231-.064.205.571.354 3.441 1.793 4.132 1.992-.03-.169-.286-.177-.246-.445.231-.054.242.158.386.066-.078.354.353.258.319.632l.12-.155.061.157c.847.137.212-.011.877.306.411.128.711-.025.891.157-.044-.02-.062-.156.045-.162-.045.162.318-.016.285.177.118.026.435.19.4-.084.017.137.272.327.06.337.087.038.154.12.261.115l-.049-.125c.335.12.433.37.746.249l-.092-.144c.205.064.379.14.358.364l-.224-.02c.336.12.522.228.84.212l-.087-.038c.444-.065 2.335.53 2.785.39l-.054-.23.349-.029c-.043-.019-.378.508-.371.434.597.235 3.699 1.44 4.195 1.786.18.183-.071.28-.09.324.312.058.195-.148.425-.022.055.05-.058.13-.12.155.118.026.155.12.236.052-.08-.113.059-.311.073-.461l.273.146-.057.13c.056.05.314-.303.568-.114.46.254 1.001.439 1.46.692-.038.087-.187.073-.293.079.055.05.161.045.198.139-.042-.2.244-.023.176-.105.5-.196.814.33 1.245.234.177-.285 2.933-4.86 3.086-5.207.087.038.186.107.198.138-.005-.106-.16-.225-.297-.208l-.108.187c-.268-.04-.018-.138-.235-.233.045-.162.281-.11.487-.046-.143-.089-.291-.283-.411-.128-.124-.132.108-.186-.059-.337-.15-.014-.413.052-.505-.092l.019-.043c-.303-.315-.692-.018-.952-.314l.063-.024c-.092-.144-.379-.14-.559-.323.056.05.042.2-.088.143-.223-.201-.435-.19-.552-.397l-.263.066c-.851-.425-4.414-1.7-5.315-2.07l.031-.012c-1.387-.504-4.14-1.736-5.596-2.141-.129-.238-.453-.328-.651-.467.08.113.011.212-.089.143-.664-.317-.081.068-.815-.15-.891-.157-3.86-1.665-4.499-2.1-.487.045-.877-.307-1.326-.348l.063-.025c-.43-.084-2.597-1.293-3.113-1.416l.056.05c-.45-.04-.31-.239-.577-.46-.07.28-.476.259-.606.202l.019-.044c-.237-.052-.767-.025-1.103-.146l.057-.13c-.35.028-.821-.257-1.026-.32-.429-.266-1.03-.789-1.683-.894l-.22-.563-.063.025c.012.03-2.668 4.431-2.31 5.806l-.058.13.162.046c.167.15.299.027.242.158l-.261-.115c.155.12.017.138-.108.186a.305.305 0 01.18.183c.062-.025.006-.075-.006-.106.106-.006.337-.06.418.053.186.107-.096.217.134.344 1.149.633 2.235 1.29 3.44 1.793-.006.075-.018.043-.08.068.397.097.714.261 1.07.339.08.113.041.2.066.263.001-.181 1.872.638 1.884.67zM111.06 49.92c-.2.041-.288.184-.377.327.2-.042.332-.166.377-.328z" fill="#121212" fill-rule="nonzero"/><path d="M107.077 57.353l.23.126c-.152.349-.33-.015-.408.34.291.283-.26.534-.143.741-.044-.019-.12.155-.219.086.155.12-.033.193-.028.299.025.063.075.007.138-.018l-.028.3c-.081.067-.231.054-.205-.065-.354.571-1.793 3.441-1.992 4.132.169-.03.177-.286.445-.246.054.231-.158.242-.065.386-.355-.078-.259.354-.633.32l.155.12-.169.029c-.137.847.011.212-.306.877-.128.41.025.711-.157.89.019-.043.156-.06.162.045-.162-.045.016.319-.177.286-.026.118-.191.435.084.4-.137.017-.327.272-.337.06-.038.086-.12.154-.115.26l.113-.08c-.109.367-.359.465-.237.778l.144-.092c-.064.205-.14.379-.364.358l.02-.224c-.121.336-.228.522-.212.84l.038-.087c.065.444-.531 2.335-.391 2.785l.232-.054.028.35c.019-.044-.509-.38-.434-.372-.235.597-1.439 3.699-1.786 4.195-.183.18-.28-.07-.324-.09-.058.312.148.195.022.425-.051.055-.131-.058-.155-.12-.026.118-.12.155-.052.236.113-.08.311.059.461.073l-.146.273-.104-.176c-.051.056.303.315.114.569-.254.46-.439 1-.692 1.46-.087-.038-.073-.188-.079-.294-.05.056-.045.162-.139.199.2-.042.023.243.105.175.196.5-.33.815-.235 1.246.286.177 4.86 2.933 5.208 3.085-.038.087-.107.187-.139.199.106-.006.226-.16.209-.298l-.187-.107c.04-.268.138-.018.233-.235.162.044.11.281.046.486.088-.142.283-.29.128-.41.132-.124.186.107.337-.06.014-.15-.052-.412.092-.504l.043.019c.315-.303.018-.692.314-.952l.024.063c.144-.093.14-.38.323-.56-.051.057-.2.043-.143-.088.201-.222.19-.435.397-.551l-.066-.263c.425-.851 1.701-4.414 2.07-5.316l.012.032c.504-1.387 1.736-4.14 2.141-5.596.238-.13.328-.453.467-.651-.113.08-.213.01-.143-.089.317-.665-.068-.082.15-.816.213-.84 1.677-3.828 2.144-4.48-.046-.486.307-.876.348-1.325l.024.063c.085-.43 1.293-2.597 1.416-3.114l-.05.056c.041-.449.239-.31.46-.576-.28-.071-.258-.476-.201-.607l.043.02c.052-.237.025-.768.146-1.103l.131.057c-.028-.35.256-.821.32-1.027.266-.428.788-1.029.893-1.683l.563-.22-.024-.062s-4.432-2.668-5.776-2.323l-.13-.058-.045.162c-.151.167-.027.3-.158.242l.014-.15c-.12.156-.138.018-.186-.107a.308.308 0 01-.183.18c.025.062.075.006.106-.006.006.106.06.337-.053.417-.107.187-.217-.095-.344.135-.633 1.149-1.29 2.235-1.793 3.44-.031.013-.012-.03-.024-.062-.097.398-.262.715-.34 1.07-.112.08-.199.042-.262.067.137-.018-.682 1.853-.714 1.865zM104.53 82.77l.057-.13c-.051.055-.07.098-.057.13z" fill="#121212" fill-rule="nonzero"/></g></svg>