<svg width="219" height="109" viewBox="0 0 219 109" fill="none" xmlns="http://www.w3.org/2000/svg">
<path d="M10.0794 108.352H219L208.921 100.352H0L10.0794 108.352Z" fill="#FF4E36"/>
<mask id="mask0" mask-type="alpha" maskUnits="userSpaceOnUse" x="39" y="0" width="130" height="109">
<rect x="39.946" width="129.054" height="108.357" fill="#333333"/>
</mask>
<g mask="url(#mask0)">
<path d="M128.842 7.62198L41.7741 38.6669L71.8009 140.65L111.686 149.829L160.523 127.58L128.842 7.62198Z" fill="#F6F6F6"/>
<path d="M135.791 10.9845L41.7741 38.6658L87.6686 194.485L121.758 152.146L172.918 137.083L135.791 10.9845Z" fill="white"/>
</g>
<rect x="78.5528" y="59.0148" width="43.6613" height="43.6613" transform="rotate(-17.1603 78.5528 59.0148)" stroke="#121212"/>
<path d="M91.3994 69.9114C91.4415 70.1113 91.5842 70.1998 91.727 70.2883C91.6727 70.0571 91.5612 69.9564 91.3994 69.9114Z" fill="#121212"/>
<path d="M123.878 76.4424C123.835 76.4234 123.791 76.4043 123.748 76.3853C123.791 76.4043 123.835 76.4234 123.878 76.4424Z" fill="#121212"/>
<path d="M98.833 73.8946L98.9596 73.6649C99.3076 73.8174 98.9444 73.9953 99.2993 74.073C99.5823 73.7822 99.8336 74.333 100.04 74.2162C100.021 74.2597 100.195 74.336 100.126 74.4352C100.246 74.2802 100.319 74.4679 100.425 74.4626C100.488 74.4381 100.432 74.3878 100.407 74.3252L100.675 74.3648C100.743 74.4464 100.73 74.596 100.611 74.5701C101.182 74.924 104.052 76.363 104.743 76.5619C104.713 76.3932 104.457 76.3849 104.497 76.1171C104.728 76.0628 104.739 76.275 104.883 76.1826C104.805 76.5374 105.236 76.4411 105.202 76.8151L105.322 76.6601L105.383 76.8165C106.23 76.9544 105.595 76.8058 106.26 77.123C106.671 77.2511 106.971 77.0976 107.151 77.2799C107.107 77.2608 107.089 77.1235 107.196 77.1181C107.151 77.2799 107.514 77.1019 107.481 77.295C107.599 77.3209 107.916 77.4857 107.881 77.2109C107.898 77.3483 108.153 77.5375 107.941 77.5482C108.028 77.5863 108.095 77.668 108.202 77.6626L108.153 77.5375C108.488 77.6587 108.586 77.9089 108.899 77.7867L108.807 77.6425C109.012 77.7066 109.186 77.7828 109.165 78.0072L108.941 77.9867C109.277 78.1079 109.463 78.2154 109.781 78.1993L109.694 78.1611C110.138 78.0961 112.029 78.6914 112.479 78.5516L112.425 78.3204L112.774 78.2921C112.731 78.273 112.396 78.8004 112.403 78.7257C113 78.9612 116.102 80.1651 116.598 80.5121C116.778 80.6945 116.527 80.7922 116.508 80.8357C116.82 80.8944 116.703 80.6876 116.933 80.8142C116.988 80.8646 116.875 80.9447 116.813 80.9692C116.931 80.9951 116.968 81.0889 117.049 81.021C116.969 80.9081 117.108 80.7096 117.122 80.56L117.395 80.7057L117.338 80.8362C117.394 80.8866 117.652 80.5331 117.906 80.7223C118.366 80.9755 118.907 81.1607 119.366 81.4139C119.328 81.5009 119.179 81.4873 119.073 81.4926C119.128 81.543 119.234 81.5376 119.271 81.6315C119.229 81.4315 119.515 81.6085 119.447 81.5268C119.947 81.3313 120.261 81.8577 120.692 81.7614C120.869 81.476 123.625 76.9017 123.778 76.5536C123.865 76.5918 123.964 76.6612 123.976 76.6924C123.971 76.5864 123.816 76.4666 123.679 76.4842L123.571 76.6705C123.303 76.6309 123.553 76.5331 123.336 76.4378C123.381 76.276 123.617 76.3278 123.823 76.3918C123.68 76.3034 123.532 76.1088 123.412 76.2638C123.288 76.1318 123.52 76.0775 123.353 75.9265C123.203 75.9128 122.94 75.9793 122.848 75.8351L122.867 75.7916C122.564 75.4773 122.175 75.7735 121.915 75.4783L121.978 75.4539C121.886 75.3097 121.599 75.3136 121.419 75.1313C121.475 75.1816 121.461 75.3312 121.331 75.274C121.108 75.0726 120.896 75.0834 120.779 74.8766L120.516 74.9431C119.665 74.5183 116.102 73.2421 115.201 72.8731L115.232 72.8609C113.845 72.357 111.092 71.1247 109.636 70.72C109.507 70.482 109.183 70.3921 108.985 70.2533C109.065 70.3662 108.996 70.4654 108.896 70.396C108.232 70.0788 108.815 70.4639 108.081 70.2459C107.19 70.0891 104.221 68.5807 103.582 68.1452C103.095 68.1911 102.705 67.8387 102.256 67.7976L102.319 67.7732C101.889 67.6886 99.7224 66.4799 99.2058 66.3572L99.2615 66.4075C98.8128 66.3665 98.9516 66.168 98.6852 65.9476C98.6143 66.2277 98.2091 66.2057 98.0786 66.1485L98.0976 66.105C97.8611 66.0532 97.3307 66.0801 96.9949 65.9589L97.0521 65.8284C96.7026 65.8567 96.2309 65.5722 96.0256 65.5082C95.5974 65.2428 94.9966 64.7203 94.3426 64.6152L94.1226 64.0521L94.0601 64.0765C94.0723 64.1078 91.3923 68.5081 91.7491 69.8831L91.6919 70.0136L91.8537 70.0586C92.0209 70.2096 92.1529 70.086 92.0957 70.2165L91.8347 70.1021C91.9896 70.2219 91.8523 70.2395 91.7271 70.2883C91.8141 70.3265 91.8699 70.3768 91.9065 70.4707C91.9691 70.4462 91.9134 70.3959 91.9011 70.3646C92.0072 70.3592 92.2384 70.305 92.3186 70.4179C92.5048 70.5254 92.2233 70.6354 92.453 70.762C93.6017 71.395 94.6879 72.0524 95.8938 72.5548C95.8869 72.6296 95.8747 72.5984 95.8121 72.6228C96.2105 72.7196 96.5273 72.8843 96.8821 72.962C96.9623 73.0749 96.9242 73.1619 96.9486 73.2245C96.9501 73.0436 98.8208 73.8633 98.833 73.8946Z" fill="#121212"/>
<path d="M111.06 57.2911C110.86 57.3331 110.772 57.4759 110.683 57.6186C110.883 57.5766 111.015 57.4529 111.06 57.2911Z" fill="#121212"/>
<path d="M104.53 89.7696C104.549 89.7261 104.568 89.6826 104.587 89.6391C104.536 89.6948 104.517 89.7383 104.53 89.7696Z" fill="#121212"/>
<path d="M107.077 64.7248L107.307 64.8514C107.155 65.1995 106.977 64.8363 106.899 65.1912C107.19 65.4742 106.639 65.7254 106.756 65.9322C106.712 65.9131 106.636 66.0871 106.537 66.0177C106.692 66.1375 106.504 66.2108 106.509 66.3169C106.534 66.3795 106.584 66.3237 106.647 66.2993L106.619 66.5984C106.538 66.6664 106.388 66.6527 106.414 66.5344C106.06 67.1053 104.621 69.9752 104.422 70.6658C104.591 70.636 104.599 70.3804 104.867 70.42C104.921 70.6512 104.709 70.6619 104.802 70.8061C104.447 70.7284 104.543 71.1595 104.169 71.1253L104.324 71.2451L104.155 71.2749C104.018 72.122 104.166 71.487 103.849 72.1518C103.721 72.5624 103.874 72.863 103.692 73.0424C103.711 72.9989 103.848 72.9813 103.854 73.0874C103.692 73.0424 103.87 73.4056 103.677 73.3729C103.651 73.4912 103.486 73.8079 103.761 73.7727C103.624 73.7903 103.434 74.0445 103.424 73.8324C103.386 73.9194 103.304 73.9873 103.309 74.0934L103.422 74.0132C103.313 74.3803 103.063 74.4781 103.185 74.7909L103.329 74.6985C103.265 74.9038 103.189 75.0778 102.965 75.0573L102.985 74.8329C102.864 75.1688 102.757 75.355 102.773 75.6732L102.811 75.5862C102.876 76.0295 102.28 77.9208 102.42 78.3709L102.652 78.3167L102.68 78.6662C102.699 78.6227 102.171 78.2878 102.246 78.2947C102.011 78.8915 100.807 81.994 100.46 82.4902C100.277 82.6695 100.18 82.4193 100.136 82.4002C100.078 82.7116 100.284 82.5948 100.158 82.8245C100.107 82.8802 100.027 82.7673 100.003 82.7047C99.9769 82.823 99.883 82.8597 99.951 82.9413C100.064 82.8612 100.262 83 100.412 83.0137L100.266 83.2869L100.162 83.1114C100.111 83.1672 100.465 83.4257 100.276 83.6799C100.022 84.1394 99.8371 84.6805 99.5839 85.14C99.4969 85.1019 99.5106 84.9523 99.5052 84.8462C99.4549 84.9019 99.4602 85.008 99.3664 85.0447C99.5663 85.0026 99.3894 85.2881 99.471 85.2202C99.6665 85.7207 99.1401 86.0345 99.2364 86.4656C99.5219 86.6426 104.096 89.3989 104.444 89.5514C104.406 89.6384 104.337 89.7376 104.305 89.7498C104.411 89.7444 104.531 89.5895 104.514 89.4521L104.327 89.3446C104.367 89.0767 104.465 89.327 104.56 89.1095C104.722 89.1544 104.67 89.391 104.606 89.5963C104.694 89.4536 104.889 89.3055 104.734 89.1857C104.866 89.0621 104.92 89.2933 105.071 89.1261C105.085 88.9765 105.019 88.714 105.163 88.6216L105.206 88.6407C105.521 88.3376 105.224 87.9485 105.52 87.689L105.544 87.7515C105.688 87.6592 105.684 87.3722 105.867 87.1928C105.816 87.2486 105.667 87.2349 105.724 87.1044C105.925 86.8815 105.914 86.6693 106.121 86.5525L106.055 86.29C106.48 85.439 107.756 81.8756 108.125 80.9742L108.137 81.0055C108.641 79.6187 109.873 76.8657 110.278 75.4096C110.516 75.2805 110.606 74.9569 110.745 74.7585C110.632 74.8386 110.532 74.7692 110.602 74.67C110.919 74.0052 110.534 74.5884 110.752 73.8542C110.965 73.0139 112.429 70.0258 112.896 69.3747C112.85 68.8879 113.203 68.4978 113.244 68.0491L113.268 68.1116C113.353 67.682 114.561 65.5151 114.684 64.9984L114.634 65.0541C114.675 64.6054 114.873 64.7442 115.094 64.4778C114.814 64.4069 114.836 64.0017 114.893 63.8712L114.936 63.8903C114.988 63.6537 114.961 63.1233 115.082 62.7875L115.213 62.8447C115.185 62.4952 115.469 62.0235 115.533 61.8182C115.799 61.39 116.321 60.7892 116.426 60.1352L116.989 59.9152L116.965 59.8527C116.965 59.8527 112.533 57.1849 111.189 57.5295L111.059 57.4723L111.014 57.6341C110.863 57.8013 110.987 57.9333 110.856 57.8761L110.87 57.7265C110.75 57.8815 110.732 57.7441 110.684 57.619C110.645 57.706 110.595 57.7617 110.501 57.7984C110.526 57.8609 110.576 57.8052 110.607 57.793C110.613 57.8991 110.667 58.1303 110.554 58.2104C110.447 58.3967 110.337 58.1151 110.21 58.3449C109.577 59.4936 108.92 60.5797 108.417 61.7856C108.386 61.7978 108.405 61.7543 108.393 61.723C108.296 62.1214 108.131 62.4382 108.053 62.793C107.941 62.8732 107.854 62.8351 107.791 62.8595C107.928 62.8419 107.109 64.7126 107.077 64.7248Z" fill="#121212"/>
</svg>
