<svg xmlns="http://www.w3.org/2000/svg" xmlns:xlink="http://www.w3.org/1999/xlink" width="107" height="211" version="1.1" viewBox="0 0 107 211"><title>Page 1 Copy 5</title><desc>Created with Sketch.</desc><defs><polygon id="path-1" points="105.282 .548 105.282 150.517 .508 150.517 .508 .548 105.282 .548"/></defs><g id="Finals" fill="none" fill-rule="evenodd" stroke="none" stroke-width="1"><g id="Artboard-Copy-20" transform="translate(-733.000000, -14.000000)"><g id="Group-6"><g id="Page-1-Copy-5" transform="translate(790.500000, 144.500000) scale(-1, 1) translate(-790.500000, -144.500000) translate(733.000000, 14.000000)"><g id="Group-3" fill="#BFB09D" transform="translate(17.015306, 0.446846)"><path id="Fill-1" d="M48.1248597,5.92941897 L48.1248597,5.92941897 L19.9527934,5.92941897 L24.2077934,1.70389888 C17.3424107,-1.0808779 9.78174745,-0.195342188 4.88133929,4.66986094 C-0.0190688776,9.53564665 -0.910905612,17.0428922 1.89427296,23.860352 L2.39534439,23.3622382 C4.39200255,27.3407404 8.53317602,30.0911444 13.2921811,30.0911444 L29.4989668,30.0911444 L29.4989668,39.3869391 C29.4989668,49.558948 33.2640434,58.3682806 43.5084311,58.3682806 L48.1248597,54.4835752 C58.3692474,54.4835752 66.7507526,46.1607047 66.7507526,35.9892783 L66.7507526,24.4237158 C66.7507526,14.2517069 58.3692474,5.92941897 48.1248597,5.92941897"/></g><polygon id="Fill-4" fill="#C8B89A" points="65.14 60.491 54.192 60.491 54.192 35.343 65.14 35.083"/><path id="Fill-6" fill="#FFC49D" d="M64.3124592,17.7546998 L17.5649592,17.7546998 L17.5649592,17.8234453 C12.7067959,18.3769051 8.93057143,22.4701775 8.93057143,27.442577 L8.93057143,36.3579408 C8.93057143,39.5114967 10.4566684,42.3055949 12.8077143,44.0743359 L12.8077143,74.9795324 L30.4103418,88.1041038 L58.8388112,94.7916462 L72.9720765,94.7916462 L72.9720765,28.0991551 L64.3124592,17.7546998 Z"/><path id="Fill-8" fill="#C8B89A" d="M39.9079923,77.6996417 L40.324574,77.6996417 C40.324574,76.5222288 40.178477,75.3791886 39.9079923,74.2850859 L39.9079923,77.6996417 Z"/><path id="Fill-16" fill="#BFB09D" d="M69.9913469,16.4816839 C61.1586429,16.4816839 53.9406327,25.1086661 53.4454286,33.7560388 L53.4160918,33.7473 L53.4160918,53.4673647 L75.9654796,65.3376214 C75.9654796,65.3376214 78.4819847,16.4816839 69.9913469,16.4816839"/><path id="Fill-18" fill="#FFC49D" d="M61.6386505,59.2963453 C61.6386505,52.5919078 67.1152321,47.1534368 73.8644413,47.1534368 C80.6224515,47.1534368 86.0984464,52.5919078 86.0984464,59.2963453 C86.0984464,65.9955395 80.6224515,71.4363408 73.8644413,71.4363408 C67.1152321,71.4363408 61.6386505,65.9955395 61.6386505,59.2963453"/><path id="Fill-20" fill="#BFB09D" d="M53.4163265,53.4673065 L53.4163265,64.8511011 L37.4454082,72.2068734 C35.1606633,67.7949248 30.5342602,64.7753645 25.1943878,64.7753645 L12.8078316,64.7753645 L12.8078316,72.2068734 L12.8078316,74.2366145 C12.8078316,85.5382641 22.1146173,94.7915297 33.4509184,94.7915297 L64.8459184,94.7915297 L64.8459184,47.1537864 L53.4163265,53.4673065 Z"/><path id="Fill-22" fill="#FFF" d="M76.296398,80.2461978 L47.9717806,80.2461978 L38.0694592,94.7917045 L24.6807602,94.7917045 C16.6413214,94.7917045 9.89621939,101.144258 12.8064235,109.133305 L12.8064235,184.326356 L47.7934133,184.326356 C59.6601224,184.326356 69.3013469,173.773334 69.548949,162.053385 C71.8284133,155.475952 74.5936939,152.572327 76.1602755,151.493372 L76.1602755,101.937745 L76.296398,101.962796 L76.296398,80.2461978 Z"/><polygon id="Fill-24" fill="#FFC49D" points="12.808 70.407 24.172 64.775 12.808 41.612"/><g id="Group-28" transform="translate(9.387755, 94.243721)"><mask id="mask-2" fill="#fff"><use xlink:href="#path-1"/></mask><path id="Fill-26" fill="#13132D" d="M105.282793,41.2659643 L84.2653699,7.46471652 C81.5570026,2.97178795 76.7751148,0.581424107 71.8571046,0.547633929 L54.9579719,0.547633929 C47.0194515,0.547633929 40.4075383,6.82619866 40.4075383,14.7144576 C40.4075383,14.7832031 40.4198597,14.8531138 40.4198597,14.9218594 L40.4075383,14.9218594 L40.4075383,48.4469598 C40.4075383,56.7756563 45.8571301,63.8721763 53.3520791,66.6056853 L14.0173852,66.6056853 L14.0173852,14.8892344 C14.0173852,6.90077009 20.5342474,0.547633929 28.5789668,0.547633929 L15.3046811,0.547633929 C7.26700255,0.547633929 0.508405612,6.90077009 0.508405612,14.8892344 L0.508405612,68.3994777 L0.508405612,97.8307232 L0.508405612,150.517185 L30.5498087,150.517185 L30.5498087,107.835529 L41.9547577,107.835529 L41.9547577,150.517185 L71.774375,150.517185 L71.774375,108.298105 L89.9537628,108.298105 L80.9069005,85.3190357 L104.021314,58.278154" mask="url(#mask-2)"/></g><path id="Fill-29" fill="#FFC49D" d="M21.4573571,72.2908246 L21.4573571,73.3458937 C21.4573571,77.6960879 25.0417194,81.2557085 29.4228673,81.2557085 C33.8040153,81.2557085 37.3889643,77.6960879 37.3889643,73.3458937 L37.3889643,72.2908246 L21.4573571,72.2908246 Z"/></g></g></g></g></svg>