<svg xmlns="http://www.w3.org/2000/svg" xmlns:xlink="http://www.w3.org/1999/xlink" width="151" height="210" version="1.1" viewBox="0 0 151 210"><title>Page 1 Copy 6</title><desc>Created with Sketch.</desc><defs><polygon id="path-1" points="0 251.399 150.838 251.399 150.838 .367 0 .367"/></defs><g id="Finals" fill="none" fill-rule="evenodd" stroke="none" stroke-width="1"><g id="Artboard-Copy-19" transform="translate(-910.000000, -15.000000)"><g id="Group-6"><g id="Page-1-Copy-6" transform="translate(985.500000, 141.000000) scale(-1, 1) translate(-985.500000, -141.000000) translate(910.000000, 15.000000)"><polygon id="Fill-1" fill="#13132D" points="138.487 190.127 111.799 190.127 111.799 162.015 127.374 161.593"/><g id="Group-27" transform="translate(0.000000, 0.234558)"><path id="Fill-2" fill="#FFB68D" d="M107.397791,9.602042 C107.397791,9.602042 110.073248,28.3444668 112.628263,28.9007914 L112.628263,86.5294024 L71.2866206,86.5294024 C63.7054619,86.5294024 57.1219817,82.9172019 53.1816008,77.3286959 C50.725454,73.8464048 49.2933508,69.5563905 49.2933508,64.794252 L49.2933508,28.4406959 L49.3035373,28.4406959 C49.4036048,21.198252 52.2330571,14.5873117 56.7996087,9.602042 L107.397791,9.602042 Z"/><path id="Fill-4" fill="#D6842B" d="M93.4679813,0.367114081 L77.6591202,0.367114081 C69.429021,0.367114081 61.9916718,3.93360573 56.7995488,9.60210215 L56.9032115,9.60210215 L56.7995488,9.63457947 C57.627652,11.2590473 58.7104179,12.7866845 60.0664218,14.1477251 C65.0596083,19.1594578 72.2596718,20.5788372 78.523775,18.445558 L70.6520012,9.60210215 L85.1773623,9.60210215 C91.4264853,9.93950549 96.5622829,15.0300258 97.1734734,23.0705699 L97.1734734,34.6764029 C97.1734734,44.5086129 102.832378,51.6271618 112.628803,51.6271618 L121.769096,51.6271618 L121.769096,28.4407561 C121.554581,12.9635055 108.936493,0.367114081 93.4679813,0.367114081"/><path id="Fill-6" fill="#FFF" d="M55.9854071,61.8350263 C58.6135262,66.0384344 63.253181,68.8429117 68.5609508,68.8429117 C73.8705183,68.8429117 78.510173,66.0384344 81.1382921,61.8350263 L55.9854071,61.8350263 Z"/><path id="Fill-8" fill="#FFB68D" d="M100.583017,53.1057222 C100.583017,46.4328344 105.953105,41.0157365 112.603696,41.0157365 C119.257283,41.0157365 124.674109,46.4328344 124.674109,53.1057222 C124.674109,59.7930444 119.257283,65.2287866 112.603696,65.2287866 C105.953105,65.2287866 100.583017,59.7930444 100.583017,53.1057222"/><path id="Fill-10" fill="#F2AF80" d="M0,93.359685 C5.75597619,87.5793222 15.0892143,87.5811265 20.8481865,93.359685 L23.8322341,96.3548162 L3.16500794,117.091589 L0,114.288916"/><path id="Fill-12" fill="#13132D" d="M70.2136218,91.2605671 C64.5091774,85.5421518 55.2682171,85.5547819 49.5673679,91.2858272 L34.2378718,106.6464 L31.1621456,103.612176 L10.5164909,124.333913 L23.7056218,137.339278 C23.8032925,137.442725 23.888979,137.553388 23.9902448,137.654429 C29.6958877,143.36683 38.9392448,143.3542 44.6317052,137.629168 L70.2399869,111.975689 C75.9300504,106.244643 75.9168679,96.9663523 70.2136218,91.2605671"/><path id="Fill-14" fill="#13132D" d="M118.510013,251.398568 L118.510013,157.93243 L47.0672393,157.93243 L47.0672393,235.078711 L45.280406,235.078711 C40.7929496,235.078711 37.146779,238.747446 37.146779,243.228115 C37.146779,247.744869 40.7929496,251.398568 45.280406,251.398568"/><path id="Fill-16" fill="#13132D" d="M77.2578317,251.398568 L77.1823317,198.31979 L88.6151889,198.31979 L88.6151889,235.078711 L88.4635897,235.078711 L86.533546,235.078711 C82.0454905,235.078711 78.399919,238.747446 78.399919,243.228115 C78.399919,247.744869 82.0454905,251.398568 86.533546,251.398568"/><path id="Fill-18" fill="#72C8FC" d="M61.8879492,86.5292821 L81.0487706,86.5292821 L92.467846,70.9780554 L112.628743,70.9780554 L112.628743,91.070695 L113.495794,91.070695 L113.495794,147.060404 C111.925275,148.152003 109.153346,151.264413 106.868572,157.933091 L47.0671794,157.933091 L50.4155444,101.178361 C50.4155444,93.0848907 53.8286238,86.5292821 61.8879492,86.5292821"/><polygon id="Fill-20" fill="#72C8FC" points="23.811 96.368 31.163 103.613 10.516 124.334 3.165 117.091"/><path id="Fill-22" fill="#13132D" d="M131.033665,93.6577547 C128.316864,89.1049146 123.523812,86.5644659 118.594142,86.5295828 L101.651582,86.5295828 C93.6923242,86.5295828 87.0645028,93.009411 87.0645028,101.003043 C87.0645028,101.071607 87.0770861,101.143779 87.0770861,101.212943 L87.0645028,101.212943 L87.0645028,138.138461 C87.0645028,148.978671 96.0735702,157.93279 106.868872,157.93279 C106.868872,157.93279 108.5844,162.169879 112.408535,170.425736 L110.983622,173.5189 C117.194396,178.679788 119.533697,181.858958 124.674288,175.625115 L150.837435,148.099979"/><mask id="mask-2" fill="#fff"><use xlink:href="#path-1"/></mask><polygon id="Fill-24" fill="#13132D" points="69.938 167.518 80.961 167.518 80.961 86.529 69.938 86.529" mask="url(#mask-2)"/><path id="Fill-26" fill="#13132D" d="M59.585319,180.497135 L59.585319,100.074853 C59.585319,92.5912353 65.6241206,86.5294024 73.0800452,86.5294024 L60.7783389,86.5294024 C53.330204,86.5294024 47.0667,92.5912353 47.0667,100.074853 L47.0667,180.497135 L59.585319,180.497135 Z" mask="url(#mask-2)"/></g></g></g></g></g></svg>