<?xml version="1.0" encoding="UTF-8" standalone="no"?>
<svg width="463px" height="209px" viewBox="0 0 463 209" version="1.1" xmlns="http://www.w3.org/2000/svg" xmlns:xlink="http://www.w3.org/1999/xlink">
    <!-- Generator: Sketch 43.2 (39069) - http://www.bohemiancoding.com/sketch -->
    <title>Group 8</title>
    <desc>Created with Sketch.</desc>
    <defs>
        <polygon id="path-1" points="0 157.86141 57.7131351 157.86141 57.7131351 -5.68434189e-14 0 -5.68434189e-14"></polygon>
        <polygon id="path-3" points="0 181.565632 108.882782 181.565632 108.882782 0.2649642 0 0.2649642"></polygon>
        <polygon id="path-5" points="0 68.4905214 0 0.613562353 89.7333463 0.613562353 89.7333463 68.4905214 4.38501276e-15 68.4905214"></polygon>
        <polygon id="path-7" points="0 267.386438 93.5779463 267.386438 93.5779463 0.630588235 0 0.630588235"></polygon>
        <polygon id="path-9" points="70.4935 0.365089286 70.4935 100.34479 0.340410714 100.34479 0.340410714 0.365089286 70.4935 0.365089286"></polygon>
    </defs>
    <g id="Finals" stroke="none" stroke-width="1" fill="none" fill-rule="evenodd">
        <g id="Artboard-Copy-28" transform="translate(-750.000000, -16.000000)">
            <g id="Group-6">
                <g id="Group-8" transform="translate(750.000000, 16.000000)">
                    <g id="Page-1" transform="translate(405.000000, 77.000000)">
                        <path d="M0,51.3622673 L0,82.9191764 C0,90.366916 5.97164865,97.0844393 13.4904865,97.0844393 L26.6251351,97.0844393 L26.6251351,51.3622673 L0,51.3622673 Z" id="Fill-1" fill="#CE1111"></path>
                        <mask id="mask-2" fill="white">
                            <use xlink:href="#path-1"></use>
                        </mask>
                        <g id="Clip-4"></g>
                        <polygon id="Fill-3" fill="#FFC49E" mask="url(#mask-2)" points="15.9993784 151.886138 27.9716757 151.886138 27.9716757 127.470673 15.9993784 127.470673"></polygon>
                        <polygon id="Fill-6" fill="#FFC49E" mask="url(#mask-2)" points="37.0663108 151.886138 49.0382162 151.886138 49.0382162 127.470673 37.0663108 127.470673"></polygon>
                        <polygon id="Fill-8" fill="#CE1111" mask="url(#mask-2)" points="50.5926946 85.4741956 49.2865189 98.1999892 49.2865189 134.517473 6.90497838 134.517473 6.90497838 85.4741956"></polygon>
                        <path d="M18.2463297,51.3533386 C11.6884108,51.3533386 6.90537027,56.07354 6.90537027,62.8256138 L6.90537027,95.2412354 L50.0138703,95.2412354 L50.0138703,51.3622673 L18.2463297,51.3533386 Z" id="Fill-9" fill="#13132D" mask="url(#mask-2)"></path>
                        <path d="M29.7237068,62.1886447 L29.7237068,51.3569101 L17.9438284,51.3534162 C11.5936122,51.3534162 7.19658514,55.778969 6.90540946,62.1886447 L29.7237068,62.1886447 Z" id="Fill-10" fill="#13132D" mask="url(#mask-2)"></path>
                        <path d="M49.1782392,110.381944 C53.8723203,110.381944 57.7128608,106.577522 57.7128608,101.927586 L57.7128608,101.289763 L40.6440095,101.289763 L40.6440095,101.927586 C40.6440095,106.577522 44.4837662,110.381944 49.1782392,110.381944" id="Fill-11" fill="#F2AF80" mask="url(#mask-2)"></path>
                        <path d="M49.1782392,51.3533386 C49.0618473,51.3533386 48.9462392,51.3576088 48.8302392,51.3622673 L23.8616311,51.3622673 L23.8616311,80.8744934 C23.8616311,88.3226211 29.9825905,95.4652305 37.5010365,95.4652305 L40.6440095,95.4652305 L40.6440095,101.289491 L57.712077,101.289491 L57.712077,59.8076973 C57.712077,55.1577612 53.8723203,51.3533386 49.1782392,51.3533386" id="Fill-12" fill="#CE1111" mask="url(#mask-2)"></path>
                        <path d="M25.9012324,0.000349385749 L12.3323676,0.000349385749 L12.3323676,0.00888992629 C6.66639459,0.185912039 2.08635405,4.82847224 2.08635405,10.4819219 L2.08635405,25.8230619 C2.08635405,31.5879268 6.84784054,36.3046344 12.6674351,36.3046344 L13.3344351,36.3046344 C19.1540297,36.3046344 25.4830838,31.5879268 25.4830838,25.8230619 L25.9012324,0.000349385749 Z" id="Fill-13" fill="#D6842B" mask="url(#mask-2)"></path>
                        <polygon id="Fill-14" fill="#13132D" mask="url(#mask-2)" points="46.2650716 24.4599916 39.5010176 24.4599916 39.5010176 51.3518246 49.2583419 45.29037"></polygon>
                        <polygon id="Fill-15" fill="#FFC49D" mask="url(#mask-2)" points="25.8260676 51.351941 39.501527 51.351941 39.501527 14.2805602 25.8260676 14.2805602"></polygon>
                        <path d="M29.6513635,51.2722034 C40.6161068,39.6361052 33.8649851,20.7603459 25.8257149,14.2804049 L6.86676892,14.2804049 L6.86676892,38.360459 C6.86676892,45.7759774 12.9152284,51.2722034 20.3133635,51.2722034 L37.3261743,51.2722034 L37.3289176,51.2722034 L29.6513635,51.2722034 Z" id="Fill-16" fill="#FFC49D" mask="url(#mask-2)"></path>
                        <path d="M32.6322892,32.7768865 C32.6322892,29.0361297 35.6953162,20.8907833 39.469627,20.8907833 C43.2490324,20.8907833 46.3116676,29.0361297 46.3116676,32.7768865 C46.3116676,36.5145376 43.2490324,39.5503115 39.469627,39.5503115 C35.6953162,39.5503115 32.6322892,36.5145376 32.6322892,32.7768865" id="Fill-17" fill="#FFC49D" mask="url(#mask-2)"></path>
                        <path d="M51.0293797,1.95861769 C49.29565,0.728391646 47.1774743,0.000116461916 44.8943122,0.000116461916 L17.9055014,0.000116461916 C12.0859068,0.000116461916 4.90762297,4.71682408 4.90762297,10.4816889 L4.90762297,24.4598364 L22.0528932,24.4598364 C27.0424608,24.4598364 30.5953527,20.5121656 31.0624878,15.5873794 C38.4182986,20.3677528 43.6179203,27.8104457 43.6179203,37.1914531 C43.6179203,42.3852663 42.1357851,47.2347405 39.5720284,51.3532221 C40.5901635,51.3730206 55.4753932,52.1494334 55.4753932,39.2718511 L55.4753932,10.4816889 L55.4753932,10.118716 C55.4753932,6.70599361 53.7067851,3.70399361 51.0293797,1.95861769" id="Fill-18" fill="#D6842B" mask="url(#mask-2)"></path>
                        <path d="M15.9994568,37.8809853 C16.5967,39.8138649 18.4111595,41.2199484 20.5583351,41.2199484 C22.704727,41.2199484 24.5191865,39.8138649 25.1168216,37.8809853 L15.9994568,37.8809853 Z" id="Fill-19" fill="#E2352D" mask="url(#mask-2)"></path>
                    </g>
                    <g id="Page-1-Copy-6" transform="translate(307.500000, 140.000000) scale(-1, 1) translate(-307.500000, -140.000000) translate(253.000000, 49.000000)">
                        <polygon id="Fill-1" fill="#13132D" points="99.9677929 137.313744 80.7024754 137.313744 80.7024754 117.010971 91.9454794 116.706045"></polygon>
                        <g id="Group-27" transform="translate(0.000000, 0.169403)">
                            <path d="M77.5255579,6.93480811 C77.5255579,6.93480811 79.4568476,20.4710038 81.3011968,20.8727938 L81.3011968,62.4934573 L51.458554,62.4934573 C45.9860619,62.4934573 41.2337484,59.8846458 38.3893675,55.8485026 C36.6163873,53.3335146 35.5826175,50.2351709 35.5826175,46.7958487 L35.5826175,20.5405026 L35.5899706,20.5405026 C35.6622048,15.3098487 37.7046571,10.5352807 41.0010421,6.93480811 L77.5255579,6.93480811 Z" id="Fill-2" fill="#FFB68D"></path>
                            <path d="M67.4702647,0.265137947 L56.0585702,0.265137947 C50.1176377,0.265137947 44.7489552,2.84093747 41.0009988,6.93485155 L41.0758282,6.93485155 L41.0009988,6.9583074 C41.5987687,8.13153413 42.3803679,9.23482768 43.3592052,10.2178014 C46.9635583,13.8373862 52.1609552,14.8624936 56.682725,13.3217919 L51.0004512,6.93485155 L61.4856456,6.93485155 C65.996602,7.17853174 69.7038996,10.8550186 70.1450901,16.6620783 L70.1450901,25.0440687 C70.1450901,32.1451093 74.2299948,37.2862835 81.3015861,37.2862835 L87.8995464,37.2862835 L87.8995464,20.5405461 C87.7446972,9.36253174 78.6362766,0.265137947 67.4702647,0.265137947" id="Fill-4" fill="#D6842B"></path>
                            <path d="M40.4133071,44.6586301 C42.3104262,47.6944248 45.659581,49.7198807 49.4910175,49.7198807 C53.3237516,49.7198807 56.6729063,47.6944248 58.5700254,44.6586301 L40.4133071,44.6586301 Z" id="Fill-6" fill="#FFFFFF"></path>
                            <path d="M72.6062841,38.3541327 C72.6062841,33.5348248 76.4827048,29.6224764 81.2834627,29.6224764 C86.0863833,29.6224764 89.9965421,33.5348248 89.9965421,38.3541327 C89.9965421,43.1838654 86.0863833,47.1096792 81.2834627,47.1096792 C76.4827048,47.1096792 72.6062841,43.1838654 72.6062841,38.3541327" id="Fill-8" fill="#FFB68D"></path>
                            <path d="M0,67.4264391 C4.15497619,63.2517327 10.8922143,63.2530358 15.0493532,67.4264391 L17.2034008,69.5895895 L2.2846746,84.566148 L0,82.5419952" id="Fill-10" fill="#F2AF80"></path>
                            <path d="M50.6840052,65.9104095 C46.5662274,61.780443 39.8956004,61.7895647 35.7804179,65.928653 L24.7147552,77.0224 L22.494529,74.8310158 L7.59137421,89.796715 L17.1120052,99.1894788 C17.1825091,99.26419 17.2443623,99.3441136 17.3174615,99.4170874 C21.4361044,103.54271 28.1084615,103.533589 32.2175885,99.3988439 L50.7030369,80.8713308 C54.8104337,76.7322425 54.8009179,70.0312544 50.6840052,65.9104095" id="Fill-12" fill="#13132D"></path>
                            <path d="M85.5469631,181.565632 L85.5469631,114.06231 L33.9756893,114.06231 L33.9756893,169.779069 L32.685856,169.779069 C29.4465663,169.779069 26.8145623,172.428711 26.8145623,175.664749 C26.8145623,178.92685 29.4465663,181.565632 32.685856,181.565632" id="Fill-14" fill="#13132D"></path>
                            <path d="M55.7688984,181.565632 L55.7143984,143.230959 L63.9672556,143.230959 L63.9672556,169.779069 L63.857823,169.779069 L62.4646127,169.779069 C59.2248905,169.779069 56.593319,172.428711 56.593319,175.664749 C56.593319,178.92685 59.2248905,181.565632 62.4646127,181.565632" id="Fill-16" fill="#13132D"></path>
                            <path d="M44.6740825,62.4933704 L58.505404,62.4933704 L66.7483127,51.2619289 L81.3015429,51.2619289 L81.3015429,65.7732797 L81.9274278,65.7732797 L81.9274278,106.210292 C80.7937413,106.998669 78.7928127,109.246521 77.1435389,114.062788 L33.975646,114.062788 L36.3926778,73.0732606 C36.3926778,67.2279766 38.8564238,62.4933704 44.6740825,62.4933704" id="Fill-18" fill="#72C8FC"></path>
                            <polygon id="Fill-20" fill="#72C8FC" points="17.1879591 69.5989284 22.495221 74.8313198 7.59120119 89.7970191 2.28437183 84.5659308"></polygon>
                            <path d="M94.5872155,67.6417117 C92.6260806,64.3535494 89.1661956,62.5187809 85.6076917,62.4935876 L73.3776321,62.4935876 C67.6322075,62.4935876 62.8478861,67.1734635 62.8478861,72.9466425 C62.8478861,72.9961604 62.8569694,73.0482845 62.8569694,73.0982368 L62.8478861,73.0982368 L62.8478861,99.7666663 C62.8478861,107.595707 69.3511202,114.062571 77.1437552,114.062571 C77.1437552,114.062571 78.3821163,117.12269 81.1425845,123.085253 L80.1140052,125.319206 C84.597279,129.046514 86.2859139,131.34258 89.9966718,126.840361 L108.882652,106.961096" id="Fill-22" fill="#13132D"></path>
                            <mask id="mask-4" fill="white">
                                <use xlink:href="#path-3"></use>
                            </mask>
                            <g id="Clip-25"></g>
                            <polygon id="Fill-24" fill="#13132D" mask="url(#mask-4)" points="50.4851667 120.98526 58.4421667 120.98526 58.4421667 62.493327 50.4851667 62.493327"></polygon>
                            <path d="M43.011919,130.359042 L43.011919,72.2762831 C43.011919,66.8714477 47.371054,62.4934573 52.7531452,62.4934573 L43.8731056,62.4934573 C38.4966373,62.4934573 33.9753,66.8714477 33.9753,72.2762831 L33.9753,130.359042 L43.011919,130.359042 Z" id="Fill-26" fill="#13132D" mask="url(#mask-4)"></path>
                        </g>
                    </g>
                    <g id="Page-1" transform="translate(116.000000, 0.000000)">
                        <path d="M81.6890282,57.894432 L79.8746389,49.5807567 L79.8746389,50.9794014 C76.4332295,48.7439661 72.3186792,47.4556744 67.8987866,47.4985544 C56.6049074,47.6089073 47.1519141,56.6074014 46.5279812,67.8797967 C46.0945718,75.7022438 49.8299678,82.6778108 55.7115919,86.8037496 L66.1001691,94.3928791 C66.1001691,94.3928791 80.5730148,83.8210673 80.8947597,83.6047755 C86.9965584,79.5034296 89.7332832,74.1289261 89.7332832,68.5078626 L81.6890282,57.894432 Z" id="Fill-1" fill="#6D5943"></path>
                        <path d="M19.9238993,72.7471181 L28.1145168,72.7471181 C39.0771879,72.7471181 42.0000201,63.7814146 42.0000201,52.8236828 L42.0000201,47.711504 C40.7843289,47.3924264 45.5575101,47.2215369 44.2452953,47.2215369 L11.4985973,45.7623558 C6.26803356,45.7623558 0.010409396,49.8164075 0.010409396,56.1576028 C0.010409396,67.6450287 9.35489262,72.7471181 19.9238993,72.7471181" id="Fill-3" fill="#6D5943"></path>
                        <path d="M65.8476309,49.9932875 C65.8356443,49.9932875 65.8236577,49.9951793 65.8116711,49.9951793 L65.8116711,32.4396028 L47.2419396,5.63329694 L11.4985973,24.3081675 L11.4985973,24.4002334 L11.4985973,70.8607134 C11.4985973,84.4189911 23.0000336,94.3860687 35.5405168,94.3860687 L65.8116711,94.3860687 L65.8116711,74.9765628 C65.8236577,74.9765628 65.8356443,74.9784546 65.8476309,74.9784546 C72.7500067,74.9784546 78.3445839,69.3832452 78.3445839,62.4839793 C78.3445839,55.5859746 72.7500067,49.9932875 65.8476309,49.9932875" id="Fill-5" fill="#FFC49D"></path>
                        <path d="M61.8819034,75.0635209 C61.8819034,72.6092715 63.8697826,70.622288 66.3238765,70.622288 C68.7767087,70.622288 70.7652188,72.6092715 70.7652188,75.0635209 C70.7652188,77.5146174 68.7767087,79.5034927 66.3238765,79.5034927 C63.8697826,79.5034927 61.8819034,77.5146174 61.8819034,75.0635209" id="Fill-7" fill="#FFFFFF"></path>
                        <g id="Group-11" transform="translate(0.000000, 0.017026)">
                            <mask id="mask-6" fill="white">
                                <use xlink:href="#path-5"></use>
                            </mask>
                            <g id="Clip-10"></g>
                            <path d="M49.2767557,0.613373176 L40.6281248,0.613373176 C20.4395745,0.613373176 0.0100308725,15.7764979 0.0100308725,37.2436132 L0.0100308725,48.5670861 C0.0100308725,48.9612038 -0.0126805369,55.3610438 0.0100308725,55.7494861 C0.0100308725,50.4777685 6.26828591,46.0333826 11.4982188,46.0333826 L19.6200711,45.968432 C19.6200711,45.968432 35.6316148,46.8695426 47.3519638,33.6145779 C47.3519638,33.6145779 49.2445812,68.4905214 79.8980443,68.4905214 L89.7333463,68.4905214 L89.7333463,37.2555944 C89.7333463,16.1617873 70.2753463,0.613373176 49.2767557,0.613373176" id="Fill-9" fill="#BFB09D" mask="url(#mask-6)"></path>
                        </g>
                        <path d="M23.3660027,72.3755125 C25.6182174,75.9622984 29.5939758,78.3560113 34.1438282,78.3560113 C38.6936805,78.3560113 42.6694389,75.9622984 44.9216537,72.3755125 L23.3660027,72.3755125 Z" id="Fill-12" fill="#E2352D"></path>
                        <mask id="mask-8" fill="white">
                            <use xlink:href="#path-7"></use>
                        </mask>
                        <g id="Clip-15"></g>
                        <polygon id="Fill-19" fill="#13132D" mask="url(#mask-8)" points="80.1842711 160.398883 80.1842711 170.475052 80.1842711 232.200182 11.4986604 232.200182 11.4986604 160.398883"></polygon>
                        <path d="M80.8943181,94.4306513 L80.894949,94.3858795 L29.7557946,94.3858795 C19.3968685,94.3858795 11.794855,101.762501 11.5122242,112.399894 L11.5014993,112.399894 L11.5014993,112.889861 C11.5008685,112.93148 11.498345,112.971837 11.498345,113.014087 L11.498345,159.096214 L11.5014993,159.096214 L11.5014993,160.399009 L66.1003584,160.399009 L66.1003584,175.507903 L93.5780094,175.507903 L93.5780094,108.125767 C93.5780094,100.927602 87.9619826,94.9748489 80.8943181,94.4306513" id="Fill-20" fill="#1730AD" mask="url(#mask-8)"></path>
                        <path d="M80.1842711,190.276721 C87.7408617,190.276721 93.577694,184.096956 93.577694,176.54377 L93.577694,175.507714 L66.100043,175.507714 L66.100043,176.54377 C66.100043,184.096956 72.6276805,190.276721 80.1842711,190.276721" id="Fill-21" fill="#FFC49D" mask="url(#mask-8)"></path>
                        <polygon id="Fill-22" fill="#FFC49D" mask="url(#mask-8)" points="39.4547651 90.2422842 39.4547651 114.455611 66.1002953 94.3858795"></polygon>
                    </g>
                    <g id="Page-1-Copy-5" transform="translate(38.500000, 151.000000) scale(-1, 1) translate(-38.500000, -151.000000) translate(0.000000, 64.000000)">
                        <g id="Group-3" transform="translate(11.392857, 0.297897)" fill="#BFB09D">
                            <path d="M32.2227321,3.95294598 L32.2227321,3.95294598 L13.3596964,3.95294598 L16.2086964,1.13593259 C11.611875,-0.720585268 6.54951786,-0.130228125 3.268375,3.11324063 C-0.0127678571,6.35709777 -0.609910714,11.3619281 1.26833929,15.9069013 L1.60383929,15.5748254 C2.94073214,18.2271603 5.71351786,20.0607629 8.89998214,20.0607629 L19.7514821,20.0607629 L19.7514821,26.2579594 C19.7514821,33.0392987 22.2724464,38.9121871 29.1317321,38.9121871 L32.2227321,36.3223835 C39.0820179,36.3223835 44.6939821,30.7738031 44.6939821,23.9928522 L44.6939821,16.2824772 C44.6939821,9.50113795 39.0820179,3.95294598 32.2227321,3.95294598" id="Fill-1"></path>
                        </g>
                        <polygon id="Fill-4" fill="#C8B89A" points="43.6155893 40.3270246 36.284875 40.3270246 36.284875 23.5620469 43.6155893 23.3888237"></polygon>
                        <path d="M43.0613857,11.8364665 L11.7608857,11.8364665 L11.7608857,11.8822969 C8.50802857,12.2512701 5.9796,14.9801183 5.9796,18.2950513 L5.9796,24.2386272 C5.9796,26.3409978 7.00142143,28.2037299 8.5756,29.3828906 L8.5756,49.9863549 L20.3617071,58.7360692 L39.3964214,63.1944308 L48.8595643,63.1944308 L48.8595643,18.7327701 L43.0613857,11.8364665 Z" id="Fill-6" fill="#FFC49D"></path>
                        <path d="M46.8637714,10.9877893 C40.9497,10.9877893 36.1167714,16.7391107 35.7852,22.5040259 L35.7655571,22.4982 L35.7655571,35.6449098 L50.8638429,43.5584143 C50.8638429,43.5584143 52.5488071,10.9877893 46.8637714,10.9877893" id="Fill-16" fill="#BFB09D"></path>
                        <path d="M41.2710964,39.5308969 C41.2710964,35.0612719 44.938025,31.4356246 49.4570607,31.4356246 C53.9819893,31.4356246 57.648525,35.0612719 57.648525,39.5308969 C57.648525,43.9970263 53.9819893,47.6242272 49.4570607,47.6242272 C44.938025,47.6242272 41.2710964,43.9970263 41.2710964,39.5308969" id="Fill-18" fill="#FFC49D"></path>
                        <path d="M35.7657143,35.644871 L35.7657143,43.2340674 L25.0721429,48.1379156 C23.5423571,45.1966165 20.4446786,43.1835763 16.8692857,43.1835763 L8.57567857,43.1835763 L8.57567857,48.1379156 L8.57567857,49.4910763 C8.57567857,57.0255094 14.8071786,63.1943531 22.3975714,63.1943531 L43.4185714,63.1943531 L43.4185714,31.4358576 L35.7657143,35.644871 Z" id="Fill-20" fill="#BFB09D"></path>
                        <path d="M51.0854143,53.4974652 L32.1202357,53.4974652 L25.4899857,63.1944696 L16.5253786,63.1944696 C11.14245,63.1944696 6.62616429,67.4295054 8.57473571,72.7555366 L8.57473571,122.884237 L32.0008071,122.884237 C39.9463429,122.884237 46.4017714,115.848889 46.5675571,108.03559 C48.0938071,103.650635 49.9453429,101.714885 50.9942714,100.995581 L50.9942714,67.9584964 L51.0854143,67.9751973 L51.0854143,53.4974652 Z" id="Fill-22" fill="#FFFFFF"></path>
                        <polygon id="Fill-24" fill="#FFC49D" points="8.57571786 46.9382089 16.1849679 43.1836152 8.57571786 27.7411152"></polygon>
                        <g id="Group-28" transform="translate(6.285714, 62.829147)">
                            <mask id="mask-10" fill="white">
                                <use xlink:href="#path-9"></use>
                            </mask>
                            <g id="Clip-27"></g>
                            <path d="M70.4936964,27.5106429 L56.4211607,4.97647768 C54.6077321,1.98119196 51.4059464,0.387616071 48.1130179,0.365089286 L36.7979464,0.365089286 C31.4825893,0.365089286 27.0554821,4.55079911 27.0554821,9.80963839 C27.0554821,9.85546875 27.0637321,9.90207589 27.0637321,9.94790625 L27.0554821,9.94790625 L27.0554821,32.2979732 C27.0554821,37.8504375 30.7043393,42.5814509 35.7226964,44.4037902 L9.38555357,44.4037902 L9.38555357,9.92615625 C9.38555357,4.60051339 13.7490179,0.365089286 19.1354821,0.365089286 L10.2474821,0.365089286 C4.86573214,0.365089286 0.340410714,4.60051339 0.340410714,9.92615625 L0.340410714,45.5996518 L0.340410714,65.2204821 L0.340410714,100.34479 L20.4550893,100.34479 L20.4550893,71.8903527 L28.0914464,71.8903527 L28.0914464,100.34479 L48.057625,100.34479 L48.057625,72.1987366 L60.2299107,72.1987366 L54.1724464,56.8793571 L69.6490536,38.8521027" id="Fill-26" fill="#13132D" mask="url(#mask-10)"></path>
                        </g>
                        <path d="M14.3671,48.193883 L14.3671,48.8972625 C14.3671,51.797392 16.7670643,54.1704723 19.7005286,54.1704723 C22.6339929,54.1704723 25.03435,51.797392 25.03435,48.8972625 L25.03435,48.193883 L14.3671,48.193883 Z" id="Fill-29" fill="#FFC49D"></path>
                    </g>
                </g>
            </g>
        </g>
    </g>
</svg>