<?xml version="1.0" encoding="UTF-8" standalone="no"?>
<svg width="447px" height="209px" viewBox="0 0 447 209" version="1.1" xmlns="http://www.w3.org/2000/svg" xmlns:xlink="http://www.w3.org/1999/xlink">
    <!-- Generator: Sketch 43.2 (39069) - http://www.bohemiancoding.com/sketch -->
    <title>Group 8</title>
    <desc>Created with Sketch.</desc>
    <defs>
        <polygon id="path-1" points="0 149.868428 54.727973 149.868428 54.727973 -5.68434189e-14 0 -5.68434189e-14"></polygon>
        <polygon id="path-3" points="0 189.502928 113.877405 189.502928 113.877405 0.276547335 0 0.276547335"></polygon>
        <polygon id="path-5" points="0 68.4905214 0 0.613562353 89.7333463 0.613562353 89.7333463 68.4905214 4.38501276e-15 68.4905214"></polygon>
        <polygon id="path-7" points="0 267.386438 93.5779463 267.386438 93.5779463 0.630588235 0 0.630588235"></polygon>
        <polygon id="path-9" points="63.1695 0.329419643 63.1695 90.5409888 0.305043367 90.5409888 0.305043367 0.329419643 63.1695 0.329419643"></polygon>
    </defs>
    <g id="Finals" stroke="none" stroke-width="1" fill="none" fill-rule="evenodd">
        <g id="Artboard-Copy-28" transform="translate(-762.000000, -16.000000)">
            <g id="Group-6">
                <g id="Group-8" transform="translate(762.000000, 16.000000)">
                    <g id="Page-1" transform="translate(392.000000, 85.000000)">
                        <path d="M0,48.7616462 L0,78.7207371 C0,85.7913759 5.66277027,92.1687715 12.7927027,92.1687715 L25.247973,92.1687715 L25.247973,48.7616462 L0,48.7616462 Z" id="Fill-1" fill="#CE1111"></path>
                        <mask id="mask-2" fill="white">
                            <use xlink:href="#path-1"></use>
                        </mask>
                        <g id="Clip-4"></g>
                        <polygon id="Fill-3" fill="#FFC49E" mask="url(#mask-2)" points="15.1718243 144.1957 26.5248649 144.1957 26.5248649 121.016462 15.1718243 121.016462"></polygon>
                        <polygon id="Fill-6" fill="#FFC49E" mask="url(#mask-2)" points="35.1490878 144.1957 46.5017568 144.1957 46.5017568 121.016462 35.1490878 121.016462"></polygon>
                        <polygon id="Fill-8" fill="#CE1111" mask="url(#mask-2)" points="47.9758311 81.1463882 46.7372162 93.2278378 46.7372162 127.706462 6.54782432 127.706462 6.54782432 81.1463882"></polygon>
                        <path d="M17.3025541,48.7531695 C11.0838378,48.7531695 6.54819595,53.2343735 6.54819595,59.64457 L6.54819595,90.4188943 L47.4269459,90.4188943 L47.4269459,48.7616462 L17.3025541,48.7531695 Z" id="Fill-9" fill="#13132D" mask="url(#mask-2)"></path>
                        <path d="M28.1862736,59.0398526 L28.1862736,48.7565602 L17.0156993,48.7532432 C10.9939426,48.7532432 6.82434797,52.9547174 6.54823311,59.0398526 L28.1862736,59.0398526 Z" id="Fill-10" fill="#13132D" mask="url(#mask-2)"></path>
                        <path d="M46.6345372,104.792985 C51.0858209,104.792985 54.7277128,101.181192 54.7277128,96.7666953 L54.7277128,96.1611671 L38.5417331,96.1611671 L38.5417331,96.7666953 C38.5417331,101.181192 42.1828818,104.792985 46.6345372,104.792985" id="Fill-11" fill="#F2AF80" mask="url(#mask-2)"></path>
                        <path d="M46.6345372,48.7531695 C46.5241655,48.7531695 46.4145372,48.7572236 46.3045372,48.7616462 L22.6274088,48.7616462 L22.6274088,76.7795823 C22.6274088,83.8505897 28.4317669,90.6315479 35.5613277,90.6315479 L38.5417331,90.6315479 L38.5417331,96.1609091 L54.7269696,96.1609091 L54.7269696,56.7794595 C54.7269696,52.3649631 51.0858209,48.7531695 46.6345372,48.7531695" id="Fill-12" fill="#CE1111" mask="url(#mask-2)"></path>
                        <path d="M24.5615135,0.000331695332 L11.6944865,0.000331695332 L11.6944865,0.00843980344 C6.32158108,0.176498771 1.97843919,4.58399263 1.97843919,9.95119165 L1.97843919,24.5155651 C1.97843919,29.9885381 6.49364189,34.4664251 12.012223,34.4664251 L12.644723,34.4664251 C18.1633041,34.4664251 24.1649932,29.9885381 24.1649932,24.5155651 L24.5615135,0.000331695332 Z" id="Fill-13" fill="#D6842B" mask="url(#mask-2)"></path>
                        <polygon id="Fill-14" fill="#13132D" mask="url(#mask-2)" points="43.8720507 23.2215111 37.4578615 23.2215111 37.4578615 48.7517322 46.7104966 42.9971867"></polygon>
                        <polygon id="Fill-15" fill="#FFC49D" mask="url(#mask-2)" points="24.4902365 48.7518428 37.4583446 48.7518428 37.4583446 13.5574939 24.4902365 13.5574939"></polygon>
                        <path d="M28.1176723,48.6761425 C38.5152736,37.6292138 32.113348,19.7091892 24.489902,13.5573464 L6.51159122,13.5573464 L6.51159122,36.4181572 C6.51159122,43.4582064 12.2471993,48.6761425 19.2626723,48.6761425 L35.3955101,48.6761425 L35.3981115,48.6761425 L28.1176723,48.6761425 Z" id="Fill-16" fill="#FFC49D" mask="url(#mask-2)"></path>
                        <path d="M30.9444122,31.1172973 C30.9444122,27.5659459 33.8490068,19.8330221 37.4280946,19.8330221 C41.0120135,19.8330221 43.9162365,27.5659459 43.9162365,31.1172973 C43.9162365,34.6657002 41.0120135,37.5477641 37.4280946,37.5477641 C33.8490068,37.5477641 30.9444122,34.6657002 30.9444122,31.1172973" id="Fill-17" fill="#FFC49D" mask="url(#mask-2)"></path>
                        <path d="M48.3899291,1.85944717 C46.745875,0.691511057 44.7372601,0.000110565111 42.5721926,0.000110565111 L16.9793547,0.000110565111 C11.4607736,0.000110565111 4.65378041,4.47799754 4.65378041,9.95097052 L4.65378041,23.2213636 L20.9122264,23.2213636 C25.6437128,23.2213636 29.0128345,19.4735749 29.4558074,14.798145 C36.4311453,19.3364742 41.3618209,26.4023219 41.3618209,35.3083415 C41.3618209,40.2391769 39.956348,44.8431081 37.5251993,48.753059 C38.4906723,48.771855 52.6059764,49.5089558 52.6059764,37.2834029 L52.6059764,9.95097052 L52.6059764,9.60637592 C52.6059764,6.36644963 50.928848,3.51644963 48.3899291,1.85944717" id="Fill-18" fill="#D6842B" mask="url(#mask-2)"></path>
                        <path d="M15.1718986,35.9629607 C15.73825,37.797973 17.4588581,39.1328624 19.494973,39.1328624 C21.5303446,39.1328624 23.2509527,37.797973 23.8176757,35.9629607 L15.1718986,35.9629607 Z" id="Fill-19" fill="#E2352D" mask="url(#mask-2)"></path>
                    </g>
                    <g id="Page-1-Copy-6" transform="translate(295.000000, 135.500000) scale(-1, 1) translate(-295.000000, -135.500000) translate(238.000000, 40.000000)">
                        <polygon id="Fill-1" fill="#13132D" points="104.553471 143.316531 84.4044238 143.316531 84.4044238 122.126205 96.1631619 121.807948"></polygon>
                        <g id="Group-27" transform="translate(0.000000, 0.176809)">
                            <path d="M81.0817762,7.23796913 C81.0817762,7.23796913 83.1016571,21.3659111 85.0306095,21.7852657 L85.0306095,65.2254117 L53.8190381,65.2254117 C48.0955143,65.2254117 43.1252048,62.5025538 40.1503476,58.2899672 C38.2960381,55.6650343 37.2148476,52.4312439 37.2148476,48.8415688 L37.2148476,21.4384481 L37.2225381,21.4384481 C37.2980857,15.9791317 39.4342286,10.9958394 42.8818238,7.23796913 L81.0817762,7.23796913 Z" id="Fill-2" fill="#FFB68D"></path>
                            <path d="M70.565231,0.276728677 L58.6300643,0.276728677 C52.4166119,0.276728677 46.8016595,2.96513146 42.8817786,7.23801446 L42.9600405,7.23801446 L42.8817786,7.2624957 C43.506969,8.48701103 44.3244214,9.638536 45.3481595,10.6644813 C49.11785,14.4422992 54.5536595,15.5122201 59.28285,13.9041653 L53.3399214,7.23801446 L64.3060881,7.23801446 C69.023969,7.49234734 72.9013262,11.3295549 73.3627548,17.3904751 L73.3627548,26.1388914 C73.3627548,33.55036 77.6350405,38.916285 85.0310167,38.916285 L91.9316357,38.916285 L91.9316357,21.4384934 C91.7696833,9.77182275 82.2434452,0.276728677 70.565231,0.276728677" id="Fill-4" fill="#D6842B"></path>
                            <path d="M42.2671286,46.6109199 C44.2512714,49.779427 47.7540571,51.8934274 51.7612476,51.8934274 C55.7697952,51.8934274 59.272581,49.779427 61.2567238,46.6109199 L42.2671286,46.6109199 Z" id="Fill-6" fill="#FFFFFF"></path>
                            <path d="M75.9368476,40.0308161 C75.9368476,35.0008281 79.9910857,30.917448 85.0120619,30.917448 C90.0353,30.917448 94.1248238,35.0008281 94.1248238,40.0308161 C94.1248238,45.0716846 90.0353,49.1691188 85.0120619,49.1691188 C79.9910857,49.1691188 75.9368476,45.0716846 75.9368476,40.0308161" id="Fill-8" fill="#FFB68D"></path>
                            <path d="M0,70.374043 C4.34557143,66.0168358 11.3918571,66.0181958 15.7396905,70.374043 L17.9925476,72.6317573 L2.38947619,88.2630288 L0,86.1503885" id="Fill-10" fill="#F2AF80"></path>
                            <path d="M53.0089595,68.7917389 C48.7022929,64.4812274 41.7256738,64.4907478 37.4217214,68.8107799 L25.8484595,80.3894995 L23.5263881,78.102317 L7.93960238,93.7222545 L17.8969595,103.525631 C17.9706976,103.603608 18.0353881,103.687026 18.1118405,103.76319 C22.4194119,108.069168 29.3978405,108.059647 33.6954595,103.744149 L53.0288643,84.4066895 C57.3246738,80.0866575 57.3147214,73.09273 53.0089595,68.7917389" id="Fill-12" fill="#13132D"></path>
                            <path d="M89.4711357,189.502928 L89.4711357,119.048641 L35.5342071,119.048641 L35.5342071,177.201105 L34.1852071,177.201105 C30.7973262,177.201105 28.0445881,179.966578 28.0445881,183.344083 C28.0445881,186.748788 30.7973262,189.502928 34.1852071,189.502928" id="Fill-14" fill="#13132D"></path>
                            <path d="M58.3271048,189.502928 L58.2701048,149.492422 L66.9015333,149.492422 L66.9015333,177.201105 L66.787081,177.201105 L65.3299619,177.201105 C61.9416286,177.201105 59.1893429,179.966578 59.1893429,183.344083 C59.1893429,186.748788 61.9416286,189.502928 65.3299619,189.502928" id="Fill-16" fill="#13132D"></path>
                            <path d="M46.7233524,65.225321 L61.1891381,65.225321 L69.8101619,53.5028875 L85.0309714,53.5028875 L85.0309714,68.6486143 L85.6855667,68.6486143 L85.6855667,110.853365 C84.4998762,111.676206 82.4071619,114.022325 80.6822333,119.049139 L35.5341619,119.049139 L38.0620667,76.2677201 C38.0620667,70.1669046 40.6388286,65.225321 46.7233524,65.225321" id="Fill-18" fill="#72C8FC"></path>
                            <polygon id="Fill-20" fill="#72C8FC" points="17.9763976 72.6415045 23.5271119 78.1026343 7.93942143 93.7225718 2.38915952 88.2628021"></polygon>
                            <path d="M98.9260786,70.5987264 C96.8749833,67.1668193 93.2563881,65.2518424 89.53465,65.2255477 L76.7435786,65.2255477 C70.7346024,65.2255477 65.7308167,70.1100083 65.7308167,76.1355667 C65.7308167,76.1872494 65.7403167,76.2416521 65.7403167,76.2937881 L65.7308167,76.2937881 L65.7308167,104.128051 C65.7308167,112.299344 72.5323643,119.048913 80.6824595,119.048913 C80.6824595,119.048913 81.9776262,122.242808 84.8647214,128.46603 L83.7889595,130.797641 C88.4778881,134.687891 90.2439833,137.084333 94.1249595,132.385295 L113.877269,111.636991" id="Fill-22" fill="#13132D"></path>
                            <mask id="mask-4" fill="white">
                                <use xlink:href="#path-3"></use>
                            </mask>
                            <g id="Clip-25"></g>
                            <polygon id="Fill-24" fill="#13132D" mask="url(#mask-4)" points="52.801 126.274233 61.123 126.274233 61.123 65.2252757 52.801 65.2252757"></polygon>
                            <path d="M44.9849429,136.057798 L44.9849429,75.435902 C44.9849429,69.7947897 49.5440381,65.2254117 55.1730143,65.2254117 L45.8856333,65.2254117 C40.2625381,65.2254117 35.5338,69.7947897 35.5338,75.435902 L35.5338,136.057798 L44.9849429,136.057798 Z" id="Fill-26" fill="#13132D" mask="url(#mask-4)"></path>
                        </g>
                    </g>
                    <g id="Page-1" transform="translate(104.000000, 0.000000)">
                        <path d="M81.6890282,57.894432 L79.8746389,49.5807567 L79.8746389,50.9794014 C76.4332295,48.7439661 72.3186792,47.4556744 67.8987866,47.4985544 C56.6049074,47.6089073 47.1519141,56.6074014 46.5279812,67.8797967 C46.0945718,75.7022438 49.8299678,82.6778108 55.7115919,86.8037496 L66.1001691,94.3928791 C66.1001691,94.3928791 80.5730148,83.8210673 80.8947597,83.6047755 C86.9965584,79.5034296 89.7332832,74.1289261 89.7332832,68.5078626 L81.6890282,57.894432 Z" id="Fill-1" fill="#6D5943"></path>
                        <path d="M19.9238993,72.7471181 L28.1145168,72.7471181 C39.0771879,72.7471181 42.0000201,63.7814146 42.0000201,52.8236828 L42.0000201,47.711504 C40.7843289,47.3924264 45.5575101,47.2215369 44.2452953,47.2215369 L11.4985973,45.7623558 C6.26803356,45.7623558 0.010409396,49.8164075 0.010409396,56.1576028 C0.010409396,67.6450287 9.35489262,72.7471181 19.9238993,72.7471181" id="Fill-3" fill="#6D5943"></path>
                        <path d="M65.8476309,49.9932875 C65.8356443,49.9932875 65.8236577,49.9951793 65.8116711,49.9951793 L65.8116711,32.4396028 L47.2419396,5.63329694 L11.4985973,24.3081675 L11.4985973,24.4002334 L11.4985973,70.8607134 C11.4985973,84.4189911 23.0000336,94.3860687 35.5405168,94.3860687 L65.8116711,94.3860687 L65.8116711,74.9765628 C65.8236577,74.9765628 65.8356443,74.9784546 65.8476309,74.9784546 C72.7500067,74.9784546 78.3445839,69.3832452 78.3445839,62.4839793 C78.3445839,55.5859746 72.7500067,49.9932875 65.8476309,49.9932875" id="Fill-5" fill="#FFC49D"></path>
                        <path d="M61.8819034,75.0635209 C61.8819034,72.6092715 63.8697826,70.622288 66.3238765,70.622288 C68.7767087,70.622288 70.7652188,72.6092715 70.7652188,75.0635209 C70.7652188,77.5146174 68.7767087,79.5034927 66.3238765,79.5034927 C63.8697826,79.5034927 61.8819034,77.5146174 61.8819034,75.0635209" id="Fill-7" fill="#FFFFFF"></path>
                        <g id="Group-11" transform="translate(0.000000, 0.017026)">
                            <mask id="mask-6" fill="white">
                                <use xlink:href="#path-5"></use>
                            </mask>
                            <g id="Clip-10"></g>
                            <path d="M49.2767557,0.613373176 L40.6281248,0.613373176 C20.4395745,0.613373176 0.0100308725,15.7764979 0.0100308725,37.2436132 L0.0100308725,48.5670861 C0.0100308725,48.9612038 -0.0126805369,55.3610438 0.0100308725,55.7494861 C0.0100308725,50.4777685 6.26828591,46.0333826 11.4982188,46.0333826 L19.6200711,45.968432 C19.6200711,45.968432 35.6316148,46.8695426 47.3519638,33.6145779 C47.3519638,33.6145779 49.2445812,68.4905214 79.8980443,68.4905214 L89.7333463,68.4905214 L89.7333463,37.2555944 C89.7333463,16.1617873 70.2753463,0.613373176 49.2767557,0.613373176" id="Fill-9" fill="#BFB09D" mask="url(#mask-6)"></path>
                        </g>
                        <path d="M23.3660027,72.3755125 C25.6182174,75.9622984 29.5939758,78.3560113 34.1438282,78.3560113 C38.6936805,78.3560113 42.6694389,75.9622984 44.9216537,72.3755125 L23.3660027,72.3755125 Z" id="Fill-12" fill="#E2352D"></path>
                        <mask id="mask-8" fill="white">
                            <use xlink:href="#path-7"></use>
                        </mask>
                        <g id="Clip-15"></g>
                        <polygon id="Fill-19" fill="#13132D" mask="url(#mask-8)" points="80.1842711 160.398883 80.1842711 170.475052 80.1842711 232.200182 11.4986604 232.200182 11.4986604 160.398883"></polygon>
                        <path d="M80.8943181,94.4306513 L80.894949,94.3858795 L29.7557946,94.3858795 C19.3968685,94.3858795 11.794855,101.762501 11.5122242,112.399894 L11.5014993,112.399894 L11.5014993,112.889861 C11.5008685,112.93148 11.498345,112.971837 11.498345,113.014087 L11.498345,159.096214 L11.5014993,159.096214 L11.5014993,160.399009 L66.1003584,160.399009 L66.1003584,175.507903 L93.5780094,175.507903 L93.5780094,108.125767 C93.5780094,100.927602 87.9619826,94.9748489 80.8943181,94.4306513" id="Fill-20" fill="#1730AD" mask="url(#mask-8)"></path>
                        <path d="M80.1842711,190.276721 C87.7408617,190.276721 93.577694,184.096956 93.577694,176.54377 L93.577694,175.507714 L66.100043,175.507714 L66.100043,176.54377 C66.100043,184.096956 72.6276805,190.276721 80.1842711,190.276721" id="Fill-21" fill="#FFC49D" mask="url(#mask-8)"></path>
                        <polygon id="Fill-22" fill="#FFC49D" mask="url(#mask-8)" points="39.4547651 90.2422842 39.4547651 114.455611 66.1002953 94.3858795"></polygon>
                    </g>
                    <g id="Page-1-Copy-5" transform="translate(34.500000, 155.500000) scale(-1, 1) translate(-34.500000, -155.500000) translate(0.000000, 77.000000)">
                        <g id="Group-3" transform="translate(10.209184, 0.268792)" fill="#BFB09D">
                            <path d="M28.8749158,3.56673862 L28.8749158,3.56673862 L11.971676,3.56673862 L14.524676,1.02495067 C10.4054464,-0.650183259 5.86904847,-0.117504687 2.92880357,2.80907344 C-0.0114413265,5.73600201 -0.546543367,10.2518547 1.13656378,14.3527788 L1.43720663,14.0531471 C2.63520153,16.4463458 5.11990561,18.1008033 7.97530867,18.1008033 L17.6993801,18.1008033 L17.6993801,23.6925266 C17.6993801,29.8113212 19.958426,35.1104217 26.1050587,35.1104217 L28.8749158,32.7736449 C35.0215485,32.7736449 40.0504515,27.7671672 40.0504515,21.648723 L40.0504515,14.6916605 C40.0504515,8.57286585 35.0215485,3.56673862 28.8749158,3.56673862" id="Fill-1"></path>
                        </g>
                        <polygon id="Fill-4" fill="#C8B89A" points="39.0840995 36.3870279 32.5150179 36.3870279 32.5150179 21.2600078 39.0840995 21.1037087"></polygon>
                        <path d="M38.5874755,10.6800301 L10.5389755,10.6800301 L10.5389755,10.7213828 C7.62407755,11.0543069 5.35834286,13.5165435 5.35834286,16.5076038 L5.35834286,21.8704855 C5.35834286,23.767452 6.27400102,25.4481931 7.68462857,26.5121484 L7.68462857,45.1026306 L18.2462051,52.9974877 L35.3032867,57.0202623 L43.7832459,57.0202623 L43.7832459,16.9025569 L38.5874755,10.6800301 Z" id="Fill-6" fill="#FFC49D"></path>
                        <path d="M41.9948082,9.91426964 C36.6951857,9.91426964 32.3643796,15.1036804 32.0672571,20.3053567 L32.0496551,20.3001 L32.0496551,32.1623612 L45.5792878,39.3027071 C45.5792878,39.3027071 47.0891908,9.91426964 41.9948082,9.91426964" id="Fill-16" fill="#BFB09D"></path>
                        <path d="M36.9831903,35.6686828 C36.9831903,31.6357453 40.2691393,28.3643279 44.3186648,28.3643279 C48.3734709,28.3643279 51.6590679,31.6357453 51.6590679,35.6686828 C51.6590679,39.6984663 48.3734709,42.9712855 44.3186648,42.9712855 C40.2691393,42.9712855 36.9831903,39.6984663 36.9831903,35.6686828" id="Fill-18" fill="#FFC49D"></path>
                        <path d="M32.0497959,32.1623261 L32.0497959,39.0100493 L22.4672449,43.4347859 C21.096398,40.7808551 18.3205561,38.9644913 15.1166327,38.9644913 L7.68469898,38.9644913 L7.68469898,43.4347859 L7.68469898,44.6557413 C7.68469898,51.4540516 13.2687704,57.0201922 20.070551,57.0201922 L38.907551,57.0201922 L38.907551,28.3645382 L32.0497959,32.1623261 Z" id="Fill-20" fill="#BFB09D"></path>
                        <path d="M45.7778388,48.2707013 L28.7830684,48.2707013 L22.8416755,57.0202973 L14.8084561,57.0202973 C9.98479286,57.0202973 5.93773163,60.8415652 7.68385408,65.6472371 L7.68385408,110.878306 L28.676048,110.878306 C35.7960735,110.878306 41.5808082,104.53032 41.7293694,97.4803888 C43.097048,93.5238487 44.7562163,91.7772237 45.6961653,91.1281969 L45.6961653,61.3188732 L45.7778388,61.3339424 L45.7778388,48.2707013 Z" id="Fill-22" fill="#FFFFFF"></path>
                        <polygon id="Fill-24" fill="#FFC49D" points="7.68473418 42.352292 14.5034128 38.9645263 7.68473418 25.0307763"></polygon>
                        <g id="Group-28" transform="translate(5.632653, 56.690667)">
                            <mask id="mask-10" fill="white">
                                <use xlink:href="#path-9"></use>
                            </mask>
                            <g id="Clip-27"></g>
                            <path d="M63.169676,24.8228214 L50.5592219,4.49027009 C48.9342015,1.78762723 46.0650689,0.349745536 43.1142628,0.329419643 L32.9747832,0.329419643 C28.2116709,0.329419643 24.244523,4.1061808 24.244523,8.85122545 C24.244523,8.89257812 24.2519158,8.9346317 24.2519158,8.97598437 L24.244523,8.97598437 L24.244523,29.1424241 C24.244523,34.1524062 27.5142781,38.4211942 32.0112474,40.0654888 L8.41043112,40.0654888 L8.41043112,8.95635938 C8.41043112,4.15103795 12.3205485,0.329419643 17.1473801,0.329419643 L9.18280867,0.329419643 C4.36020153,0.329419643 0.305043367,4.15103795 0.305043367,8.95635938 L0.305043367,41.1445134 L0.305043367,58.8483661 L0.305043367,90.5409888 L18.3298852,90.5409888 L18.3298852,64.8665826 L25.1728546,64.8665826 L25.1728546,90.5409888 L43.064625,90.5409888 L43.064625,65.1448371 L53.9722577,65.1448371 L48.5441403,51.3221786 L62.4127883,35.0562076" id="Fill-26" fill="#13132D" mask="url(#mask-10)"></path>
                        </g>
                        <path d="M12.8744143,43.4852853 L12.8744143,44.1199437 C12.8744143,46.7367272 15.0250316,48.8779549 17.6537204,48.8779549 C20.2824092,48.8779549 22.4333786,46.7367272 22.4333786,44.1199437 L22.4333786,43.4852853 L12.8744143,43.4852853 Z" id="Fill-29" fill="#FFC49D"></path>
                    </g>
                </g>
            </g>
        </g>
    </g>
</svg>