<svg xmlns="http://www.w3.org/2000/svg" xmlns:xlink="http://www.w3.org/1999/xlink" width="94" height="209" version="1.1" viewBox="0 0 94 209"><title>Page 1</title><desc>Created with Sketch.</desc><defs><polygon id="path-1" points="0 68.491 0 .614 89.733 .614 89.733 68.491 0 68.491"/><polygon id="path-3" points="0 267.386 93.578 267.386 93.578 .631 0 .631"/></defs><g id="Finals" fill="none" fill-rule="evenodd" stroke="none" stroke-width="1"><g id="Artboard-Copy-19" transform="translate(-546.000000, -16.000000)"><g id="Group-6"><g id="Page-1" transform="translate(546.000000, 16.000000)"><path id="Fill-1" fill="#6D5943" d="M81.6890282,57.894432 L79.8746389,49.5807567 L79.8746389,50.9794014 C76.4332295,48.7439661 72.3186792,47.4556744 67.8987866,47.4985544 C56.6049074,47.6089073 47.1519141,56.6074014 46.5279812,67.8797967 C46.0945718,75.7022438 49.8299678,82.6778108 55.7115919,86.8037496 L66.1001691,94.3928791 C66.1001691,94.3928791 80.5730148,83.8210673 80.8947597,83.6047755 C86.9965584,79.5034296 89.7332832,74.1289261 89.7332832,68.5078626 L81.6890282,57.894432 Z"/><path id="Fill-3" fill="#6D5943" d="M19.9238993,72.7471181 L28.1145168,72.7471181 C39.0771879,72.7471181 42.0000201,63.7814146 42.0000201,52.8236828 L42.0000201,47.711504 C40.7843289,47.3924264 45.5575101,47.2215369 44.2452953,47.2215369 L11.4985973,45.7623558 C6.26803356,45.7623558 0.010409396,49.8164075 0.010409396,56.1576028 C0.010409396,67.6450287 9.35489262,72.7471181 19.9238993,72.7471181"/><path id="Fill-5" fill="#FFC49D" d="M65.8476309,49.9932875 C65.8356443,49.9932875 65.8236577,49.9951793 65.8116711,49.9951793 L65.8116711,32.4396028 L47.2419396,5.63329694 L11.4985973,24.3081675 L11.4985973,24.4002334 L11.4985973,70.8607134 C11.4985973,84.4189911 23.0000336,94.3860687 35.5405168,94.3860687 L65.8116711,94.3860687 L65.8116711,74.9765628 C65.8236577,74.9765628 65.8356443,74.9784546 65.8476309,74.9784546 C72.7500067,74.9784546 78.3445839,69.3832452 78.3445839,62.4839793 C78.3445839,55.5859746 72.7500067,49.9932875 65.8476309,49.9932875"/><path id="Fill-7" fill="#FFF" d="M61.8819034,75.0635209 C61.8819034,72.6092715 63.8697826,70.622288 66.3238765,70.622288 C68.7767087,70.622288 70.7652188,72.6092715 70.7652188,75.0635209 C70.7652188,77.5146174 68.7767087,79.5034927 66.3238765,79.5034927 C63.8697826,79.5034927 61.8819034,77.5146174 61.8819034,75.0635209"/><g id="Group-11" transform="translate(0.000000, 0.017026)"><mask id="mask-2" fill="#fff"><use xlink:href="#path-1"/></mask><path id="Fill-9" fill="#BFB09D" d="M49.2767557,0.613373176 L40.6281248,0.613373176 C20.4395745,0.613373176 0.0100308725,15.7764979 0.0100308725,37.2436132 L0.0100308725,48.5670861 C0.0100308725,48.9612038 -0.0126805369,55.3610438 0.0100308725,55.7494861 C0.0100308725,50.4777685 6.26828591,46.0333826 11.4982188,46.0333826 L19.6200711,45.968432 C19.6200711,45.968432 35.6316148,46.8695426 47.3519638,33.6145779 C47.3519638,33.6145779 49.2445812,68.4905214 79.8980443,68.4905214 L89.7333463,68.4905214 L89.7333463,37.2555944 C89.7333463,16.1617873 70.2753463,0.613373176 49.2767557,0.613373176" mask="url(#mask-2)"/></g><path id="Fill-12" fill="#E2352D" d="M23.3660027,72.3755125 C25.6182174,75.9622984 29.5939758,78.3560113 34.1438282,78.3560113 C38.6936805,78.3560113 42.6694389,75.9622984 44.9216537,72.3755125 L23.3660027,72.3755125 Z"/><mask id="mask-4" fill="#fff"><use xlink:href="#path-3"/></mask><polygon id="Fill-19" fill="#13132D" points="80.184 160.399 80.184 170.475 80.184 232.2 11.499 232.2 11.499 160.399" mask="url(#mask-4)"/><path id="Fill-20" fill="#1730AD" d="M80.8943181,94.4306513 L80.894949,94.3858795 L29.7557946,94.3858795 C19.3968685,94.3858795 11.794855,101.762501 11.5122242,112.399894 L11.5014993,112.399894 L11.5014993,112.889861 C11.5008685,112.93148 11.498345,112.971837 11.498345,113.014087 L11.498345,159.096214 L11.5014993,159.096214 L11.5014993,160.399009 L66.1003584,160.399009 L66.1003584,175.507903 L93.5780094,175.507903 L93.5780094,108.125767 C93.5780094,100.927602 87.9619826,94.9748489 80.8943181,94.4306513" mask="url(#mask-4)"/><path id="Fill-21" fill="#FFC49D" d="M80.1842711,190.276721 C87.7408617,190.276721 93.577694,184.096956 93.577694,176.54377 L93.577694,175.507714 L66.100043,175.507714 L66.100043,176.54377 C66.100043,184.096956 72.6276805,190.276721 80.1842711,190.276721" mask="url(#mask-4)"/><polygon id="Fill-22" fill="#FFC49D" points="39.455 90.242 39.455 114.456 66.1 94.386" mask="url(#mask-4)"/></g></g></g></g></svg>