<svg xmlns="http://www.w3.org/2000/svg" width="124" height="238" xmlns:xlink="http://www.w3.org/1999/xlink"><defs><path id="a" d="M1.96.32L4.3 10.77l-1.94.43L.02.75z"/></defs><g fill="none" fill-rule="evenodd"><path fill="#DC4E1F" d="M71.87 214.33l15.3-4.02-1.9-7.2-2.05.6-2.7-10.2c1.34-.7 4.83-1.9 6.43-2.3l-2.7-10.2c-2.86.9-5.13 2.7-5.8 5.8l-.24.1-1-3.9-12.9 3.4 2 7.8 1.8-.4 3.5 13.2-1.6.4 1.9 7.3z"/><path d="M72.37 197.88l3.84-6.92 5.5 2.95-4.7 9.2"/><path fill="#D3672A" d="M47.46 176.1l13.3-8.22-4.27-6.9-.7.4-7.3-11.8c.4-.58.5-.84 1-1.16.7-.45 1.2-.4 2.1.94l6.5 10.56-.7.4 4.3 6.9 12.4-7.67-4.3-6.9-.7.4-7.4-11.84c.3-.4.6-.8 1.1-1.1.7-.4 1.2-.4 2.1 1l6.5 10.6-.7.4L75 159l13.2-8.1L84 144l-1.42.9-8.92-14.4c-2.7-4.3-6.8-4.3-10.35-2.13-3.8 2.38-4.8 5-5.1 7.98l-.2.2c-2.4-1.8-5.4-1.46-8.1.2-3.9 2.4-4.8 4.97-5 7.9l-.2.13-1.8-2.9-12.2 7.6 4.5 7.4 1.6-.98 7.8 12.6-1.5.95 4.28 6.9z"/><path d="M52.36 146.63l3.84-6.92 5.42 3-4.7 9.2"/><path fill="#F05A22" d="M25.37 79.84c11.42 1 17.8-2.55 18.66-12.5l.18-2.04c.6-6.3-2.8-9.44-9.7-12.4l-1.9-.82c-3.9-1.67-4.9-2.13-4.8-4v-.05c.2-1.44 1.1-2.26 3-2.1.9.08 1.9.3 2.7.72l-.2 3 11.2.97 1-10.8c-2.8-1.2-6.6-2.26-13.5-2.86-11.6-1-17.3 3.38-18 10.87l-.1 1.62c-.7 8.1 2.6 10.5 9.4 13.45l1.9.83c3.4 1.44 4.3 2.12 4.1 4.34v.06c-.1 1.62-1.1 2.68-3.1 2.5-1.5-.13-2.2-.43-2.8-.66l.4-4.25-11.3-1-1.1 11.8c3.3 1.57 7.98 2.76 14.4 3.32"/><path d="M15.38 51.9l3.85-6.9 5.42 2.93-4.7 9.16"/><path fill="#F5811F" d="M39.68 106.38c2.9-2.14 3.43-4 3.7-6.27l.23-.1 1.4 1.8 9.9-7.2-4.1-5.5-1.2.9-11.9-16-10.1 7.5 4.4 5.9 1.1-.8 6.7 9.1c-.1.4-.2.8-.8 1.2-.8.6-1.3.3-2.1-.7L26.6 82l-10.05 7.46 4.4 5.93 1.13-.9 7.62 10.3c2.65 3.5 5.65 4.9 10 1.7"/><path fill="#F9A31A" d="M32.68 124.23l9.7 2.46 1.3-5.1-.5-.2 2.2-8.6c.46-.1.63-.2 1-.1.54.1.76.4.5 1.4l-1.95 7.7-.5-.1-1.27 5 9.1 2.3 1.27-5.1-.5-.1 2.22-8.7c.34-.1.65-.1 1 0 .52.1.75.4.5 1.4l-1.97 7.7-.48-.1-1.3 5 9.66 2.4 1.28-5-1.04-.3 2.68-10.5c.8-3.2-1-5.1-3.6-5.7-2.8-.8-4.44 0-5.96 1.1l-.18-.1c-.25-1.9-1.75-3.16-3.7-3.6-2.82-.8-4.42 0-5.87 1.2l-.18-.1.5-2.1-9-2.27-1.4 5.4 1.1.23-2.4 9.2-1.1-.3-1.3 5.02z"/><path fill="#745511" d="M25.12 68.02l4.96 12.75 1.8-.84-4.85-12.47m27.2 75.4l8.48 21.83 1.9-.8-8.1-20.9"/><path fill="#F1674A" d="M64.57 185.16c3.8 1.07 6.85.95 8.8.35l1.53-5.3c-1.75 0-3.7-.2-6.42-1-2.88-.8-4.16-1.8-3.86-4.1l11.25 3.2.94-3.3c2-7.1-.4-11.6-6.9-13.4-6.9-1.9-11.8 1.1-13.7 7.6l-.6 2.2c-1.8 6.5.3 11.5 9 14zm1.18-14.9c.57-2 1.38-2.58 2.32-2.32.9.26 1.2 1.1.62 3.1l-.1.17-2.9-.8v-.1z"/><path fill="#745511" d="M0 .6l.18 3.22 90.86 233.65 1.85-.72L2 3.03"/><path d="M71.5 181.85l2.9 7.4-1.85.72-2.88-7.4"/><path fill="#DC4E1F" d="M81.37 196.6l-.85-3.22c1.34-.78 4.83-1.96 6.43-2.38l-2.7-10.18c-2.86.86-5.13 2.63-5.8 5.8l-.24.06-1-3.9-12.9 3.4 2.1 7.74 1.8-.47 2.5 6.68 10.9-3.53z"/><path d="M25.98 70.25l-2.88-7.4 1.84-.73 2.9 7.4m2.33 6.08l2.9 7.42-1.86.7-2.8-7.4"/><path fill="#F05A22" d="M44.03 67.34l.18-2.04c.6-6.3-2.8-9.44-9.7-12.4l-1.9-.82c-3.9-1.68-4.9-2.13-4.8-4v-.05c.2-1.44-14.3 4-14.2 5.07.5 5.27 3.7 7.34 9.5 9.8l1.9.83c3.4 1.44 4.3 2.12 4.1 4.34v.06c-.1 1.62 14.3 9.16 15.2-.8"/><path d="M35.05 93.57l-2.88-7.42 1.85-.7 2.88 7.4"/><path fill="#F5811F" d="M43.6 99.94l1.34 1.8 9.84-7.27-4.1-5.53-1.23.9-11.9-16.04-10.07 7.44 4.4 5.9 1.14-.83 6.7 9.1c-.1.4-.27.8-.8 1.2-.8.6 4.7 3.5 4.7 3.5"/><path d="M45.73 121.05l-3.18-8.18 1.85-.72 3.18 8.2m-7.25-18.68l2.57 6.6-1.85.72-2.57-6.7"/><path fill="#F9A31A" d="M32.68 124.23l9.7 2.46 1.3-5.1-.5-.2 2.2-8.6c.46-.1.63-.2 1-.1.54.1.76.4.5 1.4l8.37 1.1c.34-.1.65-.1 1 0 .52.1.75.4.5 1.4l-1.97 7.7-.48-.1-1.3 5 10.94-2.6-1.04-.3 2.68-10.5c.8-3.2-1-5.1-3.6-5.7-2.8-.8-4.44 0-5.96 1.1h-.18c-.25-1.9-1.75-3.2-3.7-3.7-2.82-.8-4.42 0-5.87 1.2l-.18-.1.5-2.1-9-2.3-1.4 5.4 1.1.2-2.4 9.2-1.1-.27-1.3 5.04z"/><path d="M68.53 179.65l-2.88-7.4 1.85-.73 2.88 7.4m-8.25-21.16l2.88 7.4-1.8.72-2.9-7.4"/><path d="M66.4 168.68l1.82 4.7-1.85.72-1.83-4.7m-13-38.9l2.87 7.4-1.8.7-2.9-7.4"/><path fill="#F1674A" d="M64.62 175.05l11.25 3.17.94-3.3c2-7.1-.4-11.6-6.9-13.4-6.9-1.95-11.8 1.08-13.7 7.54l-.6 2.17c-1.8 6.46 8.8 6.08 9.1 3.82zm1.13-4.78c.57-2 1.38-2.6 2.32-2.33.9.26 1.2 1.1.62 3.1l-.1.17-2.9-.8v-.1z"/><path fill="#D3672A" d="M63.75 144.08l-1.78-2.87c.32-.4.6-.8 1.1-1.1.7-.4 1.26-.4 2.1 1l6.54 10.6-.6.4 4.3 6.9 13.2-8.1-4.2-6.9-1.4.9-9-14.5c-2.7-4.3-6.8-4.3-10.3-2.1-3.9 2.4-4.8 5-5.1 8l-.2.2c-2.4-1.8-5.4-1.4-8.1.2-3.9 2.4-4.8 5-5 7.9l7.8 4.1 10.9-4.3z"/><path fill="#50B748" d="M71.1 89.58l19.42 3.07L92 83.4l-2.63-.4 2.68-16.9 2.62.4 1.57-9.88-2.62-.4.08-.52c.18-1.1.72-1.6 1.93-1.4l2.36.38 1.3-8.36c-1-.48-3.4-1.38-6.3-1.84-8.1-1.28-12.9.26-14 7.34l-.4 2.04-1.9-.3-1.6 9.88 1.9.3-2.7 16.9-2-.3-1.4 9.24z"/><path fill="#009350" d="M87.62 119.34c7.97 1.26 14.1-2.64 15.5-11.36l.26-1.7c1.4-8.7-3.25-14.3-11.22-15.57-7.96-1.2-14 2.7-15.4 11.4l-.26 1.7c-1.4 8.7 3.16 14.3 11.12 15.6m1.28-7.7c-1.36-.2-1.56-1.2-1.1-4.1l.8-5c.46-2.9.94-3.7 2.3-3.5 1.36.2 1.56 1.2 1.1 4.1l-.8 5c-.46 2.9-.94 3.8-2.3 3.6"/><path fill="#82C341" d="M113.2 149.24c9.1-4.33 12.67-12.7 7.9-22.65l-.92-2c-4.77-10-13.52-12.5-22.62-8.2-9.1 4.3-12.56 12.6-7.78 22.6l.92 1.9c4.77 9.9 13.4 12.5 22.5 8.2m-4.17-8.9c-1.56.7-2.45-.1-4.04-3.5l-2.8-5.7c-1.6-3.4-1.7-4.6-.2-5.3 1.5-.8 2.4.1 4 3.4l2.7 5.7c1.6 3.3 1.7 4.5.1 5.3"/><path d="M94.07 137.47l3.85-6.92 5.42 2.94-4.7 9.1"/><path fill="#599F63" d="M97.85 179.84c3.04.75 4.86.55 6.55-.8l.26.07-.43 1.8 10.4 2.6 1.6-6.3-1.32-.3 6.5-25.7-11.8-2.9-1.7 6.8 1.7.4-.4 1.6-.3-.1c-.7-.9-2.2-1.8-4.5-2.4-4.8-1.2-9.5 1.3-11.4 9.2l-.6 2.4c-2 7.9-.9 12.3 5.7 13.9m5.4-5.8c-1.2-.3-1.4-1.6-.8-3.9l1.2-4.5c.66-2.6 1.4-3.3 2.67-3 .8.2.95.7 1.1 1.1l-2.6 10.2c-.3.3-.76.4-1.5.2"/><path d="M78.8 69.27l3.86-6.92 5.42 2.95-4.7 9.15"/><path fill="#745511" d="M71.57 18l-.3 3.2L115 216.4l1.95-.44L73.18 20.7l-1.6-2.7"/><g transform="translate(77.213 47.233)"><mask id="b" fill="#fff"><use xlink:href="#a"/></mask><path d="M1.96.32L4.3 10.77l-1.94.43L.02.75" mask="url(#b)"/></g><path d="M102.4 150.96l2.35 10.44-1.94.43-2.3-10.44M94.2 114l2.34 10.45-1.93.43-2.3-10.44M88.1 86.9l2.34 10.44-1.9.42-2.35-10.4"/><path fill="#82C341" d="M123.16 136.34c.25-2.98-.4-6.27-2.06-9.75l-.92-2c-4.77-10-13.52-12.5-22.62-8.2-8.24 3.9-11.85 11.1-8.9 19.8l5.48 2 10.6-2.1-2.47-5.2c-1.6-3.4-1.7-4.6-.15-5.3 1.55-.8 2.44.1 4.03 3.4l2.73 5.7.58 1.3h13.7z"/><path fill="#50B748" d="M91.82 67.57l.23-1.48 2.62.4 1.57-9.9-2.62-.4.08-.5c.18-1.1.72-1.6 1.93-1.4l2.36.3 1.3-8.4c-1-.5-3.4-1.4-6.3-1.9-8.1-1.3-12.9.2-14 7.3l-.4 2-1.9-.3-1.6 9.9 1.9.3-1.3 7.8 15.9-4z"/><path d="M89.87 104.12l-1.74-7.75 1.93-.43 1.74 7.75"/><path fill="#009350" d="M103.38 106.3c1.4-8.73-3.25-14.33-11.22-15.6-7.96-1.25-14 2.66-15.4 11.38l-.26 1.7c-.2 1.28-.27 2.5-.23 3.65h11.55l.78-4.92c.46-2.9.94-3.7 2.3-3.5 1.36.2 1.56 1.2 1.1 4.1l11.2 4.4.18-1.1z"/><path d="M104.5 160.4l1.73 7.76-1.93.43-1.74-7.8"/><path fill="#599F63" d="M117.4 166.87l3.95-15.85-11.87-2.95-1.7 6.8 1.63.4-.3 1.58-.3-.07c-.7-.93-2.2-1.8-4.5-2.4-4.8-1.2-9.4 1.25-11.4 9.14l-.6 2.4c-.1.34-.1.64-.2.95h11.3l.4-1.3c.7-2.62 1.4-3.3 2.7-3 .8.2 1 .65 1.2 1.12l-.8 3.1h10.9z"/></g></svg>