<?xml version="1.0" encoding="UTF-8" standalone="no"?>
<svg width="695px" height="280px" viewBox="0 0 695 280" version="1.1" xmlns="http://www.w3.org/2000/svg" xmlns:xlink="http://www.w3.org/1999/xlink">
    <!-- Generator: Sketch 46.2 (44496) - http://www.bohemiancoding.com/sketch -->
    <title>Group</title>
    <desc>Created with Sketch.</desc>
    <defs></defs>
    <g id="Page-1" stroke="none" stroke-width="1" fill="none" fill-rule="evenodd">
        <g id="Group">
            <path d="M62.42,99.84 L62.42,82.212 L20.612,65.364 L62.42,48.672 L62.42,30.888 L0.8,58.032 L0.8,72.696 L62.42,99.84 Z M107.192,118.716 C115.616,118.716 122.48,116.376 126.224,114.036 L126.224,102.024 C123.728,102.648 120.608,103.116 117.8,103.116 C110,103.116 106.88,100.308 106.88,92.508 L106.88,49.296 L124.976,49.296 L124.976,34.788 L106.88,34.788 L106.88,15.444 L88.004,15.444 L84.884,34.632 L73.028,38.688 L73.028,49.296 L82.7,49.296 L82.7,96.72 C82.7,113.256 91.436,118.716 107.192,118.716 Z M174.428,119.028 C145.724,119.028 131.684,102.492 131.684,75.504 C131.684,48.672 148.376,33.072 172.088,33.072 C197.048,33.072 208.28,46.956 208.28,78.78 L156.644,78.78 C157.892,95.472 166.316,102.336 180.668,102.336 C191.744,102.336 198.608,100.308 204.38,98.436 L204.38,111.072 C198.764,114.66 189.56,119.028 174.428,119.028 Z M156.644,67.236 L184.256,66.3 C184.256,52.104 179.42,47.112 171.464,47.112 C163.196,47.112 157.736,52.26 156.644,67.236 Z M256.64,119.028 C270.368,119.028 279.26,114.972 284.408,111.384 L284.408,98.592 C280.352,100.308 273.02,102.18 264.284,102.18 C249.62,102.18 239.948,95.472 239.948,74.412 C239.948,55.068 246.812,47.424 258.044,47.424 C262.568,47.424 264.284,48.048 266,48.672 L268.496,60.528 L283.472,60.528 L283.472,36.348 C278.168,34.476 268.808,33.072 259.448,33.072 C233.24,33.072 214.52,46.02 214.52,76.44 C214.52,102.648 228.56,119.028 256.64,119.028 Z M290.18,117 L332.3,117 L332.3,105.612 L324.188,103.584 L324.188,53.976 C328.244,52.572 332.3,51.324 337.136,51.324 C345.092,51.324 348.992,53.82 348.992,61.932 L348.992,103.584 L340.88,105.612 L340.88,117 L382.532,117 L382.532,105.612 L373.172,103.272 L373.172,53.82 C373.172,38.844 364.592,33.072 351.332,33.072 C340.256,33.072 332.612,36.816 324.968,42.276 L324.188,42.276 L324.188,1.404 L321.848,0.312 L289.868,3.9 L289.868,15.756 L300.008,18.252 L300.008,103.272 L290.18,105.612 L290.18,117 Z M392.984,99.84 L454.604,72.696 L454.604,58.032 L392.984,30.888 L392.984,48.672 L434.792,65.52 L392.984,82.212 L392.984,99.84 Z" id="&lt;tech&gt;" fill="#4BC6DF"></path>
            <path d="M62.42,230.84 L62.42,213.212 L20.612,196.364 L62.42,179.672 L62.42,161.888 L0.8,189.032 L0.8,203.696 L62.42,230.84 Z M71.156,266.72 L108.596,133.652 L125.6,133.652 L88.16,266.72 L71.156,266.72 Z M154.148,250.028 C145.1,250.028 134.336,248.156 126.38,245.192 L124.976,222.728 L139.484,222.728 L142.916,233.336 C145.256,234.74 149.624,236.144 155.24,236.144 C163.04,236.144 168.032,233.18 168.032,227.252 C168.032,221.636 165.068,219.764 156.488,217.268 L147.596,214.928 C133.088,211.34 125.132,204.32 125.132,190.436 C125.132,175.304 136.052,163.916 159.764,163.916 C169.592,163.916 179.42,165.632 185.66,168.128 L185.66,189.344 L171.62,189.344 L169.124,179.828 C166.94,178.58 163.82,177.488 158.672,177.488 C151.808,177.488 146.504,179.828 146.504,185.6 C146.504,190.748 149.624,193.088 159.14,195.428 L168.656,197.924 C184.724,201.98 190.964,209.78 190.964,222.104 C190.964,238.484 179.732,250.028 154.148,250.028 Z M195.176,279.2 L195.176,267.968 L205.004,265.94 L205.004,182.168 L194.864,179.672 L194.864,167.816 L225.752,164.228 L227.936,165.32 L227.936,173.276 L228.872,173.276 C234.176,168.752 242.132,163.916 253.208,163.916 C268.34,163.916 283.628,172.652 283.628,203.696 C283.628,236.456 265.844,250.028 241.664,250.028 C235.58,250.028 232.46,249.56 229.028,248.936 L229.028,265.784 L240.416,267.968 L240.416,279.2 L195.176,279.2 Z M240.728,235.676 C251.492,235.676 258.356,229.592 258.356,206.972 C258.356,187.784 252.584,181.388 241.82,181.388 C236.36,181.388 231.836,182.948 229.028,184.352 L229.028,232.4 C231.524,233.96 234.332,235.676 240.728,235.676 Z M332.924,250.028 C304.22,250.028 290.18,233.492 290.18,206.504 C290.18,179.672 306.872,164.072 330.584,164.072 C355.544,164.072 366.776,177.956 366.776,209.78 L315.14,209.78 C316.388,226.472 324.812,233.336 339.164,233.336 C350.24,233.336 357.104,231.308 362.876,229.436 L362.876,242.072 C357.26,245.66 348.056,250.028 332.924,250.028 Z M315.14,198.236 L342.752,197.3 C342.752,183.104 337.916,178.112 329.96,178.112 C321.692,178.112 316.232,183.26 315.14,198.236 Z M415.136,250.028 C428.864,250.028 437.756,245.972 442.904,242.384 L442.904,229.592 C438.848,231.308 431.516,233.18 422.78,233.18 C408.116,233.18 398.444,226.472 398.444,205.412 C398.444,186.068 405.308,178.424 416.54,178.424 C421.064,178.424 422.78,179.048 424.496,179.672 L426.992,191.528 L441.968,191.528 L441.968,167.348 C436.664,165.476 427.304,164.072 417.944,164.072 C391.736,164.072 373.016,177.02 373.016,207.44 C373.016,233.648 387.056,250.028 415.136,250.028 Z M448.676,248 L492.044,248 L492.044,236.612 L482.684,234.272 L482.684,165.32 L480.344,164.228 L447.896,167.816 L447.896,179.672 L458.504,182.168 L458.504,234.272 L448.676,236.612 L448.676,248 Z M469.892,156.584 C477.38,156.584 483.464,151.592 483.464,144.26 C483.464,136.772 477.38,131.936 469.892,131.936 C462.404,131.936 456.164,136.772 456.164,144.26 C456.164,151.592 462.404,156.584 469.892,156.584 Z M520.748,250.028 C505.928,250.028 496.1,240.98 496.1,227.564 C496.1,211.964 507.176,206.816 524.648,203.54 L541.028,200.264 L541.028,194.804 C541.028,185.288 538.22,181.7 524.804,181.7 C517.628,181.7 509.048,182.324 503.744,183.26 L503.744,169.844 C511.076,167.036 523.4,164.072 536.192,164.072 C556.16,164.072 565.208,172.496 565.208,190.124 L565.208,230.06 C565.208,234.272 567.704,235.364 571.448,235.364 L574.412,235.364 L574.412,246.284 C571.76,247.844 565.364,249.872 558.968,249.872 C550.7,249.872 545.708,247.064 543.68,240.512 L542.9,240.512 C538.688,245.66 531.2,250.028 520.748,250.028 Z M530.732,235.676 C535.1,235.676 539,233.492 541.028,231.62 L541.028,212.12 L531.044,212.744 C523.244,213.368 520.28,217.112 520.28,224.288 C520.28,231.776 523.4,235.676 530.732,235.676 Z M577.844,248 L621.68,248 L621.68,236.612 L612.008,234.272 L612.008,132.404 L609.668,131.312 L577.064,134.9 L577.064,146.756 L587.828,149.252 L587.828,234.272 L577.844,236.612 L577.844,248 Z M632.6,230.84 L694.22,203.696 L694.22,189.032 L632.6,161.888 L632.6,179.672 L674.408,196.52 L632.6,213.212 L632.6,230.84 Z" id="&lt;/special&gt;" fill="#005689"></path>
        </g>
    </g>
</svg>