<?xml version="1.0" encoding="utf-8"?>
<!-- Generator: Adobe Illustrator 14.0.0, SVG Export Plug-In . SVG Version: 6.00 Build 43363)  -->
<!DOCTYPE svg PUBLIC "-//W3C//DTD SVG 1.1//EN" "http://www.w3.org/Graphics/SVG/1.1/DTD/svg11.dtd">
<svg version="1.1" id="Layer_1" xmlns="http://www.w3.org/2000/svg" xmlns:xlink="http://www.w3.org/1999/xlink" x="0px" y="0px"
	 width="200px" height="36px" viewBox="0 0 200 36" enable-background="new 0 0 200 36" xml:space="preserve">
<title>Page 1</title>
<desc>Created with Sketch.</desc>
<polygon fill="#000105" points="3.55,2.455 2.2,3.511 2.2,33.321 3.55,34.26 40.167,19.238 40.167,17.595 "/>
<g>
	<defs>
		<rect id="SVGID_1_" x="-1" width="187.242" height="36.715"/>
	</defs>
	<clipPath id="SVGID_2_">
		<use xlink:href="#SVGID_1_"  overflow="visible"/>
	</clipPath>
	<path clip-path="url(#SVGID_2_)" fill="#FFFFFF" d="M14.398,8.847c-5.252,0-9.511,4.258-9.511,9.51
		c0,5.254,4.258,9.512,9.511,9.512c5.253,0,9.511-4.258,9.511-9.512C23.909,13.104,19.651,8.847,14.398,8.847"/>
	<path clip-path="url(#SVGID_2_)" fill="#000105" d="M16.029,11.196c1.336,0.196,2.799,1.041,3.373,1.64v2.757H19.1l-3.071-4.091
		V11.196z"/>
	<path clip-path="url(#SVGID_2_)" fill="#000105" d="M15.011,11.369c0,0-0.026,0-0.036,0c-2.158,0-3.4,2.988-3.336,7.019v0.015
		c-0.064,4.029,1.178,7.019,3.336,7.019c0.01,0,0.036-0.001,0.036-0.001v0.312c-3.246,0.221-7.637-2.254-7.574-7.329v-0.015
		c-0.063-5.077,4.328-7.551,7.574-7.33V11.369z"/>
	<path clip-path="url(#SVGID_2_)" fill="#000105" d="M20.42,19.021l-1.018,0.441v4.563c-0.574,0.53-1.974,1.355-3.374,1.641v-0.331
		v-0.623v-5.35l-1.018-0.371v-0.28h5.409V19.021z"/>
	<path clip-path="url(#SVGID_2_)" fill="#000105" d="M55.402,18.582c0,5.019-3.29,7.265-7.169,7.265h-6.676v-0.332l1.319-0.273
		V12.353l-1.319-0.254v-0.332h6.617C52.231,11.767,55.402,13.758,55.402,18.582 M50.834,18.855c0-5.683-0.906-6.738-2.936-6.738
		h-0.867v13.376h0.985C50.026,25.494,50.834,24.245,50.834,18.855"/>
	<path clip-path="url(#SVGID_2_)" fill="#000105" d="M56.013,20.457c0-3.437,2.206-5.566,5.514-5.566s5.554,2.129,5.554,5.584
		c0,3.477-2.206,5.663-5.534,5.663C58.258,26.139,56.013,23.933,56.013,20.457 M59.893,20.476c0,4.219,0.571,5.312,1.674,5.312
		c1.083,0,1.634-1.113,1.634-5.331c0-4.199-0.531-5.214-1.654-5.214C60.464,15.243,59.893,16.278,59.893,20.476"/>
	<path clip-path="url(#SVGID_2_)" fill="#000105" d="M67.691,20.457c0-3.418,2.206-5.566,5.711-5.566
		c1.398,0,2.639,0.117,3.407,0.352l0.059,3.613h-0.334l-2.639-3.574c-0.078-0.019-0.138-0.019-0.216-0.019
		c-1.537,0-2.403,1.601-2.403,4.511c0,3.046,1.043,4.589,3.486,4.589c0.906,0,1.575-0.157,2.146-0.41v0.332
		c-0.709,0.957-1.95,1.815-3.958,1.815C69.443,26.1,67.691,23.796,67.691,20.457"/>
	<path clip-path="url(#SVGID_2_)" fill="#000105" d="M77.203,15.907v-0.332l4.313-0.625l0.473,0.04v8.083
		c0,1.192,0.512,1.523,1.379,1.523c0.492,0,0.926-0.137,1.339-0.312v-7.909l-1.183-0.468v-0.332l4.313-0.625l0.433,0.04v9.626
		l1.163,0.468v0.333L85.18,26.08l-0.434-0.039v-1.366h-0.119c-0.807,0.801-1.89,1.445-3.229,1.445c-2.067,0-3.013-1.211-3.013-3.047
		v-6.698L77.203,15.907z"/>
	<path clip-path="url(#SVGID_2_)" fill="#000105" d="M91.107,25.221v-8.846l-1.183-0.468v-0.332l4.273-0.625l0.434,0.039v1.406h0.12
		c0.924-0.938,1.949-1.504,3.347-1.504c1.242,0,2.009,0.39,2.422,1.523h0.08c0.964-0.977,2.048-1.523,3.446-1.523
		c1.771,0,2.738,0.898,2.738,2.852v7.478l1.141,0.294v0.332h-5.555v-0.332l0.887-0.294v-7.42c0-0.976-0.453-1.367-1.338-1.367
		c-0.434,0-0.867,0.137-1.223,0.332v8.455l0.887,0.294v0.332h-5.239v-0.332l0.906-0.294v-7.42c0-0.976-0.393-1.367-1.319-1.367
		c-0.491,0-0.885,0.157-1.24,0.352v8.436l0.867,0.294v0.332h-5.575v-0.332L91.107,25.221z"/>
	<path clip-path="url(#SVGID_2_)" fill="#000105" d="M111.234,20.125c0.139,2.636,0.984,4.256,3.742,4.256
		c0.906,0,1.674-0.115,2.402-0.429v0.313c-0.611,0.917-2.107,1.873-4.256,1.873c-3.643,0-5.514-2.187-5.514-5.682
		c0-3.418,2.049-5.546,5.357-5.546c3.328,0,4.729,1.757,4.729,4.941v0.272H111.234z M111.234,19.733l3.053-0.136
		c0-3.359-0.453-4.316-1.398-4.316C111.863,15.281,111.234,16.649,111.234,19.733"/>
	<path clip-path="url(#SVGID_2_)" fill="#000105" d="M118.756,25.202v-8.827l-1.182-0.468v-0.332l4.295-0.625l0.434,0.039v1.368
		h0.119c0.924-0.938,2.303-1.465,3.662-1.465c1.869,0,2.697,0.879,2.697,2.832v7.479l1.123,0.312v0.332h-5.711v-0.332l1.004-0.254
		v-7.342c0-1.055-0.473-1.523-1.398-1.523c-0.572,0-1.023,0.136-1.439,0.352v8.514l0.986,0.254v0.332h-5.711v-0.332L118.756,25.202z
		"/>
	<path clip-path="url(#SVGID_2_)" fill="#000105" d="M128.977,15.887v-0.352l1.537-0.391v-1.913l3.584-0.567v2.48h2.385v0.743
		h-2.385v7.108c0,1.093,0.334,1.543,1.518,1.543c0.373,0,0.748-0.039,0.984-0.098v0.333c-0.629,0.662-1.713,1.288-2.996,1.288
		c-2.047,0-3.09-0.938-3.09-3.242v-6.932H128.977z"/>
	<path clip-path="url(#SVGID_2_)" fill="#000105" d="M142.605,19.558v-1.425c0-2.167-0.473-2.87-1.674-2.87
		c-0.139,0-0.256,0.019-0.395,0.039l-2.658,3.573h-0.334l0.078-3.32c1.023-0.312,2.305-0.664,3.998-0.664
		c2.914,0,4.609,0.801,4.609,3.223v6.952l1.043,0.272v0.274c-0.414,0.253-1.242,0.487-2.148,0.487c-1.436,0-2.125-0.468-2.441-1.25
		h-0.098c-0.609,0.82-1.477,1.289-2.834,1.289c-1.734,0-2.918-1.073-2.918-2.928c0-1.797,1.123-2.773,3.408-3.203L142.605,19.558z
		 M142.605,24.362v-4.296l-0.729,0.059c-1.141,0.098-1.557,0.82-1.557,2.421c0,1.738,0.572,2.188,1.379,2.188
		C142.152,24.733,142.408,24.597,142.605,24.362"/>
	<path clip-path="url(#SVGID_2_)" fill="#000105" d="M152.02,14.95l0.354,0.039v3.046h0.1c0.551-2.323,1.457-3.203,2.678-3.203
		c0.197,0,0.414,0.02,0.531,0.079v3.221c-0.195-0.058-0.551-0.078-0.885-0.078c-0.984,0-1.715,0.099-2.344,0.351v6.815l1.457,0.294
		v0.332h-6.184v-0.332l1.123-0.294v-8.846l-1.184-0.468v-0.332L152.02,14.95z"/>
	<path clip-path="url(#SVGID_2_)" fill="#000105" d="M160.35,14.95l0.492,0.04v10.212l1.102,0.312v0.332h-5.828v-0.332l1.123-0.312
		v-8.827l-1.201-0.468v-0.332L160.35,14.95z M160.861,12.411c0,1.035-0.887,1.815-1.91,1.815c-1.064,0-1.891-0.78-1.891-1.815
		c0-1.035,0.826-1.835,1.891-1.835C159.975,10.576,160.861,11.376,160.861,12.411"/>
	<path clip-path="url(#SVGID_2_)" fill="#000105" d="M164.939,20.125c0.137,2.636,0.984,4.256,3.742,4.256
		c0.906,0,1.674-0.115,2.4-0.429v0.313c-0.609,0.917-2.105,1.873-4.252,1.873c-3.646,0-5.516-2.187-5.516-5.682
		c0-3.418,2.047-5.546,5.355-5.546c3.33,0,4.729,1.757,4.729,4.941v0.272H164.939z M164.939,19.733l3.051-0.136
		c0-3.359-0.453-4.316-1.398-4.316C165.568,15.281,164.939,16.649,164.939,19.733"/>
	<path clip-path="url(#SVGID_2_)" fill="#000105" d="M180.143,22.566c0,2.207-1.557,3.533-4.432,3.533
		c-1.301,0-2.639-0.156-3.684-0.546l-0.117-3.163h0.334l2.816,3.261c0.195,0.058,0.414,0.098,0.592,0.098
		c1.199,0,1.752-0.644,1.752-1.641c0-0.879-0.473-1.211-1.715-1.797l-0.65-0.292c-1.967-0.918-3.109-1.876-3.109-3.672
		c0-2.188,1.535-3.476,4.176-3.476c1.082,0,2.264,0.098,3.17,0.352l0.098,2.949h-0.334l-2.148-2.852
		c-0.234-0.079-0.473-0.117-0.689-0.117c-1.062,0-1.535,0.605-1.535,1.485c0,0.957,0.453,1.269,1.773,1.874l0.611,0.273
		C179.078,19.773,180.143,20.613,180.143,22.566"/>
</g>
</svg>
