<?xml version="1.0" encoding="UTF-8" standalone="no"?>
<svg width="200px" height="36px" viewBox="0 0 200 36" version="1.1" xmlns="http://www.w3.org/2000/svg" xmlns:xlink="http://www.w3.org/1999/xlink">
    <!-- Generator: Sketch 45.1 (43504) - http://www.bohemiancoding.com/sketch -->
    <title>Page 1</title>
    <desc>Created with Sketch.</desc>
    <defs>
        <polygon id="path-1" points="3.29308452e-05 35.7848518 42.6678705 35.7848518 42.6678705 0.0408891328 3.29308452e-05 0.0408891328"></polygon>
    </defs>
    <g id="Thrasher" stroke="none" stroke-width="1" fill="none" fill-rule="evenodd">
        <g id="Page-1">
            <path d="M54.6543359,18.541427 C54.6543359,12.1553677 53.6362239,10.9702964 51.3566411,10.9702964 L50.3826564,10.9702964 L50.3826564,26.0027881 L51.4893524,26.0027881 C53.7468716,26.0027881 54.6543359,24.5982876 54.6543359,18.541427 M59.7891328,18.2341822 C59.7891328,23.8740285 56.0929748,26.3977387 51.7328211,26.3977387 L44.2298573,26.3977387 L44.2298573,26.024742 L45.7127333,25.7174973 L45.7127333,11.2336334 L44.2298573,10.9483425 L44.2298573,10.5753458 L51.6664105,10.5753458 C56.2257958,10.5753458 59.7891328,12.8136553 59.7891328,18.2341822" id="Fill-1" fill="#FEFEFE"></path>
            <path d="M64.8349177,20.3628101 C64.8349177,25.1030955 65.4767398,26.3319649 66.7161471,26.3319649 C67.9334907,26.3319649 68.5532492,25.0810318 68.5532492,20.340966 C68.5532492,15.6226345 67.9556641,14.4815807 66.6940834,14.4815807 C65.4767398,14.4815807 64.8349177,15.6446981 64.8349177,20.3628101 M60.474764,20.340966 C60.474764,16.4785071 62.9535785,14.0865203 66.67191,14.0865203 C70.3902415,14.0865203 72.9134029,16.4785071 72.9134029,20.3628101 C72.9134029,24.269067 70.4344786,26.7270252 66.6940834,26.7270252 C62.9979254,26.7270252 60.474764,24.2472228 60.474764,20.340966" id="Fill-3" fill="#FEFEFE"></path>
            <path d="M73.5989572,20.340933 C73.5989572,16.5005379 76.0778814,14.0864874 80.0175082,14.0864874 C81.5888584,14.0864874 82.9832602,14.2182108 83.8463776,14.4815477 L83.9127881,18.5413721 L83.5366081,18.5413721 L80.5707464,14.5254555 C80.4822722,14.5033919 80.4158617,14.5033919 80.3272777,14.5033919 C78.600933,14.5033919 77.6270582,16.3029528 77.6270582,19.5727662 C77.6270582,22.9962569 78.8001647,24.7298463 81.5446213,24.7298463 C82.5627333,24.7298463 83.3152031,24.5544347 83.9570252,24.269034 L83.9570252,24.6421405 C83.1603183,25.7174424 81.7659166,26.6829748 79.5083974,26.6829748 C75.5687706,26.6829748 73.5989572,24.0936224 73.5989572,20.340933" id="Fill-5" fill="#FEFEFE"></path>
            <path d="M84.2886718,15.2276509 L84.2886718,14.8546542 L89.1357629,14.1523491 L89.6669374,14.1962569 L89.6669374,23.2815477 C89.6669374,24.6201866 90.2423491,24.9932931 91.2162239,24.9932931 C91.7695719,24.9932931 92.2563996,24.8396158 92.7212733,24.6421405 L92.7212733,15.7543249 L91.3932821,15.2276509 L91.3932821,14.8546542 L96.2403732,14.1523491 L96.7273106,14.1962569 L96.7273106,25.015247 L98.0331284,25.541921 L98.0331284,25.9149177 L93.2524479,26.6611306 L92.7655104,26.6172228 L92.7655104,25.0811087 L92.6326894,25.0811087 C91.7253348,25.9807794 90.5079912,26.7050384 89.0029418,26.7050384 C86.6790121,26.7050384 85.616663,25.3444457 85.616663,23.2815477 L85.616663,15.7543249 L84.2886718,15.2276509 Z" id="Fill-7" fill="#FEFEFE"></path>
            <path d="M99.9137212,25.6955214 L99.9137212,15.7543578 L98.58573,15.2276839 L98.58573,14.8545774 L103.388584,14.152382 L103.875412,14.19618 L103.875412,15.7763117 L104.008233,15.7763117 C105.048518,14.7229638 106.199451,14.0865203 107.770911,14.0865203 C109.165203,14.0865203 110.02843,14.5253787 110.493194,15.7982656 L110.581668,15.7982656 C111.666191,14.7010099 112.883535,14.0865203 114.454885,14.0865203 C116.446981,14.0865203 117.531504,15.0959605 117.531504,17.2905818 L117.531504,25.6955214 L118.815148,26.0247201 L118.815148,26.3977168 L112.573765,26.3977168 L112.573765,26.0247201 L113.569704,25.6955214 L113.569704,17.3563337 C113.569704,16.2590779 113.060593,15.8202195 112.064654,15.8202195 C111.577607,15.8202195 111.090779,15.9738968 110.692426,16.193326 L110.692426,25.6955214 L111.688364,26.0247201 L111.688364,26.3977168 L105.800988,26.3977168 L105.800988,26.0247201 L106.81921,25.6955214 L106.81921,17.3563337 C106.81921,16.2590779 106.3764,15.8202195 105.336224,15.8202195 C104.782986,15.8202195 104.340285,15.9957409 103.941932,16.2151701 L103.941932,25.6955214 L104.915697,26.0247201 L104.915697,26.3977168 L98.6521405,26.3977168 L98.6521405,26.0247201 L99.9137212,25.6955214 Z" id="Fill-9" fill="#FEFEFE"></path>
            <path d="M122.532722,19.5289243 L125.963348,19.3753568 C125.963348,15.6007135 125.454237,14.5254116 124.391888,14.5254116 C123.240955,14.5254116 122.532722,16.0615258 122.532722,19.5289243 L122.532722,19.5289243 Z M122.532722,19.9677827 C122.687717,22.9303513 123.639418,24.7518661 126.737991,24.7518661 C127.756103,24.7518661 128.619221,24.6202525 129.438211,24.2690999 L129.438211,24.6202525 C128.752042,25.6516465 127.070044,26.7269484 124.65742,26.7269484 C120.563019,26.7269484 118.460274,24.2690999 118.460274,20.3408891 C118.460274,16.500494 120.762141,14.1085071 124.480472,14.1085071 C128.220867,14.1085071 129.792327,16.0834797 129.792327,19.6605379 L129.792327,19.9677827 L122.532722,19.9677827 Z" id="Fill-11" fill="#FEFEFE"></path>
            <path d="M130.986894,25.6735456 L130.986894,15.7543359 L129.658902,15.2276619 L129.658902,14.8545554 L134.48393,14.15236 L134.970867,14.1961581 L134.970867,15.7324918 L135.103688,15.7324918 C136.143864,14.679034 137.69315,14.0864984 139.220373,14.0864984 C141.322898,14.0864984 142.252536,15.0739846 142.252536,17.2686059 L142.252536,25.6735456 L143.514116,26.0246981 L143.514116,26.3978046 L137.095565,26.3978046 L137.095565,26.0246981 L138.224435,25.7394072 L138.224435,17.4880351 C138.224435,16.3029638 137.69315,15.7762898 136.652865,15.7762898 C136.011153,15.7762898 135.502042,15.9298573 135.037168,16.1713502 L135.037168,25.7394072 L136.143864,26.0246981 L136.143864,26.3978046 L129.725423,26.3978046 L129.725423,26.0246981 L130.986894,25.6735456 Z" id="Fill-13" fill="#FEFEFE"></path>
            <path d="M142.473139,15.2056751 L142.473139,14.8106147 L144.199594,14.3717563 L144.199594,12.2212623 L148.227695,11.5848189 L148.227695,14.3717563 L150.905741,14.3717563 L150.905741,15.2056751 L148.227695,15.2056751 L148.227695,23.1937102 C148.227695,24.4226894 148.603985,24.9274094 149.931866,24.9274094 C150.352393,24.9274094 150.77292,24.8835016 151.038562,24.81764 L151.038562,25.1907464 C150.330329,25.9369594 149.112986,26.6391548 147.674347,26.6391548 C145.372591,26.6391548 144.199594,25.5858068 144.199594,22.9963447 L144.199594,15.2056751 L142.473139,15.2056751 Z" id="Fill-15" fill="#FEFEFE"></path>
            <path d="M157.788551,24.7298902 L157.788551,19.9020088 L156.969671,19.9677607 C155.685917,20.0775302 155.221043,20.8896048 155.221043,22.689056 C155.221043,24.6420746 155.862975,25.1469045 156.770439,25.1469045 C157.27944,25.1469045 157.567146,24.9932272 157.788551,24.7298902 L157.788551,24.7298902 Z M157.788551,19.331427 L157.788551,17.7294512 C157.788551,15.2934468 157.257377,14.5034358 155.907212,14.5034358 C155.752327,14.5034358 155.619506,14.5253897 155.464621,14.5473436 L152.476586,18.5632602 L152.100406,18.5632602 L152.18888,14.8326345 C153.339923,14.4815917 154.778452,14.0865313 156.681855,14.0865313 C159.957596,14.0865313 161.860999,14.986202 161.860999,17.7073875 L161.860999,25.5199012 L163.033996,25.827146 L163.033996,26.1343908 C162.569232,26.4197914 161.639594,26.6830187 160.621592,26.6830187 C159.005895,26.6830187 158.231142,26.1563447 157.877135,25.2785181 L157.766378,25.2785181 C157.080318,26.2003622 156.106443,26.7269265 154.57933,26.7269265 C152.63169,26.7269265 151.303699,25.5199012 151.303699,23.4351592 C151.303699,21.4162788 152.56517,20.3189133 155.132678,19.8361471 L157.788551,19.331427 Z" id="Fill-17" fill="#FEFEFE"></path>
            <path d="M168.367486,14.15236 L168.76584,14.1961581 L168.76584,17.6196487 L168.876487,17.6196487 C169.496246,15.0082327 170.514358,14.0207464 171.886586,14.0207464 C172.107881,14.0207464 172.35135,14.0425906 172.484171,14.108562 L172.484171,17.7294182 C172.262766,17.6635565 171.864413,17.6416026 171.488233,17.6416026 C170.381537,17.6416026 169.562656,17.7513721 168.854424,18.036663 L168.854424,25.6954995 L170.492184,26.0246981 L170.492184,26.3978046 L163.542569,26.3978046 L163.542569,26.0246981 L164.80404,25.6954995 L164.80404,15.7543359 L163.476048,15.2276619 L163.476048,14.8545554 L168.367486,14.15236 Z" id="Fill-19" fill="#FEFEFE"></path>
            <path d="M178.304402,11.299539 C178.304402,12.4626564 177.308463,13.3403732 176.15742,13.3403732 C174.96236,13.3403732 174.032722,12.4626564 174.032722,11.299539 C174.032722,10.1363117 174.96236,9.23664105 176.15742,9.23664105 C177.308463,9.23664105 178.304402,10.1363117 178.304402,11.299539 L178.304402,11.299539 Z M177.72899,14.1523381 L178.282228,14.1962459 L178.282228,25.6735236 L179.521745,26.0246762 L179.521745,26.3977827 L172.970373,26.3977827 L172.970373,26.0246762 L174.231954,25.6735236 L174.231954,15.7543139 L172.881899,15.22764 L172.881899,14.8546432 L177.72899,14.1523381 Z" id="Fill-21" fill="#FEFEFE"></path>
            <path d="M182.885675,19.5289243 L186.316191,19.3753568 C186.316191,15.6007135 185.80719,14.5254116 184.744841,14.5254116 C183.593908,14.5254116 182.885675,16.0615258 182.885675,19.5289243 L182.885675,19.5289243 Z M182.885675,19.9677827 C183.04056,22.9303513 183.992261,24.7518661 187.090944,24.7518661 C188.108946,24.7518661 188.972173,24.6202525 189.791054,24.2690999 L189.791054,24.6202525 C189.104885,25.6516465 187.422887,26.7269484 185.010373,26.7269484 C180.915862,26.7269484 178.813117,24.2690999 178.813117,20.3408891 C178.813117,16.500494 181.114984,14.1085071 184.833315,14.1085071 C188.57371,14.1085071 190.14517,16.0834797 190.14517,19.6605379 L190.14517,19.9677827 L182.885675,19.9677827 Z" id="Fill-23" fill="#FEFEFE"></path>
            <path d="M199.971658,22.710955 C199.971658,25.1907574 198.223139,26.6830735 194.991745,26.6830735 C193.530933,26.6830735 192.025884,26.5075521 190.852997,26.068584 L190.720176,22.5134797 L191.096356,22.5134797 L194.261339,26.1783535 C194.482634,26.2442151 194.726213,26.2880132 194.925335,26.2880132 C196.27539,26.2880132 196.895148,25.5638639 196.895148,24.4446542 C196.895148,23.4571679 196.363974,23.0839517 194.969682,22.4256641 L194.239166,22.0964654 C192.025884,21.0650714 190.742239,19.9897695 190.742239,17.9707794 C190.742239,15.5130406 192.468584,14.0645225 195.434446,14.0645225 C196.651679,14.0645225 197.979671,14.174292 198.997783,14.4595829 L199.10843,17.7734138 L198.732141,17.7734138 L196.319627,14.5693524 C196.054204,14.4815368 195.788562,14.437629 195.545093,14.437629 C194.349923,14.437629 193.818639,15.1179802 193.818639,16.1054665 C193.818639,17.1807684 194.32775,17.531921 195.810735,18.2122722 L196.496795,18.5194072 C198.776378,19.5727552 199.971658,20.5164435 199.971658,22.710955" id="Fill-25" fill="#FEFEFE"></path>
            <g id="Group-29" transform="translate(0.000000, 0.068935)">
                <mask id="mask-2" fill="white">
                    <use xlink:href="#path-1"></use>
                </mask>
                <g id="Clip-28"></g>
                <polygon id="Fill-27" fill="#FEFEFE" mask="url(#mask-2)" points="1.5170472 0.0408891328 3.29308452e-05 1.22760703 3.29308452e-05 34.7291438 1.5170472 35.7849067 42.6678705 18.9018112 42.6678705 17.0558178"></polygon>
            </g>
            <path d="M13.7086169,7.29368825 C7.80587267,7.29368825 3.02036224,12.0788694 3.02036224,17.9817234 C3.02036224,23.8846872 7.80587267,28.6698683 13.7086169,28.6698683 C19.6113611,28.6698683 24.3967618,23.8846872 24.3967618,17.9817234 C24.3967618,12.0788694 19.6113611,7.29368825 13.7086169,7.29368825" id="Fill-30" fill="#0E0F0E"></path>
            <path d="M15.5412514,9.93365532 C17.0432272,10.1544018 18.6882327,11.1034687 19.331921,11.7773436 L19.331921,14.8748189 L18.9927333,14.8748189 L15.5412514,10.2770143 L15.5412514,9.93365532 Z" id="Fill-32" fill="#FEFEFE"></path>
            <path d="M14.3970362,10.1275851 C14.3970362,10.1275851 14.3671789,10.1273655 14.3563117,10.1273655 C11.9315038,10.1273655 10.5350165,13.4854336 10.6063666,18.0151811 L10.6063666,18.031427 C10.5350165,22.5611745 11.9315038,25.9192426 14.3563117,25.9192426 C14.3671789,25.9192426 14.3970362,25.9190231 14.3970362,25.9190231 L14.3970362,26.26809 C10.749506,26.5178156 5.81459934,23.7361471 5.88616905,18.031427 L5.88616905,18.0151811 C5.81459934,12.310461 10.749506,9.52879254 14.3970362,9.77851811 L14.3970362,10.1275851 Z" id="Fill-34" fill="#FEFEFE"></path>
            <path d="M20.4762459,18.7259276 L19.331899,19.2230735 L19.331899,24.3510648 C18.6883205,24.9468935 17.1146652,25.8756531 15.5412294,26.1948628 L15.5412294,25.8221954 L15.5412294,25.1231833 L15.5412294,19.111438 L14.3969923,18.6938749 L14.3969923,18.3791658 L20.4762459,18.3791658 L20.4762459,18.7259276 Z" id="Fill-36" fill="#FEFEFE"></path>
        </g>
    </g>
</svg>