<svg xmlns="http://www.w3.org/2000/svg" xmlns:xlink="http://www.w3.org/1999/xlink" width="140" height="139" version="1.1" viewBox="0 0 140 139"><title>Group 5</title><desc>Created with Sketch.</desc><defs><radialGradient id="radialGradient-1" cx="14.562%" cy="17.438%" r="98.026%" fx="14.562%" fy="17.438%" gradientTransform="translate(0.145624,0.174375),scale(0.997722,1.000000),translate(-0.145624,-0.174375)"><stop offset="0%" stop-color="#EFEFEF"/><stop offset="100%" stop-color="#005789"/></radialGradient></defs><g id="Page-1" fill="none" fill-rule="evenodd" stroke="none" stroke-width="1"><g id="Artboard-Copy" fill-rule="nonzero" transform="translate(-688.000000, -15.000000)"><g id="Group-5" transform="translate(688.000000, 15.000000)"><g id="Group-4"><ellipse id="Oval" cx="69.904" cy="70.054" fill="#FFF" rx="69.895" ry="69.736"/><ellipse id="Oval" cx="69.904" cy="70.054" fill="url(#radialGradient-1)" opacity=".4" rx="69.895" ry="69.736"/><path id="Shape" fill="#005789" d="M120.201826,68.1965831 C120.215251,66.8507973 120.014521,65.4890661 119.581096,64.1582688 L105.672511,21.4496583 C108.250685,19.7986788 111.612603,18.114533 114.869041,16.6641458 C111.137306,13.5324829 107.072192,10.783508 102.735068,8.47621868 C101.061142,9.38510251 99.4198174,10.3577677 97.9111416,11.3760364 C96.7946575,10.8881093 95.5979452,10.5551708 94.3494521,10.4033713 C93.8361187,10.3408656 81.6557991,8.87580866 69.5851142,8.87580866 C57.5773973,8.87580866 44.4372146,10.3268337 43.8832877,10.3887016 C42.5462557,10.537631 41.2670776,10.8957631 40.0805936,11.4289749 C38.8260274,10.5743052 37.486758,9.75949886 36.1184018,8.99125285 C31.8758904,11.3329841 27.9028311,14.1017312 24.2580365,17.2400911 C27.0644292,18.5061503 30.037032,20.0040547 32.4036073,21.5472437 L18.5279452,64.157631 C18.0580822,65.6013212 17.8611872,67.0832802 17.9152055,68.5394077 C11.3626941,72.151344 5.44178082,76.8654214 0.866849315,81.0099317 C1.63493151,85.8649658 2.90484018,90.5538497 4.62255708,95.0214123 C8.78484018,90.7614579 16.253105,83.815672 24.5626484,79.3615034 L61.5846575,106.198451 C61.9803653,106.485467 62.3891781,106.746014 62.8082192,106.981686 L62.8082192,138.204875 C62.8082192,138.630296 62.8510502,139.045194 62.9309589,139.446697 C65.2246575,139.673121 67.5503196,139.790159 69.90379,139.790159 C71.7416895,139.790159 73.5626484,139.719362 75.3650685,139.579681 C75.4628767,139.137358 75.5165753,138.677175 75.5165753,138.205194 L75.5165753,106.856674 C75.8601826,106.654169 76.1973973,106.436993 76.5243836,106.199089 L113.816804,79.1660137 C122.804932,83.8890205 130.85653,91.5982688 134.879772,95.8014579 C136.650548,91.358451 137.975434,86.6902961 138.801689,81.8524829 C133.973288,77.3871526 127.455616,72.0926651 120.202146,68.1969021 L120.201826,68.1965831 Z M69.0545205,95.9414579 L30.66,68.1095216 C30.6472146,68.0916629 30.63379,68.0738041 30.6206849,68.0562642 L45.2967123,22.9902961 C45.2967123,22.9902961 58.1482648,21.5568109 69.5857534,21.5568109 C81.023242,21.5568109 92.8113699,22.9909339 92.8113699,22.9909339 L107.49411,68.0779499 L69.0535616,95.9420957 L69.0545205,95.9414579 Z" opacity=".1"/></g></g></g></g></svg>