<svg xmlns="http://www.w3.org/2000/svg" width="636.5" height="355.5" viewBox="0 0 636.5 355.5"><path fill="#EA3E59" d="M400 247.9l-176.5-123L400 1.9l176.5 123z"/><path fill="#269448" d="M358 247.9l-176.5-123L358 1.9l176.5 123z"/><path fill="#333" d="M316 247.9l-176.5-123L316 1.9l176.5 123z"/><path fill="#F8B847" d="M274 247.9l-176.5-123L274 1.9l176.5 123z"/><path fill="#1991C6" d="M232 247.9l-176.5-123L232 1.9l176.5 123z"/><path d="M226.6 261.1h25.2c20.1 0 28.8 9.6 28.8 24.5 0 12.9-6.1 21-19.2 24v.4l25.2 41.5h-8.2l-24.2-40.2H234v40.2h-7.3v-90.4zm24.9 44.3c16 0 21.4-8 21.4-19.6 0-11.7-5.7-18.5-21.6-18.5H234v38.1h17.5zm42.8-42.5h7.2v8.2h-7.2v-8.2zm0 22.5h7.2v66.1h-7.2v-66.1zm16.2 34.1v-1.7c0-21.6 12.5-33.6 29.6-33.6 17.9 0 29.6 11.5 29.6 33.1v1.6c0 21.8-12.5 33.8-29.7 33.8-17.9-.1-29.5-11.5-29.5-33.2zm51.9.2v-2.5c0-19.7-9.6-27.1-22.4-27.1-13.3 0-22.2 9.4-22.2 27.1v2.5c0 19.4 9.6 27.1 22.3 27.1 13.3 0 22.3-9.3 22.3-27.1zm33 26.3l22.2-22.2c13.4-13.4 23.5-24.1 23.5-38.5 0-12.9-7.2-19.2-21-19.2-9.3 0-16 2.2-22.4 5.5v-5.9c6.8-3.7 13.8-6 24.1-6 17.5 0 27 9.1 27 25 0 16-11 27.8-26.2 42.6l-17.9 17.5v.3H451v6.3h-55.5V346zm62.3-37.3v-4.2c0-30.2 14.6-44.7 35.2-44.7 20.5 0 34.7 14.2 34.7 44.3v4.2c0 30.1-13.7 44.5-34.8 44.5-21 0-35.1-14.6-35.1-44.1zm62.3.5V304c0-24.1-8.6-38.1-27.1-38.1s-27.4 13.6-27.4 37.5v5.3c0 24 8.9 37.8 27.2 37.8 18.6.1 27.3-12.8 27.3-37.3zm28.7-40.5l-17.3 3.3v-4.4l21.8-7.2h2.9v91.1h-7.3v-82.8zm22.7 43.7v-3.9c0-36.1 17.7-48.6 39.4-48.6 7.6 0 13.8 1.3 17.7 3.4v5.9c-3.9-1.6-10-2.9-16.6-2.9-18 0-31.8 8-32.7 39.1 5.5-4.4 14.6-8.5 26.2-8.5 16.3 0 28.6 8.2 28.6 26.5 0 17.7-11.1 29.5-29.6 29.5-21.8-.1-33-16.8-33-40.5zm54.9 11.6c0-16-9.5-21-22.8-21-10.7 0-18.5 3.7-24.2 8v1.6c0 19.6 7 34.2 25 34.2 13.6-.2 22-7.8 22-22.8z"/><path fill="#FBE400" d="M190 248.2l-177-123 177-123 177 123z"/><circle fill="#21449B" cx="189.8" cy="125.4" r="54.6"/></svg>