<svg xmlns="http://www.w3.org/2000/svg" xmlns:xlink="http://www.w3.org/1999/xlink" id="Layer_1" x="0" y="0" version="1.1" viewBox="0 0 1124 332.6" xml:space="preserve" style="enable-background:new 0 0 1124 332.6"><style type="text/css">.st0{fill:#fff}.st1{fill:#ed1c24}.st2{fill:#214583}</style><g><rect width="308" height="307" x="27.5" y="25.6" class="st0"/></g><g><rect width="125" height="24" x="180.8" y="7.6" class="st1"/></g><g><rect width="113" height="23" x="204.8" y="54.6" class="st1"/></g><g><rect width="118" height="23" x="183.8" y="100.6" class="st1"/></g><g><rect width="118" height="24" x="199.8" y="147.6" class="st1"/></g><g><rect width="291" height="23" x="26.5" y="195.8" class="st1"/></g><g><rect width="288" height="24" x="8.5" y="242.8" class="st1"/></g><g><rect width="293" height="24" x="24.5" y="290.8" class="st1"/></g><g><polygon points="172.5 171.8 8.5 171.8 8.5 6.8 133.5 6.8 133.5 29.8 31.5 29.8 31.5 148.8 149.5 148.8 149.5 54.8 172.5 54.8" class="st2"/></g><g><polygon points="170.2 17.1 163.7 9 74.5 109.7 44.3 73.9 37.6 82.3 71.2 140.8 74.5 140.8" class="st2"/></g><g><path d="M380.5,103.5c0-33.8,20.8-53.5,50.9-53.5c31.3,0,45.6,17.5,45.6,57.6h-65.1c1.6,21,12.2,29.7,30.3,29.7 c14,0,22.4-2.6,29.9-4.9v15.9c-7.1,4.5-18.9,10-37.9,10C398.2,158.3,380.5,137.5,380.5,103.5z M446.5,91.9 c0-17.9-6.1-24.2-15.9-24.2c-10.4,0-17.5,6.5-18.7,25.4L446.5,91.9z" class="st0"/><path d="M483.9,141.4l12.6-2.9V31.1L482.7,28V13.1L524,8.5l2.8,1.4v128.5l12.4,2.9v14.3h-55.2V141.4z" class="st0"/><path d="M545.2,103.5c0-33.8,20.8-53.5,50.9-53.5c31.3,0,45.6,17.5,45.6,57.6h-65.1c1.6,21,12.2,29.7,30.3,29.7 c14,0,22.4-2.6,29.9-4.9v15.9c-7.1,4.5-18.9,10-37.9,10C562.9,158.3,545.2,137.5,545.2,103.5z M611.2,91.9 c0-17.9-6.1-24.2-15.9-24.2c-10.4,0-17.5,6.5-18.7,25.4L611.2,91.9z" class="st0"/><path d="M649.4,104.6C649.4,66.3,673,50,706,50c11.8,0,23.6,1.8,30.3,4.1v30.5h-19.1l-2.9-14.9 c-2.2-0.8-4.3-1.6-10-1.6c-14.2,0-22.8,9.6-22.8,34c0,26.5,12.2,35,30.5,35c11.2,0,20.2-2.2,25.4-4.5v16.1 c-6.3,4.5-17.7,9.6-34.8,9.6C667.1,158.3,649.4,137.7,649.4,104.6z" class="st0"/><path d="M756.3,130.2V70.4h-12.2V57.1L759,52l3.9-24.2h23.8v24.4h22.8v18.3h-22.8v54.4c0,9.8,3.7,13.4,13.6,13.4 c3.7,0,7.5-0.6,10.6-1.4V152c-4.5,2.9-13.4,5.9-23.8,5.9C767.3,157.9,756.3,151,756.3,130.2z" class="st0"/><path d="M817.8,141.4l12.4-2.9V72.8l-13.4-3.1V54.9l40.7-4.7l2.9,1.4v86.9l12,2.9v14.3h-54.6V141.4z M827.2,25 c0-9.4,7.9-15.5,17.1-15.5c9.6,0,17.3,6.1,17.3,15.5c0,9.2-7.7,15.5-17.3,15.5C835.1,40.6,827.2,34.3,827.2,25z" class="st0"/><path d="M878.5,104.6c0-34.8,23.2-54.6,52.3-54.6c33,0,52.5,19.9,52.5,53.5c0,34.6-23.4,54.8-52.3,54.8 C897.8,158.3,878.5,137.5,878.5,104.6z M951.3,104.8c0-28.7-9.2-36.8-20.6-36.8c-11.4,0-20.2,7.3-20.2,35.2 c0,28.5,9.2,36.8,20.8,36.8C942.4,140,951.3,132.4,951.3,104.8z" class="st0"/><path d="M989.8,141.4l12.4-2.9V72.8l-12.8-3.1V54.9l38.9-4.7l2.9,1.4V62h1.2c9.8-7.1,20.4-12,34.2-12 c16.9,0,27.7,7.3,27.7,26.1v62.3l11.8,2.9v14.3h-52.5v-14.3l10.2-2.6V86.4c0-10.2-4.9-13.4-14.9-13.4c-6.1,0-11.2,1.6-16.5,3.3 v62.5l10.2,2.6v14.3h-52.9V141.4z" class="st0"/><path d="M379.1,297.3l31.8-31.3c15.9-15.7,26.3-28.1,26.3-43.4c0-14-7.7-21.4-24.8-21.4c-10,0-20.2,2.2-28.7,5.1v-18.5 c9.8-5.5,25.6-11.2,42.3-11.2c28.9,0,46,14.7,46,41.1c0,21.4-15.7,38.9-41.3,58.8l-19.1,15.1v0.4h39.3l7.3-15.3h16.9l-2.9,38.3 h-93.2V297.3z" class="st0"/><path d="M486.8,247.8c0-49.9,27.5-71.3,58.8-71.3c32.4,0,58,21.4,58,70c0,49.3-26.7,71-58.6,71 C511.8,317.4,486.8,295.9,486.8,247.8z M568.8,248.2c0-37.3-6.5-52.5-23.4-52.5c-16.1,0-23.8,16.1-23.8,50.5 c0,37,6.7,52.1,23.8,52.1C561.3,298.3,568.8,283.2,568.8,248.2z" class="st0"/><path d="M615.6,299.5l18.3-3.3v-87.5l-20,1.6v-15.5l38.9-17.3h14.7v118.7l18.1,3.3V315h-70V299.5z" class="st0"/><path d="M694.6,251.7c0-53.5,30.9-75.1,65.1-75.1c15.5,0,26.7,3.3,33.6,7.7V202c-6.1-2.2-16.3-3.1-26.1-3.1 c-19.5,0-35.8,7.9-38.3,38.9c7.3-4.5,18.7-8.8,31.1-8.8c26.3,0,42.3,16.3,42.3,41.5c0,25.6-17.3,47-52.3,47 S694.6,291.8,694.6,251.7z M768.3,272.1c0-17.1-7.3-23.2-19.5-23.2c-8.5,0-14.9,2-20.2,5.1v4.5c0,25.4,5.5,39.5,21,39.5 C762.6,298.1,768.3,289,768.3,272.1z" class="st0"/></g></svg>