<?xml version="1.0" encoding="utf-8"?>
<!-- Generator: Adobe Illustrator 16.0.1, SVG Export Plug-In . SVG Version: 6.00 Build 0)  -->
<!DOCTYPE svg PUBLIC "-//W3C//DTD SVG 1.1//EN" "http://www.w3.org/Graphics/SVG/1.1/DTD/svg11.dtd">
<svg version="1.1" id="Layer_1" xmlns="http://www.w3.org/2000/svg" xmlns:xlink="http://www.w3.org/1999/xlink" x="0px" y="0px"
	 width="1015.385px" height="325.641px" viewBox="0 0 1015.385 325.641" enable-background="new 0 0 1015.385 325.641"
	 xml:space="preserve">
<g>
	<rect x="9.513" y="7.82" fill="#FFFFFF" width="308" height="307"/>
</g>
<g>
	<rect x="180.513" y="7.82" fill="#E52629" width="125" height="24"/>
</g>
<g>
	<rect x="204.513" y="54.82" fill="#E52629" width="113" height="23"/>
</g>
<g>
	<rect x="183.513" y="100.82" fill="#E52629" width="118" height="23"/>
</g>
<g>
	<rect x="199.513" y="147.82" fill="#E52629" width="118" height="24"/>
</g>
<g>
	<rect x="26.513" y="195.82" fill="#E52629" width="291" height="23"/>
</g>
<g>
	<rect x="8.513" y="242.82" fill="#E52629" width="288" height="24"/>
</g>
<g>
	<rect x="24.513" y="290.82" fill="#E52629" width="293" height="24"/>
</g>
<g>
	<polygon fill="#204583" points="172.513,171.82 8.513,171.82 8.513,6.82 133.513,6.82 133.513,29.82 31.513,29.82 31.513,148.82 
		149.513,148.82 149.513,54.82 172.513,54.82 	"/>
</g>
<g>
	<polygon fill="#204583" points="170.249,17.089 163.726,8.966 74.505,109.677 44.313,73.926 37.604,82.286 71.229,140.805 
		74.505,140.805 	"/>
</g>
<g>
	<path fill="#FFFFFF" d="M341.397,104.698c0-32.309,20.686-51.615,46.296-51.615c29.354,0,41.175,20.488,41.175,52.207h-68.756
		c0.788,26.989,13.396,40.386,34.279,40.386c14.381,0,22.262-2.758,29.551-5.319v8.865c-6.305,3.743-16.549,9.26-33.294,9.26
		C356.173,158.481,341.397,136.022,341.397,104.698z M408.379,93.863c0-20.883-7.289-30.142-21.868-30.142
		c-15.76,0-25.02,9.85-26.398,31.718L408.379,93.863z"/>
	<path fill="#FFFFFF" d="M436.351,149.419l14.775-3.152V24.123l-15.958-3.152v-7.486l31.718-4.531l2.364,1.183v136.131l14.776,3.152
		v6.698h-47.676V149.419z"/>
	<path fill="#FFFFFF" d="M491.509,104.698c0-32.309,20.686-51.615,46.297-51.615c29.354,0,41.174,20.488,41.174,52.207h-68.754
		c0.787,26.989,13.396,40.386,34.279,40.386c14.381,0,22.262-2.758,29.551-5.319v8.865c-6.305,3.743-16.549,9.26-33.295,9.26
		C506.284,158.481,491.509,136.022,491.509,104.698z M558.491,93.863c0-20.883-7.289-30.142-21.867-30.142
		c-15.76,0-25.02,9.85-26.398,31.718L558.491,93.863z"/>
	<path fill="#FFFFFF" d="M588.63,106.472c0-38.22,24.232-53.389,52.994-53.389c9.457,0,18.912,1.576,26.203,3.94v25.413h-10.246
		l-3.939-16.745c-3.152-0.985-6.107-1.773-14.184-1.773c-19.701,0-32.113,13.2-32.113,40.387c0,30.93,15.762,41.174,35.266,41.174
		c13.592,0,22.457-2.758,27.186-5.122v9.062c-6.5,4.531-16.352,9.062-32.309,9.062C606.163,158.481,588.63,138.189,588.63,106.472z"
		/>
	<path fill="#FFFFFF" d="M689.69,133.462V66.677H675.31v-6.896l15.76-4.729l3.152-23.641h13.594v23.641h26.398v11.624h-26.398
		v63.042c0,11.229,3.348,16.352,15.76,16.352c4.334,0,8.668-0.592,12.607-1.38v7.29c-4.334,2.955-12.213,5.91-20.686,5.91
		C698.358,157.891,689.69,151.783,689.69,133.462z"/>
	<path fill="#FFFFFF" d="M743.075,149.419l14.578-3.152V68.844l-15.76-3.152v-7.486l31.719-4.729l2.166,1.183v91.607l14.775,3.152
		v6.698h-47.479V149.419z M754.698,25.896c0-6.107,5.123-11.033,11.23-11.033c6.305,0,11.229,4.926,11.229,11.033
		c0,5.713-4.924,11.032-11.229,11.032C759.821,36.929,754.698,31.609,754.698,25.896z"/>
	<path fill="#FFFFFF" d="M798.038,106.274c0-31.718,21.67-53.191,48.07-53.191c28.959,0,48.66,20.488,48.66,52.207
		c0,31.718-21.672,53.389-48.07,53.389C817.542,158.679,798.038,137.992,798.038,106.274z M875.854,106.865
		c0-32.111-14.971-42.947-29.943-42.947c-14.775,0-28.961,9.851-28.961,40.978c0,31.915,14.775,42.947,29.945,42.947
		C861.671,147.843,875.854,137.992,875.854,106.865z"/>
	<path fill="#FFFFFF" d="M897.521,149.419l14.775-3.152V68.844l-14.775-3.152v-7.486l29.748-4.729l2.166,1.183v8.865h1.184
		c9.85-5.713,21.67-10.441,33.885-10.441c18.715,0,28.369,7.092,28.369,26.99v66.193l14.775,3.152v6.698h-47.281v-6.698
		l14.381-3.152V84.801c0-13.79-7.092-17.73-21.08-17.73c-8.273,0-15.76,1.97-23.246,4.531v74.665l14.381,3.152v6.698h-47.281
		V149.419z"/>
	<path fill="#FFFFFF" d="M338.639,304.464l33.886-34.279c18.518-18.716,31.914-34.476,31.914-54.177
		c0-16.548-8.865-26.793-30.93-26.793c-11.229,0-20.095,2.955-29.156,6.305v-9.456c9.455-5.517,23.641-10.836,37.431-10.836
		c25.413,0,42.554,12.412,42.554,38.811c0,20.686-15.958,39.599-43.342,63.633l-22.853,20.095v0.395h52.798l8.865-18.716h9.062
		l-2.365,34.673h-87.864V304.464z"/>
	<path fill="#FFFFFF" d="M434.97,246.938c0-49.646,24.823-71.711,54.768-71.711c29.551,0,54.178,21.08,54.178,70.331
		c0,48.661-23.641,71.12-54.375,71.12C458.414,316.679,434.97,295.205,434.97,246.938z M524.017,246.938
		c0-39.205-10.639-60.875-34.279-60.875c-23.838,0-34.869,20.488-34.869,59.495c0,39.008,10.835,60.284,34.672,60.284
		C513.181,305.843,524.017,287.127,524.017,246.938z"/>
	<path fill="#FFFFFF" d="M549.819,306.04l20.291-3.35V195.717l-22.262,2.167v-8.077l36.842-13.988h5.121V302.69l20.291,3.35v8.077
		h-60.283V306.04z"/>
	<path fill="#FFFFFF" d="M613.448,252.651c0-56.344,30.732-77.424,62.648-77.424c12.215,0,21.277,2.759,27.385,6.698v9.653
		c-5.715-2.364-14.973-3.939-24.627-3.939c-22.064,0-41.963,11.229-45.311,53.585c8.668-5.319,21.078-10.835,36.248-10.835
		c22.854,0,40.781,14.973,40.781,40.978c0,25.413-17.338,45.312-47.086,45.312C632.36,316.679,613.448,292.841,613.448,252.651z
		 M690.675,273.14c0-21.671-11.82-30.142-27.58-30.142c-12.807,0-22.064,3.152-29.748,8.077v3.152
		c0,27.777,6.5,51.615,29.945,51.615C682.007,305.843,690.675,292.841,690.675,273.14z"/>
</g>
</svg>
