<svg xmlns="http://www.w3.org/2000/svg" xmlns:xlink="http://www.w3.org/1999/xlink" width="31" height="25" version="1.1" viewBox="0 0 31 25"><g id="Page-1" fill="none" fill-rule="evenodd" stroke="none" stroke-width="1"><g id="Desktop" fill="#FFF" transform="translate(-220.000000, -280.000000)"><g id="Group"><g id="Group-3" transform="translate(36.000000, 270.000000)"><g id="arrow_right-copy" transform="translate(184.000000, 10.000000)"><g id="Layer_1"><path id="Shape" d="M25.1787027,11.8112294 L22.3945676,11.8112294 C21.2961622,11.8120681 20.1918919,11.7466487 19.101027,11.829681 C17.732,11.933681 16.3747027,12.1760681 15.009027,12.3253584 C13.8670541,12.4503261 12.7192162,12.5182616 11.5755676,12.6323261 C11.2747838,12.6625197 10.9840541,12.7983906 10.6832703,12.831939 C10.0733243,12.8990358 9.45751351,12.9116165 8.84840541,12.9812294 C8.12535135,13.0651003 7.29589189,13.46181 6.70940541,13.2269713 C5.61686486,12.791681 4.82678378,13.4483906 4.17410811,13.8593584 C3.48708108,14.29381 2.74140541,14.4447777 2.04935135,14.7534229 C1.01545946,15.2130358 0.124,14.8666487 0,13.4181971 C0.647648649,12.70781 1.55502703,12.8243906 2.36940541,12.6272939 C3.70827027,12.3052294 5.02283784,11.8833584 6.36002703,11.5554229 C7.46010811,11.2870358 8.57694595,11.0840681 9.69043243,10.8727132 C10.4763243,10.7242616 11.3191892,10.373681 12.0447568,10.5330358 C13.3417297,10.815681 14.5515676,10.4273584 15.7940811,10.3694874 C17.1262432,10.3065842 18.4441622,9.96522936 19.7754865,9.82097129 C20.5697568,9.7345842 21.3816216,9.79245517 22.1842703,9.78742291 C22.7297027,9.78406807 23.2835135,9.83439065 23.8180541,9.75639065 C24.0275135,9.72535839 24.1959189,9.41168097 24.4481081,9.16426162 C23.1494595,8.20310033 21.9337568,7.33922936 20.7591081,6.42168097 C20.1349189,5.93355194 19.5852973,5.34981 18.9937838,4.81806807 C18.7122703,4.56561646 18.4114865,4.33581 18.1232703,4.09342291 C17.9724595,3.96761646 17.8023784,3.85355194 17.6850811,3.70006807 C17.4412703,3.37800355 17.1287568,3.15910033 16.8162432,2.9141971 C16.1032432,2.35142291 15.5837838,1.53368097 15.0366757,0.781358391 C14.9763514,0.698326133 15.1967027,0.267229359 15.3776757,0.174971294 C16.486973,-0.389480319 17.0642432,0.543164843 17.732,1.11348742 C19.5635135,2.67851968 21.3003514,4.36013258 23.1963784,5.84129387 C24.5670811,6.91148742 26.1296486,7.73593904 27.6067568,8.67026162 C28.3306486,9.12735839 29.0595676,9.57606807 29.7750811,10.0432294 C30.2878378,10.3770358 30.2166216,10.9112939 29.9962703,11.3105197 C29.4441351,12.3052294 28.9548378,13.415681 28.1488378,14.1663261 C27.3001081,14.9563906 26.9758649,16.1255519 26.0391622,16.769681 C24.9524865,17.5203261 24.5712703,18.7783906 23.7527027,19.7135519 C23.1394054,20.4163906 22.4456757,21.0546487 21.8843243,21.7960681 C21.3162703,22.5450358 20.9124324,23.4189713 20.3519189,24.1763261 C20.1022432,24.5134874 19.5718919,24.9731003 19.3037838,24.895939 C18.7960541,24.7533584 18.0746757,24.6686487 17.9263784,23.9406487 C17.8836486,23.7292939 17.881973,23.4466487 17.9892162,23.2738745 C18.507,22.43181 19.0658378,21.6140681 19.6121081,20.7854229 C19.6364054,20.7493584 19.6766216,20.7141326 19.6833243,20.6755519 C19.8827297,19.5751648 20.6426486,18.7867777 21.1612703,17.8608423 C21.7100541,16.8753584 22.6442432,16.2807132 23.2181622,15.3531003 C23.7728108,14.4590358 24.4196216,13.6194874 24.9843243,12.7296165 C25.1259189,12.5073584 25.1058108,12.1827777 25.1787027,11.8112294 L25.1787027,11.8112294 Z"/></g></g></g></g></g></g></svg>