<svg xmlns="http://www.w3.org/2000/svg" width="2608" height="480" viewBox="0 0 2608 480"><path fill="#615B52" d="M0 0h2608v480H0z"/><g fill="#938A7D"><path opacity=".3" d="M1520 176h76v32h-76zM1988 24h76v32h-76zM2476 72h76v32h-76zM1952 144h76v32h-76zM4 24h76v32H4zM44 144h76v32H44zM1480 140h76v32h-76zM1100 68h76v32h-76zM872 180h76v32h-76zM1060 104h76v32h-76zM1140 104h76v32h-76zM2212 108h76v32h-76zM2172 144h76v32h-76z"/></g><path fill="#47433C" d="M-196 432h3000v48.5H-196z"/><path opacity=".5" fill="#938A7D" d="M2804 431.7V220H-196v212"/><path fill="#47433C" d="M204 32h-88c-11 0-20 9-20 20v332c0 2.2 1.8 4 4 4h120c2.2 0 4-1.8 4-4V52c0-11-9-20-20-20z"/><circle fill="#938A7D" cx="160" cy="208" r="48"/><circle fill="#47433C" cx="160" cy="208" r="12"/><circle fill="#938A7D" cx="160" cy="96" r="48"/><circle fill="#47433C" cx="160" cy="96" r="12"/><circle fill="#938A7D" cx="160" cy="320" r="48"/><circle fill="#47433C" cx="160" cy="320" r="12"/><path fill="#47433C" d="M968 28h-88c-11 0-20 9-20 20v220c0 2.2 1.8 4 4 4h120c2.2 0 4-1.8 4-4V48c0-11-9-20-20-20z"/><circle fill="#938A7D" cx="924" cy="92" r="48"/><circle fill="#47433C" cx="924" cy="92" r="12"/><circle fill="#938A7D" cx="924" cy="204" r="48"/><circle fill="#47433C" cx="924" cy="204" r="12"/><path fill="#47433C" d="M1728 28h-88c-11 0-20 9-20 20v220c0 2.2 1.8 4 4 4h120c2.2 0 4-1.8 4-4V48c0-11-9-20-20-20z"/><circle fill="#938A7D" cx="1684" cy="92" r="48"/><circle fill="#47433C" cx="1684" cy="92" r="12"/><circle fill="#938A7D" cx="1684" cy="204" r="48"/><circle fill="#47433C" cx="1684" cy="204" r="12"/><path fill="#47433C" d="M2492 32h-88c-11 0-20 9-20 20v332c0 2.2 1.8 4 4 4h120c2.2 0 4-1.8 4-4V52c0-11-9-20-20-20z"/><circle fill="#938A7D" cx="2448" cy="208" r="48"/><circle fill="#47433C" cx="2448" cy="208" r="12"/><circle fill="#938A7D" cx="2448" cy="96" r="48"/><circle fill="#47433C" cx="2448" cy="96" r="12"/><circle fill="#938A7D" cx="2448" cy="320" r="48"/><circle fill="#47433C" cx="2448" cy="320" r="12"/><g><path fill="#42073A" d="M1291 44c0-1.7-1.3-3-3-3s-3 1.3-3 3c0 .7.2 1.3.6 1.8L1274 99.6c-.2 1.1.5 2.1 1.5 2.4h.4c.9 0 1.8-.6 2-1.6l11.5-53.8c1-.5 1.6-1.5 1.6-2.6z"/><g fill="#3A2751"><path d="M1308 164h28v36h-28z"/><path d="M1336 202h-28c-1.1 0-2-.9-2-2v-36c0-1.1.9-2 2-2h28c1.1 0 2 .9 2 2v36c0 1.1-.9 2-2 2zm-26-4h24v-32h-24v32z"/></g><path fill="#F8EACF" d="M1372 162h-28c-1.1 0-2 .9-2 2v36c0 1.1.9 2 2 2h28c1.1 0 2-.9 2-2v-36c0-1.1-.9-2-2-2z"/><path fill="#42073A" d="M1412 86c-.5 0-1-.2-1.4-.6-.8-.8-.8-2.1 0-2.8l34.4-34c.8-.8 2.1-.8 2.8 0 .8.8.8 2.1 0 2.8l-34.4 34c-.4.4-.9.6-1.4.6z"/><path fill="#FF9B0B" d="M1411.8 94.8c-5.1-2.1-11 .3-13.1 5.4-1.6 4-3.6 6.5-5.2 6.7-3.5.4-10.5-4.8-15.6-10.5-1.3-3.1-3.3-6.1-5.8-8.5-5.2-5.1-12.4-7.9-20.2-7.9h-24c-14.6 0-27 11-27.9 24.3l-6.7 12.2-.1-.3c-2.1-5.1-7.9-7.6-13-5.6-5.1 2.1-7.6 7.9-5.6 13l8 20c1.4 3.6 4.8 6 8.7 6.3h.6c3.6 0 7-2 8.8-5.2l5.2-9.6V164c0 1.1.9 2 2 2h64c1.1 0 2-.9 2-2v-42.1c.4-.5.8-.9 1.1-1.4 6.2 4.3 12.3 6.5 18.1 6.5 1 0 2-.1 3-.2 6.4-.8 15.2-4.8 21-18.9 2.3-5.2-.2-11-5.3-13.1z"/><path fill="#FFCE4B" d="M1360 108h-4.9l8.4-13.9c.9-1.6.7-3.6-.6-4.9l-8-8c-.8-.8-1.8-1.2-2.8-1.2h-24c-1.1 0-2.1.4-2.8 1.2l-8 8c-1.3 1.3-1.5 3.3-.6 4.9l8.4 13.9h-4.9c-1.6 0-3 .9-3.6 2.3-.7 1.4-.4 3.1.6 4.3l20 24 .1.1c.2.2.4.4.6.5.2.1.4.3.6.4.1 0 .1.1.2.1s.1.1.2.1.2.1.3.1c.1 0 .2.1.2.1.3.1.5.1.8.1.3 0 .5 0 .8-.1.1 0 .2 0 .3-.1.1 0 .2 0 .3-.1.1 0 .1-.1.2-.1s.1-.1.2-.1c.2-.1.4-.2.6-.4h.1c.2-.2.4-.3.6-.5 0 0 .1 0 .1-.1l19.9-23.9c.6-.7 1-1.6 1-2.6-.3-2.3-2.1-4.1-4.3-4.1z"/><path fill="#F8EACF" d="M1340 132l-12-52h24"/><path fill="#42073A" d="M1319 53.3c-1.5-1.7-4-1.8-5.6-.3-1.7 1.5-1.8 4-.3 5.6.4.4.9 1.2 1.1 1.8-1.8 1-2.7 3.2-1.8 5.2.7 1.5 2.1 2.4 3.7 2.4.5 0 1.1-.1 1.6-.3 2.4-1.1 4-2.9 4.5-5.2.9-4.3-2.5-8.4-3.2-9.2z"/><circle fill="#E1A987" cx="1340" cy="48" r="24"/><circle fill="#42073A" cx="1334" cy="52" r="2"/><path fill="#42073A" d="M1369.6 56.3c-1.1-.5-1.5-1.3-1.6-2V42c0-15.4-12.6-28-28-28s-28 12.6-28 28v12c0 2.2 1.8 4 4 4s4-1.8 4-4c0-3.3.8-5.7 1.6-7.2 2.3.6 5.8 1.2 10.4 1.2 6.2 0 12.4-1.1 15.3-1.7 1.7 1.2 4.7 3.9 4.7 7.7 0 2.2 1.8 4 4 4h.8c.9 2.2 2.6 4.4 5.6 5.7.5.2 1.1.3 1.6.3.7 0 1.4-.2 2-.5.1.1.3.1.4.2.5.2 1.1.3 1.6.3 1.5 0 3-.9 3.7-2.4.8-2-.1-4.4-2.1-5.3z"/><path fill="#E1A987" d="M1336 64v16c0 2.2 1.8 4 4 4s4-1.8 4-4V64h-8z"/><path fill="#FFCE4B" d="M1346 90c0-3.3-2.7-6-6-6s-6 2.7-6 6c0 2.8 1.9 5.1 4.5 5.8L1336 116l4 16 4-16-2.5-20.2c2.6-.7 4.5-3 4.5-5.8z"/><path fill="#E1A987" d="M1288 116l-5.2-7.8c.8-1.2 1.2-2.7 1.2-4.2 0-4.4-3.6-8-8-8s-8 3.6-8 8c0 3.6 2.4 6.6 5.6 7.6l6.4 12.4 8-8zM1314 52c-3.3 0-6 2.7-6 6s2.7 6 6 6h16V52h-16zM1417.7 80.3c-3.1-3.1-8.2-3.1-11.3 0-3.1 3.1-3.1 8.2 0 11.3.3.3.6.6 1 .8l-3.3 7.6 8 4 5.5-12.2.2-.2c3-3.1 3-8.2-.1-11.3z"/><g fill="#3A2751"><path d="M1328 168h24v24h-24z"/><path d="M1352 194h-24c-1.1 0-2-.9-2-2v-24c0-1.1.9-2 2-2h24c1.1 0 2 .9 2 2v24c0 1.1-.9 2-2 2zm-22-4h20v-20h-20v20z"/></g><path fill="#FFCE4B" d="M1332 142h-16c-1.1 0-2 .9-2 2v4c0 1.1.9 2 2 2h16c1.1 0 2-.9 2-2v-4c0-1.1-.9-2-2-2z"/><circle fill="#42073A" cx="1326" cy="52" r="2"/><circle fill="#E1A987" cx="1352" cy="52" r="4"/><path fill="#0C010B" d="M1412 86c-.5 0-1-.2-1.4-.6-.8-.8-.8-2.1 0-2.8l34.4-34c.8-.8 2.1-.8 2.8 0 .8.8.8 2.1 0 2.8l-34.4 34c-.4.4-.9.6-1.4.6z"/><path fill="#CC790A" d="M1403.8 124.3c4.7-2.6 9.7-7.4 13.4-16.4 2.1-5.1-.3-11-5.4-13.1-5.1-2.1-11 .3-13.1 5.4-1 2.5-2.2 4.4-3.3 5.6l8.4 18.5z"/><path fill="#AD826A" d="M1417.7 80.3c-3.1-3.1-8.2-3.1-11.3 0-3.1 3.1-3.1 8.2 0 11.3.3.3.6.6 1 .8l-3.3 7.6 8 4 5.5-12.2.2-.2c3-3.1 3-8.2-.1-11.3z"/></g><g><path fill="#005689" stroke="#005689" stroke-width="2" stroke-linecap="round" stroke-miterlimit="10" d="M946.2 17l-.7-.8"/><path fill="#47433C" d="M948 17c0-3.1-4.9-3.5-8.5-3.5-2.9 0-5.1.8-6.5 2.3-.7-.4-1.6-.6-2.5-.6-1 0-1.9.2-2.5.5-1.4-1.5-3.6-2.3-6.5-2.3-3.6 0-8.5.4-8.5 3.5 0 .5.3.9.8 1-.2.6-.3 1.3-.3 2 0 4.4 3.6 8 8 8s8-3.6 8-8c0-.9-.2-1.8-.5-2.5.3-.1.8-.2 1.5-.2.6 0 1.1.1 1.4.3-.3.7-.4 1.6-.4 2.5 0 4.4 3.6 8 8 8s8-3.6 8-8c0-.7-.1-1.4-.3-2 .5-.1.8-.5.8-1zm-26.5 9c-3.3 0-6-2.7-6-6s2.7-4.5 6-4.5 6 1.2 6 4.5-2.7 6-6 6zm18 0c-3.3 0-6-2.7-6-6s2.7-4.5 6-4.5 6 1.2 6 4.5-2.7 6-6 6z"/><g opacity=".5"><radialGradient id="a" cx="921.5" cy="20.75" r="5.638" gradientUnits="userSpaceOnUse"><stop offset="0" stop-color="#FFF" stop-opacity=".5"/><stop offset="1" stop-color="#FFF"/></radialGradient><path fill="url(#a)" d="M927.5 20c0 3.3-2.7 6-6 6s-6-2.7-6-6 2.7-4.5 6-4.5 6 1.2 6 4.5z"/><g><radialGradient id="b" cx="939.5" cy="20.75" r="5.638" gradientUnits="userSpaceOnUse"><stop offset="0" stop-color="#FFF" stop-opacity=".5"/><stop offset="1" stop-color="#FFF"/></radialGradient><path fill="url(#b)" d="M933.5 20c0 3.3 2.7 6 6 6s6-2.7 6-6-2.7-4.5-6-4.5-6 1.2-6 4.5z"/></g></g></g><g><path fill="#938A7D" d="M1417.7 111.1c-1.2-6.1-9.8-9.8-23.1-9.8-4.8 0-9.9.5-15.1 1.5-20.2 3.8-34.2 13.1-32.6 21.6l6 32.2 70.8-13.3-6-32.2z"/><path fill="#47433C" d="M1237 270c-1.1 0-2-.9-2-2v-52c0-1.1.9-2 2-2s2 .9 2 2v52c0 1.1-.9 2-2 2z"/><path fill="#938A7D" d="M1309 154h-64c-5.5 0-10 4.5-10 10v52c0 5.5 4.5 10 10 10h74v-62c0-5.5-4.5-10-10-10z"/><ellipse transform="rotate(11.887 1272.036 72.01)" fill="#938A7D" cx="1272" cy="72" rx="42" ry="18"/><path fill="#47433C" d="M1272 270c-1.1 0-2-.9-2-2V72c0-1.1.9-2 2-2s2 .9 2 2v196c0 1.1-.9 2-2 2z"/><path fill="#938A7D" d="M1334 160c-29.8 0-54 24.2-54 54s24.2 54 54 54 54-24.2 54-54-24.2-54-54-54z"/><ellipse transform="rotate(-4.052 1426.007 51.898)" fill="#938A7D" cx="1426" cy="52" rx="46" ry="16"/><path fill="#47433C" d="M1344 200h-16c-2.2 0-4-1.8-4-4s1.8-4 4-4h16c2.2 0 4 1.8 4 4s-1.8 4-4 4zM1300 232c-2.2 0-4-1.8-4-4v-32c0-2.2 1.8-4 4-4s4 1.8 4 4v32c0 2.2-1.8 4-4 4zM1312 232c-2.2 0-4-1.8-4-4v-16c0-2.2 1.8-4 4-4s4 1.8 4 4v16c0 2.2-1.8 4-4 4zM1324 232c-2.2 0-4-1.8-4-4v-16c0-2.2 1.8-4 4-4s4 1.8 4 4v16c0 2.2-1.8 4-4 4zM1348 232c-2.2 0-4-1.8-4-4v-16c0-2.2 1.8-4 4-4s4 1.8 4 4v16c0 2.2-1.8 4-4 4zM1360 232c-2.2 0-4-1.8-4-4v-16c0-2.2 1.8-4 4-4s4 1.8 4 4v16c0 2.2-1.8 4-4 4zM1371 232c-2.2 0-4-1.8-4-4v-16c0-2.2 1.8-4 4-4s4 1.8 4 4v16c0 2.2-1.8 4-4 4zM1336 240c-2.2 0-4-1.8-4-4v-24c0-2.2 1.8-4 4-4s4 1.8 4 4v24c0 2.2-1.8 4-4 4zM1438 258h-10V52c0-1.1-.9-2-2-2s-2 .9-2 2v206h-10c-1.1 0-2 .9-2 2s.9 2 2 2h24c1.1 0 2-.9 2-2s-.9-2-2-2z"/><path fill="#47433C" d="M1423.4 141.4c-.7-3.6-6-5.4-15.7-5.4-6.3 0-13.7.8-21.5 2.2-9.1 1.7-17.5 4.1-23.6 6.9-7.3 3.2-10.5 6.4-9.9 9.6.7 3.6 6 5.4 15.7 5.4 5.2 0 11.3-.5 17.7-1.6V270h-10c-1.1 0-2 .9-2 2s.9 2 2 2h24c1.1 0 2-.9 2-2s-.9-2-2-2h-10V157.8c9-1.7 17.3-4.1 23.5-6.8 7.2-3.3 10.4-6.4 9.8-9.6zM1283 270h-24c-1.1 0-2-.9-2-2s.9-2 2-2h24c1.1 0 2 .9 2 2s-.9 2-2 2z"/><linearGradient id="c" gradientUnits="userSpaceOnUse" x1="-430.001" y1="-2295.998" x2="-430.001" y2="-2571.998" gradientTransform="matrix(1 0 0 -1 1768 -2296)"><stop offset="0" stop-color="#FFFDF8" stop-opacity=".3"/><stop offset="1" stop-color="#FFF" stop-opacity="0"/></linearGradient><path fill="url(#c)" d="M1204 276L1332 0h16l124 276"/></g><g><path fill="#42073A" d="M2083.5 412c-3.7 0-14.8 0-18.2-6.9-.5-1-1.7-1.4-2.7-.9 0 0-3.2 1.6-7.4 1.6-2.4 0-4.7-.5-6.8-1.6-.9-.5-2-.1-2.6.7-.3.5-1.9 3.6-.3 11.5.2.7.7 1.3 1.5 1.5l8 2c.2 0 .3.1.5.1h15.7c1.3.4 6 1.8 10.4 1.8 3.3 0 5.8-.8 7.3-2.4.4-.4.6-.9.6-1.4 0-2.4-1.5-6-6-6zM2172 412c-3.7 0-14.8 0-18.2-6.9-.5-1-1.7-1.4-2.7-.9 0 0-3.2 1.6-7.4 1.6-2.4 0-4.7-.5-6.8-1.6-.9-.5-2-.1-2.6.7-.3.5-1.9 3.6-.3 11.5.2.7.7 1.3 1.5 1.5l8 2c.2 0 .3.1.5.1h15.7c1.3.4 6 1.8 10.4 1.8 3.3 0 5.8-.8 7.3-2.4.4-.4.6-.9.6-1.4 0-2.4-1.6-6-6-6z"/><path fill="#42073A" d="M2089.6 418c0-1.1-.3-2.3-1-3.5-.6.6-1.4 1.3-2.2 1.9-.1 0-.1.1-.2.2-5.8 5.8-23.6 1.6-30-.5-.2-.1-.4-.1-.6-.1h-8-2v5.6c0 .6.2 1.1.6 1.4.4.4.9.6 1.4.6h8c1.1 0 2-.9 2-2v-.9c2.5.7 6.4 1.7 10.7 2.3 9.9 1.4 16.8.2 20.6-3.5l.1-.1c.3-.4.6-.9.6-1.4zM2178 418c0-1.1-.3-2.3-1-3.5-.6.6-1.4 1.3-2.2 1.9-.1 0-.1.1-.2.2-5.8 5.8-23.6 1.6-30-.5-.2-.1-.4-.1-.6-.1h-8-2v5.6c0 .6.2 1.1.6 1.4.4.4.9.6 1.4.6h8c1.1 0 2-.9 2-2v-.9c2.5.7 6.4 1.7 10.7 2.3 9.9 1.4 16.8.2 20.6-3.5l.1-.1c.4-.4.6-.9.6-1.4z"/><path fill="#F8EACF" d="M2102.8 293.6c-4.1-3.7-10.4-3.5-14.1.6-.8.8-1.4 1.8-1.8 2.8h-17.6c-.4-.7-.7-1.2-.8-1.4-3-4.7-9.2-6.1-13.8-3.1-4.7 3-6 9.1-3.1 13.8 1 1.6 24.3 40.2-4.4 94-.7 1.4-1.1 2.9-1.2 4.4-.1 1.1.9 2.1 2 2.2l16.2 1.6c1.1.1 2.1-.7 2.2-1.8 20.6-40.7 15.9-74.4 9.7-93.6h17.7c11.4 12.3 40.2 47.7 40.2 92 0 1.1 1.1 2 2.2 2h16c1.1 0 2-.9 2-2 0-63.8-49.4-109.6-51.4-111.5z"/><g fill="#E1A987"><path d="M2084.2 185.4c2.6 14.1 4.2 46-15.3 49.6s-37.2-25.3-39.8-39.5c0 0 2.3-.4 15.7-2.9 0 0 3.9-.7 11.8-2.2 7.9-1.4 11.8-2.2 11.8-2.2l15.8-2.8z"/><path d="M2084.2 185.4c2.6 14.1 4.2 46-15.3 49.6-1.1.2-2.2.3-3.4.3-18.2 0-34-26.5-36.4-39.8 0 0 2.3-.4 15.7-2.9 0 0 3.9-.7 11.8-2.2 7.9-1.4 11.8-2.2 11.8-2.2l15.8-2.8m0-4c-.4 0-.4 0-16.5 3l-11.8 2.2-11.8 2.2-15.7 2.9c-2.2.4-3.6 2.5-3.2 4.7 1.5 7.9 6.6 18.4 13.1 26.6 10.7 13.6 20.7 16.4 27.3 16.4 1.4 0 2.7-.1 4.1-.4 7.1-1.3 16.2-6.6 19.2-24.1 2.2-12.9 0-26.3-.7-30.1-.4-2-2.1-3.4-4-3.4z"/></g><g fill="#E1A987"><path d="M2027.477 208.31l59.016-10.825 17.265 94.13-59.016 10.825z"/><path d="M2086.4 197.4l17.3 94.2-59 10.8-17.3-94.2 59-10.8m0-4c-.2 0-.5 0-.7.1l-59 10.8c-2.2.4-3.6 2.5-3.2 4.7l17.3 94.2c.2 1 .8 2 1.7 2.6.7.5 1.5.7 2.3.7.2 0 .5 0 .7-.1l59-10.8c2.2-.4 3.6-2.5 3.2-4.7l-17.3-94.2c-.2-1-.8-2-1.7-2.6-.7-.4-1.5-.7-2.3-.7z"/></g><path fill="#FFCE4B" d="M2107.6 290.9l-12.3-66.9-6.5-35.4c-.7-3.8-4-6.6-7.9-6.6-.5 0-1 0-1.5.1-2.1.4-3.9 1.6-5.1 3.3-.9 1.2-1.3 2.6-1.4 4.1l-2.4 3.5c-.6.9-.8 2-.6 3 .3 1.4.8 4.6-.4 7.5-1.4 3.4-5.2 5.7-11.2 6.8-1.7.3-3.3.5-4.8.5-8.2 0-10.3-4.9-11.1-9.8-.4-1.9-2-3.3-3.9-3.3-.2 0-.5 0-.7.1-.7-3.8-4-6.6-7.9-6.6-.5 0-1 0-1.4.1-4.3.8-7.2 5-6.4 9.3l18.8 102.3c.4 1.9 2 3.3 3.9 3.3.2 0 .5 0 .7-.1l27.5-5.1 3.9-.7 27.5-5.1c2.2-.1 3.6-2.1 3.2-4.3zm-78.5-95.4c.2 0 .5-.1.7-.1-.2 0-.4 0-.7.1zm51.2-9.4c.2 0 .5-.1.7-.1-.2 0-.5.1-.7.1z"/><path fill="#42073A" d="M2103.2 284.5c-.5-.8-1.5-1.1-2.4-.8-4.4 1.7-8.5 2.6-12.2 2.6-8.3 0-12.1-4.2-12.2-4.4l-.2-.2c-9.2-8.5-9.1-12.9-9.1-13.4.3-.6.3-1.2-.1-1.8s-1-.8-1.6-.8c-.5-.2-4.6-1.7-9.2-13.4 0-.1-.1-.2-.1-.2-.2-.4-5.1-10.1 7.3-23.4.6-.7.7-1.8.2-2.5-.6-.8-1.6-1.1-2.4-.7l-15 6.8c-.6.3-1.1.9-1.2 1.6 0 .2-2.1 18.1-12.4 20-.1 0-13.8 2.7-23.6 2.7-2.9 0-5.2-.2-6.7-.7-.7-.2-1.4 0-1.9.5l-18.4 17.4c-.6.6-.8 1.5-.5 2.2.3.8 1.1 1.2 2 1.2 0 0 1-.1 2.7-.1 4.6 0 19.7.5 25.1 7.1l-4 21.5c-.1.5 0 1.1.3 1.5.3.4.8.7 1.3.8l21.3 3.9c4.3 7.6-1.1 23-3.6 28.5-.4.8-.2 1.7.4 2.3.4.4.9.6 1.4.6.3 0 .6-.1.8-.2l22.9-10.8c.6-.3 1.1-.9 1.1-1.6.6-6.9 9.6-22.2 13-27.5 2.2-3.6 6.6-5.4 13.2-5.4 5.2 0 9.8 1.2 9.9 1.2.7.2 1.4 0 1.9-.5L2103 287c.6-.7.7-1.7.2-2.5z"/><path fill="#FF9B0B" d="M2043.2 297.2c-1.3 0-2.7-.7-3.4-1.9-1.1-1.9-.5-4.3 1.3-5.5l108.6-66.1c1.9-1.1 4.3-.5 5.5 1.3 1.1 1.9.5 4.3-1.3 5.5l-108.6 66c-.7.5-1.4.7-2.1.7z"/><path fill="#42073A" d="M2183 213.6c-.6-.5-1.5-.6-2.2-.2-.8.5-2 .7-3.5.7-.6 0-1.2 0-1.8-.1.7-1.6 1.9-3.3 3.3-4.1.7-.4 1.1-1.2 1-2-.1-.8-.7-1.5-1.4-1.7l-5.4-1.6c-.9-.3-1.9.2-2.3 1 0 .1-4.8 9.1-12.3 9.1-.9 0-1.9-.1-2.8-.4-.8-.2-1.7.1-2.2.8l-5.1 7.4c-.4.6-.5 1.4-.1 2.1l1.9 3.5v.1l1.9 3.4c.4.6 1 1 1.8 1h.1l8.9-.4c.9 0 1.6-.6 1.8-1.4 2.2-7.5 10.7-8.3 14.3-8.3h1.1c.9.1 1.8-.5 2.1-1.4l1.6-5.4c.2-.7-.1-1.6-.7-2.1z"/><path fill="#FF9B0B" d="M2033.4 282.9c-1.2 0-2.4-.5-3.2-1.6-1.3-1.8-1-4.3.8-5.6l101.2-76.9c1.8-1.3 4.3-1 5.6.8 1.3 1.8 1 4.3-.8 5.6l-101.2 76.9c-.7.5-1.5.8-2.4.8z"/><path fill="#E1A987" d="M2030.9 280.1c-8 0-15.9-3.2-22.6-9.2-7.7-6.9-13.1-16.9-15.2-28.1-4.4-23.9 7.9-46.2 27.5-49.8 4.3-.8 8.5 2.1 9.3 6.4s-2.1 8.5-6.4 9.3c-10.7 2-17.4 16.2-14.6 31.2 1.4 7.7 5 14.5 10.1 19 4.5 4.1 9.7 5.8 14.6 4.9 4.3-.8 8.5 2.1 9.3 6.4.8 4.3-2.1 8.5-6.4 9.3-1.9.4-3.8.6-5.6.6z"/><path fill="#42073A" d="M2076.3 142.1c2.8 15.2-9.4 18-24.7 20.8-15.2 2.8-27.6 4.5-30.4-10.7-2.8-15.2 7.3-29.8 22.5-32.6 15.2-2.8 29.8 7.3 32.6 22.5z"/><circle fill="#E1A987" cx="2051.8" cy="152.7" r="22"/><circle fill="#42073A" cx="2067.5" cy="149.8" r="2"/><path fill="#E1A987" d="M2077.7 150c2.2-.4 4.3 1 4.7 3.2.4 2.2-1 4.3-3.2 4.7l-15.7 2.9-1.4-7.9 15.6-2.9z"/><circle fill="#42073A" cx="2059.7" cy="151.3" r="2"/><path fill="#E1A987" d="M2053.063 170.67l7.87-1.445 2.887 15.738-7.87 1.444z"/><path fill="#E1A987" d="M2059.9 185.8c.4 2.2-1 4.3-3.2 4.7-2.2.4-4.3-1-4.7-3.2-.4-2.2 1-4.3 3.2-4.7 2.2-.4 4.3 1 4.7 3.2zM2100.1 247c-5.9 0-11.7-1.8-16.7-5.1-3.7-2.5-4.6-7.4-2.2-11.1 2.5-3.7 7.4-4.6 11.1-2.2 3.1 2.1 6.7 2.8 10.4 2.2 7.6-1.4 12.6-8.7 11.2-16.3-2.2-11.9-13.7-19.9-25.6-17.7l-9.8 1.8c-4.4.8-8.5-2.1-9.3-6.4s2.1-8.5 6.4-9.3l9.8-1.8c20.6-3.8 40.5 9.9 44.2 30.5 3 16.3-7.8 31.9-24.1 34.9-1.7.4-3.6.5-5.4.5z"/><path fill="#FFCE4B" d="M2067.805 184.272l19.672-3.608 4.33 23.606-19.673 3.608zM2020.51 192.952l19.672-3.608 4.33 23.606-19.672 3.608z"/><path fill="#42073A" d="M2058.9 143.3c3.9 3 9.7 4.3 15.8 3.2l-8.5-14.7-8.6-2.5-1 2c-3.7-5.2-10.8-8-18.1-6.7-9.8 1.8-16.4 10.3-14.8 19 .2 1.4.7 2.6 1.3 3.8l-4.2.8 5 29c-1.9 3.2-2.8 7.1-2 11.1 1.6 8.7 9.9 14.4 18.6 12.8 8.7-1.6 14.4-9.9 12.8-18.6L2050 154c4.5-2.3 7.7-6.2 8.9-10.7z"/><path fill="#42073A" d="M2066.5 174.7c-.2 0-.3 0-.5-.1l-5.5-1.5c-.8-.2-1.4-.9-1.5-1.7-.1-.8.3-1.6 1-2l6.9-4c.7-.4 1.6-.3 2.2.2.6.5.9 1.3.7 2.1l-1.5 5.5c-.1 1-.9 1.5-1.8 1.5zM2068.3 163.7c-.6 0-1.2-.3-1.6-.8-.7-.9-.5-2.1.4-2.8l3.6-2.7c.5-.4 1.2-.5 1.8-.3l4.3 1.2c1.1.3 1.7 1.4 1.4 2.5-.3 1.1-1.4 1.7-2.5 1.4l-3.3-.9-2.8 2.1c-.5.2-.9.3-1.3.3z"/><path fill="#FF9B0B" d="M2101.6 222.1l30.7-23.3c1.8-1.3 4.3-1 5.6.8 1.3 1.8 1 4.3-.8 5.6l-29.3 22.2"/><path fill="#42073A" d="M2162.8 182.9c-.7-.4-1.6-.3-2.2.2-1.3 1.1-3.5 1.5-5 1.6.4-1.6 1.2-3.6 2.5-4.6.6-.5.9-1.4.6-2.1-.2-.8-.9-1.3-1.7-1.4l-5.6-.5c-.9-.1-1.8.5-2.1 1.4 0 .1-3.6 11.4-12.3 11.4h-1c-.9-.1-1.7.4-2 1.2l-3.6 8.2c-.3.7-.2 1.5.3 2.1l2.5 3 2.6 3.1c.4.5 1 .7 1.5.7.2 0 .3 0 .5-.1l8.7-2c.8-.2 1.5-.9 1.5-1.8.4-3.9 2.7-6.9 6.9-8.9 3.4-1.6 6.7-2 6.7-2 .9-.1 1.7-.9 1.8-1.8l.5-5.6c0-.9-.4-1.7-1.1-2.1z"/></g><g><path fill="#F8EACF" d="M1504 288l8 12-24-12h16m0-4h-16c-1.9 0-3.5 1.3-3.9 3.1-.4 1.8.4 3.7 2.1 4.5l24 12c.6.3 1.2.4 1.8.4 1.1 0 2.2-.5 3-1.4 1.2-1.4 1.3-3.4.3-4.9l-8-12c-.7-1-2-1.7-3.3-1.7z"/><path fill="#FFF" d="M1488 288l24 12-8-12M1488 300h-8l8-12"/><path fill="#DDD0BA" d="M1472.1 258s-10.5-.3-12-2.1c0 0-3.8-2.6-1.4-7.1 0 0 2.6-5.4 8.8-6.2 0 0 3.4-.8 7.8 1.3"/><circle fill="#AA7D6A" cx="1496.1" cy="256" r="24"/><path fill="#AA7D6A" d="M1472.1 256h16v12h-16z"/><circle fill="#AA7D6A" cx="1472.1" cy="262" r="6"/><path fill="#FFF" d="M1471.6 242.7s2.9-.6 4.8-.5"/><circle fill="#42073A" cx="1486" cy="254" r="2"/><circle fill="#42073A" cx="1478" cy="254" r="2"/><path fill="#F8EACF" d="M1501 248.1c11.5 6.6 18 16.1 15.8 19.9 6.6-11.5 2.7-26.2-8.8-32.8s-26.2-2.7-32.8 8.8c2.2-3.8 14.3-2.6 25.8 4.1z"/><path fill="#F8EACF" d="M1501.1 248.1s-20.8-.2-33.6-5.4c0 0 13.1-1.4 16.3-1 0-.1 13 2.4 17.3 6.4z"/><circle fill="#AA7D6A" cx="1512.1" cy="256" r="4"/><path fill="#F8EACF" d="M1574.7 315.7c-2.4-3.7-7.3-4.8-11.1-2.4-6.9 4.4-12.7 5.7-17.3 3.8-8.7-3.6-13.4-17.7-14.5-22.8-.8-3.7-4.1-6.3-7.8-6.3h-20.6H1464c-2.4 0-4.8 1.1-6.4 3.2l-2.1 2.7c.1-1.9.2-3.9.2-5.9 0-4.4-3.5-8-7.9-8.1h-.1c-4.4 0-8 3.5-8 7.9-.2 19.7-7.1 36.8-7.1 37-1.5 3.7-.1 8 3.4 10 1.2.7 2.6 1.1 4 1.1 2.4 0 4.8-1.1 6.4-3.2l19.1-25.4 5.7 42.7-17-3.8c-3.7-.8-7.5.5-9.9 3.4-2.4 2.9-3 6.9-1.5 10.3l24 56c1.6 3.8 5.3 6.1 9.2 6.1 1.3 0 2.7-.3 3.9-.8 5.1-2.2 7.4-8.1 5.3-13.1l-12.4-28.8c7.7 1.4 20.3 3.4 33.2 3.4 6.8 0 13.7-.5 20-2V412c0 5.5 4.5 10 10 10s10-4.5 10-10v-60c0-3.1-1.4-6-3.8-7.9-2.4-1.9-5.6-2.6-8.6-1.8l-8.8 2.2 1.6-23.9c3.5 4.6 8 8.8 13.8 11.3 3.4 1.4 7 2.1 10.7 2.1 6.8 0 14-2.4 21.5-7.3 3.6-2.4 4.7-7.3 2.3-11z"/><path fill="#AA7D6A" d="M1492 276h8v12h-8z"/><g fill="#F8EACF"><path d="M1484 408h-16c-.7 0-1.4.2-2.1.6l-20 12c-1.5.9-2.3 2.8-1.8 4.5.5 1.7 2.1 2.9 3.9 2.9h36c2.2 0 4-1.8 4-4v-12c0-2.2-1.8-4-4-4zM1566.1 420.6l-20-12c-.6-.4-1.3-.6-2.1-.6h-16c-2.2 0-4 1.8-4 4v12c0 2.2 1.8 4 4 4h36c1.8 0 3.4-1.2 3.9-2.9.4-1.8-.3-3.6-1.8-4.5z"/></g><path fill="#AA7D6A" d="M1577.1 310.9c1.8 1.8 2.9 4.3 2.9 7.1 0 5.5-4.5 10-10 10s-10-4.5-10-10c0-3.2 1.5-6 3.8-7.9"/><path fill="#AA7D6A" d="M1565.4 315c-.4 0-.7-.1-1.1-.2-1.5-.6-2.3-2.3-1.7-3.9.8-2.1.2-3.4.2-3.4-.8-1.4-.3-3.3 1.1-4.1 1.4-.8 3.3-.3 4.1 1.1.2.4 2 3.7.2 8.6-.5 1.2-1.6 1.9-2.8 1.9z"/><path fill="#AA7D6A" d="M1568.4 316c-.3 0-.6 0-.8-.1-1.6-.2-2.8-1.8-2.5-3.4.2-1.6 1.8-2.8 3.4-2.5 1.7.1 8.8-2.4 14.4-4.8 1.5-.7 3.3 0 3.9 1.6.7 1.5 0 3.3-1.6 3.9-3.8 1.7-12.6 5.3-16.8 5.3z"/><path fill="#AA7D6A" d="M1568.4 320c-.3 0-.6 0-.8-.1-1.6-.2-2.8-1.8-2.5-3.4.2-1.6 1.8-2.8 3.4-2.5 1.9.2 11.1-2.4 18.6-4.9 1.6-.5 3.3.3 3.8 1.9.5 1.6-.3 3.3-1.9 3.8-4.9 1.7-16.2 5.2-20.6 5.2zM1448 304c-4.1 0-7.5-3.1-8-7.2-.4-4-.2-8.2.7-12.2.9-4.3 5.2-7.1 9.5-6.2 4.3.9 7.1 5.2 6.2 9.5-.5 2.5-.7 4.9-.4 7.3.4 4.4-2.8 8.3-7.2 8.8h-.8z"/><path fill="#FFCE4B" d="M1432 298c-2.2 0-4.3-1.2-5.4-3.3-1.5-3-.3-6.6 2.7-8.1l31.7-16c3-1.5 6.6-.3 8.1 2.7s.3 6.6-2.7 8.1l-31.8 16c-.8.4-1.7.6-2.6.6z"/><circle fill="#F8EACF" cx="1463.7" cy="276" r="8"/><circle fill="#AA7D6A" cx="1453" cy="286" r="3"/></g><g><path fill="#AA7D6A" d="M1907.6 324l-8.6 11 11.2-4.4-.5-7.5"/><path fill="#2A0423" d="M1888.6 333.7l-2-12c-.2-1-1-1.7-2-1.7h-2c-.6 0-1.2.3-1.6.8-.4.5-.5 1.2-.3 1.8l4 12c.3.8 1.1 1.4 1.9 1.4.2 0 .3 0 .5-.1 1-.2 1.7-1.2 1.5-2.2z"/><path fill="#2A0423" d="M1880.4 331.8l2.8-13.6h-7.2l-11 21.8s-1.9 4.8-.5 8 12.9 5.6 16.4-2.2c0 0 1.1-1.7 2.3-7.6 1.2-5.9 3.8-20.7 3.8-20.7l-6.6 14.3zm-13 11.4l-.1-1h10.4l.7 3.3-11-2.3z"/><path fill="#AA7D6A" d="M1872.2 350c-.7 0-1.5-.1-2.2-.4-3.1-1.2-4.6-4.7-3.3-7.8.3-.7 29.4-74.1 18.5-132.7-.6-3.3 1.5-6.4 4.8-7 3.3-.6 6.4 1.5 7 4.8 11.6 62-17.9 136.2-19.1 139.3-1.1 2.4-3.3 3.8-5.7 3.8z"/><path fill="#2A0423" d="M1866.7 341s3.4 4.6 11.9 1.8c3.6-1.2-1.6 6-1.6 6l-5.5 2.1-4-1.6-3.4-4.6 2.6-3.7z"/><path fill="#AA7D6A" d="M1914 327l-1.1 6c-3.3-.1-6-2.8-5.9-6.1 0-.5.7-50.5-13.1-122.8-.6-3.3 1.5-6.4 4.8-7 3.3-.6 6.4 1.5 7 4.8 14 73.6 13.3 123.2 13.3 125.2-.1 3.3-1.7-.1-5-.1zM1955 212c-1 0-2-.2-3-.6-13.7-5.5-21-23.2-22.3-54.1-.9-20.4 1.3-40.7 1.7-42.9.9-4.3 5.1-7.1 9.4-6.3 4.3.9 7.1 5 6.3 9.2-.4 2.4-2.3 21.2-1.4 40.2 1.5 32.3 9.8 38 12.2 39 4.1 1.6 6.1 6.3 4.5 10.4-1.2 3.2-4.2 5.1-7.4 5.1z"/><g fill="#2A0423"><path d="M1785 326l-2 12 4-12"/><path d="M1787 326l-4 12 2-12h2m0-2h-2c-1 0-1.8.7-2 1.7l-2 12c-.2 1 .5 2 1.5 2.3.2 0 .3.1.5.1.8 0 1.6-.5 1.9-1.4l4-11.9c.1-.2.1-.5.1-.7 0-1.2-.9-2.1-2-2.1z"/></g><path fill="#2A0423" d="M1783.4 321.3s.6 11.8 1.8 17.7c1.2 5.9 1.3 7.6 1.3 7.6 3.6 7.8 15 5.4 16.4 2.2s-.5-8-.5-8l-8.2-21.8h-10l2.8 13.6-3.6-11.3zm5.8 24.9l.7-3.2h10.4l-.1 1-11 2.2z"/><path fill="#AA7D6A" d="M1757.4 340.9c-3.3-.3-6.7-2.3-6.3-5.6l12-13c.3-3.3-5.7-12.7-2.4-12.3 3.3.3 5.7 3.3 5.3 6.6l-1.4 13.5-7.2 10.8z"/><g fill="#2A0423"><path d="M1772 324l-15 16h-13s4 1 8-3c0 0 9.7-1 16-9l4-4z"/><path d="M1772 324l-15 16h-10.5c1.5-.2 3.5-1 5.5-3 0 0 9.7-1 16-9l4-4m-25.5 16c-.5.1-.9.1-1.3.1-.7 0-1.2-.1-1.2-.1h2.5m25.5-18c-.5 0-1 .2-1.4.6l-4 4-.2.2c-5.7 7.2-14.6 8.2-14.7 8.3-.5.1-.9.3-1.2.6-1.3 1.3-2.8 2.1-4.3 2.4h-2.3c-1 0-1.9.8-2 1.8s.5 1.9 1.5 2.2c.1 0 .7.2 1.7.2.5 0 1 0 1.5-.1h10.3c.6 0 1.1-.2 1.5-.6l15-16c.7-.8.7-2-.1-2.8-.3-.6-.8-.8-1.3-.8z"/></g><g fill="#2A0423"><path d="M1770 340v-18M1770 342c-1.1 0-2-.9-2-2v-18c0-1.1.9-2 2-2s2 .9 2 2v18c0 1.1-.9 2-2 2z"/></g><path fill="#AA7D6A" d="M1794.8 350c-2.5 0-4.9-1.6-5.7-4.2-1-3.1-24.3-77.2-12.8-138.9.6-3.3 3.7-5.4 7-4.8 3.3.6 5.4 3.7 4.8 7-11 58.8 12.2 132.3 12.4 133.1 1 3.2-.7 6.5-3.9 7.5-.6.2-1.2.3-1.8.3zM1712 188c-4.4 0-8-3.6-8-8s3.6-8 8-8c.1 0 7.2-.3 18.1-27 6.2-15.3 10.1-30.8 10.2-30.9 1.1-4.3 5.4-6.9 9.7-5.8 4.3 1.1 6.9 5.4 5.8 9.7-.2.7-4.2 16.7-10.8 33.1-10.3 25.1-20.8 36.9-33 36.9z"/><path fill="#42073A" d="M1760 51.5c-11.3 0-20.5 10.1-20.5 22.5v6c0 2.5 2 4.5 4.5 4.5s4.5-2 4.5-4.5v-.1l31-5.8c0 .2.2.4.5.4s.5-.2.5-.5c0-12.4-9.2-22.5-20.5-22.5z"/><g fill="#3A2751"><path d="M1851.2 293.6l2 12-4-12"/><path d="M1849.2 293.6h2l2 12-4-12m0-2c-.6 0-1.2.3-1.6.8-.4.5-.5 1.2-.3 1.8l4 12c.3.8 1.1 1.4 1.9 1.4.2 0 .3 0 .5-.1 1-.3 1.7-1.2 1.5-2.3l-2-12c-.2-1-1-1.7-2-1.7l-2 .1z"/></g><g fill="#2A0423"><path d="M1837.4 324l2 12-4-12"/><path d="M1835.4 324h2l2 12-4-12m0-2c-.6 0-1.2.3-1.6.8-.4.5-.5 1.2-.3 1.8l4 12c.3.8 1.1 1.4 1.9 1.4.2 0 .3 0 .5-.1 1-.3 1.7-1.2 1.5-2.3l-2-12c-.2-1-1-1.7-2-1.7l-2 .1z"/></g><path fill="#2A0423" d="M1835.2 333.6l2.8-13.6h-10l-8.2 21.8s-1.9 4.8-.5 8 12.9 5.6 16.4-2.2c0 0 .1-1.7 1.3-7.6 1.2-5.9 1.8-17.7 1.8-17.7l-3.6 11.3zm-13.1 11.4l-.1-1h10.4l.7 3.2-11-2.2z"/><path fill="#FFCE4B" d="M1857 319.5c-.1-1-12-104.1-9.2-129.9 1.8-5.2 2.2-6.7.9-8.6-.8-1.1-2-1.7-3.3-1.7-2.5 0-3.6 2-4 2.8-.7 1.3-1.2 3.1-1.5 5.7-2.2 6.3-5.7 15.7-5.7 15.8-.2.6-.3 1.3-.2 1.9l15 115c.3 2 2 3.5 4 3.5h.5c2.2-.3 3.7-2.3 3.5-4.5zm-18.9-114.8c0-.1.1-.3.2-.5-.1.2-.2.4-.2.5zm7.3-21.3zm-1.5 5.3c0-.1 0-.1.1-.2-.1.1-.1.2-.1.2z"/><path fill="#AA7D6A" d="M1828 350c-.5 0-1-.1-1.5-.2-3.2-.8-5.1-4.1-4.3-7.3.2-.7 18.9-74.5 7.9-133.4-.6-3.3 1.5-6.4 4.8-7 3.3-.6 6.4 1.5 7 4.8 11.5 61.6-7.3 135.5-8.1 138.6-.7 2.7-3.1 4.5-5.8 4.5zM1832 124c-1.5 0-3.1-.4-4.4-1.3-1.6-1.1-39.6-27.1-39.6-90.7 0-4.4 3.6-8 8-8s8 3.6 8 8c0 54.6 31.2 76.5 32.5 77.4 3.6 2.5 4.6 7.4 2.1 11.1-1.5 2.3-4 3.5-6.6 3.5zM1848.4 114.4c-.6-2-.7-2.3 2-15.5 1.3-6.5 3.6-16.3 6.5-26.6 11.9-42.1 23.3-48.9 27-51.2 3.8-2.3 8.7-1 11 2.7 2.3 3.8 1 8.7-2.7 11-2.3 1.4-10.4 8.4-19.8 41.6-5.4 18.9-8.4 36.7-8.4 36.9l-7.9-1.3 1.3-7.9-1.3 7.9-7.7 2.4z"/><path fill="#42073A" d="M1808 80c0 6.6 5.4 12 12 12s12-5.4 12-12 13.4-32 12-32c-20 0-36 25.4-36 32z"/><circle fill="#AA7D6A" cx="1844" cy="80" r="20"/><path fill="#AA7D6A" d="M1824 84c-2.2 0-4 1.8-4 4s1.8 4 4 4h16v-8h-16zM1840 92h8v16h-8z"/><path fill="#42073A" d="M1846 83c-1.7 0-3-1.3-3-3 0-.6.4-1 1-1s1 .4 1 1 .4 1 1 1 1-.4 1-1 .4-1 1-1 1 .4 1 1c0 1.7-1.3 3-3 3zM1834 83c-1.7 0-3-1.3-3-3 0-.6.4-1 1-1s1 .4 1 1 .4 1 1 1 1-.4 1-1 .4-1 1-1 1 .4 1 1c0 1.7-1.3 3-3 3z"/><path fill="#A85639" d="M1843.7 87c-.5.2-1.1 1-1.7 1-.7 0-1.3-.8-1.7-1-2.5.5-4.3 1.9-4.3 3.7 0 2.1 2.7 3.8 6 3.8s6-1.7 6-3.8c0-1.8-1.8-3.2-4.3-3.7z"/><path fill="#C46641" d="M1836 90.7c0 2.1 2.7 3.8 6 3.8s6-1.7 6-3.8h-12z"/><path fill="#42073A" d="M1877.6 74.6l-6.5-6.6h.9l-12-12h-24l-12 12v12c5.8 0 11.5-6.2 14.3-9.7 4.5 2.2 23.3 11 34.6 11.7l1.3 2.9c.3.7 1.1 1.2 1.8 1.2h.4c.9-.2 1.6-1 1.6-2 0-3 .1-6.6.1-7.5v-.1c.2-.7 0-1.4-.5-1.9z"/><path fill="#42073A" d="M1844 48c-.1 0-.1.2-.1.5h-3.8v15h8l-.4-5.9c3.5 7.9 8.3 18.5 8.3 22.4 0 6.6 5.4 12 12 12s12-5.4 12-12-16-32-36-32z"/><circle fill="#AA7D6A" cx="1764" cy="80" r="20"/><path fill="#AA7D6A" d="M1760 92h8v16h-8z"/><path fill="#42073A" d="M1762 85c-1.7 0-3-1.3-3-3 0-.6.4-1 1-1s1 .4 1 1 .4 1 1 1 1-.4 1-1 .4-1 1-1 1 .4 1 1c0 1.7-1.3 3-3 3z"/><path fill="#B1846A" d="M1832 108h32v12h-32z"/><path fill="#AA7D6A" d="M1848 108c0 6.6 7.2 12 16 12v-12h-16z"/><path fill="#FFCE4B" d="M1863.2 117.5c-.8-1-1.9-1.5-3.2-1.5-5.4 0-8.4-5.8-8.4-5.8-.7-1.4-2.1-2.2-3.6-2.2h-20c-2.2 0-4 1.8-4 4v6c-2.9 2.3-8 7.5-8 14 0 3.7 1.8 7.6 5.1 11.2 1.1 1.2 2.1 2.1 2.9 2.8v174c0 2.1 1.7 3.9 3.8 4h.2c2 0 3.7-1.5 4-3.5l13-110.5c.3 0 .7.1 1 .1 8.8 0 16-9.9 16-22 0-9.1-4.1-17-9.8-20.3l11.7-46.7c.3-1.3 0-2.6-.7-3.6z"/><path fill="#2A0423" d="M1821.9 343.6s4 4 12 0c3.4-1.7 0 4 0 4l-6 4h-4l-4-4 2-4zM1800.6 342.6s-4 4-12 0c-3.4-1.7 0 6 0 6l6 2h4l4-4-2-4z"/><path fill="#42073A" d="M1784.4 63.8l-.1-.1c-.2-.2-4.2-4.1-8.4-4.1h-12c-.2 0-.4.1-.5.3-.1.2 0 .4.1.5l7.9 7.9c.6 1.2 7.9 16.2 7.9 23.7 0 .7 0 1.9.8 1.9.4 0 .7-.3.8-.6 2.4-3.4 6.8-22.9 3.5-29.5z"/><path fill="#42073A" d="M1772.9 68.4c0-.1.1-.2.1-.4v-8c0-.6-.4-1-1-1h-16c-.3 0-.5.1-.7.3l-8 8c-.2.2-.3.4-.3.7h-3v12c6.6 0 13.2-8.1 15.3-11h3.5c-.7 2.9-3.2 10-10.8 10-.6 0-1 .4-1 1s.4 1 1 1h4c10.5 0 16.4-11.5 16.9-12.5v-.1z"/><path fill="#AA7D6A" d="M1744 84c-2.2 0-4 1.8-4 4s1.8 4 4 4h16l-4-8h-12z"/><circle fill="#AA7D6A" cx="1776" cy="83" r="3"/><circle fill="#AA7D6A" cx="1856" cy="83" r="3"/><path fill="#F8EACF" d="M1856 89.5c-1.4 0-2.5-1.1-2.5-2.5s1.1-2.5 2.5-2.5 2.5 1.1 2.5 2.5-1.1 2.5-2.5 2.5zm0-4c-.8 0-1.5.7-1.5 1.5s.7 1.5 1.5 1.5 1.5-.7 1.5-1.5-.7-1.5-1.5-1.5zM1778 89.5c-1.4 0-2.5-1.1-2.5-2.5s1.1-2.5 2.5-2.5 2.5 1.1 2.5 2.5-1.1 2.5-2.5 2.5zm0-4c-.8 0-1.5.7-1.5 1.5s.7 1.5 1.5 1.5 1.5-.7 1.5-1.5-.7-1.5-1.5-1.5z"/><path fill="#42073A" d="M1920 52c-13.2 0-24 10.3-24 22.9V80c0 2.2 1.8 4 4 4h40c2.2 0 4-1.8 4-4v-5.1c0-12.6-10.8-22.9-24-22.9z"/><circle fill="#AA7D6A" cx="1920" cy="80" r="20"/><path fill="#AA7D6A" d="M1900 84h16v8h-16zM1916 92h8v16h-8z"/><path fill="#42073A" d="M1918 85c-1.7 0-3-1.3-3-3 0-.6.4-1 1-1s1 .4 1 1 .4 1 1 1 1-.4 1-1 .4-1 1-1 1 .4 1 1c0 1.7-1.3 3-3 3zM1906 85c-1.7 0-3-1.3-3-3 0-.6.4-1 1-1s1 .4 1 1 .4 1 1 1 1-.4 1-1 .4-1 1-1 1 .4 1 1c0 1.7-1.3 3-3 3z"/><path fill="#A85639" d="M1915.7 88.5c-.5.2-1.1 1-1.7 1-.7 0-1.3-.8-1.7-1-2.5.5-4.3 1.9-4.3 3.7 0 2.1 2.7 3.8 6 3.8s6-1.7 6-3.8c0-1.7-1.8-3.2-4.3-3.7z"/><path fill="#C46641" d="M1908 92.2c0 2.1 2.7 3.8 6 3.8s6-1.7 6-3.8h-12z"/><path fill="#42073A" d="M1940 75.4V64.5c.1 0 .3-.1.4-.1.2-.2.2-.5 0-.7-.2-.2-4.2-4.1-8.4-4.1h-3.2c-.2-.3-.5-.5-.8-.5h-16c-.3 0-.5.1-.7.3l-8 8c-.2.2-.3.6-.3.9-3 1.2-3 7.8-3 7.8 9.1 0 13.1-2.6 14.7-4.8 4.4 4.7 13.8 12.8 25.3 12.8v-7.5c.1 0 .3-.1.4-.2.2-.2.1-.5-.1-.7l-.3-.3z"/><circle fill="#AA7D6A" cx="1900" cy="88" r="4"/><circle fill="#AA7D6A" cx="1932" cy="83" r="3"/><path fill="#F8EACF" d="M1934 89.5c-1.4 0-2.5-1.1-2.5-2.5s1.1-2.5 2.5-2.5 2.5 1.1 2.5 2.5-1.1 2.5-2.5 2.5zm0-4c-.8 0-1.5.7-1.5 1.5s.7 1.5 1.5 1.5 1.5-.7 1.5-1.5-.7-1.5-1.5-1.5z"/><path fill="#FFCE4B" d="M1786.5 192.9c-.7-.6-1.6-.9-2.5-.9h-.1l-.9-73c0-1.2-.6-2.3-1.4-3 .3-.3.6-.5.9-.8 1.3-1.1 1.9-2.8 1.3-4.5-.6-1.6-4.8 1.3-4.8-2.7h-31c-2.1 0-3.9 1.7-4 3.8l-.2 4.2c-.7 0-1.4.3-2.1.7-1 .7-9.8 6.8-9.8 15.3 0 3.7 1.8 7.6 5.1 11.2 2.3 2.4 4.5 4 4.7 4.1.2.1.4.3.7.4l-2.4 56.2V204.5c.1.8 8 80.2 8 115.6 0 1.3.7 2.6 1.8 3.3.5.4 13.2 8.7 30.2 8.7 1.1 0 2.1-.4 2.9-1.2.8-.8 1.2-1.8 1.1-2.9 0-.2-.9-25.5-1-51.6-.1-46.8 2.6-55.5 3.4-57.1 1-.7 1.6-1.9 1.6-3.2v-20c0-1.3-.5-2.4-1.5-3.2zM1944 108h-36c-1.8 0-3.4 1.2-3.9 3l-2.4 9.7c-1.2.8-9.7 6.9-9.7 15.3 0 3.1 1.2 6.3 3.5 9.4l-11.4 45.7v.4l-21 140c-.3 2.1 1.1 4.1 3.1 4.5.3.1.5.1.8.1 1.8 0 3.4-1.2 3.9-3l31.6-119.3c.8.2 1.7.3 2.6.3 8.8 0 16-9.9 16-22 0-4-.8-7.7-2.1-11l17-55.9c.1-.4.2-.8.2-1.2 0-3.4 1.2-5.6 3.8-6.9 2-1 4.2-1.1 4.2-1.1 2.2 0 4-1.8 4-4s-2-4-4.2-4z"/><path fill="#FFCE4B" d="M1931.9 319.1c-.1-.3-6-26.3-11.7-54.9-9.2-46.4-10.7-64.5-10.3-71.4 1.5-4.3 1.9-5.9.6-7.7-.8-1-2-1.7-3.3-1.7-2.5 0-3.6 2-4 2.8-.7 1.2-1.1 2.8-1.3 5-2.1 6.3-5.9 16.4-5.9 16.5-.3.8-.3 1.6-.1 2.4l28.2 111c.5 1.8 2.1 3 3.9 3 .3 0 .6 0 .9-.1 2.2-.6 3.5-2.8 3-4.9zM1906 191.9v-.1.1zm1.2-4.5s.1 0 0 0c.1 0 .1 0 0 0 .1 0 0 0 0 0zm9.1 77.8c1 5.3 2.1 10.4 3.1 15.3-1-4.9-2-10-3.1-15.3z"/><path fill="#2A0423" d="M1921 324c0-1.1-.9-2-2-2H1918.4c-.1 0-.2 0-.2.1-.1 0-.1.1-.2.1 0 0-.1 0-.1.1l-.2.2s-.1 0-.1.1l-2.5 2.7c-6.5 6-16.6 9.7-16.7 9.8-.3.1-.5.3-.7.5-1.3 1.3-2.8 2.1-4.3 2.4h-2.3c-1 0-1.9.8-2 1.8s.5 1.9 1.5 2.2c.1 0 .7.2 1.7.2.5 0 1 0 1.5-.1h10.3c.6 0 1.1-.2 1.5-.6l11.5-12.3V340c0 1.1.9 2 2 2s2-.9 2-2l-.1-16zm-28.8 16.1s-.1 0 0 0zm24.2-13.3L1904 340l12.4-13.2c0-.1.1-.1 0 0 .1-.1 0-.1 0 0z"/><path fill="#A85639" d="M1759.7 88.5c-.5.2-1.1 1-1.7 1-.7 0-1.3-.8-1.7-1-2.5.5-4.3 1.9-4.3 3.7 0 2.1 2.7 3.8 6 3.8s6-1.7 6-3.8c0-1.7-1.8-3.2-4.3-3.7z"/><path fill="#C46641" d="M1752 92.2c0 2.1 2.7 3.8 6 3.8s6-1.7 6-3.8h-12z"/><path fill="#42073A" d="M1750 85c-1.7 0-3-1.3-3-3 0-.6.4-1 1-1s1 .4 1 1 .4 1 1 1 1-.4 1-1 .4-1 1-1 1 .4 1 1c0 1.7-1.3 3-3 3zM1838 378c-1.1 0-2-.9-2-2V168c0-1.1.9-2 2-2s2 .9 2 2v208c0 1.1-.9 2-2 2z"/><path fill="#42073A" d="M1850 378h-24c-1.1 0-2-.9-2-2s.9-2 2-2h24c1.1 0 2 .9 2 2s-.9 2-2 2z"/><path fill="#F8EACF" d="M1838 140c-4.4 0-8 3.6-8 8v12c0 4.4 3.6 8 8 8s8-3.6 8-8v-12c0-4.4-3.6-8-8-8z"/><path fill="#42073A" d="M1835 150h-3c-1.1 0-2-.9-2-2s.9-2 2-2h3c1.1 0 2 .9 2 2s-.9 2-2 2zM1844 150h-3c-1.1 0-2-.9-2-2s.9-2 2-2h3c1.1 0 2 .9 2 2s-.9 2-2 2zM1835 162h-3c-1.1 0-2-.9-2-2s.9-2 2-2h3c1.1 0 2 .9 2 2s-.9 2-2 2zM1835 156h-3c-1.1 0-2-.9-2-2s.9-2 2-2h3c1.1 0 2 .9 2 2s-.9 2-2 2zM1844 162h-3c-1.1 0-2-.9-2-2s.9-2 2-2h3c1.1 0 2 .9 2 2s-.9 2-2 2zM1844 156h-3c-1.1 0-2-.9-2-2s.9-2 2-2h3c1.1 0 2 .9 2 2s-.9 2-2 2z"/><path fill="#B1846A" d="M1784 212c-.5 0-.9 0-1.4-.1-4.3-.8-7.3-4.9-6.5-9.3 10.9-61.5-3.1-81.3-3.2-81.4-2.9-3.4-2.5-8.4.9-11.3 3.4-2.9 8.4-2.5 11.3.9 2 2.3 19.1 24.9 6.8 94.6-.7 3.9-4.1 6.6-7.9 6.6z"/></g><g><path fill="#E1A987" d="M1288 376c-4 0-7.4-3-7.9-7-4.1-32.8 3.7-80.3 4-82.3.7-4.4 4.8-7.3 9.2-6.6 4.4.7 7.3 4.8 6.6 9.2-.1.5-7.8 47.2-4 77.7.5 4.4-2.6 8.4-6.9 8.9-.3.1-.7.1-1 .1zM1250 368c-1.2 0-2.4-.3-3.6-.8-4-2-5.6-6.8-3.6-10.7 14.6-29.2 7.4-66.5 7.3-66.9-.9-4.3 1.9-8.5 6.3-9.4 4.3-.9 8.5 1.9 9.4 6.3.3 1.7 8.3 43.1-8.7 77.1-1.3 2.8-4.2 4.4-7.1 4.4zM1268 172h8v16h-8z"/><path fill="#42073A" d="M1248 148h8v32h-8z"/><path fill="#42073A" d="M1300 172v-22c0-12.2-11.6-22-26-22s-26 9.8-26 22v22"/><circle fill="#E1A987" cx="1274" cy="158" r="22"/><path fill="#E1A987" d="M1248 160h16v8h-16z"/><path fill="#42073A" d="M1296 152h-44l8-16h28"/><circle fill="#E1A987" cx="1248" cy="164" r="4"/><path fill="#A85639" d="M1268.7 167c-.5.2-1.1 1-1.7 1-.7 0-1.3-.8-1.7-1-2.5.5-4.3 1.9-4.3 3.7 0 2.1 2.7 3.8 6 3.8s6-1.7 6-3.8c0-1.8-1.8-3.2-4.3-3.7z"/><path fill="#C46641" d="M1261 170.7c0 2.1 2.7 3.8 6 3.8s6-1.7 6-3.8h-12z"/><path fill="#333" d="M1263.7 161.8c-.3 0-.7-.2-.9-.5-.2-.3-1.8-2.6-5.3-.7l-.2.1h-.3c-.8 0-2.4-.6-3-2.7-.1-.5.2-1.1.7-1.2.5-.1 1.1.2 1.2.7.2.8.7 1.1.9 1.2 4.1-2 6.8.1 7.6 1.6.3.5.1 1.1-.3 1.4-.1 0-.2.1-.4.1z"/><circle fill="#42073A" cx="1252" cy="180" r="4"/><path fill="#42073A" d="M1252 156s12 0 16-4v-4h-16M1268 152s8 4 16 0M1252 138c0-14.4 9.8-26 22-26s22 11.6 22 26"/><path fill="#FFCE4B" d="M1274 130c12.6 0 23 8.2 23.9 18.6-1.4.2-4.5.3-11.4.3-12.5 0-30.4-.6-36.4-.8 1.2-10.2 11.4-18.1 23.9-18.1m0-2c-14.4 0-26 9.8-26 22 0 0 23.1.9 38.5.9 7.7 0 13.5-.2 13.5-.9 0-12.2-11.6-22-26-22z"/><path fill="#E1A987" d="M1339.2 248.7c-30.7-13.6-31.2-51.1-31.2-52.7 0-4.4-3.6-8-8-8-.8 0-1.6.1-2.4.4-.5-.2-1.1-.4-1.6-.4h-20c0-2.2-1.8-4-4-4s-4 1.8-4 4h-16.8c-1.5 0-2.8.8-3.5 2-2 1.1-3.6 3-4.1 5.4-1.1 5.4-4 10.1-8 13.2-3.6 2.8-7.8 3.9-11.8 3-4-.8-7.3-3.5-9.6-7.5-2.4-4.4-3.1-9.9-2-15.3.9-4.3-1.9-8.6-6.2-9.5-4.3-.9-8.6 1.9-9.5 6.2-1.9 9.2-.6 18.5 3.6 26.3 4.5 8.2 11.7 13.7 20.3 15.5 2 .4 4 .6 6 .6 6.6 0 13.1-2.3 18.8-6.6 2.3-1.8 4.4-3.9 6.3-6.2 4.7 13.6 13.1 26.8 25.1 26.8 10.6 0 16.4-10 19.5-21.1 4.8 15 15 32.9 36.4 42.4 1.1.5 2.2.7 3.2.7 3.1 0 6-1.8 7.3-4.8 2.1-3.9.3-8.6-3.8-10.4z"/><path fill="#FFCE4B" d="M1302.1 124.6c-.6-.4-1.4-.6-2.1-.6-.6 0-1.2.1-1.8.4l-8 4c-.1 0-.1.1-.2.1s-.1-.1-.2-.1l-8-4c-.6-.3-1.2-.4-1.8-.4-.7 0-1.5.2-2.1.6-1.2.7-1.9 2-1.9 3.4v8c0 1.4.7 2.7 1.9 3.4.6.4 1.4.6 2.1.6.6 0 1.2-.1 1.8-.4l8-4c.1 0 .1-.1.2-.1s.1.1.2.1l8 4c.6.3 1.2.4 1.8.4.7 0 1.5-.2 2.1-.6 1.2-.7 1.9-2 1.9-3.4v-8c0-1.4-.7-2.7-1.9-3.4z"/><path fill="#42073A" d="M1298.4 151.9l-50.4.1v-4l49.9.5"/><circle fill="#42073A" cx="1298" cy="178" r="6"/><path fill="#FFCE4B" d="M1188 202c-2.3 0-4.4-1.3-5.4-3.4-1.4-3-.1-6.6 2.9-8l34-16c3-1.4 6.6-.1 8 2.9 1.4 3 .1 6.6-2.9 8l-34 16c-.9.3-1.7.5-2.6.5z"/><circle fill="#F8EACF" cx="1222" cy="180" r="8"/><path fill="#FFCE4B" d="M1315.7 294.5l-15.7-39.3V196c0-4.4-3.6-8-8-8s-8 3.6-8 8v4.7c-1.5-1.7-3.6-2.7-6-2.7s-4.5 1.1-6 2.7c-1.5-1.7-3.6-2.7-6-2.7s-4.5 1.1-6 2.7V188h-12v67.2l-15.7 39.3c-.5 1.2-.3 2.6.4 3.7s2 1.8 3.3 1.8h76c1.3 0 2.6-.7 3.3-1.8.8-1.1.9-2.5.4-3.7z"/><g fill="#42073A"><path d="M1256.9 158.7c-.3-.1-.7-.4-.9-1.2-.1-.5-.7-.8-1.2-.7-.5.1-.8.7-.7 1.2.6 2.1 2.2 2.7 3 2.7h.3l.2-.1c.5-.3.9-.4 1.3-.6-.1.2-.2.4-.2.7 0 .8.7 1.5 1.5 1.5s1.5-.7 1.5-1.5c0-.2 0-.3-.1-.5.7.4 1.1.9 1.2 1.1.2.3.5.5.9.5.2 0 .4 0 .5-.1.5-.3.6-.9.3-1.4-.8-1.5-3.5-3.6-7.6-1.6zM1277 156.8c-.5-.1-1.1.2-1.2.7-.2.8-.7 1.1-.9 1.2-4-2-6.8.1-7.6 1.6-.3.5-.1 1.1.3 1.4.2.1.3.1.5.1.3 0 .7-.2.9-.5 0-.1.4-.7 1.2-1.1 0 .1-.1.3-.1.5 0 .8.7 1.5 1.5 1.5s1.5-.7 1.5-1.5c0-.2-.1-.5-.2-.7.4.1.9.3 1.3.6l.2.1h.3c.8 0 2.4-.6 3-2.7.1-.5-.2-1.1-.7-1.2z"/></g><path fill="#F8EACF" d="M1197.4 190c-1.1-.2-2.1.6-2.3 1.7L1168.3 366l-10-2.5c-.5-.1-1-.2-1.5-.2-2.8 0-5.1 1.9-5.8 4.5l-1 3.9c-.3 1.1.4 2.2 1.5 2.4l31 7.8c.2 0 .3.1.5.1.4 0 .7-.1 1-.3.5-.3.8-.7.9-1.2l1-3.9c.4-1.6.2-3.2-.7-4.5-.8-1.4-2.1-2.3-3.7-2.7l-9.4-2.4 26.8-174.7c.3-1.1-.5-2.1-1.5-2.3z"/><path fill="#2A0423" d="M1197.4 190c-1.1-.2-2.1.6-2.3 1.7L1168.3 366l-10-2.5c-.5-.1-1-.2-1.5-.2-2.8 0-5.1 1.9-5.8 4.5l-1 3.9c-.3 1.1.4 2.2 1.5 2.4l31 7.8c.2 0 .3.1.5.1.4 0 .7-.1 1-.3.5-.3.8-.7.9-1.2l1-3.9c.4-1.6.2-3.2-.7-4.5-.8-1.4-2.1-2.3-3.7-2.7l-9.4-2.4 26.8-174.7c.3-1.1-.5-2.1-1.5-2.3z"/><g fill="#42073A"><path d="M1261.2 368.1l-1.3-6.7 1.6-1.8c.4-.4.6-1 .5-1.6-.1-.6-.4-1.1-.9-1.4l-14.3-9.3c-.6-.4-1.5-.4-2.1 0-.7.4-1 1.1-1 1.9l.3 3.6-7.8 11.7c-1.1 1.6-.8 3.8.6 5.1.8.7 1.7 1.1 2.7 1.1.9 0 1.7-.3 2.5-.8l3.5-2.7v6.2c0 1.3.7 2.6 1.8 3.3l10 6.7c.7.4 1.4.7 2.2.7.8 0 1.6-.2 2.2-.7 1.3-.9 2-2.5 1.7-4.1l-2.2-11.2zM1297.7 358.9c-.4-.6-1-.9-1.7-.9h-17c-.7 0-1.3.4-1.7.9s-.4 1.3-.1 1.9l1.4 2.8-5.5 5.5-8 8c-1.1 1.1-1.5 2.9-.9 4.4s2.1 2.5 3.7 2.5h12c1.3 0 2.6-.7 3.3-1.8l3.5-5.2 1.4 4.2c.6 1.7 2.1 2.7 3.8 2.7.2 0 .4 0 .6-.1 1.9-.3 3.4-2 3.4-3.9v-15.5l1.8-3.6c.4-.5.4-1.3 0-1.9z"/></g><path fill="#42073A" d="M1284 148h16v48h-16z"/><circle fill="#42073A" cx="1296" cy="196" r="12"/><circle fill="#E1A987" cx="1284" cy="161" r="3"/><circle fill="#E1A987" cx="1209" cy="191" r="3"/></g><g><path fill="#42073A" d="M1095 394.9c-.1-.8-.2-1.6-.2-2.9v-4-4c0-1.1-.9-2-2-2s-2 .9-2 2v2.1h-9.9c-.7 0-1.4.4-1.7 1-4.5 7.6-9.7 10.9-12.7 12.3.2-2.1 0-3.2-.2-4.4-.1-.8-.2-1.6-.2-2.9v-4-4c0-1.1-.9-2-2-2s-2 .9-2 2v2.1h-9.9c-.7 0-1.4.4-1.7 1-6 10.1-13.3 12.7-14.9 13.2-4.1-.7-6.9-.2-8.4 1.3-1 1-1.1 2.2-1.1 2.5 0 .2 0 .3.1.4v.1c0 .1.1.2.1.4.1.3.4.5.6.7v.1c4.6 4.2 15.9 4.4 17.1 4.4 4.4 0 7.8-1.1 10-2.3v.3c0 1.1.9 2 2 2h8c.6 0 1.1-.2 1.4-.6 3.5.6 6.7.6 7.3.6 4.4 0 7.8-1.1 10-2.3v.3c0 1.1.9 2 2 2h8c1.1 0 2-.9 2-2v-6c.8-4.2.5-5.7.3-7.4z"/><path fill="#F8EACF" d="M1075.7 299.1c2.6-1.3 4.3-4 4.3-7.1 0-1.6-.5-3-1.2-4.3 2.1-5.1-.4-10.9-5.4-13-5.1-2.1-11 .3-13.1 5.4-.1.3-.7 1.6-1.4 3.8h-8.9c0-3.9-2.3-7.6-6.2-9.2-5.1-2.1-11 .3-13.1 5.4-.9 2.1-20.7 51.5 14.6 113.4 0 0 1.5 1.6 2.7 1 1.2-.6 13.9-8.7 13.9-8.7l.2-3.3c-20.2-36.1-19.1-66.6-16.1-82.7h9.3c-3 20.4-2.7 54.5 19.6 93.6 0 0 1.5 1.6 2.7 1 1.2-.6 13.9-8.7 13.9-8.7l.2-3.3c-20.7-36.5-19.1-67.5-16-83.3z"/><path fill="#AA7D6A" d="M1117.1 301.1c-2.6 0-5.2-1.3-6.7-3.6-2.4-3.7-1.4-8.7 2.3-11.1 7.6-5 13.2-12.5 15.7-21.3 5.8-20.1-5.9-41.2-26.1-47-4.2-1.2-6.7-5.6-5.5-9.9s5.6-6.7 9.9-5.5c28.6 8.2 45.2 38.2 37 66.8-3.6 12.4-11.5 23.2-22.3 30.3-1.3.9-2.8 1.3-4.3 1.3z"/><g fill="#F8EACF"><path d="M1069.162 196.263l15.38 4.41-24.26 84.595-15.38-4.41z"/><path d="M1069.1 196.2l15.4 4.4-24.3 84.6-15.4-4.4 24.3-84.6m-2.7-5l-1.1 3.8-24.3 84.6-1.1 3.8 3.8 1.1 15.4 4.4 3.8 1.1 1.1-3.8 24.3-84.6 1.1-3.8-3.8-1.1-15.4-4.4-3.8-1.1z"/></g><path fill="#FF9B0B" d="M1040.4 296.1l-20.8-14.3 27.5-96.1 23.1 6.6"/><circle fill="#42073A" cx="1102.4" cy="145.4" r="38"/><circle fill="#AA7D6A" cx="1087.8" cy="159.9" r="24"/><path fill="#AA7D6A" d="M1058.7 189l-9.6-2.8c-9.8-2.8-20-1.6-28.9 3.3-8.9 4.9-15.3 13-18.1 22.8-1.2 4.2 1.2 8.7 5.5 9.9.7.2 1.5.3 2.2.3 3.5 0 6.7-2.3 7.7-5.8 1.6-5.7 5.3-10.3 10.5-13.2 5.1-2.8 11.1-3.5 16.7-1.9l9.6 2.8c4.2 1.2 8.7-1.2 9.9-5.5 1.2-4.3-1.3-8.7-5.5-9.9zM1062 148.3c-2.1-.6-4.3.6-4.9 2.7s.6 4.3 2.7 4.9l15.4 4.4 2.2-7.7-15.4-4.3z"/><circle fill="#42073A" cx="1083.7" cy="152.5" r="2"/><path fill="#AA7D6A" d="M1081.693 195.585l-7.69-2.206 4.41-15.38 7.69 2.204z"/><path fill="#FF9B0B" d="M1112.9 166.3c-.1-1-.9-1.7-1.8-1.8-1-.1-1.8.5-2.1 1.4l-5.5 19.2c-.3 1.1.3 2.2 1.4 2.5l7.7 2.2c.2.1.4.1.6.1.5 0 .9-.2 1.3-.5.5-.4.8-1.1.7-1.7l-2.3-21.4z"/><path fill="#FFCE4B" d="M1110 148.4c-3.6-6.5-11.4-14.3-27.7-14.3-1.5 0-3 .1-4.5.2-.3 0-.6.1-.8.2l-4.9 2.7c-.8.4-1.2 1.4-1 2.3s1.1 1.5 2 1.5h.4c4 0 24.8 1.1 36.8 22.6.4.6 1 1 1.7 1 .2 0 .3 0 .5-.1.9-.2 1.5-1 1.5-1.9 0-.2 0-7.2-4-14.2z"/><path fill="#FF9B0B" d="M1063.496 215.434l-23.07-6.614 6.613-23.072 23.07 6.615z"/><circle fill="#75554A" cx="1111.4" cy="164.6" r="4"/><path fill="#42073A" d="M1073 170.1c-.2 0-.4 0-.6-.1-1.1-.3-1.7-1.4-1.4-2.5l1.1-3.8-7.7-2.2-1.1 3.8c-.3 1.1-1.4 1.7-2.5 1.4-1.1-.3-1.7-1.4-1.4-2.5l1.7-5.8c.3-1.1 1.4-1.7 2.5-1.4l11.5 3.3c.5.1.9.5 1.2 1 .3.5.3 1 .2 1.5l-1.7 5.8c-.2 1-1 1.5-1.8 1.5z"/><circle fill="#AA7D6A" cx="1078.4" cy="192.6" r="4"/><g fill="#563D89"><path d="M1050.9 247c-.2 0-.4 0-.6-.1l-7.7-2.2c-1.1-.3-1.7-1.4-1.4-2.5.3-1.1 1.4-1.7 2.5-1.4l7.7 2.2c1.1.3 1.7 1.4 1.4 2.5-.2 1-1 1.5-1.9 1.5z"/><path d="M1039.4 247.7c-.6 0-1.1-.1-1.7-.2-3.2-.9-5-4.2-4.1-7.4.7-2.6 3.1-4.3 5.8-4.3.6 0 1.1.1 1.7.2 1.5.4 2.8 1.5 3.6 2.9.8 1.4 1 3 .5 4.6-.8 2.4-3.1 4.2-5.8 4.2zm0-8c-.9 0-1.7.6-1.9 1.5-.3 1.1.3 2.2 1.4 2.5 1.1.3 2.2-.3 2.5-1.4.1-.5.1-1.1-.2-1.5-.3-.5-.7-.8-1.2-1-.2 0-.4-.1-.6-.1z"/></g><path fill="#FF9B0B" d="M1055.8 300.5l25.3-1 27.6-96.2-23.1-6.6"/><g fill="#563D89"><path d="M1081.7 255.9c-.2 0-.4 0-.6-.1l-7.7-2.2c-1.1-.3-1.7-1.4-1.4-2.5.3-1.1 1.4-1.7 2.5-1.4l7.7 2.2c1.1.3 1.7 1.4 1.4 2.5-.2.9-1 1.5-1.9 1.5z"/><path d="M1085.5 261c-.6 0-1.1-.1-1.7-.2-3.2-.9-5-4.2-4.1-7.4.7-2.6 3.1-4.3 5.8-4.3.6 0 1.1.1 1.7.2 1.5.4 2.8 1.5 3.6 2.9.8 1.4 1 3 .5 4.6-.7 2.4-3.1 4.2-5.8 4.2zm0-8c-.9 0-1.7.6-1.9 1.5-.3 1.1.3 2.2 1.4 2.5 1.1.3 2.2-.3 2.5-1.4.1-.5.1-1.1-.2-1.5-.3-.5-.7-.8-1.2-1-.2-.1-.4-.1-.6-.1z"/></g><g fill="#563D89"><path d="M1078.4 267.4c-.2 0-.4 0-.6-.1l-7.7-2.2c-1.1-.3-1.7-1.4-1.4-2.5.3-1.1 1.4-1.7 2.5-1.4l7.7 2.2c1.1.3 1.7 1.4 1.4 2.5-.3.9-1.1 1.5-1.9 1.5z"/><path d="M1082.2 272.5c-.6 0-1.1-.1-1.7-.2-1.5-.4-2.8-1.5-3.6-2.9-.8-1.4-1-3-.5-4.6.7-2.6 3.1-4.3 5.8-4.3.6 0 1.1.1 1.7.2 3.2.9 5 4.2 4.1 7.4-.7 2.6-3.1 4.4-5.8 4.4zm0-8c-.9 0-1.7.6-1.9 1.5-.1.5-.1 1.1.2 1.5.3.5.7.8 1.2 1 1.1.3 2.2-.3 2.5-1.4.3-1.1-.3-2.2-1.4-2.5-.2-.1-.4-.1-.6-.1z"/></g><g fill="#FFCE4B"><path d="M1061.4 208.5l-6.1-1.8c-.1-.9-.3-1.7-.7-2.5-.8-1.4-2.1-2.4-3.6-2.9.5.2 1.1.2 1.7.2 2 0 3.8-1 4.9-2.5l6.1 1.8c.2.1.4.1.6.1.9 0 1.7-.6 1.9-1.4.3-1.1-.3-2.2-1.4-2.5l-6.1-1.8c-.1-.9-.3-1.7-.7-2.5-.8-1.4-2.1-2.4-3.6-2.9-.5-.2-1.1-.2-1.7-.2-2.7 0-5 1.8-5.8 4.3-.9 3.2.9 6.5 4.1 7.4-.5-.2-1.1-.2-1.6-.2-2.7 0-5 1.8-5.8 4.3-.9 3.2.9 6.5 4.1 7.4-.5-.2-1.1-.2-1.6-.2-2.7 0-5 1.8-5.8 4.3-.9 3.2.9 6.5 4.1 7.4-.5-.2-1.1-.2-1.6-.2-2.7 0-5 1.8-5.8 4.4-.9 3.2.9 6.5 4.1 7.4.5.2 1.1.2 1.7.2 2 0 3.8-1 4.9-2.5l6.1 1.8c.2.1.4.1.6.1.9 0 1.7-.6 1.9-1.4.3-1.1-.3-2.2-1.4-2.5l-6.1-1.8c-.1-.9-.3-1.7-.7-2.5-.8-1.4-2.1-2.4-3.6-2.9.5.2 1.1.2 1.7.2 2 0 3.8-1 4.9-2.5l6.1 1.8c.2.1.4.1.6.1.9 0 1.7-.6 1.9-1.4.3-1.1-.3-2.2-1.4-2.5l-6.1-1.8c-.1-.9-.3-1.7-.7-2.5-.8-1.4-2.1-2.4-3.6-2.9.5.2 1.1.2 1.7.2 2 0 3.8-1 4.9-2.5l6.1 1.8c.2.1.4.1.6.1.9 0 1.7-.6 1.9-1.4 0-1.2-.6-2.3-1.7-2.6zm-10.7-13.5c.2-.9 1-1.5 1.9-1.5.2 0 .4 0 .6.1.5.1.9.5 1.2 1 .3.5.3 1 .2 1.5-.3 1-1.4 1.7-2.5 1.4-1.1-.3-1.7-1.4-1.4-2.5zm-6.1 35.7c-.3 1-1.4 1.7-2.5 1.4-1.1-.3-1.7-1.4-1.4-2.5.2-.9 1-1.5 1.9-1.5.2 0 .4 0 .6.1.5.1.9.5 1.2 1 .3.5.4 1 .2 1.5zm3.3-11.5c-.3 1-1.4 1.7-2.5 1.4-1.1-.3-1.7-1.4-1.4-2.5.2-.9 1-1.5 1.9-1.5.2 0 .4 0 .6.1.5.1.9.5 1.2 1 .3.5.4 1 .2 1.5zm.9-10.2c-1.1-.3-1.7-1.4-1.4-2.5.2-.9 1-1.5 1.9-1.5.2 0 .4 0 .6.1.5.1.9.5 1.2 1 .3.5.3 1 .2 1.5-.4 1.1-1.5 1.8-2.5 1.4zM1048.2 254.6l-6.1-1.8c-.2-2.5-1.8-4.7-4.3-5.4-.5-.2-1.1-.2-1.7-.2-2.7 0-5 1.8-5.8 4.3-.4 1.5-.3 3.2.5 4.6.8 1.4 2.1 2.4 3.6 2.9-.5-.2-1.1-.2-1.6-.2-2.7 0-5 1.8-5.8 4.3-.9 3.2.9 6.5 4.1 7.4-.5-.2-1.1-.2-1.6-.2-2.7 0-5 1.8-5.8 4.3-.4 1.5-.3 3.2.5 4.6.8 1.4 2.1 2.4 3.6 2.9.5.2 1.1.2 1.7.2 2 0 3.8-1 4.9-2.5l6.1 1.8c.2.1.4.1.6.1.9 0 1.7-.6 1.9-1.4.3-1.1-.3-2.2-1.4-2.5l-6.1-1.8c-.2-2.5-1.8-4.7-4.3-5.4.5.2 1.1.2 1.6.2 2 0 3.8-1 4.9-2.5l6.1 1.8c.2.1.4.1.6.1.9 0 1.7-.6 1.9-1.4.3-1.1-.3-2.2-1.4-2.5l-6.1-1.8c-.1-.9-.3-1.7-.7-2.5-.8-1.4-2.1-2.4-3.6-2.9.5.2 1.1.2 1.7.2 2 0 3.8-1 4.9-2.5l6.1 1.8c.2.1.4.1.6.1.9 0 1.7-.6 1.9-1.4.1-1.2-.5-2.3-1.5-2.7zm-16.8 22.3c-.3 1-1.4 1.7-2.5 1.4-.5-.1-.9-.5-1.2-1-.3-.5-.3-1-.2-1.5.2-.9 1-1.5 1.9-1.5.2 0 .4 0 .6.1 1.1.3 1.7 1.4 1.4 2.5zm3.3-11.5c-.3 1-1.4 1.7-2.5 1.4-1.1-.3-1.7-1.4-1.4-2.5.2-.9 1-1.5 1.9-1.5.2 0 .4 0 .6.1.5.1.9.5 1.2 1 .3.4.3.9.2 1.5zm.8-10.2c-.5-.1-.9-.5-1.2-1-.3-.5-.3-1-.2-1.5.2-.9 1-1.5 1.9-1.5.2 0 .4 0 .6.1 1.1.3 1.7 1.4 1.4 2.5-.3 1.1-1.4 1.7-2.5 1.4zM1104 205.9c-.8-1.4-2.1-2.4-3.6-2.9-.5-.2-1.1-.2-1.7-.2-2 0-3.8 1-4.9 2.5l-6.1-1.8c-1.1-.3-2.2.3-2.5 1.4-.3 1.1.3 2.2 1.4 2.5l6.1 1.8c.2 2.5 1.8 4.7 4.3 5.4-.5-.2-1.1-.2-1.6-.2-2 0-3.8 1-4.9 2.5l-6.1-1.8c-1.1-.3-2.2.3-2.5 1.4-.3 1.1.3 2.2 1.4 2.5l6.1 1.8c.2 2.5 1.8 4.7 4.3 5.4-.5-.2-1.1-.2-1.6-.2-2 0-3.8 1-4.9 2.5l-6.1-1.8c-1.1-.3-2.2.3-2.5 1.4-.3 1.1.3 2.2 1.4 2.5l6.1 1.8c.2 2.5 1.8 4.7 4.3 5.4-.5-.2-1.1-.2-1.6-.2-2 0-3.8 1-4.9 2.5l-6.1-1.8c-1.1-.3-2.2.3-2.5 1.4-.3 1.1.3 2.2 1.4 2.5l6.1 1.8c.2 2.5 1.8 4.7 4.3 5.4.5.2 1.1.2 1.7.2 2.7 0 5-1.8 5.8-4.3.4-1.5.3-3.2-.5-4.6-.8-1.4-2.1-2.4-3.6-2.9.5.2 1.1.2 1.7.2 2.7 0 5-1.8 5.8-4.3.4-1.5.3-3.2-.5-4.6-.8-1.4-2.1-2.4-3.6-2.9.5.2 1.1.2 1.7.2 2.7 0 5-1.8 5.8-4.3.4-1.5.3-3.2-.5-4.6-.8-1.4-2.1-2.4-3.6-2.9.5.2 1.1.2 1.7.2 2.7 0 5-1.8 5.8-4.3.2-1.6 0-3.2-.8-4.6zm-13.2 38.1c-.3 1-1.4 1.7-2.5 1.4-1.1-.3-1.7-1.4-1.4-2.5.2-.9 1-1.5 1.9-1.5.2 0 .4 0 .6.1.5.1.9.5 1.2 1 .2.4.3 1 .2 1.5zm3.3-11.6c-.3 1-1.4 1.7-2.5 1.4-1.1-.3-1.7-1.4-1.4-2.5.2-.9 1-1.5 1.9-1.5.2 0 .4 0 .6.1.5.1.9.5 1.2 1 .3.5.3 1 .2 1.5zm3.3-11.5c-.3 1-1.4 1.7-2.5 1.4-1.1-.3-1.7-1.4-1.4-2.5.2-.9 1-1.5 1.9-1.5.2 0 .4 0 .6.1.5.1.9.5 1.2 1 .3.5.3 1 .2 1.5zm3.3-11.5c-.3 1-1.4 1.7-2.5 1.4-1.1-.3-1.7-1.4-1.4-2.5.2-.9 1-1.5 1.9-1.5.2 0 .4 0 .6.1.5.1.9.5 1.2 1 .3.4.3 1 .2 1.5zM1080.6 272.3c-.5-.2-1.1-.2-1.7-.2-2 0-3.8 1-4.9 2.5l-6.1-1.8c-1.1-.3-2.2.3-2.5 1.4-.3 1.1.3 2.2 1.4 2.5l6.1 1.8c.2 2.5 1.8 4.7 4.3 5.4-.5-.2-1.1-.2-1.6-.2-2 0-3.8 1-4.9 2.5l-6.1-1.8c-1.1-.3-2.2.3-2.5 1.4-.3 1.1.3 2.2 1.4 2.5l6.1 1.8c.1.9.3 1.7.7 2.5.8 1.4 2.1 2.4 3.6 2.9.5.2 1.1.2 1.7.2 2.7 0 5-1.8 5.8-4.3.9-3.2-.9-6.5-4.1-7.4.5.2 1.1.2 1.6.2 2.7 0 5-1.8 5.8-4.3.4-1.5.3-3.2-.5-4.6-.8-1.6-2.1-2.6-3.6-3zm-3.1 17.8c-.3 1-1.4 1.7-2.5 1.4-.5-.1-.9-.5-1.2-1-.3-.5-.3-1-.2-1.5.2-.9 1-1.5 1.9-1.5.2 0 .4 0 .6.1 1.1.3 1.7 1.5 1.4 2.5zm3.3-11.5c-.3 1-1.4 1.7-2.5 1.4-1.1-.3-1.7-1.4-1.4-2.5.2-.9 1-1.5 1.9-1.5.2 0 .4 0 .6.1.5.1.9.5 1.2 1 .3.4.4 1 .2 1.5z"/></g><path fill="#FF9B0B" d="M1095.4 205.1c.1-.1.1-.2.2-.3 0-.1.1-.1.1-.2.1-.1.1-.2.2-.4 0 0 0-.1.1-.1.1-.2.1-.3.2-.5v-.1c0-.1.1-.3.1-.4v-.2-.3-.2-.3-.2c0-.1 0-.2-.1-.2v-.1-.1l-4.4-13.7c-.5-1.7-2.1-2.8-3.8-2.8h-.1c-1.8 0-3.3 1.2-3.8 2.9l-2.2 7.7c-.4-.1-.7-.2-1.1-.2-1.2 0-2.4.5-3.1 1.5-1 1.3-1.2 3-.4 4.4l5.5 9.9c.6 1.1 1.8 1.9 3 2h.5c1.1 0 2.2-.5 2.9-1.3l6.1-6.6.2-.2c-.2.1-.1.1-.1 0z"/><path fill="#AA7D6A" d="M1031.5 248.7c-2.8 0-5.6-.4-8.3-1.2-15.9-4.6-25.1-21.2-20.6-37.1 1.2-4.2 5.7-6.7 9.9-5.5 4.2 1.2 6.7 5.6 5.5 9.9-2.1 7.4 2.2 15.2 9.6 17.3 3.5 1 7.3.6 10.5-1.1 3.9-2.1 8.7-.7 10.8 3.2 2.1 3.9.7 8.7-3.2 10.8-4.4 2.4-9.3 3.7-14.2 3.7z"/><path fill="#FF9B0B" d="M1076.9 196.8c-.2-1.6-1.3-2.9-2.9-3.4l2.2-7.7c.5-1.7-.2-3.5-1.7-4.5-.7-.4-1.4-.6-2.2-.6-.9 0-1.8.3-2.6.9l-11 9.3-.1.1c-.1 0-.1.1-.2.2l-.2.2c-.1.1-.1.2-.2.2 0 .1-.1.1-.1.2-.1.1-.1.2-.2.3 0 .1-.1.1-.1.2-.1.1-.1.3-.2.4v.1c-.1.2-.1.3-.1.5v1.4l1.6 8.8c.2 1.3 1.1 2.3 2.2 2.9.5.3 1.1.4 1.7.4.7 0 1.3-.2 1.9-.5l9.9-5.5c1.7-.7 2.5-2.3 2.3-3.9z"/><path fill="#FFCE4B" d="M1083.1 211.5l-2.7-8.4c1-.8 1.8-1.8 2.1-3.1.4-1.5.3-3.2-.5-4.6-.8-1.4-2.1-2.4-3.6-2.9-.5-.2-1.1-.2-1.7-.2-2.7 0-5 1.8-5.8 4.3-.4 1.3-.3 2.6.2 3.8l-6.7 5.7c-.7.6-.9 1.7-.5 2.5l5.5 9.9c.3.5.7.8 1.2 1 .2.1.4.1.6.1.3 0 .7-.1 1-.3l9.9-5.5c.9-.4 1.3-1.4 1-2.3z"/><path fill="#42073A" d="M1092.5 249c-.1-.1-1.7-4-4.7-7.9-4.3-5.7-9.4-8.6-14.7-8.6-2 0-4 .4-5.9 1.2-.3-1.1-.6-2.2-1.1-3.4-2.1-5-6.9-11.2-17.7-11.9h-.3c-1.5 0-2.9.9-3.6 2.2-.7 1.4-.5 3.2.6 4.4 1.3 1.5 3.9 5.5 3.3 8-.1.4-.4 1.6-3 2.7-.4.2-.8.4-1.1.7l-7.8 6.8-3.3-.2c-1.9-.9-4.9-3-4.9-4.7v-.3c0-2.1-1.7-3.9-3.8-4h-.8c-.7.1-1.3.4-1.8.8-.4.3-.7.6-.9 1-.2.3-.3.5-.4.8-1.6 4-1.6 13.1 9.3 19.5.6.3 1.1.5 1.7.5.7.1 8.5 1.4 12.2 14.7.6 6.3 5.1 17.6 17.8 17.6 2.9 0 6-.6 9.4-1.8 12.2-4.3 17.8-12.2 20.3-18.1 3.5-7.7 3.1-15.6 1.2-20zm-30.9 36h1.2c-.4-.1-.8 0-1.2 0zm11.5-48.5c.4 0 .7 0 1 .1-.3-.1-.7-.1-1-.1z"/><path fill="#FFCE4B" d="M1062.9 261.4c-1.1 0-2.2-.5-3-1.4l-55.5-63.1c-1.5-1.7-1.3-4.2.4-5.6 1.7-1.5 4.2-1.3 5.6.4l55.5 63.1c1.5 1.7 1.3 4.2-.4 5.6-.8.7-1.7 1-2.6 1z"/><path fill="#2A0423" d="M1010.6 188.9l1.5-1.3c.6-.5.8-1.3.6-2-.2-.7-.8-1.3-1.6-1.4-.1 0-7.8-1.4-14-5.6.8-2 .5-4.4-1.1-6.2-1.1-1.3-2.8-2-4.5-2-1.5 0-2.9.5-4 1.5-1.2 1.1-1.9 2.5-2 4.1-.1 1.5.4 2.9 1.3 4.1l7.5 14.5c.2.4.6.8 1 .9l8.3 3.4c.2.1.5.1.8.1.5 0 .9-.2 1.3-.5l6-5.3c.8-.7.9-2 .2-2.8l-1.3-1.5z"/><path fill="#AA7D6A" d="M1031.5 248.7c-2.8 0-5.6-.4-8.3-1.2-4.2-1.2-6.7-5.6-5.5-9.9 1.2-4.2 5.6-6.7 9.9-5.5 3.5 1 7.3.6 10.5-1.1 3.9-2.1 8.7-.7 10.8 3.2 2.1 3.9.7 8.7-3.2 10.8-4.4 2.4-9.3 3.7-14.2 3.7z"/><circle fill="#42073A" cx="1076" cy="150.3" r="2"/></g><g><linearGradient id="d" gradientUnits="userSpaceOnUse" x1="1307.999" y1="195.999" x2="1307.999" y2="195.999"><stop offset="0" stop-color="#FFCE4B"/><stop offset="1" stop-color="#FFCE4B"/></linearGradient><linearGradient id="e" gradientUnits="userSpaceOnUse" x1="-264.001" y1="-2295.998" x2="-264.001" y2="-2727.998" gradientTransform="matrix(1 0 0 -1 1768 -2296)"><stop offset="0" stop-color="#FFFDF8"/><stop offset="1" stop-color="#FFF" stop-opacity="0"/></linearGradient><path opacity=".5" fill="url(#e)" d="M1316 432L1676 0h16l-96 432"/><linearGradient id="f" gradientUnits="userSpaceOnUse" x1="70.001" y1="431.999" x2="70.001" y2="-.001" gradientTransform="matrix(-1 0 0 1 1908 0)"><stop offset="0" stop-color="#FFFDF8"/><stop offset="1" stop-color="#FFF" stop-opacity="0"/></linearGradient><path opacity=".5" fill="url(#f)" d="M1996 0l-152 432h-16L1680 0"/><linearGradient id="g" gradientUnits="userSpaceOnUse" x1="-1636" y1="-2296" x2="-1636" y2="-2728" gradientTransform="rotate(180 244 -1148)"><stop offset="0" stop-color="#FFFDF8"/><stop offset="1" stop-color="#FFF" stop-opacity="0"/></linearGradient><path opacity=".5" fill="url(#g)" d="M2312 432L1952 0h-16l96 432"/><linearGradient id="h" gradientUnits="userSpaceOnUse" x1="-653" y1="-2296" x2="-653" y2="-2728" gradientTransform="rotate(180 244 -1148)"><stop offset="0" stop-color="#FFFDF8" stop-opacity=".6"/><stop offset="1" stop-color="#FFF" stop-opacity="0"/></linearGradient><path fill="url(#h)" d="M1329 432L969 0h-16l96 432"/><linearGradient id="i" gradientUnits="userSpaceOnUse" x1="-494.001" y1="-2295.998" x2="-494.001" y2="-2727.998" gradientTransform="matrix(1 0 0 -1 1768 -2296)"><stop offset="0" stop-color="#FFFDF8" stop-opacity=".6"/><stop offset="1" stop-color="#FFF" stop-opacity="0"/></linearGradient><path fill="url(#i)" d="M1140 432L1268 0h16l124 432"/><circle fill="#75554A" cx="1113.4" cy="163.6" r="4"/></g><g><g fill="#615B52"><circle cx="1556.1" cy="424" r="12"/><path d="M1556.1 436.5c-6.9 0-12.5-5.6-12.5-12.5s5.6-12.5 12.5-12.5 12.5 5.6 12.5 12.5-5.6 12.5-12.5 12.5zm0-24c-6.3 0-11.5 5.2-11.5 11.5s5.2 11.5 11.5 11.5 11.5-5.2 11.5-11.5-5.1-11.5-11.5-11.5z"/></g><g fill="#615B52"><circle cx="2100" cy="424" r="8"/><path d="M2100 432.5c-4.7 0-8.5-3.8-8.5-8.5s3.8-8.5 8.5-8.5 8.5 3.8 8.5 8.5-3.8 8.5-8.5 8.5zm0-16c-4.1 0-7.5 3.4-7.5 7.5s3.4 7.5 7.5 7.5 7.5-3.4 7.5-7.5-3.4-7.5-7.5-7.5z"/></g><g fill="#615B52"><circle cx="2102" cy="424" r="12"/><path d="M2102 436.5c-6.9 0-12.5-5.6-12.5-12.5s5.6-12.5 12.5-12.5 12.5 5.6 12.5 12.5-5.6 12.5-12.5 12.5zm0-24c-6.3 0-11.5 5.2-11.5 11.5s5.2 11.5 11.5 11.5 11.5-5.2 11.5-11.5-5.2-11.5-11.5-11.5z"/></g><g fill="#615B52"><circle cx="2014.5" cy="432" r="8"/><path d="M2014.5 440.5c-4.7 0-8.5-3.8-8.5-8.5s3.8-8.5 8.5-8.5 8.5 3.8 8.5 8.5-3.8 8.5-8.5 8.5zm0-16c-4.1 0-7.5 3.4-7.5 7.5s3.4 7.5 7.5 7.5 7.5-3.4 7.5-7.5-3.4-7.5-7.5-7.5z"/></g><g fill="#615B52"><circle cx="2012.5" cy="432" r="12"/><path d="M2012.5 444.5c-6.9 0-12.5-5.6-12.5-12.5s5.6-12.5 12.5-12.5 12.5 5.6 12.5 12.5-5.6 12.5-12.5 12.5zm0-24c-6.3 0-11.5 5.2-11.5 11.5s5.2 11.5 11.5 11.5 11.5-5.2 11.5-11.5-5.2-11.5-11.5-11.5z"/></g><g fill="#615B52"><circle cx="2100" cy="424" r="8"/><path d="M2100 432.5c-4.7 0-8.5-3.8-8.5-8.5s3.8-8.5 8.5-8.5 8.5 3.8 8.5 8.5-3.8 8.5-8.5 8.5zm0-16c-4.1 0-7.5 3.4-7.5 7.5s3.4 7.5 7.5 7.5 7.5-3.4 7.5-7.5-3.4-7.5-7.5-7.5z"/></g><g fill="#615B52"><circle cx="2102" cy="424" r="12"/><path d="M2102 436.5c-6.9 0-12.5-5.6-12.5-12.5s5.6-12.5 12.5-12.5 12.5 5.6 12.5 12.5-5.6 12.5-12.5 12.5zm0-24c-6.3 0-11.5 5.2-11.5 11.5s5.2 11.5 11.5 11.5 11.5-5.2 11.5-11.5-5.2-11.5-11.5-11.5z"/></g><g fill="#615B52"><circle cx="2014.5" cy="432" r="8"/><path d="M2014.5 440.5c-4.7 0-8.5-3.8-8.5-8.5s3.8-8.5 8.5-8.5 8.5 3.8 8.5 8.5-3.8 8.5-8.5 8.5zm0-16c-4.1 0-7.5 3.4-7.5 7.5s3.4 7.5 7.5 7.5 7.5-3.4 7.5-7.5-3.4-7.5-7.5-7.5z"/></g><path fill="#615B52" d="M2594 467.5c-6 0-11.6 2-16 5.4-4.4-3.4-10-5.4-16-5.4-5.8 0-11.2 1.9-15.5 5-5.8-5.6-13.8-9-22.5-9-6.3 0-12.2 1.8-17.2 5-4.1-3.1-9.2-5-14.8-5-4.5 0-8.7 1.2-12.3 3.3-4.8-6.8-12.7-11.3-21.7-11.3-10.2 0-19.1 5.8-23.5 14.4-3.2-1.5-6.7-2.4-10.5-2.4-5.9 0-11.3 2.1-15.5 5.5 11.3-19.1 11.5-39.7 11.5-41 0-4.4-3.6-8-8-8s-8 3.6-8 8c0 .3-.2 23.9-15 40.8-4.6-7.9-13.2-13.3-23-13.3-10.1 0-18.8 5.6-23.3 13.9-4.9-6.1-12.3-9.9-20.7-9.9-5.8 0-11.2 1.9-15.5 5-5.8-5.6-13.8-9-22.5-9-6.3 0-12.2 1.8-17.2 5-4.1-3.1-9.2-5-14.8-5-3 0-5.9.5-8.5 1.5-3-10.1-12.4-17.5-23.5-17.5-4.4 0-8.6 1.2-12.2 3.3 5.3-11.3 7.2-22.4 7.8-28.9 2.9-2.3 4.9-5.9 4.9-9.9 0-6.9-5.6-12.5-12.5-12.5s-12.5 5.6-12.5 12.5c0 3.7 1.6 7 4.1 9.2-.4 3.4-1.2 8.1-2.8 13.4l-12.5 20.9h-.3c-2 0-3.9.2-5.7.7-4.7-12.1-16.5-20.7-30.3-20.7-17.8 0-32.2 14.3-32.5 32-4.4.1-8.6 1-12.4 2.7.9-3.5 1.6-7.3 2.3-11.4 1.9-11.5 2.4-22.1 2.5-27.4.6.4 1.3.6 2.1.6 2.2 0 4-1.8 4-4v-16c0-2.2-1.8-4-4-4s-4 1.8-4 4v10.7c-1.5-1.7-3.6-2.7-6-2.7v-12c0-2.2-1.8-4-4-4s-4 1.8-4 4v16c0 .6.1 1.1.4 1.6-.2.7-.4 1.5-.4 2.4 0 13.1-1.9 30.6-5.9 43.7-4.9-11.9-16.5-20.2-30.1-20.2-13.3 0-24.8 8.1-29.8 19.6-1.9-9-3.1-19-3.5-27.9 1.5-2 2.3-4.5 2.3-7.2 0-2.8-.9-5.4-2.5-7.5V412c0-2.2-1.8-4-4-4s-4 1.8-4 4v7.7c-.7-.1-1.3-.2-2-.2-1.4 0-2.7.2-4 .7V416c0-2.2-1.8-4-4-4s-4 1.8-4 4v12.5c-.3 1.1-.5 2.3-.5 3.5 0 4.9 2.8 9.1 6.9 11.2.4 5.4 1 12.3 2.2 19.6 0 .3.1.5.1.8h-1.2c-11 0-20.8 5.5-26.7 14-4.5-8.3-13.3-14-23.3-14-4.8 0-9.3 1.3-13.2 3.5-4.3-6.9-12-11.5-20.8-11.5-5.5 0-10.6 1.8-14.7 4.9 8.7-14.3 8-29.7 8-30.5-.2-4.4-4-7.8-8.4-7.5-4.4.2-7.8 4-7.5 8.4 0 .1.5 14.2-8.1 24.7-4.3-7.2-12.1-12.1-21.1-12.1-13.2 0-24.1 10.6-24.5 23.7-4-2.4-8.6-3.7-13.5-3.7-7 0-13.4 2.7-18.1 7.2-2.4-11-12.2-19.2-23.9-19.2-10.2 0-19 6.3-22.7 15.2-.9-.7-1.8-1.4-2.6-2.2l-15.7-26.2c-2.9-9.7-3-17.6-3-18.4 0-4.4-3.6-8-8-8s-8 3.6-8 8c0 1.3.2 20.9 10.7 39.6-.9-.1-1.8-.1-2.7-.1-1.9 0-3.7.2-5.5.5-4.5-5.2-11.1-8.5-18.5-8.5-6.3 0-12 2.4-16.3 6.2-2.8-10.5-12.3-18.2-23.7-18.2-9.3 0-17.3 5.2-21.5 12.8-1.9-1.4-4-2.5-6.3-3.3.1-2.4.2-4.8.2-7.3.1-7.6-.4-14.8-.9-20.3 2.4-1.8 4.1-4.5 4.7-7.5.3-.2.5-.4.8-.7 1.3-1.6 3.3-1.8 3.3-1.8 2.2-.2 3.8-2.1 3.7-4.3-.2-2.2-2.1-3.8-4.3-3.7-.4 0-2.6.3-5.2 1.7-.8-2.6-1.7-8-2.2-13-.2-2.2-2.2-3.8-4.4-3.6-.9.1-1.6.5-2.3 1-.1-.6-.2-1.3-.3-1.9-.3-2.2-2.3-3.7-4.5-3.4-2.2.3-3.7 2.3-3.4 4.5.5 3.9 1.2 8.3 1.9 12.3-4.8 2.2-7.7 7.3-6.9 12.7.4 2.3 1.4 4.4 2.8 6 1 9.1 1.4 19.7.8 29.2l-1.5.6c-4.4-12.7-16.5-21.8-30.7-21.8-17.2 0-31.3 13.4-32.4 30.3l-4.5-7.4c-2.2-7.5-2.8-13.9-2.9-16.8 1.7-1.5 3-3.4 3.8-5.6h.2c2.2 0 4-1.8 4-4v-12c0-2.2-1.8-4-4-4s-4 1.8-4 4v2.4c-.1-.1-.2-.2-.3-.2.2-.7.3-1.4.3-2.2v-20c0-4.4-3.6-8-8-8h-8c-4.4 0-8 3.6-8 8v20c0 3.2 1.8 5.9 4.5 7.2-.6 1.5-1 3.1-1 4.8 0 3.9 1.8 7.3 4.5 9.6.2 4.4 1.2 16.6 6.7 29.9h-8.9c-4.9-11.7-16.5-20-30-20-13.9 0-25.8 8.8-30.5 21.2-5.1-3.3-11.1-5.2-17.5-5.2-8.9 0-17 3.6-22.9 9.5-2.9-10.6-4.5-23.5-5-34.6 1.2-1.9 1.9-4 1.9-6.4 0-5.5-3.7-10.1-8.7-11.5.1-4 .1-8.4.1-12.4 0-2.2-1.9-4-4.1-3.9-2.2 0-4 1.9-3.9 4.1v1.9c-.7-.4-1.5-.7-2.4-.6-2.2.1-3.9 2-3.8 4.2.3 5.1.2 10.5-.2 13.2-2.7-1-5-.9-5.3-.9-2.2.2-3.9 2.1-3.7 4.3s2 3.9 4.3 3.7c0 0 2-.1 3.6 1.3.3.2.5.4.8.6 1 2.9 3.1 5.3 5.8 6.8.3 5.5 1 12.6 2.2 20.2.9 5.7 2.1 10.9 3.4 15.6-3.6-1.8-7.7-2.9-12-2.9-3.4 0-6.7.7-9.6 1.8-1.3-12.3-11.7-21.8-24.4-21.8-13.3 0-24.2 10.7-24.5 23.9-4.6-2.5-9.9-3.9-15.5-3.9-3.1 0-6 .4-8.8 1.2 2.7-3.1 5-6.4 6.8-10.1 9.9-20 1.8-40.8 1.5-41.6-1.6-4.1-6.3-6.1-10.4-4.5-4.1 1.6-6.1 6.3-4.5 10.4.1.1 5.7 15.1-1 28.6-2.7 5.4-7.1 10-13.1 13.7-4.9-3.4-10.8-5.5-17.2-5.8-.6-3.1-.9-5.8-1.1-7.8 4.8-1.7 8.3-6.3 8.3-11.8 0-1.2-.2-2.4-.5-3.5V432c0-2.2-1.8-4-4-4s-4 1.8-4 4v0-20c0-4.4-3.6-8-8-8h-8c-4.4 0-8 3.6-8 8v20c0 3.2 1.8 5.9 4.5 7.2-.6 1.5-1 3.1-1 4.8 0 3.9 1.8 7.3 4.5 9.6.1 1.2.2 3.1.4 5.4-4.8-4.7-11.3-7.5-18.5-7.5-11.1 0-20.7 6.9-24.6 16.6-1.7-.4-3.6-.6-5.4-.6-3.4 0-6.6.7-9.5 1.9 6.3-12.2 8.4-24.5 9.1-31.5 2.9-2.3 4.9-5.9 4.9-9.9 0-1.2-.2-2.4-.5-3.5V416c0-2.2-1.8-4-4-4v-8c0-4.4-3.6-8-8-8h-20c-4.4 0-8 3.6-8 8v8c0 4.4 3.6 8 8 8h10.4c-1.8 2.2-2.9 5-2.9 8 0 3.7 1.6 6.9 4.1 9.2-.4 3.4-1.2 8.1-2.8 13.4l-10.5 17.5c-1.1.3-2.3.6-3.3 1-3.6-10.3-13.5-17.7-25-17.7-10.7 0-20 6.4-24.1 15.6l-14.9-24.8c-2.9-9.7-3-17.6-3-18.4 0-4.4-3.6-8-8-8s-8 3.6-8 8c0 1.3.2 20.8 10.6 39.5-4 .2-7.8 1.4-11 3.3-5.7-9.2-16-15.4-27.6-15.4-6.5 0-12.5 1.9-17.5 5.2-4.6-12.3-16.5-21.2-30.5-21.2-8.6 0-16.4 3.4-22.2 8.8-1-7.2-1.6-14.5-1.7-21 .3-1.1.5-2.2.5-3.3 0-.6-.1-1.2-.1-1.8l3.6-21.5c.4-2.2-1.1-4.2-3.3-4.6-2.2-.4-4.2 1.1-4.6 3.3l-2.1 12.3-2.1-12.3c-.4-2.2-2.4-3.6-4.6-3.3-2.2.4-3.7 2.4-3.3 4.6l1.8 11c-5.9 1-10.4 6.1-10.4 12.3 0 5.7 3.8 10.5 9 12 .4 5.3 1 11.9 2.1 18.8.3 1.6.5 3.1.8 4.6-4.6-2.5-9.8-3.9-15.4-3.9-1.3 0-2.6.1-3.9.2-2-11.5-12.1-20.2-24.1-20.2-8 0-15.1 3.8-19.5 9.7.1-.8.3-1.6.4-2.5 1.1-6.9 1.8-13.5 2.1-18.8 5.2-1.5 9-6.3 9-12 0-6.2-4.5-11.3-10.4-12.3l1.8-11c.4-2.2-1.1-4.2-3.3-4.6-2.2-.4-4.2 1.1-4.6 3.3l-2.1 12.3-2.1-12.3c-.4-2.2-2.4-3.6-4.6-3.3-2.2.4-3.7 2.4-3.3 4.6l3.6 21.5c-.1.6-.1 1.2-.1 1.8 0 1.1.2 2.2.5 3.3-.3 13.8-2.5 31.3-6.9 43.7-3.7-2.2-8-3.5-12.5-3.5-10.4 0-19.4 6.6-22.9 15.8-5.7-4.9-13-7.8-21.1-7.8-6.7 0-12.9 2-18.1 5.5-4-8-12.3-13.5-21.9-13.5s-17.9 5.5-21.9 13.5c-5.2-3.5-11.4-5.5-18.1-5.5-12.4 0-23.1 6.9-28.6 17.1-3.1-9.9-12.4-17.1-23.4-17.1-11.8 0-21.7 8.4-24 19.6-2.3-11.2-12.2-19.6-24-19.6s-21.7 8.4-24 19.6c-2.3-11.2-12.2-19.6-24-19.6s-21.7 8.4-24 19.6c-2.3-11.2-12.2-19.6-24-19.6s-21.7 8.4-24 19.6c-2.3-11.2-12.2-19.6-24-19.6s-21.7 8.4-24 19.6c-2.3-11.2-12.2-19.6-24-19.6s-21.7 8.4-24 19.6c-2.3-11.2-12.2-19.6-24-19.6s-21.7 8.4-24 19.6c-2.3-11.2-12.2-19.6-24-19.6s-21.7 8.4-24 19.6c-2.3-11.2-12.2-19.6-24-19.6s-21.7 8.4-24 19.6c-2.3-11.2-12.2-19.6-24-19.6s-21.7 8.4-24 19.6c-2.3-11.2-12.2-19.6-24-19.6s-21.7 8.4-24 19.6c-2.3-11.2-12.2-19.6-24-19.6s-21.7 8.4-24 19.6c-2.3-11.2-12.2-19.6-24-19.6s-21.7 8.4-24 19.6c-2.3-11.2-12.2-19.6-24-19.6s-21.7 8.4-24 19.6c-2.3-11.2-12.2-19.6-24-19.6-12 0-22 8.6-24.1 20H-.5v97H2607.6v-59.8c7.7-4.6 12.9-13.1 12.9-22.7 0-14.2-11.9-26.1-26.5-26.1z"/><path fill="#615B52" d="M2071 431.7c-2.7 6.1-9.7 8.8-15.8 6.2-6.1-2.7-8.8-9.7-6.2-15.8 2.7-6.1 9.7-8.8 15.8-6.2s8.8 9.8 6.2 15.8z"/><path fill="none" stroke="#615B52" stroke-width="16" stroke-linecap="round" stroke-linejoin="round" stroke-miterlimit="10" d="M2058.4 430.6s-17.6 40.3 8.9 69.4"/><path fill="#615B52" d="M2145.2 415.7c2.7 6.1 9.7 8.8 15.8 6.2 6.1-2.7 8.8-9.7 6.2-15.8-2.7-6.1-9.7-8.8-15.8-6.2s-8.9 9.8-6.2 15.8z"/><path fill="none" stroke="#615B52" stroke-width="16" stroke-linecap="round" stroke-linejoin="round" stroke-miterlimit="10" d="M2157.8 414.6s46.4 21.4-8.9 69.4"/></g><g><path fill="#0C010B" d="M1118.7 179.7c9.5-4.5 17.1-12.9 20.2-23.8 5.8-20.2-5.9-41.2-26.1-47-15.8-4.5-32.2 1.7-41.3 14.3l47.2 56.5z"/><path fill="#75554A" d="M1110 169.2c.4-.8.7-1.7.9-2.6 3.7-12.7-3.7-26-16.5-29.7-4-1.1-8-1.2-11.7-.4l27.3 32.7z"/><path fill="#CCA03E" d="M1089.4 144.5c7.1 3 15 8.7 20.9 19.2.4.6 1 1 1.7 1 .2 0 .3 0 .5-.1.9-.2 1.5-1 1.5-1.9 0-.3 0-7.2-4-14.3-3.6-6.5-11.4-14.3-27.7-14.3h-1.5l8.6 10.4z"/><path fill="#77594A" d="M1203.7 216.9l8.8-29.7c0-3.7-2.6-7-6.4-7.8-4.3-.9-8.6 1.9-9.5 6.2-1.9 9.2-.6 18.5 3.6 26.3 1.1 1.8 2.3 3.5 3.5 5z"/><path fill="#CCA03E" d="M1113.6 173.5l-.7-7.2c-.1-1-.9-1.7-1.8-1.8-1-.1-1.8.5-2.1 1.4l-.4 1.5 5 6.1z"/><circle fill="#75554A" cx="1111.4" cy="164.6" r="4"/><path fill="#0C010B" d="M1041.3 397.2c-2.8 2-5 2.7-5.8 2.9-4.1-.7-6.9-.2-8.4 1.3-1 1-1.1 2.2-1.1 2.5 0 .2 0 .3.1.4v.1c0 .1.1.2.1.4.1.3.4.5.6.7v.1c4.6 4.2 15.9 4.4 17.1 4.4h.1l-2.7-12.8z"/><path fill="#C4B8A5" d="M1024.4 321.5c.3 15.2 3.3 33.8 12.1 54.3l-12.1-54.3z"/><path fill="#75554A" d="M1001.5 218c-.1 4.9 1 9.6 3.1 13.8l-3.1-13.8z"/><path fill="#CCA03E" d="M1188 202c.9 0 1.7-.2 2.6-.6l20.6-9.7 4.6-15.4-30.3 14.3c-3 1.4-4.3 5-2.9 8 1 2.1 3.2 3.4 5.4 3.4z"/><path fill="#0C010B" d="M1188.2 263l10.9-70.7c.2-1.1-.6-2.1-1.7-2.3-1.1-.2-2.1.6-2.3 1.7l-10.3 67.2 3.4 4.1z"/><path fill="#C4B8A5" d="M1216.3 174.3c-1.4 1.4-2.3 3.4-2.3 5.7 0 .6.1 1.1.2 1.7l2.1-7.4z"/><path fill="#77594A" d="M1209 194c.6 0 1.2-.2 1.7-.5l1.1-3.7c-.5-1.1-1.5-1.8-2.8-1.8-1.7 0-3 1.3-3 3s1.3 3 3 3z"/><path fill="#A89E8F" d="M1460.1 255.9c.3.4 1 .7 1.9.9l11.4-13.7c-3.4-1.1-5.9-.5-5.9-.5-6.2.8-8.8 6.2-8.8 6.2-2.4 4.5 1.4 7.1 1.4 7.1z"/><path fill="#0C010B" d="M990.9 170.4c-1.2.1-2.3.6-3.3 1.4-1.2 1.1-1.9 2.5-2 4.1-.1 1.5.4 2.9 1.3 4.1l7.5 14.5c.2.4.6.8 1 .9l1.2.5-5.7-25.5z"/><g fill="#0C010B"><path d="M1368 44.5V42c0-9.1-4.4-17.3-11.2-22.4l11.2 24.9zM1322.7 20c-6.5 5.1-10.7 13.1-10.7 22v1.1l10.7-23.1z"/></g><path fill="#C4B8A5" d="M1474.3 242c-3.6.3-6.9.6-6.9.6 1.5.6 3.2 1.2 4.9 1.7l2-2.3z"/><path fill="#CCA03E" d="M1428.6 296.9l14.2-17.1-13.5 6.8c-3 1.5-4.2 5.1-2.7 8.1.5.9 1.2 1.7 2 2.2z"/><g fill="#0C010B"><path d="M1785 326l-2 12 4-12"/><path d="M1787 326l-4 12 2-12h2m0-2h-2c-1 0-1.8.7-2 1.7l-2 12c-.2 1 .5 2 1.5 2.3.2 0 .3.1.5.1.8 0 1.6-.5 1.9-1.4l4-11.9c.1-.2.1-.5.1-.7 0-1.2-.9-2.1-2-2.1z"/></g><path fill="#0C010B" d="M1798 344.4l-8.8 1.8.7-3.2h7.6l-8.2-24h-4.9l2.8 13.6-3.8-11.3s.6 11.8 1.8 17.7c1.2 5.9 1.3 7.6 1.3 7.6 2.6 5.8 9.6 6 13.6 4.4l-2.1-6.6z"/><path fill="#75554A" d="M1757.4 340.9c-3.3-.3-6.7-2.3-6.3-5.6l12-13c.3-3.3-5.7-12.7-2.4-12.3 3.3.3 5.7 3.3 5.3 6.6l-1.4 13.5-7.2 10.8z"/><g fill="#0C010B"><path d="M1772 324l-15 16h-13s4 1 8-3c0 0 9.7-1 16-9l4-4z"/><path d="M1772 324l-15 16h-10.5c1.5-.2 3.5-1 5.5-3 0 0 9.7-1 16-9l4-4m-25.5 16c-.5.1-.9.1-1.3.1-.7 0-1.2-.1-1.2-.1h2.5m25.5-18c-.5 0-1 .2-1.4.6l-4 4-.2.2c-5.7 7.2-14.6 8.2-14.7 8.3-.5.1-.9.3-1.2.6-1.3 1.3-2.8 2.1-4.3 2.4h-2.3c-1 0-1.9.8-2 1.8s.5 1.9 1.5 2.2c.1 0 .7.2 1.7.2.5 0 1 0 1.5-.1h10.3c.6 0 1.1-.2 1.5-.6l15-16c.7-.8.7-2-.1-2.8-.3-.6-.8-.8-1.3-.8z"/></g><g fill="#0C010B"><path d="M1770 340v-18M1770 342c-1.1 0-2-.9-2-2v-18c0-1.1.9-2 2-2s2 .9 2 2v18c0 1.1-.9 2-2 2z"/></g><path fill="#75554A" d="M1775 277.3c4.1 37 13.4 66.6 14.1 68.6.8 2.5 3.2 4.2 5.7 4.2.6 0 1.2-.1 1.8-.3 1.1-.3 1.9-.9 2.6-1.7l-24.2-70.8zM1729.9 145.5c-10.7 26.1-17.8 26.5-17.9 26.5-4.4 0-8 3.6-8 8s3.6 8 8 8c9.2 0 17.4-6.7 25.3-20.8l-7.4-21.7z"/><path fill="#0C010B" d="M1797.9 344c-2 .6-5.1.7-9.3-1.4-3.4-1.7 0 6 0 6l6 2h4l1.2-1.2-1.9-5.4z"/><path fill="#CCA03E" d="M1741.1 178.4l-1.1 25.5V204.5c.1.8 8 80.2 8 115.6 0 1.3.7 2.6 1.8 3.3.5.4 13.2 8.7 30.2 8.7 1.1 0 2.1-.4 2.9-1.2.8-.8 1.2-1.8 1.1-2.9 0-.2-.4-11.3-.7-26.4l-42.2-123.2z"/><path fill="#75554A" d="M1907.6 324l-8.6 11 11.2-4.4-.5-7.5"/><path fill="#0C010B" d="M1884.6 322h-1.9v.1l3.9 11.9"/><path fill="#0C010B" d="M1886.6 321.7c-.2-1-1-1.7-2-1.7h-1.2l-1.8 5.2 3.1 9.4c.3.8 1.1 1.4 1.9 1.4.2 0 .3 0 .5-.1 1-.3 1.7-1.2 1.5-2.3l-2-11.9z"/><path fill="#0C010B" d="M1884.6 322h-1.9v.1l3.9 11.9"/><path fill="#0C010B" d="M1882 324l-6.4 18.2h2.1l.7 3.3-3.7-.8-2.2 6.3c3.3-.1 6.8-1.5 8.5-5.2 0 0 1.1-1.7 2.3-7.6 1.2-5.9 3.8-20.7 3.8-20.7l-6.8 14.3 1.7-7.8z"/><path fill="#75554A" d="M1903 264.2c4.3 38.5 4 62.3 4 62.7-.1 3.3 2.6 6 5.9 6.1l1.1-6c3.3 0 4.9 3.4 5 .1 0-1.7.5-35.4-7.1-88.1l-8.9 25.2zM1872.9 350c2.1-.2 4.1-1.6 4.9-3.7.7-1.7 10.1-25.3 16.3-56.5l-21.2 60.2z"/><path fill="#0C010B" d="M1921 324c0-1.1-.9-2-2-2H1918.4c-.1 0-.2 0-.2.1-.1 0-.1.1-.2.1 0 0-.1 0-.1.1l-.2.2s-.1 0-.1.1l-2.5 2.7c-6.5 6-16.6 9.7-16.7 9.8-.3.1-.5.3-.7.5-1.3 1.3-2.8 2.1-4.3 2.4h-2.3c-1 0-1.9.8-2 1.8s.5 1.9 1.5 2.2c.1 0 .7.2 1.7.2.5 0 1 0 1.5-.1h10.3c.6 0 1.1-.2 1.5-.6l11.5-12.3V340c0 1.1.9 2 2 2s2-.9 2-2l-.1-16zm-28.8 16.1s-.1 0 0 0zm24.2-13.3L1904 340l12.4-13.2c0-.1.1-.1 0 0 .1-.1 0-.1 0 0z"/><path fill="#CCA03E" d="M1920.2 264.2c-2.5-12.6-4.4-23.1-5.9-31.9l-7.4 21 17.2 67.8c.5 1.8 2.1 3 3.9 3 .3 0 .6 0 .9-.1 2.1-.5 3.4-2.6 3-4.8-.1-.4-6-26.4-11.7-55zm-3.9 1c1 5.3 2.1 10.4 3.1 15.3-1-4.9-2-10-3.1-15.3z"/><path fill="#0C010B" d="M1878.6 342.8c-1.3.4-2.4.6-3.5.8l-2.4 6.8 4.2-1.6c.1-.1 5.3-7.2 1.7-6z"/><path fill="#75554A" d="M1958 196.6c-2.5-1-10.7-6.7-12.2-39-.2-4.8-.3-9.6-.2-14.1l-13.2 37.4c3.4 16.6 9.9 26.7 19.7 30.6 1 .4 2 .6 3 .6 3.2 0 6.2-1.9 7.4-5 1.6-4.2-.4-8.9-4.5-10.5z"/><path fill="#42073A" d="M1994.2 262l-12.4 11.7c-.6.6-.8 1.5-.5 2.2.3.8 1.1 1.2 2 1.2 0 0 1-.1 2.7-.1 2.2 0 7 .1 11.9 1l-3.7-16z"/><path fill="#FF9B0B" d="M2043.2 297.2c-1.3 0-2.7-.7-3.4-1.9-1.1-1.9-.5-4.3 1.3-5.5l108.6-66.1c1.9-1.1 4.3-.5 5.5 1.3 1.1 1.9.5 4.3-1.3 5.5l-108.6 66c-.7.5-1.4.7-2.1.7z"/><path fill="#42073A" d="M2183 213.6c-.6-.5-1.5-.6-2.2-.2-.8.5-2 .7-3.5.7-.6 0-1.2 0-1.8-.1.7-1.6 1.9-3.3 3.3-4.1.7-.4 1.1-1.2 1-2-.1-.8-.7-1.5-1.4-1.7l-5.4-1.6c-.9-.3-1.9.2-2.3 1 0 .1-4.8 9.1-12.3 9.1-.9 0-1.9-.1-2.8-.4-.8-.2-1.7.1-2.2.8l-5.1 7.4c-.4.6-.5 1.4-.1 2.1l1.9 3.5v.1l1.9 3.4c.4.6 1 1 1.8 1h.1l8.9-.4c.9 0 1.6-.6 1.8-1.4 2.2-7.5 10.7-8.3 14.3-8.3h1.1c.9.1 1.8-.5 2.1-1.4l1.6-5.4c.2-.7-.1-1.6-.7-2.1z"/><path fill="#E1A987" d="M2130 213.6c-.1-.7-.2-1.3-.3-2-2.6-14.2-12.9-25.2-25.8-29.3l26.1 31.3z"/><path fill="#FF9B0B" d="M2128.4 211.7l8.6-6.5c1.8-1.3 2.1-3.8.8-5.6-1.3-1.8-3.8-2.1-5.6-.8l-8.9 6.8 5.1 6.1z"/><path fill="#42073A" d="M2162.8 182.9c-.7-.4-1.6-.3-2.2.2-1.3 1.1-3.5 1.5-5 1.6.4-1.6 1.2-3.6 2.5-4.6.6-.5.9-1.4.6-2.1-.2-.8-.9-1.3-1.7-1.4l-5.6-.5c-.9-.1-1.8.5-2.1 1.4 0 .1-3.6 11.4-12.3 11.4h-1c-.9-.1-1.7.4-2 1.2l-3.6 8.2c-.3.7-.2 1.5.3 2.1l2.5 3 2.6 3.1c.4.5 1 .7 1.5.7.2 0 .3 0 .5-.1l8.7-2c.8-.2 1.5-.9 1.5-1.8.4-3.9 2.7-6.9 6.9-8.9 3.4-1.6 6.7-2 6.7-2 .9-.1 1.7-.9 1.8-1.8l.5-5.6c0-.9-.4-1.7-1.1-2.1zM2076.4 149.2c.4-2 .4-4.4-.1-7.1-2.3-12.6-12.7-21.7-24.9-22.8l25 29.9z"/><path fill="#E1A987" d="M2081.9 155.9c.5-.8.7-1.7.5-2.7-.4-2.2-2.5-3.6-4.7-3.2l-.6.1 4.8 5.8z"/></g></svg>