<?xml version="1.0" encoding="UTF-8" standalone="no"?>
<svg width="79px" height="52px" viewBox="0 0 79 52" version="1.1" xmlns="http://www.w3.org/2000/svg" xmlns:xlink="http://www.w3.org/1999/xlink">
    <!-- Generator: Sketch 45.2 (43514) - http://www.bohemiancoding.com/sketch -->
    <title>Imported-Layers</title>
    <desc>Created with Sketch.</desc>
    <defs></defs>
    <g id="Page-3" stroke="none" stroke-width="1" fill="none" fill-rule="evenodd">
        <g id="Artboard-Copy-8" transform="translate(-184.000000, -1176.000000)" fill-rule="nonzero" fill="#FFFFFF">
            <g id="Group-Copy-6" transform="translate(129.000000, 84.000000)">
                <path d="M129.032426,1092 L59.7615455,1092 C57.1778864,1092 55,1094.25782 55,1097.04228 L55,1138.52178 C55,1141.30625 57.1778864,1143.5636 59.8647841,1143.5636 L78.7870796,1143.5636 C80.8159432,1143.5636 82.554841,1142.27721 83.285591,1140.44788 L88.7877614,1126.67442 C89.7155624,1124.35194 91.923523,1122.71801 94.5,1122.71801 C97.0764774,1122.71801 99.2844376,1124.35194 100.212239,1126.67442 L105.714409,1140.44788 C106.445159,1142.27721 108.184057,1143.5636 110.109682,1143.5636 L129.032426,1143.5636 C131.822114,1143.5636 134,1141.30625 134,1138.52178 L134,1097.04228 C134,1094.25782 131.822114,1092 129.032426,1092 L129.032426,1092 Z M76.5827103,1126.85586 C71.7426137,1126.85586 67.8235852,1122.7957 67.8235852,1117.7818 C67.8235852,1112.7679 71.7426137,1108.7082 76.5827103,1108.7082 C81.422358,1108.7082 85.3333069,1112.7679 85.3333069,1117.7818 C85.3333069,1122.7957 81.4138296,1126.85586 76.5827103,1126.85586 L76.5827103,1126.85586 Z M112.421778,1126.85168 C107.584375,1126.85168 103.666693,1122.79338 103.666693,1117.7818 C103.666693,1112.77069 107.584375,1108.71239 112.421778,1108.71239 C117.259182,1108.71239 121.176864,1112.77069 121.176864,1117.7818 C121.176864,1122.79338 117.259182,1126.85168 112.421778,1126.85168 L112.421778,1126.85168 Z" id="Imported-Layers"></path>
            </g>
        </g>
    </g>
</svg>