<?xml version="1.0" encoding="UTF-8" standalone="no"?>
<svg width="173px" height="186px" viewBox="0 0 173 186" version="1.1" xmlns="http://www.w3.org/2000/svg" xmlns:xlink="http://www.w3.org/1999/xlink">
    <!-- Generator: Sketch 43.2 (39069) - http://www.bohemiancoding.com/sketch -->
    <title>Group 9</title>
    <desc>Created with Sketch.</desc>
    <defs>
        <polygon id="path-1" points="0 60.0569871 0 0.538011765 78.8565771 0.538011765 78.8565771 60.0569871 3.85349606e-15 60.0569871"></polygon>
        <polygon id="path-3" points="0 234.461988 82.2351649 234.461988 82.2351649 0.552941176 0 0.552941176"></polygon>
        <polygon id="path-5" points="60.9728458 0.318161087 60.9728458 87.4465748 0.294435799 87.4465748 0.294435799 0.318161087 60.9728458 0.318161087"></polygon>
    </defs>
    <g id="Finals" stroke="none" stroke-width="1" fill="none" fill-rule="evenodd">
        <g id="iPhone-7" transform="translate(-175.000000, -14.000000)">
            <g id="Group-2">
                <g id="Group-9" transform="translate(175.000000, 14.000000)">
                    <g id="Page-1" transform="translate(90.393939, 0.000000)">
                        <path d="M71.7873278,50.76564 L70.1928645,43.4756635 L70.1928645,44.7020871 C67.1685956,42.7419106 63.5527787,41.6122518 59.6686306,41.6498518 C49.7437065,41.7466165 41.4365306,49.6370871 40.8882259,59.5214635 C40.507351,66.3806988 43.7899717,72.4973341 48.9586717,76.1152282 L58.0880274,82.7698753 C58.0880274,82.7698753 70.8065887,73.4998165 71.0893343,73.3101576 C76.451521,69.7138282 78.8565216,65.0011106 78.8565216,60.0721929 L71.7873278,50.76564 Z" id="Fill-1" fill="#6D5943"></path>
                        <path d="M17.5088812,63.7894506 L24.7066966,63.7894506 C34.3405591,63.7894506 36.9091086,55.9277329 36.9091086,46.3192741 L36.9091086,41.83658 C35.8407738,41.5567918 40.0353876,41.4069447 38.8822292,41.4069447 L10.1048279,40.1274388 C5.50827191,40.1274388 0.00914765101,43.6822976 0.00914765101,49.2426741 C0.00914765101,59.3156035 8.22096624,63.7894506 17.5088812,63.7894506" id="Fill-3" fill="#6D5943"></path>
                        <path d="M57.8660999,43.8373976 C57.8555662,43.8373976 57.8450325,43.8390565 57.8344989,43.8390565 L57.8344989,28.4451741 L41.5156439,4.93964471 L10.1048279,21.3149976 L10.1048279,21.3957271 L10.1048279,62.1353271 C10.1048279,74.0241153 20.2121507,82.7639035 31.2325754,82.7639035 L57.8344989,82.7639035 L57.8344989,65.7443741 C57.8450325,65.7443741 57.8555662,65.7460329 57.8660999,65.7460329 C63.9318241,65.7460329 68.8482707,60.8397859 68.8482707,54.7900565 C68.8482707,48.7414329 63.9318241,43.8373976 57.8660999,43.8373976" id="Fill-5" fill="#FFC49D"></path>
                        <path d="M54.3810666,65.8206247 C54.3810666,63.6685776 56.1279907,61.92626 58.2846188,61.92626 C60.440138,61.92626 62.1876165,63.6685776 62.1876165,65.8206247 C62.1876165,67.9699071 60.440138,69.7138835 58.2846188,69.7138835 C56.1279907,69.7138835 54.3810666,67.9699071 54.3810666,65.8206247" id="Fill-7" fill="#FFFFFF"></path>
                        <g id="Group-11" transform="translate(0.000000, 0.014929)">
                            <mask id="mask-2" fill="white">
                                <use xlink:href="#path-1"></use>
                            </mask>
                            <g id="Clip-10"></g>
                            <path d="M43.3038156,0.537845882 L35.7035036,0.537845882 C17.9620503,0.537845882 0.00881500915,13.8338694 0.00881500915,32.6576459 L0.00881500915,42.5868106 C0.00881500915,42.9323988 -0.0111435021,48.5441988 0.00881500915,48.8848106 C0.00881500915,44.2622224 5.50849368,40.3650929 10.1044953,40.3650929 L17.2418807,40.30814 C17.2418807,40.30814 31.3126312,41.0982929 41.6123318,29.4754694 C41.6123318,29.4754694 43.2755411,60.0569871 70.2134329,60.0569871 L78.8565771,60.0569871 L78.8565771,32.6681518 C78.8565771,14.1717165 61.7571225,0.537845882 43.3038156,0.537845882" id="Fill-9" fill="#BFB09D" mask="url(#mask-2)"></path>
                        </g>
                        <path d="M20.5337599,63.4636024 C22.512979,66.6087318 26.0068273,68.7076965 30.0051823,68.7076965 C34.0035374,68.7076965 37.4973857,66.6087318 39.4766048,63.4636024 L20.5337599,63.4636024 Z" id="Fill-12" fill="#E2352D"></path>
                        <mask id="mask-4" fill="white">
                            <use xlink:href="#path-3"></use>
                        </mask>
                        <g id="Clip-15"></g>
                        <polygon id="Fill-19" fill="#13132D" mask="url(#mask-4)" points="70.4649655 140.648274 70.4649655 149.483721 70.4649655 203.608368 10.1048834 203.608368 10.1048834 140.648274"></polygon>
                        <path d="M71.0889462,82.8029965 L71.0895006,82.7637376 L26.1490316,82.7637376 C17.0457329,82.7637376 10.3651756,89.2320435 10.1168031,98.5596082 L10.1073782,98.5596082 L10.1073782,98.9892435 C10.1068238,99.0257376 10.1046062,99.0611259 10.1046062,99.0981729 L10.1046062,139.506008 L10.1073782,139.506008 L10.1073782,140.648385 L58.0881937,140.648385 L58.0881937,153.896855 L82.2352204,153.896855 L82.2352204,94.8117729 C82.2352204,88.4999494 77.2999241,83.2801847 71.0889462,82.8029965" id="Fill-20" fill="#1730AD" mask="url(#mask-4)"></path>
                        <path d="M70.4649655,166.847125 C77.1056058,166.847125 82.2349432,161.428301 82.2349432,154.805172 L82.2349432,153.896689 L58.0879165,153.896689 L58.0879165,154.805172 C58.0879165,161.428301 63.8243253,166.847125 70.4649655,166.847125" id="Fill-21" fill="#FFC49D" mask="url(#mask-4)"></path>
                        <polygon id="Fill-22" fill="#FFC49D" mask="url(#mask-4)" points="34.6723693 79.1303612 34.6723693 100.362196 58.0881383 82.7637376"></polygon>
                    </g>
                    <g id="Page-1-Copy-5" transform="translate(33.500000, 135.000000) scale(-1, 1) translate(-33.500000, -135.000000) translate(0.000000, 59.000000)">
                        <g id="Group-3" transform="translate(9.854170, 0.259606)" fill="#BFB09D">
                            <path d="M27.8708204,3.4448384 L27.8708204,3.4448384 L11.5553733,3.4448384 L14.0195954,0.989920991 C10.0436078,-0.627961984 5.66495836,-0.113488737 2.82695745,2.7130679 C-0.0110434662,5.539963 -0.527537885,9.90147765 1.09704094,13.8622447 L1.38722925,13.5728535 C2.54356511,15.88426 4.94186617,17.4821733 7.69797554,17.4821733 L17.0839024,17.4821733 L17.0839024,22.8827885 C17.0839024,28.7924614 19.2643923,33.9104548 25.1972822,33.9104548 L27.8708204,31.6535419 C33.8037102,31.6535419 38.6577384,26.8181703 38.6577384,20.9088359 L38.6577384,14.1895445 C38.6577384,8.27987151 33.8037102,3.4448384 27.8708204,3.4448384" id="Fill-1"></path>
                        </g>
                        <polygon id="Fill-4" fill="#C8B89A" points="37.7249902 35.1434306 31.3843416 35.1434306 31.3843416 20.5334058 37.7249902 20.3824485"></polygon>
                        <path d="M37.2456358,10.3150194 L10.1724935,10.3150194 L10.1724935,10.3549587 C7.35895811,10.6765045 5.17201201,13.0545894 5.17201201,15.9434244 L5.17201201,21.1230192 C5.17201201,22.9551532 6.0558291,24.5784517 7.41740353,25.6060443 L7.41740353,43.5611606 L17.6117121,51.1861957 L34.0756513,55.0714841 L42.2607287,55.0714841 L42.2607287,16.3248792 L37.2456358,10.3150194 Z" id="Fill-6" fill="#FFC49D"></path>
                        <path d="M40.534482,9.57543023 C35.4191485,9.57543023 31.2389417,14.5874828 30.9521513,19.6113817 L30.9351614,19.6063047 L30.9351614,31.06315 L43.994315,37.9594608 C43.994315,37.9594608 45.4517127,9.57543023 40.534482,9.57543023" id="Fill-16" fill="#BFB09D"></path>
                        <path d="M35.697138,34.4496363 C35.697138,30.5545323 38.8688215,27.3949219 42.7775289,27.3949219 C46.6913333,27.3949219 49.862677,30.5545323 49.862677,34.4496363 C49.862677,38.3416941 46.6913333,41.5026584 42.7775289,41.5026584 C38.8688215,41.5026584 35.697138,38.3416941 35.697138,34.4496363" id="Fill-18" fill="#FFC49D"></path>
                        <path d="M30.9352973,31.0631162 L30.9352973,37.6768052 L21.6859696,41.9503178 C20.3627925,39.3870902 17.6834777,37.6328042 14.5909673,37.6328042 L7.41747149,37.6328042 L7.41747149,41.9503178 L7.41747149,43.1295446 C7.41747149,49.6955095 12.8073626,55.0714164 19.3726183,55.0714164 L37.554581,55.0714164 L37.554581,27.395125 L30.9352973,31.0631162 Z" id="Fill-20" fill="#BFB09D"></path>
                        <path d="M44.1859616,46.6209564 L27.7821668,46.6209564 L22.0473798,55.071518 L14.2935073,55.071518 C9.63758198,55.071518 5.73125314,58.7621866 7.41665598,63.4036153 L7.41665598,107.088825 L27.678868,107.088825 C34.5513019,107.088825 40.1348784,100.957793 40.2782736,94.1488073 C41.5983925,90.3274896 43.199865,88.6405589 44.1071283,88.0137138 L44.1071283,59.2231817 L44.1859616,59.2377359 L44.1859616,46.6209564 Z" id="Fill-22" fill="#FFFFFF"></path>
                        <polygon id="Fill-24" fill="#FFC49D" points="7.41750547 40.9048202 13.9990715 37.632838 7.41750547 24.175301"></polygon>
                        <g id="Group-28" transform="translate(5.436783, 54.753154)">
                            <mask id="mask-6" fill="white">
                                <use xlink:href="#path-5"></use>
                            </mask>
                            <g id="Clip-27"></g>
                            <path d="M60.9730157,23.9744533 L48.8010771,4.33680639 C47.2325651,1.7265316 44.4632036,0.337792303 41.6150087,0.318161087 L31.8281191,0.318161087 C27.2306391,0.318161087 23.4014447,3.9658441 23.4014447,8.54871763 C23.4014447,8.588657 23.4085804,8.62927331 23.4085804,8.66921268 L23.4014447,8.66921268 L23.4014447,28.1464252 C23.4014447,32.9851815 26.5574974,37.1080753 30.8980893,38.696173 L8.11796705,38.696173 L8.11796705,8.65025841 C8.11796705,4.00916817 11.8921141,0.318161087 16.5510976,0.318161087 L8.86348597,0.318161087 C4.20858002,0.318161087 0.294435799,4.00916817 0.294435799,8.65025841 L0.294435799,39.7383198 L0.294435799,56.8371089 L0.294435799,87.4465748 L17.6924823,87.4465748 L17.6924823,62.6496412 L24.2974945,62.6496412 L24.2974945,87.4465748 L41.5670971,87.4465748 L41.5670971,62.9183858 L52.095428,62.9183858 L46.8560679,49.5681435 L60.2424479,33.8580936" id="Fill-26" fill="#13132D" mask="url(#mask-6)"></path>
                        </g>
                        <path d="M12.4267198,41.9990912 L12.4267198,42.612059 C12.4267198,45.1394088 14.5025516,47.2074559 17.0398305,47.2074559 C19.5771093,47.2074559 21.653281,45.1394088 21.653281,42.612059 L21.653281,41.9990912 L12.4267198,41.9990912 Z" id="Fill-29" fill="#FFC49D"></path>
                    </g>
                </g>
            </g>
        </g>
    </g>
</svg>