<svg xmlns="http://www.w3.org/2000/svg" xmlns:xlink="http://www.w3.org/1999/xlink" width="91" height="209" version="1.1" viewBox="0 0 91 209"><title>Page 1</title><desc>Created with Sketch.</desc><defs><polygon id="path-1" points="0 251.779 90.55 251.779 90.55 0 0 0"/></defs><g id="Finals" fill="none" fill-rule="evenodd" stroke="none" stroke-width="1"><g id="Artboard-Copy-19" transform="translate(-1116.000000, -16.000000)"><g id="Group-6"><g id="Page-1" transform="translate(1116.000000, 16.000000)"><path id="Fill-1" fill="#CE1111" d="M0,81.9195656 L0,132.250838 C0,144.129512 9.36931081,154.843536 21.1661081,154.843536 L41.7739189,154.843536 L41.7739189,81.9195656 L0,81.9195656 Z"/><mask id="mask-2" fill="#fff"><use xlink:href="#path-1"/></mask><polygon id="Fill-3" fill="#FFC49E" points="25.102 242.249 43.887 242.249 43.887 203.308 25.102 203.308" mask="url(#mask-2)"/><polygon id="Fill-6" fill="#FFC49E" points="58.156 242.249 76.939 242.249 76.939 203.308 58.156 203.308" mask="url(#mask-2)"/><polygon id="Fill-8" fill="#CE1111" points="79.378 136.326 77.329 156.623 77.329 214.547 10.834 214.547 10.834 136.326" mask="url(#mask-2)"/><path id="Fill-9" fill="#13132D" d="M28.6278622,81.9053248 C18.3387135,81.9053248 10.8342878,89.4337474 10.8342878,100.202878 L10.8342878,151.903743 L78.4700378,151.903743 L78.4700378,81.9195656 L28.6278622,81.9053248 Z" mask="url(#mask-2)"/><path id="Fill-10" fill="#13132D" d="M46.6354709,99.1869523 L46.6354709,81.9110211 L28.153248,81.9054486 C18.1899777,81.9054486 11.2911939,88.9639253 10.8343493,99.1869523 L46.6354709,99.1869523 Z" mask="url(#mask-2)"/><path id="Fill-11" fill="#F2AF80" d="M77.1589615,176.052215 C84.5238128,176.052215 90.5494885,169.984402 90.5494885,162.568048 L90.5494885,161.550761 L63.7690493,161.550761 L63.7690493,162.568048 C63.7690493,169.984402 69.7934953,176.052215 77.1589615,176.052215" mask="url(#mask-2)"/><path id="Fill-12" fill="#CE1111" d="M77.1589615,81.9053248 C76.9763466,81.9053248 76.7949615,81.9121356 76.6129615,81.9195656 L37.4380764,81.9195656 L37.4380764,128.989698 C37.4380764,140.868991 47.0416507,152.261 58.8378331,152.261 L63.7690493,152.261 L63.7690493,161.550327 L90.5482588,161.550327 L90.5482588,95.3894919 C90.5482588,87.9731381 84.5238128,81.9053248 77.1589615,81.9053248" mask="url(#mask-2)"/><path id="Fill-13" fill="#D6842B" d="M40.6381405,0.000557248157 L19.3490595,0.000557248157 L19.3490595,0.0141788698 C10.4593432,0.296517936 3.27341757,7.70110762 3.27341757,16.718002 L3.27341757,41.1861494 C3.27341757,50.380744 10.7440257,57.9035941 19.8747689,57.9035941 L20.9212689,57.9035941 C30.0520122,57.9035941 39.9820797,50.380744 39.9820797,41.1861494 L40.6381405,0.000557248157 Z" mask="url(#mask-2)"/><polygon id="Fill-14" fill="#13132D" points="72.588 39.012 61.976 39.012 61.976 81.903 77.285 72.235" mask="url(#mask-2)"/><polygon id="Fill-15" fill="#FFC49D" points="40.52 81.903 61.977 81.903 61.977 22.777 40.52 22.777" mask="url(#mask-2)"/><path id="Fill-16" fill="#FFC49D" d="M46.5219669,81.7759194 C63.7252709,63.2170791 53.1329939,33.1114378 40.5196561,22.776342 L10.7737236,22.776342 L10.7737236,61.1825042 C10.7737236,73.0097867 20.263548,81.7759194 31.8709669,81.7759194 L58.5634804,81.7759194 L58.5677845,81.7759194 L46.5219669,81.7759194 Z" mask="url(#mask-2)"/><path id="Fill-17" fill="#FFC49D" d="M51.1989365,52.2770595 C51.1989365,46.3107892 56.0047203,33.3194771 61.9264838,33.3194771 C67.8562405,33.3194771 72.6614095,46.3107892 72.6614095,52.2770595 C72.6614095,58.2383764 67.8562405,63.0802437 61.9264838,63.0802437 C56.0047203,63.0802437 51.1989365,58.2383764 51.1989365,52.2770595" mask="url(#mask-2)"/><path id="Fill-18" fill="#D6842B" d="M80.0633372,3.12387125 C77.343175,1.16173857 74.0198304,0.000185749386 70.4376277,0.000185749386 L28.0931142,0.000185749386 C18.9623709,0.000185749386 7.69989122,7.52303587 7.69989122,16.7176305 L7.69989122,39.0118909 L34.6002291,39.0118909 C42.4286885,39.0118909 48.0030534,32.7156059 48.7359723,24.8608835 C60.2769858,32.4852767 68.4350128,44.3559007 68.4350128,59.3180138 C68.4350128,67.6018172 66.1095939,75.3364216 62.087148,81.9051391 C63.6845669,81.9367165 87.0389791,83.1750457 87.0389791,62.636117 L87.0389791,16.7176305 L87.0389791,16.1387115 C87.0389791,10.6956354 84.2640939,5.90763538 80.0633372,3.12387125" mask="url(#mask-2)"/><path id="Fill-19" fill="#E2352D" d="M25.1025959,60.417774 C26.03965,63.5005946 28.8864743,65.7432088 32.2553189,65.7432088 C35.6229338,65.7432088 38.4697581,63.5005946 39.407427,60.417774 L25.1025959,60.417774 Z" mask="url(#mask-2)"/></g></g></g></g></svg>