<?xml version="1.0" encoding="utf-8"?>
<!-- Generator: Adobe Illustrator 16.0.1, SVG Export Plug-In . SVG Version: 6.00 Build 0)  -->
<!DOCTYPE svg PUBLIC "-//W3C//DTD SVG 1.1//EN" "http://www.w3.org/Graphics/SVG/1.1/DTD/svg11.dtd">
<svg version="1.1" id="Layer_1" xmlns="http://www.w3.org/2000/svg" xmlns:xlink="http://www.w3.org/1999/xlink" x="0px" y="0px"
	 width="1170.381px" height="729.604px" viewBox="0 0 1170.381 729.604" enable-background="new 0 0 1170.381 729.604"
	 xml:space="preserve">
<path fill="#FFFFFF" d="M526.827,147.39c0,73.234,38.446,121.754,91.544,157.457l2.747,1.829
	c-31.129,21.055-95.209,71.406-95.209,129.075c0,43.941,28.378,85.137,87.884,98.87c-63.167,11.899-132.742,40.28-132.742,110.767
	v5.491c-70.486-73.233-116.258-170.269-116.258-281.037c0-163.865,97.95-301.179,234.353-367.094
	C554.287,35.703,526.827,85.141,526.827,147.39 M844.485,567.575c50.349,0,77.812,25.633,77.812,63.168
	c0,43.939-32.042,76.895-151.048,76.895c-104.36,0-140.062-35.703-140.062-75.066c0-29.293,12.816-64.996,64.078-64.996H844.485z
	 M1049.542,656.375c13.73-28.381,21.969-60.418,21.969-96.121c0-109.855-58.587-157.457-182.173-157.457h-198.65
	c-21.055,0-39.364-17.395-39.364-36.62c0-13.729,10.988-29.295,25.635-40.274c29.295,10.069,54.929,10.979,90.631,10.979
	c141.892,0,239.845-69.567,238.013-190.411C1004.685,77.814,975.39,29.294,926.871,0c141.897,61.337,243.51,202.316,243.51,369.842
	C1170.381,482.441,1123.691,583.142,1049.542,656.375 M767.589,269.144c-39.369,0-72.323-9.157-72.323-121.754
	c0-112.599,32.954-127.246,72.323-127.246c41.191,0,72.316,17.39,72.316,127.246C839.905,257.239,806.952,269.144,767.589,269.144"
	/>
<g opacity="0.75">
	<g>
		<defs>
			<rect id="SVGID_1_" x="182.62" y="152.304" width="121.83" height="444.08"/>
		</defs>
		<clipPath id="SVGID_2_">
			<use xlink:href="#SVGID_1_"  overflow="visible"/>
		</clipPath>
		<path clip-path="url(#SVGID_2_)" fill="#FFFFFF" d="M245.499,374.344c0,70.738,19.648,134.905,58.947,192.564l-29.473,29.474
			c-28.799-27.509-51.396-60.268-67.791-98.246c-16.364-38.01-24.562-79.273-24.562-123.792c0-43.229,8.198-83.848,24.562-121.825
			c16.395-38.01,38.992-71.416,67.791-100.213l29.473,29.475C265.147,239.408,245.499,303.607,245.499,374.344"/>
	</g>
</g>
<g>
	<defs>
		<rect id="SVGID_3_" y="26.154" width="190.59" height="703.45"/>
	</defs>
	<clipPath id="SVGID_4_">
		<use xlink:href="#SVGID_3_"  overflow="visible"/>
	</clipPath>
	<path clip-path="url(#SVGID_4_)" fill="#FFFFFF" d="M78.593,377.883c0,62.877,9.825,121.826,29.475,176.844
		c19.648,55.02,47.158,105.432,82.526,151.302l-23.578,23.58c-51.089-41.94-91.678-93.028-121.826-153.268
		C15.069,516.073-0.005,449.91-0.005,377.883c0-70.737,15.074-136.563,45.194-197.476c30.148-60.913,70.737-112.341,121.826-154.25
		l23.578,25.544c-35.368,45.839-62.878,96.283-82.526,151.302C88.418,258.021,78.593,316.294,78.593,377.883"/>
</g>
</svg>
