<svg xmlns="http://www.w3.org/2000/svg" width="35" height="57" viewBox="0 0 35 57">
  <g fill="none">
    <polygon fill="#FFF" points="29.894 50.16 4.599 50.16 6.899 46.74 27.594 46.74"/>
    <polygon fill="#C70000" points="34.493 57 0 57 2.3 53.58 32.193 53.58"/>
    <path fill="#FFF" d="M14.9468599,38.76 C13.2797101,41.724 10.7502415,44.517 6.89855072,46.74 L17.5338164,46.74 C23.8574879,40.698 27.3642512,34.485 29.2613527,29.64 C32.4806763,21.489 32.1932367,15.333 32.1357488,14.763 C32.1357488,6.612 25.4671498,0 17.2463768,0 C9.02560386,0 2.29951691,6.612 2.29951691,14.82 C2.29951691,16.815 2.70193237,18.753 3.44927536,20.52 C4.88647343,25.536 8.04830918,32.946 14.9468599,38.76 Z M15.8666667,43.662 C18.9135266,39.9 20.3507246,35.625 20.8681159,31.521 C21.7879227,32.034 22.8227053,32.319 23.9724638,32.319 L24.2599034,32.319 C22.3628019,35.967 19.6608696,39.843 15.8666667,43.662 Z M23.9724638,28.899 C22.4202899,28.899 21.1555556,27.645 21.1555556,26.106 C21.1555556,24.567 22.4202899,23.313 23.9724638,23.313 C25.5246377,23.313 26.789372,24.567 26.789372,26.106 C26.789372,27.645 25.5246377,28.899 23.9724638,28.899 Z M10.2328502,23.826 C10.0603865,23.655 9.83043478,23.541 9.65797101,23.37 L9.60048309,23.313 C7.24347826,21.204 5.74879227,18.183 5.74879227,14.82 C5.74879227,8.55 10.9227053,3.42 17.2463768,3.42 C23.5700483,3.42 28.7439614,8.55 28.7439614,14.82 C28.7439614,16.986 28.1115942,19.038 27.0768116,20.748 C26.1570048,20.235 25.1222222,19.95 23.9724638,19.95 C22.7077295,19.95 21.5004831,20.349 20.5231884,20.976 C19.7758454,16.815 18.626087,14.022 18.568599,13.908 L15.4067633,15.219 C15.4642512,15.333 17.4188406,20.121 17.6487923,26.22 L17.2463768,26.22 C16.9014493,26.22 16.5565217,26.22 16.2115942,26.163 C16.0966184,26.163 15.9816425,26.163 15.8666667,26.106 C15.636715,26.106 15.4067633,26.049 15.1768116,25.992 C15.0618357,25.992 14.9468599,25.935 14.8318841,25.935 C14.5444444,25.878 14.1995169,25.764 13.9120773,25.707 C13.7971014,25.65 13.6821256,25.65 13.5671498,25.593 C13.394686,25.536 13.2222222,25.479 12.9922705,25.365 C12.8198068,25.308 12.7048309,25.251 12.5323671,25.194 C12.4173913,25.137 12.2449275,25.08 12.1299517,25.023 C11.4975845,24.738 10.9227053,24.339 10.405314,23.94 C10.3478261,23.883 10.2903382,23.883 10.2328502,23.826 Z M17.2463768,29.64 L17.5913043,29.64 C17.4188406,31.578 17.073913,33.516 16.4415459,35.454 C13.8545894,33.117 11.9,30.552 10.405314,27.987 C12.4748792,29.013 14.7743961,29.64 17.2463768,29.64 Z"/>
  </g>
</svg>
