<?xml version="1.0" encoding="utf-8"?>
<!-- Generator: Adobe Illustrator 20.1.0, SVG Export Plug-In . SVG Version: 6.00 Build 0)  -->
<svg version="1.1" id="Layer_1" xmlns="http://www.w3.org/2000/svg" xmlns:xlink="http://www.w3.org/1999/xlink" x="0px" y="0px"
	 viewBox="0 0 500 70" style="enable-background:new 0 0 500 70;" xml:space="preserve">
<style type="text/css">
	.st0{fill:#FFFFFF;}
</style>
<g>
	<path class="st0" d="M1.3,31.2c0.2-1.3,1.2-2.2,2.5-2.2c0.9,0,1.7,0.5,2.3,1.5c0.2,0.8,0.2,1,0.2,1.4v0.7c0,0.2,0.2,0.6,0.3,0.8
		c2.2,4.6,5,7.8,9.5,7.8c2.3,0,4.9-0.6,6.7-2.6v0.1c0.6-0.7,1.3-1.5,1.3-2.5c0-1.1-1.4-2.6-2.2-3.3l0.1,0.1c-0.4-0.2-1-0.8-1.3-1
		c-0.2-0.1-0.5-0.3-0.6-0.5l-4-2.8c-0.2,0-0.4-0.1-0.8-0.5L15,28l0.1,0.1c-0.3-0.1-0.6-0.4-0.7-0.4l-4.6-4.1
		c-2.3-2-5.3-6.3-5.3-10.1c0-5.4,5.3-7.9,9.1-7.9c1.2,0,2.3,0,3.5,0.4c0.2,0,0.5,0.1,0.8,0.2c0.2,0.1,0.5,0.2,0.7,0.2
		c1.8,0.7,5.8,2.5,5.8,5.5c0,1.4-1.1,2.8-2.5,2.8c-1.3,0-1.7-0.5-2.3-1.3l-0.3-0.4c-1.2-1.3-3.8-1.7-5.5-1.7c-1.4,0-4,0.6-4,2.2
		c0,1.4,1,3.1,1.8,4.1l-0.1-0.1l1.2,1.3c1.4,1.3,2.8,2.7,4.3,4l-0.1-0.1l4.3,2.9c0.3,0.2,0.7,0.5,1,0.6c0.2,0.1,0.4,0.5,0.3,0.2
		c2.9,2,7,5.3,7,9.9c0,2.6-1,4.6-2.7,6.3c-2.9,3-6.7,4.3-10.5,4.3c-6.4,0-10.4-3.6-13.7-9.8l0.1,0.1c-0.8-1.5-1.3-3.1-1.3-4.9V31.2z
		"/>
	<path class="st0" d="M31.4,24.9c0-0.7,0.1-3.6,0.2-4.2c0.3-1.7,1.1-3.4,3.4-3.4c1.6,0,2.9,1.4,2.9,3.1v0.4
		c-0.3,2.2-0.4,4.1-0.4,6.1V30c0,0.1,0.1,0.5,0.2,1.1c0.1,0.5,0.2,1.6,0.2,1.6c0,0,0.1,0.3,0.1,0.4c0.3,1,1,3.5,1,4
		c0.5,1.5,1.6,4,3,4c2,0,3-4.4,3.2-6.1c0.1-0.5,0.3-1.6,0.3-1.7v-6.6c0-0.1,0-0.4-0.1-0.8l-0.2-2.2c-0.1-0.4-0.2-0.8-0.4-1.3
		c-0.2-0.7-0.6-1.3-0.6-2.3c0-1.7,0.9-3,3-3c0.4,0,1.1,0,1.9,0.5c1.7,1.6,2,4,2.3,5.9c0,0.4,0.1,1,0.1,1.6c0.1,1,0.2,2.2,0.2,2.4
		v2.3c0,5.6-0.8,11.7-5.3,15.7c-1.1,1-2.8,1.6-4.4,1.6c-9.1,0-10.6-14.1-10.6-20.1V24.9z"/>
	<path class="st0" d="M55.7,43.2c-0.6-0.6-1-1.4-1-2.4c0-0.9,0.4-1.6,1-2.3l0.5-14.7c0-1.4,1.7-2.5,3.1-2.5c1.7,0,2.5,1,2.8,2.2
		c0.7-0.5,1.4-1,2.5-1.1c0.7-0.1,2-0.4,2.3-0.4h1.2c6.8,0,9.7,4.4,9.7,11.1c0,2-0.3,4.3-1.3,6.1V39c-0.1,0.4-0.8,1.3-1.2,1.6
		l0.2-0.2c-3,3.4-6.1,5.2-10.7,5.2c-0.7,0-1.6-0.1-2.3-0.2c-0.7-0.1-0.1-0.1-0.8-0.1V46l0.7,10.1c0.1,0.5,0.3,1.5,0.5,2.2l0.2,1
		l0.2,0.5c0.2,0.5,0.4,1.1,0.4,1.5c0,1.6-1.3,2.9-2.9,2.9c-1.8,0-2.9-1.6-3.4-3.2l-0.5-2c-0.1-0.7-0.4-2-0.4-1.9l-0.9-10.5V43.2z
		 M61.7,39.1C61.7,39.1,61.7,39.2,61.7,39.1l0.1,0.8L61,38.8C61,38.8,61.4,39,61.7,39.1z M61.8,39.2c1,0.4,2.2,0.4,3.4,0.4
		c2.4,0,4.1-1.2,5.6-2.9c0.1-0.2,0.4-0.7,0.6-0.8c0.3-0.8,0.4-2,0.4-2.8c0-1.7-0.5-3.8-1.6-4.9c-0.5-0.2-1.3-0.2-2-0.2
		c-2.2,0-4,0.8-5.3,2.6c-0.4,0.4-1.1,1.3-1.1,1.4l-0.1,1.3V39.2z"/>
	<path class="st0" d="M81.3,43.2c-0.6-0.6-1-1.4-1-2.4c0-0.9,0.4-1.6,1-2.3l0.5-14.7c0-1.4,1.7-2.5,3.1-2.5c1.7,0,2.5,1,2.8,2.2
		c0.7-0.5,1.4-1,2.5-1.1c0.7-0.1,2-0.4,2.3-0.4h1.2c6.8,0,9.7,4.4,9.7,11.1c0,2-0.3,4.3-1.3,6.1V39c-0.1,0.4-0.8,1.3-1.2,1.6
		l0.2-0.2c-3,3.4-6.1,5.2-10.7,5.2c-0.7,0-1.6-0.1-2.3-0.2c-0.7-0.1-0.1-0.1-0.8-0.1V46L88,56.1c0.1,0.5,0.3,1.5,0.5,2.2l0.2,1
		l0.2,0.5c0.2,0.5,0.4,1.1,0.4,1.5c0,1.6-1.3,2.9-2.9,2.9c-1.8,0-2.9-1.6-3.4-3.2l-0.5-2c-0.1-0.7-0.4-2-0.4-1.9l-0.9-10.5V43.2z
		 M87.3,39.1C87.3,39.1,87.3,39.2,87.3,39.1l0.1,0.8l-0.7-1.1C86.7,38.8,87,39,87.3,39.1z M87.4,39.2c1,0.4,2.2,0.4,3.4,0.4
		c2.4,0,4.1-1.2,5.6-2.9c0.1-0.2,0.4-0.7,0.6-0.8c0.3-0.8,0.4-2,0.4-2.8c0-1.7-0.5-3.8-1.6-4.9c-0.5-0.2-1.3-0.2-2-0.2
		c-2.2,0-4,0.8-5.3,2.6c-0.4,0.4-1.1,1.3-1.1,1.4l-0.1,1.3V39.2z"/>
	<path class="st0" d="M106.5,41.6c-0.4-2-0.7-4.2-0.7-6.4c0-5.3,1.4-10.8,4.7-14.9v-0.1c0.5-0.6,1.5-1.7,2.2-1.9h0.4
		c0.2,0,0.2-0.1,0.2-0.1l0.8-0.3c0.8-0.3,1.7-0.7,2.9-0.7c4.6,0,8.3,6,9.2,10.1l-0.1-0.1c0.4,1.6,0.4,2.9,0.4,4.3
		c0,2.3-0.2,4.3-1,6.4v-0.1c-0.4,1.3-1.1,2.4-1.9,3.5c-2.5,3.5-5.4,6-9.8,6c-3.4,0-6.1-2.5-7.4-5.6L106.5,41.6z M111.9,40.3l0.2,0.4
		c0.6,0.9,1.3,1.4,2.2,1.4c1.5,0,3-1,4-2.2c1.1-1.1,2-2.8,2.6-4c0.4-1.3,0.6-2.8,0.6-4.2c0-1-0.1-2-0.4-3.2
		c-0.4-1.7-2.2-5.7-3.9-5.7c-0.7,0-1,0.2-1.5,0.5c-1.5,0.9-2.2,2.5-3,4.4c-1.4,1.3-1.6,5.6-1.6,7.4c0,1.6,0.2,3,0.5,4.9L111.9,40.3z
		"/>
	<path class="st0" d="M129,29.4v-9.4c0-1.6,1.9-2.4,2.9-2.4c1,0,1.9,0.5,2.4,1.2c0.3,0.4,0.5,0.8,0.5,0.8v0.9c2-1.5,4.6-2.7,7.1-2.7
		c1.6,0,2.7,0.4,4.1,1.1c2,1.1,4.5,4.9,4.5,7.1c0,1.5-1.2,2.8-2.9,2.8c-2.5,0-2.9-1.7-3.4-3.2v0.1c-0.1-0.1-0.3-0.4-0.5-0.6
		l-0.3-0.4c-0.6-0.5-0.9-0.8-1.5-0.8c-1.4,0-3.4,1.3-4.4,2.3l-1.3,1l-1.1,1c0,0.1-0.1,0.1-0.1,0.2v0.8l1,11.9c0,0.1,0.1,0.3,0.1,0.3
		c0.3,0.4,0.6,0.9,0.6,1.4v1.9c0,1.6-1.9,2.3-3,2.3c-2.2,0-3.2-1.9-3.4-3.8L129.3,31l0.1,0.2L129,29.4z"/>
	<path class="st0" d="M159.3,41.8c0-0.2,0-0.7,0.1-1c0.1-0.4,0.1-0.8,0.1-0.7V27.9c0-0.2-0.1-1-0.1-1.8c-0.1-0.4-0.1-0.8-0.1-1.1
		l-0.4,0.2c-0.3,0.2-0.6,0.2-0.5,0.2l-0.7,0.3c-0.5,0.4-1.3,0.7-2.1,0.7c-1.7,0-2.7-1.1-2.7-2.7v-0.8c0.4-0.8,1.4-1.8,2.2-2.2
		c1.3-0.5,2.9-1.3,4.2-1.8v-7.8c0.1-0.3,0.1-0.4,0.1-0.7c0.1-1.7,0.2-3.9,2.9-3.9c1.4,0,2.5,0.8,2.8,2.2v0.9c0,0.9,0,1.6-0.2,2.5
		c0,2-0.6,3.6-0.7,5.5c0.5-0.2,1.3-0.3,1.8-0.4l2-0.6h-0.1c1-0.3,2.1-0.5,3.2-0.5c1.6,0,2.8,1.1,2.8,2.6c0,2.5-2.2,2.8-4,3h-0.4
		l-0.3,0.1l0.3-0.1l-4.7,1.5c0,0.4,0.1,1,0.1,1.8c0.1,0.7,0.1,1.8,0.1,2v13.4c-0.1,1-0.2,1.5-0.2,2.3c0,0.1,0.1,0.3,0.2,0.4
		c0.1,0.3,0.2,0.8,0.2,1.3c0,1.5-1.1,2.8-2.8,2.8c-2.9,0-3.2-2.9-3.2-4.5V41.8z"/>
	<path class="st0" d="M200.8,41.8c0-0.2,0-0.7,0.1-1c0.1-0.4,0.1-0.8,0.1-0.7V27.9c0-0.2-0.1-1-0.1-1.8c-0.1-0.4-0.1-0.8-0.1-1.1
		l-0.4,0.2c-0.3,0.2-0.6,0.2-0.5,0.2l-0.7,0.3c-0.5,0.4-1.3,0.7-2.1,0.7c-1.7,0-2.7-1.1-2.7-2.7v-0.8c0.4-0.8,1.4-1.8,2.2-2.2
		c1.3-0.5,2.9-1.3,4.2-1.8v-7.8c0.1-0.3,0.1-0.4,0.1-0.7c0.1-1.7,0.2-3.9,2.9-3.9c1.4,0,2.5,0.8,2.8,2.2v0.9c0,0.9,0,1.6-0.2,2.5
		c0,2-0.6,3.6-0.7,5.5c0.5-0.2,1.3-0.3,1.8-0.4l2-0.6h-0.1c1-0.3,2.1-0.5,3.2-0.5c1.6,0,2.8,1.1,2.8,2.6c0,2.5-2.2,2.8-4,3h-0.4
		l-0.3,0.1l0.3-0.1l-4.7,1.5c0,0.4,0.1,1,0.1,1.8c0.1,0.7,0.1,1.8,0.1,2v13.4c-0.1,1-0.2,1.5-0.2,2.3c0,0.1,0.1,0.3,0.2,0.4
		c0.1,0.3,0.2,0.8,0.2,1.3c0,1.5-1.1,2.8-2.8,2.8c-2.9,0-3.2-2.9-3.2-4.5V41.8z"/>
	<path class="st0" d="M236.2,44.2c0.1-0.3,0.1-0.5,0.1-0.8v-0.5c0-0.2-0.2-2.7-0.4-3.5c0-0.2,0-0.5-0.1-0.8l-2.2-5.2l-0.1-0.1
		c-0.1-0.2-0.9-1.3-1.4-1.4c-0.6,0.3-1,0.8-1.4,1.5c-0.2,0.6-1.2,2.5-1.7,3.7l0.1-0.2l-0.5,1.1c-0.5,1.3-0.8,2.3-1,3.5
		c-0.2,0.4-0.5,2.1-0.5,2.4c-0.1,0.2-0.1,0.5-0.1,0.8c-0.2,1.6-0.4,3.1-2.8,3.1c-2.8,0-3-2.5-3.2-4.3c0-0.1-0.1-0.2-0.1-0.3v0.1
		c-0.2-0.7-0.4-1.7-0.6-2.7l-0.7-3.6l-1.7-14.2c-0.1-0.5-0.1-1.3-0.1-2.1c0-0.7-0.1-1.4-0.1-2V8.2c0-1.8,0.5-4,3.1-4
		c1.7,0,2.8,1.3,2.8,2.6c0,0.5,0,1-0.1,1.3c0,0.2-0.1,0.5-0.1,0.7V18c0,0.2,0.1,0.9,0.1,1.7c0.1,0.8,0.1,1.9,0.1,2.1V22l1.1,10.3
		c1-2.3,1.9-4.1,5.1-5.6l0.4-0.2c0.4-0.1,0.9-0.3,1.4-0.3c1.9,0,3.5,1,4.7,2.2l0.2,0.3v-0.1c0.8,0.7,1.5,1.3,2,2.5l-0.1-0.1l2.5,5.6
		l0.4,1.2l0.4,3.9v3.2c-0.4,1.7-0.9,3.2-3,3.2c-1.8,0-2.9-1.2-2.9-2.8C236.2,45,236.2,44.6,236.2,44.2z"/>
	<path class="st0" d="M247.1,24.1L247.1,24.1c1.6-2.8,3.3-5,5.5-6.4c0.9-0.5,1.5-0.5,2.3-0.5c1.4,0,2.9,0.2,4.2,1.1
		c2.2,1.3,5.1,4.6,5.1,8.5c0,4.4-2.5,6.5-5.2,7.9h-0.1c-1,0.6-2,1.1-3.1,1.1h-4.5l0.4,0.8c0.1,0,0.1,0.2,0.1,0.1
		c1.7,3.5,4.4,4.6,7.2,4.6c2.2,0,4.5-1,6.5-2.6c0.5-0.4,0.8-0.8,1.3-1.3l0.7-0.7c0.1-0.1,1.1-0.7,1.3-0.7h0.8c1.2,0,1.9,1.7,1.9,2.8
		c0,1.5-0.6,2.3-1.3,3l-0.4,0.4c-1.3,1.5-2.8,2.5-4.1,3.2c-2,1-4.3,1.7-6.7,1.7c-6.8,0-13-5.4-13-15.8
		C245.9,28.8,246.4,26.8,247.1,24.1z M250.8,29.5v1v0.4L249,30c0.4-0.2,0.9-0.5,1.5-0.5H250.8z M250.8,29.5c0.9,0.1,0.5,0.3,0.8,0.4
		c0.1,0.1,0.2,0.1,0.2,0.1h3.8c-0.1,0-0.1,0,0-0.1h0.2l1.3-0.7l0.6-0.1c0.1,0-0.4,0-0.2-0.1l0.9-0.5c0.4-0.3,1-0.9,1-1.4
		c0-2.5-2.9-4-4.3-4h-0.5c-1.2,0.7-2.6,2.2-3.3,3.7C251.1,27.5,250.9,28.5,250.8,29.5z M255.8,29.9L255.8,29.9
		c0.2,0,0.3-0.1,0.4-0.1L255.8,29.9z"/>
	<path class="st0" d="M313.3,40.6c-2.5,3.2-5.6,4-8.6,4c-6.6,0-12.2-6.2-12.1-18.1c0.1-12.7,8-20.9,15.4-20.9h0.2
		c2.9,0.1,6.2,1,8.4,4.9c0.4,0.8,0.7,1.9,0.7,2.9c0,1.6-1,2.5-2,2.5c-1.4,0-1.6-0.7-1.8-1.6c0.1,0.1-0.1-0.4-0.2-0.5
		c-1.1-2.2-3.5-2.8-5.3-2.8c-1.4,0-2.8,0.1-4,0.8c-3.7,2.5-7.4,7.3-7.4,14.6c-0.1,8.5,4,13,8.2,13c2.6,0,7.1-1.6,7.1-6.5v-0.6
		c0-0.2-0.1-0.5-0.1-0.8c0.1-1.4,0.2-3.1,2-3.1c1,0,1.9,0.7,2.1,2.4c0,2,0.4,5,1.2,7.9c0.2,0.9,0.4,1.7,0.7,2.6
		c0.4,1.3,0.7,2.6,0.7,3.3c0,1.4-0.9,2.7-2,2.7c-1.4,0-1.7-0.9-1.9-2.2l-0.1-0.7c-0.2-0.5-0.4-1.3-0.5-1.8
		C313.7,41.9,313.5,41.3,313.3,40.6z"/>
	<path class="st0" d="M320.5,24.9c0-0.7,0.1-3.6,0.2-4.2c0.3-1.7,1.1-3.4,3.4-3.4c1.6,0,2.9,1.4,2.9,3.1v0.4
		c-0.3,2.2-0.4,4.1-0.4,6.1V30c0,0.1,0.1,0.5,0.2,1.1c0.1,0.5,0.2,1.6,0.2,1.6c0,0,0.1,0.3,0.1,0.4c0.3,1,1,3.5,1,4
		c0.5,1.5,1.6,4,3,4c2,0,3-4.4,3.2-6.1c0.1-0.5,0.3-1.6,0.3-1.7v-6.6c0-0.1,0-0.4-0.1-0.8l-0.2-2.2c-0.1-0.4-0.2-0.8-0.4-1.3
		c-0.2-0.7-0.6-1.3-0.6-2.3c0-1.7,0.9-3,3-3c0.4,0,1.1,0,1.9,0.5c1.7,1.6,2,4,2.3,5.9c0,0.4,0.1,1,0.1,1.6c0.1,1,0.2,2.2,0.2,2.4
		v2.3c0,5.6-0.8,11.7-5.3,15.7c-1.1,1-2.8,1.6-4.4,1.6c-9.1,0-10.6-14.1-10.6-20.1V24.9z"/>
	<path class="st0" d="M353,44.9c-3.5,0-8-2-9.1-7.6v-0.7c0-0.2-0.1-0.5-0.1-0.7v-1.1c0-3.8,0.4-5.7,2.1-8.6c0.8-1.1,1.6-2.4,2.5-3.1
		c0.7-0.7,2.3-1.9,2.6-2.2c0.2-0.1,2.4-1.4,3.1-1.7c2-1,4.1-1.4,6.2-1.4h0.3c1.4-0.1,3.5-0.1,3.8,2.3c0.4-0.7,1-1.3,1.9-1.3
		c1.6,0,2.4,1.3,2.8,3.2v2.3c0,1.6,0,3.4-0.4,5.3c0,0.2-0.4,1.6-0.4,1.7V32c0,1.4,0.2,3,0.4,4.4c0.1,0.4,0.2,0.9,0.2,1.6
		c0.2,1.1,0.4,2.6,0.5,3c0,0.2,0.1,0.4,0.3,0.5c0.4,0.5,0.8,1,0.8,2.2c0,2-1,3.7-2.6,3.7c-2.1,0-2.5-1.7-3.1-3.7
		c0,0-0.1-0.2-0.1-0.3c-0.4-1.3-0.5-2.6-0.7-3.8C361,42.9,356.7,44.9,353,44.9z M363.5,23.5c-0.1,0.2-0.4,0.4-0.6,0.6
		c-1.1-0.1-1.6-0.1-2-0.1c-1.1,0-2.1,0.1-3,0.4c-3.1,0.9-6.1,2.8-8.2,6.2c-0.9,1.3-1,2.8-1,4.6c0,2,1.8,3,2.9,3.3h0.2l0.1,0.1h1
		c1.9,0,3.5-0.8,5.3-1.8v0.1c1.7-0.9,3.2-2.8,4.5-5.2v0.1c0.2-0.4,0.4-0.8,0.5-1.2C363.2,28.2,363.4,25.6,363.5,23.5z M362.8,31.5
		c0-0.1,0-0.1,0.1-0.2C362.8,31.4,362.8,31.5,362.8,31.5z"/>
	<path class="st0" d="M373.3,29.4v-9.4c0-1.6,1.9-2.4,2.9-2.4c1,0,1.9,0.5,2.4,1.2c0.3,0.4,0.5,0.8,0.5,0.8v0.9
		c2-1.5,4.6-2.7,7.1-2.7c1.6,0,2.7,0.4,4.1,1.1c2,1.1,4.5,4.9,4.5,7.1c0,1.5-1.2,2.8-2.9,2.8c-2.5,0-2.9-1.7-3.4-3.2v0.1
		c-0.1-0.1-0.3-0.4-0.5-0.6l-0.3-0.4c-0.6-0.5-0.9-0.8-1.5-0.8c-1.4,0-3.4,1.3-4.4,2.3l-1.3,1l-1.1,1c0,0.1-0.1,0.1-0.1,0.2v0.8
		l1,11.9c0,0.1,0.1,0.3,0.1,0.3c0.3,0.4,0.6,0.9,0.6,1.4v1.9c0,1.6-1.9,2.3-3,2.3c-2.2,0-3.2-1.9-3.4-3.8L373.6,31l0.1,0.2
		L373.3,29.4z"/>
	<path class="st0" d="M408.8,27c1.1,0,2,0.1,2.9,0.4c0-0.8,0-1.6,0.1-2.7c0.1-1.8,0.1-3.7,0.1-4.4v-0.3l0.7-8.2
		c0.1-1.6,1.1-5.5,4-5.5c1.8,0,2.8,1.3,2.8,2.9c0,0.2-0.1,0.7-0.1,0.7s-0.2,0.4-0.3,0.6l-0.1,0.1c-0.4,1.1-0.7,2.3-0.8,3.4l-0.4,6.8
		V21c0,0.1-0.1,0.7-0.1,1.2v8.2c0,0.5,0.1,3.2,0.2,3.7c0.2,1.3,0.9,5.5,1,6.1l0.1,0.5c0-0.1,0-0.1,0.1-0.1c0.7,0.4,1.3,1,1.3,2.3
		c0,1.6-1.7,3.6-3.5,3.6c-0.3,0-0.6,0-0.8-0.1h-0.4c-0.2,0-0.3,0.1-0.5,0.1c-0.2,0.1-0.5,0.1-0.7,0.1c-1.7,0.2-3.2,0.4-5.1,0.4
		c-4.1,0-8.1-0.6-10.6-4.1c-0.8-1.4-1.6-3.1-1.6-4.9C397.2,31.9,403,27,408.8,27z M409.6,41.1h1.3c0,0,0.2,0,0.5-0.1l1.6-0.2
		l-0.8-6.5l-0.8-0.8c-0.7-0.5-1.7-0.7-2.6-0.7c-2.8,0-5.7,2.1-5.7,4.8C403.1,40.8,406.8,41.1,409.6,41.1z M413,40.8h0.3
		c-0.1,0.1-0.2,0.2-0.2,0.5v0.2L413,40.8z M413.3,40.8c0.1,0,0.2-0.1,0.3-0.1C413.5,40.8,413.4,40.8,413.3,40.8z"/>
	<path class="st0" d="M427.4,16.6c1.9,0,3.2,1,3.2,2.3c0,1.6-1.2,2-2.7,2.3c-0.1,0-0.1,0-0.2,0.1c0,0-0.4,0.2-0.6,0.2
		c-0.4,0.1-0.7,0.2-1.4,0.2c-1.9,0-3.2-1-3.2-2.3C422.5,17.8,425.4,16.6,427.4,16.6z M423.7,26.5v-0.7c0-1.6,0.2-3.4,3.3-3.4
		c1.3,0,3,0.9,3,2v2.3c0.7,4.8,1.7,10.5,2.4,15.3c0,0,0,0.1,0.1,0.2v0.1v-0.1c0,0.1,0,0.1,0.1,0.1c0.4,0.3,0.7,0.5,0.7,1.2v1.3
		c0,1.3-1.7,2.2-3.1,2.2c-1.3,0-2.7-0.7-3.1-1.6l-0.7-2.6L423.7,26.5z"/>
	<path class="st0" d="M446.5,44.9c-3.5,0-8-2-9.1-7.6v-0.7c0-0.2-0.1-0.5-0.1-0.7v-1.1c0-3.8,0.4-5.7,2.1-8.6
		c0.8-1.1,1.6-2.4,2.5-3.1c0.7-0.7,2.3-1.9,2.6-2.2c0.2-0.1,2.4-1.4,3.1-1.7c2-1,4.1-1.4,6.2-1.4h0.3c1.4-0.1,3.5-0.1,3.8,2.3
		c0.4-0.7,1-1.3,1.9-1.3c1.6,0,2.4,1.3,2.8,3.2v2.3c0,1.6,0,3.4-0.4,5.3c0,0.2-0.4,1.6-0.4,1.7V32c0,1.4,0.2,3,0.4,4.4
		c0.1,0.4,0.2,0.9,0.2,1.6c0.2,1.1,0.4,2.6,0.5,3c0,0.2,0.1,0.4,0.3,0.5c0.4,0.5,0.8,1,0.8,2.2c0,2-1,3.7-2.6,3.7
		c-2.1,0-2.5-1.7-3.1-3.7c0,0-0.1-0.2-0.1-0.3c-0.4-1.3-0.5-2.6-0.7-3.8C454.5,42.9,450.2,44.9,446.5,44.9z M457,23.5
		c-0.1,0.2-0.4,0.4-0.6,0.6c-1.1-0.1-1.6-0.1-2-0.1c-1.1,0-2.1,0.1-3,0.4c-3.1,0.9-6.1,2.8-8.2,6.2c-0.9,1.3-1,2.8-1,4.6
		c0,2,1.8,3,2.9,3.3h0.2l0.1,0.1h1c1.9,0,3.5-0.8,5.3-1.8v0.1c1.7-0.9,3.2-2.8,4.5-5.2v0.1c0.2-0.4,0.4-0.8,0.5-1.2
		C456.7,28.2,456.8,25.6,457,23.5z M456.2,31.5c0-0.1,0-0.1,0.1-0.2C456.2,31.4,456.2,31.5,456.2,31.5z"/>
	<path class="st0" d="M467,28.3c0.1-0.9,0.1-1.8,0.1-2.8c0-0.3-0.1-0.7-0.2-0.9c-0.1-0.5-0.2-1-0.2-1.5c0-1.6,1.3-2.6,2.9-2.6
		c2.1,0,3.1,1.6,3.2,3v0.1c1.7-1.6,3.5-3,6.1-3c3.2,0,5.3,2.3,5.9,4.6l1.4,5.4l0.9,7.3v5.5c0.2,0.3,0.2,0.5,0.2,1.1
		c0,1.5-1.2,2.6-3,2.6c-1.1,0-3.2-1.2-3.2-2.4v-6.4l-1-7l0.1,0.1l-1.1-4.7c0,0-0.2-0.3-0.2-0.5h-0.1h-0.1c-1,0.5-1.9,1.3-2.6,2.2
		l-1.1,1.4l-0.5,0.5c-0.1,0.1-0.1,0.2-0.1,0.2c-0.3,0.6-0.5,1.2-0.8,1.9l-0.5,1.3L473,34l0.8,8.5c0,0,0.1,0.1,0.1,0.1
		c0.3,0.4,0.6,0.7,0.6,1.4c0,1.6-0.8,3.2-3.2,3.2c-1.7,0-2.8-1-3.2-2.5l-0.3-1.4c-0.1-0.2-0.1-0.5-0.1-0.7l-0.8-9.7V31
		C466.9,30.1,466.9,29.1,467,28.3z"/>
	<path class="st0" d="M490.6,42.9c0-1.4,0.7-2.8,3.2-2.8c1.9,0,3.7,1.3,3.7,3.1c0,1.3-0.7,1.8-1.6,2.5c-0.5,0.4-1.8,1.5-2.2,1.5
		c-1.2,0-3-1.1-3.2-2.5L490.6,42.9z M492.1,32.9c0-0.5-0.1-1.9-0.1-3.2c-0.1-1.3-0.1-2.9-0.1-3.5c0-1.1-0.1-2.1-0.1-3.1
		c0-1.4-0.1-2.9-0.1-4.3l-0.3-0.7l0.1-9c0-0.6,0.1-3.4,0.8-3.4l3.6-0.1c2,0.5,0.8,2.8,0.7,3.2c0,0.7-0.1,2.6,0,4.3
		c0,1.6,0.1,3.2,0.1,3.8v0.4l0.3,4.7v0.4c0,0.7,0.1,2.8,0.1,4.9c0.1,2,0.1,3.8,0.1,4.5c0.1,0.4,0.1,0.5,0.1,1c0,1.3-0.8,2.6-2.6,2.6
		C492.8,35.4,492.2,34.3,492.1,32.9L492.1,32.9z"/>
</g>
</svg>
