<svg xmlns="http://www.w3.org/2000/svg" xmlns:xlink="http://www.w3.org/1999/xlink" id="Layer_1" x="0" y="0" version="1.1" viewBox="0 0 700 150" xml:space="preserve" style="enable-background:new 0 0 700 150"><g><path d="M81.6,23.3l-0.4-3.7v-0.3c0-0.9,0.4-1.6,1.5-1.6c0.6,0,1.3,0.4,1.4,1.1l0.3,2.2l0.3,2.1v0l0.3,1.9l0.4,2.3l0-0.1 c0.9,3,1.8,5.9,2.8,8.8l0.2-0.9l1.4-4.1c0.2-0.5,1.2-2.1,1.9-2.2h0.5c1.7,0,2.1,1.5,2.5,2.8l0.1,0.5v0.2l0.3,2 c0,0.3,0.1,0.5,0.2,0.7l0.1-1c0,0,0-0.1,0-0.1l0.2-1.9l0.1-4l0.6-4.7l0.8-3.2c0-0.1,0.1-0.2,0.1-0.2l0.6-1.8l0.1-0.1 c0-0.2,0.1-0.4,0.3-0.5c0,0,0.1-0.2,0.2-0.4l0.2-0.3c0.3-0.4,0.6-0.6,1.2-0.6c0.9,0,1.4,0.6,1.4,1.5c0,0.2,0,0.5-0.2,0.7 c-0.1,0.2-0.4,0.7-0.4,0.8h0l-0.4,1.1L99,23.5l0-0.1l-0.6,4.9v0l-0.2,5c0,0.2-0.1,1-0.2,1.3l0,0.2c0,0.1-0.1,0.4-0.1,0.5 c-0.1,0.5-0.3,1.5-0.1,1.3c0,0.1,0,0.1,0,0.2c0,0.1-0.1,0.3-0.1,0.4l-0.1,0.2v0c-0.3,1.2-0.7,2.8-2.3,2.8c-0.9,0-1.7-1-2-1.7 l-0.3-0.5l0.1,0.1l-0.3-0.6c-0.1-0.1-0.1-0.3-0.1-0.4c-0.4-1.2-0.6-2.3-0.7-3.5c-0.3,0.7-0.5,1.5-0.7,2.1l0-0.1 c-0.3,1.1-0.6,2.2-0.8,3.3c-0.2,0.8-0.9,2.4-2.1,2.4c-0.7,0-1.4-0.4-1.8-1.1c-0.1-0.3-0.6-1.1-0.6-1.1l-3.3-10.5L81.6,23.3z"/><path d="M102.8,27.3L102.8,27.3c1-1.7,2-3,3.3-3.8c0.5-0.3,0.9-0.3,1.4-0.3c0.8,0,1.7,0.1,2.5,0.7c1.3,0.8,3.1,2.8,3.1,5.1 c0,2.6-1.5,3.9-3.1,4.8h0c-0.6,0.4-1.2,0.7-1.9,0.7h-2.7l0.2,0.5c0,0,0.1,0.1,0,0.1c1,2.1,2.7,2.7,4.3,2.7c1.3,0,2.7-0.6,3.9-1.5 c0.3-0.2,0.5-0.5,0.8-0.8l0.4-0.4c0.1-0.1,0.6-0.4,0.8-0.4h0.5c0.7,0,1.1,1,1.1,1.7c0,0.9-0.4,1.4-0.8,1.8l-0.3,0.3 c-0.8,0.9-1.7,1.5-2.5,1.9c-1.2,0.6-2.6,1-4,1c-4.1,0-7.8-3.2-7.8-9.5C102.1,30.1,102.4,29,102.8,27.3z M105,30.5v0.6v0.3l-1.1-0.5 c0.3-0.1,0.5-0.3,0.9-0.3H105z M105,30.5c0.5,0,0.3,0.2,0.5,0.2c0,0,0.1,0.1,0.1,0.1h2.3c0,0,0,0,0,0h0.1l0.8-0.4l0.4-0.1 c0,0-0.2,0-0.1,0l0.5-0.3c0.3-0.2,0.6-0.5,0.6-0.9c0-1.5-1.7-2.4-2.6-2.4h-0.3c-0.7,0.4-1.6,1.3-2,2.2 C105.2,29.4,105.1,30,105,30.5z M108,30.8L108,30.8c0.1,0,0.2,0,0.2,0L108,30.8z"/><path d="M130.6,25.1c0.1-1,0.8-1.9,1.9-1.9c1,0,1.8,0.8,1.8,1.7c0,0.3,0,0.5-0.1,0.8c-0.3,2.4-0.6,4.9-0.9,7.3v1.5l0.8-1.4 c0.5-0.7,1.3-1.9,2.6-1.9c0.4,0,0.5,0.1,0.7,0.1h-0.2c0.1,0,0.2,0,0.3,0c1.2,0.6,1.4,1.3,1.7,2.2l0.2,0.6l0.4,1.7l1.3-3L141,33 c0.4-1.9,0.7-3.5,1.1-5.4c0.2-0.6,0.2-0.9,0.2-1.4V26c-0.2-0.3-0.4-0.6-0.4-1c0-0.9,0.7-1.7,1.8-1.7c0.6,0,1,0.3,1.4,0.7 c0.6,0.5,0.7,1.3,0.7,1.8v0.3c-0.1,0.5-0.3,2-0.3,2.1l-1.2,5.5l-1.4,3.3l-0.3,0.6c-0.6,1-1.2,2.3-2.4,2.9c-0.4,0.1-0.7,0.1-1,0.1 h-0.1c-1.1,0-1.6-0.6-2-1.4c-0.4-1-0.6-1.9-0.9-3l-1.8,3.1c-0.5,0.9-1.4,1.3-2.3,1.3c-1.4,0-2.3-1.5-2.3-2.8v-5.4L130.6,25.1z"/><path d="M150.3,22.8c1.2,0,1.9,0.6,1.9,1.4c0,1-0.7,1.2-1.6,1.4c0,0-0.1,0-0.1,0c0,0-0.3,0.1-0.4,0.1c-0.2,0.1-0.4,0.1-0.8,0.1 c-1.1,0-1.9-0.6-1.9-1.4C147.4,23.5,149.1,22.8,150.3,22.8z M148.1,28.7v-0.4c0-0.9,0.1-2,2-2c0.8,0,1.8,0.5,1.8,1.2v1.4 c0.4,2.9,1,6.3,1.4,9.2c0,0,0,0.1,0,0.1v0v-0.1c0,0,0,0,0,0.1c0.2,0.2,0.4,0.3,0.4,0.7v0.8c0,0.8-1,1.3-1.8,1.3 c-0.8,0-1.6-0.4-1.9-0.9l-0.4-1.5L148.1,28.7z"/><path d="M156,26v-6.6l0.2-1.5c0.1-0.8,1-1.2,1.7-1.2c1.1,0,1.8,0.6,1.8,1.5c0,0.5,0,0.8-0.1,1.2c0,0.2,0,0.4-0.1,0.5v5.6 c0,0.4,0,1,0.1,1.5c0.1,1.3,0.2,2.9,0.3,3.2l0.3,2.1v7.6c0,0.5-0.9,1.3-1.3,1.3h-0.7c-0.5,0-1.4-0.8-1.4-1.3v-7.1L156,26z"/><path d="M160.8,26v-6.6l0.2-1.5c0.1-0.8,1-1.2,1.7-1.2c1.1,0,1.8,0.6,1.8,1.5c0,0.5,0,0.8-0.1,1.2c0,0.2,0,0.4-0.1,0.5v5.6 c0,0.4,0,1,0.1,1.5c0.1,1.3,0.2,2.9,0.3,3.2l0.3,2.1v7.6c0,0.5-0.9,1.3-1.3,1.3h-0.7c-0.5,0-1.4-0.8-1.4-1.3v-7.1L160.8,26z"/><path d="M182,24.6L182,24.6c0.9-0.6,1.9-1.2,3.1-1.2c1.1,0,3.5,0.5,3.5,2.5c0,1.2-0.7,1.9-1.6,1.9h-0.4c-0.5-0.3-0.9-0.5-1.4-0.5 c-0.6,0-1.2,0.3-1.7,0.8c-1.7,1.4-3.6,3.5-3.6,6.3c0,2.3,2.8,3,4.2,3h0.6c0.4,0,2.6-0.2,3.2-0.3c1-0.2,2.3-0.5,3.3-0.8h0.4 c0.8,0,1.5,0.8,1.5,1.9c0,0.7-0.4,1.6-1.2,1.9h0c-2.6,0.8-5.1,1.2-7.8,1.2h-1.2c-0.8,0-1.4-0.3-2.1-0.5c-2.4-1-4.4-2.8-4.4-6.3 C176.7,30,179.2,26.5,182,24.6z"/><path d="M195.3,37.8c-0.2-1.2-0.4-2.5-0.4-3.9c0-3.2,0.9-6.5,2.8-9v0c0.3-0.4,0.9-1,1.3-1.1h0.2c0.1,0,0.1,0,0.1,0l0.5-0.2 c0.5-0.2,1-0.4,1.7-0.4c2.8,0,5,3.6,5.5,6l0,0c0.3,0.9,0.3,1.8,0.3,2.6c0,1.4-0.1,2.6-0.6,3.9v0c-0.3,0.8-0.7,1.4-1.1,2.1 c-1.5,2.1-3.2,3.6-5.9,3.6c-2.1,0-3.6-1.5-4.4-3.4L195.3,37.8z M198.5,37.1l0.1,0.2c0.4,0.5,0.8,0.8,1.3,0.8c0.9,0,1.8-0.6,2.4-1.3 c0.6-0.7,1.2-1.7,1.5-2.4c0.3-0.8,0.4-1.7,0.4-2.5c0-0.6,0-1.2-0.2-1.9c-0.2-1-1.3-3.4-2.3-3.4c-0.4,0-0.6,0.1-0.9,0.3 c-0.9,0.5-1.3,1.5-1.8,2.6c-0.8,0.8-1,3.3-1,4.5c0,1,0.1,1.8,0.3,2.9L198.5,37.1z"/><path d="M208.9,29.8c0-0.5,0.1-1.1,0.1-1.7c0-0.2-0.1-0.4-0.1-0.5c-0.1-0.3-0.1-0.6-0.1-0.9c0-0.9,0.8-1.5,1.7-1.5 c1.3,0,1.9,0.9,1.9,1.8V27c1-1,2.1-1.8,3.7-1.8c1.9,0,3.2,1.4,3.5,2.7l0.8,3.2l0.5,4.4v3.3c0.1,0.2,0.1,0.3,0.1,0.6 c0,0.9-0.7,1.5-1.8,1.5c-0.7,0-1.9-0.7-1.9-1.4v-3.8l-0.6-4.2l0,0l-0.7-2.8c0,0-0.1-0.2-0.1-0.3h0h0c-0.6,0.3-1.1,0.8-1.6,1.3 l-0.7,0.8l-0.3,0.3c0,0.1,0,0.1,0,0.1c-0.2,0.4-0.3,0.7-0.5,1.2l-0.3,0.8l-0.1,0.2l0.5,5.1c0,0,0,0,0.1,0c0.2,0.2,0.4,0.4,0.4,0.8 c0,1-0.5,1.9-1.9,1.9c-1,0-1.7-0.6-1.9-1.5l-0.2-0.8c0-0.1-0.1-0.3-0.1-0.4l-0.5-5.8v-1.1C208.9,30.9,208.9,30.3,208.9,29.8z"/><path d="M226.4,37.9c0-0.1,0-0.4,0-0.6c0-0.3,0.1-0.5,0.1-0.4v-7.3c0-0.1,0-0.6-0.1-1.1c0-0.3,0-0.5,0-0.7l-0.2,0.1 c-0.2,0.1-0.4,0.1-0.3,0.1l-0.4,0.2c-0.3,0.2-0.8,0.4-1.3,0.4c-1,0-1.6-0.6-1.6-1.6v-0.5c0.2-0.5,0.8-1.1,1.3-1.3 c0.8-0.3,1.7-0.8,2.5-1.1v-4.7c0-0.2,0-0.3,0-0.4c0-1,0.1-2.3,1.8-2.3c0.8,0,1.5,0.5,1.7,1.3v0.5c0,0.5,0,0.9-0.1,1.5 c0,1.2-0.4,2.2-0.4,3.3c0.3-0.1,0.8-0.2,1.1-0.3l1.2-0.4h0c0.6-0.2,1.3-0.3,1.9-0.3c0.9,0,1.7,0.6,1.7,1.6c0,1.5-1.3,1.7-2.4,1.8 h-0.3l-0.2,0l0.2,0l-2.8,0.9c0,0.2,0,0.6,0.1,1.1c0,0.4,0,1.1,0,1.2v8.1c-0.1,0.6-0.1,0.9-0.1,1.4c0,0,0.1,0.2,0.1,0.3 c0,0.2,0.1,0.5,0.1,0.8c0,0.9-0.6,1.7-1.7,1.7c-1.8,0-1.9-1.7-1.9-2.7V37.9z"/><path d="M239.4,22.8c1.2,0,1.9,0.6,1.9,1.4c0,1-0.7,1.2-1.6,1.4c0,0-0.1,0-0.1,0c0,0-0.3,0.1-0.4,0.1c-0.2,0.1-0.4,0.1-0.8,0.1 c-1.1,0-1.9-0.6-1.9-1.4C236.5,23.5,238.2,22.8,239.4,22.8z M237.2,28.7v-0.4c0-0.9,0.1-2,2-2c0.8,0,1.8,0.5,1.8,1.2v1.4 c0.4,2.9,1,6.3,1.4,9.2c0,0,0,0.1,0,0.1v0v-0.1c0,0,0,0,0,0.1c0.2,0.2,0.4,0.3,0.4,0.7v0.8c0,0.8-1,1.3-1.8,1.3 c-0.8,0-1.6-0.4-1.9-0.9l-0.4-1.5L237.2,28.7z"/><path d="M245.4,29.8c0-0.5,0.1-1.1,0.1-1.7c0-0.2-0.1-0.4-0.1-0.5c-0.1-0.3-0.1-0.6-0.1-0.9c0-0.9,0.8-1.5,1.7-1.5 c1.3,0,1.9,0.9,1.9,1.8V27c1-1,2.1-1.8,3.7-1.8c1.9,0,3.2,1.4,3.5,2.7l0.8,3.2l0.5,4.4v3.3c0.1,0.2,0.1,0.3,0.1,0.6 c0,0.9-0.7,1.5-1.8,1.5c-0.7,0-1.9-0.7-1.9-1.4v-3.8l-0.6-4.2l0,0l-0.7-2.8c0,0-0.1-0.2-0.1-0.3h0h0c-0.6,0.3-1.1,0.8-1.6,1.3 l-0.7,0.8l-0.3,0.3c0,0.1,0,0.1,0,0.1c-0.2,0.4-0.3,0.7-0.5,1.2l-0.3,0.8l-0.1,0.2l0.5,5.1c0,0,0,0,0.1,0c0.2,0.2,0.4,0.4,0.4,0.8 c0,1-0.5,1.9-1.9,1.9c-1,0-1.7-0.6-1.9-1.5l-0.2-0.8c0-0.1-0.1-0.3-0.1-0.4l-0.5-5.8v-1.1C245.4,30.9,245.4,30.3,245.4,29.8z"/><path d="M259.1,27.8c0-0.4,0.1-2.2,0.1-2.5c0.2-1,0.6-2.1,2-2.1c1,0,1.7,0.8,1.7,1.9v0.3c-0.2,1.3-0.3,2.4-0.3,3.6v1.8 c0,0.1,0,0.3,0.1,0.7c0,0.3,0.1,1,0.1,0.9c0,0,0,0.2,0,0.3c0.2,0.6,0.6,2.1,0.6,2.4c0.3,0.9,0.9,2.4,1.8,2.4c1.2,0,1.8-2.6,1.9-3.7 c0.1-0.3,0.2-0.9,0.2-1v-4c0,0,0-0.2,0-0.5l-0.1-1.3c0-0.2-0.1-0.5-0.2-0.8c-0.1-0.4-0.4-0.8-0.4-1.4c0-1,0.5-1.8,1.8-1.8 c0.2,0,0.6,0,1.1,0.3c1,0.9,1.2,2.4,1.4,3.6c0,0.3,0,0.6,0.1,1c0,0.6,0.1,1.3,0.1,1.4v1.4c0,3.3-0.5,7-3.2,9.4 c-0.7,0.6-1.7,1-2.6,1c-5.4,0-6.3-8.5-6.3-12.1V27.8z"/><path d="M273.7,27.3L273.7,27.3c1-1.7,2-3,3.3-3.8c0.5-0.3,0.9-0.3,1.4-0.3c0.8,0,1.7,0.1,2.5,0.7c1.3,0.8,3.1,2.8,3.1,5.1 c0,2.6-1.5,3.9-3.1,4.8h0c-0.6,0.4-1.2,0.7-1.9,0.7h-2.7l0.2,0.5c0,0,0.1,0.1,0,0.1c1,2.1,2.7,2.7,4.3,2.7c1.3,0,2.7-0.6,3.9-1.5 c0.3-0.2,0.5-0.5,0.8-0.8l0.4-0.4c0.1-0.1,0.6-0.4,0.8-0.4h0.5c0.7,0,1.1,1,1.1,1.7c0,0.9-0.4,1.4-0.8,1.8l-0.3,0.3 c-0.8,0.9-1.7,1.5-2.5,1.9c-1.2,0.6-2.6,1-4,1c-4.1,0-7.8-3.2-7.8-9.5C273,30.1,273.3,29,273.7,27.3z M275.9,30.5v0.6v0.3l-1.1-0.5 c0.3-0.1,0.5-0.3,0.9-0.3H275.9z M275.9,30.5c0.5,0,0.3,0.2,0.5,0.2c0,0,0.1,0.1,0.1,0.1h2.3c0,0,0,0,0,0h0.1l0.8-0.4l0.4-0.1 c0,0-0.2,0-0.1,0l0.5-0.3c0.3-0.2,0.6-0.5,0.6-0.9c0-1.5-1.7-2.4-2.6-2.4h-0.3c-0.7,0.4-1.6,1.3-2,2.2 C276.1,29.4,276,30,275.9,30.5z M279,30.8L279,30.8c0.1,0,0.2,0,0.2,0L279,30.8z"/><path d="M304.5,37.9c0-0.1,0-0.4,0-0.6c0-0.3,0.1-0.5,0.1-0.4v-7.3c0-0.1,0-0.6-0.1-1.1c0-0.3,0-0.5,0-0.7l-0.2,0.1 c-0.2,0.1-0.4,0.1-0.3,0.1l-0.4,0.2c-0.3,0.2-0.8,0.4-1.3,0.4c-1,0-1.6-0.6-1.6-1.6v-0.5c0.2-0.5,0.8-1.1,1.3-1.3 c0.8-0.3,1.7-0.8,2.5-1.1v-4.7c0-0.2,0-0.3,0-0.4c0-1,0.1-2.3,1.8-2.3c0.8,0,1.5,0.5,1.7,1.3v0.5c0,0.5,0,0.9-0.1,1.5 c0,1.2-0.4,2.2-0.4,3.3c0.3-0.1,0.8-0.2,1.1-0.3l1.2-0.4h0c0.6-0.2,1.3-0.3,1.9-0.3c0.9,0,1.7,0.6,1.7,1.6c0,1.5-1.3,1.7-2.4,1.8 h-0.3l-0.2,0l0.2,0l-2.8,0.9c0,0.2,0,0.6,0.1,1.1c0,0.4,0,1.1,0,1.2v8.1c-0.1,0.6-0.1,0.9-0.1,1.4c0,0,0.1,0.2,0.1,0.3 c0,0.2,0.1,0.5,0.1,0.8c0,0.9-0.6,1.7-1.7,1.7c-1.8,0-1.9-1.7-1.9-2.7V37.9z"/><path d="M315.2,37.8c-0.2-1.2-0.4-2.5-0.4-3.9c0-3.2,0.9-6.5,2.8-9v0c0.3-0.4,0.9-1,1.3-1.1h0.2c0.1,0,0.1,0,0.1,0l0.5-0.2 c0.5-0.2,1-0.4,1.7-0.4c2.8,0,5,3.6,5.5,6l0,0c0.3,0.9,0.3,1.8,0.3,2.6c0,1.4-0.1,2.6-0.6,3.9v0c-0.3,0.8-0.7,1.4-1.1,2.1 c-1.5,2.1-3.2,3.6-5.9,3.6c-2.1,0-3.6-1.5-4.4-3.4L315.2,37.8z M318.4,37.1l0.1,0.2c0.4,0.5,0.8,0.8,1.3,0.8c0.9,0,1.8-0.6,2.4-1.3 c0.6-0.7,1.2-1.7,1.5-2.4c0.3-0.8,0.4-1.7,0.4-2.5c0-0.6,0-1.2-0.2-1.9c-0.2-1-1.3-3.4-2.3-3.4c-0.4,0-0.6,0.1-0.9,0.3 c-0.9,0.5-1.3,1.5-1.8,2.6c-0.8,0.8-1,3.3-1,4.5c0,1,0.1,1.8,0.3,2.9L318.4,37.1z"/><path d="M345.4,38.5c-0.3-0.5-0.5-0.9-0.6-1.3v0c-0.1-0.3-0.3-0.6-0.3-0.7l-1.3-5.2c-0.5,0-0.9,0.1-1.3,0.2l0.1,0 c-0.4,0.2-0.4,0.2-0.8,0.2c-1,0-1.8-0.6-1.8-1.7c0-0.9,0.6-1.5,1.5-1.8c0.1,0,0.6-0.1,1.1-0.1l0.9-0.1l0.1-4.4 c0-0.7,0.2-1.4,0.4-2.2c0,0,0.1-0.4,0.1-0.8c0.4-1.2,1-2.3,1.8-3.2c0.6-0.5,1.4-0.8,2.3-0.8c0.4,0,0.9,0,1.5,0.4l0-0.1l1,0.6 l0.5,0.4c0.9,0.7,2.3,2.6,2.6,3.7c0,0,0,0.3,0,0.6v0.1c0,0.9-0.8,1.6-1.8,1.6c-0.8,0-1-0.3-1.4-0.6c-0.3-0.3-0.4-0.7-0.4-1 c-0.5-1-1-1.7-2.1-2.3c-0.1,0.1-0.1,0.5-0.2,0.6c-0.8,2.1-0.9,4.2-0.9,6.3v0.7c1.4-0.2,2.8-0.4,4.4-0.4h1.1 c0.8,0.1,1.5,0.8,1.5,1.6c0,0.8-0.6,1.4-1.5,1.6c-1.4,0-3,0.2-4.3,0.4c-0.3,0-1-0.3-1.1-0.4v0.3c0,0.1,0.5,2.3,0.7,3 c0.1,0.4,0.7,2.4,0.9,2.9c0,0,0,0.1,0,0.1l0.4,0.7l0.6,1c0.5,0.4,0.7,0.7,0.7,1.4c0,1-0.7,1.6-1.8,1.6c-0.6,0-1.5-0.4-1.8-1 L345.4,38.5z M341.9,31.5L341.9,31.5C341.9,31.5,341.9,31.5,341.9,31.5z M343.2,31.2l-0.1-0.4C343.1,30.9,343.1,31.1,343.2,31.2z M343.5,31.3c0.1,0,0.3,0,0.3,0H343.5z"/><path d="M355.9,27.3L355.9,27.3c1-1.7,2-3,3.3-3.8c0.5-0.3,0.9-0.3,1.4-0.3c0.8,0,1.7,0.1,2.5,0.7c1.3,0.8,3.1,2.8,3.1,5.1 c0,2.6-1.5,3.9-3.1,4.8h0c-0.6,0.4-1.2,0.7-1.9,0.7h-2.7l0.2,0.5c0,0,0.1,0.1,0,0.1c1,2.1,2.7,2.7,4.3,2.7c1.3,0,2.7-0.6,3.9-1.5 c0.3-0.2,0.5-0.5,0.8-0.8l0.4-0.4c0.1-0.1,0.6-0.4,0.8-0.4h0.5c0.7,0,1.1,1,1.1,1.7c0,0.9-0.4,1.4-0.8,1.8l-0.3,0.3 c-0.8,0.9-1.7,1.5-2.5,1.9c-1.2,0.6-2.6,1-4,1c-4.1,0-7.8-3.2-7.8-9.5C355.1,30.1,355.4,29,355.9,27.3z M358.1,30.5v0.6v0.3 l-1.1-0.5c0.3-0.1,0.5-0.3,0.9-0.3H358.1z M358.1,30.5c0.5,0,0.3,0.2,0.5,0.2c0,0,0.1,0.1,0.1,0.1h2.3c0,0,0,0,0,0h0.1l0.8-0.4 l0.4-0.1c0,0-0.2,0-0.1,0l0.5-0.3c0.3-0.2,0.6-0.5,0.6-0.9c0-1.5-1.7-2.4-2.6-2.4h-0.3c-0.7,0.4-1.6,1.3-2,2.2 C358.2,29.4,358.1,30,358.1,30.5z M361.1,30.8L361.1,30.8c0.1,0,0.2,0,0.2,0L361.1,30.8z"/><path d="M377.6,39.8c-2.1,0-4.8-1.2-5.5-4.6v-0.4c0-0.1,0-0.3,0-0.4v-0.7c0-2.3,0.3-3.4,1.3-5.1c0.5-0.7,0.9-1.4,1.5-1.9 c0.4-0.4,1.4-1.2,1.6-1.3c0.1,0,1.4-0.8,1.8-1c1.2-0.6,2.5-0.9,3.7-0.9h0.2c0.9,0,2.1-0.1,2.3,1.4c0.3-0.4,0.6-0.8,1.2-0.8 c0.9,0,1.4,0.8,1.7,1.9v1.4c0,0.9,0,2-0.3,3.2c0,0.1-0.2,1-0.2,1v0.4c0,0.8,0.1,1.8,0.2,2.7c0,0.3,0.1,0.5,0.1,0.9 c0.1,0.7,0.3,1.6,0.3,1.8c0,0.1,0.1,0.2,0.2,0.3c0.3,0.3,0.5,0.6,0.5,1.3c0,1.2-0.6,2.2-1.6,2.2c-1.3,0-1.5-1-1.9-2.2 c0,0,0-0.1,0-0.2c-0.2-0.8-0.3-1.5-0.4-2.3C382.4,38.6,379.8,39.8,377.6,39.8z M383.9,27c-0.1,0.1-0.2,0.3-0.4,0.4 c-0.6-0.1-0.9-0.1-1.2-0.1c-0.6,0-1.3,0.1-1.8,0.2c-1.8,0.5-3.6,1.7-4.9,3.7c-0.5,0.8-0.6,1.7-0.6,2.7c0,1.2,1.1,1.8,1.8,2h0.1l0,0 h0.6c1.1,0,2.1-0.5,3.2-1.1v0c1-0.5,1.9-1.7,2.7-3.1v0c0.1-0.3,0.2-0.5,0.3-0.7C383.8,29.8,383.8,28.2,383.9,27z M383.5,31.8 c0,0,0-0.1,0-0.1C383.5,31.7,383.5,31.7,383.5,31.8z"/><path d="M389.8,30.5v-5.6c0-0.9,1.1-1.4,1.8-1.4c0.6,0,1.2,0.3,1.4,0.7c0.2,0.2,0.3,0.5,0.3,0.5v0.5c1.2-0.9,2.7-1.6,4.3-1.6 c0.9,0,1.6,0.2,2.4,0.7c1.2,0.7,2.7,2.9,2.7,4.2c0,0.9-0.7,1.7-1.8,1.7c-1.5,0-1.7-1-2-1.9v0c0-0.1-0.2-0.3-0.3-0.4l-0.2-0.3 c-0.4-0.3-0.5-0.5-0.9-0.5c-0.9,0-2.1,0.8-2.6,1.4l-0.8,0.6l-0.6,0.6c0,0,0,0.1-0.1,0.1v0.5l0.6,7.2c0,0,0.1,0.2,0.1,0.2 c0.2,0.3,0.4,0.5,0.4,0.9v1.2c0,1-1.2,1.4-1.8,1.4c-1.3,0-1.9-1.2-2.1-2.3l-0.6-7.3l0,0.1L389.8,30.5z"/><path d="M404,26v-6.6l0.2-1.5c0.1-0.8,1-1.2,1.7-1.2c1.1,0,1.8,0.6,1.8,1.5c0,0.5,0,0.8-0.1,1.2c0,0.2,0,0.4-0.1,0.5v5.6 c0,0.4,0,1,0.1,1.5c0.1,1.3,0.2,2.9,0.3,3.2l0.3,2.1v7.6c0,0.5-0.9,1.3-1.3,1.3H406c-0.5,0-1.4-0.8-1.4-1.3v-7.1L404,26z"/><path d="M409.7,27.3L409.7,27.3c1-1.7,2-3,3.3-3.8c0.5-0.3,0.9-0.3,1.4-0.3c0.8,0,1.7,0.1,2.5,0.7c1.3,0.8,3.1,2.8,3.1,5.1 c0,2.6-1.5,3.9-3.1,4.8h0c-0.6,0.4-1.2,0.7-1.9,0.7h-2.7l0.2,0.5c0,0,0.1,0.1,0,0.1c1,2.1,2.7,2.7,4.3,2.7c1.3,0,2.7-0.6,3.9-1.5 c0.3-0.2,0.5-0.5,0.8-0.8l0.4-0.4c0.1-0.1,0.6-0.4,0.8-0.4h0.5c0.7,0,1.1,1,1.1,1.7c0,0.9-0.4,1.4-0.8,1.8l-0.3,0.3 c-0.8,0.9-1.7,1.5-2.5,1.9c-1.2,0.6-2.6,1-4,1c-4.1,0-7.8-3.2-7.8-9.5C409,30.1,409.3,29,409.7,27.3z M411.9,30.5v0.6v0.3l-1.1-0.5 c0.3-0.1,0.5-0.3,0.9-0.3H411.9z M411.9,30.5c0.5,0,0.3,0.2,0.5,0.2c0,0,0.1,0.1,0.1,0.1h2.3c0,0,0,0,0,0h0.1l0.8-0.4l0.4-0.1 c0,0-0.2,0-0.1,0l0.5-0.3c0.3-0.2,0.6-0.5,0.6-0.9c0-1.5-1.7-2.4-2.6-2.4h-0.3c-0.7,0.4-1.6,1.3-2,2.2 C412.1,29.4,412,30,411.9,30.5z M415,30.8L415,30.8c0.1,0,0.2,0,0.2,0L415,30.8z"/><path d="M428,36.3c0.6,0,1.2,0.2,1.6,0.8l-0.1-0.1l0.2,0.2c0,0.1,0,0.1,0,0.1c0.9,0.3,2.4,0.3,3.4,0.3h1.1c0.1,0,0.4,0,0.6,0h0.4 c0.6,0,1.3-0.1,2.1-0.3l-0.5-0.3l-0.7-0.4c0,0-0.6-0.3-1-0.5h0l-1.1-0.5c-2.8-1.4-6.3-3.2-7.5-6.2c-0.1-0.2-0.3-0.8-0.3-0.9v-0.2 c0-1.9,1.7-3.8,3.7-4.3h0l2.6-0.6c0.4-0.1,0.9-0.1,1.1-0.1c1.3,0,3.6,0.9,3.6,2.4c0,1.1-0.8,1.8-1.9,1.8c-0.5,0-0.9-0.2-1.2-0.4h0 c-0.3-0.1-0.5-0.2-0.7-0.2H433l-1.8,0.4c-0.5,0.1-1.1,0.4-1.1,0.9c0,0.3,0.7,1.2,1,1.4l0,0l0.5,0.3c0.3,0.2,0.6,0.4,0.6,0.4 l3.9,2.2h0l0.6,0.3c1.2,0.5,2.4,1.1,3.6,1.8c1.1,0.8,1.8,1.5,1.8,2.9c0,2.2-3.9,3-5.6,3.3c-0.4,0.1-1.8,0.2-1.9,0.2h-1.3 c-1.9,0-5.3-0.1-6.9-1.5c-0.4-0.4-0.4-1.1-0.4-1.4v-0.1C426,37.1,426.9,36.3,428,36.3z"/><path d="M445.9,36.3c0.6,0,1.2,0.2,1.6,0.8l-0.1-0.1l0.2,0.2c0,0.1,0,0.1,0,0.1c0.9,0.3,2.4,0.3,3.4,0.3h1.1c0.1,0,0.4,0,0.6,0h0.4 c0.6,0,1.3-0.1,2.1-0.3l-0.5-0.3l-0.7-0.4c0,0-0.6-0.3-1-0.5h0l-1.1-0.5c-2.8-1.4-6.3-3.2-7.5-6.2c-0.1-0.2-0.3-0.8-0.3-0.9v-0.2 c0-1.9,1.7-3.8,3.7-4.3h0l2.6-0.6c0.4-0.1,0.9-0.1,1.1-0.1c1.3,0,3.6,0.9,3.6,2.4c0,1.1-0.8,1.8-1.9,1.8c-0.5,0-0.9-0.2-1.2-0.4h0 c-0.3-0.1-0.5-0.2-0.7-0.2h-0.4l-1.8,0.4c-0.5,0.1-1.1,0.4-1.1,0.9c0,0.3,0.7,1.2,1,1.4l0,0l0.5,0.3c0.3,0.2,0.6,0.4,0.6,0.4 l3.9,2.2h0l0.6,0.3c1.2,0.5,2.4,1.1,3.6,1.8c1.1,0.8,1.8,1.5,1.8,2.9c0,2.2-3.9,3-5.6,3.3c-0.4,0.1-1.8,0.2-1.9,0.2h-1.3 c-1.9,0-5.3-0.1-6.9-1.5c-0.4-0.4-0.4-1.1-0.4-1.4v-0.1C443.9,37.1,444.8,36.3,445.9,36.3z"/><path d="M461.5,26v-6.6l0.2-1.5c0.1-0.8,1-1.2,1.7-1.2c1.1,0,1.8,0.6,1.8,1.5c0,0.5,0,0.8-0.1,1.2c0,0.2,0,0.4-0.1,0.5v5.6 c0,0.4,0,1,0.1,1.5c0.1,1.3,0.2,2.9,0.3,3.2l0.3,2.1v7.6c0,0.5-0.9,1.3-1.3,1.3h-0.7c-0.5,0-1.4-0.8-1.4-1.3v-7.1L461.5,26z"/><path d="M470.4,50.3l0.8-4.7l2.4-8.9c-0.3-0.2-0.7-0.6-0.9-0.9c-0.3-0.3-1-1.2-1.2-1.5c-0.6-0.9-1.3-1.9-1.9-2.9l-1.4-3 c-0.1-0.4-0.3-0.9-0.5-1.3c-0.1-0.4-0.4-0.9-0.5-1.2c0-0.2,0-0.2,0-0.6c0-1.1,0.5-1.7,1.6-1.7c0.3,0,0.6,0,1,0.2 c0.2,0.3,0.5,0.6,0.5,0.6l2,4.9l0-0.1l1.9,3l0,0l0.5,0.6l0.2,0.3l2.9-8.7c0.3-0.8,1-1.2,1.7-1.2c0.9,0,1.5,0.8,1.5,1.7 c0,0.5,0,0.6,0,0.7L476.4,39v0l-1,4.1v0.3l-0.9,3l0-0.1l-0.9,5.7c-0.1,0.9-0.9,1.5-1.7,1.5c-1,0-1.8-0.6-1.8-1.7 C470.2,51.2,470.2,50.7,470.4,50.3z"/><path d="M490.6,30.5v-5.6c0-0.9,1.1-1.4,1.8-1.4c0.6,0,1.2,0.3,1.4,0.7c0.2,0.2,0.3,0.5,0.3,0.5v0.5c1.2-0.9,2.7-1.6,4.3-1.6 c0.9,0,1.6,0.2,2.4,0.7c1.2,0.7,2.7,2.9,2.7,4.2c0,0.9-0.7,1.7-1.8,1.7c-1.5,0-1.7-1-2-1.9v0c0-0.1-0.2-0.3-0.3-0.4l-0.2-0.3 c-0.4-0.3-0.5-0.5-0.9-0.5c-0.9,0-2.1,0.8-2.6,1.4l-0.8,0.6l-0.6,0.6c0,0,0,0.1-0.1,0.1v0.5l0.6,7.2c0,0,0.1,0.2,0.1,0.2 c0.2,0.3,0.4,0.5,0.4,0.9v1.2c0,1-1.2,1.4-1.8,1.4c-1.3,0-1.9-1.2-2.1-2.3l-0.6-7.3l0,0.1L490.6,30.5z"/><path d="M505.8,27.3L505.8,27.3c1-1.7,2-3,3.3-3.8c0.5-0.3,0.9-0.3,1.4-0.3c0.8,0,1.7,0.1,2.5,0.7c1.3,0.8,3.1,2.8,3.1,5.1 c0,2.6-1.5,3.9-3.1,4.8h0c-0.6,0.4-1.2,0.7-1.9,0.7h-2.7l0.2,0.5c0,0,0.1,0.1,0,0.1c1,2.1,2.7,2.7,4.3,2.7c1.3,0,2.7-0.6,3.9-1.5 c0.3-0.2,0.5-0.5,0.8-0.8l0.4-0.4c0.1-0.1,0.6-0.4,0.8-0.4h0.5c0.7,0,1.1,1,1.1,1.7c0,0.9-0.4,1.4-0.8,1.8l-0.3,0.3 c-0.8,0.9-1.7,1.5-2.5,1.9c-1.2,0.6-2.6,1-4,1c-4.1,0-7.8-3.2-7.8-9.5C505,30.1,505.3,29,505.8,27.3z M508,30.5v0.6v0.3l-1.1-0.5 c0.3-0.1,0.5-0.3,0.9-0.3H508z M508,30.5c0.5,0,0.3,0.2,0.5,0.2c0,0,0.1,0.1,0.1,0.1h2.3c0,0,0,0,0,0h0.1l0.8-0.4l0.4-0.1 c0,0-0.2,0-0.1,0l0.5-0.3c0.3-0.2,0.6-0.5,0.6-0.9c0-1.5-1.7-2.4-2.6-2.4h-0.3c-0.7,0.4-1.6,1.3-2,2.2C508.1,29.4,508,30,508,30.5z M511,30.8L511,30.8c0.1,0,0.2,0,0.2,0L511,30.8z"/><path d="M522.6,38.8c-0.4-0.4-0.6-0.8-0.6-1.4c0-0.5,0.3-1,0.6-1.4l0.3-8.8c0-0.8,1-1.5,1.8-1.5c1,0,1.5,0.6,1.7,1.3 c0.4-0.3,0.9-0.6,1.5-0.7c0.4-0.1,1.2-0.2,1.4-0.2h0.7c4.1,0,5.8,2.7,5.8,6.7c0,1.2-0.2,2.6-0.8,3.6v-0.1c-0.1,0.2-0.5,0.8-0.7,0.9 l0.1-0.1c-1.8,2.1-3.7,3.1-6.4,3.1c-0.4,0-1-0.1-1.4-0.1c-0.4,0-0.1,0-0.5,0v0.4l0.4,6.1c0,0.3,0.2,0.9,0.3,1.3l0.1,0.6l0.1,0.3 c0.1,0.3,0.3,0.6,0.3,0.9c0,0.9-0.8,1.8-1.7,1.8c-1.1,0-1.8-1-2-1.9l-0.3-1.2c-0.1-0.4-0.3-1.2-0.2-1.1l-0.5-6.3V38.8z M526.2,36.3 C526.2,36.3,526.2,36.4,526.2,36.3l0,0.5l-0.4-0.6C525.8,36.2,526,36.3,526.2,36.3z M526.2,36.4c0.6,0.3,1.3,0.3,2.1,0.3 c1.4,0,2.4-0.7,3.4-1.8c0.1-0.1,0.3-0.4,0.4-0.5c0.2-0.5,0.3-1.2,0.3-1.7c0-1-0.3-2.3-1-3c-0.3-0.1-0.8-0.1-1.2-0.1 c-1.3,0-2.4,0.5-3.2,1.5c-0.2,0.3-0.6,0.8-0.6,0.8l0,0.8V36.4z"/><path d="M537.7,37.8c-0.2-1.2-0.4-2.5-0.4-3.9c0-3.2,0.9-6.5,2.8-9v0c0.3-0.4,0.9-1,1.3-1.1h0.2c0.1,0,0.1,0,0.1,0l0.5-0.2 c0.5-0.2,1-0.4,1.7-0.4c2.8,0,5,3.6,5.5,6l0,0c0.3,0.9,0.3,1.8,0.3,2.6c0,1.4-0.1,2.6-0.6,3.9v0c-0.3,0.8-0.7,1.4-1.1,2.1 c-1.5,2.1-3.2,3.6-5.9,3.6c-2.1,0-3.6-1.5-4.4-3.4L537.7,37.8z M540.9,37.1l0.1,0.2c0.4,0.5,0.8,0.8,1.3,0.8c0.9,0,1.8-0.6,2.4-1.3 c0.6-0.7,1.2-1.7,1.5-2.4c0.3-0.8,0.4-1.7,0.4-2.5c0-0.6,0-1.2-0.2-1.9c-0.2-1-1.3-3.4-2.3-3.4c-0.4,0-0.6,0.1-0.9,0.3 c-0.9,0.5-1.3,1.5-1.8,2.6c-0.8,0.8-1,3.3-1,4.5c0,1,0.1,1.8,0.3,2.9L540.9,37.1z"/><path d="M551.2,30.5v-5.6c0-0.9,1.1-1.4,1.8-1.4c0.6,0,1.2,0.3,1.4,0.7c0.2,0.2,0.3,0.5,0.3,0.5v0.5c1.2-0.9,2.7-1.6,4.3-1.6 c0.9,0,1.6,0.2,2.4,0.7c1.2,0.7,2.7,2.9,2.7,4.2c0,0.9-0.7,1.7-1.8,1.7c-1.5,0-1.7-1-2-1.9v0c0-0.1-0.2-0.3-0.3-0.4l-0.2-0.3 c-0.4-0.3-0.5-0.5-0.9-0.5c-0.9,0-2.1,0.8-2.6,1.4l-0.8,0.6l-0.6,0.6c0,0,0,0.1-0.1,0.1v0.5l0.6,7.2c0,0,0.1,0.2,0.1,0.2 c0.2,0.3,0.4,0.5,0.4,0.9v1.2c0,1-1.2,1.4-1.8,1.4c-1.3,0-1.9-1.2-2.1-2.3l-0.6-7.3l0,0.1L551.2,30.5z"/><path d="M569.4,37.9c0-0.1,0-0.4,0-0.6c0-0.3,0.1-0.5,0.1-0.4v-7.3c0-0.1,0-0.6-0.1-1.1c0-0.3,0-0.5,0-0.7l-0.2,0.1 c-0.2,0.1-0.4,0.1-0.3,0.1l-0.4,0.2c-0.3,0.2-0.8,0.4-1.3,0.4c-1,0-1.6-0.6-1.6-1.6v-0.5c0.2-0.5,0.8-1.1,1.3-1.3 c0.8-0.3,1.7-0.8,2.5-1.1v-4.7c0-0.2,0-0.3,0-0.4c0-1,0.1-2.3,1.8-2.3c0.8,0,1.5,0.5,1.7,1.3v0.5c0,0.5,0,0.9-0.1,1.5 c0,1.2-0.4,2.2-0.4,3.3c0.3-0.1,0.8-0.2,1.1-0.3l1.2-0.4h0c0.6-0.2,1.3-0.3,1.9-0.3c0.9,0,1.7,0.6,1.7,1.6c0,1.5-1.3,1.7-2.4,1.8 h-0.3l-0.2,0l0.2,0l-2.8,0.9c0,0.2,0,0.6,0.1,1.1c0,0.4,0,1.1,0,1.2v8.1c-0.1,0.6-0.1,0.9-0.1,1.4c0,0,0.1,0.2,0.1,0.3 c0,0.2,0.1,0.5,0.1,0.8c0,0.9-0.6,1.7-1.7,1.7c-1.8,0-1.9-1.7-1.9-2.7V37.9z"/><path d="M590.8,37.8c-0.2-1.2-0.4-2.5-0.4-3.9c0-3.2,0.9-6.5,2.8-9v0c0.3-0.4,0.9-1,1.3-1.1h0.2c0.1,0,0.1,0,0.1,0l0.5-0.2 c0.5-0.2,1-0.4,1.7-0.4c2.8,0,5,3.6,5.5,6l0,0c0.3,0.9,0.3,1.8,0.3,2.6c0,1.4-0.1,2.6-0.6,3.9v0c-0.3,0.8-0.7,1.4-1.1,2.1 c-1.5,2.1-3.2,3.6-5.9,3.6c-2.1,0-3.6-1.5-4.4-3.4L590.8,37.8z M594,37.1l0.1,0.2c0.4,0.5,0.8,0.8,1.3,0.8c0.9,0,1.8-0.6,2.4-1.3 c0.6-0.7,1.2-1.7,1.5-2.4c0.3-0.8,0.4-1.7,0.4-2.5c0-0.6,0-1.2-0.2-1.9c-0.2-1-1.3-3.4-2.3-3.4c-0.4,0-0.6,0.1-0.9,0.3 c-0.9,0.5-1.3,1.5-1.8,2.6c-0.8,0.8-1,3.3-1,4.5c0,1,0.1,1.8,0.3,2.9L594,37.1z"/><path d="M604.4,29.8c0-0.5,0.1-1.1,0.1-1.7c0-0.2-0.1-0.4-0.1-0.5c-0.1-0.3-0.1-0.6-0.1-0.9c0-0.9,0.8-1.5,1.7-1.5 c1.3,0,1.9,0.9,1.9,1.8V27c1-1,2.1-1.8,3.7-1.8c1.9,0,3.2,1.4,3.5,2.7l0.8,3.2l0.5,4.4v3.3c0.1,0.2,0.1,0.3,0.1,0.6 c0,0.9-0.7,1.5-1.8,1.5c-0.7,0-1.9-0.7-1.9-1.4v-3.8l-0.6-4.2l0,0l-0.7-2.8c0,0-0.1-0.2-0.1-0.3h0h0c-0.6,0.3-1.1,0.8-1.6,1.3 l-0.7,0.8l-0.3,0.3c0,0.1,0,0.1,0,0.1c-0.2,0.4-0.3,0.7-0.5,1.2l-0.3,0.8l-0.1,0.2l0.5,5.1c0,0,0,0,0.1,0c0.2,0.2,0.4,0.4,0.4,0.8 c0,1-0.5,1.9-1.9,1.9c-1,0-1.7-0.6-1.9-1.5l-0.2-0.8c0-0.1-0.1-0.3-0.1-0.4l-0.5-5.8v-1.1C604.4,30.9,604.4,30.3,604.4,29.8z"/><path d="M44.3,72.8c-0.3-0.3-0.4-0.6-0.4-1.1c0-0.4,0.1-0.7,0.3-1v-0.5c0-0.6,0-2.2,0-3.8l0-3.6c-0.1-0.2-0.2-0.4-0.2-0.6v-0.8 c0-0.4,0.3-0.8,0.6-1c1-1,2.5-1,3.9-1h0.3c1.7,0,3.3,0.3,4.9,0.9l0.2,0.1l0.2,0.1h0c1.6,0.7,4.7,1.9,4.8,4.2 c0.1,0.4,0.2,0.7,0.2,1.1c0,2-1.2,4-2.7,5c-0.6,0.4-1.2,0.6-1.6,0.9l-1.1,0.6l-2.5,1.1L50,73.6c-0.6,0.2-1.2,0.3-1.8,0.3h-0.9 l0.4,6c0.1,0.7,0.2,1.3,0.3,1.9c0.1,0.3,0.1,0.4,0.1,0.6c0,1-0.3,1.9-1.5,1.9c-1,0-1.5-0.9-1.5-1.7c0,0,0-0.3,0-0.5 c0-0.3,0-0.5,0-0.6c0,0,0-0.2-0.1-0.5c0-0.2-0.1-0.3-0.1-0.6L44.3,72.8z M47.2,71.3c0-0.5,0.3-0.5,0.4-0.5h0.3l1.7-0.3c0,0,0,0,0,0 c0.4-0.1,0.9-0.3,1.4-0.5l1.7-0.8c0.6-0.4,1.4-0.8,2.1-1.2l-0.1,0.1c0.5-0.5,1.2-1.3,1.2-2.1c0-0.6-0.8-1.6-1.4-1.8l-3-1.3 c-0.8-0.3-1.9-0.4-2.8-0.4h-0.6c-0.3,0-0.7-0.2-0.8-0.4v7.5L47.2,71.3z"/><path d="M60.4,78.1c0-1.9,0-3.8,0-4.5v-0.3c0,0,0-0.4-0.1-0.7c0-0.4-0.1-0.8-0.1-1v-7.9l0.3-2.9c0.1-0.9,0.8-1.5,1.7-1.5 c1,0,1.7,0.7,1.7,1.5v0.3l-0.3,3.1v7c0,1.7,0.1,9.2,0.1,10.7c0.1,0.4,0.2,0.8,0.2,0.9c0,0.8-0.7,1.5-1.7,1.5 c-1.4,0-1.7-0.9-1.8-1.7V78.1z"/><path d="M67.6,78.1v-7.5c0.1-2.2,0.2-4.5,0.2-6.7v-1.1c0.3-0.8,1.2-1.5,1.9-1.5c1.1,0,1.6,0.9,2.1,1.5c0.1,0.2,0.3,0.4,0.3,0.5 l1.2,1.9l3,6.8v0l2.3,4.5c0.1-1.6,0.1-3.7,0.1-4.3v-4.9l-0.4-5.4v-1.2c0-0.8,0.9-1.3,1.6-1.3c1.3,0,1.6,0.9,1.6,1.8l0.4,5.7v5.8 c-0.1,1.2-0.1,2.4-0.1,3.6c0,0.7,0,1.5,0,2.2L81.6,81c-0.1,0.7-0.4,1.8-1.9,1.8c-1.2,0-1.7-1-2.1-1.8c-0.1-0.2-0.1-0.4-0.3-0.5 l-2.9-5.2c-0.1-0.4-0.2-0.5-0.3-0.6l-3.2-7.1c0,1.2-0.1,2.7-0.1,3.4v6.7c0.1,1.3,0.3,2.6,0.4,3.9l0,0c0.1,0.1,0.3,0.5,0.3,0.8 c0,1-0.5,1.9-1.7,1.9c-1.4,0-1.5-0.6-1.6-1.4l-0.1-0.5L67.6,78.1z M79.6,78.1L79.6,78.1C79.7,78.1,79.6,78.1,79.6,78.1L79.6,78.1z"/><path d="M84,64v-0.5c-0.2-0.3-0.2-0.6-0.2-0.9c0-1.4,1.9-1.9,2.6-1.9l5.5-0.8c0.1,0,0.4,0.4,0.7,0.6c0-0.3,0.2-0.7,0.6-0.7 c0.2,0,0.7,0,1.2-0.1c0.4,0,0.8-0.1,1-0.1c0.3-0.1,0.4-0.1,0.6-0.1c0.8,0,1.4,0.6,1.4,1.5c0,1-0.6,1.6-1.5,1.7l-4,0.2l-5,0.8v0.2 l-0.4,6l0.1,0c0.3,0,1-0.1,1.8-0.3c0.9-0.2,2-0.4,2.7-0.4h0.5c1.1,0,3.3,0.1,3.3,1.8c0,0.8-0.5,1.5-1.6,1.5 c-0.8-0.2-1.2-0.3-1.8-0.3c-1.5,0-4.9,0.1-4.9,0.1v8.3h0c0.9-0.3,2.2-0.6,2.6-0.7l2.9-0.4h0.4c0.1,0,0.3,0,0.3,0h3.4 c0.1,0,0.3,0,0.4,0c0.4,0,0.8,0.1,1.1,0.1h0.1c0.1,0,0.3-0.1,0.5-0.1c0.7,0,1.4,0.6,1.4,1.5c0,1.1-0.8,1.7-1.7,1.7 c-0.2,0-0.5,0-0.8-0.1c-0.3,0-0.5,0-0.5,0h-4.1c-0.2,0-2.3,0.4-3.1,0.5c-0.9,0.2-1.9,0.5-2.8,0.7L86.2,84c-0.3,0.1-0.6,0.2-0.9,0.2 c-0.7,0-1.8-0.5-1.8-1.5V71.5L84,64z"/><path d="M110.2,72.9h-2.4c-0.6,0-2.6,0.3-2.6,0.5l-1.4,9c0,1-0.4,1.9-1.4,1.9c-0.8,0-1.4-0.6-1.4-1.6c0-0.3,0-0.6,0-0.8l2.9-17.6 l0.2-0.7c0.4-1.6,1-4.4,3.1-4.4c1.5,0,2.4,2.5,2.8,3.6l2.3,7.3l0.1,0.1c0.2,0.2,0.4,0.5,0.4,1v0.2c0,0.1,0,0.1,0,0.1l2.4,8v0 l0.8,2.2c0.1,0.3,0.4,0.9,0.4,1.2c0,0.9-0.6,1.6-1.4,1.6c-0.9,0-1.3-0.8-1.6-1.4l-0.9-2.7L110.2,72.9z M105.2,70.3l0.4-0.1h0 c0,0,0.1,0,0.1,0l-0.1,0.9l-0.7-0.8H105.2z M105.8,70.2c0.9-0.3,1.4-0.4,3.5-0.4l0-0.1l-1.5-4.5l-0.3-1.1c-0.3-0.9,0.3-0.5-0.3-1 c-0.2,0.7-0.5,1.7-0.5,1.9L105.8,70.2z M109.2,69.7h0.9l-0.7,0.6c0,0-0.1-0.2-0.1-0.4L109.2,69.7z"/><path d="M118.2,72.8c-0.3-0.3-0.4-0.6-0.4-1.1c0-0.4,0.1-0.7,0.3-1v-0.5c0-0.6,0-2.2,0-3.8l0-3.6c-0.1-0.2-0.2-0.4-0.2-0.6v-0.8 c0-0.4,0.3-0.8,0.6-1c1-1,2.5-1,3.9-1h0.3c1.7,0,3.3,0.3,4.9,0.9l0.2,0.1l0.2,0.1h0c1.6,0.7,4.7,1.9,4.8,4.2 c0.1,0.4,0.2,0.7,0.2,1.1c0,2-1.2,4-2.7,5c-0.6,0.4-1.2,0.6-1.6,0.9l-1.1,0.6l-2.5,1.1l-0.9,0.2c-0.6,0.2-1.2,0.3-1.8,0.3h-0.9 l0.4,6c0.1,0.7,0.2,1.3,0.3,1.9c0.1,0.3,0.1,0.4,0.1,0.6c0,1-0.3,1.9-1.5,1.9c-1,0-1.5-0.9-1.5-1.7c0,0,0-0.3,0-0.5 c0-0.3,0-0.5,0-0.6c0,0,0-0.2-0.1-0.5c0-0.2-0.1-0.3-0.1-0.6L118.2,72.8z M121.1,71.3c0-0.5,0.3-0.5,0.4-0.5h0.3l1.7-0.3 c0,0,0,0,0,0c0.4-0.1,0.9-0.3,1.4-0.5l1.7-0.8c0.6-0.4,1.4-0.8,2.1-1.2l-0.1,0.1c0.5-0.5,1.2-1.3,1.2-2.1c0-0.6-0.8-1.6-1.4-1.8 l-3-1.3c-0.8-0.3-1.9-0.4-2.8-0.4h-0.6c-0.3,0-0.7-0.2-0.8-0.4v7.5L121.1,71.3z"/><path d="M134.6,72.8c-0.3-0.3-0.4-0.6-0.4-1.1c0-0.4,0.1-0.7,0.3-1v-0.5c0-0.6,0-2.2,0-3.8l0-3.6c-0.1-0.2-0.2-0.4-0.2-0.6v-0.8 c0-0.4,0.3-0.8,0.6-1c1-1,2.5-1,3.9-1h0.3c1.7,0,3.3,0.3,4.9,0.9l0.2,0.1l0.2,0.1h0c1.6,0.7,4.7,1.9,4.8,4.2 c0.1,0.4,0.2,0.7,0.2,1.1c0,2-1.2,4-2.7,5c-0.6,0.4-1.2,0.6-1.6,0.9l-1.1,0.6l-2.5,1.1l-0.9,0.2c-0.6,0.2-1.2,0.3-1.8,0.3h-0.9 l0.4,6c0.1,0.7,0.2,1.3,0.3,1.9c0.1,0.3,0.1,0.4,0.1,0.6c0,1-0.3,1.9-1.5,1.9c-1,0-1.5-0.9-1.5-1.7c0,0,0-0.3,0-0.5 c0-0.3,0-0.5,0-0.6c0,0,0-0.2-0.1-0.5c0-0.2-0.1-0.3-0.1-0.6L134.6,72.8z M137.5,71.3c0-0.5,0.3-0.5,0.4-0.5h0.3l1.7-0.3 c0,0,0,0,0,0c0.4-0.1,0.9-0.3,1.4-0.5l1.7-0.8c0.6-0.4,1.4-0.8,2.1-1.2l-0.1,0.1c0.5-0.5,1.2-1.3,1.2-2.1c0-0.6-0.8-1.6-1.4-1.8 l-3-1.3c-0.8-0.3-1.9-0.4-2.8-0.4h-0.6c-0.3,0-0.7-0.2-0.8-0.4v7.5L137.5,71.3z"/><path d="M150.6,79.2c0-1.6,0-3.2,0-3.8v-0.3c0-0.1,0-0.3,0.1-0.5l0,0.1c0-0.2,0.1-0.6,0.1-0.6v-0.3l0.1,0.1 c-0.1-0.1-0.3-0.4-0.3-0.5V61.7l0.1-1c0.1-0.7,0.9-1.3,1.5-1.3c0.9,0,1.6,0.7,1.6,1.6c0,0.4,0,0.7-0.3,1.2v10.2 c0,0.4-0.1,8-0.4,8.5c0.1,0,0.5-0.1,0.7-0.1l0,0l0.6-0.1l0.8-0.2c0.6-0.1,1.3-0.3,1.4-0.3l0.9-0.1c0.3,0,0.7-0.1,0.7-0.1h4.9 c0.3,0,0.6,0,0.9,0h0.4c0.9,0.2,1.4,0.9,1.4,1.6c0,1.3-1,1.4-1.9,1.6c-0.1,0-0.2,0-0.3,0c-0.2,0-0.5,0.1-0.9,0.1h-1.8 c-1.2,0-2.5,0-3,0l-5.2,1.1h-0.3c-0.7,0-1.6-0.5-1.9-1.4V79.2z"/><path d="M167.7,64v-0.5c-0.2-0.3-0.2-0.6-0.2-0.9c0-1.4,1.9-1.9,2.6-1.9l5.5-0.8c0.1,0,0.4,0.4,0.7,0.6c0-0.3,0.2-0.7,0.6-0.7 c0.2,0,0.7,0,1.2-0.1c0.4,0,0.8-0.1,1-0.1c0.3-0.1,0.4-0.1,0.6-0.1c0.8,0,1.4,0.6,1.4,1.5c0,1-0.6,1.6-1.5,1.7l-4,0.2l-5,0.8v0.2 l-0.4,6l0.1,0c0.3,0,1-0.1,1.8-0.3c0.9-0.2,2-0.4,2.7-0.4h0.5c1.1,0,3.3,0.1,3.3,1.8c0,0.8-0.5,1.5-1.6,1.5 c-0.8-0.2-1.2-0.3-1.8-0.3c-1.5,0-4.9,0.1-4.9,0.1v8.3h0c0.9-0.3,2.2-0.6,2.6-0.7l2.9-0.4h0.4c0.1,0,0.3,0,0.3,0h3.4 c0.1,0,0.3,0,0.4,0c0.4,0,0.8,0.1,1.1,0.1h0.1c0.1,0,0.3-0.1,0.5-0.1c0.7,0,1.4,0.6,1.4,1.5c0,1.1-0.8,1.7-1.7,1.7 c-0.2,0-0.5,0-0.8-0.1c-0.3,0-0.5,0-0.5,0h-4.1c-0.2,0-2.3,0.4-3.1,0.5c-0.9,0.2-1.9,0.5-2.8,0.7l-0.4,0.1 c-0.3,0.1-0.6,0.2-0.9,0.2c-0.7,0-1.8-0.5-1.8-1.5V71.5L167.7,64z"/><path d="M199.1,60.6c0.3-0.4,0.9-1.1,1.5-1.1c0.2,0,0.5,0,0.8,0.2c0.1,0,0.4,0,0.6,0.1c0,0,0-0.1-0.1-0.1c0.1,0,0.1,0,0.2,0 c0.1,0,0.3,0,0.4,0c2.8,0,4.9,2.1,6.6,4.2c1.9,2.5,3.7,6.2,3.7,9.5c0,5.5-4.5,10.8-9.5,10.8c-0.8,0-1.8-0.2-2.6-0.6 c-0.2,0-0.3-0.1-0.4-0.1c-0.6-0.3-1.5-0.9-2.1-1.5c-0.1-0.1-0.2-0.3-0.2-0.3c-0.5-0.6-0.9-1.1-1.2-1.8c-0.5-0.9-0.7-1.9-0.8-2.8 c-0.3-1.4-0.5-2.8-0.5-4.2C195.5,69.1,196.8,63.4,199.1,60.6z M199.2,77.4c0.1,0.5,0.3,0.8,0.6,1.1l0.2,0.2l0.6,1 c0.8,0.6,1.7,1.2,2.7,1.2c3.5,0,6.4-3.8,6.4-7.7c0-2.7-1.6-5.7-3.2-7.7c-1.1-1.4-2.3-2.6-3.9-2.6c-1.5,0-1.9,1.3-2.3,2.7l-0.1,0.3 c0,0.1,0,0.2,0,0.2c-0.1,0.3-0.4,0.6-0.5,0.8c0,0-0.1,0.1-0.1,0.1c-0.5,1.4-0.8,3.2-0.9,4.8c0,0.4,0,0.8,0,1.2 C198.5,74.6,198.9,76.1,199.2,77.4z M200.2,79.2c0,0.1,0,0.1,0,0.1L200.2,79.2z M200.5,79.8l-0.1-0.1 C200.5,79.8,200.5,79.8,200.5,79.8z M201,80.1l-0.5-0.4C200.7,79.9,201,80.1,201,80.1z"/><path d="M214.3,78.1v-7.5c0.1-2.2,0.2-4.5,0.2-6.7v-1.1c0.3-0.8,1.2-1.5,1.9-1.5c1.1,0,1.6,0.9,2.1,1.5c0.1,0.2,0.3,0.4,0.3,0.5 l1.2,1.9l3,6.8v0l2.3,4.5c0.1-1.6,0.1-3.7,0.1-4.3v-4.9l-0.4-5.4v-1.2c0-0.8,0.9-1.3,1.6-1.3c1.3,0,1.6,0.9,1.6,1.8l0.4,5.7v5.8 c-0.1,1.2-0.1,2.4-0.1,3.6c0,0.7,0,1.5,0,2.2l-0.3,2.6c-0.1,0.7-0.4,1.8-1.9,1.8c-1.2,0-1.7-1-2.1-1.8c-0.1-0.2-0.1-0.4-0.3-0.5 l-2.9-5.2c-0.1-0.4-0.2-0.5-0.3-0.6l-3.2-7.1c0,1.2-0.1,2.7-0.1,3.4v6.7c0.1,1.3,0.3,2.6,0.4,3.9l0,0c0.1,0.1,0.3,0.5,0.3,0.8 c0,1-0.5,1.9-1.7,1.9c-1.4,0-1.5-0.6-1.6-1.4l-0.1-0.5L214.3,78.1z M226.2,78.1L226.2,78.1C226.3,78.1,226.2,78.1,226.2,78.1 L226.2,78.1z"/><path d="M241.3,72.8c-0.3-0.3-0.4-0.6-0.4-1.1c0-0.4,0.1-0.7,0.3-1v-0.5c0-0.6,0-2.2,0-3.8l0-3.6c-0.1-0.2-0.2-0.4-0.2-0.6v-0.8 c0-0.4,0.3-0.8,0.6-1c1-1,2.5-1,3.9-1h0.3c1.7,0,3.3,0.3,4.9,0.9l0.2,0.1l0.2,0.1h0c1.6,0.7,4.7,1.9,4.8,4.2 c0.1,0.4,0.2,0.7,0.2,1.1c0,2-1.2,4-2.7,5c-0.6,0.4-1.2,0.6-1.6,0.9l-1.1,0.6l-2.5,1.1l-0.9,0.2c-0.6,0.2-1.2,0.3-1.8,0.3h-0.9 l0.4,6c0.1,0.7,0.2,1.3,0.3,1.9c0.1,0.3,0.1,0.4,0.1,0.6c0,1-0.3,1.9-1.5,1.9c-1,0-1.5-0.9-1.5-1.7c0,0,0-0.3,0-0.5 c0-0.3,0-0.5,0-0.6c0,0,0-0.2-0.1-0.5c0-0.2-0.1-0.3-0.1-0.6L241.3,72.8z M244.2,71.3c0-0.5,0.3-0.5,0.4-0.5h0.3l1.7-0.3 c0,0,0,0,0,0c0.4-0.1,0.9-0.3,1.4-0.5l1.7-0.8c0.6-0.4,1.4-0.8,2.1-1.2l-0.1,0.1c0.5-0.5,1.2-1.3,1.2-2.1c0-0.6-0.8-1.6-1.4-1.8 l-3-1.3c-0.8-0.3-1.9-0.4-2.8-0.4H245c-0.3,0-0.7-0.2-0.8-0.4v7.5L244.2,71.3z"/><path d="M257.5,78.1c0-1.9,0-3.8,0-4.5v-0.3c0,0,0-0.4-0.1-0.7c0-0.4-0.1-0.8-0.1-1v-7.9l0.3-2.9c0.1-0.9,0.8-1.5,1.7-1.5 c1,0,1.7,0.7,1.7,1.5v0.3l-0.3,3.1v7c0,1.7,0.1,9.2,0.1,10.7c0.1,0.4,0.2,0.8,0.2,0.9c0,0.8-0.7,1.5-1.7,1.5 c-1.4,0-1.7-0.9-1.8-1.7V78.1z"/><path d="M263.7,84.2c-0.7-0.3-1.3-0.9-1.3-1.8c0-0.4,0.2-0.9,0.4-1.2c0.1-0.1,0.3-0.5,0.2-0.4l5.4-7.3l4.4-6.3v0l2-3.5 c0.2-0.3,0.4-0.9,0.5-1.4c0,0.2-0.1,0.3-0.2,0.3h-6l-2.8,0.2h-0.3c-0.9,0-1.7-0.4-1.7-1.6c0-0.8,0.4-1.1,1-1.5 c0.6-0.1,4-0.3,4.7-0.3h4.7c1.2,0,2.6,0.3,3.3,1.5c0.3,0.4,0.4,0.9,0.4,1.3c0,0.9-0.4,1.9-0.7,2.6l-2.2,4l-4.8,6.8l-0.1,0.1 l-3.4,4.6l0,0l-0.1,0.3l2.3-0.5l4.1-0.5c0.1,0,0.3,0,0.6,0l1.2-0.1h1.2c2.3,0.1,4.9,0.5,7,1c0.8,0,1.6,0.4,1.6,1.7 c0,0.9-0.5,1.6-1.5,1.6c0,0-0.1,0-0.3,0h-0.3l-4.8-0.8h0c-0.7-0.1-1.7-0.1-2.3-0.1h-1.2c-0.1,0-0.4,0-0.7,0c-0.3,0-0.6,0-0.8,0 c-0.6,0.1-3.2,0.5-3.8,0.6c-0.2,0-2.4,0.5-3.2,0.8l-0.4,0.1l0,0c-0.4,0.1-0.7,0.1-1,0.1c-0.3,0-0.6,0-0.9,0L263.7,84.2z"/><path d="M287.8,84.2c-0.7-0.3-1.3-0.9-1.3-1.8c0-0.4,0.2-0.9,0.4-1.2c0.1-0.1,0.3-0.5,0.2-0.4l5.4-7.3l4.4-6.3v0l2-3.5 c0.2-0.3,0.4-0.9,0.5-1.4c0,0.2-0.1,0.3-0.2,0.3h-6l-2.8,0.2H290c-0.9,0-1.7-0.4-1.7-1.6c0-0.8,0.4-1.1,1-1.5 c0.6-0.1,4-0.3,4.7-0.3h4.7c1.2,0,2.6,0.3,3.3,1.5c0.3,0.4,0.4,0.9,0.4,1.3c0,0.9-0.4,1.9-0.7,2.6l-2.2,4l-4.8,6.8l-0.1,0.1 l-3.4,4.6l0,0l-0.1,0.3l2.3-0.5l4.1-0.5c0.1,0,0.3,0,0.6,0l1.2-0.1h1.2c2.3,0.1,4.9,0.5,7,1c0.8,0,1.6,0.4,1.6,1.7 c0,0.9-0.5,1.6-1.5,1.6c0,0-0.1,0-0.3,0h-0.3l-4.8-0.8h0c-0.7-0.1-1.7-0.1-2.3-0.1h-1.2c-0.1,0-0.4,0-0.7,0c-0.3,0-0.6,0-0.8,0 c-0.6,0.1-3.2,0.5-3.8,0.6c-0.2,0-2.4,0.5-3.2,0.8l-0.4,0.1l0,0c-0.4,0.1-0.7,0.1-1,0.1c-0.3,0-0.6,0-0.9,0L287.8,84.2z"/><path d="M319.8,72.9h-2.4c-0.6,0-2.6,0.3-2.6,0.5l-1.4,9c0,1-0.4,1.9-1.4,1.9c-0.8,0-1.4-0.6-1.4-1.6c0-0.3,0-0.6,0-0.8l2.9-17.6 l0.2-0.7c0.4-1.6,1-4.4,3.1-4.4c1.5,0,2.4,2.5,2.8,3.6l2.3,7.3l0.1,0.1c0.2,0.2,0.4,0.5,0.4,1v0.2c0,0.1,0,0.1,0,0.1l2.4,8v0 l0.8,2.2c0.1,0.3,0.4,0.9,0.4,1.2c0,0.9-0.6,1.6-1.4,1.6c-0.9,0-1.3-0.8-1.6-1.4l-0.9-2.7L319.8,72.9z M314.9,70.3l0.4-0.1h0 c0,0,0.1,0,0.1,0l-0.1,0.9l-0.7-0.8H314.9z M315.4,70.2c0.9-0.3,1.4-0.4,3.5-0.4l0-0.1l-1.5-4.5l-0.3-1.1c-0.3-0.9,0.3-0.5-0.3-1 c-0.2,0.7-0.5,1.7-0.5,1.9L315.4,70.2z M318.9,69.7h0.9l-0.7,0.6c0,0-0.1-0.2-0.1-0.4L318.9,69.7z"/><path d="M337.6,75c0.1-1.9,0.4-3.9,0.9-5.9c0.3-1.4,0.3-0.9,0.4-1.3l0.2-0.6c0.7-2.1,1.6-4,2.8-5.6c0,0,0.4-0.4,0.4-0.5 c0.1-0.1,0.2-0.1,0.3-0.3c0.4-0.5,1-1,1.7-1c0.8,0,1.4,0.6,1.4,1.5c0,0.8-0.5,1.2-0.9,1.5l-0.2,0.2c-1,0.9-1.7,2.5-2.3,3.9h0 c-0.1,0.3-0.8,2.2-0.9,2.6c-0.4,1.7-0.8,3.7-0.8,5.5c0,2.1,0.6,4.3,2.3,5.6l0.1,0.1c0.2,0.1,0.4,0.3,0.4,0.3c0,0,0,0,0.1,0 c0.1,0,0.3,0,0.4,0c0.9,0,1.7,1,1.7,1.8c0,0.8-0.6,1.5-1.5,1.5c-0.4,0-0.8-0.1-1.2-0.3l-0.4-0.1C339.1,82.7,337.6,78.3,337.6,75 L337.6,75z"/><path d="M355.7,63.4l-5.6,0.9c0,0-0.8,0.2-1,0.3h0c-0.1,0.1-0.3,0.1-0.6,0.1c-0.9,0-1.5-0.6-1.5-1.6c0-1.1,0.8-1.5,1.4-1.7h0 c0.3-0.1,1.1-0.4,1.4-0.4l8.2-1.2c0.1,0,0.8,0,1.5-0.1c0.5,0,1.2-0.1,1.5-0.1h1.1c0.1,0,0.4,0,0.6,0s0.6,0,0.7,0 c-0.1,0-0.1,0-0.1,0c0.3-0.1,0.5-0.3,0.8-0.3c0.9,0,1.5,0.7,1.5,1.6c0,1.6-1.7,1.8-2.7,1.8c-1.3,0.1-4,0.1-4.5,0.1V70l0.5,10.8 c0,0.1,0.1,0.6,0.2,0.9V83c0,0.5-0.3,0.8-0.6,1.1c-0.3,0.2-0.6,0.3-0.9,0.3c-0.6,0-1.4-0.5-1.4-1.3l-0.8-12.6V63.4z"/><path d="M377.9,82.6c0-0.2,0-0.3,0-0.5v-0.3c0-0.1-0.1-1.6-0.2-2.1c0-0.1,0-0.3,0-0.5l-1.3-3.1l0,0c-0.1-0.1-0.5-0.8-0.8-0.9 c-0.4,0.2-0.6,0.5-0.8,0.9c-0.1,0.4-0.7,1.5-1,2.2l0-0.1l-0.3,0.6c-0.3,0.8-0.5,1.4-0.6,2.1c-0.1,0.2-0.3,1.3-0.3,1.4 c0,0.1-0.1,0.3-0.1,0.5c-0.1,1-0.2,1.8-1.7,1.8c-1.7,0-1.8-1.5-1.9-2.6c0,0,0-0.1,0-0.2v0.1c-0.1-0.4-0.3-1-0.4-1.6l-0.4-2.2 l-1-8.5c0-0.3,0-0.8,0-1.3c0-0.4,0-0.9,0-1.2V61c0-1.1,0.3-2.4,1.9-2.4c1,0,1.7,0.8,1.7,1.6c0,0.3,0,0.6,0,0.8c0,0.1,0,0.3,0,0.4 v5.5c0,0.1,0,0.5,0,1c0,0.5,0,1.1,0,1.3v0.1l0.7,6.2c0.6-1.4,1.2-2.5,3.1-3.3l0.3-0.1c0.3-0.1,0.5-0.2,0.9-0.2 c1.2,0,2.1,0.6,2.8,1.3l0.1,0.2v0c0.5,0.4,0.9,0.8,1.2,1.5l0,0L381,78l0.2,0.7l0.3,2.3V83c-0.2,1-0.5,1.9-1.8,1.9 c-1.1,0-1.8-0.7-1.8-1.7C377.9,83.1,377.9,82.8,377.9,82.6z"/><path d="M384.5,70.5L384.5,70.5c1-1.7,2-3,3.3-3.8c0.5-0.3,0.9-0.3,1.4-0.3c0.8,0,1.7,0.1,2.5,0.7c1.3,0.8,3.1,2.8,3.1,5.1 c0,2.6-1.5,3.9-3.1,4.8h0c-0.6,0.4-1.2,0.7-1.9,0.7h-2.7l0.2,0.5c0,0,0.1,0.1,0,0.1c1,2.1,2.7,2.7,4.3,2.7c1.3,0,2.7-0.6,3.9-1.5 c0.3-0.2,0.5-0.5,0.8-0.8l0.4-0.4c0.1-0.1,0.6-0.4,0.8-0.4h0.5c0.7,0,1.1,1,1.1,1.7c0,0.9-0.4,1.4-0.8,1.8l-0.3,0.3 c-0.8,0.9-1.7,1.5-2.5,1.9c-1.2,0.6-2.6,1-4,1c-4.1,0-7.8-3.2-7.8-9.5C383.8,73.3,384.1,72.2,384.5,70.5z M386.7,73.7v0.6v0.3 l-1.1-0.5c0.3-0.1,0.5-0.3,0.9-0.3H386.7z M386.7,73.7c0.5,0,0.3,0.2,0.5,0.2c0,0,0.1,0.1,0.1,0.1h2.3c0,0,0,0,0,0h0.1l0.8-0.4 l0.4-0.1c0,0-0.2,0-0.1,0l0.5-0.3c0.3-0.2,0.6-0.5,0.6-0.9c0-1.5-1.7-2.4-2.6-2.4H389c-0.7,0.4-1.6,1.3-2,2.2 C386.9,72.6,386.8,73.2,386.7,73.7z M389.7,74L389.7,74c0.1,0,0.2,0,0.2,0L389.7,74z"/><path d="M424.2,80.4c-1.5,1.9-3.3,2.4-5.2,2.4c-4,0-7.3-3.7-7.3-10.9c0-7.6,4.8-12.6,9.2-12.6h0.1c1.8,0,3.7,0.6,5,3 c0.2,0.5,0.4,1.1,0.4,1.8c0,1-0.6,1.5-1.2,1.5c-0.8,0-0.9-0.4-1.1-1c0,0-0.1-0.2-0.1-0.3c-0.7-1.3-2.1-1.7-3.2-1.7 c-0.8,0-1.7,0.1-2.4,0.5c-2.2,1.5-4.5,4.4-4.5,8.8c-0.1,5.1,2.4,7.8,4.9,7.8c1.6,0,4.2-1,4.3-3.9v-0.4c0-0.1,0-0.3,0-0.5 c0-0.8,0.1-1.8,1.2-1.8c0.6,0,1.1,0.4,1.3,1.4c0,1.2,0.2,3,0.7,4.7c0.1,0.5,0.3,1,0.4,1.5c0.2,0.8,0.4,1.5,0.4,2 c0,0.9-0.5,1.6-1.2,1.6c-0.8,0-1-0.5-1.2-1.3l-0.1-0.4c-0.1-0.3-0.3-0.8-0.3-1.1C424.5,81.2,424.3,80.8,424.2,80.4z"/><path d="M428.5,71c0-0.4,0.1-2.2,0.1-2.5c0.2-1,0.6-2.1,2-2.1c1,0,1.7,0.8,1.7,1.9v0.3c-0.2,1.3-0.3,2.4-0.3,3.6V74 c0,0.1,0,0.3,0.1,0.7c0,0.3,0.1,1,0.1,0.9c0,0,0,0.2,0,0.3c0.2,0.6,0.6,2.1,0.6,2.4c0.3,0.9,0.9,2.4,1.8,2.4c1.2,0,1.8-2.6,1.9-3.7 c0.1-0.3,0.2-0.9,0.2-1v-4c0,0,0-0.2,0-0.5l-0.1-1.3c0-0.2-0.1-0.5-0.2-0.8c-0.1-0.4-0.4-0.8-0.4-1.4c0-1,0.5-1.8,1.8-1.8 c0.2,0,0.6,0,1.1,0.3c1,0.9,1.2,2.4,1.4,3.6c0,0.3,0,0.6,0.1,1c0,0.6,0.1,1.3,0.1,1.4V74c0,3.3-0.5,7-3.2,9.4c-0.7,0.6-1.7,1-2.6,1 c-5.4,0-6.3-8.5-6.3-12.1V71z"/><path d="M448,83c-2.1,0-4.8-1.2-5.5-4.6V78c0-0.1,0-0.3,0-0.4v-0.7c0-2.3,0.3-3.4,1.3-5.1c0.5-0.7,0.9-1.4,1.5-1.9 c0.4-0.4,1.4-1.2,1.6-1.3c0.1,0,1.4-0.8,1.8-1c1.2-0.6,2.5-0.9,3.7-0.9h0.2c0.9,0,2.1-0.1,2.3,1.4c0.3-0.4,0.6-0.8,1.2-0.8 c0.9,0,1.4,0.8,1.7,1.9v1.4c0,0.9,0,2-0.3,3.2c0,0.1-0.2,1-0.2,1v0.4c0,0.8,0.1,1.8,0.2,2.7c0,0.3,0.1,0.5,0.1,0.9 c0.1,0.7,0.3,1.6,0.3,1.8c0,0.1,0.1,0.2,0.2,0.3c0.3,0.3,0.5,0.6,0.5,1.3c0,1.2-0.6,2.2-1.6,2.2c-1.3,0-1.5-1-1.9-2.2 c0,0,0-0.1,0-0.2c-0.2-0.8-0.3-1.5-0.4-2.3C452.8,81.8,450.2,83,448,83z M454.3,70.2c-0.1,0.1-0.2,0.3-0.4,0.4 c-0.6-0.1-0.9-0.1-1.2-0.1c-0.6,0-1.3,0.1-1.8,0.2c-1.8,0.5-3.6,1.7-4.9,3.7c-0.5,0.8-0.6,1.7-0.6,2.7c0,1.2,1.1,1.8,1.8,2h0.1l0,0 h0.6c1.1,0,2.1-0.5,3.2-1.1v0c1-0.5,1.9-1.7,2.7-3.1v0c0.1-0.3,0.2-0.5,0.3-0.7C454.2,73,454.2,71.4,454.3,70.2z M453.9,75 c0,0,0-0.1,0-0.1C453.9,74.9,453.9,74.9,453.9,75z"/><path d="M460.2,73.7v-5.6c0-0.9,1.1-1.4,1.8-1.4c0.6,0,1.2,0.3,1.4,0.7c0.2,0.2,0.3,0.5,0.3,0.5v0.5c1.2-0.9,2.7-1.6,4.3-1.6 c0.9,0,1.6,0.2,2.4,0.7c1.2,0.7,2.7,2.9,2.7,4.2c0,0.9-0.7,1.7-1.8,1.7c-1.5,0-1.7-1-2-1.9v0c0-0.1-0.2-0.3-0.3-0.4l-0.2-0.3 c-0.4-0.3-0.5-0.5-0.9-0.5c-0.9,0-2.1,0.8-2.6,1.4l-0.8,0.6l-0.6,0.6c0,0,0,0.1-0.1,0.1v0.5l0.6,7.2c0,0,0.1,0.2,0.1,0.2 c0.2,0.3,0.4,0.5,0.4,0.9v1.2c0,1-1.2,1.4-1.8,1.4c-1.3,0-1.9-1.2-2.1-2.3l-0.6-7.3l0,0.1L460.2,73.7z"/><path d="M481.5,72.3c0.7,0,1.2,0.1,1.8,0.3c0-0.5,0-1,0-1.6c0-1.1,0.1-2.2,0.1-2.6v-0.2l0.4-4.9c0.1-0.9,0.6-3.3,2.4-3.3 c1.1,0,1.7,0.8,1.7,1.7c0,0.1,0,0.4,0,0.4s-0.1,0.3-0.2,0.4l-0.1,0.1c-0.3,0.7-0.4,1.4-0.5,2l-0.3,4.1v0.1c0,0.1,0,0.4,0,0.7v4.9 c0,0.3,0.1,1.9,0.1,2.2c0.1,0.8,0.5,3.3,0.6,3.6l0,0.3c0,0,0-0.1,0-0.1c0.4,0.3,0.8,0.6,0.8,1.4c0,1-1,2.2-2.1,2.2 c-0.2,0-0.4,0-0.5-0.1h-0.2c-0.1,0-0.2,0-0.3,0c-0.1,0-0.3,0-0.4,0c-1,0.1-1.9,0.3-3.1,0.3c-2.4,0-4.9-0.4-6.3-2.5 c-0.5-0.9-1-1.9-1-2.9C474.5,75.2,478,72.3,481.5,72.3z M482,80.7h0.8c0,0,0.1,0,0.3,0l0.9-0.1l-0.5-3.9l-0.5-0.5 c-0.4-0.3-1-0.4-1.5-0.4c-1.7,0-3.4,1.3-3.4,2.9C478.1,80.5,480.3,80.7,482,80.7z M484,80.5h0.2c-0.1,0.1-0.1,0.1-0.1,0.3V81 L484,80.5z M484.2,80.5c0.1,0,0.1,0,0.2,0C484.3,80.5,484.2,80.5,484.2,80.5z"/><path d="M492.6,66c1.2,0,1.9,0.6,1.9,1.4c0,1-0.7,1.2-1.6,1.4c0,0-0.1,0-0.1,0c0,0-0.3,0.1-0.4,0.1c-0.2,0.1-0.4,0.1-0.8,0.1 c-1.1,0-1.9-0.6-1.9-1.4C489.7,66.7,491.4,66,492.6,66z M490.4,71.9v-0.4c0-0.9,0.1-2,2-2c0.8,0,1.8,0.5,1.8,1.2v1.4 c0.4,2.9,1,6.3,1.4,9.2c0,0,0,0.1,0,0.1v0v-0.1c0,0,0,0,0,0.1c0.2,0.2,0.4,0.3,0.4,0.7V83c0,0.8-1,1.3-1.8,1.3 c-0.8,0-1.6-0.4-1.9-0.9l-0.4-1.5L490.4,71.9z"/><path d="M504.1,83c-2.1,0-4.8-1.2-5.5-4.6V78c0-0.1,0-0.3,0-0.4v-0.7c0-2.3,0.3-3.4,1.3-5.1c0.5-0.7,0.9-1.4,1.5-1.9 c0.4-0.4,1.4-1.2,1.6-1.3c0.1,0,1.4-0.8,1.8-1c1.2-0.6,2.5-0.9,3.7-0.9h0.2c0.9,0,2.1-0.1,2.3,1.4c0.3-0.4,0.6-0.8,1.2-0.8 c0.9,0,1.4,0.8,1.7,1.9v1.4c0,0.9,0,2-0.3,3.2c0,0.1-0.2,1-0.2,1v0.4c0,0.8,0.1,1.8,0.2,2.7c0,0.3,0.1,0.5,0.1,0.9 c0.1,0.7,0.3,1.6,0.3,1.8c0,0.1,0.1,0.2,0.2,0.3c0.3,0.3,0.5,0.6,0.5,1.3c0,1.2-0.6,2.2-1.6,2.2c-1.3,0-1.5-1-1.9-2.2 c0,0,0-0.1,0-0.2c-0.2-0.8-0.3-1.5-0.4-2.3C508.9,81.8,506.3,83,504.1,83z M510.4,70.2c-0.1,0.1-0.2,0.3-0.4,0.4 c-0.6-0.1-0.9-0.1-1.2-0.1c-0.6,0-1.3,0.1-1.8,0.2c-1.8,0.5-3.6,1.7-4.9,3.7c-0.5,0.8-0.6,1.7-0.6,2.7c0,1.2,1.1,1.8,1.8,2h0.1l0,0 h0.6c1.1,0,2.1-0.5,3.2-1.1v0c1-0.5,1.9-1.7,2.7-3.1v0c0.1-0.3,0.2-0.5,0.3-0.7C510.2,73,510.3,71.4,510.4,70.2z M510,75 c0,0,0-0.1,0-0.1C510,74.9,510,74.9,510,75z"/><path d="M516.4,73c0-0.5,0.1-1.1,0.1-1.7c0-0.2-0.1-0.4-0.1-0.5c-0.1-0.3-0.1-0.6-0.1-0.9c0-0.9,0.8-1.5,1.7-1.5 c1.3,0,1.9,0.9,1.9,1.8v0.1c1-1,2.1-1.8,3.7-1.8c1.9,0,3.2,1.4,3.5,2.7l0.8,3.2l0.5,4.4v3.3c0.1,0.2,0.1,0.3,0.1,0.6 c0,0.9-0.7,1.5-1.8,1.5c-0.7,0-1.9-0.7-1.9-1.4V79l-0.6-4.2l0,0l-0.7-2.8c0,0-0.1-0.2-0.1-0.3h0h0c-0.6,0.3-1.1,0.8-1.6,1.3 l-0.7,0.8l-0.3,0.3c0,0.1,0,0.1,0,0.1c-0.2,0.4-0.3,0.7-0.5,1.2l-0.3,0.8l-0.1,0.2l0.5,5.1c0,0,0,0,0.1,0c0.2,0.2,0.4,0.4,0.4,0.8 c0,1-0.5,1.9-1.9,1.9c-1,0-1.7-0.6-1.9-1.5l-0.2-0.8c0-0.1-0.1-0.3-0.1-0.4l-0.5-5.8v-1.1C516.4,74.1,516.4,73.5,516.4,73z"/><path d="M541.5,70.5L541.5,70.5c1-1.7,2-3,3.3-3.8c0.5-0.3,0.9-0.3,1.4-0.3c0.8,0,1.7,0.1,2.5,0.7c1.3,0.8,3.1,2.8,3.1,5.1 c0,2.6-1.5,3.9-3.1,4.8h0c-0.6,0.4-1.2,0.7-1.9,0.7h-2.7l0.2,0.5c0,0,0.1,0.1,0,0.1c1,2.1,2.7,2.7,4.3,2.7c1.3,0,2.7-0.6,3.9-1.5 c0.3-0.2,0.5-0.5,0.8-0.8l0.4-0.4c0.1-0.1,0.6-0.4,0.8-0.4h0.5c0.7,0,1.1,1,1.1,1.7c0,0.9-0.4,1.4-0.8,1.8l-0.3,0.3 c-0.8,0.9-1.7,1.5-2.5,1.9c-1.2,0.6-2.6,1-4,1c-4.1,0-7.8-3.2-7.8-9.5C540.8,73.3,541.1,72.2,541.5,70.5z M543.7,73.7v0.6v0.3 l-1.1-0.5c0.3-0.1,0.5-0.3,0.9-0.3H543.7z M543.7,73.7c0.5,0,0.3,0.2,0.5,0.2c0,0,0.1,0.1,0.1,0.1h2.3c0,0,0,0,0,0h0.1l0.8-0.4 l0.4-0.1c0,0-0.2,0-0.1,0l0.5-0.3c0.3-0.2,0.6-0.5,0.6-0.9c0-1.5-1.7-2.4-2.6-2.4h-0.3c-0.7,0.4-1.6,1.3-2,2.2 C543.9,72.6,543.8,73.2,543.7,73.7z M546.7,74L546.7,74c0.1,0,0.2,0,0.2,0L546.7,74z"/><path d="M564.7,72.3c0.7,0,1.2,0.1,1.8,0.3c0-0.5,0-1,0-1.6c0-1.1,0.1-2.2,0.1-2.6v-0.2l0.4-4.9c0.1-0.9,0.6-3.3,2.4-3.3 c1.1,0,1.7,0.8,1.7,1.7c0,0.1,0,0.4,0,0.4s-0.1,0.3-0.2,0.4l-0.1,0.1c-0.3,0.7-0.4,1.4-0.5,2l-0.3,4.1v0.1c0,0.1,0,0.4,0,0.7v4.9 c0,0.3,0.1,1.9,0.1,2.2c0.1,0.8,0.5,3.3,0.6,3.6l0,0.3c0,0,0-0.1,0-0.1c0.4,0.3,0.8,0.6,0.8,1.4c0,1-1,2.2-2.1,2.2 c-0.2,0-0.4,0-0.5-0.1h-0.2c-0.1,0-0.2,0-0.3,0c-0.1,0-0.3,0-0.4,0c-1,0.1-1.9,0.3-3.1,0.3c-2.4,0-4.9-0.4-6.3-2.5 c-0.5-0.9-1-1.9-1-2.9C557.7,75.2,561.1,72.3,564.7,72.3z M565.1,80.7h0.8c0,0,0.1,0,0.3,0l0.9-0.1l-0.5-3.9l-0.5-0.5 c-0.4-0.3-1-0.4-1.5-0.4c-1.7,0-3.4,1.3-3.4,2.9C561.3,80.5,563.4,80.7,565.1,80.7z M567.2,80.5h0.2c-0.1,0.1-0.1,0.1-0.1,0.3V81 L567.2,80.5z M567.4,80.5c0.1,0,0.1,0,0.2,0C567.5,80.5,567.4,80.5,567.4,80.5z"/><path d="M575.8,66c1.2,0,1.9,0.6,1.9,1.4c0,1-0.7,1.2-1.6,1.4c0,0-0.1,0-0.1,0c0,0-0.3,0.1-0.4,0.1c-0.2,0.1-0.4,0.1-0.8,0.1 c-1.1,0-1.9-0.6-1.9-1.4C572.8,66.7,574.6,66,575.8,66z M573.6,71.9v-0.4c0-0.9,0.1-2,2-2c0.8,0,1.8,0.5,1.8,1.2v1.4 c0.4,2.9,1,6.3,1.4,9.2c0,0,0,0.1,0,0.1v0v-0.1c0,0,0,0,0,0.1c0.2,0.2,0.4,0.3,0.4,0.7V83c0,0.8-1,1.3-1.8,1.3 c-0.8,0-1.6-0.4-1.9-0.9l-0.4-1.5L573.6,71.9z"/><path d="M585.5,81.1c0-0.1,0-0.4,0-0.6c0-0.3,0.1-0.5,0.1-0.4v-7.3c0-0.1,0-0.6-0.1-1.1c0-0.3,0-0.5,0-0.7l-0.2,0.1 c-0.2,0.1-0.4,0.1-0.3,0.1l-0.4,0.2c-0.3,0.2-0.8,0.4-1.3,0.4c-1,0-1.6-0.6-1.6-1.6v-0.5c0.2-0.5,0.8-1.1,1.3-1.3 c0.8-0.3,1.7-0.8,2.5-1.1v-4.7c0-0.2,0-0.3,0-0.4c0-1,0.1-2.3,1.8-2.3c0.8,0,1.5,0.5,1.7,1.3v0.5c0,0.5,0,0.9-0.1,1.5 c0,1.2-0.4,2.2-0.4,3.3c0.3-0.1,0.8-0.2,1.1-0.3l1.2-0.4h0c0.6-0.2,1.3-0.3,1.9-0.3c0.9,0,1.7,0.6,1.7,1.6c0,1.5-1.3,1.7-2.4,1.8 h-0.3l-0.2,0l0.2,0l-2.8,0.9c0,0.2,0,0.6,0.1,1.1c0,0.4,0,1.1,0,1.2v8.1c-0.1,0.6-0.1,0.9-0.1,1.4c0,0,0.1,0.2,0.1,0.3 c0,0.2,0.1,0.5,0.1,0.8c0,0.9-0.6,1.7-1.7,1.7c-1.8,0-1.9-1.7-1.9-2.7V81.1z"/><path d="M596.2,81c-0.2-1.2-0.4-2.5-0.4-3.9c0-3.2,0.9-6.5,2.8-9v0c0.3-0.4,0.9-1,1.3-1.1h0.2c0.1,0,0.1,0,0.1,0l0.5-0.2 c0.5-0.2,1-0.4,1.7-0.4c2.8,0,5,3.6,5.5,6l0,0c0.3,0.9,0.3,1.8,0.3,2.6c0,1.4-0.1,2.6-0.6,3.9v0c-0.3,0.8-0.7,1.4-1.1,2.1 c-1.5,2.1-3.2,3.6-5.9,3.6c-2.1,0-3.6-1.5-4.4-3.4L596.2,81z M599.4,80.3l0.1,0.2c0.4,0.5,0.8,0.8,1.3,0.8c0.9,0,1.8-0.6,2.4-1.3 c0.6-0.7,1.2-1.7,1.5-2.4c0.3-0.8,0.4-1.7,0.4-2.5c0-0.6,0-1.2-0.2-1.9c-0.2-1-1.3-3.4-2.3-3.4c-0.4,0-0.6,0.1-0.9,0.3 c-0.9,0.5-1.3,1.5-1.8,2.6c-0.8,0.8-1,3.3-1,4.5c0,1,0.1,1.8,0.3,2.9L599.4,80.3z"/><path d="M609.6,73.7v-5.6c0-0.9,1.1-1.4,1.8-1.4c0.6,0,1.2,0.3,1.4,0.7c0.2,0.2,0.3,0.5,0.3,0.5v0.5c1.2-0.9,2.7-1.6,4.3-1.6 c0.9,0,1.6,0.2,2.4,0.7c1.2,0.7,2.7,2.9,2.7,4.2c0,0.9-0.7,1.7-1.8,1.7c-1.5,0-1.7-1-2-1.9v0c0-0.1-0.2-0.3-0.3-0.4l-0.2-0.3 c-0.4-0.3-0.5-0.5-0.9-0.5c-0.9,0-2.1,0.8-2.6,1.4l-0.8,0.6l-0.6,0.6c0,0,0,0.1-0.1,0.1v0.5l0.6,7.2c0,0,0.1,0.2,0.1,0.2 c0.2,0.3,0.4,0.5,0.4,0.9v1.2c0,1-1.2,1.4-1.8,1.4c-1.3,0-1.9-1.2-2.1-2.3l-0.6-7.3l0,0.1L609.6,73.7z"/><path d="M626.8,66c1.2,0,1.9,0.6,1.9,1.4c0,1-0.7,1.2-1.6,1.4c0,0-0.1,0-0.1,0c0,0-0.3,0.1-0.4,0.1c-0.2,0.1-0.4,0.1-0.8,0.1 c-1.1,0-1.9-0.6-1.9-1.4C623.9,66.7,625.6,66,626.8,66z M624.6,71.9v-0.4c0-0.9,0.1-2,2-2c0.8,0,1.8,0.5,1.8,1.2v1.4 c0.4,2.9,1,6.3,1.4,9.2c0,0,0,0.1,0,0.1v0v-0.1c0,0,0,0,0,0.1c0.2,0.2,0.4,0.3,0.4,0.7V83c0,0.8-1,1.3-1.8,1.3 c-0.8,0-1.6-0.4-1.9-0.9l-0.4-1.5L624.6,71.9z"/><path d="M638.3,83c-2.1,0-4.8-1.2-5.5-4.6V78c0-0.1,0-0.3,0-0.4v-0.7c0-2.3,0.3-3.4,1.3-5.1c0.5-0.7,0.9-1.4,1.5-1.9 c0.4-0.4,1.4-1.2,1.6-1.3c0.1,0,1.4-0.8,1.8-1c1.2-0.6,2.5-0.9,3.7-0.9h0.2c0.9,0,2.1-0.1,2.3,1.4c0.3-0.4,0.6-0.8,1.2-0.8 c0.9,0,1.4,0.8,1.7,1.9v1.4c0,0.9,0,2-0.3,3.2c0,0.1-0.2,1-0.2,1v0.4c0,0.8,0.1,1.8,0.2,2.7c0,0.3,0.1,0.5,0.1,0.9 c0.1,0.7,0.3,1.6,0.3,1.8c0,0.1,0.1,0.2,0.2,0.3c0.3,0.3,0.5,0.6,0.5,1.3c0,1.2-0.6,2.2-1.6,2.2c-1.3,0-1.5-1-1.9-2.2 c0,0,0-0.1,0-0.2c-0.2-0.8-0.3-1.5-0.4-2.3C643.1,81.8,640.5,83,638.3,83z M644.6,70.2c-0.1,0.1-0.2,0.3-0.4,0.4 c-0.6-0.1-0.9-0.1-1.2-0.1c-0.6,0-1.3,0.1-1.8,0.2c-1.8,0.5-3.6,1.7-4.9,3.7c-0.5,0.8-0.6,1.7-0.6,2.7c0,1.2,1.1,1.8,1.8,2h0.1l0,0 h0.6c1.1,0,2.1-0.5,3.2-1.1v0c1-0.5,1.9-1.7,2.7-3.1v0c0.1-0.3,0.2-0.5,0.3-0.7C644.4,73,644.5,71.4,644.6,70.2z M644.1,75 c0,0,0-0.1,0-0.1C644.1,74.9,644.1,74.9,644.1,75z"/><path d="M650.2,69.2v-6.6l0.2-1.5c0.1-0.8,1-1.2,1.7-1.2c1.1,0,1.8,0.6,1.8,1.5c0,0.5,0,0.8-0.1,1.2c0,0.2,0,0.4-0.1,0.5v5.6 c0,0.4,0,1,0.1,1.5c0.1,1.3,0.2,2.9,0.3,3.2l0.3,2.1V83c0,0.5-0.9,1.3-1.3,1.3h-0.7c-0.5,0-1.4-0.8-1.4-1.3v-7.1L650.2,69.2z"/><path d="M79.8,125.2c-0.4-0.4-0.6-0.8-0.6-1.4c0-0.5,0.3-1,0.6-1.4l0.3-8.8c0-0.8,1-1.5,1.8-1.5c1,0,1.5,0.6,1.7,1.3 c0.4-0.3,0.9-0.6,1.5-0.7c0.4-0.1,1.2-0.2,1.4-0.2h0.7c4.1,0,5.8,2.7,5.8,6.7c0,1.2-0.2,2.6-0.8,3.6v-0.1c-0.1,0.2-0.5,0.8-0.7,0.9 l0.1-0.1c-1.8,2.1-3.7,3.1-6.4,3.1c-0.4,0-1-0.1-1.4-0.1c-0.4,0-0.1,0-0.5,0v0.4l0.4,6.1c0,0.3,0.2,0.9,0.3,1.3l0.1,0.6l0.1,0.3 c0.1,0.3,0.3,0.6,0.3,0.9c0,0.9-0.8,1.8-1.7,1.8c-1.1,0-1.8-1-2-1.9l-0.3-1.2c-0.1-0.4-0.3-1.2-0.2-1.1l-0.5-6.3V125.2z M83.4,122.7C83.4,122.7,83.4,122.8,83.4,122.7l0,0.5l-0.4-0.6C83,122.6,83.2,122.7,83.4,122.7z M83.4,122.8 c0.6,0.3,1.3,0.3,2.1,0.3c1.4,0,2.4-0.7,3.4-1.8c0.1-0.1,0.3-0.4,0.4-0.5c0.2-0.5,0.3-1.2,0.3-1.7c0-1-0.3-2.3-1-3 c-0.3-0.1-0.8-0.1-1.2-0.1c-1.3,0-2.4,0.5-3.2,1.5c-0.2,0.3-0.6,0.8-0.6,0.8l0,0.8V122.8z"/><path d="M94.9,124.2c-0.2-1.2-0.4-2.5-0.4-3.9c0-3.2,0.9-6.5,2.8-9v0c0.3-0.4,0.9-1,1.3-1.1h0.2c0.1,0,0.1,0,0.1,0l0.5-0.2 c0.5-0.2,1-0.4,1.7-0.4c2.8,0,5,3.6,5.5,6l0,0c0.3,0.9,0.3,1.8,0.3,2.6c0,1.4-0.1,2.6-0.6,3.9v0c-0.3,0.8-0.7,1.4-1.1,2.1 c-1.5,2.1-3.2,3.6-5.9,3.6c-2.1,0-3.6-1.5-4.4-3.4L94.9,124.2z M98.1,123.5l0.1,0.2c0.4,0.5,0.8,0.8,1.3,0.8c0.9,0,1.8-0.6,2.4-1.3 c0.6-0.7,1.2-1.7,1.5-2.4c0.3-0.8,0.4-1.7,0.4-2.5c0-0.6,0-1.2-0.2-1.9c-0.2-1-1.3-3.4-2.3-3.4c-0.4,0-0.6,0.1-0.9,0.3 c-0.9,0.5-1.3,1.5-1.8,2.6c-0.8,0.8-1,3.3-1,4.5c0,1,0.1,1.8,0.3,2.9L98.1,123.5z"/><path d="M110.4,122.7c0.6,0,1.2,0.2,1.6,0.8l-0.1-0.1l0.2,0.2c0,0.1,0,0.1,0,0.1c0.9,0.3,2.4,0.3,3.4,0.3h1.1c0.1,0,0.4,0,0.6,0 h0.4c0.6,0,1.3-0.1,2.1-0.3l-0.5-0.3l-0.7-0.4c0,0-0.6-0.3-1-0.5h0l-1.1-0.5c-2.8-1.4-6.3-3.2-7.5-6.2c-0.1-0.2-0.3-0.8-0.3-0.9 v-0.2c0-1.9,1.7-3.8,3.7-4.3h0l2.6-0.6c0.4-0.1,0.9-0.1,1.1-0.1c1.3,0,3.6,0.9,3.6,2.4c0,1.1-0.8,1.8-1.9,1.8 c-0.5,0-0.9-0.2-1.2-0.4h0c-0.3-0.1-0.5-0.2-0.7-0.2h-0.4l-1.8,0.4c-0.5,0.1-1.1,0.4-1.1,0.9c0,0.3,0.7,1.2,1,1.4l0,0l0.5,0.3 c0.3,0.2,0.6,0.4,0.6,0.4l3.9,2.2h0l0.6,0.3c1.2,0.5,2.4,1.1,3.6,1.8c1.1,0.8,1.8,1.5,1.8,2.9c0,2.2-3.9,3-5.6,3.3 c-0.4,0.1-1.8,0.2-1.9,0.2h-1.3c-1.9,0-5.3-0.1-6.9-1.5c-0.4-0.4-0.4-1.1-0.4-1.4v-0.1C108.5,123.5,109.4,122.7,110.4,122.7z"/><path d="M129.1,109.2c1.2,0,1.9,0.6,1.9,1.4c0,1-0.7,1.2-1.6,1.4c0,0-0.1,0-0.1,0c0,0-0.3,0.1-0.4,0.1c-0.2,0.1-0.4,0.1-0.8,0.1 c-1.1,0-1.9-0.6-1.9-1.4C126.1,109.9,127.9,109.2,129.1,109.2z M126.9,115.1v-0.4c0-0.9,0.1-2,2-2c0.8,0,1.8,0.5,1.8,1.2v1.4 c0.4,2.9,1,6.3,1.4,9.2c0,0,0,0.1,0,0.1v0v-0.1c0,0,0,0,0,0.1c0.2,0.2,0.4,0.3,0.4,0.7v0.8c0,0.8-1,1.3-1.8,1.3 c-0.8,0-1.6-0.4-1.9-0.9l-0.4-1.5L126.9,115.1z"/><path d="M138.8,124.3c0-0.1,0-0.4,0-0.6c0-0.3,0.1-0.5,0.1-0.4V116c0-0.1,0-0.6-0.1-1.1c0-0.3,0-0.5,0-0.7l-0.2,0.1 c-0.2,0.1-0.4,0.1-0.3,0.1l-0.4,0.2c-0.3,0.2-0.8,0.4-1.3,0.4c-1,0-1.6-0.6-1.6-1.6v-0.5c0.2-0.5,0.8-1.1,1.3-1.3 c0.8-0.3,1.7-0.8,2.5-1.1v-4.7c0-0.2,0-0.3,0-0.4c0-1,0.1-2.3,1.8-2.3c0.8,0,1.5,0.5,1.7,1.3v0.5c0,0.5,0,0.9-0.1,1.5 c0,1.2-0.4,2.2-0.4,3.3c0.3-0.1,0.8-0.2,1.1-0.3l1.2-0.4h0c0.6-0.2,1.3-0.3,1.9-0.3c0.9,0,1.7,0.6,1.7,1.6c0,1.5-1.3,1.7-2.4,1.8 H145l-0.2,0l0.2,0l-2.8,0.9c0,0.2,0,0.6,0.1,1.1c0,0.4,0,1.1,0,1.2v8.1c-0.1,0.6-0.1,0.9-0.1,1.4c0,0,0.1,0.2,0.1,0.3 c0,0.2,0.1,0.5,0.1,0.8c0,0.9-0.6,1.7-1.7,1.7c-1.8,0-1.9-1.7-1.9-2.7V124.3z"/><path d="M151.8,109.2c1.2,0,1.9,0.6,1.9,1.4c0,1-0.7,1.2-1.6,1.4c0,0-0.1,0-0.1,0c0,0-0.3,0.1-0.4,0.1c-0.2,0.1-0.4,0.1-0.8,0.1 c-1.1,0-1.9-0.6-1.9-1.4C148.9,109.9,150.7,109.2,151.8,109.2z M149.7,115.1v-0.4c0-0.9,0.1-2,2-2c0.8,0,1.8,0.5,1.8,1.2v1.4 c0.4,2.9,1,6.3,1.4,9.2c0,0,0,0.1,0,0.1v0v-0.1c0,0,0,0,0,0.1c0.2,0.2,0.4,0.3,0.4,0.7v0.8c0,0.8-1,1.3-1.8,1.3 c-0.8,0-1.6-0.4-1.9-0.9l-0.4-1.5L149.7,115.1z"/><path d="M158.1,124.2c-0.2-1.2-0.4-2.5-0.4-3.9c0-3.2,0.9-6.5,2.8-9v0c0.3-0.4,0.9-1,1.3-1.1h0.2c0.1,0,0.1,0,0.1,0l0.5-0.2 c0.5-0.2,1-0.4,1.7-0.4c2.8,0,5,3.6,5.5,6l0,0c0.3,0.9,0.3,1.8,0.3,2.6c0,1.4-0.1,2.6-0.6,3.9v0c-0.3,0.8-0.7,1.4-1.1,2.1 c-1.5,2.1-3.2,3.6-5.9,3.6c-2.1,0-3.6-1.5-4.4-3.4L158.1,124.2z M161.3,123.5l0.1,0.2c0.4,0.5,0.8,0.8,1.3,0.8 c0.9,0,1.8-0.6,2.4-1.3c0.6-0.7,1.2-1.7,1.5-2.4c0.3-0.8,0.4-1.7,0.4-2.5c0-0.6,0-1.2-0.2-1.9c-0.2-1-1.3-3.4-2.3-3.4 c-0.4,0-0.6,0.1-0.9,0.3c-0.9,0.5-1.3,1.5-1.8,2.6c-0.8,0.8-1,3.3-1,4.5c0,1,0.1,1.8,0.3,2.9L161.3,123.5z"/><path d="M171.7,116.2c0-0.5,0.1-1.1,0.1-1.7c0-0.2-0.1-0.4-0.1-0.5c-0.1-0.3-0.1-0.6-0.1-0.9c0-0.9,0.8-1.5,1.7-1.5 c1.3,0,1.9,0.9,1.9,1.8v0.1c1-1,2.1-1.8,3.7-1.8c1.9,0,3.2,1.4,3.5,2.7l0.8,3.2l0.5,4.4v3.3c0.1,0.2,0.1,0.3,0.1,0.6 c0,0.9-0.7,1.5-1.8,1.5c-0.7,0-1.9-0.7-1.9-1.4v-3.8l-0.6-4.2l0,0l-0.7-2.8c0,0-0.1-0.2-0.1-0.3h0h0c-0.6,0.3-1.1,0.8-1.6,1.3 l-0.7,0.8l-0.3,0.3c0,0.1,0,0.1,0,0.1c-0.2,0.4-0.3,0.7-0.5,1.2l-0.3,0.8l-0.1,0.2l0.5,5.1c0,0,0,0,0.1,0c0.2,0.2,0.4,0.4,0.4,0.8 c0,1-0.5,1.9-1.9,1.9c-1,0-1.7-0.6-1.9-1.5l-0.2-0.8c0-0.1-0.1-0.3-0.1-0.4l-0.5-5.8v-1.1C171.7,117.3,171.7,116.7,171.7,116.2z"/><path d="M198.9,109.2c1.2,0,1.9,0.6,1.9,1.4c0,1-0.7,1.2-1.6,1.4c0,0-0.1,0-0.1,0c0,0-0.3,0.1-0.4,0.1c-0.2,0.1-0.4,0.1-0.8,0.1 c-1.1,0-1.9-0.6-1.9-1.4C195.9,109.9,197.7,109.2,198.9,109.2z M196.7,115.1v-0.4c0-0.9,0.1-2,2-2c0.8,0,1.8,0.5,1.8,1.2v1.4 c0.4,2.9,1,6.3,1.4,9.2c0,0,0,0.1,0,0.1v0v-0.1c0,0,0,0,0,0.1c0.2,0.2,0.4,0.3,0.4,0.7v0.8c0,0.8-1,1.3-1.8,1.3 c-0.8,0-1.6-0.4-1.9-0.9l-0.4-1.5L196.7,115.1z"/><path d="M206.8,122.7c0.6,0,1.2,0.2,1.6,0.8l-0.1-0.1l0.2,0.2c0,0.1,0,0.1,0,0.1c0.9,0.3,2.4,0.3,3.4,0.3h1.1c0.1,0,0.4,0,0.6,0 h0.4c0.6,0,1.3-0.1,2.1-0.3l-0.5-0.3l-0.7-0.4c0,0-0.6-0.3-1-0.5h0l-1.1-0.5c-2.8-1.4-6.3-3.2-7.5-6.2c-0.1-0.2-0.3-0.8-0.3-0.9 v-0.2c0-1.9,1.7-3.8,3.7-4.3h0l2.6-0.6c0.4-0.1,0.9-0.1,1.1-0.1c1.3,0,3.6,0.9,3.6,2.4c0,1.1-0.8,1.8-1.9,1.8 c-0.5,0-0.9-0.2-1.2-0.4h0c-0.3-0.1-0.5-0.2-0.7-0.2h-0.4l-1.8,0.4c-0.5,0.1-1.1,0.4-1.1,0.9c0,0.3,0.7,1.2,1,1.4l0,0l0.5,0.3 c0.3,0.2,0.6,0.4,0.6,0.4l3.9,2.2h0l0.6,0.3c1.2,0.5,2.4,1.1,3.6,1.8c1.1,0.8,1.8,1.5,1.8,2.9c0,2.2-3.9,3-5.6,3.3 c-0.4,0.1-1.8,0.2-1.9,0.2h-1.3c-1.9,0-5.3-0.1-6.9-1.5c-0.4-0.4-0.4-1.1-0.4-1.4v-0.1C204.9,123.5,205.8,122.7,206.8,122.7z"/><path d="M237.3,124.3c0-0.1,0-0.4,0-0.6c0-0.3,0.1-0.5,0.1-0.4V116c0-0.1,0-0.6-0.1-1.1c0-0.3,0-0.5,0-0.7l-0.2,0.1 c-0.2,0.1-0.4,0.1-0.3,0.1l-0.4,0.2c-0.3,0.2-0.8,0.4-1.3,0.4c-1,0-1.6-0.6-1.6-1.6v-0.5c0.2-0.5,0.8-1.1,1.3-1.3 c0.8-0.3,1.7-0.8,2.5-1.1v-4.7c0-0.2,0-0.3,0-0.4c0-1,0.1-2.3,1.8-2.3c0.8,0,1.5,0.5,1.7,1.3v0.5c0,0.5,0,0.9-0.1,1.5 c0,1.2-0.4,2.2-0.4,3.3c0.3-0.1,0.8-0.2,1.1-0.3l1.2-0.4h0c0.6-0.2,1.3-0.3,1.9-0.3c0.9,0,1.7,0.6,1.7,1.6c0,1.5-1.3,1.7-2.4,1.8 h-0.3l-0.2,0l0.2,0l-2.8,0.9c0,0.2,0,0.6,0.1,1.1c0,0.4,0,1.1,0,1.2v8.1c-0.1,0.6-0.1,0.9-0.1,1.4c0,0,0.1,0.2,0.1,0.3 c0,0.2,0.1,0.5,0.1,0.8c0,0.9-0.6,1.7-1.7,1.7c-1.8,0-1.9-1.7-1.9-2.7V124.3z"/><path d="M258.6,125.8c0-0.2,0-0.3,0-0.5V125c0-0.1-0.1-1.6-0.2-2.1c0-0.1,0-0.3,0-0.5l-1.3-3.1l0,0c-0.1-0.1-0.5-0.8-0.8-0.9 c-0.4,0.2-0.6,0.5-0.8,0.9c-0.1,0.4-0.7,1.5-1,2.2l0-0.1l-0.3,0.6c-0.3,0.8-0.5,1.4-0.6,2.1c-0.1,0.2-0.3,1.3-0.3,1.4 c0,0.1-0.1,0.3-0.1,0.5c-0.1,1-0.2,1.8-1.7,1.8c-1.7,0-1.8-1.5-1.9-2.6c0,0,0-0.1,0-0.2v0.1c-0.1-0.4-0.3-1-0.4-1.6l-0.4-2.2 l-1-8.5c0-0.3,0-0.8,0-1.3c0-0.4,0-0.9,0-1.2v-6.3c0-1.1,0.3-2.4,1.9-2.4c1,0,1.7,0.8,1.7,1.6c0,0.3,0,0.6,0,0.8c0,0.1,0,0.3,0,0.4 v5.5c0,0.1,0,0.5,0,1c0,0.5,0,1.1,0,1.3v0.1l0.7,6.2c0.6-1.4,1.2-2.5,3.1-3.3l0.3-0.1c0.3-0.1,0.5-0.2,0.9-0.2 c1.2,0,2.1,0.6,2.8,1.3l0.1,0.2v0c0.5,0.4,0.9,0.8,1.2,1.5l0,0l1.5,3.3l0.2,0.7l0.3,2.3v1.9c-0.2,1-0.5,1.9-1.8,1.9 c-1.1,0-1.8-0.7-1.8-1.7C258.6,126.3,258.6,126,258.6,125.8z"/><path d="M269.9,126.2c-2.1,0-4.8-1.2-5.5-4.6v-0.4c0-0.1,0-0.3,0-0.4v-0.7c0-2.3,0.3-3.4,1.3-5.1c0.5-0.7,0.9-1.4,1.5-1.9 c0.4-0.4,1.4-1.2,1.6-1.3c0.1,0,1.4-0.8,1.8-1c1.2-0.6,2.5-0.9,3.7-0.9h0.2c0.9,0,2.1-0.1,2.3,1.4c0.3-0.4,0.6-0.8,1.2-0.8 c0.9,0,1.4,0.8,1.7,1.9v1.4c0,0.9,0,2-0.3,3.2c0,0.1-0.2,1-0.2,1v0.4c0,0.8,0.1,1.8,0.2,2.7c0,0.3,0.1,0.5,0.1,0.9 c0.1,0.7,0.3,1.6,0.3,1.8c0,0.1,0.1,0.2,0.2,0.3c0.3,0.3,0.5,0.6,0.5,1.3c0,1.2-0.6,2.2-1.6,2.2c-1.3,0-1.5-1-1.9-2.2 c0,0,0-0.1,0-0.2c-0.2-0.8-0.3-1.5-0.4-2.3C274.8,125,272.2,126.2,269.9,126.2z M276.3,113.4c-0.1,0.1-0.2,0.3-0.4,0.4 c-0.6-0.1-0.9-0.1-1.2-0.1c-0.6,0-1.3,0.1-1.8,0.2c-1.8,0.5-3.6,1.7-4.9,3.7c-0.5,0.8-0.6,1.7-0.6,2.7c0,1.2,1.1,1.8,1.8,2h0.1l0,0 h0.6c1.1,0,2.1-0.5,3.2-1.1v0c1-0.5,1.9-1.7,2.7-3.1v0c0.1-0.3,0.2-0.5,0.3-0.7C276.1,116.2,276.2,114.6,276.3,113.4z M275.8,118.2 c0,0,0-0.1,0-0.1C275.8,118.1,275.8,118.1,275.8,118.2z"/><path d="M285.9,124.3c0-0.1,0-0.4,0-0.6c0-0.3,0.1-0.5,0.1-0.4V116c0-0.1,0-0.6-0.1-1.1c0-0.3,0-0.5,0-0.7l-0.2,0.1 c-0.2,0.1-0.4,0.1-0.3,0.1l-0.4,0.2c-0.3,0.2-0.8,0.4-1.3,0.4c-1,0-1.6-0.6-1.6-1.6v-0.5c0.2-0.5,0.8-1.1,1.3-1.3 c0.8-0.3,1.7-0.8,2.5-1.1v-4.7c0-0.2,0-0.3,0-0.4c0-1,0.1-2.3,1.8-2.3c0.8,0,1.5,0.5,1.7,1.3v0.5c0,0.5,0,0.9-0.1,1.5 c0,1.2-0.4,2.2-0.4,3.3c0.3-0.1,0.8-0.2,1.1-0.3l1.2-0.4h0c0.6-0.2,1.3-0.3,1.9-0.3c0.9,0,1.7,0.6,1.7,1.6c0,1.5-1.3,1.7-2.4,1.8 h-0.3l-0.2,0l0.2,0l-2.8,0.9c0,0.2,0,0.6,0.1,1.1c0,0.4,0,1.1,0,1.2v8.1c-0.1,0.6-0.1,0.9-0.1,1.4c0,0,0.1,0.2,0.1,0.3 c0,0.2,0.1,0.5,0.1,0.8c0,0.9-0.6,1.7-1.7,1.7c-1.8,0-1.9-1.7-1.9-2.7V124.3z"/><path d="M307.8,111.5c0.1-1,0.8-1.9,1.9-1.9c1,0,1.8,0.8,1.8,1.7c0,0.3,0,0.5-0.1,0.8c-0.3,2.4-0.6,4.9-0.9,7.3v1.5l0.8-1.4 c0.5-0.7,1.3-1.9,2.6-1.9c0.4,0,0.5,0.1,0.7,0.1h-0.2c0.1,0,0.2,0,0.3,0c1.2,0.6,1.4,1.3,1.7,2.2l0.2,0.6l0.4,1.7l1.3-3l-0.1,0.1 c0.4-1.9,0.7-3.5,1.1-5.4c0.2-0.6,0.2-0.9,0.2-1.4v-0.1c-0.2-0.3-0.4-0.6-0.4-1c0-0.9,0.7-1.7,1.8-1.7c0.6,0,1,0.3,1.4,0.7 c0.6,0.5,0.7,1.3,0.7,1.8v0.3c-0.1,0.5-0.3,2-0.3,2.1l-1.2,5.5l-1.4,3.3l-0.3,0.6c-0.6,1-1.2,2.3-2.4,2.9c-0.4,0.1-0.7,0.1-1,0.1 h-0.1c-1.1,0-1.6-0.6-2-1.4c-0.4-1-0.6-1.9-0.9-3l-1.8,3.1c-0.5,0.9-1.4,1.3-2.3,1.3c-1.4,0-2.3-1.5-2.3-2.8V119L307.8,111.5z"/><path d="M325.5,113.7L325.5,113.7c1-1.7,2-3,3.3-3.8c0.5-0.3,0.9-0.3,1.4-0.3c0.8,0,1.7,0.1,2.5,0.7c1.3,0.8,3.1,2.8,3.1,5.1 c0,2.6-1.5,3.9-3.1,4.8h0c-0.6,0.4-1.2,0.7-1.9,0.7h-2.7l0.2,0.5c0,0,0.1,0.1,0,0.1c1,2.1,2.7,2.7,4.3,2.7c1.3,0,2.7-0.6,3.9-1.5 c0.3-0.2,0.5-0.5,0.8-0.8l0.4-0.4c0.1-0.1,0.6-0.4,0.8-0.4h0.5c0.7,0,1.1,1,1.1,1.7c0,0.9-0.4,1.4-0.8,1.8l-0.3,0.3 c-0.8,0.9-1.7,1.5-2.5,1.9c-1.2,0.6-2.6,1-4,1c-4.1,0-7.8-3.2-7.8-9.5C324.8,116.5,325.1,115.4,325.5,113.7z M327.7,116.9v0.6v0.3 l-1.1-0.5c0.3-0.1,0.5-0.3,0.9-0.3H327.7z M327.7,116.9c0.5,0,0.3,0.2,0.5,0.2c0,0,0.1,0.1,0.1,0.1h2.3c0,0,0,0,0,0h0.1l0.8-0.4 l0.4-0.1c0,0-0.2,0-0.1,0l0.5-0.3c0.3-0.2,0.6-0.5,0.6-0.9c0-1.5-1.7-2.4-2.6-2.4H330c-0.7,0.4-1.6,1.3-2,2.2 C327.9,115.8,327.8,116.4,327.7,116.9z M330.7,117.2L330.7,117.2c0.1,0,0.2,0,0.2,0L330.7,117.2z"/><path d="M358,126.2c-2.1,0-4.8-1.2-5.5-4.6v-0.4c0-0.1,0-0.3,0-0.4v-0.7c0-2.3,0.3-3.4,1.3-5.1c0.5-0.7,0.9-1.4,1.5-1.9 c0.4-0.4,1.4-1.2,1.6-1.3c0.1,0,1.4-0.8,1.8-1c1.2-0.6,2.5-0.9,3.7-0.9h0.2c0.9,0,2.1-0.1,2.3,1.4c0.3-0.4,0.6-0.8,1.2-0.8 c0.9,0,1.4,0.8,1.7,1.9v1.4c0,0.9,0,2-0.3,3.2c0,0.1-0.2,1-0.2,1v0.4c0,0.8,0.1,1.8,0.2,2.7c0,0.3,0.1,0.5,0.1,0.9 c0.1,0.7,0.3,1.6,0.3,1.8c0,0.1,0.1,0.2,0.2,0.3c0.3,0.3,0.5,0.6,0.5,1.3c0,1.2-0.6,2.2-1.6,2.2c-1.3,0-1.5-1-1.9-2.2 c0,0,0-0.1,0-0.2c-0.2-0.8-0.3-1.5-0.4-2.3C362.8,125,360.2,126.2,358,126.2z M364.4,113.4c-0.1,0.1-0.2,0.3-0.4,0.4 c-0.6-0.1-0.9-0.1-1.2-0.1c-0.6,0-1.3,0.1-1.8,0.2c-1.8,0.5-3.6,1.7-4.9,3.7c-0.5,0.8-0.6,1.7-0.6,2.7c0,1.2,1.1,1.8,1.8,2h0.1l0,0 h0.6c1.1,0,2.1-0.5,3.2-1.1v0c1-0.5,1.9-1.7,2.7-3.1v0c0.1-0.3,0.2-0.5,0.3-0.7C364.2,116.2,364.2,114.6,364.4,113.4z M363.9,118.2 c0,0,0-0.1,0-0.1C363.9,118.1,363.9,118.1,363.9,118.2z"/><path d="M370.2,116.9v-5.6c0-0.9,1.1-1.4,1.8-1.4c0.6,0,1.2,0.3,1.4,0.7c0.2,0.2,0.3,0.5,0.3,0.5v0.5c1.2-0.9,2.7-1.6,4.3-1.6 c0.9,0,1.6,0.2,2.4,0.7c1.2,0.7,2.7,2.9,2.7,4.2c0,0.9-0.7,1.7-1.8,1.7c-1.5,0-1.7-1-2-1.9v0c0-0.1-0.2-0.3-0.3-0.4l-0.2-0.3 c-0.4-0.3-0.5-0.5-0.9-0.5c-0.9,0-2.1,0.8-2.6,1.4l-0.8,0.6l-0.6,0.6c0,0,0,0.1-0.1,0.1v0.5l0.6,7.2c0,0,0.1,0.2,0.1,0.2 c0.2,0.3,0.4,0.5,0.4,0.9v1.2c0,1-1.2,1.4-1.8,1.4c-1.3,0-1.9-1.2-2.1-2.3l-0.6-7.3l0,0.1L370.2,116.9z"/><path d="M385.3,113.7L385.3,113.7c1-1.7,2-3,3.3-3.8c0.5-0.3,0.9-0.3,1.4-0.3c0.8,0,1.7,0.1,2.5,0.7c1.3,0.8,3.1,2.8,3.1,5.1 c0,2.6-1.5,3.9-3.1,4.8h0c-0.6,0.4-1.2,0.7-1.9,0.7h-2.7l0.2,0.5c0,0,0.1,0.1,0,0.1c1,2.1,2.7,2.7,4.3,2.7c1.3,0,2.7-0.6,3.9-1.5 c0.3-0.2,0.5-0.5,0.8-0.8l0.4-0.4c0.1-0.1,0.6-0.4,0.8-0.4h0.5c0.7,0,1.1,1,1.1,1.7c0,0.9-0.4,1.4-0.8,1.8l-0.3,0.3 c-0.8,0.9-1.7,1.5-2.5,1.9c-1.2,0.6-2.6,1-4,1c-4.1,0-7.8-3.2-7.8-9.5C384.6,116.5,384.9,115.4,385.3,113.7z M387.5,116.9v0.6v0.3 l-1.1-0.5c0.3-0.1,0.5-0.3,0.9-0.3H387.5z M387.5,116.9c0.5,0,0.3,0.2,0.5,0.2c0,0,0.1,0.1,0.1,0.1h2.3c0,0,0,0,0,0h0.1l0.8-0.4 l0.4-0.1c0,0-0.2,0-0.1,0l0.5-0.3c0.3-0.2,0.6-0.5,0.6-0.9c0-1.5-1.7-2.4-2.6-2.4h-0.3c-0.7,0.4-1.6,1.3-2,2.2 C387.7,115.8,387.6,116.4,387.5,116.9z M390.5,117.2L390.5,117.2c0.1,0,0.2,0,0.2,0L390.5,117.2z"/><path d="M415,109.2c1.2,0,1.9,0.6,1.9,1.4c0,1-0.7,1.2-1.6,1.4c0,0-0.1,0-0.1,0c0,0-0.3,0.1-0.4,0.1c-0.2,0.1-0.4,0.1-0.8,0.1 c-1.1,0-1.9-0.6-1.9-1.4C412.1,109.9,413.9,109.2,415,109.2z M412.8,115.1v-0.4c0-0.9,0.1-2,2-2c0.8,0,1.8,0.5,1.8,1.2v1.4 c0.4,2.9,1,6.3,1.4,9.2c0,0,0,0.1,0,0.1v0v-0.1c0,0,0,0,0,0.1c0.2,0.2,0.4,0.3,0.4,0.7v0.8c0,0.8-1,1.3-1.8,1.3 c-0.8,0-1.6-0.4-1.9-0.9l-0.4-1.5L412.8,115.1z"/><path d="M421.1,116.2c0-0.5,0.1-1.1,0.1-1.7c0-0.2-0.1-0.4-0.1-0.5c-0.1-0.3-0.1-0.6-0.1-0.9c0-0.9,0.8-1.5,1.7-1.5 c1.3,0,1.9,0.9,1.9,1.8v0.1c1-1,2.1-1.8,3.7-1.8c1.9,0,3.2,1.4,3.5,2.7l0.8,3.2l0.5,4.4v3.3c0.1,0.2,0.1,0.3,0.1,0.6 c0,0.9-0.7,1.5-1.8,1.5c-0.7,0-1.9-0.7-1.9-1.4v-3.8L429,118l0,0l-0.7-2.8c0,0-0.1-0.2-0.1-0.3h0h0c-0.6,0.3-1.1,0.8-1.6,1.3 l-0.7,0.8l-0.3,0.3c0,0.1,0,0.1,0,0.1c-0.2,0.4-0.3,0.7-0.5,1.2l-0.3,0.8l-0.1,0.2l0.5,5.1c0,0,0,0,0.1,0c0.2,0.2,0.4,0.4,0.4,0.8 c0,1-0.5,1.9-1.9,1.9c-1,0-1.7-0.6-1.9-1.5l-0.2-0.8c0-0.1-0.1-0.3-0.1-0.4L421,119v-1.1C421,117.3,421,116.7,421.1,116.2z"/><path d="M451.4,124.9c-0.3-0.5-0.5-0.9-0.6-1.3v0c-0.1-0.3-0.3-0.6-0.3-0.7l-1.3-5.2c-0.5,0-0.9,0.1-1.3,0.2l0.1,0 c-0.4,0.2-0.4,0.2-0.8,0.2c-1,0-1.8-0.6-1.8-1.7c0-0.9,0.6-1.5,1.5-1.8c0.1,0,0.6-0.1,1.1-0.1l0.9-0.1l0.1-4.4 c0-0.7,0.2-1.4,0.4-2.2c0,0,0.1-0.4,0.1-0.8c0.4-1.2,1-2.3,1.8-3.2c0.6-0.5,1.4-0.8,2.3-0.8c0.4,0,0.9,0,1.5,0.4l0-0.1l1,0.6 l0.5,0.4c0.9,0.7,2.3,2.6,2.6,3.7c0,0,0,0.3,0,0.6v0.1c0,0.9-0.8,1.6-1.8,1.6c-0.8,0-1-0.3-1.4-0.6c-0.3-0.3-0.4-0.7-0.4-1 c-0.5-1-1-1.7-2.1-2.3c-0.1,0.1-0.1,0.5-0.2,0.6c-0.8,2.1-0.9,4.2-0.9,6.3v0.7c1.4-0.2,2.8-0.4,4.4-0.4h1.1 c0.8,0.1,1.5,0.8,1.5,1.6c0,0.8-0.6,1.4-1.5,1.6c-1.4,0-3,0.2-4.3,0.4c-0.3,0-1-0.3-1.1-0.4v0.3c0,0.1,0.5,2.3,0.7,3 c0.1,0.4,0.7,2.4,0.9,2.9c0,0,0,0.1,0,0.1l0.4,0.7l0.6,1c0.5,0.4,0.7,0.7,0.7,1.4c0,1-0.7,1.6-1.8,1.6c-0.6,0-1.5-0.4-1.8-1 L451.4,124.9z M447.9,117.9L447.9,117.9C447.9,117.9,447.9,117.9,447.9,117.9z M449.2,117.6l-0.1-0.4 C449.1,117.3,449.1,117.5,449.2,117.6z M449.5,117.7c0.1,0,0.3,0,0.3,0H449.5z"/><path d="M466.7,126.2c-2.1,0-4.8-1.2-5.5-4.6v-0.4c0-0.1,0-0.3,0-0.4v-0.7c0-2.3,0.3-3.4,1.3-5.1c0.5-0.7,0.9-1.4,1.5-1.9 c0.4-0.4,1.4-1.2,1.6-1.3c0.1,0,1.4-0.8,1.8-1c1.2-0.6,2.5-0.9,3.7-0.9h0.2c0.9,0,2.1-0.1,2.3,1.4c0.3-0.4,0.6-0.8,1.2-0.8 c0.9,0,1.4,0.8,1.7,1.9v1.4c0,0.9,0,2-0.3,3.2c0,0.1-0.2,1-0.2,1v0.4c0,0.8,0.1,1.8,0.2,2.7c0,0.3,0.1,0.5,0.1,0.9 c0.1,0.7,0.3,1.6,0.3,1.8c0,0.1,0.1,0.2,0.2,0.3c0.3,0.3,0.5,0.6,0.5,1.3c0,1.2-0.6,2.2-1.6,2.2c-1.3,0-1.5-1-1.9-2.2 c0,0,0-0.1,0-0.2c-0.2-0.8-0.3-1.5-0.4-2.3C471.5,125,468.9,126.2,466.7,126.2z M473,113.4c-0.1,0.1-0.2,0.3-0.4,0.4 c-0.6-0.1-0.9-0.1-1.2-0.1c-0.6,0-1.3,0.1-1.8,0.2c-1.8,0.5-3.6,1.7-4.9,3.7c-0.5,0.8-0.6,1.7-0.6,2.7c0,1.2,1.1,1.8,1.8,2h0.1l0,0 h0.6c1.1,0,2.1-0.5,3.2-1.1v0c1-0.5,1.9-1.7,2.7-3.1v0c0.1-0.3,0.2-0.5,0.3-0.7C472.9,116.2,472.9,114.6,473,113.4z M472.6,118.2 c0,0,0-0.1,0-0.1C472.6,118.1,472.6,118.1,472.6,118.2z"/><path d="M479.7,114c-0.4-0.5-0.8-1.4-0.8-2c0-0.9,0.8-1.7,1.9-1.7c1.2,0,1.5,0.8,1.9,1.5v0.1v-0.1c0,0.1,0.2,0.4,0.2,0.6l0.3,0.5v0 l3.1,7.7c0.6-2.7,1.3-5.4,2-8.1c0-0.1,0.1-0.7,0.3-0.9l0.4-1c0.4-0.7,1-1,1.7-1c0.6,0,1.8,0.5,1.8,1.4v0.8l-0.5,1.4v-0.1l-2.8,11.7 l0,0l-0.3,1.6c-0.2,1-1.3,1.3-2.1,1.3c-1.4,0-1.9-1.2-2.3-1.9L479.7,114L479.7,114z"/><path d="M494.2,124.2c-0.2-1.2-0.4-2.5-0.4-3.9c0-3.2,0.9-6.5,2.8-9v0c0.3-0.4,0.9-1,1.3-1.1h0.2c0.1,0,0.1,0,0.1,0l0.5-0.2 c0.5-0.2,1-0.4,1.7-0.4c2.8,0,5,3.6,5.5,6l0,0c0.3,0.9,0.3,1.8,0.3,2.6c0,1.4-0.1,2.6-0.6,3.9v0c-0.3,0.8-0.7,1.4-1.1,2.1 c-1.5,2.1-3.2,3.6-5.9,3.6c-2.1,0-3.6-1.5-4.4-3.4L494.2,124.2z M497.4,123.5l0.1,0.2c0.4,0.5,0.8,0.8,1.3,0.8 c0.9,0,1.8-0.6,2.4-1.3c0.6-0.7,1.2-1.7,1.5-2.4c0.3-0.8,0.4-1.7,0.4-2.5c0-0.6,0-1.2-0.2-1.9c-0.2-1-1.3-3.4-2.3-3.4 c-0.4,0-0.6,0.1-0.9,0.3c-0.9,0.5-1.3,1.5-1.8,2.6c-0.8,0.8-1,3.3-1,4.5c0,1,0.1,1.8,0.3,2.9L497.4,123.5z"/><path d="M507.6,114.2c0-0.4,0.1-2.2,0.1-2.5c0.2-1,0.6-2.1,2-2.1c1,0,1.7,0.8,1.7,1.9v0.3c-0.2,1.3-0.3,2.4-0.3,3.6v1.8 c0,0.1,0,0.3,0.1,0.7c0,0.3,0.1,1,0.1,0.9c0,0,0,0.2,0,0.3c0.2,0.6,0.6,2.1,0.6,2.4c0.3,0.9,0.9,2.4,1.8,2.4c1.2,0,1.8-2.6,1.9-3.7 c0.1-0.3,0.2-0.9,0.2-1v-4c0,0,0-0.2,0-0.5l-0.1-1.3c0-0.2-0.1-0.5-0.2-0.8c-0.1-0.4-0.4-0.8-0.4-1.4c0-1,0.5-1.8,1.8-1.8 c0.2,0,0.6,0,1.1,0.3c1,0.9,1.2,2.4,1.4,3.6c0,0.3,0,0.6,0.1,1c0,0.6,0.1,1.3,0.1,1.4v1.4c0,3.3-0.5,7-3.2,9.4 c-0.7,0.6-1.7,1-2.6,1c-5.4,0-6.3-8.5-6.3-12.1V114.2z"/><path d="M521.6,116.9v-5.6c0-0.9,1.1-1.4,1.8-1.4c0.6,0,1.2,0.3,1.4,0.7c0.2,0.2,0.3,0.5,0.3,0.5v0.5c1.2-0.9,2.7-1.6,4.3-1.6 c0.9,0,1.6,0.2,2.4,0.7c1.2,0.7,2.7,2.9,2.7,4.2c0,0.9-0.7,1.7-1.8,1.7c-1.5,0-1.7-1-2-1.9v0c0-0.1-0.2-0.3-0.3-0.4l-0.2-0.3 c-0.4-0.3-0.5-0.5-0.9-0.5c-0.9,0-2.1,0.8-2.6,1.4l-0.8,0.6l-0.6,0.6c0,0,0,0.1-0.1,0.1v0.5l0.6,7.2c0,0,0.1,0.2,0.1,0.2 c0.2,0.3,0.4,0.5,0.4,0.9v1.2c0,1-1.2,1.4-1.8,1.4c-1.3,0-1.9-1.2-2.1-2.3l-0.6-7.3l0,0.1L521.6,116.9z"/><path d="M547.1,124.2c-0.2-1.2-0.4-2.5-0.4-3.9c0-3.2,0.9-6.5,2.8-9v0c0.3-0.4,0.9-1,1.3-1.1h0.2c0.1,0,0.1,0,0.1,0l0.5-0.2 c0.5-0.2,1-0.4,1.7-0.4c2.8,0,5,3.6,5.5,6l0,0c0.3,0.9,0.3,1.8,0.3,2.6c0,1.4-0.1,2.6-0.6,3.9v0c-0.3,0.8-0.7,1.4-1.1,2.1 c-1.5,2.1-3.2,3.6-5.9,3.6c-2.1,0-3.6-1.5-4.4-3.4L547.1,124.2z M550.3,123.5l0.1,0.2c0.4,0.5,0.8,0.8,1.3,0.8 c0.9,0,1.8-0.6,2.4-1.3c0.6-0.7,1.2-1.7,1.5-2.4c0.3-0.8,0.4-1.7,0.4-2.5c0-0.6,0-1.2-0.2-1.9c-0.2-1-1.3-3.4-2.3-3.4 c-0.4,0-0.6,0.1-0.9,0.3c-0.9,0.5-1.3,1.5-1.8,2.6c-0.8,0.8-1,3.3-1,4.5c0,1,0.1,1.8,0.3,2.9L550.3,123.5z"/><path d="M566.5,124.9c-0.3-0.5-0.5-0.9-0.6-1.3v0c-0.1-0.3-0.3-0.6-0.3-0.7l-1.3-5.2c-0.5,0-0.9,0.1-1.3,0.2l0.1,0 c-0.4,0.2-0.4,0.2-0.8,0.2c-1,0-1.8-0.6-1.8-1.7c0-0.9,0.6-1.5,1.5-1.8c0.1,0,0.6-0.1,1.1-0.1l0.9-0.1l0.1-4.4 c0-0.7,0.2-1.4,0.4-2.2c0,0,0.1-0.4,0.1-0.8c0.4-1.2,1-2.3,1.8-3.2c0.6-0.5,1.4-0.8,2.3-0.8c0.4,0,0.9,0,1.5,0.4l0-0.1l1,0.6 l0.5,0.4c0.9,0.7,2.3,2.6,2.6,3.7c0,0,0,0.3,0,0.6v0.1c0,0.9-0.8,1.6-1.8,1.6c-0.8,0-1-0.3-1.4-0.6c-0.3-0.3-0.4-0.7-0.4-1 c-0.5-1-1-1.7-2.1-2.3c-0.1,0.1-0.1,0.5-0.2,0.6c-0.8,2.1-0.9,4.2-0.9,6.3v0.7c1.4-0.2,2.8-0.4,4.4-0.4h1.1 c0.8,0.1,1.5,0.8,1.5,1.6c0,0.8-0.6,1.4-1.5,1.6c-1.4,0-3,0.2-4.3,0.4c-0.3,0-1-0.3-1.1-0.4v0.3c0,0.1,0.5,2.3,0.7,3 c0.1,0.4,0.7,2.4,0.9,2.9c0,0,0,0.1,0,0.1l0.4,0.7l0.6,1c0.5,0.4,0.7,0.7,0.7,1.4c0,1-0.7,1.6-1.8,1.6c-0.6,0-1.5-0.4-1.8-1 L566.5,124.9z M563,117.9L563,117.9C563.1,117.9,563,117.9,563,117.9z M564.3,117.6l-0.1-0.4C564.3,117.3,564.3,117.5,564.3,117.6z M564.6,117.7c0.1,0,0.3,0,0.3,0H564.6z"/><path d="M589.8,109.2c1.2,0,1.9,0.6,1.9,1.4c0,1-0.7,1.2-1.6,1.4c0,0-0.1,0-0.1,0c0,0-0.3,0.1-0.4,0.1c-0.2,0.1-0.4,0.1-0.8,0.1 c-1.1,0-1.9-0.6-1.9-1.4C586.9,109.9,588.6,109.2,589.8,109.2z M587.6,115.1v-0.4c0-0.9,0.1-2,2-2c0.8,0,1.8,0.5,1.8,1.2v1.4 c0.4,2.9,1,6.3,1.4,9.2c0,0,0,0.1,0,0.1v0v-0.1c0,0,0,0,0,0.1c0.2,0.2,0.4,0.3,0.4,0.7v0.8c0,0.8-1,1.3-1.8,1.3 c-0.8,0-1.6-0.4-1.9-0.9l-0.4-1.5L587.6,115.1z"/><path d="M599.5,124.3c0-0.1,0-0.4,0-0.6c0-0.3,0.1-0.5,0.1-0.4V116c0-0.1,0-0.6-0.1-1.1c0-0.3,0-0.5,0-0.7l-0.2,0.1 c-0.2,0.1-0.4,0.1-0.3,0.1l-0.4,0.2c-0.3,0.2-0.8,0.4-1.3,0.4c-1,0-1.6-0.6-1.6-1.6v-0.5c0.2-0.5,0.8-1.1,1.3-1.3 c0.8-0.3,1.7-0.8,2.5-1.1v-4.7c0-0.2,0-0.3,0-0.4c0-1,0.1-2.3,1.8-2.3c0.8,0,1.5,0.5,1.7,1.3v0.5c0,0.5,0,0.9-0.1,1.5 c0,1.2-0.4,2.2-0.4,3.3c0.3-0.1,0.8-0.2,1.1-0.3l1.2-0.4h0c0.6-0.2,1.3-0.3,1.9-0.3c0.9,0,1.7,0.6,1.7,1.6c0,1.5-1.3,1.7-2.4,1.8 h-0.3l-0.2,0l0.2,0l-2.8,0.9c0,0.2,0,0.6,0.1,1.1c0,0.4,0,1.1,0,1.2v8.1c-0.1,0.6-0.1,0.9-0.1,1.4c0,0,0.1,0.2,0.1,0.3 c0,0.2,0.1,0.5,0.1,0.8c0,0.9-0.6,1.7-1.7,1.7c-1.8,0-1.9-1.7-1.9-2.7V124.3z"/><path d="M612.2,124.4L612.2,124.4l0.3-0.3l0.3-0.3c0.4-0.3,0.5-0.5,0.9-0.9l0.3-0.4l0.7-1.2c0.5-0.7,0.7-1.5,0.8-2.3 c0-0.1,0-0.3,0-0.3c0.1-0.5,0.1-0.8,0.1-1.2c0-0.9,0-1.8-0.3-2.7l-0.8-2.4l-2.2-4.5l0,0l0-0.1l-1.2-1.7l-0.3-0.3l-0.4-0.4l0.1,0.1 c-0.4-0.3-0.4-0.6-0.4-0.9c0-0.5,0.4-1.4,1.3-1.4h0.5c0.1,0,0.4,0.1,0.8,0.3l0.3,0.3c0.2,0.3,0.5,0.5,0.6,0.8l0-0.1l1.2,1.8 l2.7,5.2c0.1,0.4,0.3,0.7,0.4,1.1l0.1,0.4v0c0.5,1.6,0.8,3,0.8,4.7c0,0.8,0,1.5-0.2,2.4c-0.1,0.4-0.3,1.5-0.5,1.9 c-0.4,0.9-0.9,1.7-1.4,2.4l-0.3,0.5l0,0c-0.4,0.6-1.1,1.2-1.7,1.7l-0.5,0.5c-0.3,0.3-0.7,0.6-1.2,0.6c-0.9,0-1.5-0.6-1.5-1.5 C611.3,125.1,611.7,124.8,612.2,124.4z M612.3,107.9L612.3,107.9L612.3,107.9L612.3,107.9z"/></g></svg>