<svg xmlns="http://www.w3.org/2000/svg" xmlns:xlink="http://www.w3.org/1999/xlink" id="Layer_1" x="0" y="0" version="1.1" viewBox="0 0 700 150" xml:space="preserve" style="enable-background:new 0 0 700 150"><g><path d="M82.6,23.3l-0.4-3.7v-0.3c0-0.9,0.4-1.6,1.5-1.6c0.6,0,1.3,0.4,1.4,1.1l0.3,2.2l0.3,2.1v0l0.3,1.9l0.4,2.3l0-0.1 c0.9,3,1.8,5.9,2.8,8.8l0.2-0.9l1.4-4.1c0.2-0.5,1.2-2.1,1.9-2.2h0.5c1.7,0,2.1,1.5,2.5,2.8l0.1,0.5v0.2l0.3,2 c0,0.3,0.1,0.5,0.2,0.7l0.1-1c0,0,0-0.1,0-0.1l0.2-1.9l0.1-4l0.6-4.7l0.8-3.2c0-0.1,0.1-0.2,0.1-0.2l0.6-1.8l0.1-0.1 c0-0.2,0.1-0.4,0.3-0.5c0,0,0.1-0.2,0.2-0.4l0.2-0.3c0.3-0.4,0.6-0.6,1.2-0.6c0.9,0,1.4,0.6,1.4,1.5c0,0.2,0,0.5-0.2,0.7 c-0.1,0.2-0.4,0.7-0.4,0.8h0l-0.4,1.1l-0.8,3.2l0-0.1l-0.6,4.9v0l-0.2,5c0,0.2-0.1,1-0.2,1.3l0,0.2c0,0.1-0.1,0.4-0.1,0.5 c-0.1,0.5-0.3,1.5-0.1,1.3c0,0.1,0,0.1,0,0.2s-0.1,0.3-0.1,0.4l-0.1,0.2v0c-0.3,1.2-0.7,2.8-2.3,2.8c-0.9,0-1.7-1-2-1.7l-0.3-0.5 l0.1,0.1l-0.3-0.6c-0.1-0.1-0.1-0.3-0.1-0.4c-0.4-1.2-0.6-2.3-0.7-3.5c-0.3,0.7-0.5,1.5-0.7,2.1l0-0.1c-0.3,1.1-0.6,2.2-0.8,3.3 c-0.2,0.8-0.9,2.4-2.1,2.4c-0.7,0-1.4-0.4-1.8-1.1c-0.1-0.3-0.6-1.1-0.6-1.1l-3.3-10.5L82.6,23.3z"/><path d="M103.8,27.3L103.8,27.3c1-1.7,2-3,3.3-3.8c0.5-0.3,0.9-0.3,1.4-0.3c0.8,0,1.7,0.1,2.5,0.7c1.3,0.8,3.1,2.8,3.1,5.1 c0,2.6-1.5,3.9-3.1,4.8h0c-0.6,0.4-1.2,0.7-1.9,0.7h-2.7l0.2,0.5c0,0,0.1,0.1,0,0.1c1,2.1,2.7,2.7,4.3,2.7c1.3,0,2.7-0.6,3.9-1.5 c0.3-0.2,0.5-0.5,0.8-0.8l0.4-0.4c0.1-0.1,0.6-0.4,0.8-0.4h0.5c0.7,0,1.1,1,1.1,1.7c0,0.9-0.4,1.4-0.8,1.8l-0.3,0.3 c-0.8,0.9-1.7,1.5-2.5,1.9c-1.2,0.6-2.6,1-4,1c-4.1,0-7.8-3.2-7.8-9.5C103.1,30.1,103.4,29,103.8,27.3z M106,30.5v0.6v0.3l-1.1-0.5 c0.3-0.1,0.5-0.3,0.9-0.3H106z M106,30.5c0.5,0,0.3,0.2,0.5,0.2c0,0,0.1,0.1,0.1,0.1h2.3c0,0,0,0,0,0h0.1l0.8-0.4l0.4-0.1 c0,0-0.2,0-0.1,0l0.5-0.3c0.3-0.2,0.6-0.5,0.6-0.9c0-1.5-1.7-2.4-2.6-2.4h-0.3c-0.7,0.4-1.6,1.3-2,2.2 C106.2,29.4,106.1,30,106,30.5z M109,30.8L109,30.8c0.1,0,0.2,0,0.2,0L109,30.8z"/><path d="M131.6,25.1c0.1-1,0.8-1.9,1.9-1.9c1,0,1.8,0.8,1.8,1.7c0,0.3,0,0.5-0.1,0.8c-0.3,2.4-0.6,4.9-0.9,7.3v1.5l0.8-1.4 c0.5-0.7,1.3-1.9,2.6-1.9c0.4,0,0.5,0.1,0.7,0.1h-0.2c0.1,0,0.2,0,0.3,0c1.2,0.6,1.4,1.3,1.7,2.2l0.2,0.6l0.4,1.7l1.3-3L142,33 c0.4-1.9,0.7-3.5,1.1-5.4c0.2-0.6,0.2-0.9,0.2-1.4V26c-0.2-0.3-0.4-0.6-0.4-1c0-0.9,0.7-1.7,1.8-1.7c0.6,0,1,0.3,1.4,0.7 c0.6,0.5,0.7,1.3,0.7,1.8v0.3c-0.1,0.5-0.3,2-0.3,2.1l-1.2,5.5l-1.4,3.3l-0.3,0.6c-0.6,1-1.2,2.3-2.4,2.9c-0.4,0.1-0.7,0.1-1,0.1 h-0.1c-1.1,0-1.6-0.6-2-1.4c-0.4-1-0.6-1.9-0.9-3l-1.8,3.1c-0.5,0.9-1.4,1.3-2.3,1.3c-1.4,0-2.3-1.5-2.3-2.8v-5.4L131.6,25.1z"/><path d="M151.3,22.8c1.2,0,1.9,0.6,1.9,1.4c0,1-0.7,1.2-1.6,1.4c0,0-0.1,0-0.1,0c0,0-0.3,0.1-0.4,0.1c-0.2,0.1-0.4,0.1-0.8,0.1 c-1.1,0-1.9-0.6-1.9-1.4C148.4,23.5,150.1,22.8,151.3,22.8z M149.1,28.7v-0.4c0-0.9,0.1-2,2-2c0.8,0,1.8,0.5,1.8,1.2v1.4 c0.4,2.9,1,6.3,1.4,9.2c0,0,0,0.1,0,0.1v0v-0.1c0,0,0,0,0,0.1c0.2,0.2,0.4,0.3,0.4,0.7v0.8c0,0.8-1,1.3-1.8,1.3 c-0.8,0-1.6-0.4-1.9-0.9l-0.4-1.5L149.1,28.7z"/><path d="M157,26v-6.6l0.2-1.5c0.1-0.8,1-1.2,1.7-1.2c1.1,0,1.8,0.6,1.8,1.5c0,0.5,0,0.8-0.1,1.2c0,0.2,0,0.4-0.1,0.5v5.6 c0,0.4,0,1,0.1,1.5c0.1,1.3,0.2,2.9,0.3,3.2l0.3,2.1v7.6c0,0.5-0.9,1.3-1.3,1.3h-0.7c-0.5,0-1.4-0.8-1.4-1.3v-7.1L157,26z"/><path d="M161.8,26v-6.6l0.2-1.5c0.1-0.8,1-1.2,1.7-1.2c1.1,0,1.8,0.6,1.8,1.5c0,0.5,0,0.8-0.1,1.2c0,0.2,0,0.4-0.1,0.5v5.6 c0,0.4,0,1,0.1,1.5c0.1,1.3,0.2,2.9,0.3,3.2l0.3,2.1v7.6c0,0.5-0.9,1.3-1.3,1.3h-0.7c-0.5,0-1.4-0.8-1.4-1.3v-7.1L161.8,26z"/><path d="M183,24.6L183,24.6c0.9-0.6,1.9-1.2,3.1-1.2c1.1,0,3.5,0.5,3.5,2.5c0,1.2-0.7,1.9-1.6,1.9h-0.4c-0.5-0.3-0.9-0.5-1.4-0.5 c-0.6,0-1.2,0.3-1.7,0.8c-1.7,1.4-3.6,3.5-3.6,6.3c0,2.3,2.8,3,4.2,3h0.6c0.4,0,2.6-0.2,3.2-0.3c1-0.2,2.3-0.5,3.3-0.8h0.4 c0.8,0,1.5,0.8,1.5,1.9c0,0.7-0.4,1.6-1.2,1.9h0c-2.6,0.8-5.1,1.2-7.8,1.2h-1.2c-0.8,0-1.4-0.3-2.1-0.5c-2.4-1-4.4-2.8-4.4-6.3 C177.7,30,180.2,26.5,183,24.6z"/><path d="M196.3,37.8c-0.2-1.2-0.4-2.5-0.4-3.9c0-3.2,0.9-6.5,2.8-9v0c0.3-0.4,0.9-1,1.3-1.1h0.2c0.1,0,0.1,0,0.1,0l0.5-0.2 c0.5-0.2,1-0.4,1.7-0.4c2.8,0,5,3.6,5.5,6l0,0c0.3,0.9,0.3,1.8,0.3,2.6c0,1.4-0.1,2.6-0.6,3.9v0c-0.3,0.8-0.7,1.4-1.1,2.1 c-1.5,2.1-3.2,3.6-5.9,3.6c-2.1,0-3.6-1.5-4.4-3.4L196.3,37.8z M199.5,37.1l0.1,0.2c0.4,0.5,0.8,0.8,1.3,0.8c0.9,0,1.8-0.6,2.4-1.3 c0.6-0.7,1.2-1.7,1.5-2.4c0.3-0.8,0.4-1.7,0.4-2.5c0-0.6,0-1.2-0.2-1.9c-0.2-1-1.3-3.4-2.3-3.4c-0.4,0-0.6,0.1-0.9,0.3 c-0.9,0.5-1.3,1.5-1.8,2.6c-0.8,0.8-1,3.3-1,4.5c0,1,0.1,1.8,0.3,2.9L199.5,37.1z"/><path d="M209.9,29.8c0-0.5,0.1-1.1,0.1-1.7c0-0.2-0.1-0.4-0.1-0.5c-0.1-0.3-0.1-0.6-0.1-0.9c0-0.9,0.8-1.5,1.7-1.5 c1.3,0,1.9,0.9,1.9,1.8V27c1-1,2.1-1.8,3.7-1.8c1.9,0,3.2,1.4,3.5,2.7l0.8,3.2l0.5,4.4v3.3c0.1,0.2,0.1,0.3,0.1,0.6 c0,0.9-0.7,1.5-1.8,1.5c-0.7,0-1.9-0.7-1.9-1.4v-3.8l-0.6-4.2l0,0l-0.7-2.8c0,0-0.1-0.2-0.1-0.3h0h0c-0.6,0.3-1.1,0.8-1.6,1.3 l-0.7,0.8l-0.3,0.3c0,0.1,0,0.1,0,0.1c-0.2,0.4-0.3,0.7-0.5,1.2l-0.3,0.8l-0.1,0.2l0.5,5.1c0,0,0,0,0.1,0c0.2,0.2,0.4,0.4,0.4,0.8 c0,1-0.5,1.9-1.9,1.9c-1,0-1.7-0.6-1.9-1.5l-0.2-0.8c0-0.1-0.1-0.3-0.1-0.4l-0.5-5.8v-1.1C209.9,30.9,209.9,30.3,209.9,29.8z"/><path d="M227.4,37.9c0-0.1,0-0.4,0-0.6c0-0.3,0.1-0.5,0.1-0.4v-7.3c0-0.1,0-0.6-0.1-1.1c0-0.3,0-0.5,0-0.7l-0.2,0.1 c-0.2,0.1-0.4,0.1-0.3,0.1l-0.4,0.2c-0.3,0.2-0.8,0.4-1.3,0.4c-1,0-1.6-0.6-1.6-1.6v-0.5c0.2-0.5,0.8-1.1,1.3-1.3 c0.8-0.3,1.7-0.8,2.5-1.1v-4.7c0-0.2,0-0.3,0-0.4c0-1,0.1-2.3,1.8-2.3c0.8,0,1.5,0.5,1.7,1.3v0.5c0,0.5,0,0.9-0.1,1.5 c0,1.2-0.4,2.2-0.4,3.3c0.3-0.1,0.8-0.2,1.1-0.3l1.2-0.4h0c0.6-0.2,1.3-0.3,1.9-0.3c0.9,0,1.7,0.6,1.7,1.6c0,1.5-1.3,1.7-2.4,1.8 h-0.3l-0.2,0l0.2,0l-2.8,0.9c0,0.2,0,0.6,0.1,1.1c0,0.4,0,1.1,0,1.2v8.1c-0.1,0.6-0.1,0.9-0.1,1.4c0,0,0.1,0.2,0.1,0.3 c0,0.2,0.1,0.5,0.1,0.8c0,0.9-0.6,1.7-1.7,1.7c-1.8,0-1.9-1.7-1.9-2.7V37.9z"/><path d="M240.4,22.8c1.2,0,1.9,0.6,1.9,1.4c0,1-0.7,1.2-1.6,1.4c0,0-0.1,0-0.1,0c0,0-0.3,0.1-0.4,0.1c-0.2,0.1-0.4,0.1-0.8,0.1 c-1.1,0-1.9-0.6-1.9-1.4C237.5,23.5,239.2,22.8,240.4,22.8z M238.2,28.7v-0.4c0-0.9,0.1-2,2-2c0.8,0,1.8,0.5,1.8,1.2v1.4 c0.4,2.9,1,6.3,1.4,9.2c0,0,0,0.1,0,0.1v0v-0.1c0,0,0,0,0,0.1c0.2,0.2,0.4,0.3,0.4,0.7v0.8c0,0.8-1,1.3-1.8,1.3 c-0.8,0-1.6-0.4-1.9-0.9l-0.4-1.5L238.2,28.7z"/><path d="M246.4,29.8c0-0.5,0.1-1.1,0.1-1.7c0-0.2-0.1-0.4-0.1-0.5c-0.1-0.3-0.1-0.6-0.1-0.9c0-0.9,0.8-1.5,1.7-1.5 c1.3,0,1.9,0.9,1.9,1.8V27c1-1,2.1-1.8,3.7-1.8c1.9,0,3.2,1.4,3.5,2.7l0.8,3.2l0.5,4.4v3.3c0.1,0.2,0.1,0.3,0.1,0.6 c0,0.9-0.7,1.5-1.8,1.5c-0.7,0-1.9-0.7-1.9-1.4v-3.8l-0.6-4.2l0,0l-0.7-2.8c0,0-0.1-0.2-0.1-0.3h0h0c-0.6,0.3-1.1,0.8-1.6,1.3 l-0.7,0.8l-0.3,0.3c0,0.1,0,0.1,0,0.1c-0.2,0.4-0.3,0.7-0.5,1.2l-0.3,0.8l-0.1,0.2l0.5,5.1c0,0,0,0,0.1,0c0.2,0.2,0.4,0.4,0.4,0.8 c0,1-0.5,1.9-1.9,1.9c-1,0-1.7-0.6-1.9-1.5l-0.2-0.8c0-0.1-0.1-0.3-0.1-0.4l-0.5-5.8v-1.1C246.4,30.9,246.4,30.3,246.4,29.8z"/><path d="M260.1,27.8c0-0.4,0.1-2.2,0.1-2.5c0.2-1,0.6-2.1,2-2.1c1,0,1.7,0.8,1.7,1.9v0.3c-0.2,1.3-0.3,2.4-0.3,3.6v1.8 c0,0.1,0,0.3,0.1,0.7c0,0.3,0.1,1,0.1,0.9c0,0,0,0.2,0,0.3c0.2,0.6,0.6,2.1,0.6,2.4c0.3,0.9,0.9,2.4,1.8,2.4c1.2,0,1.8-2.6,1.9-3.7 c0.1-0.3,0.2-0.9,0.2-1v-4c0,0,0-0.2,0-0.5l-0.1-1.3c0-0.2-0.1-0.5-0.2-0.8c-0.1-0.4-0.4-0.8-0.4-1.4c0-1,0.5-1.8,1.8-1.8 c0.2,0,0.6,0,1.1,0.3c1,0.9,1.2,2.4,1.4,3.6c0,0.3,0,0.6,0.1,1c0,0.6,0.1,1.3,0.1,1.4v1.4c0,3.3-0.5,7-3.2,9.4 c-0.7,0.6-1.7,1-2.6,1c-5.4,0-6.3-8.5-6.3-12.1V27.8z"/><path d="M274.7,27.3L274.7,27.3c1-1.7,2-3,3.3-3.8c0.5-0.3,0.9-0.3,1.4-0.3c0.8,0,1.7,0.1,2.5,0.7c1.3,0.8,3.1,2.8,3.1,5.1 c0,2.6-1.5,3.9-3.1,4.8h0c-0.6,0.4-1.2,0.7-1.9,0.7h-2.7l0.2,0.5c0,0,0.1,0.1,0,0.1c1,2.1,2.7,2.7,4.3,2.7c1.3,0,2.7-0.6,3.9-1.5 c0.3-0.2,0.5-0.5,0.8-0.8l0.4-0.4c0.1-0.1,0.6-0.4,0.8-0.4h0.5c0.7,0,1.1,1,1.1,1.7c0,0.9-0.4,1.4-0.8,1.8l-0.3,0.3 c-0.8,0.9-1.7,1.5-2.5,1.9c-1.2,0.6-2.6,1-4,1c-4.1,0-7.8-3.2-7.8-9.5C274,30.1,274.3,29,274.7,27.3z M276.9,30.5v0.6v0.3l-1.1-0.5 c0.3-0.1,0.5-0.3,0.9-0.3H276.9z M276.9,30.5c0.5,0,0.3,0.2,0.5,0.2c0,0,0.1,0.1,0.1,0.1h2.3c0,0,0,0,0,0h0.1l0.8-0.4l0.4-0.1 c0,0-0.2,0-0.1,0l0.5-0.3c0.3-0.2,0.6-0.5,0.6-0.9c0-1.5-1.7-2.4-2.6-2.4h-0.3c-0.7,0.4-1.6,1.3-2,2.2 C277.1,29.4,277,30,276.9,30.5z M280,30.8L280,30.8c0.1,0,0.2,0,0.2,0L280,30.8z"/><path d="M305.5,37.9c0-0.1,0-0.4,0-0.6c0-0.3,0.1-0.5,0.1-0.4v-7.3c0-0.1,0-0.6-0.1-1.1c0-0.3,0-0.5,0-0.7l-0.2,0.1 c-0.2,0.1-0.4,0.1-0.3,0.1l-0.4,0.2c-0.3,0.2-0.8,0.4-1.3,0.4c-1,0-1.6-0.6-1.6-1.6v-0.5c0.2-0.5,0.8-1.1,1.3-1.3 c0.8-0.3,1.7-0.8,2.5-1.1v-4.7c0-0.2,0-0.3,0-0.4c0-1,0.1-2.3,1.8-2.3c0.8,0,1.5,0.5,1.7,1.3v0.5c0,0.5,0,0.9-0.1,1.5 c0,1.2-0.4,2.2-0.4,3.3c0.3-0.1,0.8-0.2,1.1-0.3l1.2-0.4h0c0.6-0.2,1.3-0.3,1.9-0.3c0.9,0,1.7,0.6,1.7,1.6c0,1.5-1.3,1.7-2.4,1.8 h-0.3l-0.2,0l0.2,0l-2.8,0.9c0,0.2,0,0.6,0.1,1.1c0,0.4,0,1.1,0,1.2v8.1c-0.1,0.6-0.1,0.9-0.1,1.4c0,0,0.1,0.2,0.1,0.3 c0,0.2,0.1,0.5,0.1,0.8c0,0.9-0.6,1.7-1.7,1.7c-1.8,0-1.9-1.7-1.9-2.7V37.9z"/><path d="M316.2,37.8c-0.2-1.2-0.4-2.5-0.4-3.9c0-3.2,0.9-6.5,2.8-9v0c0.3-0.4,0.9-1,1.3-1.1h0.2c0.1,0,0.1,0,0.1,0l0.5-0.2 c0.5-0.2,1-0.4,1.7-0.4c2.8,0,5,3.6,5.5,6l0,0c0.3,0.9,0.3,1.8,0.3,2.6c0,1.4-0.1,2.6-0.6,3.9v0c-0.3,0.8-0.7,1.4-1.1,2.1 c-1.5,2.1-3.2,3.6-5.9,3.6c-2.1,0-3.6-1.5-4.4-3.4L316.2,37.8z M319.4,37.1l0.1,0.2c0.4,0.5,0.8,0.8,1.3,0.8c0.9,0,1.8-0.6,2.4-1.3 c0.6-0.7,1.2-1.7,1.5-2.4c0.3-0.8,0.4-1.7,0.4-2.5c0-0.6,0-1.2-0.2-1.9c-0.2-1-1.3-3.4-2.3-3.4c-0.4,0-0.6,0.1-0.9,0.3 c-0.9,0.5-1.3,1.5-1.8,2.6c-0.8,0.8-1,3.3-1,4.5c0,1,0.1,1.8,0.3,2.9L319.4,37.1z"/><path d="M346.4,38.5c-0.3-0.5-0.5-0.9-0.6-1.3v0c-0.1-0.3-0.3-0.6-0.3-0.7l-1.3-5.2c-0.5,0-0.9,0.1-1.3,0.2l0.1,0 c-0.4,0.2-0.4,0.2-0.8,0.2c-1,0-1.8-0.6-1.8-1.7c0-0.9,0.6-1.5,1.5-1.8c0.1,0,0.6-0.1,1.1-0.1l0.9-0.1l0.1-4.4 c0-0.7,0.2-1.4,0.4-2.2c0,0,0.1-0.4,0.1-0.8c0.4-1.2,1-2.3,1.8-3.2c0.6-0.5,1.4-0.8,2.3-0.8c0.4,0,0.9,0,1.5,0.4l0-0.1l1,0.6 l0.5,0.4c0.9,0.7,2.3,2.6,2.6,3.7c0,0,0,0.3,0,0.6v0.1c0,0.9-0.8,1.6-1.8,1.6c-0.8,0-1-0.3-1.4-0.6c-0.3-0.3-0.4-0.7-0.4-1 c-0.5-1-1-1.7-2.1-2.3c-0.1,0.1-0.1,0.5-0.2,0.6c-0.8,2.1-0.9,4.2-0.9,6.3v0.7c1.4-0.2,2.8-0.4,4.4-0.4h1.1 c0.8,0.1,1.5,0.8,1.5,1.6c0,0.8-0.6,1.4-1.5,1.6c-1.4,0-3,0.2-4.3,0.4c-0.3,0-1-0.3-1.1-0.4v0.3c0,0.1,0.5,2.3,0.7,3 c0.1,0.4,0.7,2.4,0.9,2.9c0,0,0,0.1,0,0.1l0.4,0.7l0.6,1c0.5,0.4,0.7,0.7,0.7,1.4c0,1-0.7,1.6-1.8,1.6c-0.6,0-1.5-0.4-1.8-1 L346.4,38.5z M342.9,31.5L342.9,31.5C342.9,31.5,342.9,31.5,342.9,31.5z M344.2,31.2l-0.1-0.4C344.1,30.9,344.1,31.1,344.2,31.2z M344.5,31.3c0.1,0,0.3,0,0.3,0H344.5z"/><path d="M356.9,27.3L356.9,27.3c1-1.7,2-3,3.3-3.8c0.5-0.3,0.9-0.3,1.4-0.3c0.8,0,1.7,0.1,2.5,0.7c1.3,0.8,3.1,2.8,3.1,5.1 c0,2.6-1.5,3.9-3.1,4.8h0c-0.6,0.4-1.2,0.7-1.9,0.7h-2.7l0.2,0.5c0,0,0.1,0.1,0,0.1c1,2.1,2.7,2.7,4.3,2.7c1.3,0,2.7-0.6,3.9-1.5 c0.3-0.2,0.5-0.5,0.8-0.8l0.4-0.4c0.1-0.1,0.6-0.4,0.8-0.4h0.5c0.7,0,1.1,1,1.1,1.7c0,0.9-0.4,1.4-0.8,1.8l-0.3,0.3 c-0.8,0.9-1.7,1.5-2.5,1.9c-1.2,0.6-2.6,1-4,1c-4.1,0-7.8-3.2-7.8-9.5C356.1,30.1,356.4,29,356.9,27.3z M359.1,30.5v0.6v0.3 l-1.1-0.5c0.3-0.1,0.5-0.3,0.9-0.3H359.1z M359.1,30.5c0.5,0,0.3,0.2,0.5,0.2c0,0,0.1,0.1,0.1,0.1h2.3c0,0,0,0,0,0h0.1l0.8-0.4 l0.4-0.1c0,0-0.2,0-0.1,0l0.5-0.3c0.3-0.2,0.6-0.5,0.6-0.9c0-1.5-1.7-2.4-2.6-2.4h-0.3c-0.7,0.4-1.6,1.3-2,2.2 C359.2,29.4,359.1,30,359.1,30.5z M362.1,30.8L362.1,30.8c0.1,0,0.2,0,0.2,0L362.1,30.8z"/><path d="M378.6,39.8c-2.1,0-4.8-1.2-5.5-4.6v-0.4c0-0.1,0-0.3,0-0.4v-0.7c0-2.3,0.3-3.4,1.3-5.1c0.5-0.7,0.9-1.4,1.5-1.9 c0.4-0.4,1.4-1.2,1.6-1.3c0.1,0,1.4-0.8,1.8-1c1.2-0.6,2.5-0.9,3.7-0.9h0.2c0.9,0,2.1-0.1,2.3,1.4c0.3-0.4,0.6-0.8,1.2-0.8 c0.9,0,1.4,0.8,1.7,1.9v1.4c0,0.9,0,2-0.3,3.2c0,0.1-0.2,1-0.2,1v0.4c0,0.8,0.1,1.8,0.2,2.7c0,0.3,0.1,0.5,0.1,0.9 c0.1,0.7,0.3,1.6,0.3,1.8c0,0.1,0.1,0.2,0.2,0.3c0.3,0.3,0.5,0.6,0.5,1.3c0,1.2-0.6,2.2-1.6,2.2c-1.3,0-1.5-1-1.9-2.2 c0,0,0-0.1,0-0.2c-0.2-0.8-0.3-1.5-0.4-2.3C383.4,38.6,380.8,39.8,378.6,39.8z M384.9,27c-0.1,0.1-0.2,0.3-0.4,0.4 c-0.6-0.1-0.9-0.1-1.2-0.1c-0.6,0-1.3,0.1-1.8,0.2c-1.8,0.5-3.6,1.7-4.9,3.7c-0.5,0.8-0.6,1.7-0.6,2.7c0,1.2,1.1,1.8,1.8,2h0.1l0,0 h0.6c1.1,0,2.1-0.5,3.2-1.1v0c1-0.5,1.9-1.7,2.7-3.1v0c0.1-0.3,0.2-0.5,0.3-0.7C384.8,29.8,384.8,28.2,384.9,27z M384.5,31.8 c0,0,0-0.1,0-0.1C384.5,31.7,384.5,31.7,384.5,31.8z"/><path d="M390.8,30.5v-5.6c0-0.9,1.1-1.4,1.8-1.4c0.6,0,1.2,0.3,1.4,0.7c0.2,0.2,0.3,0.5,0.3,0.5v0.5c1.2-0.9,2.7-1.6,4.3-1.6 c0.9,0,1.6,0.2,2.4,0.7c1.2,0.7,2.7,2.9,2.7,4.2c0,0.9-0.7,1.7-1.8,1.7c-1.5,0-1.7-1-2-1.9v0c0-0.1-0.2-0.3-0.3-0.4l-0.2-0.3 c-0.4-0.3-0.5-0.5-0.9-0.5c-0.9,0-2.1,0.8-2.6,1.4l-0.8,0.6l-0.6,0.6c0,0,0,0.1-0.1,0.1v0.5l0.6,7.2c0,0,0.1,0.2,0.1,0.2 c0.2,0.3,0.4,0.5,0.4,0.9v1.2c0,1-1.2,1.4-1.8,1.4c-1.3,0-1.9-1.2-2.1-2.3l-0.6-7.3l0,0.1L390.8,30.5z"/><path d="M405,26v-6.6l0.2-1.5c0.1-0.8,1-1.2,1.7-1.2c1.1,0,1.8,0.6,1.8,1.5c0,0.5,0,0.8-0.1,1.2c0,0.2,0,0.4-0.1,0.5v5.6 c0,0.4,0,1,0.1,1.5c0.1,1.3,0.2,2.9,0.3,3.2l0.3,2.1v7.6c0,0.5-0.9,1.3-1.3,1.3H407c-0.5,0-1.4-0.8-1.4-1.3v-7.1L405,26z"/><path d="M410.7,27.3L410.7,27.3c1-1.7,2-3,3.3-3.8c0.5-0.3,0.9-0.3,1.4-0.3c0.8,0,1.7,0.1,2.5,0.7c1.3,0.8,3.1,2.8,3.1,5.1 c0,2.6-1.5,3.9-3.1,4.8h0c-0.6,0.4-1.2,0.7-1.9,0.7h-2.7l0.2,0.5c0,0,0.1,0.1,0,0.1c1,2.1,2.7,2.7,4.3,2.7c1.3,0,2.7-0.6,3.9-1.5 c0.3-0.2,0.5-0.5,0.8-0.8l0.4-0.4c0.1-0.1,0.6-0.4,0.8-0.4h0.5c0.7,0,1.1,1,1.1,1.7c0,0.9-0.4,1.4-0.8,1.8l-0.3,0.3 c-0.8,0.9-1.7,1.5-2.5,1.9c-1.2,0.6-2.6,1-4,1c-4.1,0-7.8-3.2-7.8-9.5C410,30.1,410.3,29,410.7,27.3z M412.9,30.5v0.6v0.3l-1.1-0.5 c0.3-0.1,0.5-0.3,0.9-0.3H412.9z M412.9,30.5c0.5,0,0.3,0.2,0.5,0.2c0,0,0.1,0.1,0.1,0.1h2.3c0,0,0,0,0,0h0.1l0.8-0.4l0.4-0.1 c0,0-0.2,0-0.1,0l0.5-0.3c0.3-0.2,0.6-0.5,0.6-0.9c0-1.5-1.7-2.4-2.6-2.4h-0.3c-0.7,0.4-1.6,1.3-2,2.2 C413.1,29.4,413,30,412.9,30.5z M416,30.8L416,30.8c0.1,0,0.2,0,0.2,0L416,30.8z"/><path d="M429,36.3c0.6,0,1.2,0.2,1.6,0.8l-0.1-0.1l0.2,0.2c0,0.1,0,0.1,0,0.1c0.9,0.3,2.4,0.3,3.4,0.3h1.1c0.1,0,0.4,0,0.6,0h0.4 c0.6,0,1.3-0.1,2.1-0.3l-0.5-0.3l-0.7-0.4c0,0-0.6-0.3-1-0.5h0l-1.1-0.5c-2.8-1.4-6.3-3.2-7.5-6.2c-0.1-0.2-0.3-0.8-0.3-0.9v-0.2 c0-1.9,1.7-3.8,3.7-4.3h0l2.6-0.6c0.4-0.1,0.9-0.1,1.1-0.1c1.3,0,3.6,0.9,3.6,2.4c0,1.1-0.8,1.8-1.9,1.8c-0.5,0-0.9-0.2-1.2-0.4h0 c-0.3-0.1-0.5-0.2-0.7-0.2H434l-1.8,0.4c-0.5,0.1-1.1,0.4-1.1,0.9c0,0.3,0.7,1.2,1,1.4l0,0l0.5,0.3c0.3,0.2,0.6,0.4,0.6,0.4 l3.9,2.2h0l0.6,0.3c1.2,0.5,2.4,1.1,3.6,1.8c1.1,0.8,1.8,1.5,1.8,2.9c0,2.2-3.9,3-5.6,3.3c-0.4,0.1-1.8,0.2-1.9,0.2h-1.3 c-1.9,0-5.3-0.1-6.9-1.5c-0.4-0.4-0.4-1.1-0.4-1.4v-0.1C427,37.1,427.9,36.3,429,36.3z"/><path d="M446.9,36.3c0.6,0,1.2,0.2,1.6,0.8l-0.1-0.1l0.2,0.2c0,0.1,0,0.1,0,0.1c0.9,0.3,2.4,0.3,3.4,0.3h1.1c0.1,0,0.4,0,0.6,0h0.4 c0.6,0,1.3-0.1,2.1-0.3l-0.5-0.3l-0.7-0.4c0,0-0.6-0.3-1-0.5h0l-1.1-0.5c-2.8-1.4-6.3-3.2-7.5-6.2c-0.1-0.2-0.3-0.8-0.3-0.9v-0.2 c0-1.9,1.7-3.8,3.7-4.3h0l2.6-0.6c0.4-0.1,0.9-0.1,1.1-0.1c1.3,0,3.6,0.9,3.6,2.4c0,1.1-0.8,1.8-1.9,1.8c-0.5,0-0.9-0.2-1.2-0.4h0 c-0.3-0.1-0.5-0.2-0.7-0.2h-0.4l-1.8,0.4c-0.5,0.1-1.1,0.4-1.1,0.9c0,0.3,0.7,1.2,1,1.4l0,0l0.5,0.3c0.3,0.2,0.6,0.4,0.6,0.4 l3.9,2.2h0l0.6,0.3c1.2,0.5,2.4,1.1,3.6,1.8c1.1,0.8,1.8,1.5,1.8,2.9c0,2.2-3.9,3-5.6,3.3c-0.4,0.1-1.8,0.2-1.9,0.2h-1.3 c-1.9,0-5.3-0.1-6.9-1.5c-0.4-0.4-0.4-1.1-0.4-1.4v-0.1C444.9,37.1,445.8,36.3,446.9,36.3z"/><path d="M462.5,26v-6.6l0.2-1.5c0.1-0.8,1-1.2,1.7-1.2c1.1,0,1.8,0.6,1.8,1.5c0,0.5,0,0.8-0.1,1.2c0,0.2,0,0.4-0.1,0.5v5.6 c0,0.4,0,1,0.1,1.5c0.1,1.3,0.2,2.9,0.3,3.2l0.3,2.1v7.6c0,0.5-0.9,1.3-1.3,1.3h-0.7c-0.5,0-1.4-0.8-1.4-1.3v-7.1L462.5,26z"/><path d="M471.4,50.3l0.8-4.7l2.4-8.9c-0.3-0.2-0.7-0.6-0.9-0.9c-0.3-0.3-1-1.2-1.2-1.5c-0.6-0.9-1.3-1.9-1.9-2.9l-1.4-3 c-0.1-0.4-0.3-0.9-0.5-1.3c-0.1-0.4-0.4-0.9-0.5-1.2c0-0.2,0-0.2,0-0.6c0-1.1,0.5-1.7,1.6-1.7c0.3,0,0.6,0,1,0.2 c0.2,0.3,0.5,0.6,0.5,0.6l2,4.9l0-0.1l1.9,3l0,0l0.5,0.6l0.2,0.3l2.9-8.7c0.3-0.8,1-1.2,1.7-1.2c0.9,0,1.5,0.8,1.5,1.7 c0,0.5,0,0.6,0,0.7L477.4,39v0l-1,4.1v0.3l-0.9,3l0-0.1l-0.9,5.7c-0.1,0.9-0.9,1.5-1.7,1.5c-1,0-1.8-0.6-1.8-1.7 C471.2,51.2,471.2,50.7,471.4,50.3z"/><path d="M491.6,30.5v-5.6c0-0.9,1.1-1.4,1.8-1.4c0.6,0,1.2,0.3,1.4,0.7c0.2,0.2,0.3,0.5,0.3,0.5v0.5c1.2-0.9,2.7-1.6,4.3-1.6 c0.9,0,1.6,0.2,2.4,0.7c1.2,0.7,2.7,2.9,2.7,4.2c0,0.9-0.7,1.7-1.8,1.7c-1.5,0-1.7-1-2-1.9v0c0-0.1-0.2-0.3-0.3-0.4l-0.2-0.3 c-0.4-0.3-0.5-0.5-0.9-0.5c-0.9,0-2.1,0.8-2.6,1.4l-0.8,0.6l-0.6,0.6c0,0,0,0.1-0.1,0.1v0.5l0.6,7.2c0,0,0.1,0.2,0.1,0.2 c0.2,0.3,0.4,0.5,0.4,0.9v1.2c0,1-1.2,1.4-1.8,1.4c-1.3,0-1.9-1.2-2.1-2.3l-0.6-7.3l0,0.1L491.6,30.5z"/><path d="M506.8,27.3L506.8,27.3c1-1.7,2-3,3.3-3.8c0.5-0.3,0.9-0.3,1.4-0.3c0.8,0,1.7,0.1,2.5,0.7c1.3,0.8,3.1,2.8,3.1,5.1 c0,2.6-1.5,3.9-3.1,4.8h0c-0.6,0.4-1.2,0.7-1.9,0.7h-2.7l0.2,0.5c0,0,0.1,0.1,0,0.1c1,2.1,2.7,2.7,4.3,2.7c1.3,0,2.7-0.6,3.9-1.5 c0.3-0.2,0.5-0.5,0.8-0.8l0.4-0.4c0.1-0.1,0.6-0.4,0.8-0.4h0.5c0.7,0,1.1,1,1.1,1.7c0,0.9-0.4,1.4-0.8,1.8l-0.3,0.3 c-0.8,0.9-1.7,1.5-2.5,1.9c-1.2,0.6-2.6,1-4,1c-4.1,0-7.8-3.2-7.8-9.5C506,30.1,506.3,29,506.8,27.3z M509,30.5v0.6v0.3l-1.1-0.5 c0.3-0.1,0.5-0.3,0.9-0.3H509z M509,30.5c0.5,0,0.3,0.2,0.5,0.2c0,0,0.1,0.1,0.1,0.1h2.3c0,0,0,0,0,0h0.1l0.8-0.4l0.4-0.1 c0,0-0.2,0-0.1,0l0.5-0.3c0.3-0.2,0.6-0.5,0.6-0.9c0-1.5-1.7-2.4-2.6-2.4h-0.3c-0.7,0.4-1.6,1.3-2,2.2C509.1,29.4,509,30,509,30.5z M512,30.8L512,30.8c0.1,0,0.2,0,0.2,0L512,30.8z"/><path d="M523.6,38.8c-0.4-0.4-0.6-0.8-0.6-1.4c0-0.5,0.3-1,0.6-1.4l0.3-8.8c0-0.8,1-1.5,1.8-1.5c1,0,1.5,0.6,1.7,1.3 c0.4-0.3,0.9-0.6,1.5-0.7c0.4-0.1,1.2-0.2,1.4-0.2h0.7c4.1,0,5.8,2.7,5.8,6.7c0,1.2-0.2,2.6-0.8,3.6v-0.1c-0.1,0.2-0.5,0.8-0.7,0.9 l0.1-0.1c-1.8,2.1-3.7,3.1-6.4,3.1c-0.4,0-1-0.1-1.4-0.1c-0.4,0-0.1,0-0.5,0v0.4l0.4,6.1c0,0.3,0.2,0.9,0.3,1.3l0.1,0.6l0.1,0.3 c0.1,0.3,0.3,0.6,0.3,0.9c0,0.9-0.8,1.8-1.7,1.8c-1.1,0-1.8-1-2-1.9l-0.3-1.2c-0.1-0.4-0.3-1.2-0.2-1.1l-0.5-6.3V38.8z M527.2,36.3 C527.2,36.3,527.2,36.4,527.2,36.3l0,0.5l-0.4-0.6C526.8,36.2,527,36.3,527.2,36.3z M527.2,36.4c0.6,0.3,1.3,0.3,2.1,0.3 c1.4,0,2.4-0.7,3.4-1.8c0.1-0.1,0.3-0.4,0.4-0.5c0.2-0.5,0.3-1.2,0.3-1.7c0-1-0.3-2.3-1-3c-0.3-0.1-0.8-0.1-1.2-0.1 c-1.3,0-2.4,0.5-3.2,1.5c-0.2,0.3-0.6,0.8-0.6,0.8l0,0.8V36.4z"/><path d="M538.7,37.8c-0.2-1.2-0.4-2.5-0.4-3.9c0-3.2,0.9-6.5,2.8-9v0c0.3-0.4,0.9-1,1.3-1.1h0.2c0.1,0,0.1,0,0.1,0l0.5-0.2 c0.5-0.2,1-0.4,1.7-0.4c2.8,0,5,3.6,5.5,6l0,0c0.3,0.9,0.3,1.8,0.3,2.6c0,1.4-0.1,2.6-0.6,3.9v0c-0.3,0.8-0.7,1.4-1.1,2.1 c-1.5,2.1-3.2,3.6-5.9,3.6c-2.1,0-3.6-1.5-4.4-3.4L538.7,37.8z M541.9,37.1l0.1,0.2c0.4,0.5,0.8,0.8,1.3,0.8c0.9,0,1.8-0.6,2.4-1.3 c0.6-0.7,1.2-1.7,1.5-2.4c0.3-0.8,0.4-1.7,0.4-2.5c0-0.6,0-1.2-0.2-1.9c-0.2-1-1.3-3.4-2.3-3.4c-0.4,0-0.6,0.1-0.9,0.3 c-0.9,0.5-1.3,1.5-1.8,2.6c-0.8,0.8-1,3.3-1,4.5c0,1,0.1,1.8,0.3,2.9L541.9,37.1z"/><path d="M552.2,30.5v-5.6c0-0.9,1.1-1.4,1.8-1.4c0.6,0,1.2,0.3,1.4,0.7c0.2,0.2,0.3,0.5,0.3,0.5v0.5c1.2-0.9,2.7-1.6,4.3-1.6 c0.9,0,1.6,0.2,2.4,0.7c1.2,0.7,2.7,2.9,2.7,4.2c0,0.9-0.7,1.7-1.8,1.7c-1.5,0-1.7-1-2-1.9v0c0-0.1-0.2-0.3-0.3-0.4l-0.2-0.3 c-0.4-0.3-0.5-0.5-0.9-0.5c-0.9,0-2.1,0.8-2.6,1.4l-0.8,0.6l-0.6,0.6c0,0,0,0.1-0.1,0.1v0.5l0.6,7.2c0,0,0.1,0.2,0.1,0.2 c0.2,0.3,0.4,0.5,0.4,0.9v1.2c0,1-1.2,1.4-1.8,1.4c-1.3,0-1.9-1.2-2.1-2.3l-0.6-7.3l0,0.1L552.2,30.5z"/><path d="M570.4,37.9c0-0.1,0-0.4,0-0.6c0-0.3,0.1-0.5,0.1-0.4v-7.3c0-0.1,0-0.6-0.1-1.1c0-0.3,0-0.5,0-0.7l-0.2,0.1 c-0.2,0.1-0.4,0.1-0.3,0.1l-0.4,0.2c-0.3,0.2-0.8,0.4-1.3,0.4c-1,0-1.6-0.6-1.6-1.6v-0.5c0.2-0.5,0.8-1.1,1.3-1.3 c0.8-0.3,1.7-0.8,2.5-1.1v-4.7c0-0.2,0-0.3,0-0.4c0-1,0.1-2.3,1.8-2.3c0.8,0,1.5,0.5,1.7,1.3v0.5c0,0.5,0,0.9-0.1,1.5 c0,1.2-0.4,2.2-0.4,3.3c0.3-0.1,0.8-0.2,1.1-0.3l1.2-0.4h0c0.6-0.2,1.3-0.3,1.9-0.3c0.9,0,1.7,0.6,1.7,1.6c0,1.5-1.3,1.7-2.4,1.8 h-0.3l-0.2,0l0.2,0l-2.8,0.9c0,0.2,0,0.6,0.1,1.1c0,0.4,0,1.1,0,1.2v8.1c-0.1,0.6-0.1,0.9-0.1,1.4c0,0,0.1,0.2,0.1,0.3 c0,0.2,0.1,0.5,0.1,0.8c0,0.9-0.6,1.7-1.7,1.7c-1.8,0-1.9-1.7-1.9-2.7V37.9z"/><path d="M591.8,37.8c-0.2-1.2-0.4-2.5-0.4-3.9c0-3.2,0.9-6.5,2.8-9v0c0.3-0.4,0.9-1,1.3-1.1h0.2c0.1,0,0.1,0,0.1,0l0.5-0.2 c0.5-0.2,1-0.4,1.7-0.4c2.8,0,5,3.6,5.5,6l0,0c0.3,0.9,0.3,1.8,0.3,2.6c0,1.4-0.1,2.6-0.6,3.9v0c-0.3,0.8-0.7,1.4-1.1,2.1 c-1.5,2.1-3.2,3.6-5.9,3.6c-2.1,0-3.6-1.5-4.4-3.4L591.8,37.8z M595,37.1l0.1,0.2c0.4,0.5,0.8,0.8,1.3,0.8c0.9,0,1.8-0.6,2.4-1.3 c0.6-0.7,1.2-1.7,1.5-2.4c0.3-0.8,0.4-1.7,0.4-2.5c0-0.6,0-1.2-0.2-1.9c-0.2-1-1.3-3.4-2.3-3.4c-0.4,0-0.6,0.1-0.9,0.3 c-0.9,0.5-1.3,1.5-1.8,2.6c-0.8,0.8-1,3.3-1,4.5c0,1,0.1,1.8,0.3,2.9L595,37.1z"/><path d="M605.4,29.8c0-0.5,0.1-1.1,0.1-1.7c0-0.2-0.1-0.4-0.1-0.5c-0.1-0.3-0.1-0.6-0.1-0.9c0-0.9,0.8-1.5,1.7-1.5 c1.3,0,1.9,0.9,1.9,1.8V27c1-1,2.1-1.8,3.7-1.8c1.9,0,3.2,1.4,3.5,2.7l0.8,3.2l0.5,4.4v3.3c0.1,0.2,0.1,0.3,0.1,0.6 c0,0.9-0.7,1.5-1.8,1.5c-0.7,0-1.9-0.7-1.9-1.4v-3.8l-0.6-4.2l0,0l-0.7-2.8c0,0-0.1-0.2-0.1-0.3h0h0c-0.6,0.3-1.1,0.8-1.6,1.3 l-0.7,0.8l-0.3,0.3c0,0.1,0,0.1,0,0.1c-0.2,0.4-0.3,0.7-0.5,1.2l-0.3,0.8l-0.1,0.2l0.5,5.1c0,0,0,0,0.1,0c0.2,0.2,0.4,0.4,0.4,0.8 c0,1-0.5,1.9-1.9,1.9c-1,0-1.7-0.6-1.9-1.5l-0.2-0.8c0-0.1-0.1-0.3-0.1-0.4l-0.5-5.8v-1.1C605.4,30.9,605.4,30.3,605.4,29.8z"/><path d="M147.1,79.2c0-1.6,0-3.2,0-3.8v-0.3c0-0.1,0-0.3,0.1-0.5l0,0.1c0-0.2,0.1-0.6,0.1-0.6v-0.3l0.1,0.1 c-0.1-0.1-0.3-0.4-0.3-0.5V61.7l0.1-1c0.1-0.7,0.9-1.3,1.5-1.3c0.9,0,1.6,0.7,1.6,1.6c0,0.4,0,0.7-0.3,1.2v10.2 c0,0.4-0.1,8-0.4,8.5c0.1,0,0.5-0.1,0.7-0.1l0,0l0.6-0.1l0.8-0.2c0.6-0.1,1.3-0.3,1.4-0.3l0.9-0.1c0.3,0,0.7-0.1,0.7-0.1h4.9 c0.3,0,0.6,0,0.9,0h0.4c0.9,0.2,1.4,0.9,1.4,1.6c0,1.3-1,1.4-1.9,1.6c-0.1,0-0.2,0-0.3,0c-0.2,0-0.5,0.1-0.9,0.1h-1.8 c-1.2,0-2.5,0-3,0l-5.2,1.1h-0.3c-0.7,0-1.6-0.5-1.9-1.4V79.2z"/><path d="M164.2,64v-0.5c-0.2-0.3-0.2-0.6-0.2-0.9c0-1.4,1.9-1.9,2.6-1.9l5.5-0.8c0.1,0,0.4,0.4,0.7,0.6c0-0.3,0.2-0.7,0.6-0.7 c0.2,0,0.7,0,1.2-0.1c0.4,0,0.8-0.1,1-0.1c0.3-0.1,0.4-0.1,0.6-0.1c0.8,0,1.4,0.6,1.4,1.5c0,1-0.6,1.6-1.5,1.7l-4,0.2l-5,0.8v0.2 l-0.4,6l0.1,0c0.3,0,1-0.1,1.8-0.3c0.9-0.2,2-0.4,2.7-0.4h0.5c1.1,0,3.3,0.1,3.3,1.8c0,0.8-0.5,1.5-1.6,1.5 c-0.8-0.2-1.2-0.3-1.8-0.3c-1.5,0-4.9,0.1-4.9,0.1v8.3h0c0.9-0.3,2.2-0.6,2.6-0.7l2.9-0.4h0.4c0.1,0,0.3,0,0.3,0h3.4 c0.1,0,0.3,0,0.4,0c0.4,0,0.8,0.1,1.1,0.1h0.1c0.1,0,0.3-0.1,0.5-0.1c0.7,0,1.4,0.6,1.4,1.5c0,1.1-0.8,1.7-1.7,1.7 c-0.2,0-0.5,0-0.8-0.1c-0.3,0-0.5,0-0.5,0h-4.1c-0.2,0-2.3,0.4-3.1,0.5c-0.9,0.2-1.9,0.5-2.8,0.7l-0.4,0.1 c-0.3,0.1-0.6,0.2-0.9,0.2c-0.7,0-1.8-0.5-1.8-1.5V71.5L164.2,64z"/><path d="M184.9,60.6c0.3-0.4,0.9-1.1,1.5-1.1c0.2,0,0.5,0,0.8,0.2c0.1,0,0.4,0,0.6,0.1c0,0,0-0.1-0.1-0.1c0.1,0,0.1,0,0.2,0 c0.1,0,0.3,0,0.4,0c2.8,0,4.9,2.1,6.6,4.2c1.9,2.5,3.7,6.2,3.7,9.5c0,5.5-4.5,10.8-9.5,10.8c-0.8,0-1.8-0.2-2.6-0.6 c-0.2,0-0.3-0.1-0.4-0.1c-0.6-0.3-1.5-0.9-2.1-1.5c-0.1-0.1-0.2-0.3-0.2-0.3c-0.5-0.6-0.9-1.1-1.2-1.8c-0.5-0.9-0.7-1.9-0.8-2.8 c-0.3-1.4-0.5-2.8-0.5-4.2C181.2,69.1,182.6,63.4,184.9,60.6z M184.9,77.4c0.1,0.5,0.3,0.8,0.6,1.1l0.2,0.2l0.6,1 c0.8,0.6,1.7,1.2,2.7,1.2c3.5,0,6.4-3.8,6.4-7.7c0-2.7-1.6-5.7-3.2-7.7c-1.1-1.4-2.3-2.6-3.9-2.6c-1.5,0-1.9,1.3-2.3,2.7l-0.1,0.3 c0,0.1,0,0.2,0,0.2c-0.1,0.3-0.4,0.6-0.5,0.8c0,0-0.1,0.1-0.1,0.1c-0.5,1.4-0.8,3.2-0.9,4.8c0,0.4,0,0.8,0,1.2 C184.3,74.6,184.6,76.1,184.9,77.4z M186,79.2c0,0.1,0,0.1,0,0.1L186,79.2z M186.3,79.8l-0.1-0.1C186.2,79.8,186.3,79.8,186.3,79.8 z M186.7,80.1l-0.5-0.4C186.4,79.9,186.7,80.1,186.7,80.1z"/><path d="M200.4,72.8c-0.3-0.3-0.4-0.6-0.4-1.1c0-0.4,0.1-0.7,0.3-1v-0.5c0-0.6,0-2.2,0-3.8l0-3.6c-0.1-0.2-0.2-0.4-0.2-0.6v-0.8 c0-0.4,0.3-0.8,0.6-1c1-1,2.5-1,3.9-1h0.3c1.7,0,3.3,0.3,4.9,0.9l0.2,0.1l0.2,0.1h0c1.6,0.7,4.7,1.9,4.8,4.2 c0.1,0.4,0.2,0.7,0.2,1.1c0,2-1.2,4-2.7,5c-0.6,0.4-1.2,0.6-1.6,0.9l-1.1,0.6l-2.5,1.1l-0.9,0.2c-0.6,0.2-1.2,0.3-1.8,0.3h-0.9 l0.4,6c0.1,0.7,0.2,1.3,0.3,1.9c0.1,0.3,0.1,0.4,0.1,0.6c0,1-0.3,1.9-1.5,1.9c-1,0-1.5-0.9-1.5-1.7c0,0,0-0.3,0-0.5 c0-0.3,0-0.5,0-0.6c0,0,0-0.2-0.1-0.5c0-0.2-0.1-0.3-0.1-0.6L200.4,72.8z M203.3,71.3c0-0.5,0.3-0.5,0.4-0.5h0.3l1.7-0.3 c0,0,0,0,0,0c0.4-0.1,0.9-0.3,1.4-0.5l1.7-0.8c0.6-0.4,1.4-0.8,2.1-1.2l-0.1,0.1c0.5-0.5,1.2-1.3,1.2-2.1c0-0.6-0.8-1.6-1.4-1.8 l-3-1.3c-0.8-0.3-1.9-0.4-2.8-0.4h-0.6c-0.3,0-0.7-0.2-0.8-0.4v7.5L203.3,71.3z"/><path d="M225.5,72.9h-2.4c-0.6,0-2.6,0.3-2.6,0.5l-1.4,9c0,1-0.4,1.9-1.4,1.9c-0.8,0-1.4-0.6-1.4-1.6c0-0.3,0-0.6,0-0.8l2.9-17.6 l0.2-0.7c0.4-1.6,1-4.4,3.1-4.4c1.5,0,2.4,2.5,2.8,3.6l2.3,7.3l0.1,0.1c0.2,0.2,0.4,0.5,0.4,1v0.2c0,0.1,0,0.1,0,0.1l2.4,8v0 l0.8,2.2c0.1,0.3,0.4,0.9,0.4,1.2c0,0.9-0.6,1.6-1.4,1.6c-0.9,0-1.3-0.8-1.6-1.4l-0.9-2.7L225.5,72.9z M220.6,70.3l0.4-0.1h0 c0,0,0.1,0,0.1,0l-0.1,0.9l-0.7-0.8H220.6z M221.2,70.2c0.9-0.3,1.4-0.4,3.5-0.4l0-0.1l-1.5-4.5l-0.3-1.1c-0.3-0.9,0.3-0.5-0.3-1 c-0.2,0.7-0.5,1.7-0.5,1.9L221.2,70.2z M224.6,69.7h0.9l-0.7,0.6c0,0-0.1-0.2-0.1-0.4L224.6,69.7z"/><path d="M234.6,81.1l-0.3-2.5l-0.4-14.3c-0.4-0.2-0.8-0.5-0.8-1.4c0-0.7,0.6-1.3,0.9-1.6l2-1.2c0.5-0.3,1.9-0.6,2.8-0.6h1.8 c2.4,0.2,5.8,2.1,5.8,5.4c0,2.5-1.7,4.4-3.1,5.9l-0.2,0.2c-0.4,0.5-0.8,0.8-1.2,1.1l0,0l-0.6,0.6l-0.8,0.5c0.8,0.4,1.5,0.8,2.3,1.4 l2.9,2.5l0.8,0.9l2.1,2.8c0.3,0.4,0.3,0.7,0.3,0.9c0,0.8-0.6,1.5-1.4,1.5c-0.5,0-0.8-0.3-1.2-0.6l-1.9-2.5c0-0.1-0.6-0.7-0.8-0.9 l-0.3-0.3c-1.8-1.8-4-3.2-6.2-3.4c0,0.1,0,0.7,0.1,1.3c0,0.5,0.1,1.1,0.1,1.2l0.2,2.9l0-0.1c0.1,0.5,0.3,1.1,0.3,1.6v0.5 c-0.2,0.8-0.8,1.4-1.5,1.4c-1.2,0-1.4-0.8-1.6-1.7V81.1z M236.9,65.9c0.1,3.7,0.1,5.1,0,5.6l0.3-0.1h0c0.3-0.1,0.7-0.3,0.9-0.4 c1.8-0.9,3.1-2.4,4.5-4c0.6-0.6,1-1.4,1-2.3v-0.3c-0.5-1.5-2.4-1.9-3.7-1.9c-0.6,0-3,0.1-3,0.5c0,0.4,0,0.9,0,1.3 C236.9,64.9,236.9,65.4,236.9,65.9z"/><path d="M252.8,80.1c-0.1-0.4-0.2-0.9-0.4-1.3V64.3c-1-0.1-2-1.4-2-2.1c0-2.3,2.8-2.8,3.3-2.8c0.4,0,0.6,0.1,0.8,0.3l0.2,0.1 c6.2,0.8,11.1,6,11.1,13.5c0,3.8-2.1,6.9-4.9,9c-0.6,0.4-2.1,1.3-3.1,1.5l-2.1,0.4l0,0c-0.2,0.1-0.3,0.3-0.8,0.3 c-0.2,0-3.3-1-3.3-2.8C251.5,80.8,252,80.2,252.8,80.1z M255.9,80.8c0,0.3,0.1,0.5,0.1,0.5l-0.7-0.5h0.3H255.9z M255.7,79.1 c0,0,0.1,1,0.2,1.7c0.6,0,1.7-0.2,2.2-0.6c2.6-1.6,4.8-3.4,4.8-6.9c0-2.4-0.8-4.8-2.1-6.6c-1.1-1.4-3.2-3.2-5.3-3.6v1.2L255.7,79.1 z"/><path d="M278,74.8c0.1-0.8,0.7-1.3,1.5-1.3c0.5,0,1,0.3,1.4,0.9c0.1,0.5,0.1,0.6,0.1,0.9v0.4c0,0.1,0.1,0.4,0.2,0.5 c1.3,2.8,3,4.7,5.7,4.7c1.4,0,2.9-0.4,4-1.5v0c0.4-0.4,0.8-0.9,0.8-1.5c0-0.6-0.9-1.6-1.3-2l0.1,0.1c-0.2-0.1-0.6-0.5-0.8-0.6 c-0.1-0.1-0.3-0.2-0.4-0.3l-2.4-1.7c-0.1,0-0.2-0.1-0.5-0.3l-0.3-0.2l0.1,0c-0.2-0.1-0.4-0.2-0.4-0.2l-2.8-2.4 c-1.4-1.2-3.2-3.8-3.2-6.1c0-3.2,3.2-4.8,5.4-4.8c0.7,0,1.4,0,2.1,0.2c0.1,0,0.3,0,0.5,0.1c0.1,0.1,0.3,0.1,0.4,0.1 c1.1,0.4,3.5,1.5,3.5,3.3c0,0.9-0.7,1.7-1.5,1.7c-0.8,0-1-0.3-1.4-0.8l-0.2-0.2c-0.7-0.8-2.3-1-3.3-1c-0.8,0-2.4,0.4-2.4,1.3 c0,0.9,0.6,1.9,1.1,2.5l0,0l0.7,0.8c0.9,0.8,1.7,1.6,2.6,2.4l-0.1-0.1l2.6,1.8c0.2,0.1,0.4,0.3,0.6,0.4c0.1,0.1,0.3,0.3,0.2,0.1 c1.8,1.2,4.2,3.2,4.2,5.9c0,1.5-0.6,2.7-1.6,3.8c-1.7,1.8-4,2.6-6.3,2.6c-3.8,0-6.3-2.2-8.2-5.9l0,0c-0.5-0.9-0.8-1.8-0.8-3V74.8z"/><path d="M296.9,64v-0.5c-0.2-0.3-0.2-0.6-0.2-0.9c0-1.4,1.9-1.9,2.6-1.9l5.5-0.8c0.1,0,0.4,0.4,0.7,0.6c0-0.3,0.2-0.7,0.6-0.7 c0.2,0,0.7,0,1.2-0.1c0.4,0,0.8-0.1,1-0.1c0.3-0.1,0.4-0.1,0.6-0.1c0.8,0,1.4,0.6,1.4,1.5c0,1-0.6,1.6-1.5,1.7l-4,0.2l-5,0.8v0.2 l-0.4,6l0.1,0c0.3,0,1-0.1,1.8-0.3c0.9-0.2,2-0.4,2.7-0.4h0.5c1.1,0,3.3,0.1,3.3,1.8c0,0.8-0.5,1.5-1.6,1.5 c-0.8-0.2-1.2-0.3-1.8-0.3c-1.5,0-4.9,0.1-4.9,0.1v8.3h0c0.9-0.3,2.2-0.6,2.6-0.7l2.9-0.4h0.4c0.1,0,0.3,0,0.3,0h3.4 c0.1,0,0.3,0,0.4,0c0.4,0,0.8,0.1,1.1,0.1h0.1c0.1,0,0.3-0.1,0.5-0.1c0.7,0,1.4,0.6,1.4,1.5c0,1.1-0.8,1.7-1.7,1.7 c-0.2,0-0.5,0-0.8-0.1c-0.3,0-0.5,0-0.5,0h-4.1c-0.2,0-2.3,0.4-3.1,0.5c-0.9,0.2-1.9,0.5-2.8,0.7L299,84c-0.3,0.1-0.6,0.2-0.9,0.2 c-0.7,0-1.8-0.5-1.8-1.5V71.5L296.9,64z"/><path d="M323,72.9h-2.4c-0.6,0-2.6,0.3-2.6,0.5l-1.4,9c0,1-0.4,1.9-1.4,1.9c-0.8,0-1.4-0.6-1.4-1.6c0-0.3,0-0.6,0-0.8l2.9-17.6 l0.2-0.7c0.4-1.6,1-4.4,3.1-4.4c1.5,0,2.4,2.5,2.8,3.6l2.3,7.3l0.1,0.1c0.2,0.2,0.4,0.5,0.4,1v0.2c0,0.1,0,0.1,0,0.1l2.4,8v0 l0.8,2.2c0.1,0.3,0.4,0.9,0.4,1.2c0,0.9-0.6,1.6-1.4,1.6c-0.9,0-1.3-0.8-1.6-1.4l-0.9-2.7L323,72.9z M318.1,70.3l0.4-0.1h0 c0,0,0.1,0,0.1,0l-0.1,0.9l-0.7-0.8H318.1z M318.6,70.2c0.9-0.3,1.4-0.4,3.5-0.4l0-0.1l-1.5-4.5l-0.3-1.1c-0.3-0.9,0.3-0.5-0.3-1 c-0.2,0.7-0.5,1.7-0.5,1.9L318.6,70.2z M322.1,69.7h0.9l-0.7,0.6c0,0-0.1-0.2-0.1-0.4L322.1,69.7z"/><path d="M330.7,79.2c0-1.6,0-3.2,0-3.8v-0.3c0-0.1,0-0.3,0.1-0.5l0,0.1c0-0.2,0.1-0.6,0.1-0.6v-0.3l0.1,0.1 c-0.1-0.1-0.3-0.4-0.3-0.5V61.7l0.1-1c0.1-0.7,0.9-1.3,1.5-1.3c0.9,0,1.6,0.7,1.6,1.6c0,0.4,0,0.7-0.3,1.2v10.2 c0,0.4-0.1,8-0.4,8.5c0.1,0,0.5-0.1,0.7-0.1l0,0l0.6-0.1l0.8-0.2c0.6-0.1,1.3-0.3,1.4-0.3l0.9-0.1c0.3,0,0.7-0.1,0.7-0.1h4.9 c0.3,0,0.6,0,0.9,0h0.4c0.9,0.2,1.4,0.9,1.4,1.6c0,1.3-1,1.4-1.9,1.6c-0.1,0-0.2,0-0.3,0c-0.2,0-0.5,0.1-0.9,0.1H341 c-1.2,0-2.5,0-3,0l-5.2,1.1h-0.3c-0.7,0-1.6-0.5-1.9-1.4V79.2z"/><path d="M347.3,74.8c0.1-0.8,0.7-1.3,1.5-1.3c0.5,0,1,0.3,1.4,0.9c0.1,0.5,0.1,0.6,0.1,0.9v0.4c0,0.1,0.1,0.4,0.2,0.5 c1.3,2.8,3,4.7,5.7,4.7c1.4,0,2.9-0.4,4-1.5v0c0.4-0.4,0.8-0.9,0.8-1.5c0-0.6-0.9-1.6-1.3-2l0.1,0.1c-0.2-0.1-0.6-0.5-0.8-0.6 c-0.1-0.1-0.3-0.2-0.4-0.3l-2.4-1.7c-0.1,0-0.2-0.1-0.5-0.3l-0.3-0.2l0.1,0c-0.2-0.1-0.4-0.2-0.4-0.2l-2.8-2.4 c-1.4-1.2-3.2-3.8-3.2-6.1c0-3.2,3.2-4.8,5.4-4.8c0.7,0,1.4,0,2.1,0.2c0.1,0,0.3,0,0.5,0.1c0.1,0.1,0.3,0.1,0.4,0.1 c1.1,0.4,3.5,1.5,3.5,3.3c0,0.9-0.7,1.7-1.5,1.7c-0.8,0-1-0.3-1.4-0.8l-0.2-0.2c-0.7-0.8-2.3-1-3.3-1c-0.8,0-2.4,0.4-2.4,1.3 c0,0.9,0.6,1.9,1.1,2.5l0,0l0.7,0.8c0.9,0.8,1.7,1.6,2.6,2.4l-0.1-0.1l2.6,1.8c0.2,0.1,0.4,0.3,0.6,0.4c0.1,0.1,0.3,0.3,0.2,0.1 c1.8,1.2,4.2,3.2,4.2,5.9c0,1.5-0.6,2.7-1.6,3.8c-1.7,1.8-4,2.6-6.3,2.6c-3.8,0-6.3-2.2-8.2-5.9l0,0c-0.5-0.9-0.8-1.8-0.8-3V74.8z"/><path d="M381.8,83c-2.1,0-4.8-1.2-5.5-4.6V78c0-0.1,0-0.3,0-0.4v-0.7c0-2.3,0.3-3.4,1.3-5.1c0.5-0.7,0.9-1.4,1.5-1.9 c0.4-0.4,1.4-1.2,1.6-1.3c0.1,0,1.4-0.8,1.8-1c1.2-0.6,2.5-0.9,3.7-0.9h0.2c0.9,0,2.1-0.1,2.3,1.4c0.3-0.4,0.6-0.8,1.2-0.8 c0.9,0,1.4,0.8,1.7,1.9v1.4c0,0.9,0,2-0.3,3.2c0,0.1-0.2,1-0.2,1v0.4c0,0.8,0.1,1.8,0.2,2.7c0,0.3,0.1,0.5,0.1,0.9 c0.1,0.7,0.3,1.6,0.3,1.8c0,0.1,0.1,0.2,0.2,0.3c0.3,0.3,0.5,0.6,0.5,1.3c0,1.2-0.6,2.2-1.6,2.2c-1.3,0-1.5-1-1.9-2.2 c0,0,0-0.1,0-0.2c-0.2-0.8-0.3-1.5-0.4-2.3C386.6,81.8,384,83,381.8,83z M388.1,70.2c-0.1,0.1-0.2,0.3-0.4,0.4 c-0.6-0.1-0.9-0.1-1.2-0.1c-0.6,0-1.3,0.1-1.8,0.2c-1.8,0.5-3.6,1.7-4.9,3.7c-0.5,0.8-0.6,1.7-0.6,2.7c0,1.2,1.1,1.8,1.8,2h0.1l0,0 h0.6c1.1,0,2.1-0.5,3.2-1.1v0c1-0.5,1.9-1.7,2.7-3.1v0c0.1-0.3,0.2-0.5,0.3-0.7C387.9,73,388,71.4,388.1,70.2z M387.6,75 c0,0,0-0.1,0-0.1C387.6,74.9,387.6,74.9,387.6,75z"/><path d="M394.1,73c0-0.5,0.1-1.1,0.1-1.7c0-0.2-0.1-0.4-0.1-0.5c-0.1-0.3-0.1-0.6-0.1-0.9c0-0.9,0.8-1.5,1.7-1.5 c1.3,0,1.9,0.9,1.9,1.8v0.1c1-1,2.1-1.8,3.7-1.8c1.9,0,3.2,1.4,3.5,2.7l0.8,3.2l0.5,4.4v3.3c0.1,0.2,0.1,0.3,0.1,0.6 c0,0.9-0.7,1.5-1.8,1.5c-0.7,0-1.9-0.7-1.9-1.4V79l-0.6-4.2l0,0l-0.7-2.8c0,0-0.1-0.2-0.1-0.3h0h0c-0.6,0.3-1.1,0.8-1.6,1.3 l-0.7,0.8l-0.3,0.3c0,0.1,0,0.1,0,0.1c-0.2,0.4-0.3,0.7-0.5,1.2l-0.3,0.8l-0.1,0.2l0.5,5.1c0,0,0,0,0.1,0c0.2,0.2,0.4,0.4,0.4,0.8 c0,1-0.5,1.9-1.9,1.9c-1,0-1.7-0.6-1.9-1.5l-0.2-0.8c0-0.1-0.1-0.3-0.1-0.4l-0.5-5.8v-1.1C394,74.1,394,73.5,394.1,73z"/><path d="M414.7,72.3c0.7,0,1.2,0.1,1.8,0.3c0-0.5,0-1,0-1.6c0-1.1,0.1-2.2,0.1-2.6v-0.2l0.4-4.9c0.1-0.9,0.6-3.3,2.4-3.3 c1.1,0,1.7,0.8,1.7,1.7c0,0.1,0,0.4,0,0.4s-0.1,0.3-0.2,0.4l-0.1,0.1c-0.3,0.7-0.4,1.4-0.5,2l-0.3,4.1v0.1c0,0.1,0,0.4,0,0.7v4.9 c0,0.3,0.1,1.9,0.1,2.2c0.1,0.8,0.5,3.3,0.6,3.6l0,0.3c0,0,0-0.1,0-0.1c0.4,0.3,0.8,0.6,0.8,1.4c0,1-1,2.2-2.1,2.2 c-0.2,0-0.4,0-0.5-0.1h-0.2c-0.1,0-0.2,0-0.3,0c-0.1,0-0.3,0-0.4,0c-1,0.1-1.9,0.3-3.1,0.3c-2.4,0-4.9-0.4-6.3-2.5 c-0.5-0.9-1-1.9-1-2.9C407.7,75.2,411.1,72.3,414.7,72.3z M415.1,80.7h0.8c0,0,0.1,0,0.3,0l0.9-0.1l-0.5-3.9l-0.5-0.5 c-0.4-0.3-1-0.4-1.5-0.4c-1.7,0-3.4,1.3-3.4,2.9C411.2,80.5,413.4,80.7,415.1,80.7z M417.2,80.5h0.2c-0.1,0.1-0.1,0.1-0.1,0.3V81 L417.2,80.5z M417.4,80.5c0.1,0,0.1,0,0.2,0C417.5,80.5,417.4,80.5,417.4,80.5z"/><path d="M444.7,82.6c0-0.2,0-0.3,0-0.5v-0.3c0-0.1-0.1-1.6-0.2-2.1c0-0.1,0-0.3,0-0.5l-1.3-3.1l0,0c-0.1-0.1-0.5-0.8-0.8-0.9 c-0.4,0.2-0.6,0.5-0.8,0.9c-0.1,0.4-0.7,1.5-1,2.2l0-0.1l-0.3,0.6c-0.3,0.8-0.5,1.4-0.6,2.1c-0.1,0.2-0.3,1.3-0.3,1.4 c0,0.1-0.1,0.3-0.1,0.5c-0.1,1-0.2,1.8-1.7,1.8c-1.7,0-1.8-1.5-1.9-2.6c0,0,0-0.1,0-0.2v0.1c-0.1-0.4-0.3-1-0.4-1.6l-0.4-2.2 l-1-8.5c0-0.3,0-0.8,0-1.3c0-0.4,0-0.9,0-1.2V61c0-1.1,0.3-2.4,1.9-2.4c1,0,1.7,0.8,1.7,1.6c0,0.3,0,0.6,0,0.8c0,0.1,0,0.3,0,0.4 v5.5c0,0.1,0,0.5,0,1c0,0.5,0,1.1,0,1.3v0.1l0.7,6.2c0.6-1.4,1.2-2.5,3.1-3.3l0.3-0.1c0.3-0.1,0.5-0.2,0.9-0.2 c1.2,0,2.1,0.6,2.8,1.3l0.1,0.2v0c0.5,0.4,0.9,0.8,1.2,1.5l0,0l1.5,3.3l0.2,0.7l0.3,2.3V83c-0.2,1-0.5,1.9-1.8,1.9 c-1.1,0-1.8-0.7-1.8-1.7C444.7,83.1,444.7,82.8,444.7,82.6z"/><path d="M450.9,81c-0.2-1.2-0.4-2.5-0.4-3.9c0-3.2,0.9-6.5,2.8-9v0c0.3-0.4,0.9-1,1.3-1.1h0.2c0.1,0,0.1,0,0.1,0l0.5-0.2 c0.5-0.2,1-0.4,1.7-0.4c2.8,0,5,3.6,5.5,6l0,0c0.3,0.9,0.3,1.8,0.3,2.6c0,1.4-0.1,2.6-0.6,3.9v0c-0.3,0.8-0.7,1.4-1.1,2.1 c-1.5,2.1-3.2,3.6-5.9,3.6c-2.1,0-3.6-1.5-4.4-3.4L450.9,81z M454.1,80.3l0.1,0.2c0.4,0.5,0.8,0.8,1.3,0.8c0.9,0,1.8-0.6,2.4-1.3 c0.6-0.7,1.2-1.7,1.5-2.4c0.3-0.8,0.4-1.7,0.4-2.5c0-0.6,0-1.2-0.2-1.9c-0.2-1-1.3-3.4-2.3-3.4c-0.4,0-0.6,0.1-0.9,0.3 c-0.9,0.5-1.3,1.5-1.8,2.6c-0.8,0.8-1,3.3-1,4.5c0,1,0.1,1.8,0.3,2.9L454.1,80.3z"/><path d="M465.3,68.3c0.1-1,0.8-1.9,1.9-1.9c1,0,1.8,0.8,1.8,1.7c0,0.3,0,0.5-0.1,0.8c-0.3,2.4-0.6,4.9-0.9,7.3v1.5l0.8-1.4 c0.5-0.7,1.3-1.9,2.6-1.9c0.4,0,0.5,0.1,0.7,0.1h-0.2c0.1,0,0.2,0,0.3,0c1.2,0.6,1.4,1.3,1.7,2.2l0.2,0.6l0.4,1.7l1.3-3l-0.1,0.1 c0.4-1.9,0.7-3.5,1.1-5.4c0.2-0.6,0.2-0.9,0.2-1.4v-0.1c-0.2-0.3-0.4-0.6-0.4-1c0-0.9,0.7-1.7,1.8-1.7c0.6,0,1,0.3,1.4,0.7 c0.6,0.5,0.7,1.3,0.7,1.8v0.3c-0.1,0.5-0.3,2-0.3,2.1l-1.2,5.5l-1.4,3.3l-0.3,0.6c-0.6,1-1.2,2.3-2.4,2.9c-0.4,0.1-0.7,0.1-1,0.1 h-0.1c-1.1,0-1.6-0.6-2-1.4c-0.4-1-0.6-1.9-0.9-3l-1.8,3.1c-0.5,0.9-1.4,1.3-2.3,1.3c-1.4,0-2.3-1.5-2.3-2.8v-5.4L465.3,68.3z"/><path d="M496.8,81.1c0-0.1,0-0.4,0-0.6c0-0.3,0.1-0.5,0.1-0.4v-7.3c0-0.1,0-0.6-0.1-1.1c0-0.3,0-0.5,0-0.7l-0.2,0.1 c-0.2,0.1-0.4,0.1-0.3,0.1l-0.4,0.2c-0.3,0.2-0.8,0.4-1.3,0.4c-1,0-1.6-0.6-1.6-1.6v-0.5c0.2-0.5,0.8-1.1,1.3-1.3 c0.8-0.3,1.7-0.8,2.5-1.1v-4.7c0-0.2,0-0.3,0-0.4c0-1,0.1-2.3,1.8-2.3c0.8,0,1.5,0.5,1.7,1.3v0.5c0,0.5,0,0.9-0.1,1.5 c0,1.2-0.4,2.2-0.4,3.3c0.3-0.1,0.8-0.2,1.1-0.3l1.2-0.4h0c0.6-0.2,1.3-0.3,1.9-0.3c0.9,0,1.7,0.6,1.7,1.6c0,1.5-1.3,1.7-2.4,1.8 H503l-0.2,0l0.2,0l-2.8,0.9c0,0.2,0,0.6,0.1,1.1c0,0.4,0,1.1,0,1.2v8.1c-0.1,0.6-0.1,0.9-0.1,1.4c0,0,0.1,0.2,0.1,0.3 c0,0.2,0.1,0.5,0.1,0.8c0,0.9-0.6,1.7-1.7,1.7c-1.8,0-1.9-1.7-1.9-2.7V81.1z"/><path d="M518.1,82.6c0-0.2,0-0.3,0-0.5v-0.3c0-0.1-0.1-1.6-0.2-2.1c0-0.1,0-0.3,0-0.5l-1.3-3.1l0,0c-0.1-0.1-0.5-0.8-0.8-0.9 c-0.4,0.2-0.6,0.5-0.8,0.9c-0.1,0.4-0.7,1.5-1,2.2l0-0.1l-0.3,0.6c-0.3,0.8-0.5,1.4-0.6,2.1c-0.1,0.2-0.3,1.3-0.3,1.4 c0,0.1-0.1,0.3-0.1,0.5c-0.1,1-0.2,1.8-1.7,1.8c-1.7,0-1.8-1.5-1.9-2.6c0,0,0-0.1,0-0.2v0.1c-0.1-0.4-0.3-1-0.4-1.6l-0.4-2.2 l-1-8.5c0-0.3,0-0.8,0-1.3c0-0.4,0-0.9,0-1.2V61c0-1.1,0.3-2.4,1.9-2.4c1,0,1.7,0.8,1.7,1.6c0,0.3,0,0.6,0,0.8c0,0.1,0,0.3,0,0.4 v5.5c0,0.1,0,0.5,0,1c0,0.5,0,1.1,0,1.3v0.1l0.7,6.2c0.6-1.4,1.2-2.5,3.1-3.3l0.3-0.1c0.3-0.1,0.5-0.2,0.9-0.2 c1.2,0,2.1,0.6,2.8,1.3l0.1,0.2v0c0.5,0.4,0.9,0.8,1.2,1.5l0,0l1.5,3.3l0.2,0.7l0.3,2.3V83c-0.2,1-0.5,1.9-1.8,1.9 c-1.1,0-1.8-0.7-1.8-1.7C518.1,83.1,518.1,82.8,518.1,82.6z"/><path d="M524.6,70.5L524.6,70.5c1-1.7,2-3,3.3-3.8c0.5-0.3,0.9-0.3,1.4-0.3c0.8,0,1.7,0.1,2.5,0.7c1.3,0.8,3.1,2.8,3.1,5.1 c0,2.6-1.5,3.9-3.1,4.8h0c-0.6,0.4-1.2,0.7-1.9,0.7h-2.7l0.2,0.5c0,0,0.1,0.1,0,0.1c1,2.1,2.7,2.7,4.3,2.7c1.3,0,2.7-0.6,3.9-1.5 c0.3-0.2,0.5-0.5,0.8-0.8l0.4-0.4c0.1-0.1,0.6-0.4,0.8-0.4h0.5c0.7,0,1.1,1,1.1,1.7c0,0.9-0.4,1.4-0.8,1.8l-0.3,0.3 c-0.8,0.9-1.7,1.5-2.5,1.9c-1.2,0.6-2.6,1-4,1c-4.1,0-7.8-3.2-7.8-9.5C523.9,73.3,524.2,72.2,524.6,70.5z M526.8,73.7v0.6v0.3 l-1.1-0.5c0.3-0.1,0.5-0.3,0.9-0.3H526.8z M526.8,73.7c0.5,0,0.3,0.2,0.5,0.2c0,0,0.1,0.1,0.1,0.1h2.3c0,0,0,0,0,0h0.1l0.8-0.4 l0.4-0.1c0,0-0.2,0-0.1,0l0.5-0.3c0.3-0.2,0.6-0.5,0.6-0.9c0-1.5-1.7-2.4-2.6-2.4h-0.3c-0.7,0.4-1.6,1.3-2,2.2 C527,72.6,526.9,73.2,526.8,73.7z M529.9,74L529.9,74c0.1,0,0.2,0,0.2,0L529.9,74z"/><path d="M544.6,93.5l0.8-4.7l2.4-8.9c-0.3-0.2-0.7-0.6-0.9-0.9c-0.3-0.3-1-1.2-1.2-1.5c-0.6-0.9-1.3-1.9-1.9-2.9l-1.4-3 c-0.1-0.4-0.3-0.9-0.5-1.3c-0.1-0.4-0.4-0.9-0.5-1.2c0-0.2,0-0.2,0-0.6c0-1.1,0.5-1.7,1.6-1.7c0.3,0,0.6,0,1,0.2 c0.2,0.3,0.5,0.6,0.5,0.6l2,4.9l0-0.1l1.9,3l0,0l0.5,0.6l0.2,0.3l2.9-8.7c0.3-0.8,1-1.2,1.7-1.2c0.9,0,1.5,0.8,1.5,1.7 c0,0.5,0,0.6,0,0.7l-4.5,13.4v0l-1,4.1v0.3l-0.9,3l0-0.1l-0.9,5.7c-0.1,0.9-0.9,1.5-1.7,1.5c-1,0-1.8-0.6-1.8-1.7 C544.4,94.4,544.5,93.9,544.6,93.5z"/><path d="M198.9,113.7L198.9,113.7c1-1.7,2-3,3.3-3.8c0.5-0.3,0.9-0.3,1.4-0.3c0.8,0,1.7,0.1,2.5,0.7c1.3,0.8,3.1,2.8,3.1,5.1 c0,2.6-1.5,3.9-3.1,4.8h0c-0.6,0.4-1.2,0.7-1.9,0.7h-2.7l0.2,0.5c0,0,0.1,0.1,0,0.1c1,2.1,2.7,2.7,4.3,2.7c1.3,0,2.7-0.6,3.9-1.5 c0.3-0.2,0.5-0.5,0.8-0.8l0.4-0.4c0.1-0.1,0.6-0.4,0.8-0.4h0.5c0.7,0,1.1,1,1.1,1.7c0,0.9-0.4,1.4-0.8,1.8l-0.3,0.3 c-0.8,0.9-1.7,1.5-2.5,1.9c-1.2,0.6-2.6,1-4,1c-4.1,0-7.8-3.2-7.8-9.5C198.2,116.5,198.5,115.4,198.9,113.7z M201.1,116.9v0.6v0.3 l-1.1-0.5c0.3-0.1,0.5-0.3,0.9-0.3H201.1z M201.1,116.9c0.5,0,0.3,0.2,0.5,0.2c0,0,0.1,0.1,0.1,0.1h2.3c0,0,0,0,0,0h0.1l0.8-0.4 l0.4-0.1c0,0-0.2,0-0.1,0l0.5-0.3c0.3-0.2,0.6-0.5,0.6-0.9c0-1.5-1.7-2.4-2.6-2.4h-0.3c-0.7,0.4-1.6,1.3-2,2.2 C201.3,115.8,201.2,116.4,201.1,116.9z M204.2,117.2L204.2,117.2c0.1,0,0.2,0,0.2,0L204.2,117.2z"/><path d="M215.3,116.2c0-0.5,0.1-1.1,0.1-1.7c0-0.2-0.1-0.4-0.1-0.5c-0.1-0.3-0.1-0.6-0.1-0.9c0-0.9,0.8-1.5,1.7-1.5 c1.3,0,1.9,0.9,1.9,1.8v0.1c1-1,2.1-1.8,3.7-1.8c1.9,0,3.2,1.4,3.5,2.7l0.8,3.2l0.5,4.4v3.3c0.1,0.2,0.1,0.3,0.1,0.6 c0,0.9-0.7,1.5-1.8,1.5c-0.7,0-1.9-0.7-1.9-1.4v-3.8l-0.6-4.2l0,0l-0.7-2.8c0,0-0.1-0.2-0.1-0.3h0h0c-0.6,0.3-1.1,0.8-1.6,1.3 l-0.7,0.8l-0.3,0.3c0,0.1,0,0.1,0,0.1c-0.2,0.4-0.3,0.7-0.5,1.2l-0.3,0.8l-0.1,0.2l0.5,5.1c0,0,0,0,0.1,0c0.2,0.2,0.4,0.4,0.4,0.8 c0,1-0.5,1.9-1.9,1.9c-1,0-1.7-0.6-1.9-1.5l-0.2-0.8c0-0.1-0.1-0.3-0.1-0.4l-0.5-5.8v-1.1C215.2,117.3,215.2,116.7,215.3,116.2z"/><path d="M234.4,126.2c-2.1,0-4.8-1.2-5.5-4.6v-0.4c0-0.1,0-0.3,0-0.4v-0.7c0-2.3,0.3-3.4,1.3-5.1c0.5-0.7,0.9-1.4,1.5-1.9 c0.4-0.4,1.4-1.2,1.6-1.3c0.1,0,1.4-0.8,1.8-1c1.2-0.6,2.5-0.9,3.7-0.9h0.2c0.9,0,2.1-0.1,2.3,1.4c0.3-0.4,0.6-0.8,1.2-0.8 c0.9,0,1.4,0.8,1.7,1.9v1.4c0,0.9,0,2-0.3,3.2c0,0.1-0.2,1-0.2,1v0.4c0,0.8,0.1,1.8,0.2,2.7c0,0.3,0.1,0.5,0.1,0.9 c0.1,0.7,0.3,1.6,0.3,1.8c0,0.1,0.1,0.2,0.2,0.3c0.3,0.3,0.5,0.6,0.5,1.3c0,1.2-0.6,2.2-1.6,2.2c-1.3,0-1.5-1-1.9-2.2 c0,0,0-0.1,0-0.2c-0.2-0.8-0.3-1.5-0.4-2.3C239.3,125,236.7,126.2,234.4,126.2z M240.8,113.4c-0.1,0.1-0.2,0.3-0.4,0.4 c-0.6-0.1-0.9-0.1-1.2-0.1c-0.6,0-1.3,0.1-1.8,0.2c-1.8,0.5-3.6,1.7-4.9,3.7c-0.5,0.8-0.6,1.7-0.6,2.7c0,1.2,1.1,1.8,1.8,2h0.1l0,0 h0.6c1.1,0,2.1-0.5,3.2-1.1v0c1-0.5,1.9-1.7,2.7-3.1v0c0.1-0.3,0.2-0.5,0.3-0.7C240.6,116.2,240.7,114.6,240.8,113.4z M240.3,118.2 c0,0,0-0.1,0-0.1C240.3,118.1,240.3,118.1,240.3,118.2z"/><path d="M247.7,122.8c0-0.3-0.1-0.6-0.1-0.7l-0.4-4v-5.6c0-0.8,0.2-5.1,0.3-6.1c0,0.1,0-0.4,0.1-0.7c0-0.3,0.1-0.8,0.1-1 c0.2-0.8,0.4-1.7,1.7-1.7c1,0,1.6,0.7,1.6,1.6v0.3c0,0.1,0,0.2-0.1,0.3c0,0.2,0,0.6,0,0.9c0,0.4-0.1,0.7-0.1,0.8 c-0.1,2.5-0.3,5-0.3,7.5c0.9-1.1,2.1-1.8,3.5-1.8c2.3,0,4.1,2.2,4.8,4.1l0,0c0.5,1.1,0.6,2.3,0.6,3.5v0.8c-0.1,0.2-0.4,1.3-0.4,1.6 c-0.7,2.7-3.6,4.8-6.1,5.1H252c-1.7,0-4-0.3-5-1.9c-0.3-0.4-0.3-0.7-0.3-1.1C246.6,123.8,247.2,123.2,247.7,122.8z M251.3,124.4 c0-0.1,0.2-0.1,0.3-0.1c0.1,0,0.3,0,0.3,0c1.7,0,2.8-0.7,3.7-2.2v0.1l0.5-1.7V120c0-1.4-0.3-2.6-1.2-3.7c-0.3-0.4-0.6-0.6-1-0.6 c-0.6,0-1,0.5-1.2,1l-0.1,0.3v0c-0.4,1-0.8,1.9-1,3c-0.1,0.4-0.3,1.5-0.3,1.6c0,0,0,0.3,0,0.5c0,0.1,0,0.3,0,0.3V124.4z"/><path d="M260.6,112.4v-6.6l0.2-1.5c0.1-0.8,1-1.2,1.7-1.2c1.1,0,1.8,0.6,1.8,1.5c0,0.5,0,0.8-0.1,1.2c0,0.2,0,0.4-0.1,0.5v5.6 c0,0.4,0,1,0.1,1.5c0.1,1.3,0.2,2.9,0.3,3.2l0.3,2.1v7.6c0,0.5-0.9,1.3-1.3,1.3h-0.7c-0.5,0-1.4-0.8-1.4-1.3v-7.1L260.6,112.4z"/><path d="M266.4,113.7L266.4,113.7c1-1.7,2-3,3.3-3.8c0.5-0.3,0.9-0.3,1.4-0.3c0.8,0,1.7,0.1,2.5,0.7c1.3,0.8,3.1,2.8,3.1,5.1 c0,2.6-1.5,3.9-3.1,4.8h0c-0.6,0.4-1.2,0.7-1.9,0.7H269l0.2,0.5c0,0,0.1,0.1,0,0.1c1,2.1,2.7,2.7,4.3,2.7c1.3,0,2.7-0.6,3.9-1.5 c0.3-0.2,0.5-0.5,0.8-0.8l0.4-0.4c0.1-0.1,0.6-0.4,0.8-0.4h0.5c0.7,0,1.1,1,1.1,1.7c0,0.9-0.4,1.4-0.8,1.8l-0.3,0.3 c-0.8,0.9-1.7,1.5-2.5,1.9c-1.2,0.6-2.6,1-4,1c-4.1,0-7.8-3.2-7.8-9.5C265.7,116.5,265.9,115.4,266.4,113.7z M268.6,116.9v0.6v0.3 l-1.1-0.5c0.3-0.1,0.5-0.3,0.9-0.3H268.6z M268.6,116.9c0.5,0,0.3,0.2,0.5,0.2c0,0,0.1,0.1,0.1,0.1h2.3c0,0,0,0,0,0h0.1l0.8-0.4 l0.4-0.1c0,0-0.2,0-0.1,0l0.5-0.3c0.3-0.2,0.6-0.5,0.6-0.9c0-1.5-1.7-2.4-2.6-2.4h-0.3c-0.7,0.4-1.6,1.3-2,2.2 C268.7,115.8,268.6,116.4,268.6,116.9z M271.6,117.2L271.6,117.2c0.1,0,0.2,0,0.2,0L271.6,117.2z"/><path d="M297.2,124.3c0-0.1,0-0.4,0-0.6c0-0.3,0.1-0.5,0.1-0.4V116c0-0.1,0-0.6-0.1-1.1c0-0.3,0-0.5,0-0.7l-0.2,0.1 c-0.2,0.1-0.4,0.1-0.3,0.1l-0.4,0.2c-0.3,0.2-0.8,0.4-1.3,0.4c-1,0-1.6-0.6-1.6-1.6v-0.5c0.2-0.5,0.8-1.1,1.3-1.3 c0.8-0.3,1.7-0.8,2.5-1.1v-4.7c0-0.2,0-0.3,0-0.4c0-1,0.1-2.3,1.8-2.3c0.8,0,1.5,0.5,1.7,1.3v0.5c0,0.5,0,0.9-0.1,1.5 c0,1.2-0.4,2.2-0.4,3.3c0.3-0.1,0.8-0.2,1.1-0.3l1.2-0.4h0c0.6-0.2,1.3-0.3,1.9-0.3c0.9,0,1.7,0.6,1.7,1.6c0,1.5-1.3,1.7-2.4,1.8 h-0.3l-0.2,0l0.2,0l-2.8,0.9c0,0.2,0,0.6,0.1,1.1c0,0.4,0,1.1,0,1.2v8.1c-0.1,0.6-0.1,0.9-0.1,1.4c0,0,0.1,0.2,0.1,0.3 c0,0.2,0.1,0.5,0.1,0.8c0,0.9-0.6,1.7-1.7,1.7c-1.8,0-1.9-1.7-1.9-2.7V124.3z"/><path d="M318.4,125.8c0-0.2,0-0.3,0-0.5V125c0-0.1-0.1-1.6-0.2-2.1c0-0.1,0-0.3,0-0.5l-1.3-3.1l0,0c-0.1-0.1-0.5-0.8-0.8-0.9 c-0.4,0.2-0.6,0.5-0.8,0.9c-0.1,0.4-0.7,1.5-1,2.2l0-0.1l-0.3,0.6c-0.3,0.8-0.5,1.4-0.6,2.1c-0.1,0.2-0.3,1.3-0.3,1.4 c0,0.1-0.1,0.3-0.1,0.5c-0.1,1-0.2,1.8-1.7,1.8c-1.7,0-1.8-1.5-1.9-2.6c0,0,0-0.1,0-0.2v0.1c-0.1-0.4-0.3-1-0.4-1.6l-0.4-2.2 l-1-8.5c0-0.3,0-0.8,0-1.3c0-0.4,0-0.9,0-1.2v-6.3c0-1.1,0.3-2.4,1.9-2.4c1,0,1.7,0.8,1.7,1.6c0,0.3,0,0.6,0,0.8c0,0.1,0,0.3,0,0.4 v5.5c0,0.1,0,0.5,0,1c0,0.5,0,1.1,0,1.3v0.1l0.7,6.2c0.6-1.4,1.2-2.5,3.1-3.3l0.3-0.1c0.3-0.1,0.5-0.2,0.9-0.2 c1.2,0,2.1,0.6,2.8,1.3l0.1,0.2v0c0.5,0.4,0.9,0.8,1.2,1.5l0,0l1.5,3.3l0.2,0.7l0.3,2.3v1.9c-0.2,1-0.5,1.9-1.8,1.9 c-1.1,0-1.8-0.7-1.8-1.7C318.4,126.3,318.4,126,318.4,125.8z"/><path d="M325,113.7L325,113.7c1-1.7,2-3,3.3-3.8c0.5-0.3,0.9-0.3,1.4-0.3c0.8,0,1.7,0.1,2.5,0.7c1.3,0.8,3.1,2.8,3.1,5.1 c0,2.6-1.5,3.9-3.1,4.8h0c-0.6,0.4-1.2,0.7-1.9,0.7h-2.7l0.2,0.5c0,0,0.1,0.1,0,0.1c1,2.1,2.7,2.7,4.3,2.7c1.3,0,2.7-0.6,3.9-1.5 c0.3-0.2,0.5-0.5,0.8-0.8l0.4-0.4c0.1-0.1,0.6-0.4,0.8-0.4h0.5c0.7,0,1.1,1,1.1,1.7c0,0.9-0.4,1.4-0.8,1.8l-0.3,0.3 c-0.8,0.9-1.7,1.5-2.5,1.9c-1.2,0.6-2.6,1-4,1c-4.1,0-7.8-3.2-7.8-9.5C324.3,116.5,324.5,115.4,325,113.7z M327.2,116.9v0.6v0.3 l-1.1-0.5c0.3-0.1,0.5-0.3,0.9-0.3H327.2z M327.2,116.9c0.5,0,0.3,0.2,0.5,0.2c0,0,0.1,0.1,0.1,0.1h2.3c0,0,0,0,0,0h0.1l0.8-0.4 l0.4-0.1c0,0-0.2,0-0.1,0l0.5-0.3c0.3-0.2,0.6-0.5,0.6-0.9c0-1.5-1.7-2.4-2.6-2.4h-0.3c-0.7,0.4-1.6,1.3-2,2.2 C327.4,115.8,327.2,116.4,327.2,116.9z M330.2,117.2L330.2,117.2c0.1,0,0.2,0,0.2,0L330.2,117.2z"/><path d="M352.6,125.2c-0.4-0.4-0.6-0.8-0.6-1.4c0-0.5,0.3-1,0.6-1.4l0.3-8.8c0-0.8,1-1.5,1.8-1.5c1,0,1.5,0.6,1.7,1.3 c0.4-0.3,0.9-0.6,1.5-0.7c0.4-0.1,1.2-0.2,1.4-0.2h0.7c4.1,0,5.8,2.7,5.8,6.7c0,1.2-0.2,2.6-0.8,3.6v-0.1c-0.1,0.2-0.5,0.8-0.7,0.9 l0.1-0.1c-1.8,2.1-3.7,3.1-6.4,3.1c-0.4,0-1-0.1-1.4-0.1c-0.4,0-0.1,0-0.5,0v0.4l0.4,6.1c0,0.3,0.2,0.9,0.3,1.3l0.1,0.6l0.1,0.3 c0.1,0.3,0.3,0.6,0.3,0.9c0,0.9-0.8,1.8-1.7,1.8c-1.1,0-1.8-1-2-1.9l-0.3-1.2c-0.1-0.4-0.3-1.2-0.2-1.1l-0.5-6.3V125.2z M356.2,122.7C356.2,122.7,356.2,122.8,356.2,122.7l0,0.5l-0.4-0.6C355.8,122.6,356,122.7,356.2,122.7z M356.2,122.8 c0.6,0.3,1.3,0.3,2.1,0.3c1.4,0,2.4-0.7,3.4-1.8c0.1-0.1,0.3-0.4,0.4-0.5c0.2-0.5,0.3-1.2,0.3-1.7c0-1-0.3-2.3-1-3 c-0.3-0.1-0.8-0.1-1.2-0.1c-1.3,0-2.4,0.5-3.2,1.5c-0.2,0.3-0.6,0.8-0.6,0.8l0,0.8V122.8z"/><path d="M372.9,126.2c-2.1,0-4.8-1.2-5.5-4.6v-0.4c0-0.1,0-0.3,0-0.4v-0.7c0-2.3,0.3-3.4,1.3-5.1c0.5-0.7,0.9-1.4,1.5-1.9 c0.4-0.4,1.4-1.2,1.6-1.3c0.1,0,1.4-0.8,1.8-1c1.2-0.6,2.5-0.9,3.7-0.9h0.2c0.9,0,2.1-0.1,2.3,1.4c0.3-0.4,0.6-0.8,1.2-0.8 c0.9,0,1.4,0.8,1.7,1.9v1.4c0,0.9,0,2-0.3,3.2c0,0.1-0.2,1-0.2,1v0.4c0,0.8,0.1,1.8,0.2,2.7c0,0.3,0.1,0.5,0.1,0.9 c0.1,0.7,0.3,1.6,0.3,1.8c0,0.1,0.1,0.2,0.2,0.3c0.3,0.3,0.5,0.6,0.5,1.3c0,1.2-0.6,2.2-1.6,2.2c-1.3,0-1.5-1-1.9-2.2 c0,0,0-0.1,0-0.2c-0.2-0.8-0.3-1.5-0.4-2.3C377.7,125,375.1,126.2,372.9,126.2z M379.2,113.4c-0.1,0.1-0.2,0.3-0.4,0.4 c-0.6-0.1-0.9-0.1-1.2-0.1c-0.6,0-1.3,0.1-1.8,0.2c-1.8,0.5-3.6,1.7-4.9,3.7c-0.5,0.8-0.6,1.7-0.6,2.7c0,1.2,1.1,1.8,1.8,2h0.1l0,0 h0.6c1.1,0,2.1-0.5,3.2-1.1v0c1-0.5,1.9-1.7,2.7-3.1v0c0.1-0.3,0.2-0.5,0.3-0.7C379,116.2,379.1,114.6,379.2,113.4z M378.7,118.2 c0,0,0-0.1,0-0.1C378.7,118.1,378.7,118.1,378.7,118.2z"/><path d="M388.9,124.3c0-0.1,0-0.4,0-0.6c0-0.3,0.1-0.5,0.1-0.4V116c0-0.1,0-0.6-0.1-1.1c0-0.3,0-0.5,0-0.7l-0.2,0.1 c-0.2,0.1-0.4,0.1-0.3,0.1l-0.4,0.2c-0.3,0.2-0.8,0.4-1.3,0.4c-1,0-1.6-0.6-1.6-1.6v-0.5c0.2-0.5,0.8-1.1,1.3-1.3 c0.8-0.3,1.7-0.8,2.5-1.1v-4.7c0-0.2,0-0.3,0-0.4c0-1,0.1-2.3,1.8-2.3c0.8,0,1.5,0.5,1.7,1.3v0.5c0,0.5,0,0.9-0.1,1.5 c0,1.2-0.4,2.2-0.4,3.3c0.3-0.1,0.8-0.2,1.1-0.3l1.2-0.4h0c0.6-0.2,1.3-0.3,1.9-0.3c0.9,0,1.7,0.6,1.7,1.6c0,1.5-1.3,1.7-2.4,1.8 h-0.3l-0.2,0l0.2,0l-2.8,0.9c0,0.2,0,0.6,0.1,1.1c0,0.4,0,1.1,0,1.2v8.1c-0.1,0.6-0.1,0.9-0.1,1.4c0,0,0.1,0.2,0.1,0.3 c0,0.2,0.1,0.5,0.1,0.8c0,0.9-0.6,1.7-1.7,1.7c-1.8,0-1.9-1.7-1.9-2.7V124.3z"/><path d="M399.1,116.9v-5.6c0-0.9,1.1-1.4,1.8-1.4c0.6,0,1.2,0.3,1.4,0.7c0.2,0.2,0.3,0.5,0.3,0.5v0.5c1.2-0.9,2.7-1.6,4.3-1.6 c0.9,0,1.6,0.2,2.4,0.7c1.2,0.7,2.7,2.9,2.7,4.2c0,0.9-0.7,1.7-1.8,1.7c-1.5,0-1.7-1-2-1.9v0c0-0.1-0.2-0.3-0.3-0.4l-0.2-0.3 c-0.4-0.3-0.5-0.5-0.9-0.5c-0.9,0-2.1,0.8-2.6,1.4l-0.8,0.6l-0.6,0.6c0,0,0,0.1-0.1,0.1v0.5l0.6,7.2c0,0,0.1,0.2,0.1,0.2 c0.2,0.3,0.4,0.5,0.4,0.9v1.2c0,1-1.2,1.4-1.8,1.4c-1.3,0-1.9-1.2-2.1-2.3l-0.6-7.3l0,0.1L399.1,116.9z"/><path d="M416.3,109.2c1.2,0,1.9,0.6,1.9,1.4c0,1-0.7,1.2-1.6,1.4c0,0-0.1,0-0.1,0c0,0-0.3,0.1-0.4,0.1c-0.2,0.1-0.4,0.1-0.8,0.1 c-1.1,0-1.9-0.6-1.9-1.4C413.4,109.9,415.1,109.2,416.3,109.2z M414.1,115.1v-0.4c0-0.9,0.1-2,2-2c0.8,0,1.8,0.5,1.8,1.2v1.4 c0.4,2.9,1,6.3,1.4,9.2c0,0,0,0.1,0,0.1v0v-0.1c0,0,0,0,0,0.1c0.2,0.2,0.4,0.3,0.4,0.7v0.8c0,0.8-1,1.3-1.8,1.3 c-0.8,0-1.6-0.4-1.9-0.9l-0.4-1.5L414.1,115.1z"/><path d="M427.8,126.2c-2.1,0-4.8-1.2-5.5-4.6v-0.4c0-0.1,0-0.3,0-0.4v-0.7c0-2.3,0.3-3.4,1.3-5.1c0.5-0.7,0.9-1.4,1.5-1.9 c0.4-0.4,1.4-1.2,1.6-1.3c0.1,0,1.4-0.8,1.8-1c1.2-0.6,2.5-0.9,3.7-0.9h0.2c0.9,0,2.1-0.1,2.3,1.4c0.3-0.4,0.6-0.8,1.2-0.8 c0.9,0,1.4,0.8,1.7,1.9v1.4c0,0.9,0,2-0.3,3.2c0,0.1-0.2,1-0.2,1v0.4c0,0.8,0.1,1.8,0.2,2.7c0,0.3,0.1,0.5,0.1,0.9 c0.1,0.7,0.3,1.6,0.3,1.8c0,0.1,0.1,0.2,0.2,0.3c0.3,0.3,0.5,0.6,0.5,1.3c0,1.2-0.6,2.2-1.6,2.2c-1.3,0-1.5-1-1.9-2.2 c0,0,0-0.1,0-0.2c-0.2-0.8-0.3-1.5-0.4-2.3C432.6,125,430,126.2,427.8,126.2z M434.1,113.4c-0.1,0.1-0.2,0.3-0.4,0.4 c-0.6-0.1-0.9-0.1-1.2-0.1c-0.6,0-1.3,0.1-1.8,0.2c-1.8,0.5-3.6,1.7-4.9,3.7c-0.5,0.8-0.6,1.7-0.6,2.7c0,1.2,1.1,1.8,1.8,2h0.1l0,0 h0.6c1.1,0,2.1-0.5,3.2-1.1v0c1-0.5,1.9-1.7,2.7-3.1v0c0.1-0.3,0.2-0.5,0.3-0.7C433.9,116.2,434,114.6,434.1,113.4z M433.6,118.2 c0,0,0-0.1,0-0.1C433.6,118.1,433.6,118.1,433.6,118.2z"/><path d="M439.9,116.9v-5.6c0-0.9,1.1-1.4,1.8-1.4c0.6,0,1.2,0.3,1.4,0.7c0.2,0.2,0.3,0.5,0.3,0.5v0.5c1.2-0.9,2.7-1.6,4.3-1.6 c0.9,0,1.6,0.2,2.4,0.7c1.2,0.7,2.7,2.9,2.7,4.2c0,0.9-0.7,1.7-1.8,1.7c-1.5,0-1.7-1-2-1.9v0c0-0.1-0.2-0.3-0.3-0.4l-0.2-0.3 c-0.4-0.3-0.5-0.5-0.9-0.5c-0.9,0-2.1,0.8-2.6,1.4l-0.8,0.6l-0.6,0.6c0,0,0,0.1-0.1,0.1v0.5l0.6,7.2c0,0,0.1,0.2,0.1,0.2 c0.2,0.3,0.4,0.5,0.4,0.9v1.2c0,1-1.2,1.4-1.8,1.4c-1.3,0-1.9-1.2-2.1-2.3l-0.6-7.3l0,0.1L439.9,116.9z"/><path d="M459.6,111L459.6,111c0.9-0.6,1.9-1.2,3.1-1.2c1.1,0,3.5,0.5,3.5,2.5c0,1.2-0.7,1.9-1.6,1.9h-0.4c-0.5-0.3-0.9-0.5-1.4-0.5 c-0.6,0-1.2,0.3-1.7,0.8c-1.7,1.4-3.6,3.5-3.6,6.3c0,2.3,2.8,3,4.2,3h0.6c0.4,0,2.6-0.2,3.2-0.3c1-0.2,2.3-0.5,3.3-0.8h0.4 c0.8,0,1.5,0.8,1.5,1.9c0,0.7-0.4,1.6-1.2,1.9h0c-2.6,0.8-5.1,1.2-7.8,1.2h-1.2c-0.8,0-1.4-0.3-2.1-0.5c-2.4-1-4.4-2.8-4.4-6.3 C454.4,116.4,456.8,112.9,459.6,111z"/><path d="M483.6,125.8c0-0.2,0-0.3,0-0.5V125c0-0.1-0.1-1.6-0.2-2.1c0-0.1,0-0.3,0-0.5l-1.3-3.1l0,0c-0.1-0.1-0.5-0.8-0.8-0.9 c-0.4,0.2-0.6,0.5-0.8,0.9c-0.1,0.4-0.7,1.5-1,2.2l0-0.1l-0.3,0.6c-0.3,0.8-0.5,1.4-0.6,2.1c-0.1,0.2-0.3,1.3-0.3,1.4 c0,0.1-0.1,0.3-0.1,0.5c-0.1,1-0.2,1.8-1.7,1.8c-1.7,0-1.8-1.5-1.9-2.6c0,0,0-0.1,0-0.2v0.1c-0.1-0.4-0.3-1-0.4-1.6l-0.4-2.2 l-1-8.5c0-0.3,0-0.8,0-1.3c0-0.4,0-0.9,0-1.2v-6.3c0-1.1,0.3-2.4,1.9-2.4c1,0,1.7,0.8,1.7,1.6c0,0.3,0,0.6,0,0.8c0,0.1,0,0.3,0,0.4 v5.5c0,0.1,0,0.5,0,1c0,0.5,0,1.1,0,1.3v0.1l0.7,6.2c0.6-1.4,1.2-2.5,3.1-3.3l0.3-0.1c0.3-0.1,0.5-0.2,0.9-0.2 c1.2,0,2.1,0.6,2.8,1.3l0.1,0.2v0c0.5,0.4,0.9,0.8,1.2,1.5l0,0l1.5,3.3l0.2,0.7l0.3,2.3v1.9c-0.2,1-0.5,1.9-1.8,1.9 c-1.1,0-1.8-0.7-1.8-1.7C483.6,126.3,483.6,126,483.6,125.8z"/><path d="M493.2,136.7l0.8-4.7l2.4-8.9c-0.3-0.2-0.7-0.6-0.9-0.9c-0.3-0.3-1-1.2-1.2-1.5c-0.6-0.9-1.3-1.9-1.9-2.9l-1.4-3 c-0.1-0.4-0.3-0.9-0.5-1.3c-0.1-0.4-0.4-0.9-0.5-1.2c0-0.2,0-0.2,0-0.6c0-1.1,0.5-1.7,1.6-1.7c0.3,0,0.6,0,1,0.2 c0.2,0.3,0.5,0.6,0.5,0.6l2,4.9l0-0.1l1.9,3l0,0l0.5,0.6l0.2,0.3l2.9-8.7c0.3-0.8,1-1.2,1.7-1.2c0.9,0,1.5,0.8,1.5,1.7 c0,0.5,0,0.6,0,0.7l-4.5,13.4v0l-1,4.1v0.3l-0.9,3l0-0.1l-0.9,5.7c-0.1,0.9-0.9,1.5-1.7,1.5c-1,0-1.8-0.6-1.8-1.7 C493,137.6,493,137.1,493.2,136.7z"/></g></svg>