<svg xmlns="http://www.w3.org/2000/svg" width="160" height="70" viewBox="0 0 160 70">
  <g fill="none">
    <path fill="#121212" d="M44.4071611,5.46189189 L43.2941176,4.90189189 L43.2941176,3.64189189 L50.7375959,3.64189189 L50.7375959,4.90189189 L49.2767263,5.46189189 L51.1549872,15.2618919 L51.2941176,15.2618919 L54.0071611,3.57189189 L57.5549872,3.57189189 L60.7549872,15.3318919 L60.8941176,15.3318919 L62.911509,5.46189189 L61.2419437,4.90189189 L61.2419437,3.64189189 L66.3202046,3.64189189 L66.3202046,4.90189189 L65.1375959,5.46189189 L61.7289003,20.6518919 L57.6245524,20.6518919 L54.8419437,9.94189189 L54.7028133,9.94189189 L52.1289003,20.6518919 L47.9549872,20.6518919 L44.4071611,5.46189189 Z M65.5549872,14.0718919 C65.5549872,9.94189189 68.1984655,7.35189189 72.0941176,7.35189189 C76.059335,7.35189189 78.7028133,9.94189189 78.7028133,14.0718919 C78.7028133,18.2718919 76.059335,20.9318919 72.0941176,20.9318919 C68.2680307,20.9318919 65.5549872,18.2718919 65.5549872,14.0718919 Z M70.2158568,14.0718919 C70.2158568,18.4118919 70.911509,19.5318919 72.2332481,19.5318919 C73.485422,19.5318919 74.1810742,18.3418919 74.1810742,14.0018919 C74.1810742,9.66189189 73.485422,8.61189189 72.2332481,8.61189189 C70.911509,8.68189189 70.2158568,9.80189189 70.2158568,14.0718919 Z M84.5462916,7.42189189 L84.9636829,7.49189189 L84.9636829,10.4318919 L85.1028133,10.4318919 C85.7984655,8.33189189 86.8419437,7.28189189 88.3723785,7.28189189 C88.5810742,7.28189189 88.859335,7.28189189 88.9984655,7.35189189 L88.9984655,11.2718919 C88.7897698,11.2018919 88.3723785,11.2018919 87.9549872,11.2018919 C86.7723785,11.2018919 85.9375959,11.3418919 85.1723785,11.6218919 L85.1723785,19.0418919 L86.911509,19.6018919 L86.911509,20.6518919 L79.5375959,20.6518919 L79.5375959,19.6018919 L80.859335,19.0418919 L80.859335,9.73189189 L79.4680307,9.17189189 L79.4680307,8.19189189 L84.5462916,7.42189189 Z M94.7028133,1.96189189 L95.1897698,2.03189189 L95.1897698,18.9718919 L96.511509,19.6018919 L96.511509,20.6518919 L89.5549872,20.6518919 L89.5549872,19.6018919 L90.8767263,18.9718919 L90.8767263,4.27189189 L89.4158568,3.71189189 L89.4158568,2.66189189 L94.7028133,1.96189189 Z M105.415857,7.77189189 L105.415857,4.20189189 L104.024552,3.71189189 L104.024552,2.66189189 L109.241944,1.89189189 L109.7289,1.96189189 L109.7289,18.4818919 L111.18977,19.1818919 L111.18977,20.2318919 L106.041944,20.7918919 L105.624552,20.7218919 L105.624552,19.3918919 L105.485422,19.3918919 C104.720205,20.1618919 103.676726,20.8618919 102.076726,20.8618919 C99.2941176,20.8618919 97.2767263,18.6918919 97.2767263,14.3518919 C97.2767263,9.73189189 99.6419437,7.35189189 103.259335,7.35189189 C104.233248,7.42189189 104.998465,7.56189189 105.415857,7.77189189 Z M105.415857,18.4118919 L105.415857,9.24189189 C105.068031,9.03189189 104.720205,8.82189189 104.024552,8.82189189 C102.633248,8.82189189 101.7289,10.2918919 101.7289,14.0718919 C101.7289,17.4318919 102.563683,18.7618919 104.163683,18.7618919 C104.720205,18.7618919 105.137596,18.6218919 105.415857,18.4118919 Z M126.841944,18.9018919 L127.676726,15.4718919 L129.624552,15.4718919 L129.554987,19.9518919 C128.302813,20.5118919 126.841944,20.8618919 124.476726,20.8618919 C119.398465,20.8618919 115.781074,18.4118919 115.781074,12.1818919 C115.781074,5.60189189 120.163683,3.29189189 124.615857,3.29189189 C126.702813,3.29189189 128.372379,3.57189189 129.415857,3.99189189 L129.485422,8.61189189 L127.537596,8.61189189 L126.563683,5.25189189 C126.146292,5.04189189 125.450639,4.97189189 124.754987,4.97189189 C122.38977,4.97189189 121.068031,6.93189189 121.068031,11.9718919 C121.068031,17.2918919 122.250639,19.3918919 124.824552,19.3918919 C125.7289,19.2518919 126.424552,19.1118919 126.841944,18.9018919 Z M130.668031,9.17189189 L130.668031,8.12189189 L135.815857,7.42189189 L136.372379,7.49189189 L136.372379,17.0118919 C136.372379,18.2718919 136.9289,18.6218919 137.972379,18.6218919 C138.598465,18.6218919 139.154987,18.4818919 139.641944,18.2718919 L139.641944,9.80189189 L138.250639,9.17189189 L138.250639,8.12189189 L143.398465,7.42189189 L143.885422,7.49189189 L143.885422,18.6218919 L145.276726,19.3218919 L145.276726,20.3018919 L140.198465,20.8618919 L139.711509,20.7918919 L139.711509,19.2518919 L139.572379,19.2518919 C138.668031,20.0918919 137.346292,20.8618919 135.746292,20.8618919 C133.311509,20.8618919 132.1289,19.3918919 132.1289,17.1518919 L132.1289,9.80189189 L130.668031,9.17189189 Z M153.763683,20.9318919 C152.720205,20.9318919 151.954987,20.7218919 151.537596,20.5118919 L151.537596,24.0818919 L153.068031,24.6418919 L153.068031,25.6918919 L145.902813,25.6918919 L145.902813,24.6418919 L147.224552,24.0818919 L147.224552,9.87189189 L145.833248,9.17189189 L145.833248,8.19189189 L150.981074,7.42189189 L151.468031,7.49189189 L151.468031,8.96189189 L151.607161,8.96189189 C152.233248,8.19189189 153.485422,7.35189189 155.224552,7.35189189 C157.659335,7.35189189 159.607161,9.03189189 159.607161,13.7218919 C159.676726,18.8318919 156.894118,20.9318919 153.763683,20.9318919 Z M152.9289,9.66189189 C152.372379,9.66189189 151.885422,9.80189189 151.537596,10.0118919 L151.537596,19.0418919 C151.815857,19.2518919 152.233248,19.4618919 152.859335,19.4618919 C154.320205,19.4618919 155.224552,18.0618919 155.224552,14.2118919 C155.224552,10.7118919 154.320205,9.66189189 152.9289,9.66189189 Z M51.085422,27.7918919 L50.111509,31.0118919 L48.1636829,31.0118919 L48.1636829,27.0918919 C49.5549872,26.5318919 51.4332481,26.2518919 53.4506394,26.2518919 C57.3462916,26.2518919 59.5028133,27.9318919 59.5028133,31.0818919 C59.5028133,34.0918919 57.5549872,36.2618919 53.7984655,38.5018919 L50.7375959,40.3918919 L50.7375959,40.4618919 L59.711509,40.4618919 L59.4332481,43.5418919 L47.8158568,43.5418919 L47.8158568,40.8818919 L51.2941176,37.7318919 C53.7984655,35.4218919 54.911509,33.2518919 54.911509,31.1518919 C54.911509,28.7718919 54.2158568,27.7218919 52.5462916,27.7218919 C51.9202046,27.6518919 51.4332481,27.7218919 51.085422,27.7918919 Z M60.6158568,35.0718919 C60.6158568,29.0518919 64.0941176,26.1818919 68.059335,26.1818919 C71.9549872,26.1818919 75.2245524,29.0518919 75.2245524,34.9318919 C75.2245524,40.8118919 71.885422,43.8218919 67.8506394,43.8218919 C64.0245524,43.8218919 60.6158568,40.8118919 60.6158568,35.0718919 Z M70.285422,35.1418919 C70.285422,29.6818919 69.7289003,27.8618919 67.9897698,27.8618919 C66.3202046,27.8618919 65.6941176,29.7518919 65.6941176,34.9318919 C65.6941176,40.3218919 66.3202046,42.2118919 68.059335,42.2118919 C69.7289003,42.1418919 70.285422,40.3218919 70.285422,35.1418919 Z M76.4767263,42.2818919 L78.911509,41.5818919 L78.911509,29.6818919 L76.4767263,30.0318919 L76.4767263,28.6318919 L81.3462916,26.3218919 L83.1549872,26.3218919 L83.1549872,41.5818919 L85.5202046,42.2818919 L85.5202046,43.4718919 L76.4767263,43.4718919 L76.4767263,42.2818919 Z M92.5462916,43.8218919 C88.4419437,43.8218919 86.4245524,41.8618919 86.4245524,39.4818919 C86.4245524,37.5218919 87.8158568,36.0518919 90.0419437,35.3518919 C88.0245524,34.0218919 86.911509,32.6218919 86.911509,30.6618919 C86.911509,27.9318919 89.0680307,26.1818919 92.7549872,26.1818919 C96.6506394,26.1818919 98.3897698,28.0018919 98.3897698,30.2418919 C98.3897698,32.1318919 96.7897698,33.3918919 94.9810742,33.8818919 L95.1202046,33.9518919 C97.485422,35.2818919 98.9462916,36.4718919 98.9462916,39.2018919 C99.0158568,42.0018919 96.7202046,43.8218919 92.5462916,43.8218919 Z M92.7549872,42.2118919 C94.4245524,42.2118919 95.3289003,41.3718919 95.3289003,40.0418919 C95.3289003,38.6418919 94.3549872,37.8718919 92.8245524,36.9618919 L91.4332481,36.1218919 C90.459335,36.8918919 89.9723785,37.9418919 89.9723785,39.3418919 C89.9723785,41.1618919 91.0158568,42.2118919 92.7549872,42.2118919 Z M93.5202046,33.1118919 C94.3549872,32.4118919 94.911509,31.5018919 94.911509,30.3118919 C94.911509,28.4918919 93.8680307,27.8618919 92.6158568,27.8618919 C91.3636829,27.8618919 90.459335,28.4218919 90.459335,29.8218919 C90.459335,31.1518919 91.3636829,31.9218919 92.8245524,32.7618919 L93.5202046,33.1118919 Z"/>
    <polygon fill="#0084C6" points="36.174 61.6 5.565 61.6 8.348 57.4 33.391 57.4"/>
    <polygon fill="#C70000" points="41.739 70 0 70 2.783 65.8 38.957 65.8"/>
    <path fill="#121212" d="M18.0869565,47.6 C16.0695652,51.24 13.0086957,54.67 8.34782609,57.4 L21.2173913,57.4 C28.8695652,49.98 33.1130435,42.35 35.4086957,36.4 C39.3043478,26.39 38.9565217,18.83 38.8869565,18.13 C38.8869565,8.12 30.8173913,0 20.8695652,0 C10.9217391,0 2.7826087,8.12 2.7826087,18.2 C2.7826087,20.65 3.26956522,23.03 4.17391304,25.2 C5.91304348,31.36 9.73913043,40.46 18.0869565,47.6 Z M19.2,53.62 C22.8869565,49 24.626087,43.75 25.2521739,38.71 C26.3652174,39.34 27.6173913,39.69 29.0086957,39.69 L29.3565217,39.69 C27.0608696,44.17 23.7913043,48.93 19.2,53.62 Z M29.0086957,35.49 C27.1304348,35.49 25.6,33.95 25.6,32.06 C25.6,30.17 27.1304348,28.63 29.0086957,28.63 C30.8869565,28.63 32.4173913,30.17 32.4173913,32.06 C32.4173913,33.95 30.8869565,35.49 29.0086957,35.49 Z M12.3826087,29.26 C12.173913,29.05 11.8956522,28.91 11.6869565,28.7 L11.6173913,28.63 C8.76521739,26.04 6.95652174,22.33 6.95652174,18.2 C6.95652174,10.5 13.2173913,4.2 20.8695652,4.2 C28.5217391,4.2 34.7826087,10.5 34.7826087,18.2 C34.7826087,20.86 34.0173913,23.38 32.7652174,25.48 C31.6521739,24.85 30.4,24.5 29.0086957,24.5 C27.4782609,24.5 26.0173913,24.99 24.8347826,25.76 C23.9304348,20.65 22.5391304,17.22 22.4695652,17.08 L18.6434783,18.69 C18.7130435,18.83 21.0782609,24.71 21.3565217,32.2 L20.8695652,32.2 C20.4521739,32.2 20.0347826,32.2 19.6173913,32.13 C19.4782609,32.13 19.3391304,32.13 19.2,32.06 C18.9217391,32.06 18.6434783,31.99 18.3652174,31.92 C18.226087,31.92 18.0869565,31.85 17.9478261,31.85 C17.6,31.78 17.1826087,31.64 16.8347826,31.57 C16.6956522,31.5 16.5565217,31.5 16.4173913,31.43 C16.2086957,31.36 16,31.29 15.7217391,31.15 C15.5130435,31.08 15.373913,31.01 15.1652174,30.94 C15.026087,30.87 14.8173913,30.8 14.6782609,30.73 C13.9130435,30.38 13.2173913,29.89 12.5913043,29.4 C12.5217391,29.33 12.4521739,29.33 12.3826087,29.26 Z M20.8695652,36.4 L21.2869565,36.4 C21.0782609,38.78 20.6608696,41.16 19.8956522,43.54 C16.7652174,40.67 14.4,37.52 12.5913043,34.37 C15.0956522,35.63 17.8782609,36.4 20.8695652,36.4 Z"/>
  </g>
</svg>
