<svg xmlns="http://www.w3.org/2000/svg" xmlns:xlink="http://www.w3.org/1999/xlink" id="Layer_1" width="5.913" height="8.443" x="0" y="0" enable-background="new 0 0 5.913 8.443" version="1.1" viewBox="0 0 5.913 8.443" xml:space="preserve"><g><path fill="#FFF" d="M0.192,3.826h0.768V2.818C0.959,0.912,2.147,0,3.742,0C4.75,0,5.337,0.216,5.793,0.563v1.127 C5.385,1.547,4.989,1.463,4.45,1.463c-0.828,0-1.475,0.288-1.559,1.583l-0.06,0.779H4.81v1.104H2.759L2.747,5.241 C2.687,6.188,2.363,6.596,1.835,6.98v0.036h4.078L5.745,8.443H0V7.4c0.612-0.324,0.959-0.768,0.959-1.775V4.929H0.192V3.826z"/></g></svg>