<?xml version="1.0" encoding="utf-8"?>
<!-- Generator: Adobe Illustrator 14.0.0, SVG Export Plug-In . SVG Version: 6.00 Build 43363)  -->
<!DOCTYPE svg PUBLIC "-//W3C//DTD SVG 1.1//EN" "http://www.w3.org/Graphics/SVG/1.1/DTD/svg11.dtd">
<svg version="1.1" id="Layer_1" xmlns="http://www.w3.org/2000/svg" xmlns:xlink="http://www.w3.org/1999/xlink" x="0px" y="0px"
	 width="28.361px" height="28.355px" viewBox="0 0 28.361 28.355" enable-background="new 0 0 28.361 28.355" xml:space="preserve">
<g id="XMLID_1_" opacity="0.75">
	<g>
		<path fill="#EE695C" d="M14.176,0.004c7.841,0,14.181,6.34,14.181,14.18c0,7.831-6.34,14.181-14.181,14.181
			c-7.829,0-14.18-6.351-14.18-14.181C-0.004,6.344,6.346,0.004,14.176,0.004z M28.036,14.184c0-7.64-6.22-13.859-13.86-13.859
			c-7.64,0-13.859,6.22-13.859,13.859c0,7.641,6.22,13.851,13.859,13.851C21.816,28.034,28.036,21.824,28.036,14.184z"/>
		<path fill="#EE695C" d="M14.176,0.324c7.641,0,13.86,6.22,13.86,13.859c0,7.641-6.22,13.851-13.86,13.851
			c-7.64,0-13.859-6.21-13.859-13.851C0.316,6.544,6.536,0.324,14.176,0.324z"/>
	</g>
</g>
<polygon fill="#FFFFFF" points="11.341,7.753 16.719,14.182 11.341,20.608 11.968,21.235 17.769,15.435 17.769,15.437 18.691,14.51 
	18.691,13.853 17.769,12.927 11.968,7.126 "/>
</svg>
