<?xml version="1.0" encoding="utf-8"?>
<!-- Generator: Adobe Illustrator 16.0.1, SVG Export Plug-In . SVG Version: 6.00 Build 0)  -->
<!DOCTYPE svg PUBLIC "-//W3C//DTD SVG 1.1//EN" "http://www.w3.org/Graphics/SVG/1.1/DTD/svg11.dtd">
<svg version="1.1" id="Layer_1" xmlns="http://www.w3.org/2000/svg" xmlns:xlink="http://www.w3.org/1999/xlink" x="0px" y="0px"
	 width="169.817px" height="169.816px" viewBox="0 0 169.817 169.816" enable-background="new 0 0 169.817 169.816"
	 xml:space="preserve">
<path d="M84.909,0C38.016,0,0,38.014,0,84.908c0,46.895,38.016,84.908,84.909,84.908c46.895,0,84.908-38.014,84.908-84.908
	C169.817,38.014,131.804,0,84.909,0"/>
<path fill="#FFFFFF" d="M99.932,20.973c11,1.754,25,9.294,30,14.647V60h-3.045L99.932,23.701V20.973z"/>
<path fill="#FFFFFF" d="M89.932,22.513c0,0-0.181-0.001-0.268-0.001c-19.264,0-29.732,26.676-29.732,62.661v0.13
	c0,35.985,10.469,62.662,29.732,62.662c0.087,0,0.268-0.001,0.268-0.002v2.773c-29,1.984-68-20.114-67-65.433v-0.13
	c-1-45.318,38-67.416,67-65.433V22.513z"/>
<path fill="#FFFFFF" d="M138.932,90.82l-9,3.949v40.737c-5,4.733-18,12.111-30,14.647v-2.959v-5.555V93.881l-10-3.316V88h49V90.82z"
	/>
</svg>
