<svg xmlns="http://www.w3.org/2000/svg" xmlns:xlink="http://www.w3.org/1999/xlink" id="Layer_1" width="247" height="175" x="0" y="0" enable-background="new 0 0 247 175" version="1.1" viewBox="0 0 247 175" xml:space="preserve"><path fill="#010101" d="M182.159,108.395h-10.147L139.788,82.53V52.21h-3.086v31.896l30.256,24.288h-8.133	L132.69,86.773V43.75h-3.088v8.967h-3.537V6.424h-0.183c-0.744-2.451-2.783-4.201-5.708-4.822	c-3.924-0.835-9.704,0.525-12.665,4.696c-1.584,2.235-4.001,3.514-6.638,3.514l0,0c-2.634,0-5.055-1.279-6.639-3.514	c-0.398-0.556-1.094-0.784-1.728-0.57c-0.635,0.216-1.062,0.833-1.062,1.527v14.057c0,0.343,0.105,0.675,0.3,0.954	c2.172,3.062,5.5,4.818,9.127,4.818c0,0,0,0,0.002,0c3.627,0,6.951-1.756,9.125-4.822c1.586-2.234,4.007-3.516,6.643-3.516	c2.48,0,4.756,1.144,6.338,3.139v30.831h-2.863V43.75h-3.088v43.023l-26.133,21.621h-8.132l30.257-24.288V52.21h-3.088v30.323	l-32.223,25.866H65.419v9.869H1.483v55.364h244.033v-55.367h-63.357V108.395z M116.64,15.537	C116.638,15.537,116.638,15.537,116.64,15.537c-3.63,0-6.957,1.76-9.13,4.822c-1.584,2.231-4.001,3.514-6.638,3.514l0,0	c-2.473,0-4.756-1.127-6.34-3.114v-9.754c1.844,1.307,4.036,2.019,6.34,2.019c0,0,0,0,0.004,0c3.627,0,6.949-1.759,9.123-4.821	c2.119-2.987,6.521-4.105,9.557-3.46c1.082,0.231,2.927,0.902,3.422,2.757v10.066C121.128,16.255,118.948,15.537,116.64,15.537z M129.603,55.929v23.572h-3.537V55.929H129.603z M122.974,55.929v23.572h-2.863V55.929H122.974z M120.114,88.322v-5.614h2.863v5.308	h3.088v-5.308h3.537v5.614l24.265,20.072h-19.021v7.754h-6.786v19.735h-9.114v-19.735h-6.783v-7.754H95.855L120.114,88.322z M22.864,170.42H9.671v-43.869h13.193V170.42z M44.026,170.42h-13.19v-43.869h13.19V170.42z M64.871,170.42h-13.19v-43.869h13.19	V170.42z M86.491,170.42H73.3v-53.496h13.191V170.42z M108.299,170.42H95.106v-23.068h13.192V170.42z M130.097,170.42h-13.191	v-23.068h13.191V170.42z M151.312,170.42h-13.193v-23.068h13.193V170.42z M173.734,170.42H160.54v-53.496h13.194V170.42z M195.352,170.42h-13.192v-43.869h13.192V170.42z M216.198,170.42h-13.195v-43.869h13.195V170.42z M237.687,170.42h-13.192v-44.271	h13.192V170.42z M242.429,121.473v48.947h-1.657v-47.477h-19.364v47.477h-2.124v-47.077h-19.365v47.077h-1.476v-47.077h-19.369	v47.077h-2.25v-56.705h-19.368v56.705h-3.052v-26.277h-19.37v26.277h-1.845v-26.277h-19.367v26.277h-2.429v-26.277H92.024v26.277	h-2.439v-56.705H70.22v56.705h-2.252v-47.077H48.603v47.077h-1.479v-47.077H27.755v47.077h-1.794v-47.077H6.593v47.077H4.572	v-48.947h63.935v-9.871h40.562v7.754h6.785v19.737h15.289v-19.736h6.784v-7.755h41.14v9.871H242.429z" opacity=".1"/></svg>