<?xml version="1.0" encoding="utf-8"?>
<!-- Generator: Adobe Illustrator 16.0.1, SVG Export Plug-In . SVG Version: 6.00 Build 0)  -->
<!DOCTYPE svg PUBLIC "-//W3C//DTD SVG 1.1//EN" "http://www.w3.org/Graphics/SVG/1.1/DTD/svg11.dtd">
<svg version="1.1" id="Layer_1" xmlns="http://www.w3.org/2000/svg" xmlns:xlink="http://www.w3.org/1999/xlink" x="0px" y="0px"
	 width="210.645px" height="48px" viewBox="0 0 210.645 48" enable-background="new 0 0 210.645 48" xml:space="preserve">
<g>
	<path fill="#010101" d="M2,29.281c0-9.264,5.718-14.662,14.345-14.662c8.681,0,12.81,4.34,12.81,16.195H12.11
		c0.529,4.922,3.122,6.722,7.621,6.722c3.706,0,6.089-0.688,8.099-1.323v5.135c-2.01,1.375-5.346,2.805-10.745,2.805
		C7.188,44.152,2,38.807,2,29.281z M19.784,25.998c0-4.393-1.535-5.717-3.599-5.717c-2.171,0-3.812,1.324-4.128,6.035L19.784,25.998
		z"/>
	<path fill="#010101" d="M30.846,38.648l3.121-0.742v-27.1L30.58,9.908V5.039l12.227-1.218l0.848,0.37v33.715l3.016,0.742v4.816
		H30.846V38.648z"/>
	<path fill="#010101" d="M46.227,29.281c0-9.264,5.717-14.662,14.344-14.662c8.68,0,12.809,4.34,12.809,16.195H56.336
		c0.529,4.922,3.123,6.722,7.621,6.722c3.705,0,6.088-0.688,8.1-1.323v5.135c-2.012,1.375-5.348,2.805-10.744,2.805
		C51.414,44.152,46.227,38.807,46.227,29.281z M64.012,25.998c0-4.393-1.535-5.717-3.6-5.717c-2.172,0-3.811,1.324-4.129,6.035
		L64.012,25.998z"/>
	<path fill="#010101" d="M74.834,29.544c0-10.374,6.299-14.925,15.721-14.925c3.492,0,6.986,0.527,8.68,1.11v8.892h-6.193
		l-0.74-3.863c-0.424-0.158-0.9-0.371-2.17-0.371c-3.123,0-4.977,2.171-4.977,8.363c0,6.67,2.805,8.732,7.621,8.732
		c2.754,0,5.188-0.582,6.617-1.164v5.24c-1.693,1.217-4.922,2.594-9.738,2.594C79.65,44.152,74.834,38.542,74.834,29.544z"/>
	<path fill="#010101" d="M104.365,36.213V20.969h-3.016v-4.393l3.863-1.43l1.217-6.562h7.623v6.617h5.715v5.768h-5.715v13.656
		c0,2.488,1.109,3.229,3.439,3.229c0.9,0,1.852-0.158,2.594-0.371v5.029c-1.27,0.794-3.705,1.535-6.828,1.535
		C107.596,44.047,104.365,42.193,104.365,36.213z"/>
	<path fill="#010101" d="M121.988,38.648l3.072-0.742V21.658l-3.336-0.848v-4.922l12.121-1.218l0.898,0.37v22.865l2.859,0.742v4.816
		h-15.615V38.648z M124.266,8.162c0-2.912,2.436-4.711,5.346-4.711c2.963,0,5.346,1.799,5.346,4.711
		c0,2.963-2.383,4.762-5.346,4.762C126.701,12.924,124.266,11.125,124.266,8.162z"/>
	<path fill="#010101" d="M137.502,29.939c0-9.738,6.457-14.926,14.607-14.926c9.475,0,14.662,5.293,14.662,14.555
		c0,9.687-6.51,14.98-14.607,14.98C142.742,44.549,137.502,38.885,137.502,29.939z M156.504,29.939c0-7.305-1.801-9.156-4.447-9.156
		c-2.592,0-4.34,1.641-4.34,8.785c0,7.306,1.799,9.158,4.5,9.158C154.809,38.727,156.504,36.874,156.504,29.939z"/>
	<path fill="#010101" d="M167.514,38.648l3.068-0.742V21.658l-3.227-0.848v-4.922l11.695-1.218l0.795,0.37v3.018h0.316
		c2.701-2.064,5.4-3.439,9.316-3.439c4.34,0,7.357,1.957,7.357,6.986v16.301l2.805,0.742v4.816h-14.768v-4.816l2.275-0.582V24.992
		c0-2.275-1.057-3.018-3.332-3.018c-1.377,0-2.436,0.318-3.547,0.689v15.402l2.223,0.582v4.816h-14.979V38.648z"/>
</g>
</svg>
