<svg xmlns="http://www.w3.org/2000/svg" xmlns:xlink="http://www.w3.org/1999/xlink" id="Layer_1" width="135.957" height="44.027" x="0" y="0" enable-background="new 0 0 135.957 44.027" version="1.1" viewBox="0 0 135.957 44.027" xml:space="preserve"><g><rect width="15" height="15" x="6.457" y="15.555" fill="#8DC641" stroke="#010101" stroke-miterlimit="10" stroke-width="2"/><g><path fill="#A8AAAD" d="M27.272,23.635c0-5.151,3.416-7.896,7.728-7.896c5.012,0,7.756,2.8,7.756,7.7 c0,5.124-3.444,7.924-7.728,7.924C30.044,31.364,27.272,28.368,27.272,23.635z M37.324,23.635c0-3.863-0.952-4.844-2.352-4.844 c-1.372,0-2.296,0.868-2.296,4.648c0,3.863,0.952,4.844,2.38,4.844C36.428,28.284,37.324,27.303,37.324,23.635z"/><path fill="#A8AAAD" d="M43.568,34.108l1.596-0.364v-14.28l-1.68-0.448v-2.604l6.16-0.645l0.448,0.196v1.456h0.168 c0.84-0.784,2.296-1.708,4.312-1.708c2.688,0,5.404,1.624,5.404,7.224c0,6.133-3.304,8.429-7.616,8.429 c-1.092,0-1.54-0.057-2.072-0.168v2.576l1.848,0.336v2.491h-8.568V34.108z M54.6,23.58c0-3.164-0.812-4.2-2.408-4.2 c-0.84,0-1.456,0.196-1.904,0.42v8.008c0.364,0.252,0.812,0.505,1.708,0.505C53.62,28.312,54.6,27.416,54.6,23.58z"/><path fill="#A8AAAD" d="M60.928,28.452l1.624-0.393v-8.596l-1.764-0.448v-2.604l6.412-0.645l0.476,0.196v12.096l1.512,0.393V31 h-8.26V28.452z M62.132,12.324c0-1.54,1.288-2.492,2.828-2.492c1.568,0,2.828,0.952,2.828,2.492c0,1.567-1.26,2.52-2.828,2.52 C63.419,14.844,62.132,13.891,62.132,12.324z"/><path fill="#A8AAAD" d="M69.887,28.452l1.625-0.393v-8.596l-1.709-0.448v-2.604l6.188-0.645l0.421,0.196v1.597h0.168 c1.428-1.093,2.855-1.82,4.928-1.82c2.295,0,3.892,1.036,3.892,3.696v8.623l1.483,0.393V31h-7.812v-2.548l1.204-0.309v-6.915 c0-1.204-0.561-1.597-1.764-1.597c-0.729,0-1.288,0.168-1.877,0.364v8.147l1.177,0.309V31h-7.925V28.452z"/><path fill="#A8AAAD" d="M87.64,28.452l1.624-0.393v-8.596L87.5,19.015v-2.604l6.412-0.645l0.476,0.196v12.096l1.512,0.393V31 h-8.26V28.452z M88.844,12.324c0-1.54,1.287-2.492,2.828-2.492c1.568,0,2.828,0.952,2.828,2.492c0,1.567-1.26,2.52-2.828,2.52 C90.131,14.844,88.844,13.891,88.844,12.324z"/><path fill="#A8AAAD" d="M96.684,23.635c0-5.151,3.416-7.896,7.728-7.896c5.013,0,7.757,2.8,7.757,7.7 c0,5.124-3.445,7.924-7.729,7.924C99.455,31.364,96.684,28.368,96.684,23.635z M106.735,23.635c0-3.863-0.952-4.844-2.353-4.844 c-1.371,0-2.295,0.868-2.295,4.648c0,3.863,0.951,4.844,2.379,4.844C105.84,28.284,106.735,27.303,106.735,23.635z"/><path fill="#A8AAAD" d="M112.979,28.452l1.625-0.393v-8.596l-1.709-0.448v-2.604l6.188-0.645l0.421,0.196v1.597h0.168 c1.428-1.093,2.855-1.82,4.928-1.82c2.295,0,3.892,1.036,3.892,3.696v8.623l1.483,0.393V31h-7.812v-2.548l1.204-0.309v-6.915 c0-1.204-0.561-1.597-1.764-1.597c-0.729,0-1.288,0.168-1.877,0.364v8.147l1.177,0.309V31h-7.925V28.452z"/></g></g></svg>