<svg xmlns="http://www.w3.org/2000/svg" xmlns:xlink="http://www.w3.org/1999/xlink" id="Layer_1" width="102.957" height="44.027" x="0" y="0" enable-background="new 0 0 102.957 44.027" version="1.1" viewBox="0 0 102.957 44.027" xml:space="preserve"><g><rect width="15" height="15" x="6.457" y="16.055" fill="#C1282D" stroke="#010101" stroke-miterlimit="10" stroke-width="2"/><g><path fill="#A8AAAD" d="M27.993,28.452l1.624-0.393v-8.596l-1.708-0.448v-2.604l6.188-0.645l0.42,0.196v1.597h0.168 c1.428-1.093,2.856-1.82,4.928-1.82c2.296,0,3.892,1.036,3.892,3.696v8.623l1.484,0.393V31h-7.812v-2.548l1.204-0.309v-6.915 c0-1.204-0.56-1.597-1.764-1.597c-0.728,0-1.288,0.168-1.876,0.364v8.147l1.176,0.309V31h-7.924V28.452z"/><path fill="#A8AAAD" d="M45.801,23.496c0-4.9,3.024-7.756,7.588-7.756c4.592,0,6.775,2.296,6.775,8.567h-9.016 c0.28,2.604,1.652,3.557,4.032,3.557c1.96,0,3.22-0.364,4.284-0.7v2.716c-1.064,0.729-2.828,1.484-5.685,1.484 C48.544,31.365,45.801,28.536,45.801,23.496z M55.209,21.76c0-2.323-0.812-3.023-1.904-3.023c-1.148,0-2.016,0.7-2.184,3.191 L55.209,21.76z"/><path fill="#A8AAAD" d="M61.705,18.989l-1.148-0.393v-2.548h7.504v2.548l-1.232,0.336l1.568,6.049h0.111l2.633-8.933h3.556 l2.66,8.933h0.112l1.539-6.049l-1.176-0.336v-2.548h6.104v2.548l-1.147,0.393L79.205,31h-4.396l-2.465-8.428H72.26L69.74,31 h-4.451L61.705,18.989z"/><path fill="#A8AAAD" d="M84.889,30.441l-0.252-4.089h3.191l0.561,1.652c0.336,0.196,1.063,0.448,1.932,0.448 c1.232,0,1.988-0.477,1.988-1.316s-0.477-1.147-1.793-1.456l-1.651-0.392c-2.8-0.672-4.256-1.904-4.256-4.564 c0-2.911,2.044-5.012,6.692-5.012c1.848,0,3.723,0.309,4.955,0.812v3.892h-3.107l-0.336-1.484 c-0.364-0.195-0.868-0.363-1.709-0.363c-1.063,0-1.932,0.336-1.932,1.176c0,0.784,0.532,1.092,2.045,1.456l1.791,0.42 c3.024,0.7,4.2,2.184,4.2,4.452c0,3.164-2.071,5.292-7.056,5.292C88.444,31.365,86.428,31.056,84.889,30.441z"/></g></g></svg>