<svg xmlns="http://www.w3.org/2000/svg" xmlns:xlink="http://www.w3.org/1999/xlink" id="Layer_1" width="222.457" height="44.027" x="0" y="0" enable-background="new 0 0 222.457 44.027" version="1.1" viewBox="0 0 222.457 44.027" xml:space="preserve"><g><rect width="15" height="15" x="6.457" y="16.027" fill="#214583" stroke="#010101" stroke-miterlimit="10" stroke-width="2"/><g><path fill="#A8AAAD" d="M26.993,23.406c0-5.487,3.332-7.896,8.316-7.896c1.848,0,3.696,0.28,4.592,0.588v4.704h-3.276 l-0.392-2.044c-0.224-0.084-0.476-0.196-1.148-0.196c-1.652,0-2.632,1.148-2.632,4.424c0,3.528,1.484,4.62,4.032,4.62 c1.456,0,2.744-0.308,3.5-0.616v2.772c-0.896,0.644-2.604,1.372-5.152,1.372C29.541,31.135,26.993,28.167,26.993,23.406z"/><path fill="#A8AAAD" d="M41.077,27.047c0-2.94,2.072-3.893,5.46-4.509l2.604-0.504v-0.728c0-1.512-0.56-2.072-2.8-2.072 c-1.316,0-2.828,0.112-3.836,0.28v-2.968c1.428-0.504,3.752-1.036,6.272-1.036c3.78,0,5.488,1.567,5.488,4.899v6.664 c0,0.7,0.448,0.896,1.008,0.896h0.476v2.436c-0.532,0.336-1.792,0.7-3.024,0.7c-1.596,0-2.576-0.504-2.996-1.736h-0.168 c-0.756,0.952-2.156,1.765-4.032,1.765C42.812,31.135,41.077,29.454,41.077,27.047z M49.141,27.606v-3.22l-1.316,0.056 c-1.148,0.084-1.652,0.672-1.652,1.876c0,1.26,0.448,1.849,1.512,1.849C48.301,28.167,48.861,27.886,49.141,27.606z"/><path fill="#A8AAAD" d="M56.364,28.222l1.624-0.393v-8.596l-1.708-0.448v-2.604l6.188-0.645l0.42,0.196v1.54h0.168 c1.316-1.036,2.66-1.764,4.76-1.764c1.568,0,2.828,0.588,3.416,1.904h0.14c1.232-1.064,2.884-1.904,4.956-1.904 c2.184,0,3.864,1.12,3.864,3.752v8.567l1.484,0.393v2.548h-7.728v-2.548l1.12-0.309v-6.831c0-1.288-0.476-1.708-1.68-1.708 c-0.644,0-1.204,0.168-1.792,0.392c0.028,0.112,0.056,0.42,0.056,0.672v7.476l1.148,0.309v2.548h-7.392v-2.548l1.12-0.309v-6.831 c0-1.288-0.504-1.708-1.624-1.708c-0.784,0-1.204,0.168-1.792,0.392v8.147l1.148,0.309v2.548h-7.896V28.222z"/><path fill="#A8AAAD" d="M82.404,33.879L84,33.514v-14.28l-1.68-0.448v-2.604l6.16-0.645l0.448,0.196v1.456h0.168 c0.84-0.784,2.296-1.708,4.312-1.708c2.688,0,5.404,1.624,5.404,7.224c0,6.133-3.304,8.429-7.616,8.429 c-1.092,0-1.54-0.057-2.072-0.168v2.576l1.848,0.336v2.491h-8.568V33.879z M93.437,23.35c0-3.164-0.812-4.2-2.408-4.2 c-0.84,0-1.456,0.196-1.904,0.42v8.008c0.364,0.252,0.812,0.505,1.708,0.505C92.457,28.083,93.437,27.186,93.437,23.35z"/><path fill="#A8AAAD" d="M99.708,27.047c0-2.94,2.072-3.893,5.46-4.509l2.604-0.504v-0.728c0-1.512-0.56-2.072-2.8-2.072 c-1.316,0-2.828,0.112-3.836,0.28v-2.968c1.428-0.504,3.752-1.036,6.272-1.036c3.78,0,5.488,1.567,5.488,4.899v6.664 c0,0.7,0.447,0.896,1.008,0.896h0.476v2.436c-0.532,0.336-1.792,0.7-3.024,0.7c-1.596,0-2.576-0.504-2.996-1.736h-0.168 c-0.756,0.952-2.156,1.765-4.032,1.765C101.444,31.135,99.708,29.454,99.708,27.047z M107.772,27.606v-3.22l-1.316,0.056 c-1.148,0.084-1.652,0.672-1.652,1.876c0,1.26,0.448,1.849,1.512,1.849C106.932,28.167,107.492,27.886,107.772,27.606z"/><path fill="#A8AAAD" d="M115.023,28.222l1.625-0.393v-8.596l-1.765-0.448v-2.604l6.412-0.645l0.476,0.196V27.83l1.512,0.393v2.548 h-8.26V28.222z M116.229,12.094c0-1.54,1.287-2.492,2.827-2.492c1.568,0,2.828,0.952,2.828,2.492c0,1.567-1.26,2.52-2.828,2.52 C117.516,14.614,116.229,13.662,116.229,12.094z"/><path fill="#A8AAAD" d="M123.34,33.066c0-1.652,1.484-2.576,3.136-3.023v-0.141c-1.315-0.392-1.932-1.204-1.932-2.408 s0.924-2.38,2.128-3.164c-1.372-0.756-2.296-2.044-2.296-3.779c0-3.248,2.688-5.04,6.608-5.04c1.231,0,2.268,0.168,3.135,0.476 l4.789-0.672v3.024l-2.017-0.084c0.392,0.588,0.644,1.204,0.644,1.987c0,3.248-2.604,5.04-6.579,5.04 c-0.757,0-1.429-0.056-2.072-0.195c-0.224,0.252-0.336,0.588-0.336,0.84c0,0.363,0.252,0.756,1.036,0.756h4.844 c2.604,0,4.62,1.12,4.62,4.088c0,3.108-2.492,5.712-8.624,5.712C125.664,36.482,123.34,35.054,123.34,33.066z M134.344,31.919 c0-0.812-0.477-1.064-1.764-1.064h-3.528c-0.588,0.252-0.952,0.672-0.952,1.372c0,0.812,0.729,1.4,2.717,1.4 C133.42,33.627,134.344,32.843,134.344,31.919z M132.748,20.438c0-1.96-0.784-2.408-1.792-2.408c-0.98,0-1.736,0.561-1.736,2.324 c0,1.848,0.756,2.437,1.736,2.437C131.964,22.791,132.748,22.202,132.748,20.438z"/><path fill="#A8AAAD" d="M139.607,28.222l1.625-0.393v-8.596l-1.709-0.448v-2.604l6.188-0.645l0.421,0.196v1.597h0.168 c1.428-1.093,2.855-1.82,4.928-1.82c2.295,0,3.892,1.036,3.892,3.696v8.623l1.483,0.393v2.548h-7.812v-2.548l1.204-0.309v-6.915 c0-1.204-0.561-1.597-1.764-1.597c-0.729,0-1.288,0.168-1.877,0.364v8.147l1.177,0.309v2.548h-7.925V28.222z"/><path fill="#A8AAAD" d="M163.743,26.934V18.87h-1.597v-2.323l2.045-0.756l0.644-3.473h4.032v3.5h3.023v3.052h-3.023v7.225 c0,1.315,0.588,1.708,1.82,1.708c0.476,0,0.979-0.084,1.371-0.196v2.66c-0.672,0.42-1.959,0.812-3.611,0.812 C165.451,31.078,163.743,30.098,163.743,26.934z"/><path fill="#A8AAAD" d="M173.039,28.222l1.623-0.393v-8.596l-1.707-0.448v-2.604l6.188-0.645l0.42,0.196v2.24h0.168 c0.812-1.344,2.072-2.408,3.78-2.408c0.252,0,0.56,0.028,0.756,0.084v4.536c-0.308-0.084-0.84-0.14-1.315-0.14 c-1.373,0-2.324,0.168-3.164,0.56v7.224l2.1,0.393v2.548h-8.848V28.222z"/><path fill="#A8AAAD" d="M184.352,27.047c0-2.94,2.072-3.893,5.459-4.509l2.604-0.504v-0.728c0-1.512-0.56-2.072-2.8-2.072 c-1.316,0-2.828,0.112-3.836,0.28v-2.968c1.428-0.504,3.752-1.036,6.271-1.036c3.78,0,5.488,1.567,5.488,4.899v6.664 c0,0.7,0.448,0.896,1.008,0.896h0.477v2.436c-0.532,0.336-1.793,0.7-3.024,0.7c-1.596,0-2.576-0.504-2.996-1.736h-0.168 c-0.756,0.952-2.155,1.765-4.032,1.765C186.087,31.135,184.352,29.454,184.352,27.047z M192.415,27.606v-3.22l-1.315,0.056 c-1.148,0.084-1.652,0.672-1.652,1.876c0,1.26,0.447,1.849,1.512,1.849C191.575,28.167,192.135,27.886,192.415,27.606z"/><path fill="#A8AAAD" d="M199.667,28.222l1.624-0.393v-8.596l-1.764-0.448v-2.604l6.412-0.645l0.476,0.196V27.83l1.512,0.393v2.548 h-8.26V28.222z M200.871,12.094c0-1.54,1.287-2.492,2.828-2.492c1.568,0,2.828,0.952,2.828,2.492c0,1.567-1.26,2.52-2.828,2.52 C202.158,14.614,200.871,13.662,200.871,12.094z"/><path fill="#A8AAAD" d="M208.627,28.222l1.652-0.393V13.494l-1.793-0.476v-2.576l6.469-0.644l0.447,0.195V27.83l1.596,0.393v2.548 h-8.371V28.222z"/></g></g></svg>