<svg xmlns="http://www.w3.org/2000/svg" xmlns:xlink="http://www.w3.org/1999/xlink" id="Layer_1" width="35" height="132" x="0" y="0" enable-background="new 0 0 35 132" version="1.1" viewBox="0 0 35 132" xml:space="preserve"><g><rect width="32" height="32" x="1.196" y="1.027" fill="#C1282D" stroke="#010101" stroke-miterlimit="10" stroke-width="2"/><rect width="32" height="33" x="1.196" y="32.027" fill="#214583" stroke="#010101" stroke-miterlimit="10" stroke-width="2"/><rect width="32" height="33" x="1.196" y="65.027" fill="#8DC641" stroke="#010101" stroke-miterlimit="10" stroke-width="2"/><rect width="32" height="32" x="1.196" y="98.027" fill="#FBB03C" stroke="#010101" stroke-miterlimit="10" stroke-width="2"/><g><path fill="#FFF" d="M10.399,50.19c0-6.533,3.756-9.311,7.947-9.311c4.424,0,7.82,2.804,7.82,9.131 c0,6.533-3.705,9.311-7.923,9.311C13.743,59.321,10.399,56.492,10.399,50.19z M20.739,50.268c0-4.784-0.643-6.353-2.443-6.353 c-1.646,0-2.47,1.826-2.47,6.07c0,4.732,0.644,6.327,2.47,6.327C19.941,56.312,20.739,54.537,20.739,50.268z"/></g></g></svg>