<svg xmlns="http://www.w3.org/2000/svg" xmlns:xlink="http://www.w3.org/1999/xlink" id="Layer_1" width="35" height="130" x="0" y="0" enable-background="new 0 0 35 130" version="1.1" viewBox="0 0 35 130" xml:space="preserve"><g opacity=".1"><rect width="31" height="30" x="2.108" y="4.514" fill="#FFF" stroke="#010101" stroke-miterlimit="10" stroke-width="2"/><rect width="31" height="30" x="2.108" y="34.514" fill="#FFF" stroke="#010101" stroke-miterlimit="10" stroke-width="2"/><rect width="31" height="31" x="2.108" y="64.514" fill="#FFF" stroke="#010101" stroke-miterlimit="10" stroke-width="2"/><rect width="31" height="30" x="2.108" y="95.514" fill="#FFF" stroke="#010101" stroke-miterlimit="10" stroke-width="2"/><g><path fill="#010101" d="M16.545,44.824l-2.849,0.268v-2.215l4.626-1.875h1.947v16.969h-3.725V44.824z"/></g><g><path fill="#010101" d="M11.92,87.644v-2.679c1.12,0.414,2.532,0.755,3.92,0.755c2.41,0,3.652-0.657,3.652-2.337 s-1.193-2.265-3.189-2.265h-1.729v-2.727h1.51c1.923,0,3.019-0.657,3.019-2.167c0-1.582-1.096-1.996-2.946-1.996 c-1.484,0-2.629,0.268-3.627,0.585V72.11c1.217-0.511,2.896-0.852,4.771-0.852c3.311,0,5.502,1.509,5.502,4.261 c0,2.021-1.168,3.335-3.019,3.919v0.073c2.19,0.438,3.579,1.655,3.579,4.163c0,3.165-2.411,5.039-6.501,5.039 C14.55,88.714,12.967,88.228,11.92,87.644z"/></g><g><path fill="#010101" d="M18.231,114.734h-7.742v-2.531l8.01-10.201h3.36v10.006h2.872v2.727h-2.872v4.164h-3.628V114.734z M18.28,112.008v-5.721h-0.098l-4.357,5.648v0.072H18.28z"/></g><g><path fill="#010101" d="M11.945,25.262l3.651-3.481c2.216-2.118,3.506-3.676,3.506-5.624c0-1.753-1.12-2.482-3.116-2.482 c-1.51,0-2.775,0.413-3.749,0.827v-2.8c1.168-0.584,2.653-1.047,4.82-1.047c3.725,0,5.964,1.753,5.964,5.016 c0,2.945-1.631,4.723-4.333,7.182l-2.265,2.045v0.073h6.914v2.849H11.945V25.262z"/></g></g></svg>