<?xml version="1.0" encoding="utf-8"?>
<!-- Generator: Adobe Illustrator 16.0.1, SVG Export Plug-In . SVG Version: 6.00 Build 0)  -->
<!DOCTYPE svg PUBLIC "-//W3C//DTD SVG 1.1//EN" "http://www.w3.org/Graphics/SVG/1.1/DTD/svg11.dtd">
<svg version="1.1" id="Layer_1" xmlns="http://www.w3.org/2000/svg" xmlns:xlink="http://www.w3.org/1999/xlink" x="0px" y="0px"
	 width="35px" height="133px" viewBox="0 0 35 133" enable-background="new 0 0 35 133" xml:space="preserve">
<g>
	<rect x="1.108" y="1.527" fill="#C1282D" stroke="#010101" stroke-width="2" stroke-miterlimit="10" width="32" height="33"/>
	<rect x="1.108" y="34.527" fill="#214583" stroke="#010101" stroke-width="2" stroke-miterlimit="10" width="32" height="32"/>
	<rect x="1.108" y="66.527" fill="#8DC641" stroke="#010101" stroke-width="2" stroke-miterlimit="10" width="32" height="32"/>
	<rect x="1.108" y="98.527" fill="#FBB03C" stroke="#010101" stroke-width="2" stroke-miterlimit="10" width="32" height="32"/>
	<path fill="none" stroke="#010101" stroke-width="0.423" stroke-miterlimit="10" d="M33.084,71.465"/>
	<path fill="none" stroke="#010101" stroke-width="0.423" stroke-miterlimit="10" d="M32.819,71.2"/>
	<g>
		<path fill="#FFFFFF" d="M10.033,50.997c0-6.842,4.063-9.724,8.668-9.724c2.238,0,3.832,0.489,4.784,1.081v2.804
			c-0.798-0.283-2.212-0.387-3.524-0.387c-2.393,0-4.32,0.824-4.604,4.244c0.9-0.565,2.314-1.028,3.78-1.028
			c3.653,0,5.634,2.187,5.634,5.427c0,3.37-2.264,6.276-7.177,6.276C12.76,59.69,10.033,56.244,10.033,50.997z M19.498,53.672
			c0-1.98-0.694-2.624-2.084-2.624c-0.848,0-1.518,0.18-2.057,0.463c-0.025,0.335-0.025,0.283-0.025,0.694
			c0,3.164,0.668,4.45,2.236,4.45C18.906,56.655,19.498,55.703,19.498,53.672z"/>
	</g>
</g>
</svg>
