<svg xmlns="http://www.w3.org/2000/svg" xmlns:xlink="http://www.w3.org/1999/xlink" id="Layer_1" width="35" height="130" x="0" y="0" enable-background="new 0 0 35 130" version="1.1" viewBox="0 0 35 130" xml:space="preserve"><g opacity=".1"><rect width="30" height="30" x="2.108" y="4.514" fill="#FFF" stroke="#010101" stroke-miterlimit="10" stroke-width="2"/><rect width="30" height="30" x="2.108" y="34.514" fill="#FFF" stroke="#010101" stroke-miterlimit="10" stroke-width="2"/><rect width="30" height="31" x="2.108" y="64.514" fill="#FFF" stroke="#010101" stroke-miterlimit="10" stroke-width="2"/><rect width="30" height="30" x="2.108" y="95.514" fill="#FFF" stroke="#010101" stroke-miterlimit="10" stroke-width="2"/><g><path fill="#010101" d="M11.92,57.143v-2.678c1.12,0.414,2.532,0.755,3.92,0.755c2.41,0,3.652-0.657,3.652-2.337 s-1.193-2.265-3.189-2.265h-1.729v-2.727h1.51c1.923,0,3.019-0.657,3.019-2.167c0-1.582-1.096-1.996-2.946-1.996 c-1.484,0-2.629,0.268-3.627,0.585V41.61c1.217-0.511,2.896-0.852,4.771-0.852c3.311,0,5.502,1.509,5.502,4.261 c0,2.021-1.168,3.335-3.019,3.919v0.073c2.19,0.438,3.579,1.655,3.579,4.163c0,3.165-2.411,5.039-6.501,5.039 C14.55,58.214,12.967,57.728,11.92,57.143z"/></g><g><path fill="#010101" d="M18.263,84.271h-7.742v-2.532l8.01-10.2h3.359v10.006h2.873v2.727H21.89v4.162h-3.627V84.271z M18.311,81.545v-5.722h-0.097l-4.358,5.647v0.074H18.311z"/></g><g><path fill="#010101" d="M11.748,116.306l3.652-3.481c2.215-2.118,3.506-3.676,3.506-5.624c0-1.753-1.12-2.483-3.116-2.483 c-1.51,0-2.775,0.414-3.749,0.828v-2.8c1.168-0.585,2.653-1.047,4.82-1.047c3.725,0,5.965,1.753,5.965,5.015 c0,2.946-1.632,4.724-4.334,7.183l-2.264,2.045v0.073h6.914v2.848H11.748V116.306z"/></g><g><path fill="#010101" d="M16.203,14.574l-2.848,0.268v-2.215l4.625-1.875h1.947v16.969h-3.725V14.574z"/></g></g></svg>