<?xml version="1.0" encoding="utf-8"?>
<!-- Generator: Adobe Illustrator 16.0.1, SVG Export Plug-In . SVG Version: 6.00 Build 0)  -->
<!DOCTYPE svg PUBLIC "-//W3C//DTD SVG 1.1//EN" "http://www.w3.org/Graphics/SVG/1.1/DTD/svg11.dtd">
<svg version="1.1" id="Layer_1" xmlns="http://www.w3.org/2000/svg" xmlns:xlink="http://www.w3.org/1999/xlink" x="0px" y="0px"
	 width="36px" height="130px" viewBox="0 0 36 130" enable-background="new 0 0 36 130" xml:space="preserve">
<g>
	<rect x="1.463" y="1.027" fill="#C1282D" stroke="#010101" stroke-width="2" stroke-miterlimit="10" width="33" height="32"/>
	<rect x="1.463" y="32.027" fill="#214583" stroke="#010101" stroke-width="2" stroke-miterlimit="10" width="33" height="33"/>
	<rect x="1.463" y="65.027" fill="#8DC641" stroke="#010101" stroke-width="2" stroke-miterlimit="10" width="33" height="32"/>
	<rect x="1.463" y="97.027" fill="#FBB03C" stroke="#010101" stroke-width="2" stroke-miterlimit="10" width="33" height="32"/>
	<g>
		<path fill="#FFFFFF" d="M11.542,55.06l4.064-3.909c1.93-1.878,3.139-3.292,3.139-5.042c0-1.672-0.951-2.495-2.881-2.495
			c-1.234,0-2.676,0.231-3.756,0.591v-2.932c1.312-0.746,3.473-1.518,5.838-1.518c3.988,0,6.227,2.084,6.227,5.53
			c0,2.855-2.059,5.067-5.273,7.408l-2.289,1.672v0.051h4.371l0.85-1.8h2.676l-0.412,5.246H11.542V55.06z"/>
	</g>
</g>
</svg>
