<svg xmlns="http://www.w3.org/2000/svg" id="Layer_1" data-name="Layer 1" viewBox="0 0 357.55 66.05"><defs><style>.cls-1{fill:#fff}</style></defs><title>logo</title><path d="M393.1,388.26a6,6,0,1,0,6,6,6,6,0,0,0-6-6" class="cls-1" transform="translate(-118.62 -387.95)"/><path d="M437,437.34h18.59v-3.1l-3.59-1.7v-22a7.68,7.68,0,0,1,4.62-1.29c3.1,0,4.56,1.28,4.56,4.8v18.47l-3.58,1.7v3.1h18.59v-3.1l-3.7-1.7v-21c0-6.26-2.86-9.05-8.51-9.05a18.2,18.2,0,0,0-12.15,4.44v-4.44H450.9l-14.09,2.25v3l3.89,1.76v23.09l-3.71,1.7v3.1Z" class="cls-1" transform="translate(-118.62 -387.95)"/><polygon points="265.81 16.65 265.81 19.74 269.64 21.51 269.64 44.53 265.99 46.23 265.99 49.39 284.58 49.39 284.58 46.23 280.94 44.53 280.94 14.4 280.02 14.4 265.81 16.65" class="cls-1"/><path d="M368.62,430.95a4.93,4.93,0,0,1-3.46,1.17c-4.5,0-6.62-3.64-6.62-12,0-9.6,2.67-12.82,6.26-12.82a4.59,4.59,0,0,1,3.83,1.53v22.15Zm0-27a10.25,10.25,0,0,0-5.47-1.52c-8.36,0-16.27,4.8-16.27,18.53,0,13.06,8,17.26,13.29,17.26a10.66,10.66,0,0,0,8.56-3.7h0.36v3.59h1l13.42-1.58v-2.48l-3.58-2V388.62H379l-14.16,2.25V394l3.77,1.7V404Z" class="cls-1" transform="translate(-118.62 -387.95)"/><path d="M321.69,404.6v3.1l3.77,1.76v23l-3.58,1.7v3.16h19.56v-3.16l-4.68-1.7v-18c2-1.57,4.5-2.07,7.53-2.07a12.85,12.85,0,0,1,2.86.3v-9.9a6.6,6.6,0,0,0-1.7-.18c-3.71,0-7.11,2.43-9.11,6.93v-7.17h-1Z" class="cls-1" transform="translate(-118.62 -387.95)"/><path d="M297.42,407.28a9.42,9.42,0,0,1,3-.37c4.37,0,5.65,2.19,5.65,6.5v3.84l-6.48,1.22C293,419.69,288,421.7,288,428.69c0,5.65,4,9.56,9.37,9.56,4.25,0,8.26-1.82,9.78-4.86h0.31c0.55,3.64,3.7,4.8,7.23,4.8,2.73,0,5.38-.85,6.38-2v-2l-3.59-1.7V412.8c0-7.65-5.46-10.45-14.58-10.45a28.23,28.23,0,0,0-13,3V414h5.29Zm8.65,23.31a3.74,3.74,0,0,1-3.1,1.47c-2.19,0-4.25-1.22-4.25-5a6.07,6.07,0,0,1,5.09-5.57l2.26-.43v9.51Z" class="cls-1" transform="translate(-118.62 -387.95)"/><path d="M412.33,407.28a9.42,9.42,0,0,1,3-.37c4.37,0,5.65,2.19,5.65,6.5v3.84l-6.48,1.22c-6.63,1.22-11.63,3.24-11.63,10.23,0,5.65,4,9.56,9.37,9.56,4.25,0,8.26-1.82,9.78-4.86h0.3c0.55,3.64,3.71,4.8,7.23,4.8,2.73,0,5.38-.85,6.38-2v-2l-3.59-1.7V412.8c0-7.65-5.47-10.45-14.58-10.45a28.23,28.23,0,0,0-13,3V414H410ZM421,430.59a3.74,3.74,0,0,1-3.1,1.47c-2.19,0-4.25-1.22-4.25-5a6.07,6.07,0,0,1,5.09-5.57l2.26-.43v9.51Z" class="cls-1" transform="translate(-118.62 -387.95)"/><path d="M253,427.44c0,5.89,2.92,10.81,9.78,10.81a14.07,14.07,0,0,0,10.75-4.68v4.62h0.91l13.79-1.64v-2.48l-3.83-2V402.53h-0.91l-14.16,2.25v3.1l3.77,1.76V430a6.26,6.26,0,0,1-4.12,1.22c-2.86,0-4.69-.85-4.69-4.73v-24h-1l-14.16,2.25v3.1l3.83,1.76v17.8Z" class="cls-1" transform="translate(-118.62 -387.95)"/><path d="M238.72,429.87H226.57a2.32,2.32,0,0,1-2.43-2.19,3.37,3.37,0,0,1,1.52-2.49,17.89,17.89,0,0,0,5.59.67c8.75,0,14.76-3.95,14.76-11.36,0-3.34-1.4-5.23-3.52-7.17l5.76,1.8v-6.78l-9.17,1.7a23.85,23.85,0,0,0-7.84-1.77c-8.75,0-14.82,4.5-14.82,11.85a10.69,10.69,0,0,0,5.65,9.72l0.27,0.17c-1.94,1.34-6,4.39-6,8,0,2.67,1.76,5.28,5.41,6.07h0c-3.83.79-8.14,2.42-8.14,6.86S220.2,454,230.89,454c13.3,0,19.08-6.27,19.08-14.35,0-6.68-3.71-9.78-11.24-9.78m-7.47-23.57c2.49,0,4.2,1.74,4.2,7.84,0,6.26-1.77,7.53-4.2,7.53s-4.13-1.28-4.13-7.53c0-6.41,1.71-7.84,4.13-7.84m-0.06,42.53c-6.2,0-8.42-2.42-8.32-4.8a3.8,3.8,0,0,1,3.79-3.95h9.66c2.79,0,4.56,1.94,4.56,3.7,0,3.52-2.63,5-9.68,5" class="cls-1" transform="translate(-118.62 -387.95)"/><path d="M213,421.37c0-14.28-6.33-19-15.13-19-10.15,0-16.77,6.63-16.77,17.87,0,11.54,6,18,17.68,18,6.26,0,11.19-3.29,12.77-5.48l0.17-2.78a28.61,28.61,0,0,1-9.11,1.16c-6.2,0-9.91-3.17-9.9-9.78H213Zm-15.31-15.13c2.79,0,4.31,2,4.31,10.51l-9.42.55c0.13-8.66,2-11.06,5.1-11.06" class="cls-1" transform="translate(-118.62 -387.95)"/><path d="M144.2,437.34h18.59v-3.1l-3.58-1.7V410.62a8,8,0,0,1,4.61-1.44c3.1,0,4.63,2,4.57,4.9v18.47l-3.58,1.7v3.1h18.59v-3.1l-3.71-1.7v-21c0-6.26-3.61-9.05-8.5-9.05A18.22,18.22,0,0,0,159,406.91h0V388h-0.91L144,390.2v3l3.89,1.76v37.61l-3.71,1.7v3.1Z" class="cls-1" transform="translate(-118.62 -387.95)"/><path d="M123.85,428c0,6.25,3,10.21,9.71,10.21,3.52,0,7.28-.91,9.42-2.51v-4.19a13.63,13.63,0,0,1-3.65.56c-3.28,0-4.19-1.7-4.19-5V409.16h7.41v-5.83h-7.41v-8l-11.3,1.58v6.38l-5.22,1v4.85h5.22V428Z" class="cls-1" transform="translate(-118.62 -387.95)"/></svg>