<svg xmlns="http://www.w3.org/2000/svg" id="Layer_1" width="143.04" height="32.43" data-name="Layer 1" viewBox="0 0 143.04 32.43"><defs><style>.cls-1{fill:#1991c6}.cls-2{fill:#e83e59}.cls-3{fill:#f7d169}.cls-4{fill:#dca541}.cls-5{fill:#f8b847}</style></defs><title>RioRunFrontLogo</title><g><path d="M46.3,32.71A10.59,10.59,0,1,0,35.72,22.12,10.59,10.59,0,0,0,46.3,32.71Zm0-13a2.38,2.38,0,1,1-2.38,2.38A2.38,2.38,0,0,1,46.3,19.75Z" class="cls-1" transform="translate(-1.21 -0.74)"/><path d="M1.21,8H13.72c6.77,0,10.09,2.39,10.09,8.13,0,3.31-1.35,5-3.71,6.13v0.11L25,32.71H15.47l-3.6-8H10.62v8H1.21V8h0Zm11,11.44c1.71,0,2.42-1,2.42-2.82S13.94,14,12.15,14H10.48v5.42h1.75Z" class="cls-1" transform="translate(-1.21 -0.74)"/><path d="M25.91,20.36l8.3-4.47V32.71h-8.3V20.36h0Z" class="cls-1" transform="translate(-1.21 -0.74)"/><path d="M58.53,8H71c6.77,0,10.09,2.39,10.09,8.13,0,3.31-1.35,5-3.71,6.13v0.11l4.92,10.34H72.79l-3.6-8H67.94v8H58.53V8h0Zm11,11.44c1.71,0,2.42-1,2.42-2.82S71.25,14,69.47,14H67.8v5.42h1.75Z" class="cls-1" transform="translate(-1.21 -0.74)"/><circle cx="28.85" cy="11.43" r="4.15" class="cls-1"/><path d="M103.85,13.35H95.72v9.2a2.44,2.44,0,0,1-4.87,0v-9.3l-8.16,4.13v5.17A10.59,10.59,0,0,0,93.28,33.13a10.48,10.48,0,0,0,10.56-10.48v-9.3Z" class="cls-1" transform="translate(-1.21 -0.74)"/><path d="M116.39,13.35H105.89V33.16h8.37V23.08a2.21,2.21,0,0,1,2.27-1.64,2.39,2.39,0,0,1,2.39,2.38v9.34H127V23.82A10.59,10.59,0,0,0,116.39,13.35Z" class="cls-1" transform="translate(-1.21 -0.74)"/></g><g><path d="M141.51,9.71a1.21,1.21,0,0,1,.07-0.26c0.59-1.68,1.31-4.33-2.06-6.16,1,4.31-3.72,2.35-1.64-2.55-2.87,2.6-2.43,4.58-1.44,6.42,1.49,2.75-2.2,3.3-2.06,1.08,0.06-1,.08-1.69-1.95-4.24,1.37,1.81-1.22,4.2-.82,6.46a6.12,6.12,0,0,0,6.07,5.37,6.23,6.23,0,0,0,6.12-6.12C143,11.39,141.26,11.19,141.51,9.71Z" class="cls-2" transform="translate(-1.21 -0.74)"/><polygon points="139.9 17.34 133.05 17.34 135.61 29.63 137.44 29.63 139.9 17.34" class="cls-3"/><circle cx="136.47" cy="30.28" r="1.55" class="cls-4"/><polygon points="131.69 17.34 141.18 17.34 142.54 13.13 130.31 13.13 131.69 17.34" class="cls-5"/><polygon points="143.04 11.6 129.8 11.6 130.01 12.23 142.84 12.23 143.04 11.6" class="cls-5"/><polygon points="130.01 12.23 130.31 13.13 142.54 13.13 142.84 12.23 130.01 12.23" class="cls-4"/><polygon points="136.43 19.61 134.96 21.9 136.43 24.21 137.89 21.92 136.43 19.61" class="cls-4"/></g></svg>