<?xml version="1.0" encoding="utf-8"?>
<!-- Generator: Adobe Illustrator 16.0.4, SVG Export Plug-In . SVG Version: 6.00 Build 0)  -->
<!DOCTYPE svg PUBLIC "-//W3C//DTD SVG 1.1//EN" "http://www.w3.org/Graphics/SVG/1.1/DTD/svg11.dtd">
<svg version="1.1" id="Layer_1" xmlns="http://www.w3.org/2000/svg" xmlns:xlink="http://www.w3.org/1999/xlink" x="0px" y="0px"
	 width="1206px" height="258px" viewBox="0 0 1206 258" enable-background="new 0 0 1206 258" xml:space="preserve">
<g>
	<path fill="#FFFFFF" d="M435.075,245.914c55.173,0,99.899-44.726,99.899-99.898c0-55.171-44.727-99.899-99.899-99.899
		c-55.171,0-99.899,44.728-99.899,99.899C335.176,201.19,379.904,245.914,435.075,245.914z M435.075,123.561
		c12.402,0,22.457,10.055,22.457,22.455s-10.055,22.453-22.457,22.453c-12.4,0-22.454-10.053-22.454-22.453
		S422.675,123.561,435.075,123.561z"/>
	<path fill="#FFFFFF" d="M9.579,12.817h118.062c63.908,0,95.19,22.537,95.19,76.69c0,31.279-12.784,46.752-34.982,57.852v1.01
		l46.418,97.545h-90.146l-33.971-75.682H98.377v75.682H9.578L9.579,12.817L9.579,12.817z M113.515,120.789
		c16.145,0,22.872-9.418,22.872-26.572c0-16.146-6.727-24.555-23.545-24.555H97.034v51.125L113.515,120.789L113.515,120.789z"/>
	<path fill="#FFFFFF" d="M242.678,129.367l78.37-42.146v158.694h-78.37V129.367z"/>
	<path fill="#FFFFFF" d="M550.45,12.817h118.062c63.907,0,95.188,22.537,95.188,76.69c0,31.279-12.781,46.752-34.981,57.852v1.01
		l46.418,97.545h-90.145l-33.975-75.682h-11.771v75.682h-88.799L550.45,12.817L550.45,12.817z M654.385,120.789
		c16.146,0,22.872-9.418,22.872-26.572c0-16.146-6.728-24.555-23.544-24.555h-15.81v51.125L654.385,120.789L654.385,120.789z"/>
	<circle fill="#FFFFFF" cx="281.863" cy="52.004" r="39.187"/>
	<path fill="#FFFFFF" d="M978.156,63.184h-76.734v86.771c0,12.399-10.607,22.455-23.01,22.455c-12.403,0-22.99-10.056-22.99-22.455
		V62.189l-77,38.987v48.776c0,55.174,44.767,99.899,99.938,99.899c55.173,0,99.697-43.707,99.697-98.882L978.156,63.184z"/>
	<path fill="#FFFFFF" d="M1096.422,63.184L1096.422,63.184h-20.745h-35.771h-42.484v187h77.098h1.902v-95.169
		c1-8.956,11.486-15.429,21.436-15.429c12.398,0,22.564,10.055,22.564,22.455v88.143h76v-88.143
		C1196.422,106.892,1150.422,63.221,1096.422,63.184z"/>
</g>
</svg>
