<svg xmlns="http://www.w3.org/2000/svg" width="18" height="65" xmlns:xlink="http://www.w3.org/1999/xlink"><defs><path id="a" d="M0 63.54h10.33V.06H0z"/><path id="c" d="M11.1 30.36L3.23.1H.03v30.26H11.1z"/><path id="e" d="M10.43 27.65L3.26.05H.03v27.6h10.4z"/><path id="g" d="M8.94 15.95l3-1.8L8.26.08H.03v15.88z"/><path id="i" d="M11.67 10.6L8.94.08H.04V10.6z"/></defs><g fill="none" fill-rule="evenodd"><path fill="#13132D" d="M5.8 58.43V17.8H9l8.7 33.5"/><g transform="translate(0 .59)"><mask id="b" fill="#fff"><use xlink:href="#a"/></mask><path fill="#BFB09D" d="M5.8 61.9V6.23c1.3-.35 2.3-1.57 2.3-3.03C8.1 1.45 6.7.05 5 .05c-1.7 0-3.08 1.4-3.08 3.13 0 1.45.97 2.67 2.3 3.02v55.7H0v1.62h10.33V61.9H5.8z" mask="url(#b)"/></g><path fill="#1730AD" d="M5.8 49.9V9.26H9l8.7 33.5"/><g transform="translate(5.77 9.174)"><mask id="d" fill="#fff"><use xlink:href="#c"/></mask><path fill="#FFF" d="M14.4 30.36L.02 7.43V.1h3.2L14.4 21.9" mask="url(#d)"/></g><g transform="translate(5.77 9.325)"><mask id="f" fill="#fff"><use xlink:href="#e"/></mask><path fill="#CE1111" d="M14.4 27.65L.02 4.72V.04l14.36 21.8" mask="url(#f)"/></g><g transform="translate(5.77 28.6)"><mask id="h" fill="#fff"><use xlink:href="#g"/></mask><path fill="#FFF" d="M20.6 15.95L.03 11.05V.08l20.57 5.5" mask="url(#h)"/></g><g transform="translate(5.77 31.16)"><mask id="j" fill="#fff"><use xlink:href="#i"/></mask><path fill="#CE1111" d="M20.6 10.6L.03 5.7V.1L20.6 5.6" mask="url(#j)"/></g><path fill="#A5A6A6" d="M5.8 49.9l11.9 1.4-1.92-7.4"/><path fill="#13132D" d="M9.8 47.5l7.15.85-1.15-4.44"/></g></svg>
