<svg xmlns="http://www.w3.org/2000/svg" xmlns:xlink="http://www.w3.org/1999/xlink" id="Layer_1" width="2608" height="480" x="0" y="0" enable-background="new 0 0 2608 480" version="1.1" viewBox="0 0 2608 480" xml:space="preserve"><path fill="#2C407F" d="M0,0h2608v480H0V0z"/><path d="M1600,4h76v32h-76V4z M1520,4h76v32h-76V4z M1440,4h76v32h-76V4z M1360,4h76v32	h-76V4z M1280,4h76v32h-76V4z M1200,4h76v32h-76V4z M1120,4h76v32h-76V4z M1040,4h76v32h-76V4z M960,4h76v32h-76V4z M880,4h76v32	h-76V4z M1640,40h76v32h-76V40z M1560,40h76v32h-76V40z M1480,40h76v32h-76V40z M1400,40h76v32h-76V40z M1320,40h76v32h-76V40z M1240,40h76v32h-76V40z M1160,40h76v32h-76V40z M1080,40h76v32h-76V40z M1000,40h76v32h-76V40z M920,40h76v32h-76V40z M1600,76h76	v32h-76V76z M1520,76h76v32h-76V76z M1440,76h76v32h-76V76z M1360,76h76v32h-76V76z M1280,76h76v32h-76V76z M1200,76h76v32h-76V76z M1120,76h76v32h-76V76z M1040,76h76v32h-76V76z M960,76h76v32h-76V76z M880,76h76v32h-76V76z M1640,112h76v32h-76V112z M1560,112	h76v32h-76V112z M1480,112h76v32h-76V112z M1400,112h76v32h-76V112z M1320,112h76v32h-76V112z M1240,112h76v32h-76V112z M1160,112	h76v32h-76V112z M1080,112h76v32h-76V112z M1000,112h76v32h-76V112z M920,112h76v32h-76V112z M1600,148h76v32h-76V148z M1520,148h76	v32h-76V148z M1440,148h76v32h-76V148z M1360,148h76v32h-76V148z M1280,148h76v32h-76V148z M1200,148h76v32h-76V148z M1120,148h76	v32h-76V148z M1040,148h76v32h-76V148z M960,148h76v32h-76V148z M880,148h76v32h-76V148z M1640,184h76v32h-76V184z M1560,184h76v32	h-76V184z M1480,184h76v32h-76V184z M1400,184h76v32h-76V184z M1320,184h76v32h-76V184z M1240,184h76v32h-76V184z M1160,184h76v32	h-76V184z M1080,184h76v32h-76V184z M1000,184h76v32h-76V184z M920,184h76v32h-76V184z M1600,220h76v32h-76V220z M1520,220h76v32	h-76V220z M1440,220h76v32h-76V220z M1360,220h76v32h-76V220z M1280,220h76v32h-76V220z M1200,220h76v32h-76V220z M1120,220h76v32	h-76V220z M1040,220h76v32h-76V220z M960,220h76v32h-76V220z M880,220h76v32h-76V220z M1640,256h76v32h-76V256z M1560,256h76v32h-76	V256z M1480,256h76v32h-76V256z M1400,256h76v32h-76V256z M1320,256h76v32h-76V256z M1240,256h76v32h-76V256z M1160,256h76v32h-76	V256z M1080,256h76v32h-76V256z M1000,256h76v32h-76V256z M920,256h76v32h-76V256z M1600,292h76v32h-76V292z M1520,292h76v32h-76	V292z M1440,292h76v32h-76V292z M1360,292h76v32h-76V292z M1280,292h76v32h-76V292z M1200,292h76v32h-76V292z M1120,292h76v32h-76	V292z M1040,292h76v32h-76V292z M960,292h76v32h-76V292z M880,292h76v32h-76V292z M1640,328h76v32h-76V328z M1560,328h76v32h-76V328	z M1480,328h76v32h-76V328z M1400,328h76v32h-76V328z M1320,328h76v32h-76V328z M1240,328h76v32h-76V328z M1160,328h76v32h-76V328z M1080,328h76v32h-76V328z M1000,328h76v32h-76V328z M920,328h76v32h-76V328z M2400,4h76v32h-76V4z M2320,4h76v32h-76V4z M2240,4h76	v32h-76V4z M2160,4h76v32h-76V4z M2080,4h76v32h-76V4z M2000,4h76v32h-76V4z M1920,4h76v32h-76V4z M1840,4h76v32h-76V4z M1760,4h76	v32h-76V4z M1680,4h76v32h-76V4z M2440,40h76v32h-76V40z M2360,40h76v32h-76V40z M2280,40h76v32h-76V40z M2200,40h76v32h-76V40z M2120,40h76v32h-76V40z M2040,40h76v32h-76V40z M1960,40h76v32h-76V40z M1880,40h76v32h-76V40z M1800,40h76v32h-76V40z M1720,40h76	v32h-76V40z M2400,76h76v32h-76V76z M2320,76h76v32h-76V76z M2240,76h76v32h-76V76z M2160,76h76v32h-76V76z M2080,76h76v32h-76V76z M2000,76h76v32h-76V76z M1920,76h76v32h-76V76z M1840,76h76v32h-76V76z M1760,76h76v32h-76V76z M1680,76h76v32h-76V76z M2440,112	h76v32h-76V112z M2360,112h76v32h-76V112z M2280,112h76v32h-76V112z M2200,112h76v32h-76V112z M2120,112h76v32h-76V112z M2040,112	h76v32h-76V112z M1960,112h76v32h-76V112z M1880,112h76v32h-76V112z M1800,112h76v32h-76V112z M1720,112h76v32h-76V112z M2400,148	h76v32h-76V148z M2320,148h76v32h-76V148z M2240,148h76v32h-76V148z M2160,148h76v32h-76V148z M2080,148h76v32h-76V148z M2000,148	h76v32h-76V148z M1920,148h76v32h-76V148z M1840,148h76v32h-76V148z M1760,148h76v32h-76V148z M1680,148h76v32h-76V148z M2440,184	h76v32h-76V184z M2360,184h76v32h-76V184z M2280,184h76v32h-76V184z M2200,184h76v32h-76V184z M2120,184h76v32h-76V184z M2040,184	h76v32h-76V184z M1960,184h76v32h-76V184z M1880,184h76v32h-76V184z M1800,184h76v32h-76V184z M1720,184h76v32h-76V184z M2400,220	h76v32h-76V220z M2320,220h76v32h-76V220z M2240,220h76v32h-76V220z M2160,220h76v32h-76V220z M2080,220h76v32h-76V220z M2000,220	h76v32h-76V220z M1920,220h76v32h-76V220z M1840,220h76v32h-76V220z M1760,220h76v32h-76V220z M1680,220h76v32h-76V220z M2440,256	h76v32h-76V256z M2360,256h76v32h-76V256z M2280,256h76v32h-76V256z M2200,256h76v32h-76V256z M2120,256h76v32h-76V256z M2040,256	h76v32h-76V256z M1960,256h76v32h-76V256z M1880,256h76v32h-76V256z M1800,256h76v32h-76V256z M1720,256h76v32h-76V256z M2400,292	h76v32h-76V292z M2320,292h76v32h-76V292z M2240,292h76v32h-76V292z M2160,292h76v32h-76V292z M2080,292h76v32h-76V292z M2000,292	h76v32h-76V292z M1920,292h76v32h-76V292z M1840,292h76v32h-76V292z M1760,292h76v32h-76V292z M1680,292h76v32h-76V292z M2440,328	h76v32h-76V328z M2360,328h76v32h-76V328z M2480,4h76v32h-76V4z M2480,148h76v32h-76V148z M2480,220h76v32h-76V220z M2520,256h76v32	h-76V256z M2480,292h76v32h-76V292z M2280,328h76v32h-76V328z M2200,328h76v32h-76V328z M2120,328h76v32h-76V328z M2040,328h76v32	h-76V328z M1960,328h76v32h-76V328z M1880,328h76v32h-76V328z M1800,328h76v32h-76V328z M1720,328h76v32h-76V328z M840,40h76v32h-76	V40z M800,76h76v32h-76V76z M840,112h76v32h-76V112z M760,112h76v32h-76V112z M800,148h76v32h-76V148z M720,148h76v32h-76V148z M840,184h76v32h-76V184z M760,184h76v32h-76V184z M800,220h76v32h-76V220z M840,256h76v32h-76V256z M760,256h76v32h-76V256z M800,292h76v32h-76V292z M840,328h76v32h-76V328z M1600,364h76v32h-76V364z M1520,364h76v32h-76V364z M1440,364h76v32h-76V364z M1360,364h76v32h-76V364z M1280,364h76v32h-76V364z M1200,364h76v32h-76V364z M1120,364h76v32h-76V364z M1040,364h76v32h-76V364z M960,364h76v32h-76V364z M880,364h76v32h-76V364z M1640,400h76v32h-76V400z M1560,400h76v32h-76V400z M1480,400h76v32h-76V400z M1400,400h76v32h-76V400z M1320,400h76v32h-76V400z M1240,400h76v32h-76V400z M1160,400h76v32h-76V400z M1080,400h76v32h-76V400z M1000,400h76v32h-76V400z M920,400h76v32h-76V400z M2400,364h76v32h-76V364z M2320,364h76v32h-76V364z M2240,364h76v32h-76V364z M2160,364h76v32h-76V364z M2080,364h76v32h-76V364z M2000,364h76v32h-76V364z M1920,364h76v32h-76V364z M1840,364h76v32h-76V364z M1760,364h76v32h-76V364z M1680,364h76v32h-76V364z M2440,400h76v32h-76V400z M2360,400h76v32h-76V400z M2480,364h76v32h-76V364z M2280,400h76v32h-76V400z M2200,400h76v32h-76V400z M2120,400h76v32h-76V400z M2040,400h76v32h-76V400z M1960,400h76v32h-76V400z M1880,400h76v32h-76V400z M1800,400h76v32h-76V400z M1720,400h76v32h-76V400z M800,364h76v32h-76V364z M840,400h76v32h-76V400z M1600,436h76v32h-76V436z M1520,436h76v32h-76V436z M1440,436h76v32h-76V436z M1360,436h76v32h-76V436z M1280,436h76v32h-76V436z M1200,436h76v32h-76V436z M1120,436h76v32h-76V436z M1040,436h76v32h-76V436z M960,436h76v32h-76V436z M880,436h76v32h-76V436z M1640,472h76v32h-76V472z M1560,472h76v32h-76V472z M1480,472h76v32h-76V472z M1400,472h76v32h-76V472z M1320,472h76v32h-76V472z M1240,472h76v32h-76V472z M1160,472h76v32h-76V472z M1080,472h76v32h-76V472z M1000,472h76v32h-76V472z M920,472h76v32h-76V472z M2400,436h76v32h-76V436z M2320,436h76v32h-76V436z M2240,436h76v32h-76V436z M2160,436h76v32h-76V436z M2080,436h76v32h-76V436z M2000,436h76v32h-76V436z M1920,436h76v32h-76V436z M1840,436h76v32h-76V436z M1760,436h76v32h-76V436z M1680,436h76v32h-76V436z M2440,472h76v32h-76V472z M2360,472h76v32h-76V472z M2480,436h76v32h-76V436z M2280,472h76v32h-76V472z M2200,472h76v32h-76V472z M2120,472h76v32h-76V472z M2040,472h76v32h-76V472z M1960,472h76v32h-76V472z M1880,472h76v32h-76V472z M1800,472h76v32h-76V472z M1720,472h76v32h-76V472z M800,436h76v32h-76V436z M840,472h76v32h-76V472z M760,472h76v32h-76V472z M680,472h76v32h-76V472z M600,472h76v32h-76V472z M520,472h76v32h-76V472z M440,472h76v32h-76V472z M360,472h76v32h-76V472z" enable-background="new" opacity=".2"/><g><path fill="#2C407F" d="M1384,264c0,6.6-5.4,12-12,12c0,6.6-5.4,12-12,12h-188c-6.601,0-12-5.4-12-12c-6.601,0-12-5.4-12-12H1384 M1388,260h-244v4c0,7.6,5.3,14,12.399,15.6c1.601,7.101,8,12.4,15.601,12.4h188c7.6,0,14-5.3,15.6-12.4c7.1-1.6,12.4-8,12.4-15.6 V260z"/><path fill="#1D265D" d="M1160,40h212v224h-212V40z"/><linearGradient id="SVGID_1_" x1="1265.86" x2="1265.86" y1="431.055" y2="215.055" gradientTransform="matrix(1 0 0 -1 0.1401 479.0547)" gradientUnits="userSpaceOnUse"><stop offset="0" style="stop-color:#765390"/><stop offset=".842" style="stop-color:#42619e"/><stop offset="1" style="stop-color:#3864a1"/></linearGradient><path fill="url(#SVGID_1_)" d="M1360,48h-188c-2.2,0-4,1.8-4,4v208c0,2.2,1.8,4,4,4h188c2.199,0,4-1.8,4-4V52 C1364,49.8,1362.199,48,1360,48z"/><path fill="#1D265D" d="M1372,264h-224c0,6.6,5.399,12,12,12c0,6.6,5.399,12,12,12h188c6.6,0,12-5.4,12-12c6.6,0,12-5.4,12-12H1372 z"/><path fill="#FFF" d="M1344,48l-128,216h-12l128-216 M1324,48l-132,216h-24V48h120" enable-background="new" opacity=".05"/><path fill="#1D265D" d="M1160,148h208v8h-208V148z"/><path fill="#2C407F" d="M1148,260h12v4h-12V260z M1372,260h12v4h-12V260z M1372,40h4v220h-4V40z M1156,40h4v220h-4V40z"/><g><path fill="#2C407F" d="M2416,264c0,6.6-5.4,12-12,12c0,6.6-5.4,12-12,12h-188c-6.601,0-12-5.4-12-12c-6.601,0-12-5.4-12-12H2416 M2420,260h-244v4c0,7.6,5.3,14,12.399,15.6c1.601,7.101,8,12.4,15.601,12.4h188c7.6,0,14-5.3,15.6-12.4c7.1-1.6,12.4-8,12.4-15.6 V260z"/><path fill="#1D265D" d="M2192,40h212v224h-212V40z"/><linearGradient id="SVGID_2_" x1="2297.86" x2="2297.86" y1="431.055" y2="215.055" gradientTransform="matrix(1 0 0 -1 0.1401 479.0547)" gradientUnits="userSpaceOnUse"><stop offset="0" style="stop-color:#765390"/><stop offset=".842" style="stop-color:#42619e"/><stop offset="1" style="stop-color:#3864a1"/></linearGradient><path fill="url(#SVGID_2_)" d="M2392,48h-188c-2.2,0-4,1.8-4,4v208c0,2.2,1.8,4,4,4h188c2.199,0,4-1.8,4-4V52 C2396,49.8,2394.199,48,2392,48z"/><path fill="#1D265D" d="M2404,264h-224c0,6.6,5.399,12,12,12c0,6.6,5.399,12,12,12h188c6.6,0,12-5.4,12-12c6.6,0,12-5.4,12-12 H2404z"/><path fill="#FFF" d="M2396,148l-64,116h-20l84-140 M2396,104l-96,160h-100V156 l68-108h128" enable-background="new" opacity=".05"/><path fill="#1D265D" d="M2192,148h208v8h-208V148z"/><path fill="#2C407F" d="M2180,256h12v8h-12V256z M2404,260h12v4h-12V260z M2404,40h4v220h-4V40z"/><path fill="#2C407F" d="M2188,40h4v220h-4V40z"/></g><g><path fill="#2C407F" d="M2044,264c0,6.6-5.4,12-12,12c0,6.6-5.4,12-12,12h-332c-6.601,0-12-5.4-12-12c-6.601,0-12-5.4-12-12H2044 M2048,260h-388v4c0,7.6,5.3,14,12.399,15.6c1.601,7.101,8,12.4,15.601,12.4h332c7.6,0,14-5.3,15.6-12.4c7.1-1.6,12.4-8,12.4-15.6 V260z"/><path fill="#1D265D" d="M1676,40h356v224h-356V40z"/><linearGradient id="SVGID_3_" x1="1853.86" x2="1853.86" y1="431.055" y2="215.055" gradientTransform="matrix(1 0 0 -1 0.1401 479.0547)" gradientUnits="userSpaceOnUse"><stop offset="0" style="stop-color:#765390"/><stop offset=".842" style="stop-color:#42619e"/><stop offset="1" style="stop-color:#3864a1"/></linearGradient><path fill="url(#SVGID_3_)" d="M2020,48h-332c-2.2,0-4,1.8-4,4v208c0,2.2,1.8,4,4,4h332c2.199,0,4-1.8,4-4V52 C2024,49.8,2022.199,48,2020,48z"/><path fill="#1D265D" d="M2032,264h-368c0,6.6,5.399,12,12,12c0,6.6,5.399,12,12,12h332c6.6,0,12-5.4,12-12c6.6,0,12-5.4,12-12 H2032z M1676,148h352v8h-352V148z"/><path fill="#2C407F" d="M1664,260h12v4h-12V260z M2032,260h12v4h-12V260z M2032,40h4v220h-4V40z M1672,40h4v220h-4V40z"/></g><path fill="#FFF" d="M1756,48l-72,112v-28l52-84 M2020,48l-132,216h-204v-88l80-128 h56" enable-background="new" opacity=".05"/></g><g><linearGradient id="SVGID_4_" x1="1033.861" x2="1033.861" y1="479.055" y2="127.055" gradientTransform="matrix(1 0 0 -1 0.1401 479.0547)" gradientUnits="userSpaceOnUse"><stop offset="0" style="stop-color:#ffae81"/><stop offset="1" style="stop-color:#ffae81;stop-opacity:.7"/></linearGradient><path fill="url(#SVGID_4_)" d="M1164,352H904L1011.8,0h52"/><linearGradient id="SVGID_5_" x1="1537.86" x2="1537.86" y1="479.055" y2="127.055" gradientTransform="matrix(1 0 0 -1 0.1401 479.0547)" gradientUnits="userSpaceOnUse"><stop offset="0" style="stop-color:#ffae81"/><stop offset="1" style="stop-color:#ffae81;stop-opacity:.7"/></linearGradient><path fill="url(#SVGID_5_)" d="M1668,352h-260L1515.8,0h52"/><linearGradient id="SVGID_6_" x1="2117.86" x2="2117.86" y1="479.055" y2="127.055" gradientTransform="matrix(1 0 0 -1 0.1401 479.0547)" gradientUnits="userSpaceOnUse"><stop offset="0" style="stop-color:#ffae81"/><stop offset="1" style="stop-color:#ffae81;stop-opacity:.7"/></linearGradient><path fill="url(#SVGID_6_)" d="M2248,352h-260L2095.8,0h52" enable-background="new" opacity=".8"/></g><g><g><path fill="#231931" d="M1648,356h12v12h8v-16h-20 M1660,312h-4.5l12.5,40v-32C1668,315.6,1664.4,312,1660,312z"/></g><path fill="#AF7075" d="M1420,312c-4.4,0-8,3.6-8,8v48h8v-12h12v-44H1420z"/><path fill="#3864A1" d="M1228,303h72v64h-72V303z"/><path fill="#AF7075" d="M1424,284h60v68h-60V284z M1128,320h-48c-4.4,0-8,3.6-8,8v48h8v-12h48v12h8v-48 C1136,323.6,1132.4,320,1128,320z"/><path fill="#FF593E" d="M1115.6,374.9L1093,373c-0.9,0-6.801-23.7-7-24.6l-12-56c-0.2-0.9,0.199-1.801,1.1-2.2 c0.8-0.4,1.8-0.2,2.4,0.5l23.199,27l26.801-7.601c0.699-0.199,1.399,0,1.899,0.5s0.7,1.2,0.601,1.9l-8,36 C1121.8,349.3,1116.6,374.9,1115.6,374.9L1115.6,374.9z M1089.6,346h28.8l6.9-31.2l-24.8,7.101c-0.801,0.199-1.601,0-2.101-0.601 l-18.899-22L1089.6,346z"/><g><path fill="#231931" d="M1420.3,312h-0.3c-4.4,0-8,3.6-8,8v18.9L1420.3,312z M1412,352v16h8v-12h12v-4"/></g><path fill="#AF7075" d="M972,312h-48c-4.4,0-8,3.6-8,8v48h8v-12h48v12h8v-48C980,315.6,976.4,312,972,312z M2220,320h-48 c-4.4,0-8,3.6-8,8v48h8v-12h48v12h8v-48C2228,323.6,2224.4,320,2220,320z M2068,320h-48c-4.4,0-8,3.6-8,8v48h8v-12h48v12h8v-48 C2076,323.6,2072.4,320,2068,320z"/><path fill="#F9D8CC" d="M2134,364c-3.5,0-6.7-2.3-7.7-5.8c-1.2-4.2,1.2-8.7,5.5-9.9c9.8-2.8,18.899-10.6,21.7-13.1l15.399-30.7 c2-4,6.8-5.6,10.7-3.6c4,2,5.6,6.8,3.6,10.699l-16,32c-0.399,0.801-0.899,1.5-1.5,2.101c-0.5,0.5-13.6,13.5-29.5,18 C2135.5,363.9,2134.699,364,2134,364z"/><path fill="#FF593E" d="M2155.5,331.1l13.3-26.6c2-4,6.8-5.6,10.7-3.6c4,2,5.6,6.8,3.6,10.699l-13.9,27.801L2155.5,331.1 L2155.5,331.1z"/><circle cx="2138" cy="358" r="10" fill="#F9D8CC"/><path fill="none" stroke="#AF7075" stroke-linecap="round" stroke-linejoin="round" stroke-miterlimit="10" stroke-width="16" d="M2104,360c-14-4-18-20-18-20l-12-36"/></g><g><path fill="#151D42" d="M1888,480h56V352l-56,4"/><path fill="#1D265D" d="M1792,480l-48-124c0-2.2-2.301-4-5.101-4H857.1c-2.8,0-5.1,1.8-5.1,4l-48,124H1792z M2408,480l-72-124 c0-2.2-2.301-4-5.101-4H1893c-2.801,0-5.101,1.8-5.101,4l48,124H2408z"/></g><g><path fill="#E6711B" d="M1164,352c0,26.5-58.2,48-130,48c-71.801,0-130-21.5-130-48 M1668,352c0,26.5-58.2,48-130,48c-71.801,0-130-21.5-130-48" enable-background="new" opacity=".9"/><ellipse cx="1532" cy="400" fill="#FFA16E" rx="20" ry="12"/><path fill="#E6711B" d="M2248,352c0,26.5-58.2,48-130,48c-71.801,0-130-21.5-130-48" enable-background="new" opacity=".9"/><ellipse cx="1532" cy="400" fill="#FFA16E" rx="20" ry="12"/></g><g><ellipse cx="1264" cy="400" fill="#89B1ED" rx="44" ry="28"/><path fill="#3864A1" d="M1264,429c-24.801,0-45-13-45-29s20.199-29,45-29c24.8,0,45,13,45,29S1288.8,429,1264,429z M1264,373 c-23.7,0-43,12.1-43,27s19.3,27,43,27c23.699,0,43-12.1,43-27S1287.699,373,1264,373z"/><path fill="#89B1ED" d="M1316,379c-0.601,0-1,0.4-1,1v23h-3c-0.301,0-0.601,0.1-0.801,0.4c-0.199,0.199-0.3,0.6-0.199,0.899l4,16 c0.1,0.5,0.5,0.8,1,0.8h0.1c0.5-0.1,0.9-0.5,0.9-1v-40C1317,379.4,1316.6,379,1316,379L1316,379z M1330,414c0-3.4-1.7-6.2-4-6.8 V380c0-0.6-0.4-1-1-1c-0.601,0-1,0.4-1,1v27.1c-2.301,0.601-4,3.4-4,6.801v0.199c0,0.101,0,0.101,0.1,0.2c-0.1,0.5-0.1,1-0.1,1.601 v4c0,0.6,0.399,1,1,1c0.6,0,1-0.4,1-1v-4c0-1.5,0.199-2.2,0.399-2.5c0.3-0.2,0.8-0.4,1.601-0.5v6.899c0,0.601,0.399,1,1,1 c0.6,0,1-0.399,1-1V412.9c0.8,0.1,1.399,0.3,1.6,0.5c0.2,0.399,0.4,1.1,0.4,2.5v4c0,0.6,0.399,1,1,1c0.6,0,1-0.4,1-1v-4 c0-0.601,0-1.101-0.101-1.601C1330,414.3,1330,414.2,1330,414L1330,414z"/><path fill="#3864A1" d="M1264,421c-17.9,0-32.4-9.4-32.4-21s14.5-21,32.4-21c17.899,0,32.399,9.4,32.399,21S1281.9,421,1264,421z M1264,381c-16.801,0-30.4,8.5-30.4,19s13.7,19,30.4,19c16.699,0,30.399-8.5,30.399-19S1280.8,381,1264,381z"/><ellipse cx="1532" cy="400" fill="#F9D8CC" rx="44" ry="28"/><path fill="#89B1ED" d="M1538,400c-17.601,0-34.301-1.3-49.601-3.6c-0.2,1.199-0.399,2.399-0.399,3.6c0,15.5,19.699,28,44,28 c24.3,0,44-12.5,44-28c0-0.7-0.101-1.4-0.101-2.1C1563.9,399.3,1551.199,400,1538,400z"/><path fill="#F9D8CC" d="M1532,428.5c-24.5,0-44.5-12.8-44.5-28.5s20-28.5,44.5-28.5s44.5,12.8,44.5,28.5S1556.5,428.5,1532,428.5z M1532,372.5c-24,0-43.5,12.3-43.5,27.5s19.5,27.5,43.5,27.5s43.5-12.3,43.5-27.5S1556,372.5,1532,372.5z"/><path fill="#AF7075" d="M1532,429c-24.801,0-45-13-45-29s20.199-29,45-29c24.8,0,45,13,45,29S1556.8,429,1532,429z M1532,373 c-23.7,0-43,12.1-43,27s19.3,27,43,27c23.699,0,43-12.1,43-27S1555.699,373,1532,373z"/><path fill="#F9D8CC" d="M1584,379c-0.601,0-1,0.4-1,1v23h-3c-0.301,0-0.601,0.1-0.801,0.4c-0.199,0.199-0.3,0.6-0.199,0.899l4,16 c0.1,0.5,0.5,0.8,1,0.8h0.1c0.5-0.1,0.9-0.5,0.9-1v-40C1585,379.4,1584.6,379,1584,379L1584,379z M1485,414c0-3.4-1.7-6.2-4-6.8 V380c0-0.6-0.4-1-1-1c-0.601,0-1,0.4-1,1v27.1c-2.301,0.601-4,3.4-4,6.801v0.199c0,0.101,0,0.101,0.1,0.2c-0.1,0.5-0.1,1-0.1,1.601 v4c0,0.6,0.399,1,1,1c0.6,0,1-0.4,1-1v-4c0-1.5,0.199-2.2,0.399-2.5c0.3-0.2,0.8-0.4,1.601-0.5v6.899c0,0.601,0.399,1,1,1 c0.6,0,1-0.399,1-1V412.9c0.8,0.1,1.399,0.3,1.6,0.5c0.2,0.399,0.4,1.1,0.4,2.5v4c0,0.6,0.399,1,1,1c0.6,0,1-0.4,1-1v-4 c0-0.601,0-1.101-0.101-1.601C1485,414.3,1485,414.2,1485,414L1485,414z"/><path fill="#AF7075" d="M1532,421c-17.9,0-32.4-9.4-32.4-21s14.5-21,32.4-21c17.899,0,32.399,9.4,32.399,21S1549.9,421,1532,421z M1532,381c-16.801,0-30.4,8.5-30.4,19s13.7,19,30.4,19c16.699,0,30.399-8.5,30.399-19S1548.8,381,1532,381z"/><ellipse cx="2078" cy="378" fill="#F9D8CC" stroke="#AF7075" stroke-miterlimit="10" stroke-width="2" rx="22" ry="14"/><ellipse cx="2078" cy="380" fill="#FFA16E" rx="10" ry="4"/><ellipse cx="2078" cy="378" fill="none" stroke="#AF7075" stroke-miterlimit="10" stroke-width="2" rx="15.699" ry="10"/><ellipse cx="2162" cy="378" fill="#F9D8CC" stroke="#AF7075" stroke-miterlimit="10" stroke-width="2" rx="22" ry="14"/><ellipse cx="2162" cy="378" fill="none" stroke="#AF7075" stroke-miterlimit="10" stroke-width="2" rx="15.699" ry="10"/><circle cx="2076" cy="376" r="4" fill="#FF593E"/><circle cx="2081" cy="375" r="5" fill="#FF593E"/><path fill="#FFA16E" d="M2161.3,374c0,3.3-3,6-3,6s-3-2.7-3-6s3-6,3-6S2161.3,370.7,2161.3,374z"/><path fill="#FFA16E" d="M2156.1,373.6c2.3,2.301,2.1,6.4,2.1,6.4s-4,0.2-6.399-2.1c-2.3-2.301-2.101-6.4-2.101-6.4 S2153.8,371.3,2156.1,373.6z M2160.8,374c0,3.3,3,6,3,6s3-2.7,3-6s-3-6-3-6S2160.8,370.7,2160.8,374z"/><path fill="#FFA16E" d="M2165.9,373.6c-2.3,2.301-2.101,6.4-2.101,6.4s4,0.2,6.4-2.1c2.3-2.301,2.1-6.4,2.1-6.4 S2168.199,371.3,2165.9,373.6z"/><path fill="#F9D8CC" d="M2201,390c0-3.4-1.7-6.2-4-6.8v-14.5c0-0.601-0.4-1-1-1c-0.601,0-1,0.399-1,1v14.5 c-2.301,0.6-4,3.399-4,6.8v0.2c0,0.1,0,0.1,0.1,0.2c-0.1,0.5-0.1,1-0.1,1.6v4c0,0.6,0.399,1,1,1c0.6,0,1-0.4,1-1v-4 c0-1.5,0.199-2.2,0.399-2.5c0.3-0.2,0.8-0.4,1.601-0.5v6.9c0,0.6,0.399,1,1,1c0.6,0,1-0.4,1-1V389c0.8,0.1,1.399,0.3,1.6,0.5 c0.2,0.4,0.4,1.1,0.4,2.5v4c0,0.6,0.399,1,1,1c0.6,0,1-0.4,1-1v-4c0-0.6,0-1.1-0.101-1.6C2201,390.3,2201,390.2,2201,390z"/><g><path fill="#89B1ED" d="M2195,390.7v5.3c0,0.6,0.399,1,1,1c0.6,0,1-0.4,1-1v-5.9C2196.3,390.3,2195.699,390.5,2195,390.7z M2191,391.7v4.3c0,0.6,0.399,1,1,1c0.6,0,1-0.4,1-1v-4v-0.8C2192.4,391.4,2191.699,391.5,2191,391.7z M2198.699,389.6 c0.2,0.4,0.301,1.101,0.301,2.4v4c0,0.6,0.399,1,1,1c0.6,0,1-0.4,1-1v-4c0-0.6,0-1.1-0.101-1.6C2201,390.3,2201,390.2,2201,390 v-0.1c0-0.301,0-0.7-0.101-1C2200.199,389.2,2199.4,389.4,2198.699,389.6z"/></g><path fill="#F9D8CC" d="M2053,358.4l-3.801-1.2c-0.6-0.2-1.1-0.3-1.6-0.4c-0.1-0.1-0.2-0.2-0.3-0.2h-0.101 c-2.1-0.699-4.399-0.6-6,0.2c-0.699,0.4-1.3,0.9-1.699,1.5l-18.2-5.899c-0.5-0.2-1.101,0.1-1.3,0.6c-0.2,0.5,0.1,1.1,0.6,1.3 l18.2,5.9c-0.101,2.399,2,4.8,5.3,5.899h0.4c0.399,0.2,0.899,0.4,1.5,0.601l3.8,1.2c0.3,0.1,0.5,0.1,0.8-0.101 c0.2-0.1,0.4-0.3,0.5-0.6c0.2-0.5-0.1-1.101-0.6-1.3l-3.801-1.2c-1.399-0.5-2-0.9-2.3-1.2c-0.1-0.3-0.1-0.9,0.1-1.6l6.601,2.1 c0.3,0.1,0.5,0.1,0.8-0.1c0.2-0.101,0.399-0.301,0.5-0.601c0.2-0.5-0.101-1.1-0.601-1.3l-6.6-2.1c0.4-0.801,0.7-1.2,1-1.4 c0.4-0.1,1.2,0,2.5,0.4l3.8,1.199c0.5,0.2,1.101-0.1,1.3-0.6C2053.799,359.2,2053.499,358.6,2053,358.4L2053,358.4z"/><ellipse cx="1106" cy="386" fill="#F9D8CC" rx="22" ry="14"/><path fill="#89B1ED" d="M1089.699,395.4c4,2.8,9.801,4.6,16.301,4.6c12.199,0,22-6.3,22-14v-0.8 C1117.1,389.4,1104.1,392.9,1089.699,395.4L1089.699,395.4z"/><path fill="#AF7075" d="M1106,401c-12.7,0-23-6.7-23-15s10.3-15,23-15c12.699,0,23,6.7,23,15S1118.699,401,1106,401z M1106,373 c-11.601,0-21,5.8-21,13s9.399,13,21,13c11.6,0,21-5.8,21-13S1117.6,373,1106,373z"/><path fill="#AF7075" d="M1106,397c-9.2,0-16.7-4.9-16.7-11s7.5-11,16.7-11c9.199,0,16.699,4.9,16.699,11S1115.199,397,1106,397z M1106,377c-8.101,0-14.7,4-14.7,9s6.6,9,14.7,9c8.1,0,14.699-4,14.699-9S1114.1,377,1106,377z"/><path fill="#3864A1" d="M1120.4,387.9C1119,392,1113.1,395,1106,395c-2.801,0-5.4-0.5-7.601-1.3c-1.1,0.2-2.2,0.399-3.3,0.7 c2.9,1.6,6.7,2.6,10.8,2.6c8.601,0,15.8-4.3,16.601-9.9C1121.9,387.4,1121.1,387.6,1120.4,387.9L1120.4,387.9z"/><path fill="#F9D8CC" d="M1146,389c0-3.4-1.7-6.2-4-6.8v-14.5c0-0.601-0.4-1-1-1c-0.601,0-1,0.399-1,1v14.5 c-2.301,0.6-4,3.399-4,6.8v0.2c0,0.1,0,0.1,0.1,0.2c-0.1,0.5-0.1,1-0.1,1.6v4c0,0.6,0.399,1,1,1c0.6,0,1-0.4,1-1v-4 c0-1.5,0.199-2.2,0.399-2.5c0.3-0.2,0.8-0.4,1.601-0.5v6.9c0,0.6,0.399,1,1,1c0.6,0,1-0.4,1-1V388c0.8,0.1,1.399,0.3,1.6,0.5 c0.2,0.4,0.4,1.1,0.4,2.5v4c0,0.6,0.399,1,1,1c0.6,0,1-0.4,1-1v-4c0-0.6,0-1.1-0.101-1.6C1146,389.3,1146,389.2,1146,389z"/><path fill="#FFA16E" d="M1109,374c0,3.3-3,6-3,6s-3-2.7-3-6s3-6,3-6S1109,370.7,1109,374z"/><ellipse cx="1532" cy="400" fill="#FFA16E" rx="20" ry="12"/><circle cx="1106" cy="382" r="6" fill="#FF593E"/><circle cx="1524" cy="396" r="4" fill="#FF593E"/><circle cx="1532" cy="396" r="4" fill="#FF593E"/><circle cx="1540" cy="396" r="4" fill="#FF593E"/><circle cx="1536" cy="390" r="4" fill="#FF593E"/><circle cx="1528" cy="390" r="4" fill="#FF593E"/><circle cx="1532" cy="384" r="4" fill="#FF593E"/><path fill="#3864A1" d="M1538,400c-8.9,0-17.5-0.3-25.9-1c0,0.3-0.1,0.6-0.1,1c0,6.6,9,12,20,12s20-5.4,20-12v-0.3 C1547.4,399.9,1542.699,400,1538,400z"/><path fill="#3864A1" d="M1562.4,399.2v0.8c0,10.5-13.7,19-30.399,19c-16.7,0-30.4-8.5-30.4-19c0-0.6,0.1-1.3,0.2-1.9 c-0.7-0.1-1.301-0.1-2-0.199c-0.101,0.699-0.2,1.399-0.2,2.1c0,11.6,14.5,21,32.4,21c17.899,0,32.399-9.4,32.399-21v-1 C1563.699,399.1,1563.1,399.1,1562.4,399.2z"/><path fill="#3864A1" d="M1574.9,398c0.101,0.6,0.101,1.3,0.101,2c0,14.9-19.301,27-43,27c-23.7,0-43-12.1-43-27 c0-1.2,0.1-2.3,0.399-3.5c-0.7-0.1-1.3-0.2-2-0.3c-0.3,1.2-0.399,2.5-0.399,3.8c0,16,20.199,29,45,29c24.8,0,45-13,45-29 c0-0.7-0.101-1.5-0.101-2.2C1576.199,397.9,1575.5,398,1574.9,398z"/><path fill="#89B1ED" d="M1481,407.1v-12c-0.7-0.1-1.301-0.199-2-0.399V407.1c-2.301,0.601-4,3.4-4,6.801v0.199 c0,0.101,0,0.101,0.1,0.2c-0.1,0.5-0.1,1-0.1,1.601v4c0,0.6,0.399,1,1,1c0.6,0,1-0.4,1-1v-4c0-1.5,0.199-2.2,0.399-2.5 c0.3-0.2,0.8-0.4,1.601-0.5v6.899c0,0.601,0.399,1,1,1c0.6,0,1-0.399,1-1V412.9c0.8,0.1,1.399,0.3,1.6,0.5 c0.2,0.399,0.4,1.1,0.4,2.5v4c0,0.6,0.399,1,1,1c0.6,0,1-0.4,1-1v-4c0-0.601,0-1.101-0.101-1.601c0.101-0.1,0.101-0.2,0.101-0.399 V413.8C1485,410.5,1483.3,407.8,1481,407.1z M1583,397v6h-3c-0.301,0-0.601,0.1-0.801,0.4c-0.199,0.199-0.3,0.6-0.199,0.899l4,16 c0.1,0.5,0.5,0.8,1,0.8h0.1c0.5-0.1,0.9-0.5,0.9-1V396.9C1584.3,396.9,1583.699,397,1583,397L1583,397z"/><path fill="#3864A1" d="M1127,385.5v0.5c0,7.2-9.4,13-21,13c-5.801,0-11.101-1.5-14.9-3.9c-0.9,0.2-1.8,0.301-2.7,0.5 C1092.6,398.9,1099,401,1106,401c12.699,0,23-6.7,23-15c0-0.4,0-0.8-0.101-1.2C1128.3,385,1127.6,385.3,1127,385.5z"/><path fill="#89B1ED" d="M1142,382.1V378.7c-0.7,0.399-1.301,0.7-2,1.1v2.3c-2.301,0.601-4,3.4-4,6.801v0.199 c0,0.101,0,0.101,0.1,0.2c-0.1,0.5-0.1,1-0.1,1.601v4c0,0.6,0.399,1,1,1c0.6,0,1-0.4,1-1v-4c0-1.5,0.199-2.2,0.399-2.5 c0.3-0.2,0.8-0.4,1.601-0.5v6.899c0,0.601,0.399,1,1,1c0.6,0,1-0.399,1-1V387.9c0.8,0.1,1.399,0.3,1.6,0.5 c0.2,0.399,0.4,1.1,0.4,2.5v4c0,0.6,0.399,1,1,1c0.6,0,1-0.4,1-1v-4c0-0.601,0-1.101-0.101-1.601c0.101-0.1,0.101-0.2,0.101-0.399 V388.8C1146,385.5,1144.3,382.8,1142,382.1z"/></g><g><path fill="#FF593E" d="M1448,284l4,68h-28v-68"/><path fill="#F9D8CC" d="M1152,352c-4.4,0-8-3.6-8-8v-4.3c0.1-10.9,0.199-31-5.301-36.601c-0.6-0.6-1.3-1.1-2.699-1.1 c-4.4,0-8-3.6-8-8s3.6-8,8-8c5.399,0,10.3,2,14,5.8c10.199,10.3,10.1,31.2,10,48v4.2C1160,348.4,1156.4,352,1152,352z"/><path fill="#FF593E" d="M968,284l4,68h-28v-68"/><path fill="#FF593E" d="M1044,264c-12.7,0-17.7,12.8-19.5,20.4c-0.5,2.3-1,4.6-1.301,6.899c-0.399-0.2-0.8-0.3-1.199-0.5 c-3.5-1.5-7-3-9.7-4.2c-1.3-0.6-2.5-1.1-3.3-1.399c-0.5-0.2-0.801-0.3-1-0.4c-1.4-0.6-3-0.8-4-0.8h-24l-16,68h40v-47.2 c6,2.4,16.6,7.2,24,10.4c1.3,0.6,2.6,0.8,4,0.8c1.5,0,3.1-0.3,4.5-1c2.6-1.3,4.6-3.7,5.3-6.6c0.3-1.101,0.3-1.9,0.399-3.5 c0.601-14.301,2.7-19.301,3.601-21c4.7-0.801,8.3-4.9,8.3-9.9C1054,268.5,1049.5,264,1044,264L1044,264z"/><path fill="#FF9B0B" d="M1435.4,346.9l-7.7,26.899 M1420,371.6l15.399,4.4"/><path fill="#FFA16E" d="M1447.1,340.4c-0.5-1-1.8-1.301-2.7-0.801c0,0-1,0.5-2.1,0.5c-1.2,0-2.101-0.6-2.9-1.899 c-1.399-2.601-3.7-4-6.399-4c-2.2,0-3.801,0.899-4,1c-0.801,0.399-1.2,1.399-1,2.3c0.399,1.5,2.699,9.3,6.5,11.2 c0.3,0.1,0.6,0.2,0.899,0.2s0.7-0.101,1-0.301l9.9-5.5C1447.199,342.6,1447.6,341.4,1447.1,340.4L1447.1,340.4z"/><path fill="#AF7075" d="M1448.1,331.8c-1.1-0.3-2.2,0.3-2.5,1.4l-2.2,7.7c-0.399,1.5-1.5,2.8-2.899,3.6c-1.4,0.8-3,1-4.601,0.5 c-3.2-0.9-5-4.2-4.1-7.4l2.2-7.699c0.3-1.101-0.301-2.2-1.4-2.5c-1.1-0.301-2.2,0.3-2.5,1.399l-2.2,7.7c-1.3,4.6,0.9,9.5,5,11.6 l-6.7,23.301l-5.8-1.7c-1.1-0.3-2.2,0.3-2.5,1.399c-0.3,1.101,0.3,2.2,1.4,2.5l7.7,2.2l7.699,2.2c0.2,0.1,0.4,0.1,0.601,0.1 c0.899,0,1.699-0.6,1.899-1.399c0.301-1.101-0.3-2.2-1.399-2.5l-5.801-1.7l6.7-23.3c0.3,0,0.5,0.1,0.8,0.1 c1.7,0,3.301-0.399,4.801-1.3c2.3-1.3,4-3.4,4.8-6l2.2-7.7C1449.699,333.2,1449.1,332.1,1448.1,331.8L1448.1,331.8z"/><path fill="#231931" d="M1436.6,214h-0.6c-1.7,0-3.301,1.1-3.801,2.9l-16,54c-0.5,1.699,0.101,3.399,1.601,4.399 c0.699,0.5,1.5,0.7,2.3,0.7s1.7-0.3,2.4-0.8l16-12c1-0.8,1.6-1.9,1.6-3.2v-42C1440,216,1438.5,214.3,1436.6,214z"/><circle cx="1484" cy="240" r="4" fill="#FF9B0B"/><path fill="#F9D8CC" d="M1484,232h-8v-14c0-2.2-1.801-4-4-4h-36c-2.2,0-4,1.8-4,4v40c0,8.8,7.199,16,16,16h12c8.8,0,16-7.2,16-16 v-10h8c4.399,0,8-3.6,8-8C1492,235.6,1488.4,232,1484,232z"/><path fill="#89B1ED" d="M1450.3,214H1436c-2.2,0-4,1.8-4,4v40c0,3,0.8,5.8,2.3,8.2L1450.3,214z"/><path fill="#FF593E" d="M1480,202h-2.9c-4.3-8-13-14-23.1-14c-10.101,0-18.7,6-23.101,14H1428c-2.2,0-4,1.8-4,4v8c0,2.2,1.8,4,4,4 h52c2.199,0,4-1.8,4-4v-8C1484,203.8,1482.199,202,1480,202z"/><path fill="#F9D8CC" d="M1460,272c0-2.2-1.801-4-4-4h-4c-2.2,0-4,1.8-4,4v12c0,2.2,1.8,4,4,4h4c2.199,0,4-1.8,4-4V272z"/><circle cx="1466" cy="230" r="2" fill="#E6711B"/><path fill="#AF7075" d="M1466,234c-2.2,0-4-1.8-4-4s1.8-4,4-4c2.199,0,4,1.8,4,4S1468.199,234,1466,234z"/><path fill="#F9D8CC" d="M1000,236h-8v-28c0-2.2-1.801-4-4-4h-36c-2.2,0-4,1.8-4,4v50c0,8.8,7.199,16,16,16h12c8.8,0,16-7.2,16-16 v-6h8c4.399,0,8-3.6,8-8C1008,239.6,1004.4,236,1000,236z"/><path fill="#AF7075" d="M982,226c-2.2,0-4,1.8-4,4s1.8,4,4,4c2.199,0,4-1.8,4-4S984.199,226,982,226z"/><path fill="#FF593E" d="M1512,308c-0.4,0-0.9,0-1.301-0.1c-13.1-1.7-28-3.601-30.899-3.9c-2.5,0-5-1-6.9-2.9 c-3-3-3.8-7.699-1.9-11.5c1.9-3.8,5.2-5.6,9.801-5.5c-8-7.699-11.101-12.899-10.9-18.399s4.8-9.8,10.3-9.601 c4.801,0.2,8.7,3.7,9.5,8.2c2.9,4.5,16.9,16,21.601,19.9c2.1,1.7,3.899,3.2,5.3,4.399c2.3,2,6.6,5.7,5.1,11.801 C1520.6,304.8,1516.6,308,1512,308z M1482.3,303.7c-0.601,0.1-1.3,0.2-1.9,0.3C1481,303.9,1481.699,303.8,1482.3,303.7z M1488.1,299.8c-0.3,0.4-0.7,0.8-1.1,1.2c-0.301,0.3-0.7,0.6-1,0.9C1486.8,301.4,1487.5,300.6,1488.1,299.8z"/><circle cx="1596" cy="244" r="4" fill="#FF9B0B"/><path fill="#F9D8CC" d="M1644,214h-36c-2.2,0-4,1.8-4,4v18h-8c-4.4,0-8,3.6-8,8c0,4.4,3.6,8,8,8h8v6c0,8.8,7.199,16,16,16v14 c0,2.2,1.8,4,4,4h8c2.199,0,4-1.8,4-4v-14.5c6.899-1.8,12-8,12-15.5v-40C1648,215.8,1646.199,214,1644,214z M1632,288h-8H1632z"/><path fill="#89B1ED" d="M1644.199,268.3c2.4-2.8,3.801-6.399,3.801-10.3v-40c0-2.2-1.801-4-4-4h-15.301L1644.199,268.3z"/><path fill="#AF7075" d="M1614,226c-2.2,0-4,1.8-4,4s1.8,4,4,4c2.199,0,4-1.8,4-4S1616.199,226,1614,226z M1654,226 c0-4.4-3.601-8-8-8c0-4.4-3.601-8-8-8c-2.101,0-4,0.8-5.4,2.1c-1.1-1.3-2.7-2.1-4.6-2.1c-1.5,0-2.9,0.6-4,1.5 c-0.7-0.6-1.5-1.1-2.4-1.3c0.3-0.7,0.4-1.4,0.4-2.2c0-3.3-2.7-6-6-6c-3.301,0-6,2.7-6,6c0,0.8,0.199,1.5,0.399,2.2 c-2.5,0.7-4.399,3-4.399,5.8c0,3.3,2.699,6,6,6c1.5,0,2.899-0.6,4-1.5c1.1,1,2.5,1.5,4,1.5s2.899-0.6,4-1.5c1.1,1,2.5,1.5,4,1.5 c1,0,1.899-0.2,2.699-0.7c1.301,2.8,4,4.7,7.301,4.7c0,1.5,0.399,2.8,1.1,4c-0.7,1.2-1.1,2.5-1.1,4c0,4.4,3.6,8,8,8 c4.399,0,8-3.6,8-8c0-1.5-0.4-2.8-1.101-4C1653.6,228.8,1654,227.5,1654,226z"/><path fill="#231931" d="M1630.9,221.6c1.3,2.6,4,4.4,7.101,4.4c0,1.5,0.399,2.8,1.1,4c-0.7,1.2-1.1,2.5-1.1,4c0,4.4,3.6,8,8,8 c4.399,0,8-3.6,8-8c0-1.5-0.4-2.8-1.101-4c0.7-1.2,1.101-2.5,1.101-4c0-4.4-3.601-8-8-8c0-4.4-3.601-8-8-8c-2.101,0-4,0.8-5.4,2.1 c-1.1-1.3-2.7-2.1-4.6-2.1h-0.4L1630.9,221.6z"/><path fill="#FF593E" d="M1661.699,215c-0.199-0.4-0.6-0.7-1-0.8L1649,209.5v-0.1c0-8.5-10.301-15.3-23-15.3c-12.7,0-23,6.9-23,15.3 v7.7c0,1.1,0.899,2,2,2h33.1l17.1,6.9c0.2,0.1,0.5,0.1,0.7,0.1s0.3,0,0.5-0.1c0.5-0.1,4.7-1.2,6.1-4.6 C1663.1,220,1663.4,217.8,1661.699,215L1661.699,215z M1616,207c2.5,0,4.899,1,5.699,4h-11.5C1611.1,208,1613.5,207,1616,207z M1660,284h-24c0,0-3.9,4-8,4c-4.101,0-8-4-8-4h-20c-4.2,0-8.101,2.7-9.5,6.9c-4.601,14-12.4,26.1-15.9,27.1 c-0.3-0.1-1.3-0.9-2.8-2.8c-7.101-8.7-13.801-13.2-20.601-13.2H1551c-6.5,1-10,4.2-10.9,5.4c-3.4,4.399-2.6,10.8,1.8,14.1 c2.8,2.2,6.5,2.7,9.601,1.5c1,0.8,2.6,2.2,4.8,4.9c6.399,7.899,13,10,18.2,10c1.3,0,2.5-0.101,3.6-0.301c8.1-1.5,14.6-8,19.7-15.6 l-1.801,30h52c-1.3,2-2,3.7-2,6c0,5.5,4.5,10,10,10c23.2,0,42-18.8,42-42C1697.999,304.2,1681.3,286,1660,284L1660,284z M1660,347.6v-43.3c10.199,1.9,18,10.9,18,21.601C1678,336.6,1670.199,345.7,1660,347.6L1660,347.6z"/><path fill="#3864A1" d="M1660,284h-11.4l11.4,39.9v-19.5c10.199,1.899,18,10.899,18,21.6c0,8.5-4.801,15.8-11.9,19.5l1.9,6.5h-20 c-1.301,1.7-2,3.7-2,6c0,5.5,4.5,10,10,10c23.199,0,42-18.8,42-42C1698,304.2,1681.3,286,1660,284z"/><circle cx="1548" cy="313.7" r="12" fill="#F9D8CC"/><circle cx="1478" cy="262" r="12" fill="#F9D8CC"/><circle cx="1656" cy="356" r="12" fill="#F9D8CC"/><path fill="#F9D8CC" d="M1120,228h-8v-10c0-2.2-1.801-4-4-4h-24c-2.2,0-4,1.8-4,4v14h-16c-4.4,0-8,3.6-8,8c0,4.4,3.6,8,8,8h16v10 c0,8.8,7.199,16,16,16v10h-8v32h32v-32h-8v-10.5c6.899-1.8,12-8,12-15.5v-26C1124,229.8,1122.199,228,1120,228z M980,272 c0-2.2-1.801-4-4-4h-8c-2.2,0-4,1.8-4,4v16c0,2.2,1.8,4,4,4h8c2.199,0,4-1.8,4-4V272z"/><g><circle cx="1090" cy="230" r="2" fill="#AF7075"/><path fill="#AF7075" d="M1090,234c-2.2,0-4-1.8-4-4s1.8-4,4-4c2.199,0,4,1.8,4,4S1092.199,234,1090,234z"/></g><path fill="#89B1ED" d="M1160,338.1c0.1-16.5-0.101-36.3-10-46.3c-1.2-1.2-2.601-2.3-4.101-3.1L1160,338.1z"/><path fill="#F9D8CC" d="M1084.699,287.5c-3.6-2.6-8.6-1.8-11.199,1.8l-15.101,20.8c-3.1,1.9-12.2,7.2-22.3,10.2 c-0.7-0.1-1.4-0.2-2.1-0.2c-5.5,0-10,4.5-10,10s4.5,10,10,10c3.699,0,7-2,8.699-5.1c13.9-4.5,25.2-11.9,25.7-12.3 c0.8-0.5,1.5-1.2,2-2l16-22C1089.1,295.1,1088.3,290.1,1084.699,287.5z"/><path fill="#FF593E" d="M1128.5,283.1c-4.9-2.5-10.9-0.5-13.4,4.5L1104,309.7L1092.9,287.6c-2.5-4.899-8.5-6.899-13.399-4.5 c-4.9,2.5-6.9,8.5-4.5,13.4l3.3,6.7l9.6,44.899h32l8-36l-3.3,0.9l8.2-16.5C1135.4,291.5,1133.4,285.5,1128.5,283.1L1128.5,283.1z"/><path fill="#AF7075" d="M1149,270.3c-1.101-0.7-11-8.1-11-22.3v-31.8V216v-0.3c-0.2-12-13.601-21.7-30-21.7c-16.5,0-30,9.9-30,22 c0,1.1,0.899,2,2,2h30v70c0,13.2,10.8,24,24,24c13.199,0,24-10.8,24-24C1158,275.7,1150.199,270.9,1149,270.3z"/><path fill="#231931" d="M1150.699,305.2c4.5-4.4,7.301-10.5,7.301-17.2c0-12.3-7.801-17.1-9-17.7c-1.101-0.7-11-8.1-11-22.3v-31.8 V216v-0.3c-0.2-9-7.801-16.7-18.5-20L1150.699,305.2L1150.699,305.2z"/><path fill="#AF7075" d="M992.5,250.7c-0.2-0.2-4.2-4.5-9-4.5c-4.801,0-8.601,4.3-9,4.8c-0.101,0.1-0.2,0.3-0.301,0.4 c-2.699,5.5-8.5,13.899-13.199,15c-2.101-3.2-8.601-15.4-10.301-35.4H955c1.1,0,2-0.9,2-2v-16c0-1.1-0.9-2-2-2H950.4v-2 c0-0.7,0-1.4-0.1-1.9c-0.101-1-0.601-2.2-2-2.2c-2,0-2,2-2,2.7v3.7c-0.7,0.3-1.3,1-1.3,1.9v16c0,0.8,0.5,1.6,1.3,1.9l-0.8,29.8v0.1 c0.199,4.9,3.5,14.2,14.5,14.2h20.199c4.4-0.4,12.801-4.101,12.801-15v-8C993,251.5,992.8,251,992.5,250.7L992.5,250.7z"/><path fill="#FF593E" d="M996.1,196.6c-3.8-7.1-9.3-11.5-9.5-11.7c-0.6-0.5-1.3-0.8-2.1-0.8c-4.2-3.2-9.101-5-14.5-5 c-5.301,0-10.301,1.8-14.5,5c-0.7,0.1-1.4,0.4-2,0.8c-0.2,0.2-5.7,4.6-9.5,11.7c-5.301,9.8-5.101,20,0.6,29.5 c0.6,1.1,1.7,1.8,2.9,1.9h0.5c1.1,0,2.1-0.4,2.8-1.2c6.1-6.1,14.5-12.7,19.2-14.4c4,1.5,11.6,6.7,19.3,14.4 c0.8,0.8,1.8,1.2,2.8,1.2h0.5c1.2-0.2,2.3-0.9,2.9-1.9C1001.199,216.6,1001.4,206.4,996.1,196.6z"/><path fill="#F9D8CC" d="M988,258h-4c-1.101,0-2,0.9-2,2c0,2.2,1.8,4,4,4c2.199,0,4-1.8,4-4C990,258.9,989.1,258,988,258z M1152,336 c-0.7,0-1.301,0.1-2,0.2c-4.601-7.5-10.5-20.9-10.5-25.601c0.1-0.1,0.1-0.3,0.1-0.399c2.6-1.8,4.3-4.8,4.3-8.2c0-5.5-4.5-10-10-10 s-10,4.5-10,10c0,1.1,0.2,2.2,0.5,3.1c-1.5,3.5-2,9.7,4.101,24.301c2.899,6.899,8,16.699,12.699,21.899c3.301,3.7,6.4,4.8,9,4.8 c1.301,0,2.4-0.3,3.301-0.6c2.899-1.1,6.3-4,6.3-11.4C1160,339.6,1156.4,336,1152,336L1152,336z"/><path fill="#AF7075" d="M972,336l-12-52h24"/><path fill="#FFA16E" d="M978,294c0-3.3-2.7-6-6-6c-3.301,0-6,2.7-6,6c0,2.8,1.899,5.1,4.5,5.8L968,320l4,16l4-16l-2.5-20.2 C976.1,299.1,978,296.8,978,294z"/><circle cx="1046" cy="274" r="12" fill="#F9D8CC"/><path fill="#FFA16E" d="M988.8,351.9c-0.7-0.301-1.601-0.101-2.2,0.399c0,0-1.3,1.2-2.7,1.2c-0.8,0-1.6-0.4-2.4-1.2 c-1.5-1.5-3.399-2.399-5.3-2.399c-3.1,0-5.3,2.1-5.6,2.399c-0.4,0.4-0.6,0.9-0.6,1.4c0,6,2.1,16.2,10,16.2c7.899,0,10-10.2,10-16.2 C990,353,989.5,352.2,988.8,351.9z"/><path fill="#AF7075" d="M980,370c-5.5,0-10-4.5-10-10v-12c0-1.1,0.899-2,2-2c1.1,0,2,0.9,2,2v12c0,3.3,2.699,6,6,6c3.3,0,6-2.7,6-6 v-12c0-1.1,0.899-2,2-2c1.1,0,2,0.9,2,2v12C990,365.5,985.5,370,980,370z"/><path fill="#FF593E" d="M959,354.1l-21.801-5.699l11.9-45.7c2.9-1.7,4.9-4.9,4.9-8.601c0-5.5-4.5-10-10-10h-3 c-4.601,0-8.5,3.101-9.7,7.5l-16,61.5c-1.4,5.301,1.8,10.801,7.1,12.2l31.5,8.2c0.8,0.2,1.7,0.3,2.5,0.3c4.4,0,8.5-3,9.7-7.5 C967.6,360.9,964.4,355.5,959,354.1L959,354.1z"/><circle cx="961" cy="363" r="12" fill="#F9D8CC"/><g><path fill="#FF593E" d="M1100,320l-24-28l10,46.5"/><path fill="#FF593E" d="M1086,340.5h-0.4c-0.8-0.2-1.4-0.8-1.5-1.5l-10-46.5c-0.2-0.9,0.2-1.8,1.1-2.2 c0.801-0.399,1.801-0.2,2.4,0.5l24,28c0.6,0.7,0.6,1.8,0.1,2.5l-14,18.5C1087.199,340.2,1086.6,340.5,1086,340.5z M1079.6,299.3 l7.4,34.5l10.399-13.7L1079.6,299.3z"/></g><path fill="#3864A1" d="M1428,218h21l9.1-29.7c-1.3-0.2-2.7-0.3-4.1-0.3c-10,0-18.7,5.7-23.101,14H1428c-2.2,0-4,1.8-4,4v8 C1424,216.2,1425.8,218,1428,218z"/><path fill="#FF593E" d="M1460,284l-4,68h28v-68 M1424,348c-12.101,0-22-9.9-22-22s9.899-22,22-22v8l25.699,0.7L1448,284h-24 c-23.2,0-42,18.8-42,42s18.8,42,42,42c5.5,0,10-4.5,10-10S1429.5,348,1424,348z"/><path fill="#3864A1" d="M1410.6,343.4c-5.2-4-8.6-10.301-8.6-17.4c0-11.7,9.199-21.3,20.699-22l6.101-20h-4.801 c-23.199,0-42,18.8-42,42c0,19.8,13.801,36.5,32.4,40.9c-4.1-4.7-6.4-9.7-6.4-14.9L1410.6,343.4L1410.6,343.4z"/><circle cx="1426" cy="360" r="12" fill="#F9D8CC"/><path fill="#3864A1" d="M1630.199,219h8l17.101,6.9c0.199,0.1,0.5,0.1,0.699,0.1c0.2,0,0.301,0,0.5-0.1c0.5-0.1,4.7-1.2,6.101-4.6 c0.6-1.3,0.8-3.5-0.9-6.4c-0.2-0.4-0.6-0.7-1-0.8l-11.7-4.7v-0.1c0-8.5-10.3-15.3-23-15.3c-1,0-2,0.1-2.899,0.1L1630.199,219 L1630.199,219z M955.4,184.1c-0.7,0.1-1.399,0.4-1.899,0.8c-0.2,0.2-5.7,4.6-9.5,11.7c-4.9,9-5.101,18.3-0.7,27.1L955.4,184.1 L955.4,184.1z"/><path fill="#F9D8CC" d="M2216,254h-8v-10c0-2.2-1.801-4-4-4h-24c-2.2,0-4,1.8-4,4v14h-4c-4.4,0-8,3.6-8,8s3.6,8,8,8h4 c0,8.8,7.199,16,16,16v14c0,2.2,1.8,4,4,4h8c2.199,0,4-1.8,4-4v-14.5c6.899-1.8,12-8,12-15.5v-16C2220,255.8,2218.199,254,2216,254 z"/><path fill="#AF7075" d="M2186,250c-2.2,0-4,1.8-4,4s1.8,4,4,4c2.199,0,4-1.8,4-4S2188.199,250,2186,250z M2224,220 c-2.7,0-5.2,0.8-7.301,2.1c-3.5-1.2-7.3-1.9-11.399-2c-1.601-4.7-6.101-8-11.3-8c-6.601,0-12,5.4-12,12c0,1,0.1,1.9,0.3,2.8 c-5.2,4-8.3,9.3-8.3,15.2c0,1.101,0.899,2,2,2h28c0,10.301,8.399,18,16,18c2.199,0,4-1.8,4-4v-10c7.699,0,14-6.3,14-14 C2238,226.4,2231.699,220,2224,220z"/><path fill="#F9D8CC" d="M2257.199,325.9l-28-24c-3.399-2.9-8.399-2.5-11.3,0.899c-2.9,3.4-2.5,8.4,0.899,11.3l23.5,20.101 c-1.6,3.8-3.6,9.2-5,15c-3.1,1.7-5.3,5-5.3,8.8c0,5.5,4.5,10,10,10s10-4.5,10-10c0-0.3,0-0.7-0.1-1c1.8-10.5,7.2-21.3,7.2-21.4 C2260.799,332.3,2259.999,328.3,2257.199,325.9L2257.199,325.9z"/><path fill="#FF593E" d="M2250.3,320l-21.101-18.1c-1.5-1.301-3.399-1.9-5.199-1.9h-14v-8c0-0.6-0.301-1.2-0.801-1.6 c-0.5-0.4-1.1-0.5-1.699-0.4c-6.5,1.6-17.5,5.1-17.5,9.9h-14v52h48v-33.5l16,13.699L2250.3,320z"/><path fill="#AF7075" d="M2072,340v-44h-48v1.1c-1.2-0.699-2.5-1.1-4-1.1c-19.9,0-36,16.1-36,36s16.1,36,36,36c4.399,0,8-3.6,8-8 s-3.601-8-8-8c-11,0-20-9-20-20s9-20,20-20c1.5,0,2.8-0.4,4-1.1V340H2072z"/><path fill="#FF593E" d="M2064,296v20h-32v-20h-12v56h56v-56"/><circle cx="2024" cy="358" r="10" fill="#F9D8CC"/><path fill="#AF7075" d="M2084.699,239.4c0.801-1.4,1.301-2.9,1.301-4.6c0-3.4-1.9-6.4-4.7-7.9c0.1-0.4,0.1-0.9,0.1-1.4 c0-3.4-1.899-6.4-4.7-7.9c0.101-0.4,0.101-0.9,0.101-1.4c0-4.9-4-8.9-8.899-8.9c-0.301,0-0.7,0-1,0.1c-1.801-5.4-6.9-9.3-12.9-9.3 c-7.5,0-13.6,6.1-13.6,13.6c0,2,0.399,3.8,1.199,5.5c-3.399,1.3-5.8,4.5-5.8,8.4c0,1.7,0.5,3.3,1.3,4.6c-0.8,1.4-1.3,2.9-1.3,4.6 c0,1.7,0.5,3.3,1.3,4.6c-0.8,1.4-1.3,2.9-1.3,4.6s0.5,3.3,1.3,4.6c-0.8,1.4-1.3,2.9-1.3,4.601c0,3.399,1.9,6.399,4.7,7.899 c-0.1,0.4-0.1,0.9-0.1,1.4c0,3.2,1.6,5.9,4.1,7.5c0.2,0.4,0.4,0.9,0.5,1.3v0.4c0,3.6,2.2,6.8,5.3,8.2c1.3,1.5,2.8,2.699,4.3,3.6 c1.101,3.7,4.5,6.4,8.601,6.4c4.899,0,8.899-4,8.899-8.9v-0.3h0.301c4.899,0,8.899-4,8.899-8.9c0-0.5,0-0.899-0.101-1.399 c2.801-1.5,4.7-4.5,4.7-7.9c0-1.7-0.5-3.3-1.3-4.6c0.8-1.4,1.3-2.9,1.3-4.601s-0.5-3.3-1.3-4.6c0.8-1.4,1.3-2.9,1.3-4.601 C2086,242.3,2085.5,240.7,2084.699,239.4L2084.699,239.4z"/><path fill="#F9D8CC" d="M2088,256c0-4.4-3.601-8-8-8h-8v-10c0-2.2-1.801-4-4-4h-24c-2.2,0-4,1.8-4,4v10h-8c-2.2,0-4,1.8-4,4v16 c0,7.4,5.1,13.7,12,15.5V296c0,0.3,0.1,0.6,0.1,1c-0.1,0.3-0.1,0.7-0.1,1c0,3.3,3.6,6,8,6c4.399,0,8-2.7,8-6c0-0.4,0-0.7-0.101-1 c0.101-0.3,0.101-0.6,0.101-1v-12c8.8,0,16-7.2,16-16v-4h8C2084.4,264,2088,260.4,2088,256z"/><path fill="#AF7075" d="M2062,242c-2.2,0-4,1.8-4,4s1.8,4,4,4c2.199,0,4-1.8,4-4S2064.199,242,2062,242z M2070,222 c-1.801,0-3.4,0.6-4.7,1.6c-1.9-5.5-7.101-9.6-13.3-9.6c-7.7,0-14,6.3-14,14s6.3,14,14,14c5.1,0,9.5-2.7,12-6.8 c1.5,1.7,3.6,2.8,6,2.8c4.399,0,8-3.6,8-8S2074.4,222,2070,222z"/><path fill="#AF7075" d="M2058,208c0-7.7-6.301-14-14-14c-3.9,0-7.4,1.6-10,4.2c-0.7-0.1-1.5-0.2-2.2-0.2c-6,0-11.101,3.9-12.9,9.3 c-0.3,0-0.7-0.1-1-0.1c-4.899,0-8.899,4-8.899,8.9c0,0.5,0,0.9,0.1,1.4c-2.8,1.5-4.7,4.5-4.7,7.9c0,0.5,0,0.9,0.101,1.4 c-2.801,1.5-4.7,4.5-4.7,7.9c0,1.7,0.5,3.3,1.3,4.6c-0.8,1.4-1.3,2.9-1.3,4.601c0,1.699,0.5,3.3,1.3,4.6c-0.8,1.4-1.3,2.9-1.3,4.6 c0,1.7,0.5,3.301,1.3,4.601c-0.8,1.399-1.3,2.899-1.3,4.6c0,3.4,1.899,6.4,4.7,7.9c-0.101,0.399-0.101,0.899-0.101,1.399 c0,4.9,4,8.9,8.9,8.9h0.3v0.3c0,4.9,4,8.9,8.9,8.9c4.1,0,7.5-2.7,8.6-6.4c1.5-0.899,3-2.1,4.3-3.6c3.101-1.4,5.3-4.5,5.3-8.2v-0.4 c0.2-0.399,0.4-0.899,0.5-1.3c2.5-1.6,4.101-4.399,4.101-7.5c0-0.5,0-0.899-0.101-1.399c2.801-1.5,4.7-4.5,4.7-7.9 c0-1.7-0.5-3.3-1.3-4.6c0.8-1.4,1.3-2.9,1.3-4.601s-0.5-3.3-1.3-4.6c0.8-1.4,1.3-2.9,1.3-4.6c0-1.7-0.5-3.3-1.3-4.6 c0.1-0.2,0.2-0.3,0.3-0.5c5.2-1.3,9-6,9-11.6c0-1.7-0.399-3.3-1-4.8C2057.6,211.6,2058,209.8,2058,208L2058,208z"/><path fill="#231931" d="M2004.4,270.4c-0.1,0.399-0.1,0.899-0.1,1.399c0,3.8,2.399,7,5.7,8.3l25.5-83.2c-0.5,0.4-1,0.8-1.5,1.3 c-0.7-0.1-1.5-0.2-2.2-0.2c-6,0-11.101,3.9-12.9,9.3c-0.3,0-0.7-0.1-1-0.1c-4.899,0-8.899,4-8.899,8.9c0,0.5,0,0.9,0.1,1.4 c-2.8,1.5-4.7,4.5-4.7,7.9c0,0.5,0,0.9,0.101,1.4c-2.801,1.5-4.7,4.5-4.7,7.9c0,1.7,0.5,3.3,1.3,4.6c-0.8,1.4-1.3,2.9-1.3,4.601 c0,1.699,0.5,3.3,1.3,4.6c-0.8,1.4-1.3,2.9-1.3,4.6c0,1.7,0.5,3.301,1.3,4.601c-0.8,1.399-1.3,2.899-1.3,4.6 C1999.699,265.9,2001.6,268.9,2004.4,270.4z"/><g><path fill="#231931" d="M2004,299.8c-11.801,5.9-20,18.101-20,32.2c0,6.4,1.699,12.5,4.699,17.7L2004,299.8L2004,299.8z"/></g><path fill="#231931" d="M2222.199,261.3c1.101-0.7,1.801-1.899,1.801-3.3v-10c7.699,0,14-6.3,14-14s-6.301-14-14-14 c-2.7,0-5.2,0.8-7.301,2.1c-1.899-0.7-4-1.2-6.1-1.5L2222.199,261.3L2222.199,261.3z M2235.199,307.1l6.601,23l8.5-10.1"/><path fill="#89B1ED" d="M2257.199,325.9l-22-18.801L2248,352c0,5.6-2.601,10.9-7.301,15.9c0.4,0.1,0.9,0.1,1.301,0.1 c5.5,0,10-4.5,10-10c0-0.3,0-0.7-0.101-1c1.8-10.5,7.2-21.3,7.2-21.4C2260.799,332.3,2259.999,328.3,2257.199,325.9z"/></g><g><path fill="#89B1ED" d="M1341.3,358.3c-6.2,0-11.101-5.6-12.9-7.8c-23.399-27.4-43.3-47.2-43.5-47.4 c-3.899-3.899-3.899-10.199,0-14.1c3.9-3.9,10.2-3.9,14.101,0c0.6,0.6,12.3,12.3,28.399,30.2c-0.8-3-1.6-6-2.3-8.8 c-3.2-12-6.4-24.4-8.5-34.801c-3-15.6-2.7-23.399,1.3-28.6c2.4-3.1,6-4.9,10-4.9c5.5,0,10,4.5,10,10c0,3-1.3,5.7-3.399,7.5 c0.1,8.7,6.399,32.4,9.899,45.7c2.7,10.3,5.3,20.101,6.9,27.7c1.7,8.2,3.899,19.4-4.8,24C1344.699,357.9,1343,358.3,1341.3,358.3 L1341.3,358.3z M1248.3,290.5c-3.101-4.6-9.3-5.8-13.9-2.8c-1,0.7-25.399,17.1-50,45.8c-10.1,11.8-10.399,22.7-8.899,29.8 c4.6,20.7,29.5,32.5,32.3,33.8c0.2,0.101,0.399,0.2,0.6,0.2c2.101,1.7,4.7,2.7,7.5,2.7c6.601,0,12-5.4,12-12s-5.399-12-12-12 c-1.399,0-2.7,0.3-4,0.7c-6.2-3.601-15.3-10.4-16.899-17.8c-0.301-1.4-1.2-5.7,4.5-12.4c22.6-26.4,45.5-41.9,46-42.2 C1250.1,301.3,1251.4,295,1248.3,290.5z"/><path fill="#89B1ED" d="M1341.3,358.3c-6.2,0-11.101-5.6-12.9-7.8c-23.399-27.4-43.3-47.2-43.5-47.4 c-3.899-3.899-3.899-10.199,0-14.1c3.9-3.9,10.2-3.9,14.101,0c0.6,0.6,12.3,12.3,28.399,30.2c-0.8-3-1.6-6-2.3-8.8 c-3.2-12-6.4-24.4-8.5-34.801c-3-15.6-2.7-23.399,1.3-28.6c2.4-3.1,6-4.9,10-4.9c5.5,0,10,4.5,10,10c0,3-1.3,5.7-3.399,7.5 c0.1,8.7,6.399,32.4,9.899,45.7c2.7,10.3,5.3,20.101,6.9,27.7c1.7,8.2,3.899,19.4-4.8,24C1344.699,357.9,1343,358.3,1341.3,358.3 L1341.3,358.3z"/></g><g><path fill="#3864A1" d="M1325.9,314.4c-9.399-10.4-17.1-18.4-21.399-22.9c-1-1.3-2.2-2.5-3.5-3.6l-0.4-0.4 c-1.1-1.1-2.3-1.9-3.7-2.5c-8.1-4.9-19.8-8-32.8-8c-20.4,0-37.6,7.6-42.6,17.9c-6.301,5-14.5,12.1-23.4,21l18,15.899 c5.8-5.7,11.2-10.5,15.9-14.5c8,4.7,19.399,7.601,32.1,7.601c12.6,0,24-2.9,32-7.5c3.7,3.899,8,8.5,12.7,13.8 c1.8,2,3.699,4.1,5.699,6.3l17.2-16.8C1329.6,318.6,1327.699,316.5,1325.9,314.4L1325.9,314.4z"/></g><g><path fill="#89B1ED" d="M1227.199,197.8c-0.3,0-0.6-0.1-0.899-0.2c-1-0.5-1.4-1.7-0.9-2.7c4-8.2,9.9-12.8,10.1-13 c0.9-0.7,2.101-0.5,2.801,0.4c0.699,0.9,0.5,2.1-0.4,2.8c-0.1,0.1-5.4,4.3-9,11.6C1228.699,197.4,1227.9,197.8,1227.199,197.8 L1227.199,197.8z M1136,198c-0.4,0-0.801-0.1-1.101-0.3c-0.899-0.6-1.2-1.9-0.6-2.8l8-12c0.6-0.9,1.899-1.2,2.8-0.6 c0.9,0.6,1.2,1.9,0.6,2.8l-8,12C1137.3,197.7,1136.6,198,1136,198L1136,198z M1140,206c-0.7,0-1.4-0.4-1.801-1.1 c-0.5-1-0.1-2.2,0.9-2.7l8-4c1-0.5,2.2-0.1,2.7,0.9s0.1,2.2-0.9,2.7l-8,4C1140.6,205.9,1140.3,206,1140,206L1140,206z M1156,218 c-0.2,0-0.4,0-0.601-0.1l-12-4c-1-0.3-1.6-1.5-1.3-2.5s1.5-1.6,2.5-1.3l12,4c1,0.3,1.6,1.5,1.3,2.5 C1157.6,217.5,1156.8,218,1156,218z M1364,330c-1.101,0-2-0.9-2-2c0-13.1,8.699-17.6,9.1-17.8c1-0.5,2.2-0.101,2.7,0.899 s0.1,2.2-0.9,2.7c-0.3,0.2-6.9,3.7-6.9,14.2C1365.999,329.1,1365.1,330,1364,330L1364,330z M1371.5,329.5c-1.101,0-2-0.9-2-2 c0-8.5,5.3-9.9,5.5-9.9c1.1-0.3,2.199,0.4,2.399,1.5c0.3,1.101-0.399,2.101-1.399,2.4c-0.2,0.1-2.5,1-2.5,6.1 C1373.5,328.6,1372.6,329.5,1371.5,329.5z"/><circle cx="2000" cy="204" r="3" fill="#89B1ED"/><circle cx="1991.9" cy="204" r="3" fill="#89B1ED"/><circle cx="1983.8" cy="204" r="3" fill="#89B1ED"/></g><g><path fill="#231931" d="M1256.1,185.8c-1-0.3-2-0.4-3.1-0.4c-7.801,0-15.7,8-18.9,19.1c-3.7,12.9,0.1,25,8.8,27.5 c1,0.3,2,0.4,3.101,0.4c7.8,0,15.699-8,18.899-19.1C1268.6,200.4,1264.699,188.3,1256.1,185.8z"/><circle cx="1271.6" cy="229.5" r="40" fill="#89B1ED"/><circle cx="1230" cy="226.2" r="6" fill="#89B1ED"/><circle cx="1306.9" cy="248.2" r="6" fill="#89B1ED"/><circle cx="1261.9" cy="224.4" r="3" fill="#231931"/><circle cx="1285" cy="231" r="3" fill="#231931"/><path fill="#231931" d="M1266.8,244.5c-0.101,0-0.3,0-0.4-0.1l-3.8-1.101c-0.5-0.1-0.8-0.5-1-0.899c-0.2-0.5-0.1-1,0.2-1.4 l7.199-10.4c0.5-0.7,1.4-0.9,2.101-0.4c0.699,0.5,0.899,1.4,0.399,2.1l-6,8.7l1.801,0.5c0.8,0.2,1.3,1.1,1,1.9 C1267.999,244.1,1267.4,244.5,1266.8,244.5L1266.8,244.5z"/><g><path fill="#3864A1" d="M1257.5,218.4c1.1,0,2.399,0.2,3.6,0.6c4.2,1.2,7.3,3.7,6,8c-1,3.5-4.2,5.8-7.7,5.8 c-0.7,0-1.5-0.1-2.2-0.3c-4.199-1.2-6.699-5.6-5.5-9.9C1252.699,219.6,1254.8,218.4,1257.5,218.4 M1257.5,216.4 c-3.9,0-6.601,2-7.601,5.6c-0.7,2.6-0.399,5.3,0.9,7.6c1.3,2.3,3.399,4,6,4.8c0.899,0.3,1.8,0.4,2.8,0.4c4.4,0,8.4-3,9.6-7.2 c1.4-4.8-1.399-8.7-7.399-10.4C1260.199,216.7,1258.8,216.4,1257.5,216.4z"/><path fill="#3864A1" d="M1231.6,221.4c-0.5,0-0.9-0.3-1-0.8s0.3-1.1,0.8-1.1l21.8-3.6c0.5-0.1,1.101,0.3,1.101,0.8 c0.1,0.5-0.3,1.1-0.8,1.1l-21.801,3.6H1231.6z M1275.6,226.4c-0.4,0-0.7-0.2-0.9-0.5c-0.3-0.5-1.199-1.2-2.6-1.6 c-1.4-0.4-2.6-0.3-3.1,0.1c-0.4,0.3-1.101,0.2-1.4-0.2c-0.3-0.4-0.2-1.1,0.2-1.4c1-0.8,2.899-0.9,4.8-0.4c1.8,0.5,3.2,1.5,3.8,2.6 c0.3,0.5,0.101,1.1-0.399,1.3C1275.9,226.3,1275.699,226.4,1275.6,226.4z"/><path fill="#3864A1" d="M1261.4,218c-6.399-1.8-9.8-2-10.399,0.1l-1.9-0.6l2.9,0.8l1.199-0.7"/><path fill="#3864A1" d="M1252.1,219.5l-0.4-0.1l-2.899-0.8l0.6-1.9l1.1,0.3c1.601-2.3,6.301-1.3,11.2,0.1c0.5,0.2,0.8,0.7,0.7,1.2 c-0.2,0.5-0.7,0.8-1.2,0.7c-3.4-1-5.6-1.3-7-1.4c0.1,0.4-0.1,0.8-0.5,1L1252.1,219.5L1252.1,219.5z M1280.6,225.1 c1.1,0,2.4,0.2,3.6,0.6c4.2,1.2,7.301,3.7,6,8c-1,3.5-4.199,5.8-7.699,5.8c-0.7,0-1.5-0.1-2.2-0.3c-4.2-1.2-6.7-5.6-5.5-9.9 C1275.699,226.2,1277.9,225.1,1280.6,225.1 M1280.6,223.1c-3.9,0-6.6,2-7.6,5.6c-0.7,2.6-0.4,5.3,0.899,7.6c1.3,2.3,3.4,4,6,4.8 c0.9,0.301,1.8,0.4,2.8,0.4c4.4,0,8.4-3,9.601-7.2c1.399-4.8-1.4-8.7-7.4-10.4C1283.3,223.3,1281.9,223.1,1280.6,223.1z"/><path fill="#3864A1" d="M1308.5,243.5c-0.2,0-0.5-0.1-0.7-0.2l-16.601-14.6c-0.399-0.4-0.5-1-0.1-1.4c0.4-0.4,1-0.5,1.4-0.1 l16.6,14.6c0.4,0.4,0.5,1,0.1,1.4C1309.1,243.4,1308.8,243.5,1308.5,243.5L1308.5,243.5z"/><g><path fill="#3864A1" d="M1284.5,224.7c6.399,1.8,9.399,3.5,8.8,5.6l1.899,0.6l-2.899-0.8l-0.7-1.2"/><path fill="#3864A1" d="M1294.9,231.8l-3.3-0.9l-0.9-1.6c-0.199-0.4-0.199-0.8,0.101-1.1c-1.2-0.7-3.2-1.6-6.601-2.5 c-0.5-0.2-0.8-0.7-0.699-1.2c0.199-0.5,0.699-0.8,1.199-0.7c4.9,1.4,9.4,3.1,9.601,5.9l1.1,0.3L1294.9,231.8L1294.9,231.8z"/></g></g><path fill="#231931" d="M1329.199,202.8c-0.6-0.5-1.3-0.7-2.1-0.4c-1.6,0.6-3.2,0.9-4.7,0.9c-5.5,0-8.2-4.3-8.3-4.5 c-8.3-12.6-19.4-19-32.9-19c-8.6,0-16.1,2.6-20.5,4.6l2-7.1c0.301-1.1-0.3-2.2-1.399-2.5c-1.101-0.3-2.2,0.3-2.5,1.4l-2,6.9 l-3.101-5.7c-0.5-1-1.8-1.3-2.699-0.8c-1,0.5-1.301,1.8-0.801,2.7l5.5,9.9c0,0.1,0.101,0.2,0.2,0.2c-0.4,0-0.8,0-1.1,0.1 c-10.5,1.1-14,6.1-15.2,10.2l-0.6,1.9l-1.9-0.6c-0.2-0.1-0.4-0.1-0.6-0.1c-0.9,0-1.7,0.6-1.9,1.4l-5,17.3c-0.2,0.7,0,1.4,0.4,1.9 c0.399,0.4,0.899,0.7,1.5,0.7h0.399l4.4-0.8c0.7-0.1,1.3-0.7,1.6-1.4l2.2-7.7c1.3-4.4,5.7-7.7,12.6-9.3 c7.301-1.7,16.2-1.2,25.101,1.4c2.5,0.7,4.8,1.6,7.1,2.5l12.6,7.5c6.301,5.3,9.601,11.4,8.101,16.6l-2.2,7.7 c-0.3,0.9,0.1,1.8,0.9,2.3l3.6,2.1c0.3,0.2,0.7,0.301,1,0.301s0.5,0,0.7-0.101c0.6-0.2,1-0.7,1.199-1.3l5.801-20.1l7-0.3 c0.699,0,1.3-0.4,1.699-1c0.4-0.6,0.301-1.3,0-1.9l-1.8-3.2l3.2-1.8c0.5-0.3,0.8-0.7,1-1.2l2.2-7.7 C1329.9,204.1,1329.699,203.4,1329.199,202.8L1329.199,202.8z M1264,254.1c-0.301,0-0.601-0.1-0.9-0.3c-0.6-0.399-4.2-1.399-7.1-2 c-0.801-0.2-1.301-1-1.2-1.8c0.2-0.8,1-1.3,1.8-1.2c2,0.4,6.9,1.5,8.3,2.5c0.7,0.5,0.8,1.4,0.4,2.101 C1264.9,253.9,1264.5,254.1,1264,254.1L1264,254.1z"/><path fill="#231931" d="M1264.8,216.5c-1.8,0-4.3-0.5-6.9-2.8c-0.6-0.5-0.7-1.5-0.1-2.1c0.5-0.6,1.5-0.7,2.1-0.1 c3.2,2.8,6.101,1.9,6.2,1.9c0.8-0.2,1.6,0.2,1.9,1c0.3,0.8-0.2,1.6-0.9,1.9C1266.9,216.3,1266.1,216.5,1264.8,216.5L1264.8,216.5z"/><path fill="#89B1ED" d="M1256,263h16v20h-16V263z"/><circle cx="1264" cy="283" r="8" fill="#89B1ED"/></g><g><path fill="#FFF" d="M1112,172c-20,0-24,12-44,12s-36,12-36,12c-24.301,0-64-24-64-72c0-24.3,39.699-16,64-16c0,0,112-16,112,32 C1144,157.7,1129.699,172,1112,172c-17.7,0-32-14.3-32-32"/><circle cx="1016" cy="124" r="48" fill="#FFF"/><circle cx="1114" cy="142" r="30" fill="#FFF"/><circle cx="1128" cy="124" r="48" fill="#FFF"/><path fill="#FFF" d="M1016,76h112v96h-112V76z"/><circle cx="1496" cy="160" r="24" fill="#FFF"/><circle cx="1472" cy="136" r="24" fill="#FFF"/><circle cx="1472" cy="112" r="24" fill="#FFF"/><path fill="#FFF" d="M1496,128h76v56h-76V128z"/><path fill="#FFF" stroke="#FFF" stroke-linecap="round" stroke-linejoin="round" stroke-miterlimit="10" stroke-width="4" d="M1536.4,180.9l-16,0.9c0,0,0.2,1.1,0.5,3c0.3,1.9,0.601,4.7,0.9,8c0.5,6.6,0.5,15.6-1.3,24.3c-0.9,4.3-2.301,8.6-4.101,12.3 c-1.8,3.8-4.1,7-6.399,9.5c-0.601,0.6-1.2,1.2-1.7,1.8c-0.601,0.5-1.101,1-1.7,1.5c-1,1-2.1,1.6-2.9,2.2c-0.8,0.6-1.5,1-2,1.3 S1501,246.1,1501,246.1s0.3-0.1,0.8-0.3s1.3-0.399,2.2-0.899c0.899-0.4,2.1-0.9,3.399-1.601c0.601-0.399,1.3-0.7,2-1.1l2.101-1.5 c3-2.1,6.1-5,9-8.7c2.899-3.6,5.399-8,7.399-12.5c4.101-9.1,6.2-18.9,7.2-26.3c0.5-3.7,0.8-6.8,0.9-9 C1536.1,182,1536.4,180.9,1536.4,180.9L1536.4,180.9z M1047.8,182.8l-16-0.9c0,0,0.1,1.3,0.1,3.7s0,5.8-0.1,9.8 c-0.3,8.1-1.2,19-3.7,29.6c-1.3,5.3-2.9,10.5-5,15.1c-2,4.7-4.5,8.8-7,12l-0.9,1.2c-0.3,0.4-0.699,0.7-1,1.101 c-0.6,0.699-1.199,1.399-1.8,2c-1.2,1.1-2.3,2.199-3.3,2.899s-1.7,1.3-2.3,1.7c-0.601,0.3-0.9,0.5-0.9,0.5s0.3-0.1,0.9-0.4 c0.6-0.3,1.5-0.699,2.6-1.3c1.101-0.5,2.4-1.399,3.9-2.3c0.7-0.5,1.399-1.1,2.2-1.7l1.199-0.899c0.4-0.301,0.801-0.7,1.2-1.101 c3.2-2.899,6.601-6.7,9.601-11.3c3-4.5,5.8-9.7,8.1-15c4.7-10.7,7.7-22,9.5-30.5c0.9-4.3,1.6-7.9,2-10.4 C1047.6,184.3,1047.8,182.8,1047.8,182.8L1047.8,182.8z"/><path fill="#FFF" stroke="#FFF" stroke-linecap="round" stroke-linejoin="round" stroke-miterlimit="10" stroke-width="2" d="M1556.1,180.4l-8,0.2c0,0,0.1,1.4,0.3,3.9s0.5,6.1,1.101,10.3c1.1,8.5,3.1,19.8,6.6,30.7c1.8,5.4,3.9,10.8,6.5,15.5 c2.5,4.7,5.4,8.9,8.3,12c2.9,3.2,5.7,5.3,7.8,6.7c1,0.7,1.9,1.1,2.5,1.399c0.601,0.301,0.9,0.5,0.9,0.5s-0.3-0.199-0.9-0.5 c-0.6-0.399-1.399-0.899-2.3-1.6c-1.899-1.5-4.5-3.9-7.1-7.2c-2.5-3.3-5-7.5-7-12.3s-3.601-10.1-4.9-15.5 c-2.5-10.8-3.399-21.9-3.7-30.2c-0.199-4.1-0.199-7.6-0.199-10C1556.1,181.8,1556.1,180.4,1556.1,180.4L1556.1,180.4z"/><path fill="#FFF" d="M1448,112h20v24h-20V112z"/><circle cx="1572" cy="160" r="24" fill="#FFF"/><circle cx="1596" cy="136" r="24" fill="#FFF"/><circle cx="1596" cy="112" r="24" fill="#FFF"/><path fill="#FFF" d="M1600,112h20v24h-20V112z M1472,88h124v60h-124V88z"/></g><g><circle cx="1496" cy="-1244" r="24" fill="#FFF"/><circle cx="1472" cy="-1268" r="24" fill="#FFF"/><circle cx="1472" cy="-1292" r="24" fill="#FFF"/><path fill="#FFF" d="M1496-1276h76v56h-76V-1276z M1448-1292h20v24h-20V-1292z"/><circle cx="1572" cy="-1244" r="24" fill="#FFF"/><path fill="#FFF" d="M1576-1168c0,4.4-15.601,8-20,8c-4.4,0-8-3.6-8-8s3.6-8,8-8C1560.4-1176,1576-1172.4,1576-1168z"/><path fill="#FFF" d="M1556-1176h20v16h-20V-1176z"/><path fill="#FFF" d="M1556-1168c0,4.4,15.6,8,20,8c4.399,0,8-3.6,8-8s-3.601-8-8-8C1571.6-1176,1556-1172.4,1556-1168z"/><circle cx="1596" cy="-1268" r="24" fill="#FFF"/><circle cx="1596" cy="-1292" r="24" fill="#FFF"/><path fill="#FFF" d="M1600-1292h20v24h-20V-1292z M1472-1316h124v60h-124V-1316z M1548-1200h8v32h-8V-1200z"/><circle cx="1548" cy="-1184" r="16" fill="#FFF"/><circle cx="1556" cy="-1184" r="16" fill="#FFF"/><path fill="#FFF" d="M1532-1216h8v32h-8V-1216z"/><circle cx="1532" cy="-1204" r="20" fill="#FFF"/><circle cx="1512" cy="-1224" r="20" fill="#FFF"/><circle cx="1560" cy="-1224" r="20" fill="#FFF"/><circle cx="1552" cy="-1204" r="20" fill="#FFF"/></g><g><g><path fill="#F9D8CC" d="M1054,128c0-3.3-2.7-6-6-6c-3.301,0-6,2.7-6,6s2.699,6,6,6C1051.3,134,1054,131.3,1054,128z"/><path fill="#F9D8CC" d="M1065.8,159.1l-7.8-15.6c-0.301-5.3-4.601-9.5-10-9.5c-3.2,0-6.101,1.6-7.9,4l-15.6-3.9 c-1.101-0.3-2.2,0.4-2.4,1.5c-0.3,1.1,0.4,2.2,1.5,2.4l14.8,3.7c-0.2,0.8-0.3,1.5-0.3,2.4c0,0.2,0,0.3,0.1,0.5 c0,0.2-0.1,0.3-0.1,0.5v20c0,1.1,0.9,2,2,2h2v10c0,1.1,0.9,2,2,2s2-0.9,2-2v-10h4v10c0,1.1,0.9,2,2,2s2-0.9,2-2v-10h2 c1.1,0,2-0.9,2-2v-12.5l4.2,8.4c0.399,0.7,1.1,1.1,1.8,1.1c0.3,0,0.6-0.1,0.9-0.2C1065.9,161.3,1066.3,160.1,1065.8,159.1z"/></g><path fill="#FF593E" d="M1035,106h-10v-1c0-1.1-0.9-2-2-2c-1.101,0-2,0.9-2,2v1h-10c-1.101,0-2,0.9-2,2v16c0,1.1,0.899,2,2,2h10v19 c0,1.1,0.899,2,2,2c1.1,0,2-0.9,2-2v-19h10c1.1,0,2-0.9,2-2v-16C1037,106.9,1036.1,106,1035,106z"/><g><path fill="#F9D8CC" d="M1106,116c0-3.3-2.7-6-6-6c-3.301,0-6,2.7-6,6s2.699,6,6,6C1103.3,122,1106,119.3,1106,116z"/><path fill="#F9D8CC" d="M1121.699,118.9c-0.6-0.9-1.899-1.2-2.8-0.6l-11.1,7.4c-1.801-2.3-4.601-3.7-7.801-3.7s-6,1.5-7.8,3.7 l-11.1-7.4c-0.9-0.6-2.2-0.4-2.801,0.6c-0.6,0.9-0.399,2.2,0.601,2.8l11.5,7.7c-0.2,0.9-0.4,1.8-0.4,2.7c0,0.2,0,0.3,0.101,0.5 c0,0.2-0.101,0.3-0.101,0.5v20c0,1.1,0.9,2,2,2h2v10c0,1.1,0.9,2,2,2c1.101,0,2-0.9,2-2v-10h4v10c0,1.1,0.9,2,2,2 c1.101,0,2-0.9,2-2v-10h2c1.101,0,2-0.9,2-2v-20c0-0.2,0-0.3-0.1-0.5c0-0.2,0.1-0.3,0.1-0.5c0-0.9-0.1-1.8-0.399-2.7l11.5-7.7 C1121.999,121.1,1122.299,119.8,1121.699,118.9L1121.699,118.9z"/></g><path fill="#FF593E" d="M1089.3,103.7l-4.9-15.2c-0.2-0.5-0.5-0.9-1-1.2c-0.5-0.2-1-0.3-1.5-0.1l-9.5,3.1l-0.6-1.9 c-0.3-1-1.5-1.6-2.5-1.3c-1.101,0.3-1.601,1.5-1.3,2.5l0.6,1.9l-9.5,3.1c-1.1,0.3-1.6,1.5-1.3,2.5l4.899,15.2 c0.2,0.5,0.5,0.9,1,1.2c0.301,0.1,0.601,0.2,0.9,0.2c0.2,0,0.4,0,0.6-0.1l9.5-3.1l5.601,17.1c0.3,0.8,1.1,1.4,1.899,1.4 c0.2,0,0.4,0,0.601-0.1c1.1-0.3,1.6-1.5,1.3-2.5l-5.6-17.1l9.5-3.1C1089.1,105.9,1089.699,104.7,1089.3,103.7L1089.3,103.7z"/><circle cx="1508" cy="127" r="16" fill="none" stroke="#FF593E" stroke-miterlimit="10" stroke-width="6"/><circle cx="1552.1" cy="136" r="16" fill="none" stroke="#AF7075" stroke-miterlimit="10" stroke-width="6"/><path fill="none" stroke="#FF593E" stroke-linecap="round" stroke-miterlimit="10" stroke-width="6" d="M1508.1,160v-16 M1500.1,152h16"/><path fill="none" stroke="#AF7075" stroke-linecap="round" stroke-linejoin="round" stroke-miterlimit="10" stroke-width="6" d="M1574.9,114.4l-8.5,8.5 M1566.4,111.5h11.3v11.4"/></g></svg>