<svg xmlns="http://www.w3.org/2000/svg" width="60" height="41" viewBox="0 0 60 41"><g fill="none"><path fill="#FFF" d="M12.8033898,20.127126 C12.8033898,23.7970385 13.8164139,27.1258224 15.8424621,30.1134777 L14.3202498,31.6437139 C12.8340767,30.2171435 11.6685103,28.5183158 10.8235504,26.547231 C9.97859053,24.5761461 9.55700269,22.4361111 9.5587868,20.127126 C9.5587868,17.8837839 9.98037468,15.7781846 10.8235504,13.8103281 C11.6481555,11.8699511 12.8351431,10.1064772 14.3202498,8.61538058 L15.8429973,10.1456168 C13.8165923,13.1282502 12.8033898,16.4554199 12.8033898,20.127126 Z" opacity=".95"/><path fill="#FCFCFC" d="M4.05173952,20.8298294 C4.05173952,24.0915354 4.55914362,27.1482415 5.57395183,29.9999475 C6.5716375,32.8251798 8.00856198,35.4735487 9.83122212,37.8464436 L8.61248885,39.071601 C5.97520073,36.8953368 3.8808207,34.2454024 2.3293488,31.1217979 C0.777876894,27.9981934 0.00142729706,24.5675372 0,20.8298294 C0,17.1599169 0.7764496,13.7466579 2.3293488,10.5900525 C3.88224799,7.43344705 5.97662799,4.76629484 8.61248885,2.5885958 L9.83122212,3.91167979 C8.00855443,6.28456969 6.57162926,8.93293989 5.57395183,11.7581759 C4.5559322,14.6116754 4.0485281,17.6355599 4.05173952,20.8298294 Z" opacity=".7"/><path fill="#FFF" d="M39.5636039,0 C28.3027654,0 19.1743087,9.1765748 19.1743087,20.4967717 C19.1743087,31.8169685 28.3027654,40.9935433 39.5636039,40.9935433 C50.8244425,40.9935433 59.9528992,31.8169685 59.9528992,20.4967717 C59.9528992,9.1765748 50.8244425,0 39.5636039,0"/><path fill="#000" d="M43.1710972,5.06312336 C45.8124888,5.4865748 49.1743087,7.30682415 50.3748439,8.59870079 L50.3748439,14.4839764 L49.643711,14.4839764 L43.1710972,5.72116798 L43.1710972,5.06312336 Z M40.7694915,5.4343832 L40.7052632,5.4343832 C36.079215,5.4343832 33.5657449,11.8738583 33.5657449,20.5608005 L33.5657449,20.5920079 C33.5657449,29.2789501 36.0813559,35.7184252 40.7052632,35.7184252 L40.7694915,35.7184252 L40.7694915,36.387769 C33.8055308,36.8666404 24.4404996,31.532336 24.6802855,20.5925459 L24.6802855,20.5613386 C24.4404996,9.6210105 33.806066,4.28670604 40.7694915,4.76503937 L40.7694915,5.4343832 Z M52.5361285,21.9237008 L50.3748439,22.8771391 L50.3748439,32.7112205 C49.1743087,33.8535171 46.0522748,35.6350262 43.1710972,36.2467979 L43.1710972,22.6629921 L40.7700268,21.8623622 L40.7700268,21.2430577 L52.5361285,21.2430577 L52.5361285,21.9237008 Z"/></g></svg>