<svg xmlns="http://www.w3.org/2000/svg" xmlns:xlink="http://www.w3.org/1999/xlink" id="Layer_1" x="0" y="0" version="1.1" viewBox="0 0 311.3 564.1" xml:space="preserve" style="enable-background:new 0 0 311.3 564.1"><style type="text/css">.st0{fill:#0084c6}.st1{fill:#c70000}.st2{fill:#121212}</style><g><polygon points="175.7 433.1 169.1 426.4 182.4 413.1 169.1 399.7 175.7 393.1 195.7 413.1" class="st0"/></g><g><polygon points="162.4 433.1 155.7 426.4 169.1 413.1 155.7 399.7 162.4 393.1 182.4 413.1" class="st1"/></g><g><polygon points="56.3 118.7 52.1 114.5 60.4 106.1 52.1 97.8 56.3 93.7 68.8 106.1" class="st0"/></g><g><polygon points="47.9 118.7 43.8 114.5 52.1 106.1 43.8 97.8 47.9 93.7 60.4 106.1" class="st1"/></g><g><g><g><g><rect width="3.4" height=".9" x="266.4" y="229.1" class="st2" transform="matrix(0.7071 -0.7071 0.7071 0.7071 -83.8135 256.8172)"/></g><g><polygon points="262.7 235.6 260 232.9 260.6 232.2 262.7 234.3 264.8 232.2 265.5 232.9" class="st2"/></g><g><path d="M258.8,231.7l-5.3-5.3l0.7-0.7l5.3,5.3L258.8,231.7z M252.4,225.3l-5.3-5.3l0.7-0.7l5.3,5.3L252.4,225.3z" class="st2"/></g><g><polygon points="245.9 218.8 243.2 216.1 245.9 213.3 246.6 214 244.5 216.1 246.6 218.2" class="st2"/></g><g><path d="M247.8,212.8l-0.7-0.7l5.3-5.3l0.7,0.7L247.8,212.8z M254.2,206.4l-0.7-0.7l5.3-5.3l0.7,0.7L254.2,206.4z" class="st2"/></g><g><polygon points="264.8 199.9 262.7 197.8 260.6 199.9 260 199.3 262.7 196.5 265.5 199.3" class="st2"/></g><g><rect width=".9" height="3.4" x="267.6" y="200.9" class="st2" transform="matrix(0.7071 -0.7071 0.7071 0.7071 -64.7061 248.9163)"/></g></g></g><g><g><g><polygon points="278 199.9 275.9 197.8 273.8 199.9 273.1 199.3 275.9 196.5 278.6 199.3" class="st2"/></g><g><polygon points="280.4 206.5 279.8 205.9 281.8 203.8 279.8 201.7 280.4 201 283.2 203.8" class="st2"/></g><g><rect width="7.3" height=".9" x="272.7" y="209.4" class="st2" transform="matrix(0.7071 -0.7071 0.7071 0.7071 -67.4939 256.8792)"/></g><g><polygon points="272.3 218.8 269.5 216.1 272.3 213.3 272.9 214 270.8 216.1 272.9 218.2" class="st2"/></g><g><rect width=".9" height="7.3" x="275.9" y="218.6" class="st2" transform="matrix(0.7071 -0.7071 0.7071 0.7071 -76.2056 260.5063)"/></g><g><polygon points="280.4 231.1 279.8 230.5 281.8 228.4 279.8 226.3 280.4 225.6 283.2 228.4" class="st2"/></g><g><polygon points="275.9 235.6 273.1 232.9 273.8 232.2 275.9 234.3 278 232.2 278.6 232.9" class="st2"/></g><g><path d="M272,231.7l-5.3-5.3l0.7-0.7l5.3,5.3L272,231.7z M265.5,225.3l-5.3-5.3l0.7-0.7l5.3,5.3L265.5,225.3z" class="st2"/></g><g><polygon points="259.1 218.8 256.4 216.1 259.1 213.3 259.7 214 257.7 216.1 259.7 218.2" class="st2"/></g><g><path d="M260.9,212.8l-0.7-0.7l5.3-5.3l0.7,0.7L260.9,212.8z M267.4,206.4l-0.7-0.7l5.3-5.3l0.7,0.7L267.4,206.4z" class="st2"/></g></g></g></g><g><g><g><g><rect width="2.1" height=".6" x="86.1" y="527.6" class="st2" transform="matrix(0.7071 -0.7071 0.7071 0.7071 -347.7078 216.2705)"/></g><g><polygon points="83.9 531.6 82.1 529.9 82.5 529.5 83.9 530.8 85.2 529.5 85.6 529.9" class="st2"/></g><g><path d="M81.4,529.2l-3.3-3.3l0.4-0.4l3.3,3.3L81.4,529.2z M77.4,525.2l-3.3-3.3l0.4-0.4l3.3,3.3L77.4,525.2z" class="st2"/></g><g><polygon points="73.3 521.1 71.6 519.4 73.3 517.7 73.8 518.1 72.5 519.4 73.8 520.7" class="st2"/></g><g><path d="M74.5,517.4l-0.4-0.4l3.3-3.3l0.4,0.4L74.5,517.4z M78.5,513.3l-0.4-0.4l3.3-3.3l0.4,0.4L78.5,513.3z" class="st2"/></g><g><polygon points="85.2 509.3 83.9 508 82.5 509.3 82.1 508.9 83.9 507.2 85.6 508.9" class="st2"/></g><g><rect width=".6" height="2.1" x="86.9" y="509.9" class="st2" transform="matrix(0.7071 -0.7071 0.7071 0.7071 -335.7657 211.3324)"/></g></g></g><g><g><g><polygon points="93.4 509.3 92.1 508 90.8 509.3 90.4 508.9 92.1 507.2 93.8 508.9" class="st2"/></g><g><polygon points="94.9 513.4 94.5 513 95.8 511.7 94.5 510.4 94.9 510 96.6 511.7" class="st2"/></g><g><rect width="4.5" height=".6" x="90.1" y="515.3" class="st2" transform="matrix(0.7071 -0.7071 0.7071 0.7071 -337.508 216.3092)"/></g><g><polygon points="89.8 521.1 88.1 519.4 89.8 517.7 90.2 518.1 88.9 519.4 90.2 520.7" class="st2"/></g><g><rect width=".6" height="4.5" x="92.1" y="521" class="st2" transform="matrix(0.7071 -0.7071 0.7071 0.7071 -342.9528 218.5761)"/></g><g><polygon points="94.9 528.8 94.5 528.4 95.8 527.1 94.5 525.8 94.9 525.4 96.6 527.1" class="st2"/></g><g><polygon points="92.1 531.6 90.4 529.9 90.8 529.5 92.1 530.8 93.4 529.5 93.8 529.9" class="st2"/></g><g><path d="M89.6,529.2l-3.3-3.3l0.4-0.4l3.3,3.3L89.6,529.2z M85.6,525.2l-3.3-3.3l0.4-0.4l3.3,3.3L85.6,525.2z" class="st2"/></g><g><polygon points="81.6 521.1 79.9 519.4 81.6 517.7 82 518.1 80.7 519.4 82 520.7" class="st2"/></g><g><path d="M82.7,517.4l-0.4-0.4l3.3-3.3l0.4,0.4L82.7,517.4z M86.8,513.3l-0.4-0.4l3.3-3.3l0.4,0.4L86.8,513.3z" class="st2"/></g></g></g></g><g><g><g><g><rect width="2.1" height=".6" x="203.2" y="60.6" class="st2" transform="matrix(0.7071 -0.7071 0.7071 0.7071 16.7843 162.2321)"/></g><g><polygon points="200.9 64.6 199.1 62.9 199.5 62.5 200.9 63.8 202.2 62.5 202.6 62.9" class="st2"/></g><g><path d="M198.4,62.2l-3.3-3.3l0.4-0.4l3.3,3.3L198.4,62.2z M194.4,58.2l-3.3-3.3l0.4-0.4l3.3,3.3L194.4,58.2z" class="st2"/></g><g><polygon points="190.4 54.1 188.6 52.4 190.4 50.7 190.8 51.1 189.5 52.4 190.8 53.7" class="st2"/></g><g><path d="M191.5,50.4l-0.4-0.4l3.3-3.3l0.4,0.4L191.5,50.4z M195.5,46.3l-0.4-0.4l3.3-3.3l0.4,0.4L195.5,46.3z" class="st2"/></g><g><polygon points="202.2 42.3 200.9 41 199.5 42.3 199.1 41.9 200.9 40.2 202.6 41.9" class="st2"/></g><g><rect width=".6" height="2.1" x="203.9" y="42.9" class="st2" transform="matrix(0.7071 -0.7071 0.7071 0.7071 28.7264 157.2941)"/></g></g></g><g><g><g><polygon points="210.4 42.3 209.1 41 207.8 42.3 207.4 41.9 209.1 40.2 210.8 41.9" class="st2"/></g><g><polygon points="211.9 46.4 211.5 46 212.8 44.7 211.5 43.4 211.9 43 213.6 44.7" class="st2"/></g><g><rect width="4.5" height=".6" x="207.1" y="48.3" class="st2" transform="matrix(0.7071 -0.7071 0.7071 0.7071 26.9841 162.2709)"/></g><g><polygon points="206.8 54.1 205.1 52.4 206.8 50.7 207.2 51.1 205.9 52.4 207.2 53.7" class="st2"/></g><g><rect width=".6" height="4.5" x="209.1" y="54" class="st2" transform="matrix(0.7071 -0.7071 0.7071 0.7071 21.5392 164.5378)"/></g><g><polygon points="211.9 61.8 211.5 61.4 212.8 60.1 211.5 58.8 211.9 58.4 213.6 60.1" class="st2"/></g><g><polygon points="209.1 64.6 207.4 62.9 207.8 62.5 209.1 63.8 210.4 62.5 210.8 62.9" class="st2"/></g><g><path d="M206.6,62.2l-3.3-3.3l0.4-0.4l3.3,3.3L206.6,62.2z M202.6,58.2l-3.3-3.3l0.4-0.4l3.3,3.3L202.6,58.2z" class="st2"/></g><g><polygon points="198.6 54.1 196.9 52.4 198.6 50.7 199 51.1 197.7 52.4 199 53.7" class="st2"/></g><g><path d="M199.7,50.4l-0.4-0.4l3.3-3.3l0.4,0.4L199.7,50.4z M203.8,46.3l-0.4-0.4l3.3-3.3l0.4,0.4L203.8,46.3z" class="st2"/></g></g></g></g></svg>