<?xml version="1.0" encoding="utf-8"?>
<!-- Generator: Adobe Illustrator 20.1.0, SVG Export Plug-In . SVG Version: 6.00 Build 0)  -->
<svg version="1.1" id="Layer_1" xmlns="http://www.w3.org/2000/svg" xmlns:xlink="http://www.w3.org/1999/xlink" x="0px" y="0px"
	 viewBox="0 0 171.1 127.3" style="enable-background:new 0 0 171.1 127.3;" xml:space="preserve">
<style type="text/css">
	.st0{fill:#0084C6;}
	.st1{fill:#C70000;}
	.st2{fill:#121212;}
</style>
<g>
	<polygon class="st0" points="63.6,127.3 42.4,106.1 84.9,63.6 42.4,21.2 63.6,0 127.3,63.6 	"/>
</g>
<g>
	<polygon class="st1" points="21.2,127.3 0,106.1 42.4,63.6 0,21.2 21.2,0 84.9,63.6 	"/>
</g>
<g>
	<g>
		<g>
			
				<rect x="117.2" y="105.6" transform="matrix(0.7071 -0.7071 0.7071 0.7071 -39.801 118.1082)" class="st2" width="11" height="3"/>
		</g>
		<g>
			<polygon class="st2" points="105.4,126.6 96.5,117.7 98.6,115.6 105.4,122.3 112.1,115.6 114.2,117.7 			"/>
		</g>
		<g>
			<path class="st2" d="M92.7,113.9L75.8,97l2.1-2.1l16.9,16.9L92.7,113.9z M72,93.2L55.1,76.3l2.1-2.1l16.9,16.9L72,93.2z"/>
		</g>
		<g>
			<polygon class="st2" points="51.3,72.5 42.4,63.6 51.3,54.8 53.4,56.9 46.7,63.6 53.4,70.4 			"/>
		</g>
		<g>
			<path class="st2" d="M57.2,53.1L55.1,51L72,34.1l2.1,2.1L57.2,53.1z M77.9,32.4l-2.1-2.1l16.9-16.9l2.1,2.1L77.9,32.4z"/>
		</g>
		<g>
			<polygon class="st2" points="112.1,11.7 105.4,5 98.6,11.7 96.5,9.6 105.4,0.7 114.2,9.6 			"/>
		</g>
		<g>
			<rect x="121.2" y="14.7" transform="matrix(0.7071 -0.7071 0.7071 0.7071 21.677 92.687)" class="st2" width="3" height="11"/>
		</g>
	</g>
</g>
<g>
	<g>
		<g>
			<polygon class="st2" points="154.5,11.7 147.8,5 141.1,11.7 138.9,9.6 147.8,0.7 156.6,9.6 			"/>
		</g>
		<g>
			<polygon class="st2" points="162.3,32.9 160.2,30.8 166.9,24 160.2,17.3 162.3,15.2 171.1,24 			"/>
		</g>
		<g>
			
				<rect x="137.5" y="42.3" transform="matrix(0.7071 -0.7071 0.7071 0.7071 12.7075 118.3077)" class="st2" width="23.4" height="3"/>
		</g>
		<g>
			<polygon class="st2" points="136.1,72.5 127.3,63.6 136.1,54.8 138.2,56.9 131.5,63.6 138.2,70.4 			"/>
		</g>
		<g>
			
				<rect x="147.7" y="71.8" transform="matrix(0.7071 -0.7071 0.7071 0.7071 -15.3225 129.9777)" class="st2" width="3" height="23.4"/>
		</g>
		<g>
			<polygon class="st2" points="162.3,112.1 160.2,110 166.9,103.2 160.2,96.5 162.3,94.4 171.1,103.2 			"/>
		</g>
		<g>
			<polygon class="st2" points="147.8,126.6 138.9,117.7 141.1,115.6 147.8,122.3 154.5,115.6 156.6,117.7 			"/>
		</g>
		<g>
			<path class="st2" d="M135.1,113.9L118.2,97l2.1-2.1l16.9,16.9L135.1,113.9z M114.4,93.2L97.5,76.3l2.1-2.1l16.9,16.9L114.4,93.2z
				"/>
		</g>
		<g>
			<polygon class="st2" points="93.7,72.5 84.9,63.6 93.7,54.8 95.8,56.9 89.1,63.6 95.8,70.4 			"/>
		</g>
		<g>
			<path class="st2" d="M99.6,53.1L97.5,51l16.9-16.9l2.1,2.1L99.6,53.1z M120.4,32.4l-2.1-2.1l16.9-16.9l2.1,2.1L120.4,32.4z"/>
		</g>
	</g>
</g>
</svg>
