<svg xmlns="http://www.w3.org/2000/svg" xmlns:xlink="http://www.w3.org/1999/xlink" id="Layer_1" x="0" y="0" version="1.1" viewBox="0 0 128.7 125.9" xml:space="preserve" style="enable-background:new 0 0 128.7 125.9"><style type="text/css">.st0{fill:#121212}</style><g><g><g><rect width="11" height="3" x="74.8" y="104.9" class="st0" transform="matrix(0.7071 -0.7071 0.7071 0.7071 -51.7247 87.9218)"/></g><g><polygon points="63 125.9 54.1 117 56.2 114.9 63 121.6 69.7 114.9 71.8 117" class="st0"/></g><g><path d="M50.3,113.2L33.4,96.3l2.1-2.1l16.9,16.9L50.3,113.2z M29.6,92.5L12.7,75.6l2.1-2.1l16.9,16.9L29.6,92.5z" class="st0"/></g><g><polygon points="8.9 71.8 0 62.9 8.9 54.1 11 56.2 4.3 62.9 11 69.7" class="st0"/></g><g><path d="M14.8,52.4l-2.1-2.1l16.9-16.9l2.1,2.1L14.8,52.4z M35.5,31.7l-2.1-2.1l16.9-16.9l2.1,2.1L35.5,31.7z" class="st0"/></g><g><polygon points="69.7 11 63 4.3 56.2 11 54.1 8.9 63 0 71.8 8.9" class="st0"/></g><g><rect width="3" height="11" x="78.8" y="14" class="st0" transform="matrix(0.7071 -0.7071 0.7071 0.7071 9.7534 62.5006)"/></g></g></g><g><g><g><polygon points="112.1 11 105.4 4.3 98.7 11 96.5 8.9 105.4 0 114.2 8.9" class="st0"/></g><g><polygon points="119.9 32.2 117.8 30.1 124.5 23.3 117.8 16.6 119.9 14.5 128.7 23.3" class="st0"/></g><g><rect width="23.4" height="3" x="95.1" y="41.6" class="st0" transform="matrix(0.7071 -0.7071 0.7071 0.7071 0.7838 88.1213)"/></g><g><polygon points="93.7 71.8 84.9 62.9 93.7 54.1 95.8 56.2 89.1 62.9 95.8 69.7" class="st0"/></g><g><rect width="3" height="23.4" x="105.3" y="71.1" class="st0" transform="matrix(0.7071 -0.7071 0.7071 0.7071 -27.2462 99.7913)"/></g><g><polygon points="119.9 111.4 117.8 109.3 124.5 102.5 117.8 95.8 119.9 93.7 128.7 102.5" class="st0"/></g><g><polygon points="105.4 125.9 96.5 117 98.7 114.9 105.4 121.6 112.1 114.9 114.2 117" class="st0"/></g><g><path d="M92.7,113.2L75.8,96.3l2.1-2.1l16.9,16.9L92.7,113.2z M72,92.5L55.1,75.6l2.1-2.1l16.9,16.9L72,92.5z" class="st0"/></g><g><polygon points="51.3 71.8 42.5 62.9 51.3 54.1 53.4 56.2 46.7 62.9 53.4 69.7" class="st0"/></g><g><path d="M57.2,52.4l-2.1-2.1L72,33.4l2.1,2.1L57.2,52.4z M78,31.7l-2.1-2.1l16.9-16.9l2.1,2.1L78,31.7z" class="st0"/></g></g></g></svg>