<svg xmlns="http://www.w3.org/2000/svg" xmlns:xlink="http://www.w3.org/1999/xlink" width="5200" height="1080" viewBox="0 0 5200 1080"><path fill="#3A2751" d="M.3 2h5200v1078H.3z"/><path fill="#AFB6E2" d="M1620 718.2l-38.3.2h-26c-36.5 0-66 29.5-66 66v295.8H1632v-362h-12z"/><defs><path id="a" d="M1636 1080.2v-362c0-2.2-1.8-4-4-4h-12l-38.3.2h-26c-38.6 0-70 31.4-70 70v295.8c0 2.2 1.8 4 4 4"/></defs><clipPath id="b"><use xlink:href="#a" overflow="visible"/></clipPath><g clip-path="url(#b)" fill="#9574CA"><path d="M1498.3 730.2c-1.1 0-2-.9-2-2v-8c0-1.1.9-2 2-2H5200c1.1 0 2 .9 2 2v8c0 1.1-.9 2-2 2H1498.3z"/><path d="M5200 720.2v8H1498.3v-8H5200m0-4H1498.3c-2.2 0-4 1.8-4 4v8c0 2.2 1.8 4 4 4H5200c2.2 0 4-1.8 4-4v-8c0-2.2-1.8-4-4-4z"/></g><path fill="#36234D" d="M1644 732h2245.8v348H1644z"/><path fill="#563D89" d="M2836 1090c-1.1 0-2-.9-2-2V752c0-1.1.9-2 2-2h188c1.1 0 2 .9 2 2v336c0 1.1-.9 2-2 2h-188z"/><path fill="#563D89" d="M3024 752v336h-188V752h188m0-4h-188c-2.2 0-4 1.8-4 4v336c0 2.2 1.8 4 4 4h188c2.2 0 4-1.8 4-4V752c0-2.2-1.8-4-4-4z"/><path fill="#7B51BD" d="M2808 1024c0 8.8-7.2 16-16 16h-128c-8.8 0-16-7.2-16-16V836c0-8.8 7.2-16 16-16h128c8.8 0 16 7.2 16 16v188z"/><g fill="#AFB6E2"><path d="M1618 794.2c-1.1 0-2-.9-2-2v-64c0-1.1.9-2 2-2h1186c1.1 0 2 .9 2 2v64c0 1.1-.9 2-2 2H1618z"/><path d="M2804 728.2v64H1618v-64h1186m0-4H1618c-2.2 0-4 1.8-4 4v64c0 2.2 1.8 4 4 4h1186c2.2 0 4-1.8 4-4v-64c0-2.2-1.8-4-4-4z"/></g><g fill="#AFB6E2"><path d="M3268 794c-1.1 0-2-.9-2-2v-64c0-1.1.9-2 2-2h1884c1.1 0 2 .9 2 2v64c0 1.1-.9 2-2 2H3268z"/><path d="M5152 728v64H3268v-64h1884m0-4H3268c-2.2 0-4 1.8-4 4v64c0 2.2 1.8 4 4 4h1884c2.2 0 4-1.8 4-4v-64c0-2.2-1.8-4-4-4z"/></g><path fill="#7B51BD" d="M2624 1024c0 8.8-7.2 16-16 16h-356c-8.8 0-16-7.2-16-16V836c0-8.8 7.2-16 16-16h356c8.8 0 16 7.2 16 16v188zM2212 1024c0 8.8-7.2 16-16 16h-356c-8.8 0-16-7.2-16-16V836c0-8.8 7.2-16 16-16h356c8.8 0 16 7.2 16 16v188zM3836 1024c0 8.8-7.2 16-16 16h-356c-8.8 0-16-7.2-16-16V836c0-8.8 7.2-16 16-16h356c8.8 0 16 7.2 16 16v188zM4248 1024c0 8.8-7.2 16-16 16h-356c-8.8 0-16-7.2-16-16V836c0-8.8 7.2-16 16-16h356c8.8 0 16 7.2 16 16v188zM4660 1024c0 8.8-7.2 16-16 16h-356c-8.8 0-16-7.2-16-16V836c0-8.8 7.2-16 16-16h356c8.8 0 16 7.2 16 16v188zM5072 1024c0 8.8-7.2 16-16 16h-356c-8.8 0-16-7.2-16-16V836c0-8.8 7.2-16 16-16h356c8.8 0 16 7.2 16 16v188z"/><g fill="#7B51BD"><path d="M2884 1054c-1.1 0-2-.9-2-2V776c0-1.1.9-2 2-2h108c1.1 0 2 .9 2 2v276c0 1.1-.9 2-2 2h-108z"/><path d="M2992 776v276h-108V776h108m0-4h-108c-2.2 0-4 1.8-4 4v276c0 2.2 1.8 4 4 4h108c2.2 0 4-1.8 4-4V776c0-2.2-1.8-4-4-4z"/></g><path fill="#563D89" d="M3048 1090c-1.1 0-2-.9-2-2V752c0-1.1.9-2 2-2h188c1.1 0 2 .9 2 2v336c0 1.1-.9 2-2 2h-188z"/><path fill="#563D89" d="M3236 752v336h-188V752h188m0-4h-188c-2.2 0-4 1.8-4 4v336c0 2.2 1.8 4 4 4h188c2.2 0 4-1.8 4-4V752c0-2.2-1.8-4-4-4z"/><g fill="#7B51BD"><path d="M3080 1054c-1.1 0-2-.9-2-2V776c0-1.1.9-2 2-2h108c1.1 0 2 .9 2 2v276c0 1.1-.9 2-2 2h-108z"/><path d="M3188 776v276h-108V776h108m0-4h-108c-2.2 0-4 1.8-4 4v276c0 2.2 1.8 4 4 4h108c2.2 0 4-1.8 4-4V776c0-2.2-1.8-4-4-4z"/></g><path fill="#767676" d="M2568 764h-40c-6.6 0-12 5.4-12 12s5.4 12 12 12h40c6.6 0 12-5.4 12-12s-5.4-12-12-12z"/><g fill="#9574CA"><path d="M1577.8 730.2c-1.1 0-2-.9-2-2v-8c0-1.1.9-2 2-2H5224c1.1 0 2 .9 2 2v8c0 1.1-.9 2-2 2H1577.8z"/><path d="M5224 720.2v8H1577.8v-8H5224m0-4H1577.8c-2.2 0-4 1.8-4 4v8c0 2.2 1.8 4 4 4H5224c2.2 0 4-1.8 4-4v-8c0-2.2-1.8-4-4-4z"/></g><path fill="#FDFEFE" d="M5193.8 714.5l-3568-.3-48 8.8h3616"/><path fill="#563D89" d="M1660 1150c-1.1 0-2-.9-2-2V812c0-1.1.9-2 2-2h136c1.1 0 2 .9 2 2v336c0 1.1-.9 2-2 2h-136z"/><path fill="#563D89" d="M1796 812v336h-136V812h136m0-4h-136c-2.2 0-4 1.8-4 4v336c0 2.2 1.8 4 4 4h136c2.2 0 4-1.8 4-4V812c0-2.2-1.8-4-4-4z"/><path fill="#7B51BD" d="M2808 916v108c0 8.8-7.2 16-16 16h-128c-8.8 0-16-7.2-16-16V916h160z"/><path fill="#AFB6E2" d="M3268 1102c-1.1 0-2-.9-2-2v-32c0-1.1.9-2 2-2h1884c1.1 0 2 .9 2 2v32c0 1.1-.9 2-2 2H3268z"/><path fill="#AFB6E2" d="M5152 1068v32H3268v-32h1884m0-4H3268c-2.2 0-4 1.8-4 4v32c0 2.2 1.8 4 4 4h1884c2.2 0 4-1.8 4-4v-32c0-2.2-1.8-4-4-4z"/><path fill="#7B51BD" d="M3424 1024c0 8.8-7.2 16-16 16h-128c-8.8 0-16-7.2-16-16V836c0-8.8 7.2-16 16-16h128c8.8 0 16 7.2 16 16v188zM1788 1088.2c0 8.8-7.2 16-16 16h-88c-8.8 0-16-7.2-16-16v-252c0-8.8 7.2-16 16-16h88c8.8 0 16 7.2 16 16v252z"/><path fill="#36234D" d="M1636 796.2h172v12h-172z"/><path fill="#36234D" d="M1489.7 796.2H1644v12h-154.3z"/><g><defs><path id="c" d="M1636 1080.2v-362c0-2.2-1.8-4-4-4h-12l-38.3.2h-26c-38.6 0-70 31.4-70 70v295.8c0 2.2 1.8 4 4 4"/></defs><clipPath id="d"><use xlink:href="#c" overflow="visible"/></clipPath><path clip-path="url(#d)" fill="#FDFEFE" d="M1512.4 714.5H5200v8.5H1512.4z"/></g><g><path fill="#563D89" d="M1590 822.2h28v36h-28z"/><path fill="#563D89" d="M1616 824.2v32h-24v-32h24m4-4h-32v40h32v-40z"/></g><g fill="#7B51BD"><path d="M1586 858.1c-9-1-16-8.6-16-17.9s7-16.9 16-17.9v35.8z"/><path d="M1584 824.7v31c-6.9-1.8-12-8.1-12-15.5s5.1-13.7 12-15.5m4-4.5c-11 0-20 9-20 20s9 20 20 20v-40z"/></g><path fill="#FFF" d="M1636 716.2l-4-2h-12l-38.4.2h-26c-38.6 0-70 31.4-70 70v295.8c0 2.2 1.8 4 4 4v-4h4V784.4c0-34.2 27.8-62 62-62h26l38.3-.2h8l4-4h4c.1-2.2 2.3-2 .1-2z"/><path fill="#36234D" d="M1800 966.2h24v136h-24z"/><g><path fill="#AFB6E2" d="M1800 1102c-1.1 0-2-.9-2-2v-32c0-1.1.9-2 2-2h1004.1c1.1 0 2 .9 2 2v32c0 1.1-.9 2-2 2H1800z"/><path fill="#AFB6E2" d="M2804.1 1068v32H1800v-32h1004.1m0-4H1800c-2.2 0-4 1.8-4 4v32c0 2.2 1.8 4 4 4h1004.1c2.2 0 4-1.8 4-4v-32c0-2.2-1.8-4-4-4z"/></g><g><path fill="#7B51BD" d="M2624 916v108c0 8.8-7.2 16-16 16h-356c-8.8 0-16-7.2-16-16V916h388z"/><path opacity=".2" fill="none" stroke="#FFF" stroke-width="2" stroke-linecap="round" stroke-linejoin="round" stroke-miterlimit="10" stroke-dasharray="200,4,4,8" d="M1940.3 2.1l-780.3 1088"/><path opacity=".2" fill="none" stroke="#FFF" stroke-width="2" stroke-linecap="round" stroke-linejoin="round" stroke-miterlimit="10" stroke-dasharray="0,24,24,12,4,0" d="M1972.3 2.1l-780.3 1088"/><path opacity=".2" fill="none" stroke="#FFF" stroke-width="2" stroke-linecap="round" stroke-linejoin="round" stroke-miterlimit="10" stroke-dasharray="120,48,24,4,12" d="M2004.3 2.1l-780.3 1088"/><path opacity=".2" fill="none" stroke="#FFF" stroke-width="2" stroke-linecap="round" stroke-linejoin="round" stroke-miterlimit="10" stroke-dasharray="0,24,32,4,4" d="M1876.3 2.1l-780.3 1088"/><path opacity=".2" fill="none" stroke="#FFF" stroke-width="2" stroke-linecap="round" stroke-linejoin="round" stroke-miterlimit="10" stroke-dasharray="0,12,20,4,4" d="M1908.3 2.1l-780.3 1088"/><path opacity=".2" fill="none" stroke="#FFF" stroke-width="2" stroke-linecap="round" stroke-linejoin="round" stroke-miterlimit="10" stroke-dasharray="24,24,12,8" d="M1844.3 4.2l-780.3 1088"/><path opacity=".2" fill="none" stroke="#FFF" stroke-width="2" stroke-linecap="round" stroke-linejoin="round" stroke-miterlimit="10" stroke-dasharray="24,4,4,12,1,24" d="M1488 768.2l-232 321.9"/><path opacity=".2" fill="none" stroke="#FFF" stroke-width="2" stroke-linecap="round" stroke-linejoin="round" stroke-miterlimit="10" stroke-dasharray="220,12,4,8" d="M1492 808.2l-204 281.9"/><path opacity=".2" fill="none" stroke="#FFF" stroke-width="2" stroke-linecap="round" stroke-linejoin="round" stroke-miterlimit="10" stroke-dasharray="4,48,24,4,12" d="M1488 856.2l-168 233.9"/><path opacity=".2" fill="none" stroke="#FFF" stroke-width="2" stroke-linecap="round" stroke-linejoin="round" stroke-miterlimit="10" stroke-dasharray="24,24,12,8" d="M1492 896.2l-140 193.9"/><path opacity=".2" fill="none" stroke="#FFF" stroke-width="2" stroke-linecap="round" stroke-linejoin="round" stroke-miterlimit="10" stroke-dasharray="0,12,20,4,4" d="M1492 940.2l-108 149.9M1492 984.2l-76 105.9"/><path opacity=".2" fill="none" stroke="#FFF" stroke-width="2" stroke-linecap="round" stroke-linejoin="round" stroke-miterlimit="10" stroke-dasharray="24,24,24" d="M1488 1032.2l-40 57.9"/><path opacity=".2" fill="none" stroke="#FFF" stroke-width="2" stroke-linecap="round" stroke-linejoin="round" stroke-miterlimit="10" stroke-dasharray="24,24,12,8" d="M564.3 1.9l-780.3 1088"/><path opacity=".2" fill="none" stroke="#FFF" stroke-width="2" stroke-linecap="round" stroke-linejoin="round" stroke-miterlimit="10" stroke-dasharray="24,24,24" d="M596.3 2.1l-780.3 1088"/><path opacity=".2" fill="none" stroke="#FFF" stroke-width="2" stroke-linecap="round" stroke-linejoin="round" stroke-miterlimit="10" stroke-dasharray="0,36,12,12,4,0" d="M628.3 2.1l-780.3 1088"/><path opacity=".2" fill="none" stroke="#FFF" stroke-width="2" stroke-linecap="round" stroke-linejoin="round" stroke-miterlimit="10" stroke-dasharray="60,8,12" d="M660.3 2.1l-780.3 1088"/><path opacity=".2" fill="none" stroke="#FFF" stroke-width="2" stroke-linecap="round" stroke-linejoin="round" stroke-miterlimit="10" stroke-dasharray="16,8,40,12" d="M692.3 2.1L-88 1090.1"/><path opacity=".2" fill="none" stroke="#FFF" stroke-width="2" stroke-linecap="round" stroke-linejoin="round" stroke-miterlimit="10" stroke-dasharray="0,24,32,12" d="M724.3 2.1L-56 1090.1"/><path opacity=".2" fill="none" stroke="#FFF" stroke-width="2" stroke-linecap="round" stroke-linejoin="round" stroke-miterlimit="10" stroke-dasharray="200,4,4,8" d="M756.3 2.1L-24 1090.1"/><path opacity=".2" fill="none" stroke="#FFF" stroke-width="2" stroke-linecap="round" stroke-linejoin="round" stroke-miterlimit="10" stroke-dasharray="0,12,20,4,4" d="M788.3 2.1L8 1090.1"/><path opacity=".2" fill="none" stroke="#FFF" stroke-width="2" stroke-linecap="round" stroke-linejoin="round" stroke-miterlimit="10" stroke-dasharray="0,120,80,12,12" d="M820.3 2.1L40 1090.1"/><path opacity=".2" fill="none" stroke="#FFF" stroke-width="2" stroke-linecap="round" stroke-linejoin="round" stroke-miterlimit="10" stroke-dasharray="120,48,24,4,12" d="M852.3 2.1L72 1090.1"/><path opacity=".2" fill="none" stroke="#FFF" stroke-width="2" stroke-linecap="round" stroke-linejoin="round" stroke-miterlimit="10" stroke-dasharray="0,24,24,12,4,0" d="M884.3 2.1L104 1090.1"/><path opacity=".2" fill="none" stroke="#FFF" stroke-width="2" stroke-linecap="round" stroke-linejoin="round" stroke-miterlimit="10" stroke-dasharray="24,24,24" d="M916.3 2.1L154.6 1064"/><path opacity=".2" fill="none" stroke="#FFF" stroke-width="2" stroke-linecap="round" stroke-linejoin="round" stroke-miterlimit="10" stroke-dasharray="220,12,4,8" d="M948.3 2.1L186.4 1064.3"/><path opacity=".2" fill="none" stroke="#FFF" stroke-width="2" stroke-linecap="round" stroke-linejoin="round" stroke-miterlimit="10" d="M1812.3 4.2l-780.3 1088"/><path opacity=".2" fill="none" stroke="#FFF" stroke-width="2" stroke-linecap="round" stroke-linejoin="round" stroke-miterlimit="10" stroke-dasharray="200,4,4,8" d="M1076.3 2.1L296 1090.1"/><path opacity=".2" fill="none" stroke="#FFF" stroke-width="2" stroke-linecap="round" stroke-linejoin="round" stroke-miterlimit="10" stroke-dasharray="0,24,24,12,4,0" d="M1108.3 2.1L346 1064.9"/><path opacity=".2" fill="none" stroke="#FFF" stroke-width="2" stroke-linecap="round" stroke-linejoin="round" stroke-miterlimit="10" stroke-dasharray="120,48,24,4,12" d="M1140.3 2.1L360 1090.1"/><path opacity=".2" fill="none" stroke="#FFF" stroke-width="2" stroke-linecap="round" stroke-linejoin="round" stroke-miterlimit="10" stroke-dasharray="0,24,32,4,4" d="M1012.3 2.1L251.1 1063.4"/><path opacity=".2" fill="none" stroke="#FFF" stroke-width="2" stroke-linecap="round" stroke-linejoin="round" stroke-miterlimit="10" stroke-dasharray="0,12,20,4,4" d="M1044.3 2.1L264 1090.1"/><path opacity=".2" fill="none" stroke="#FFF" stroke-width="2" stroke-linecap="round" stroke-linejoin="round" stroke-miterlimit="10" stroke-dasharray="24,24,12,8" d="M980.3 4.2l-759.6 1059"/><path opacity=".2" fill="none" stroke="#FFF" stroke-width="2" stroke-linecap="round" stroke-linejoin="round" stroke-miterlimit="10" stroke-dasharray="24,4,4,12,1,24" d="M1172.3 2.1L410.5 1064.3"/><path opacity=".2" fill="none" stroke="#FFF" stroke-width="2" stroke-linecap="round" stroke-linejoin="round" stroke-miterlimit="10" stroke-dasharray="220,12,4,8" d="M1204.3 2.1L442.5 1064.2"/><path opacity=".2" fill="none" stroke="#FFF" stroke-width="2" stroke-linecap="round" stroke-linejoin="round" stroke-miterlimit="10" stroke-dasharray="4,48,24,4,12" d="M1236.3 2.1L456 1090.1"/><path opacity=".2" fill="none" stroke="#FFF" stroke-width="2" stroke-linecap="round" stroke-linejoin="round" stroke-miterlimit="10" stroke-dasharray="24,24,12,8" d="M1268.3 2.1L488 1090.1"/><path opacity=".2" fill="none" stroke="#FFF" stroke-width="2" stroke-linecap="round" stroke-linejoin="round" stroke-miterlimit="10" stroke-dasharray="0,12,20,4,4" d="M1300.3 2.1L520 1090.1M1332.3 2.1L552 1090.1"/><path opacity=".2" fill="none" stroke="#FFF" stroke-width="2" stroke-linecap="round" stroke-linejoin="round" stroke-miterlimit="10" stroke-dasharray="24,24,24" d="M1364.3 2.1L584 1090.1"/><path opacity=".2" fill="none" stroke="#FFF" stroke-width="2" stroke-linecap="round" stroke-linejoin="round" stroke-miterlimit="10" stroke-dasharray="200,4,4,8" d="M1396.3 2.1L616 1090.1"/><path opacity=".2" fill="none" stroke="#FFF" stroke-width="2" stroke-linecap="round" stroke-linejoin="round" stroke-miterlimit="10" stroke-dasharray="8,12,24" d="M1428.3 2.1L648 1090.1"/><path opacity=".2" fill="none" stroke="#FFF" stroke-width="2" stroke-linecap="round" stroke-linejoin="round" stroke-miterlimit="10" stroke-dasharray="24,24,24" d="M1460.3 2.1L680 1090.1"/><path opacity=".2" fill="none" stroke="#FFF" stroke-width="2" stroke-linecap="round" stroke-linejoin="round" stroke-miterlimit="10" stroke-dasharray="0,36,12,12,4,0" d="M1492.3 2.1L712 1090.1"/><path opacity=".2" fill="none" stroke="#FFF" stroke-width="2" stroke-linecap="round" stroke-linejoin="round" stroke-miterlimit="10" stroke-dasharray="60,8,12" d="M1524.3 2.1L744 1090.1"/><path opacity=".2" fill="none" stroke="#FFF" stroke-width="2" stroke-linecap="round" stroke-linejoin="round" stroke-miterlimit="10" stroke-dasharray="16,8,40,12" d="M1556.3 2.1L776 1090.1"/><path opacity=".2" fill="none" stroke="#FFF" stroke-width="2" stroke-linecap="round" stroke-linejoin="round" stroke-miterlimit="10" stroke-dasharray="0,24,32,12" d="M1588.3 2.1L808 1090.1"/><path opacity=".2" fill="none" stroke="#FFF" stroke-width="2" stroke-linecap="round" stroke-linejoin="round" stroke-miterlimit="10" stroke-dasharray="200,4,4,8" d="M1620.3 2.1L840 1090.1"/><path opacity=".2" fill="none" stroke="#FFF" stroke-width="2" stroke-linecap="round" stroke-linejoin="round" stroke-miterlimit="10" stroke-dasharray="0,12,20,4,4" d="M1652.3 2.1L872 1090.1"/><path opacity=".2" fill="none" stroke="#FFF" stroke-width="2" stroke-linecap="round" stroke-linejoin="round" stroke-miterlimit="10" stroke-dasharray="0,120,80,12,12" d="M1684.3 2.1L904 1090.1"/><path opacity=".2" fill="none" stroke="#FFF" stroke-width="2" stroke-linecap="round" stroke-linejoin="round" stroke-miterlimit="10" stroke-dasharray="120,48,24,4,12" d="M1716.3 2.1L936 1090.1"/><path opacity=".2" fill="none" stroke="#FFF" stroke-width="2" stroke-linecap="round" stroke-linejoin="round" stroke-miterlimit="10" stroke-dasharray="0,24,24,12,4,0" d="M1748.3 2.1L968 1090.1"/><path opacity=".2" fill="none" stroke="#FFF" stroke-width="2" stroke-linecap="round" stroke-linejoin="round" stroke-miterlimit="10" stroke-dasharray="24,24,24" d="M1780.3 2.1l-780.3 1088"/></g><g><path fill="none" stroke="#976AEF" stroke-width="16" stroke-linecap="round" stroke-linejoin="round" stroke-miterlimit="10" d="M3584 957.8s-48-2-48-58"/><path fill="none" stroke="#563D89" stroke-width="8" stroke-linecap="round" stroke-linejoin="round" stroke-miterlimit="10" d="M3536 896l-20 48h36z"/><path fill="#976AEF" d="M1903.9 924.5c-1.6 0-3.2-.3-4.8-.8l-11.3-4.1c-7.3-2.6-11-10.7-8.4-17.9l13.7-37.6c.3-.8 1.1-1.3 1.9-1.3.2 0 .5 0 .7.1l33.8 12.3c1 .4 1.6 1.5 1.2 2.6l-13.7 37.6c-2 5.4-7.3 9.1-13.1 9.1z"/><path fill="#976AEF" d="M1895 864.7l26.3 9.6 7.5 2.7-4.1 11.3-9.6 26.3c-1.8 4.9-6.4 7.9-11.3 7.9-1.4 0-2.7-.2-4.1-.7l-11.3-4.1c-6.2-2.3-9.4-9.2-7.2-15.4l5.5-15 6.8-18.8 1.5-3.8m0-4c-1.6 0-3.2 1-3.8 2.6l-1.4 3.8-6.8 18.8-5.4 14.9v.1c-3 8.3 1.3 17.5 9.6 20.5l11.3 4.1c1.8.6 3.6 1 5.5 1 6.7 0 12.7-4.2 15-10.5l9.6-26.3 4.1-11.3c.8-2.1-.3-4.4-2.4-5.1l-7.5-2.7-26.3-9.6c-.6-.3-1-.3-1.5-.3z"/><path fill="none" stroke="#976AEF" stroke-width="16" stroke-linecap="round" stroke-linejoin="round" stroke-miterlimit="10" d="M2980 932c0 19.9-16.1 36-36 36"/><circle fill="#563D89" stroke="#563D89" stroke-width="4" stroke-linecap="round" stroke-linejoin="round" stroke-miterlimit="10" cx="2910" cy="870" r="26"/><path fill="#976AEF" stroke="#976AEF" stroke-width="12" stroke-linecap="round" stroke-linejoin="round" stroke-miterlimit="10" d="M3484 918h-12"/><path fill="#976AEF" d="M3492 926h8v12h-8z"/><path fill="#976AEF" stroke="#976AEF" stroke-width="4" stroke-linecap="round" stroke-linejoin="round" stroke-miterlimit="10" d="M3585 950h36v24h-36z"/><path fill="none" stroke="#976AEF" stroke-width="18" stroke-linecap="round" stroke-linejoin="round" stroke-miterlimit="10" d="M1880 944l-16 32-24 16"/><path fill="#E5E5E5" stroke="#976AEF" stroke-width="16" stroke-linecap="round" stroke-linejoin="round" stroke-miterlimit="10" d="M2308 880h16s8 0 8-4"/><circle fill="#563D89" cx="2276" cy="876" r="32"/><path fill="#976AEF" d="M2280 922c-7.7 0-14-6.3-14-14v-28c0-1.1.9-2 2-2h10v-22c0-1.1.9-2 2-2h28c1.1 0 2 .9 2 2v15.2l7.4 7.4c.4.4.6.9.6 1.4v28c0 3.7-1.5 7.3-4.1 9.9s-6.2 4.1-9.9 4.1h-24z"/><path fill="#976AEF" d="M2308 856v16l8 8v28c0 6.6-5.4 12-12 12h-24c-6.6 0-12-5.4-12-12v-28h12v-24h28m0-4h-28c-2.2 0-4 1.8-4 4v20h-8c-2.2 0-4 1.8-4 4v28c0 8.8 7.2 16 16 16h24c8.8 0 15.9-7.1 16-15.8v-.2-28c0-1.1-.4-2.1-1.2-2.8l-6.8-6.8V856c0-2.2-1.8-4-4-4z"/><g fill="#976AEF"><path d="M2288 934c-1.1 0-2-.9-2-2v-12c0-1.1.9-2 2-2h8c1.1 0 2 .9 2 2v12c0 1.1-.9 2-2 2h-8z"/><path d="M2296 920v12h-8v-12h8m0-4h-8c-2.2 0-4 1.8-4 4v12c0 2.2 1.8 4 4 4h8c2.2 0 4-1.8 4-4v-12c0-2.2-1.8-4-4-4z"/></g><path fill="none" stroke="#976AEF" stroke-width="20" stroke-linecap="round" stroke-linejoin="round" stroke-miterlimit="10" d="M2316 940l36 8s-10.5-12-14.5-36"/><path fill="#E5E5E5" d="M2270 932h42v24h-42z"/><circle fill="#976AEF" cx="2330" cy="914" r="6"/><path fill="#CCC" stroke="#CCC" stroke-width="2" stroke-linecap="round" stroke-linejoin="round" stroke-miterlimit="10" d="M2312 932c3.3 0 6 2.7 6 6v30h-12v-30c0-3.3 2.7-6 6-6zM2270 932c3.3 0 6 2.7 6 6v30h-12v-30c0-3.3 2.7-6 6-6z"/><path fill="#563D89" d="M2268 1014c-1.1 0-2-.9-2-2v-78c0-1.1.9-2 2-2h48c1.1 0 2 .9 2 2v78c0 1.1-.9 2-2 2h-48z"/><path fill="#563D89" d="M2316 934v78h-48v-78h48m0-4h-48c-2.2 0-4 1.8-4 4v78c0 2.2 1.8 4 4 4h48c2.2 0 4-1.8 4-4v-78c0-2.2-1.8-4-4-4z"/><path fill="#563D89" stroke="#563D89" stroke-width="2" stroke-linecap="round" stroke-linejoin="round" stroke-miterlimit="10" d="M2318 1022s-1.5 30 6 36h-24l-6-18-6 18h-24v-36h54z"/><g fill="#563D89"><path d="M2252 908c-2.2 0-4-1.8-4-4v-28c0-2.2 1.8-4 4-4h4c2.2 0 4 1.8 4 4v28c0 2.2-1.8 4-4 4h-4z"/><path d="M2256 876v28h-4v-28h4m0-8h-4c-4.4 0-8 3.6-8 8v28c0 4.4 3.6 8 8 8h4c4.4 0 8-3.6 8-8v-28c0-4.4-3.6-8-8-8z"/></g><path fill="none" stroke="#563D89" stroke-width="8" stroke-linecap="round" stroke-linejoin="round" stroke-miterlimit="10" d="M2320 892h-16"/><circle fill="none" stroke="#563D89" stroke-width="4" stroke-miterlimit="10" cx="2296" cy="866" r="6"/><circle fill="#976AEF" stroke="#563D89" stroke-width="4" stroke-miterlimit="10" cx="2314" cy="866" r="6"/><path fill="none" stroke="#563D89" stroke-width="4" stroke-miterlimit="10" d="M2308 866h-6.5M2289 866h-13"/><path fill="none" stroke="#976AEF" stroke-width="18" stroke-linecap="round" stroke-linejoin="round" stroke-miterlimit="10" d="M2268 940l-12 28-6 32"/><path fill="#563D89" d="M2344 886c0 1.1-.9 2-2 2s-2-.9-2-2 .9-2 2-2 2 .9 2 2z"/><circle fill="#563D89" cx="2342" cy="894" r="2"/><circle fill="#563D89" cx="2350" cy="882" r="2"/><circle fill="#563D89" cx="2350" cy="898" r="2"/><circle fill="#563D89" cx="2354" cy="890" r="2"/><circle fill="#563D89" cx="2358" cy="878" r="2"/><circle fill="#563D89" cx="2362" cy="886" r="2"/><circle fill="#563D89" cx="2362" cy="894" r="2"/><circle fill="#563D89" cx="2358" cy="902" r="2"/><circle fill="#563D89" cx="2366" cy="906" r="2"/><circle fill="#563D89" cx="2366" cy="874" r="2"/><circle fill="#563D89" cx="2370" cy="882" r="2"/><circle fill="#563D89" cx="2370" cy="898" r="2"/><circle fill="#563D89" cx="2370" cy="890" r="2"/><path fill="none" stroke="#563D89" stroke-width="12" stroke-linecap="round" stroke-linejoin="round" stroke-miterlimit="10" d="M1926.5 893.2l5.5-15.1"/><g fill="#563D89"><path d="M1932 880.1c-.2 0-.5 0-.7-.1-1.9-.7-3.8-1.6-5.7-2.7l-33.9-16c-.9-.4-1.4-1.5-1-2.5l8.2-22.6c.3-.8 1-1.3 1.9-1.3h.1c.9 0 1.6.7 1.8 1.5.1.3 7 26.8 24.8 37.3l5.3 2.5c1 .5 1.4 1.6 1 2.6-.3.9-1 1.3-1.8 1.3z"/><path d="M1900.8 837s7 27.6 25.8 38.6l-34-16 8.2-22.6m25.8 38.6l5.4 2.6c-1.9-.8-3.7-1.6-5.4-2.6m-25.8-42.6c-1.7 0-3.2 1-3.8 2.6l-8.2 22.6c-.7 1.9.2 4.1 2.1 5l33.8 16c1.9 1.1 3.9 2 5.9 2.8.5.2.9.2 1.4.2 1.6 0 3.1-.9 3.7-2.5.8-2-.1-4.2-2-5.2l-5.3-2.5c-17-10.1-23.7-35.8-23.8-36-.4-1.7-1.9-2.9-3.7-3h-.1z"/></g><g fill="#563D89"><path d="M1880 1022c-.5 0-1-.2-1.4-.5-.4-.4-.6-.9-.6-1.5v-82c0-1.1.9-2 2-2h48c1.1 0 2 .9 2 2v78c0 1-.8 1.9-1.8 2l-48 4h-.2z"/><path d="M1928 938v78l-48 4v-82h48m0-4h-48c-2.2 0-4 1.8-4 4v82c0 1.1.5 2.2 1.3 2.9.7.7 1.7 1.1 2.7 1.1h.3l48-4c2.1-.2 3.7-1.9 3.7-4v-78c0-2.2-1.8-4-4-4z"/></g><g fill="#976AEF"><path d="M1896 938c-1.1 0-2-.9-2-2v-16c0-1.1.9-2 2-2h8c1.1 0 2 .9 2 2v16c0 1.1-.9 2-2 2h-8z"/><path d="M1904 920v16h-8v-16h8m0-4h-8c-2.2 0-4 1.8-4 4v16c0 2.2 1.8 4 4 4h8c2.2 0 4-1.8 4-4v-16c0-2.2-1.8-4-4-4z"/></g><defs><path id="e" d="M1788 1024.2c0 8.8-7.2 16-16 16h-88c-8.8 0-16-7.2-16-16v-188c0-8.8 7.2-16 16-16h88c8.8 0 16 7.2 16 16v188z"/></defs><clipPath id="f"><use xlink:href="#e" overflow="visible"/></clipPath><path clip-path="url(#f)" fill="none" stroke="#563D89" stroke-width="8" stroke-linecap="round" stroke-linejoin="round" stroke-miterlimit="10" d="M1828 992l-92-104"/><path fill="#563D89" d="M1859.9 961.9l11.2-22.3c2.5-4.9 8.5-6.9 13.4-4.5 4.9 2.5 6.9 8.5 4.5 13.4l-14 28.1-15.1-14.7z"/><path fill="none" stroke="#976AEF" stroke-width="18" stroke-linecap="round" stroke-linejoin="round" stroke-miterlimit="10" d="M1928 944l28-24v-40"/><path fill="#563D89" d="M1948 940l-13.5 11.6c-1.9 1.6-4.2 2.4-6.5 2.4-2.8 0-5.6-1.2-7.6-3.5-3.6-4.2-3.1-10.5 1.1-14.1L1936 924l12 16z"/><circle fill="#333" cx="1954" cy="876" r="8"/><circle fill="#976AEF" cx="1956" cy="876" r="12"/><path fill="none" stroke="#976AEF" stroke-width="8" stroke-linecap="round" stroke-linejoin="round" stroke-miterlimit="10" d="M1950 872v-16M1964 876v-16"/><path fill="none" stroke="#563D89" stroke-width="4" stroke-linecap="round" stroke-linejoin="round" stroke-miterlimit="10" d="M1748 852l16-12M1748 860h12M1748 852l16-12M1748 868l16 12"/><path fill="#563D89" d="M3264 968h64v40h-64z"/><circle fill="#563D89" cx="3328" cy="988" r="20"/><path fill="#563D89" d="M3264 860h60v40h-60zM3264 916h80v44h-80z"/><path fill="none" stroke="#563D89" stroke-width="8" stroke-linecap="round" stroke-linejoin="round" stroke-miterlimit="10" d="M3344 944h12v12h-12M3324 868h8c6.6 0 12 5.4 12 12s-5.4 12-12 12h-16"/><path fill="#563D89" d="M3316 868c4.4 0 8-3.6 8-8s-3.6-8-8-8h-52v56"/><path fill="#563D89" d="M3316 892c4.4 0 8 3.6 8 8s-3.6 8-8 8h-52v-56"/><path fill="none" stroke="#976AEF" stroke-width="16" stroke-linecap="round" stroke-linejoin="round" stroke-miterlimit="10" d="M3624 957.8s60 34 60-22"/><path fill="none" stroke="#563D89" stroke-width="8" stroke-linecap="round" stroke-linejoin="round" stroke-miterlimit="10" d="M3681.3 972.3l-6.1-21.1c-2.1-7.4 2.2-15.2 9.6-17.3 7.4-2.1 15.2 2.2 17.3 9.6l6.1 21.1"/><path fill="#563D89" stroke="#563D89" stroke-width="8" stroke-linecap="round" stroke-linejoin="round" stroke-miterlimit="10" d="M3719.8 961.3c4.2-1.2 8.7 1.2 9.9 5.5l12.1 42.3c1.2 4.2-1.2 8.7-5.5 9.9l-50 14.3c-4.2 1.2-8.7-1.2-9.9-5.5l-12.1-42.3c-1.2-4.2 1.2-8.7 5.5-9.9l50-14.3z"/><path fill="#976AEF" d="M3590.3 907.8c-.2 0-.4 0-.6-.1l-9.6-2.8c-1.1-.3-1.7-1.4-1.4-2.5l2.2-7.7c.1-.5.5-.9 1-1.2.3-.2.6-.3 1-.3.2 0 .4 0 .6.1l9.6 2.8c1.1.3 1.7 1.4 1.4 2.5l-2.2 7.7c-.1.5-.5.9-1 1.2-.3.2-.7.3-1 .3z"/><path fill="#976AEF" d="M3582.9 895.3l9.6 2.8-2.2 7.7-9.6-2.8 2.2-7.7m0-4c-.7 0-1.3.2-1.9.5-.9.5-1.6 1.4-1.9 2.4l-2.2 7.7c-.6 2.1.6 4.3 2.7 4.9l9.6 2.8c.4.1.7.2 1.1.2.7 0 1.3-.2 1.9-.5.9-.5 1.6-1.4 1.9-2.4l2.2-7.7c.6-2.1-.6-4.3-2.7-4.9l-9.6-2.8c-.4-.1-.7-.2-1.1-.2z"/><path fill="#976AEF" d="M3581.8 905.2c-.6 0-1.1-.1-1.7-.2-3.2-.9-5-4.2-4.1-7.4.7-2.6 3.1-4.3 5.8-4.3.6 0 1.1.1 1.7.2 3.2.9 5 4.2 4.1 7.4-.8 2.5-3.1 4.3-5.8 4.3z"/><path fill="#976AEF" d="M3581.8 895.2c.4 0 .7.1 1.1.2 2.1.6 3.3 2.8 2.7 4.9-.5 1.8-2.1 2.9-3.8 2.9-.4 0-.7 0-1.1-.2-2.1-.6-3.4-2.8-2.7-4.9.5-1.8 2.1-2.9 3.8-2.9m0-4c-3.5 0-6.7 2.4-7.7 5.8-.6 2.1-.3 4.2.7 6.1 1 1.9 2.7 3.2 4.8 3.8.7.2 1.5.3 2.2.3 3.5 0 6.7-2.4 7.7-5.8 1.2-4.2-1.2-8.7-5.5-9.9-.7-.2-1.5-.3-2.2-.3z"/><path fill="#976AEF" d="M3603.2 940.1c-1.3 0-2.6-.2-3.9-.5l-7.7-2.2c-7.4-2.1-11.7-9.9-9.6-17.3l12.1-42.3c.3-.9 1.1-1.5 1.9-1.5.2 0 .4 0 .6.1l30.8 8.8c.5.1.9.5 1.2 1 .3.5.3 1 .2 1.5l-12.1 42.3c-1.8 6-7.3 10.1-13.5 10.1z"/><path fill="#976AEF" d="M3596.1 878.3l30.8 8.8-4.4 15.4-2.2 7.7-3.3 11.5-2.2 7.7c-1.5 5.3-6.3 8.7-11.5 8.7-1.1 0-2.2-.2-3.3-.5l-7.7-2.2c-6.4-1.8-10.1-8.5-8.2-14.8l5.5-19.2 6.5-23.1m0-4c-1.7 0-3.3 1.1-3.8 2.9l-6.6 23.1-5.5 19.2c-2.4 8.5 2.5 17.4 11 19.8l7.7 2.2c1.4.4 2.9.6 4.4.6 7.1 0 13.4-4.8 15.4-11.6l2.2-7.7 3.3-11.5 2.2-7.7 4.4-15.4c.3-1 .2-2.1-.3-3-.5-.9-1.4-1.6-2.4-1.9l-30.8-8.8c-.5-.1-.8-.2-1.2-.2z"/><g fill="#976AEF"><path d="M3600 950c-1.1 0-2-.9-2-2v-12c0-1.1.9-2 2-2h8c1.1 0 2 .9 2 2v12c0 1.1-.9 2-2 2h-8z"/><path d="M3608 936v12h-8v-12h8m0-4h-8c-2.2 0-4 1.8-4 4v12c0 2.2 1.8 4 4 4h8c2.2 0 4-1.8 4-4v-12c0-2.2-1.8-4-4-4z"/></g><circle fill="#563D89" cx="3593.4" cy="896" r="4"/><path fill="#563D89" stroke="#563D89" stroke-width="4" stroke-linecap="round" stroke-linejoin="round" stroke-miterlimit="10" d="M3624 864c-28 0-32 0-36 16l36 20v86.7s0 .1.1.2c-.1.4-.1.7-.1 1.1 0 4.4 3.6 8 8 8s8-3.6 8-8c0-.4 0-.8-.1-1.2l.1-.1V888s12-24-16-24z"/><path fill="#976AEF" stroke="#976AEF" stroke-width="4" stroke-linecap="round" stroke-linejoin="round" stroke-miterlimit="10" d="M3666.1 895.2l-23.7-14.8c4.7-7.5 2.4-17.4-5.1-22s-17.4-2.4-22 5.1l-23.7-14.8c-1.9-1.2-4.3-.6-5.5 1.3-1.2 1.9-.6 4.3 1.3 5.5l74.6 46.6c1.9 1.2 4.3.6 5.5-1.3s.5-4.4-1.4-5.6z"/><defs><path id="g" d="M3836 1024c0 8.8-7.2 16-16 16h-356c-8.8 0-16-7.2-16-16V836c0-8.8 7.2-16 16-16h356c8.8 0 16 7.2 16 16v188z"/></defs><clipPath id="h"><use xlink:href="#g" overflow="visible"/></clipPath><g clip-path="url(#h)"><path fill="#563D89" d="M3588 1046c-1.1 0-2-.8-2-1.9l-4-92c0-.8.4-1.6 1.2-1.9.3-.1.5-.2.8-.2.5 0 1 .2 1.4.6l18.6 18.6 18.6-18.6c.4-.4.9-.6 1.4-.6.3 0 .5.1.8.2.8.3 1.2 1.1 1.2 1.9l-4 92c0 1.1-.9 1.9-2 1.9h-32z"/><path fill="#563D89" d="M3624 952l-4 92h-32l-4-92 20 20 20-20m0-4c-1 0-2.1.4-2.8 1.2l-17.2 17.2-17.2-17.2c-.8-.8-1.8-1.2-2.8-1.2-.5 0-1.1.1-1.6.3-1.5.7-2.5 2.2-2.4 3.8l4 92c.1 2.1 1.9 3.8 4 3.8h32c2.1 0 3.9-1.7 4-3.8l4-92c.1-1.6-.9-3.2-2.4-3.8-.5-.2-1.1-.3-1.6-.3z"/></g><circle fill="#976AEF" stroke="#976AEF" stroke-width="4" stroke-linecap="round" stroke-linejoin="round" stroke-miterlimit="10" cx="3492" cy="920" r="12"/><path fill="#976AEF" stroke="#976AEF" stroke-width="4" stroke-linecap="round" stroke-linejoin="round" stroke-miterlimit="10" d="M3492 910l16-8-4 16z"/><circle fill="#563D89" cx="3486" cy="914" r="2"/><circle fill="#563D89" cx="3486" cy="914" r="2"/><path fill="#563D89" stroke="#563D89" stroke-width="4" stroke-linecap="round" stroke-linejoin="round" stroke-miterlimit="10" d="M3488 940h88v56h-88z"/><path fill="#976AEF" d="M2908 942c-7.7 0-14-6.3-14-14v-40c0-.9.6-1.6 1.4-1.9l11.8-3.9 15.8-9.9c.3-.2.7-.3 1.1-.3h8c1.1 0 2 .9 2 2v54c0 7.7-6.3 14-14 14H2908z"/><path fill="#976AEF" d="M2932 874v54c0 6.6-5.4 12-12 12h-12c-6.6 0-12-5.4-12-12v-40l12-4 16-10h8m0-4h-8c-.8 0-1.5.2-2.1.6l-15.6 9.7-11.5 3.8c-1.6.5-2.7 2.1-2.7 3.8v40c0 8.8 7.2 16 16 16h12c8.8 0 16-7.2 16-16v-54c-.1-2.1-1.9-3.9-4.1-3.9zM2944 902c-3.3 0-6-2.7-6-6s2.7-6 6-6 6 2.7 6 6-2.7 6-6 6z"/><path fill="#976AEF" d="M2944 892c2.2 0 4 1.8 4 4s-1.8 4-4 4-4-1.8-4-4 1.8-4 4-4m0-4c-4.4 0-8 3.6-8 8s3.6 8 8 8 8-3.6 8-8-3.6-8-8-8z"/><path fill="#976AEF" d="M2928 902c-1.1 0-2-.9-2-2v-8c0-1.1.9-2 2-2h16c1.1 0 2 .9 2 2v8c0 1.1-.9 2-2 2h-16z"/><path fill="#976AEF" d="M2944 892v8h-16v-8h16m0-4h-16c-2.2 0-4 1.8-4 4v8c0 2.2 1.8 4 4 4h16c2.2 0 4-1.8 4-4v-8c0-2.2-1.8-4-4-4z"/><g fill="#976AEF"><path d="M2912 966c-1.1 0-2-.9-2-2v-24c0-1.1.9-2 2-2h4c1.1 0 2 .9 2 2v24c0 1.1-.9 2-2 2h-4z"/><path d="M2916 940v24h-4v-24h4m0-4h-4c-2.2 0-4 1.8-4 4v24c0 2.2 1.8 4 4 4h4c2.2 0 4-1.8 4-4v-24c0-2.2-1.8-4-4-4z"/></g><circle fill="#563D89" cx="2924" cy="880" r="4"/><path fill="#563D89" stroke="#563D89" stroke-width="4" stroke-linecap="round" stroke-linejoin="round" stroke-miterlimit="10" d="M2944 916l20-8M2944 924h12M2944 916l20-8M2944 932l20 8"/><circle fill="#563D89" stroke="#563D89" stroke-width="4" stroke-linecap="round" stroke-linejoin="round" stroke-miterlimit="10" cx="2894" cy="846" r="10"/><circle fill="#563D89" stroke="#563D89" stroke-width="4" stroke-linecap="round" stroke-linejoin="round" stroke-miterlimit="10" cx="2896" cy="904" r="8"/><path fill="#563D89" stroke="#563D89" stroke-width="4" stroke-linecap="round" stroke-linejoin="round" stroke-miterlimit="10" d="M2888 876h16v28h-16z"/><path fill="#563D89" d="M2892 1042c-1.1 0-2-.9-2-2v-76c0-1.1.9-2 2-2h44c1.1 0 2 .9 2 2v76c0 1.1-.9 2-2 2h-44z"/><path fill="#563D89" d="M2936 964v76h-44v-76h44m0-4h-44c-2.2 0-4 1.8-4 4v76c0 2.2 1.8 4 4 4h44c2.2 0 4-1.8 4-4v-76c0-2.2-1.8-4-4-4z"/><path fill="none" stroke="#563D89" stroke-width="16" stroke-linecap="round" stroke-linejoin="round" stroke-miterlimit="10" d="M2980 932c0 19.9-16.1 36-36 36h-20M2892 968s-28 20-20 68"/><g fill="#563D89"><path d="M2892 1066c-1.1 0-2-.9-2-2v-12c0-1.1.9-2 2-2h44c1.1 0 2 .9 2 2v12c0 1.1-.9 2-2 2h-44z"/><path d="M2936 1052v12h-44v-12h44m0-4h-44c-2.2 0-4 1.8-4 4v12c0 2.2 1.8 4 4 4h44c2.2 0 4-1.8 4-4v-12c0-2.2-1.8-4-4-4z"/></g><g fill="#563D89"><path d="M3116 1062c-1.1 0-2-.9-2-2v-8c0-1.1.9-2 2-2h44c1.1 0 2 .9 2 2v8c0 1.1-.9 2-2 2h-44z"/><path d="M3160 1052v8h-44v-8h44m0-4h-44c-2.2 0-4 1.8-4 4v8c0 2.2 1.8 4 4 4h44c2.2 0 4-1.8 4-4v-8c0-2.2-1.8-4-4-4z"/></g><path fill="#976AEF" d="M3132 938c-7.7 0-14-6.3-14-14v-60c0-1.1.9-2 2-2h36c1.1 0 2 .9 2 2v60c0 3.7-1.5 7.3-4.1 9.9s-6.2 4.1-9.9 4.1h-12z"/><path fill="#976AEF" d="M3156 864v60c0 6.6-5.4 12-12 12h-12c-6.6 0-12-5.4-12-12v-60h36m0-4h-36c-2.2 0-4 1.8-4 4v60c0 8.8 7.2 16 16 16h12c8.8 0 15.9-7.1 16-15.8v-.2-60c0-2.2-1.8-4-4-4zM3108 906c-3.3 0-6-2.7-6-6s2.7-6 6-6 6 2.7 6 6-2.7 6-6 6z"/><path fill="#976AEF" d="M3108 896c2.2 0 4 1.8 4 4s-1.8 4-4 4-4-1.8-4-4 1.8-4 4-4m0-4c-4.4 0-8 3.6-8 8s3.6 8 8 8 8-3.6 8-8-3.6-8-8-8z"/><path fill="#976AEF" d="M3108 906c-1.1 0-2-.9-2-2v-8c0-1.1.9-2 2-2h16c1.1 0 2 .9 2 2v8c0 1.1-.9 2-2 2h-16z"/><path fill="#976AEF" d="M3124 896v8h-16v-8h16m0-4h-16c-2.2 0-4 1.8-4 4v8c0 2.2 1.8 4 4 4h16c2.2 0 4-1.8 4-4v-8c0-2.2-1.8-4-4-4z"/><g fill="#563D89"><path d="M3155.7 863.9c-.2 0-.4 0-.6-.1l-26.9-7.7c-.5-.1-.9-.5-1.2-1-.3-.5-.3-1-.2-1.5 2-6.8 8.3-11.6 15.4-11.6 1.5 0 3 .2 4.4.6 4.1 1.2 7.5 3.9 9.6 7.6s2.6 8.1 1.4 12.2c-.1.5-.5.9-1 1.2-.2.2-.6.3-.9.3z"/><path d="M3142.2 844c1.3 0 2.6.2 3.9.5 7.4 2.1 11.7 9.9 9.6 17.3l-26.9-7.7c1.7-6.1 7.3-10.1 13.4-10.1m0-4c-8 0-15.1 5.4-17.3 13-.3 1-.2 2.1.3 3 .5.9 1.4 1.6 2.4 1.9l26.9 7.7c.4.1.7.2 1.1.2.7 0 1.3-.2 1.9-.5.9-.5 1.6-1.4 1.9-2.4 1.3-4.6.8-9.5-1.6-13.7-2.3-4.2-6.2-7.3-10.8-8.6-1.4-.4-3.1-.6-4.8-.6z"/><circle stroke="#563D89" stroke-width="4" stroke-linecap="round" stroke-linejoin="round" stroke-miterlimit="10" cx="3159.8" cy="869.3" r="6"/><circle stroke="#563D89" stroke-width="4" stroke-linecap="round" stroke-linejoin="round" stroke-miterlimit="10" cx="3121.4" cy="858.3" r="6"/><path stroke="#563D89" stroke-width="4.00012" stroke-linecap="round" stroke-linejoin="round" stroke-miterlimit="10" d="M3123.902 856.88l34.607 9.922-2.206 7.69-34.607-9.92z"/></g><circle fill="#563D89" stroke="#563D89" stroke-width="4" stroke-linecap="round" stroke-linejoin="round" stroke-miterlimit="10" cx="3118" cy="886.6" r="6"/><circle fill="#563D89" stroke="#563D89" stroke-width="4" stroke-linecap="round" stroke-linejoin="round" stroke-miterlimit="10" cx="3138" cy="886.6" r="6"/><path fill="#563D89" stroke="#563D89" stroke-width="4" stroke-linecap="round" stroke-linejoin="round" stroke-miterlimit="10" d="M3108 920l-20-8M3108 928h-12M3108 936l-20 8"/><circle fill="#976AEF" cx="2980" cy="924" r="12"/><path fill="#563D89" d="M3116 1044c-1.1 0-2-.9-2-2v-76c0-1.1.9-2 2-2h44c1.1 0 2 .9 2 2v76c0 1.1-.9 2-2 2h-44z"/><path fill="#563D89" d="M3160 966v76h-44v-76h44m0-4h-44c-2.2 0-4 1.8-4 4v76c0 2.2 1.8 4 4 4h44c2.2 0 4-1.8 4-4v-76c0-2.2-1.8-4-4-4z"/><path fill="none" stroke="#563D89" stroke-width="16" stroke-linecap="round" stroke-linejoin="round" stroke-miterlimit="10" d="M3160 970s28 20 20 68"/><path fill="none" stroke="#563D89" stroke-width="4" stroke-miterlimit="10" d="M3124 888c0-2.2 1.8-4 4-4s4 1.8 4 4M3144 886h16"/><path fill="none" stroke="#563D89" stroke-width="16" stroke-linecap="round" stroke-linejoin="round" stroke-miterlimit="10" d="M3080 1008c15.5 0 28-12.5 28-28 0 0 0-12 12-12"/><g fill="#976AEF"><path d="M3136 962c-1.1 0-2-.9-2-2v-24c0-1.1.9-2 2-2h4c1.1 0 2 .9 2 2v24c0 1.1-.9 2-2 2h-4z"/><path d="M3140 936v24h-4v-24h4m0-4h-4c-2.2 0-4 1.8-4 4v24c0 2.2 1.8 4 4 4h4c2.2 0 4-1.8 4-4v-24c0-2.2-1.8-4-4-4z"/></g><path fill="#563D89" d="M1728 890c-1.1 0-2-.9-2-2v-36c0-1.1.9-2 2-2h8c1.1 0 2 .9 2 2v36c0 1.1-.9 2-2 2h-8z"/><path fill="#563D89" d="M1736 852v36h-8v-36h8m0-4h-8c-2.2 0-4 1.8-4 4v36c0 2.2 1.8 4 4 4h8c2.2 0 4-1.8 4-4v-36c0-2.2-1.8-4-4-4z"/><defs><path id="i" d="M3188 772h-108c-2.2 0-4 1.8-4 4v276c0 2.2 1.8 4 4 4h108c2.2 0 4-1.8 4-4V776c0-2.2-1.8-4-4-4z"/></defs><clipPath id="j"><use xlink:href="#i" overflow="visible"/></clipPath><circle clip-path="url(#j)" fill="#976AEF" cx="3072" cy="1008" r="12"/><path fill="#976AEF" d="M1887.9 891.4c-.5 0-1-.2-1.3-.5l-11.9-10.7c-.8-.7-.9-2-.2-2.8l5.3-6c.4-.4.9-.7 1.5-.7.5 0 1 .2 1.3.5l11.9 10.7c.4.4.6.8.7 1.4 0 .5-.2 1-.5 1.4l-5.3 6c-.4.4-.9.6-1.4.7h-.1z"/><path fill="#976AEF" d="M1881.3 872.7l11.9 10.7-5.3 6-11.9-10.7 5.3-6m0-4c-1.1 0-2.2.5-3 1.3l-5.3 6c-1.5 1.6-1.3 4.2.3 5.6l11.9 10.7c.7.7 1.7 1 2.7 1h.2c1.1-.1 2.1-.5 2.8-1.3l5.3-6c.7-.8 1.1-1.8 1-2.9-.1-1.1-.5-2.1-1.3-2.8l-11.9-10.7c-.8-.5-1.7-.9-2.7-.9z"/><path fill="#976AEF" d="M1878.6 881.7c-1.5 0-2.9-.5-4-1.5-2.5-2.2-2.7-6-.5-8.5 1.1-1.3 2.8-2 4.5-2 1.5 0 2.9.5 4 1.5 2.5 2.2 2.7 6 .5 8.5-1.1 1.3-2.7 2-4.5 2z"/><path fill="#976AEF" d="M1878.7 871.7c.9 0 1.9.3 2.7 1 1.6 1.5 1.8 4 .3 5.6-.8.9-1.9 1.3-3 1.3-.9 0-1.9-.3-2.7-1-1.6-1.5-1.8-4-.3-5.6.8-.8 1.9-1.3 3-1.3m0-4c-2.3 0-4.5 1-6 2.7-2.9 3.3-2.7 8.4.6 11.3 1.5 1.3 3.4 2 5.3 2 2.3 0 4.4-1 6-2.7 2.9-3.3 2.7-8.4-.6-11.3-1.5-1.2-3.4-2-5.3-2z"/><circle fill="#563D89" cx="1896" cy="873.5" r="4"/><path fill="#976AEF" d="M2752 1016h28v24h-28z"/><ellipse fill="#976AEF" stroke="#976AEF" stroke-miterlimit="10" cx="2766" cy="980" rx="30" ry="16"/><path fill="#976AEF" d="M2790.1 970.9c-2.8-3.4-7.9-3.9-11.3-1-3.4 2.8-3.9 7.9-1 11.3.2.2 16.7 20.2 28.1 50.6 1.3-2.3 2-4.9 2-7.7v-26c-9-16.6-17.2-26.6-17.8-27.2z"/><g fill="#563D89"><path d="M2732 930c-.7 0-1.3-.4-1.7-.9-.4-.6-.4-1.3-.1-1.9l16-32c.3-.7 1-1.1 1.8-1.1.2 0 .3 0 .5.1.9.2 1.5 1 1.5 1.9v32c0 1.1-.9 2-2 2h-16z"/><path d="M2748 896v32h-16l16-32m0-4c-1.5 0-2.9.8-3.6 2.2l-16 32c-.6 1.2-.6 2.7.2 3.9.7 1.2 2 1.9 3.4 1.9h16c2.2 0 4-1.8 4-4v-32c0-1.9-1.3-3.5-3.1-3.9-.3-.1-.6-.1-.9-.1z"/></g><path fill="#976AEF" d="M2760 950c-7.7 0-14-6.3-14-14v-40c0-1.1.9-2 2-2h36c1.1 0 2 .9 2 2v40c0 7.7-6.3 14-14 14h-12z"/><path fill="#976AEF" d="M2784 896v40c0 6.6-5.4 12-12 12h-12c-6.6 0-12-5.4-12-12v-40h36m0-4h-36c-2.2 0-4 1.8-4 4v40c0 8.8 7.2 16 16 16h12c8.8 0 16-7.2 16-16v-40c0-2.2-1.8-4-4-4zM2796 934c-3.3 0-6-2.7-6-6s2.7-6 6-6 6 2.7 6 6-2.7 6-6 6z"/><path fill="#976AEF" d="M2796 924c2.2 0 4 1.8 4 4s-1.8 4-4 4-4-1.8-4-4 1.8-4 4-4m0-4c-4.4 0-8 3.6-8 8s3.6 8 8 8 8-3.6 8-8-3.6-8-8-8z"/><path fill="#976AEF" d="M2780 934c-1.1 0-2-.9-2-2v-8c0-1.1.9-2 2-2h16c1.1 0 2 .9 2 2v8c0 1.1-.9 2-2 2h-16z"/><path fill="#976AEF" d="M2796 924v8h-16v-8h16m0-4h-16c-2.2 0-4 1.8-4 4v8c0 2.2 1.8 4 4 4h16c2.2 0 4-1.8 4-4v-8c0-2.2-1.8-4-4-4z"/><path fill="none" stroke="#563D89" stroke-width="4" stroke-miterlimit="10" d="M2744 904h42.5"/><g fill="#563D89"><path d="M2740 894c-1.1 0-2-.9-2-2v-8c0-1.1.9-2 2-2h52c1.1 0 2 .9 2 2v8c0 1.1-.9 2-2 2h-52z"/><path d="M2792 884v8h-52v-8h52m0-4h-52c-2.2 0-4 1.8-4 4v8c0 2.2 1.8 4 4 4h52c2.2 0 4-1.8 4-4v-8c0-2.2-1.8-4-4-4z"/></g><g fill="#563D89"><path d="M2744 894c-1.1 0-2-.9-2-2 0-13.2 10.8-24 24-24s24 10.8 24 24c0 1.1-.9 2-2 2h-44z"/><path d="M2766 870c12.2 0 22 9.8 22 22h-44c0-12.2 9.8-22 22-22m0-4c-14.3 0-26 11.7-26 26 0 2.2 1.8 4 4 4h44c2.2 0 4-1.8 4-4 0-14.3-11.7-26-26-26z"/></g><g fill="#563D89"><path d="M2762 918c-4.4 0-8-3.6-8-8v-4c0-1.1.9-2 2-2h12c1.1 0 2 .9 2 2v4c0 4.4-3.6 8-8 8z"/><path d="M2768 906v4c0 3.3-2.7 6-6 6s-6-2.7-6-6v-4h12m0-4h-12c-2.2 0-4 1.8-4 4v4c0 5.5 4.5 10 10 10s10-4.5 10-10v-4c0-2.2-1.8-4-4-4z"/></g><g fill="#563D89"><path d="M2786 918c-4.4 0-8-3.6-8-8v-4c0-1.1.9-2 2-2h12c1.1 0 2 .9 2 2v4c0 4.4-3.6 8-8 8z"/><path d="M2792 906v4c0 3.3-2.7 6-6 6s-6-2.7-6-6v-4h12m0-4h-12c-2.2 0-4 1.8-4 4v4c0 5.5 4.5 10 10 10s10-4.5 10-10v-4c0-2.2-1.8-4-4-4z"/></g><g fill="#976AEF"><path d="M2764 970c-1.1 0-2-.9-2-2v-16c0-1.1.9-2 2-2h4c1.1 0 2 .9 2 2v16c0 1.1-.9 2-2 2h-4z"/><path d="M2768 952v16h-4v-16h4m0-4h-4c-2.2 0-4 1.8-4 4v16c0 2.2 1.8 4 4 4h4c2.2 0 4-1.8 4-4v-16c0-2.2-1.8-4-4-4z"/></g><path fill="none" stroke="#976AEF" stroke-width="16" stroke-linecap="round" stroke-linejoin="round" stroke-miterlimit="10" d="M2684 956c-11.6 37.1 32 40 32 40l32-16"/><path fill="#563D89" d="M2672 970c-1.1 0-2-.9-2-2v-36c0-1.1.9-2 2-2h20c1.1 0 2 .9 2 2v36c0 1.1-.9 2-2 2h-20z"/><path fill="#563D89" d="M2692 932v36h-20v-36h20m0-4h-20c-2.2 0-4 1.8-4 4v36c0 2.2 1.8 4 4 4h20c2.2 0 4-1.8 4-4v-36c0-2.2-1.8-4-4-4z"/><g fill="#563D89"><path d="M2752.1 1026c-1.1 0-2-.9-2-2v-52.5c-.2-2.2 0-3.7 0-3.8.1-1 1-1.8 2-1.8h.1c1.1.1 1.9.9 1.9 2v3.4c.5 4.9 2.9 10.6 12 10.6s11.5-5.8 12-10.6V968c0-1.1.8-1.9 1.9-2h.1c1 0 1.9.7 2 1.8 0 .1.2 1.6 0 3.8v52.5c0 1.1-.9 2-2 2h-28z"/><path d="M2780.1 968s.2 1.4 0 3.5V968m-28 0v3.5c-.2-2.1 0-3.5 0-3.5m28 3.5v52.5h-28v-52.5c.4 4.7 2.8 12.5 14 12.5s13.6-7.8 14-12.5m0-7.5h-.3c-2.1.1-3.8 1.9-3.8 4v3.3c-.9 8.7-7.7 8.7-10 8.7-9 0-9.8-6.4-10-8.7V968c0-2.1-1.6-3.9-3.8-4h-.3c-2 0-3.7 1.5-4 3.5 0 .2-.2 1.8 0 4.1v52.4c0 2.2 1.8 4 4 4h28c2.2 0 4-1.8 4-4v-52.4c.2-2.3 0-3.9 0-4.1-.1-2-1.8-3.5-3.8-3.5z"/></g><path clip-rule="evenodd" fill="none" stroke="#563D89" stroke-width="2" stroke-linecap="round" stroke-linejoin="round" stroke-miterlimit="10" d="M2666 912v-12l12 4v10"/><circle fill-rule="evenodd" clip-rule="evenodd" fill="#563D89" cx="2664" cy="912" r="4"/><path clip-rule="evenodd" fill="none" stroke="#563D89" stroke-width="4" stroke-linecap="round" stroke-linejoin="round" stroke-miterlimit="10" d="M2684 884l4-4v-24l24 8v24l-4 4M2688 864l24 8"/><circle fill-rule="evenodd" clip-rule="evenodd" fill="#563D89" cx="2684" cy="884" r="8"/><circle fill-rule="evenodd" clip-rule="evenodd" fill="#563D89" cx="2708" cy="892" r="8"/><circle fill-rule="evenodd" clip-rule="evenodd" fill="#563D89" cx="2676" cy="916" r="4"/><path fill="#563D89" stroke="#563D89" stroke-width="4" stroke-linecap="round" stroke-linejoin="round" stroke-miterlimit="10" d="M2752 966s-8-2-16 10l8 16s8-4 12 0l-4-26zM2780 966s8-2 16 10l-8 16s-8-4-12 0l4-26z"/><path fill="#976AEF" d="M2676 958c-1.1 0-2-.9-2-2v-20c0-1.1.9-2 2-2h12c1.1 0 2 .9 2 2v20c0 1.1-.9 2-2 2h-12z"/><path fill="#976AEF" d="M2688 936v20h-12v-20h12m0-4h-12c-2.2 0-4 1.8-4 4v20c0 2.2 1.8 4 4 4h12c2.2 0 4-1.8 4-4v-20c0-2.2-1.8-4-4-4z"/><circle fill="#976AEF" cx="2682" cy="966" r="2"/><path fill="#563D89" stroke="#563D89" stroke-width="8" stroke-linecap="round" stroke-linejoin="round" stroke-miterlimit="10" d="M2964 844v20"/><circle fill="#563D89" cx="2964" cy="876" r="4"/><path fill="#563D89" stroke="#563D89" stroke-width="4" stroke-linecap="round" stroke-linejoin="round" stroke-miterlimit="10" d="M3494 898v-6M3500 898l4-6M3488 898l-4-6"/><path fill="none" stroke="#563D89" stroke-width="8" stroke-linecap="round" stroke-linejoin="round" stroke-miterlimit="10" d="M3088 840c0-4.4 3.6-8 8-8s8 3.6 8 8-3.6 8-8 8v8"/><circle fill="#563D89" cx="3096" cy="868" r="4"/><defs><path id="k" d="M1996 1024c0 8.8-7.2 16-16 16h-140c-8.8 0-16-7.2-16-16V836c0-8.8 7.2-16 16-16h140c8.8 0 16 7.2 16 16v188z"/></defs><clipPath id="l"><use xlink:href="#k" overflow="visible"/></clipPath><path clip-path="url(#l)" fill="#563D89" stroke="#563D89" stroke-width="4" stroke-linecap="round" stroke-linejoin="round" stroke-miterlimit="10" d="M1880 1032l48-4v12h-48z"/><circle fill="#976AEF" cx="3180" cy="1044" r="8"/><circle fill="#976AEF" cx="3172" cy="1040" r="4"/><defs><path id="m" d="M3424 1024c0 8.8-7.2 16-16 16h-128c-8.8 0-16-7.2-16-16V836c0-8.8 7.2-16 16-16h128c8.8 0 16 7.2 16 16v188z"/></defs><clipPath id="n"><use xlink:href="#m" overflow="visible"/></clipPath><path clip-path="url(#n)" fill="#563D89" d="M3264 1016h72v24h-72z"/><path fill="#976AEF" d="M2072 928c-7.7 0-14-6.3-14-14v-30l-1-21.9c0-.5.2-1.1.6-1.5.4-.4.9-.6 1.4-.6h41c1.1 0 2 .9 2 2v52c0 3.7-1.5 7.3-4.1 9.9s-6.2 4.1-9.9 4.1h-16z"/><path fill="#976AEF" d="M2100 862v52c0 6.6-5.4 12-12 12h-16c-6.6 0-12-5.4-12-12v-30l-1-22h41m0-4h-41c-1.1 0-2.1.4-2.9 1.2-.8.8-1.2 1.9-1.1 2.9l1 21.9v29.9c0 8.8 7.2 16 16 16h16c8.8 0 15.9-7.1 16-15.8v-.2V862c0-2.2-1.8-4-4-4z"/><g fill="#976AEF"><path d="M2077 940c-1.1 0-2-.9-2-2v-12c0-1.1.9-2 2-2h8c1.1 0 2 .9 2 2v12c0 1.1-.9 2-2 2h-8z"/><path d="M2085 926v12h-8v-12h8m0-4h-8c-2.2 0-4 1.8-4 4v12c0 2.2 1.8 4 4 4h8c2.2 0 4-1.8 4-4v-12c0-2.2-1.8-4-4-4z"/></g><path fill="#563D89" d="M2103 1020c-.2 0-.4 0-.6-.1l-43-14c-.8-.3-1.4-1-1.4-1.9v-63c0-.5.2-1.1.6-1.4.4-.4.9-.6 1.4-.6l44 1c1.1 0 2 .9 2 2l-1 76c0 .6-.3 1.2-.8 1.6-.4.3-.8.4-1.2.4z"/><path fill="#563D89" d="M2060 941l44 1-1 76-43-14v-63m0-4c-1 0-2 .4-2.8 1.1-.8.8-1.2 1.8-1.2 2.9v63c0 1.7 1.1 3.3 2.8 3.8l43 14c.4.1.8.2 1.2.2.8 0 1.6-.3 2.3-.7 1-.7 1.7-1.9 1.7-3.2l1-76c0-2.2-1.7-4-3.9-4.1l-44.1-1c.1 0 0 0 0 0z"/><path fill="none" stroke="#563D89" stroke-width="4" stroke-linecap="round" stroke-linejoin="round" stroke-miterlimit="10" d="M2089 884c0-2.2 1.8-4 4-4s4 1.8 4 4"/><path fill="#976AEF" d="M2101 902c-1.1 0-2-.9-2-2v-8c0-1.1.9-2 2-2h10c1.1 0 2 .9 2 2v8c0 1.1-.9 2-2 2h-10z"/><path fill="#976AEF" d="M2111 892v8h-10v-8h10m0-4h-10c-2.2 0-4 1.8-4 4v8c0 2.2 1.8 4 4 4h10c2.2 0 4-1.8 4-4v-8c0-2.2-1.8-4-4-4z"/><path fill="#976AEF" d="M2113 902c-3.3 0-6-2.7-6-6s2.7-6 6-6 6 2.7 6 6-2.7 6-6 6z"/><path fill="#976AEF" d="M2113 892c2.2 0 4 1.8 4 4s-1.8 4-4 4-4-1.8-4-4 1.8-4 4-4m0-4c-4.4 0-8 3.6-8 8s3.6 8 8 8 8-3.6 8-8-3.6-8-8-8z"/><path fill="none" stroke="#976AEF" stroke-width="18" stroke-linecap="round" stroke-linejoin="round" stroke-miterlimit="10" d="M2020.3 1011c-7-6.9-11.3-16.5-11.3-27 0-21 17-38 38-38"/><path fill="#563D89" d="M2007.9 1010.1c-5.2-7.8-8-16.8-8-26.2 0-25.9 21.1-47 47-47h14c5 0 9 4 9 9s-4 9-9 9h-14c-16 0-29 13-29 29 0 5.8 1.7 11.4 4.9 16.1l-14.9 10.1z"/><path fill="none" stroke="#563D89" stroke-width="4" stroke-linecap="round" stroke-miterlimit="10" d="M2093 912v-8h12v8"/><path fill="none" stroke="#976AEF" stroke-width="18" stroke-linecap="round" stroke-linejoin="round" stroke-miterlimit="10" d="M2104 947.7c6.9 7 16.5 11.3 27 11.3 21 0 38-17 38-38 0-8.8-3-17-8.1-23.4"/><path fill="none" stroke="#563D89" stroke-width="18" stroke-linecap="round" stroke-linejoin="round" stroke-miterlimit="10" d="M2104 947.7c6.9 7 16.5 11.3 27 11.3 21 0 38-17 38-38"/><g stroke-linecap="round" stroke-linejoin="round" stroke-miterlimit="10"><path fill="#563D89" stroke="#563D89" stroke-width="3.99992" d="M2156.796 909.913l-7.642-18.482 20.33-8.406 7.642 18.482z"/><circle fill="#563D89" stroke="#563D89" stroke-width="4" cx="2154.6" cy="904.3" r="6"/><circle fill="#563D89" stroke="#563D89" stroke-width="4" cx="2151.6" cy="897" r="6"/><path fill="#563D89" stroke="#563D89" stroke-width="4.00008" d="M2133.574 910.875l-1.528-3.697 18.482-7.644 1.528 3.697z"/><path fill="none" stroke="#976AEF" stroke-width="2" d="M2164.3 906.8l-5.2-2.1M2160.6 908.4l2.2-5.3M2161.2 899.4l-5.2-2.1M2157.6 901l2.1-5.3M2158.2 892l-5.2-2.1M2154.5 893.6l2.2-5.3"/></g><g><path fill="#563D89" d="M2136 876c2.2 0 4 1.8 4 4s-1.8 4-4 4-4-1.8-4-4 1.8-4 4-4m0-4c-4.4 0-8 3.6-8 8s3.6 8 8 8 8-3.6 8-8-3.6-8-8-8z"/></g><g><path fill="#563D89" d="M2122 860c1.1 0 2 .9 2 2s-.9 2-2 2-2-.9-2-2 .9-2 2-2m0-4c-3.3 0-6 2.7-6 6s2.7 6 6 6 6-2.7 6-6-2.7-6-6-6z"/></g><ellipse fill="#563D89" stroke="#563D89" stroke-width="4" stroke-linecap="round" stroke-linejoin="round" stroke-miterlimit="10" cx="2103" cy="992" rx="10" ry="28"/><path fill="#563D89" stroke="#563D89" stroke-width="4" stroke-linecap="round" stroke-linejoin="round" stroke-miterlimit="10" d="M2056 860s24 8 40 0c0 0 4-4 4-12 0 0-36 8-44 4v8z"/><path opacity=".5" fill="#563D89" stroke="#563D89" stroke-width="4" stroke-linecap="round" stroke-linejoin="round" stroke-miterlimit="10" d="M2072 860v20l-16 16v-36"/><g fill="none" stroke="#563D89" stroke-width="4" stroke-linecap="round" stroke-linejoin="round" stroke-miterlimit="10"><path d="M2146 837.6V832M2146 860v-5.6"/></g><g fill="none" stroke="#563D89" stroke-width="4" stroke-linecap="round" stroke-linejoin="round" stroke-miterlimit="10"><path d="M2146 837.6V832M2146 860v-5.6"/></g><g fill="none" stroke="#563D89" stroke-width="4" stroke-linecap="round" stroke-linejoin="round" stroke-miterlimit="10"><path d="M2146 837.6V832M2146 860v-5.6"/></g><g fill="none" stroke="#563D89" stroke-width="4" stroke-linecap="round" stroke-linejoin="round" stroke-miterlimit="10"><path d="M2140.1 840.1l-4-4M2155.9 855.9l-4-4"/></g><g fill="none" stroke="#563D89" stroke-width="4" stroke-linecap="round" stroke-linejoin="round" stroke-miterlimit="10"><path d="M2140.1 840.1l-4-4M2155.9 855.9l-4-4"/></g><g fill="none" stroke="#563D89" stroke-width="4" stroke-linecap="round" stroke-linejoin="round" stroke-miterlimit="10"><path d="M2140.1 840.1l-4-4M2155.9 855.9l-4-4"/></g><g fill="none" stroke="#563D89" stroke-width="4" stroke-linecap="round" stroke-linejoin="round" stroke-miterlimit="10"><path d="M2137.6 846h-5.6M2160 846h-5.6"/></g><g fill="none" stroke="#563D89" stroke-width="4" stroke-linecap="round" stroke-linejoin="round" stroke-miterlimit="10"><path d="M2137.6 846h-5.6M2160 846h-5.6"/></g><g fill="none" stroke="#563D89" stroke-width="4" stroke-linecap="round" stroke-linejoin="round" stroke-miterlimit="10"><path d="M2137.6 846h-5.6M2160 846h-5.6"/></g><g fill="none" stroke="#563D89" stroke-width="4" stroke-linecap="round" stroke-linejoin="round" stroke-miterlimit="10"><path d="M2140.1 851.9l-4 4M2155.9 836.1l-4 4"/></g><g fill="none" stroke="#563D89" stroke-width="4" stroke-linecap="round" stroke-linejoin="round" stroke-miterlimit="10"><path d="M2140.1 851.9l-4 4M2155.9 836.1l-4 4"/></g><g fill="none" stroke="#563D89" stroke-width="4" stroke-linecap="round" stroke-linejoin="round" stroke-miterlimit="10"><path d="M2140.1 851.9l-4 4M2155.9 836.1l-4 4"/></g><g fill="none" stroke="#563D89" stroke-width="4" stroke-linecap="round" stroke-linejoin="round" stroke-miterlimit="10"><path d="M2030 873.6V868M2030 896v-5.6"/></g><g fill="none" stroke="#563D89" stroke-width="4" stroke-linecap="round" stroke-linejoin="round" stroke-miterlimit="10"><path d="M2030 873.6V868M2030 896v-5.6"/></g><g fill="none" stroke="#563D89" stroke-width="4" stroke-linecap="round" stroke-linejoin="round" stroke-miterlimit="10"><path d="M2030 873.6V868M2030 896v-5.6"/></g><g fill="none" stroke="#563D89" stroke-width="4" stroke-linecap="round" stroke-linejoin="round" stroke-miterlimit="10"><path d="M2024.1 876.1l-4-4M2039.9 891.9l-4-4"/></g><g fill="none" stroke="#563D89" stroke-width="4" stroke-linecap="round" stroke-linejoin="round" stroke-miterlimit="10"><path d="M2024.1 876.1l-4-4M2039.9 891.9l-4-4"/></g><g fill="none" stroke="#563D89" stroke-width="4" stroke-linecap="round" stroke-linejoin="round" stroke-miterlimit="10"><path d="M2024.1 876.1l-4-4M2039.9 891.9l-4-4"/></g><g fill="none" stroke="#563D89" stroke-width="4" stroke-linecap="round" stroke-linejoin="round" stroke-miterlimit="10"><path d="M2021.6 882h-5.6M2044 882h-5.6"/></g><g fill="none" stroke="#563D89" stroke-width="4" stroke-linecap="round" stroke-linejoin="round" stroke-miterlimit="10"><path d="M2021.6 882h-5.6M2044 882h-5.6"/></g><g fill="none" stroke="#563D89" stroke-width="4" stroke-linecap="round" stroke-linejoin="round" stroke-miterlimit="10"><path d="M2021.6 882h-5.6M2044 882h-5.6"/></g><g fill="none" stroke="#563D89" stroke-width="4" stroke-linecap="round" stroke-linejoin="round" stroke-miterlimit="10"><path d="M2024.1 887.9l-4 4M2039.9 872.1l-4 4"/></g><g fill="none" stroke="#563D89" stroke-width="4" stroke-linecap="round" stroke-linejoin="round" stroke-miterlimit="10"><path d="M2024.1 887.9l-4 4M2039.9 872.1l-4 4"/></g><g fill="none" stroke="#563D89" stroke-width="4" stroke-linecap="round" stroke-linejoin="round" stroke-miterlimit="10"><path d="M2024.1 887.9l-4 4M2039.9 872.1l-4 4"/></g><g><defs><path id="o" d="M2188 1024c0 8.8-7.2 16-16 16h-356c-8.8 0-16-7.2-16-16V836c0-8.8 7.2-16 16-16h356c8.8 0 16 7.2 16 16v188z"/></defs><clipPath id="p"><use xlink:href="#o" overflow="visible"/></clipPath><g clip-path="url(#p)" fill="#563D89"><path d="M2061 1042c-1.1 0-2-.9-2-2v-24c0-.7.3-1.3.9-1.7.3-.2.7-.3 1.1-.3.3 0 .5 0 .7.1l40 16c.8.3 1.3 1 1.3 1.9v8c0 1.1-.9 2-2 2h-40z"/><path d="M2061 1016l40 16v8h-40v-24m0-4c-.8 0-1.6.2-2.2.7-1.1.7-1.8 2-1.8 3.3v24c0 2.2 1.8 4 4 4h40c2.2 0 4-1.8 4-4v-8c0-1.6-1-3.1-2.5-3.7l-40-16c-.5-.2-1-.3-1.5-.3z"/></g></g><g><defs><path id="q" d="M2212 1024c0 8.8-7.2 16-16 16h-356c-8.8 0-16-7.2-16-16V836c0-8.8 7.2-16 16-16h356c8.8 0 16 7.2 16 16v188z"/></defs><clipPath id="r"><use xlink:href="#q" overflow="visible"/></clipPath><path clip-path="url(#r)" fill="none" stroke="#563D89" stroke-width="8" stroke-linecap="round" stroke-linejoin="round" stroke-miterlimit="10" d="M1840 992l-92-104"/></g></g><g><ellipse fill="#B82266" stroke="#B82266" stroke-width="4" stroke-linecap="round" stroke-linejoin="round" stroke-miterlimit="10" cx="2432" cy="980" rx="46" ry="24"/><path fill="none" stroke="#B82266" stroke-width="24" stroke-linecap="round" stroke-linejoin="round" stroke-miterlimit="10" d="M2460 972s20 16 44 44 32-16 48-16M2404 972s-20 16-44 44 36 48 20 48"/><path fill="#B82266" d="M2552 988h4v24h-4z"/><path fill="#E1A987" d="M2556 988h16v12h-16z"/><circle fill="#E1A987" cx="2578" cy="994" r="14"/><g fill="#B82266"><path d="M2470.3 1044c0 1.1-.9 2-2 2h-72c-1.1 0-2-.9-2-2v-64c0-1.1.9-2 2-2h72c1.1 0 2 .9 2 2v64z"/><path d="M2468.3 980v64h-72v-64h72m-.3-4h-72c-2.2 0-3.7 1.8-3.7 4v64c0 2.2 1.5 4 3.7 4h72c2.2 0 4.3-1.8 4.3-4v-64c0-2.2-2-4-4.2-4h-.1z"/></g><path fill="#563D89" d="M2576 820h8v220h-8z"/></g><g fill="#E6711B" stroke="#E6711B" stroke-width="4" stroke-linecap="round" stroke-linejoin="round" stroke-miterlimit="10"><path d="M2500 933.3s-16-17.3-28-17.3-28 11.2-28 11.2l8-15.2h48l4 8M2512 856s-16 16-28 16-24-9.3-24-9.3l4 13.3h48l4-8"/><circle cx="2540" cy="900" r="52"/><circle cx="2430" cy="896" r="44"/><path d="M2456 876h40v36h-40z"/></g><g fill="#E1A987"><circle cx="2432" cy="904" r="38"/><circle cx="2396" cy="898" r="6"/><circle cx="2468" cy="898" r="6"/><path d="M2424 940h16v20h-16z"/><circle cx="2432" cy="960" r="8"/></g><g><path fill="none" stroke="#B25416" stroke-width="4" stroke-linecap="round" stroke-linejoin="round" stroke-miterlimit="10" d="M2426.8 894.3c-4.5-4.3-8.9 2.1-8.9 2.1"/><circle fill="#E09A73" cx="2412" cy="918" r="6"/><circle fill="#E09A73" cx="2452" cy="918" r="6"/><circle fill="#333" cx="2424" cy="902" r="2"/><circle fill="#333" cx="2444" cy="902" r="2"/><path fill="none" stroke="#333" stroke-width="3" stroke-linecap="round" stroke-linejoin="round" stroke-miterlimit="10" d="M2434 908l4 8h-4"/><path fill="#333" d="M2426 925c-.6 0-1-.4-1-1s.4-1 1-1h4c.6 0 1 .4 1 1s-.4 1-1 1h-4z"/><path fill="#033333" d="M2430 924h-4 4m0-2h-4c-1.1 0-2 .9-2 2s.9 2 2 2h4c1.1 0 2-.9 2-2s-.9-2-2-2z"/><path fill="none" stroke="#B25416" stroke-width="4" stroke-linecap="round" stroke-linejoin="round" stroke-miterlimit="10" d="M2440 899h8"/></g><g><g fill="#E6711B"><path d="M2470 890h-.3l-72-12c-.8-.1-1.5-.8-1.6-1.6-.1-.8.2-1.7 1-2.1l28-16c.3-.2.6-.3 1-.3.2 0 .3 0 .5.1l32 8c.5.1 1 .5 1.2.9l12 20c.4.7.4 1.5-.1 2.2-.4.5-1 .8-1.7.8z"/><path d="M2426 860l32 8 12 20-72-12 28-16m0-4c-.7 0-1.4.2-2 .5l-28 16c-1.5.8-2.3 2.5-2 4.2s1.6 3 3.3 3.2l72 12c.2 0 .4.1.7.1 1.3 0 2.6-.6 3.3-1.7.9-1.3.9-3 .1-4.3l-12-20c-.5-.9-1.4-1.6-2.5-1.8l-32-8c-.2-.2-.6-.2-.9-.2z"/></g></g><g fill="#36234D"><path d="M2249 1040h398v24h-398zM2280 808h368v12h-368z"/></g><g><path opacity=".2" fill="#FFF" d="M2624 1024c0 8.8-7.2 16-16 16h-356c-8.8 0-16-7.2-16-16V836c0-8.8 7.2-16 16-16h356c8.8 0 16 7.2 16 16v188z"/><path fill="#AFB6E2" d="M1848 1102.2c-1.1 0-2-.9-2-2v-32c0-1.1.9-2 2-2h958.8c1.1 0 2 .9 2 2v32c0 1.1-.9 2-2 2H1848z"/><path fill="#AFB6E2" d="M2806.8 1068.2v32H1848v-32h958.8m0-4H1848c-2.2 0-4 1.8-4 4v32c0 2.2 1.8 4 4 4h958.8c2.2 0 4-1.8 4-4v-32c0-2.2-1.8-4-4-4z"/><path opacity=".2" fill="#FFF" d="M2212 1024c0 8.8-7.2 16-16 16h-356c-8.8 0-16-7.2-16-16V836c0-8.8 7.2-16 16-16h356c8.8 0 16 7.2 16 16v188zM3836 1024c0 8.8-7.2 16-16 16h-356c-8.8 0-16-7.2-16-16V836c0-8.8 7.2-16 16-16h356c8.8 0 16 7.2 16 16v188zM4248 1024c0 8.8-7.2 16-16 16h-356c-8.8 0-16-7.2-16-16V836c0-8.8 7.2-16 16-16h356c8.8 0 16 7.2 16 16v188zM4660 1024c0 8.8-7.2 16-16 16h-356c-8.8 0-16-7.2-16-16V836c0-8.8 7.2-16 16-16h356c8.8 0 16 7.2 16 16v188zM5072 1024c0 8.8-7.2 16-16 16h-356c-8.8 0-16-7.2-16-16V836c0-8.8 7.2-16 16-16h356c8.8 0 16 7.2 16 16v188z"/><g opacity=".2"><path fill="#FFF" d="M3080 1054c-1.1 0-2-.9-2-2V776c0-1.1.9-2 2-2h108c1.1 0 2 .9 2 2v276c0 1.1-.9 2-2 2h-108z"/><path fill="#FFF" d="M3188 776v276h-108V776h108m0-4h-108c-2.2 0-4 1.8-4 4v276c0 2.2 1.8 4 4 4h108c2.2 0 4-1.8 4-4V776c0-2.2-1.8-4-4-4z"/></g><g opacity=".2"><path fill="#FFF" d="M2884 1054c-1.1 0-2-.9-2-2V776c0-1.1.9-2 2-2h108c1.1 0 2 .9 2 2v276c0 1.1-.9 2-2 2h-108z"/><path fill="#FFF" d="M2992 776v276h-108V776h108m0-4h-108c-2.2 0-4 1.8-4 4v276c0 2.2 1.8 4 4 4h108c2.2 0 4-1.8 4-4V776c0-2.2-1.8-4-4-4z"/></g><path opacity=".2" fill="#FFF" d="M2808 1024c0 8.8-7.2 16-16 16h-128c-8.8 0-16-7.2-16-16V836c0-8.8 7.2-16 16-16h128c8.8 0 16 7.2 16 16v188zM3424 1024c0 8.8-7.2 16-16 16h-128c-8.8 0-16-7.2-16-16V836c0-8.8 7.2-16 16-16h128c8.8 0 16 7.2 16 16v188z"/><path fill="#7B51BD" d="M1632 1024h-80c-8.8 0-16-7.2-16-16V906c0-8.8 7.2-16 16-16h80v134z"/><path opacity=".2" fill="#FFF" d="M1632 1024h-80c-8.8 0-16-7.2-16-16V906c0-8.8 7.2-16 16-16h80v134zM1788 1088.2c0 8.8-7.2 16-16 16h-88c-8.8 0-16-7.2-16-16v-252c0-8.8 7.2-16 16-16h88c8.8 0 16 7.2 16 16v252z"/></g><g><path opacity=".2" fill="none" stroke="#FFF" stroke-width="2" stroke-linecap="round" stroke-linejoin="round" stroke-miterlimit="10" d="M2788 838v30"/><path fill="#FFF" d="M2760 888c2.2 0 4 1.8 4 4s-1.8 4-4 4-4-1.8-4-4 1.8-4 4-4m0-2c-3.3 0-6 2.7-6 6s2.7 6 6 6 6-2.7 6-6-2.7-6-6-6zM2698 1024c1.1 0 2 .9 2 2s-.9 2-2 2-2-.9-2-2 .9-2 2-2m0-2c-2.2 0-4 1.8-4 4s1.8 4 4 4 4-1.8 4-4-1.8-4-4-4z" opacity=".2"/><path opacity=".2" fill="none" stroke="#FFF" stroke-width="2" stroke-linecap="round" stroke-linejoin="round" stroke-miterlimit="10" d="M2662 986v54M2782 936v54M2764 820v36M2740 820v132M2656 820v40M2724 820v92M2756 820v8M2772 820v16"/><path fill="#FFF" d="M2408 984c2.2 0 4 1.8 4 4s-1.8 4-4 4-4-1.8-4-4 1.8-4 4-4m0-2c-3.3 0-6 2.7-6 6s2.7 6 6 6 6-2.7 6-6-2.7-6-6-6zM2600 1008c4.4 0 8 3.6 8 8s-3.6 8-8 8-8-3.6-8-8 3.6-8 8-8m0-2c-5.5 0-10 4.5-10 10s4.5 10 10 10 10-4.5 10-10-4.5-10-10-10zM2478 952c1.1 0 2 .9 2 2s-.9 2-2 2-2-.9-2-2 .9-2 2-2m0-2c-2.2 0-4 1.8-4 4s1.8 4 4 4 4-1.8 4-4-1.8-4-4-4zM2598 848c1.1 0 2 .9 2 2s-.9 2-2 2-2-.9-2-2 .9-2 2-2m0-2c-2.2 0-4 1.8-4 4s1.8 4 4 4 4-1.8 4-4-1.8-4-4-4z" opacity=".2"/><path opacity=".2" fill="none" stroke="#FFF" stroke-width="2" stroke-linecap="round" stroke-linejoin="round" stroke-miterlimit="10" d="M2396 838v30M2600 912v88M2500 860v4M2500 824v32"/><path fill="#FFF" d="M2270 832c1.1 0 2 .9 2 2s-.9 2-2 2-2-.9-2-2 .9-2 2-2m0-2c-2.2 0-4 1.8-4 4s1.8 4 4 4 4-1.8 4-4-1.8-4-4-4zM2314 980c1.1 0 2 .9 2 2s-.9 2-2 2-2-.9-2-2 .9-2 2-2m0-2c-2.2 0-4 1.8-4 4s1.8 4 4 4 4-1.8 4-4-1.8-4-4-4zM2294 1024c1.1 0 2 .9 2 2s-.9 2-2 2-2-.9-2-2 .9-2 2-2m0-2c-2.2 0-4 1.8-4 4s1.8 4 4 4 4-1.8 4-4-1.8-4-4-4z" opacity=".2"/><path opacity=".2" fill="none" stroke="#FFF" stroke-width="2" stroke-linecap="round" stroke-linejoin="round" stroke-miterlimit="10" d="M2270 902v50M2270 1020v20M2378 912v78M2360 820v24M2500 880v108M2536 820v88M2524 820v16M2256 820v16M2300 820v92M2352 820v44M2544 972v68M2368 820v16M3412 838.8V904"/><path fill="#FFF" d="M3322 1024.8c1.1 0 2 .9 2 2s-.9 2-2 2-2-.9-2-2 .9-2 2-2m0-2c-2.2 0-4 1.8-4 4s1.8 4 4 4 4-1.8 4-4-1.8-4-4-4z" opacity=".2"/><path opacity=".2" fill="none" stroke="#FFF" stroke-width="2" stroke-linecap="round" stroke-linejoin="round" stroke-miterlimit="10" d="M3286 985.8v54M3286 952v18M3384 984v6.8M3388 900v6.8M3384 956v20M3388 820.8V892M3304 820.8v132M3280 820.8V896M3348 820.8V852M3380 820.8v8M3396 820.8V872"/><path fill="#FFF" d="M3412 914c1.1 0 2 .9 2 2s-.9 2-2 2-2-.9-2-2 .9-2 2-2m0-2c-2.2 0-4 1.8-4 4s1.8 4 4 4 4-1.8 4-4-1.8-4-4-4zM3348 868c4.4 0 8 3.6 8 8s-3.6 8-8 8-8-3.6-8-8 3.6-8 8-8m0-2c-5.5 0-10 4.5-10 10s4.5 10 10 10 10-4.5 10-10-4.5-10-10-10zM3588 1012c2.2 0 4 1.8 4 4s-1.8 4-4 4-4-1.8-4-4 1.8-4 4-4m0-2c-3.3 0-6 2.7-6 6s2.7 6 6 6 6-2.7 6-6-2.7-6-6-6zM3712 1009c4.4 0 8 3.6 8 8s-3.6 8-8 8-8-3.6-8-8 3.6-8 8-8m0-2c-5.5 0-10 4.5-10 10s4.5 10 10 10 10-4.5 10-10-4.5-10-10-10zM3686 953c1.1 0 2 .9 2 2s-.9 2-2 2-2-.9-2-2 .9-2 2-2m0-2c-2.2 0-4 1.8-4 4s1.8 4 4 4 4-1.8 4-4-1.8-4-4-4zM3750 849c1.1 0 2 .9 2 2s-.9 2-2 2-2-.9-2-2 .9-2 2-2m0-2c-2.2 0-4 1.8-4 4s1.8 4 4 4 4-1.8 4-4-1.8-4-4-4z" opacity=".2"/><path opacity=".2" fill="none" stroke="#FFF" stroke-width="2" stroke-linecap="round" stroke-linejoin="round" stroke-miterlimit="10" d="M3604 839v30M3712 952v49M3636 861v4M3772 852v4M3636 825v32"/><path fill="#FFF" d="M3478 833c1.1 0 2 .9 2 2s-.9 2-2 2-2-.9-2-2 .9-2 2-2m0-2c-2.2 0-4 1.8-4 4s1.8 4 4 4 4-1.8 4-4-1.8-4-4-4zM3478 1004c1.1 0 2 .9 2 2s-.9 2-2 2-2-.9-2-2 .9-2 2-2m0-2c-2.2 0-4 1.8-4 4s1.8 4 4 4 4-1.8 4-4-1.8-4-4-4z" opacity=".2"/><path opacity=".2" fill="none" stroke="#FFF" stroke-width="2" stroke-linecap="round" stroke-linejoin="round" stroke-miterlimit="10" d="M3478 903v89M3508 1003v37M3496 968v72M3544 876v115M3616 876v36M3568 820v24M3636 881v108M3672 820v15M3660 820v99M3712 820v99M3772 876v44M3772 820v24M3464 820v75M3508 820v92M3736 896v53M3544 820v15M3752 972v68M3576 820v16M3464 901.2v6.8M3516 1032v8"/><path fill="#FFF" d="M4000 1012c2.2 0 4 1.8 4 4s-1.8 4-4 4-4-1.8-4-4 1.8-4 4-4m0-2c-3.3 0-6 2.7-6 6s2.7 6 6 6 6-2.7 6-6-2.7-6-6-6zM4124 1009c4.4 0 8 3.6 8 8s-3.6 8-8 8-8-3.6-8-8 3.6-8 8-8m0-2c-5.5 0-10 4.5-10 10s4.5 10 10 10 10-4.5 10-10-4.5-10-10-10zM4098 953c1.1 0 2 .9 2 2s-.9 2-2 2-2-.9-2-2 .9-2 2-2m0-2c-2.2 0-4 1.8-4 4s1.8 4 4 4 4-1.8 4-4-1.8-4-4-4zM4162 849c1.1 0 2 .9 2 2s-.9 2-2 2-2-.9-2-2 .9-2 2-2m0-2c-2.2 0-4 1.8-4 4s1.8 4 4 4 4-1.8 4-4-1.8-4-4-4z" opacity=".2"/><path opacity=".2" fill="none" stroke="#FFF" stroke-width="2" stroke-linecap="round" stroke-linejoin="round" stroke-miterlimit="10" d="M4016 839v30M4124 952v49M4048 861v4M4184 852v4M4048 824v32"/><path fill="#FFF" d="M3890 833c1.1 0 2 .9 2 2s-.9 2-2 2-2-.9-2-2 .9-2 2-2m0-2c-2.2 0-4 1.8-4 4s1.8 4 4 4 4-1.8 4-4-1.8-4-4-4zM3890 1004c1.1 0 2 .9 2 2s-.9 2-2 2-2-.9-2-2 .9-2 2-2m0-2c-2.2 0-4 1.8-4 4s1.8 4 4 4 4-1.8 4-4-1.8-4-4-4z" opacity=".2"/><path opacity=".2" fill="none" stroke="#FFF" stroke-width="2" stroke-linecap="round" stroke-linejoin="round" stroke-miterlimit="10" d="M3890 903v89M3920 1003v37M3908 968v72M3956 876v115M4028 876v36M3980 820v24M4048 881v108M4084 820v15M4072 820v99M4124 820v99M4184 876v44M4184 820v24M3876 820v75M3920 820v92M4148 896v53M3956 820v15M4164 972v68M3988 820v16M3876 901.2v6.8M3928 1032v8"/><path fill="#FFF" d="M4412 1012c2.2 0 4 1.8 4 4s-1.8 4-4 4-4-1.8-4-4 1.8-4 4-4m0-2c-3.3 0-6 2.7-6 6s2.7 6 6 6 6-2.7 6-6-2.7-6-6-6zM4536 1009c4.4 0 8 3.6 8 8s-3.6 8-8 8-8-3.6-8-8 3.6-8 8-8m0-2c-5.5 0-10 4.5-10 10s4.5 10 10 10 10-4.5 10-10-4.5-10-10-10zM4510 953c1.1 0 2 .9 2 2s-.9 2-2 2-2-.9-2-2 .9-2 2-2m0-2c-2.2 0-4 1.8-4 4s1.8 4 4 4 4-1.8 4-4-1.8-4-4-4zM4574 849c1.1 0 2 .9 2 2s-.9 2-2 2-2-.9-2-2 .9-2 2-2m0-2c-2.2 0-4 1.8-4 4s1.8 4 4 4 4-1.8 4-4-1.8-4-4-4z" opacity=".2"/><path opacity=".2" fill="none" stroke="#FFF" stroke-width="2" stroke-linecap="round" stroke-linejoin="round" stroke-miterlimit="10" d="M4428 839v30M4536 952v49M4460 861v4M4596 852v4M4460 825v32"/><path fill="#FFF" d="M4302 833c1.1 0 2 .9 2 2s-.9 2-2 2-2-.9-2-2 .9-2 2-2m0-2c-2.2 0-4 1.8-4 4s1.8 4 4 4 4-1.8 4-4-1.8-4-4-4zM4302 1004c1.1 0 2 .9 2 2s-.9 2-2 2-2-.9-2-2 .9-2 2-2m0-2c-2.2 0-4 1.8-4 4s1.8 4 4 4 4-1.8 4-4-1.8-4-4-4z" opacity=".2"/><path opacity=".2" fill="none" stroke="#FFF" stroke-width="2" stroke-linecap="round" stroke-linejoin="round" stroke-miterlimit="10" d="M4302 903v89M4332 1003v37M4320 968v72M4368 876v115M4440 876v36M4392 820v24M4460 881v108M4496 820v15M4484 820v99M4536 820v99M4596 876v44M4596 820v24M4288 820v75M4332 820v92M4560 896v53M4368 820v15M4576 973v68M4400 820v16M4288 901.2v6.8M4340 1032v8"/><path fill="#FFF" d="M4824 1012c2.2 0 4 1.8 4 4s-1.8 4-4 4-4-1.8-4-4 1.8-4 4-4m0-2c-3.3 0-6 2.7-6 6s2.7 6 6 6 6-2.7 6-6-2.7-6-6-6zM4948 1009c4.4 0 8 3.6 8 8s-3.6 8-8 8-8-3.6-8-8 3.6-8 8-8m0-2c-5.5 0-10 4.5-10 10s4.5 10 10 10 10-4.5 10-10-4.5-10-10-10zM4922 953c1.1 0 2 .9 2 2s-.9 2-2 2-2-.9-2-2 .9-2 2-2m0-2c-2.2 0-4 1.8-4 4s1.8 4 4 4 4-1.8 4-4-1.8-4-4-4zM4986 849c1.1 0 2 .9 2 2s-.9 2-2 2-2-.9-2-2 .9-2 2-2m0-2c-2.2 0-4 1.8-4 4s1.8 4 4 4 4-1.8 4-4-1.8-4-4-4z" opacity=".2"/><path opacity=".2" fill="none" stroke="#FFF" stroke-width="2" stroke-linecap="round" stroke-linejoin="round" stroke-miterlimit="10" d="M4840 839v30M4948 952v49M4872 861v4M5008 852v4M4872 824v32"/><path fill="#FFF" d="M4714 833c1.1 0 2 .9 2 2s-.9 2-2 2-2-.9-2-2 .9-2 2-2m0-2c-2.2 0-4 1.8-4 4s1.8 4 4 4 4-1.8 4-4-1.8-4-4-4zM4714 1004c1.1 0 2 .9 2 2s-.9 2-2 2-2-.9-2-2 .9-2 2-2m0-2c-2.2 0-4 1.8-4 4s1.8 4 4 4 4-1.8 4-4-1.8-4-4-4z" opacity=".2"/><path opacity=".2" fill="none" stroke="#FFF" stroke-width="2" stroke-linecap="round" stroke-linejoin="round" stroke-miterlimit="10" d="M4714 903v89M4744 1003v37M4732 968v72M4780 876v115M4852 876v36M4804 820v24M4872 881v108M4908 820v15M4896 820v99M4948 820v99M5008 876v44M5008 820v24M4700 820v75M4744 820v92M4972 896v53M4780 820v15M4988 973v68M4812 820v16M4700 901.2v6.8M4752 1032v8M2988 772v17"/><path fill="#FFF" d="M2968 988c2.2 0 4 1.8 4 4s-1.8 4-4 4-4-1.8-4-4 1.8-4 4-4m0-2c-3.3 0-6 2.7-6 6s2.7 6 6 6 6-2.7 6-6-2.7-6-6-6zM2914 816c1.1 0 2 .9 2 2s-.9 2-2 2-2-.9-2-2 .9-2 2-2m0-2c-2.2 0-4 1.8-4 4s1.8 4 4 4 4-1.8 4-4-1.8-4-4-4z" opacity=".2"/><path opacity=".2" fill="none" stroke="#FFF" stroke-width="2" stroke-linecap="round" stroke-linejoin="round" stroke-miterlimit="10" d="M2924 1032v24M2980 889v54M2947 772v99M2972 1049v7M2896 772v40M2931 996v60M2963 772v8M2979 772v67"/><path fill="#FFF" d="M2072 1011c2.2 0 4 1.8 4 4s-1.8 4-4 4-4-1.8-4-4 1.8-4 4-4m0-2c-3.3 0-6 2.7-6 6s2.7 6 6 6 6-2.7 6-6-2.7-6-6-6zM1948 1008c4.4 0 8 3.6 8 8s-3.6 8-8 8-8-3.6-8-8 3.6-8 8-8m0-2c-5.5 0-10 4.5-10 10s4.5 10 10 10 10-4.5 10-10-4.5-10-10-10zM1974 952c1.1 0 2 .9 2 2s-.9 2-2 2-2-.9-2-2 .9-2 2-2m0-2c-2.2 0-4 1.8-4 4s1.8 4 4 4 4-1.8 4-4-1.8-4-4-4zM1910 848c1.1 0 2 .9 2 2s-.9 2-2 2-2-.9-2-2 .9-2 2-2m0-2c-2.2 0-4 1.8-4 4s1.8 4 4 4 4-1.8 4-4-1.8-4-4-4z" opacity=".2"/><path opacity=".2" fill="none" stroke="#FFF" stroke-width="2" stroke-linecap="round" stroke-linejoin="round" stroke-miterlimit="10" d="M1984 838v30M1948 951v49M2008 860v4M1888 851v4M2008 824v32M2000 987v-8M2000 1040v-44"/><path fill="#FFF" d="M2182 832c1.1 0 2 .9 2 2s-.9 2-2 2-2-.9-2-2 .9-2 2-2m0-2c-2.2 0-4 1.8-4 4s1.8 4 4 4 4-1.8 4-4-1.8-4-4-4zM2190 1016.2c1.1 0 2 .9 2 2s-.9 2-2 2-2-.9-2-2 .9-2 2-2m0-2c-2.2 0-4 1.8-4 4s1.8 4 4 4 4-1.8 4-4-1.8-4-4-4z" opacity=".2"/><path opacity=".2" fill="none" stroke="#FFF" stroke-width="2" stroke-linecap="round" stroke-linejoin="round" stroke-miterlimit="10" d="M2190 915.2v89M2152 1003v37M2164 968v72M2116 920.2v115M2040 920.2v36M2080 820v24M2008 880v108M1924 820v15M1948 820v99M1888 875v44M1888 819v24M1848 891v12M1848 819v64M2196 820v75M1924 895v53M1908 972v68M1848 1003v37M2072 820v75M2196 900.2v6.8M2144 1032v8M2988 1008v4M2972 1037v4M2988 972v32M2932 828v4M2932 791v32M2896 956v-4M2896 1032v-72"/><path fill="#FFF" d="M3092 1025c4.4 0 8 3.6 8 8s-3.6 8-8 8-8-3.6-8-8 3.6-8 8-8m0-2c-5.5 0-10 4.5-10 10s4.5 10 10 10 10-4.5 10-10-4.5-10-10-10zM3184 816c1.1 0 2 .9 2 2s-.9 2-2 2-2-.9-2-2 .9-2 2-2m0-2c-2.2 0-4 1.8-4 4s1.8 4 4 4 4-1.8 4-4-1.8-4-4-4z" opacity=".2"/><path opacity=".2" fill="none" stroke="#FFF" stroke-width="2" stroke-linecap="round" stroke-linejoin="round" stroke-miterlimit="10" d="M3092 968v49M3168 813v4M3128 784v4M3168 772v37M3144 940v-8M3144 992v-44M3184 828v36M3136 1020v36M3168 1040v16M3176 1048v8M3168 833v108M3128 796v32M3092 772v35"/><path opacity=".2" fill="none" stroke="#FFF" stroke-width="2" stroke-linecap="round" stroke-linejoin="round" stroke-miterlimit="10" stroke-dasharray="200,4,4,8" d="M2804.3 2.3L2236 796.2"/><path opacity=".2" fill="none" stroke="#FFF" stroke-width="2" stroke-linecap="round" stroke-linejoin="round" stroke-miterlimit="10" stroke-dasharray="0,24,24,12,4,0" d="M2836.3 2.3L2268 796.2"/><path opacity=".2" fill="none" stroke="#FFF" stroke-width="2" stroke-linecap="round" stroke-linejoin="round" stroke-miterlimit="10" stroke-dasharray="120,48,24,4,12" d="M2868.3 2.3L2300 796.2"/><path opacity=".2" fill="none" stroke="#FFF" stroke-width="2" stroke-linecap="round" stroke-linejoin="round" stroke-miterlimit="10" stroke-dasharray="0,24,32,4,4" d="M2740.3 2.3L2172 796.2"/><path opacity=".2" fill="none" stroke="#FFF" stroke-width="2" stroke-linecap="round" stroke-linejoin="round" stroke-miterlimit="10" stroke-dasharray="0,12,20,4,4" d="M2772.3 2.3L2204 796.2"/><path opacity=".2" fill="none" stroke="#FFF" stroke-width="2" stroke-linecap="round" stroke-linejoin="round" stroke-miterlimit="10" stroke-dasharray="24,24,12,8" d="M2708.3 4.4L2140 798.3"/><path opacity=".2" fill="none" stroke="#FFF" stroke-width="2" stroke-linecap="round" stroke-linejoin="round" stroke-miterlimit="10" d="M2676.3 4.4L2108 798.3"/><path opacity=".2" fill="none" stroke="#FFF" stroke-width="2" stroke-linecap="round" stroke-linejoin="round" stroke-miterlimit="10" stroke-dasharray="24,4,4,12,1,24" d="M2900.3 2.3L2332 796.2"/><path opacity=".2" fill="none" stroke="#FFF" stroke-width="2" stroke-linecap="round" stroke-linejoin="round" stroke-miterlimit="10" stroke-dasharray="220,12,4,8" d="M2932.3 2.3L2364 796.2"/><path opacity=".2" fill="none" stroke="#FFF" stroke-width="2" stroke-linecap="round" stroke-linejoin="round" stroke-miterlimit="10" stroke-dasharray="4,48,24,4,12" d="M2964.3 2.3L2396 796.2"/><path opacity=".2" fill="none" stroke="#FFF" stroke-width="2" stroke-linecap="round" stroke-linejoin="round" stroke-miterlimit="10" stroke-dasharray="24,24,12,8" d="M2996.3 2.3L2428 796.2"/><path opacity=".2" fill="none" stroke="#FFF" stroke-width="2" stroke-linecap="round" stroke-linejoin="round" stroke-miterlimit="10" stroke-dasharray="0,12,20,4,4" d="M3028.3 2.3L2460 796.2M3060.3 2.3L2492 796.2"/><path opacity=".2" fill="none" stroke="#FFF" stroke-width="2" stroke-linecap="round" stroke-linejoin="round" stroke-miterlimit="10" stroke-dasharray="24,24,24" d="M3092.3 2.3L2524 796.2"/><path opacity=".2" fill="none" stroke="#FFF" stroke-width="2" stroke-linecap="round" stroke-linejoin="round" stroke-miterlimit="10" stroke-dasharray="8,12,24" d="M3156.3 2.3L2588 796.2"/><path opacity=".2" fill="none" stroke="#FFF" stroke-width="2" stroke-linecap="round" stroke-linejoin="round" stroke-miterlimit="10" stroke-dasharray="24,24,24" d="M3188.3 2.3L2620 796.2"/><path opacity=".2" fill="none" stroke="#FFF" stroke-width="2" stroke-linecap="round" stroke-linejoin="round" stroke-miterlimit="10" stroke-dasharray="0,36,12,12,4,0" d="M3220.3 2.3L2652 796.2"/><path opacity=".2" fill="none" stroke="#FFF" stroke-width="2" stroke-linecap="round" stroke-linejoin="round" stroke-miterlimit="10" stroke-dasharray="60,8,12" d="M3252.3 2.3L2684 796.2"/><path opacity=".2" fill="none" stroke="#FFF" stroke-width="2" stroke-linecap="round" stroke-linejoin="round" stroke-miterlimit="10" stroke-dasharray="16,8,40,12" d="M3284.3 2.3L2716 796.2"/><path opacity=".2" fill="none" stroke="#FFF" stroke-width="2" stroke-linecap="round" stroke-linejoin="round" stroke-miterlimit="10" stroke-dasharray="0,24,32,12" d="M3316.3 2.3L2748 796.2"/><path opacity=".2" fill="none" stroke="#FFF" stroke-width="2" stroke-linecap="round" stroke-linejoin="round" stroke-miterlimit="10" stroke-dasharray="200,4,4,8" d="M3348.3 2.3L2780 796.2"/><path opacity=".2" fill="none" stroke="#FFF" stroke-width="2" stroke-linecap="round" stroke-linejoin="round" stroke-miterlimit="10" stroke-dasharray="0,12,20,4,4" d="M3380.3 2.3L2812 796.2"/><path opacity=".2" fill="none" stroke="#FFF" stroke-width="2" stroke-linecap="round" stroke-linejoin="round" stroke-miterlimit="10" stroke-dasharray="0,120,80,12,12" d="M3412.3 2.3L2844 796"/><path opacity=".2" fill="none" stroke="#FFF" stroke-width="2" stroke-linecap="round" stroke-linejoin="round" stroke-miterlimit="10" stroke-dasharray="120,48,24,4,12" d="M3444.3 2.3L2876 796.2"/><path opacity=".2" fill="none" stroke="#FFF" stroke-width="2" stroke-linecap="round" stroke-linejoin="round" stroke-miterlimit="10" stroke-dasharray="0,24,24,12,4,0" d="M3476.3 2.3L2928 768"/><path opacity=".2" fill="none" stroke="#FFF" stroke-width="2" stroke-linecap="round" stroke-linejoin="round" stroke-miterlimit="10" stroke-dasharray="24,24,24" d="M3508.3 2.3l-549.7 767.8"/><path opacity=".2" fill="none" stroke="#FFF" stroke-width="2" stroke-linecap="round" stroke-linejoin="round" stroke-miterlimit="10" stroke-dasharray="220,12,4,8" d="M3540.3 2.3l-549.9 768.1"/><path opacity=".2" fill="none" stroke="#FFF" stroke-width="2" stroke-linecap="round" stroke-linejoin="round" stroke-miterlimit="10" stroke-dasharray="24,4,4,12,1,24" d="M2036.3 2.3L1468 796.2"/><path opacity=".2" fill="none" stroke="#FFF" stroke-width="2" stroke-linecap="round" stroke-linejoin="round" stroke-miterlimit="10" stroke-dasharray="220,12,4,8" d="M2068.3 2.3L1500 796.2"/><path opacity=".2" fill="none" stroke="#FFF" stroke-width="2" stroke-linecap="round" stroke-linejoin="round" stroke-miterlimit="10" stroke-dasharray="4,48,24,4,12" d="M2100.3 2.3L1532 796.2"/><path opacity=".2" fill="none" stroke="#FFF" stroke-width="2" stroke-linecap="round" stroke-linejoin="round" stroke-miterlimit="10" stroke-dasharray="24,24,12,8" d="M2132.3 2.3L1564 796.2"/><path opacity=".2" fill="none" stroke="#FFF" stroke-width="2" stroke-linecap="round" stroke-linejoin="round" stroke-miterlimit="10" stroke-dasharray="0,12,20,4,4" d="M2164.3 2.3L1596 796.2M2196.3 2.3L1628 796.2"/><path opacity=".2" fill="none" stroke="#FFF" stroke-width="2" stroke-linecap="round" stroke-linejoin="round" stroke-miterlimit="10" stroke-dasharray="24,24,24" d="M2228.3 2.3L1660 796.2"/><path opacity=".2" fill="none" stroke="#FFF" stroke-width="2" stroke-linecap="round" stroke-linejoin="round" stroke-miterlimit="10" stroke-dasharray="24,4,4,12,1,24" d="M2260.3 2.3L1692 796.2"/><path opacity=".2" fill="none" stroke="#FFF" stroke-width="2" stroke-linecap="round" stroke-linejoin="round" stroke-miterlimit="10" stroke-dasharray="8,12,24" d="M2292.3 2.3L1724 796.2"/><path opacity=".2" fill="none" stroke="#FFF" stroke-width="2" stroke-linecap="round" stroke-linejoin="round" stroke-miterlimit="10" stroke-dasharray="24,24,24" d="M2324.3 2.3L1756 796.2"/><path opacity=".2" fill="none" stroke="#FFF" stroke-width="2" stroke-linecap="round" stroke-linejoin="round" stroke-miterlimit="10" stroke-dasharray="0,36,12,12,4,0" d="M2356.3 2.3L1788 796.2"/><path opacity=".2" fill="none" stroke="#FFF" stroke-width="2" stroke-linecap="round" stroke-linejoin="round" stroke-miterlimit="10" stroke-dasharray="60,8,12" d="M2388.3 2.3L1820 796.2"/><path opacity=".2" fill="none" stroke="#FFF" stroke-width="2" stroke-linecap="round" stroke-linejoin="round" stroke-miterlimit="10" stroke-dasharray="16,8,40,12" d="M2420.3 2.3L1852 796.2"/><path opacity=".2" fill="none" stroke="#FFF" stroke-width="2" stroke-linecap="round" stroke-linejoin="round" stroke-miterlimit="10" stroke-dasharray="0,24,32,12" d="M2452.3 2.3L1884 796.2"/><path opacity=".2" fill="none" stroke="#FFF" stroke-width="2" stroke-linecap="round" stroke-linejoin="round" stroke-miterlimit="10" stroke-dasharray="200,4,4,8" d="M2484.3 2.3L1916 796.2"/><path opacity=".2" fill="none" stroke="#FFF" stroke-width="2" stroke-linecap="round" stroke-linejoin="round" stroke-miterlimit="10" stroke-dasharray="0,12,20,4,4" d="M2516.3 2.3L1948 796.2"/><path opacity=".2" fill="none" stroke="#FFF" stroke-width="2" stroke-linecap="round" stroke-linejoin="round" stroke-miterlimit="10" stroke-dasharray="0,120,80,12,12" d="M2548.3 2.3L1980 796.2"/><path opacity=".2" fill="none" stroke="#FFF" stroke-width="2" stroke-linecap="round" stroke-linejoin="round" stroke-miterlimit="10" stroke-dasharray="120,48,24,4,12" d="M2580.3 2.3L2012 796.2"/><path opacity=".2" fill="none" stroke="#FFF" stroke-width="2" stroke-linecap="round" stroke-linejoin="round" stroke-miterlimit="10" stroke-dasharray="0,24,24,12,4,0" d="M2612.3 2.3L2044 796.2"/><path opacity=".2" fill="none" stroke="#FFF" stroke-width="2" stroke-linecap="round" stroke-linejoin="round" stroke-miterlimit="10" stroke-dasharray="24,24,24" d="M2644.3 2.3L2076 796.2"/><path opacity=".2" fill="none" stroke="#FFF" stroke-width="2" stroke-linecap="round" stroke-linejoin="round" stroke-miterlimit="10" stroke-dasharray="24,24,12,8" d="M4436.3 4.4L3868 798.3"/><path opacity=".2" fill="none" stroke="#FFF" stroke-width="2" stroke-linecap="round" stroke-linejoin="round" stroke-miterlimit="10" d="M4404.3 4.4L3836 798.3"/><path opacity=".2" fill="none" stroke="#FFF" stroke-width="2" stroke-linecap="round" stroke-linejoin="round" stroke-miterlimit="10" stroke-dasharray="200,4,4,8" d="M3668.3 2.3L3120 768"/><path opacity=".2" fill="none" stroke="#FFF" stroke-width="2" stroke-linecap="round" stroke-linejoin="round" stroke-miterlimit="10" stroke-dasharray="0,24,24,12,4,0" d="M3700.3 2.3L3150 771"/><path opacity=".2" fill="none" stroke="#FFF" stroke-width="2" stroke-linecap="round" stroke-linejoin="round" stroke-miterlimit="10" stroke-dasharray="120,48,24,4,12" d="M3732.3 2.3L3164 796.2"/><path opacity=".2" fill="none" stroke="#FFF" stroke-width="2" stroke-linecap="round" stroke-linejoin="round" stroke-miterlimit="10" stroke-dasharray="0,24,32,4,4" d="M3604.3 2.3L3036 796"/><path opacity=".2" fill="none" stroke="#FFF" stroke-width="2" stroke-linecap="round" stroke-linejoin="round" stroke-miterlimit="10" stroke-dasharray="0,12,20,4,4" d="M3636.3 2.3L3088 768"/><path opacity=".2" fill="none" stroke="#FFF" stroke-width="2" stroke-linecap="round" stroke-linejoin="round" stroke-miterlimit="10" stroke-dasharray="24,24,12,8" d="M3572.3 4.4L3005.6 796"/><path opacity=".2" fill="none" stroke="#FFF" stroke-width="2" stroke-linecap="round" stroke-linejoin="round" stroke-miterlimit="10" stroke-dasharray="24,4,4,12,1,24" d="M3764.3 2.3L3196 796"/><path opacity=".2" fill="none" stroke="#FFF" stroke-width="2" stroke-linecap="round" stroke-linejoin="round" stroke-miterlimit="10" stroke-dasharray="0,12,20,4,4" d="M3796.3 2.3L3228 796"/><path opacity=".2" fill="none" stroke="#FFF" stroke-width="2" stroke-linecap="round" stroke-linejoin="round" stroke-miterlimit="10" stroke-dasharray="4,48,24,4,12" d="M3828.3 2.3L3260 796.2"/><path opacity=".2" fill="none" stroke="#FFF" stroke-width="2" stroke-linecap="round" stroke-linejoin="round" stroke-miterlimit="10" stroke-dasharray="24,24,12,8" d="M3860.3 2.3L3292 796.2"/><path opacity=".2" fill="none" stroke="#FFF" stroke-width="2" stroke-linecap="round" stroke-linejoin="round" stroke-miterlimit="10" stroke-dasharray="0,12,20,4,4" d="M3892.3 2.3L3324 796.2M3924.3 2.3L3356 796.2"/><path opacity=".2" fill="none" stroke="#FFF" stroke-width="2" stroke-linecap="round" stroke-linejoin="round" stroke-miterlimit="10" stroke-dasharray="24,24,24" d="M3956.3 2.3L3388 796.2"/><path opacity=".2" fill="none" stroke="#FFF" stroke-width="2" stroke-linecap="round" stroke-linejoin="round" stroke-miterlimit="10" stroke-dasharray="200,4,4,8" d="M3988.3 2.3L3420 796.2"/><path opacity=".2" fill="none" stroke="#FFF" stroke-width="2" stroke-linecap="round" stroke-linejoin="round" stroke-miterlimit="10" stroke-dasharray="8,12,24" d="M4020.3 2.3L3452 796.2"/><path opacity=".2" fill="none" stroke="#FFF" stroke-width="2" stroke-linecap="round" stroke-linejoin="round" stroke-miterlimit="10" stroke-dasharray="24,24,24" d="M4052.3 2.3L3484 796.2"/><path opacity=".2" fill="none" stroke="#FFF" stroke-width="2" stroke-linecap="round" stroke-linejoin="round" stroke-miterlimit="10" stroke-dasharray="0,36,12,12,4,0" d="M4084.3 2.3L3516 796.2"/><path opacity=".2" fill="none" stroke="#FFF" stroke-width="2" stroke-linecap="round" stroke-linejoin="round" stroke-miterlimit="10" stroke-dasharray="60,8,12" d="M4116.3 2.3L3548 796.2"/><path opacity=".2" fill="none" stroke="#FFF" stroke-width="2" stroke-linecap="round" stroke-linejoin="round" stroke-miterlimit="10" stroke-dasharray="16,8,40,12" d="M4148.3 2.3L3580 796.2"/><path opacity=".2" fill="none" stroke="#FFF" stroke-width="2" stroke-linecap="round" stroke-linejoin="round" stroke-miterlimit="10" stroke-dasharray="0,24,32,12" d="M4180.3 2.3L3612 796.2"/><path opacity=".2" fill="none" stroke="#FFF" stroke-width="2" stroke-linecap="round" stroke-linejoin="round" stroke-miterlimit="10" stroke-dasharray="200,4,4,8" d="M4212.3 2.3L3644 796.2"/><path opacity=".2" fill="none" stroke="#FFF" stroke-width="2" stroke-linecap="round" stroke-linejoin="round" stroke-miterlimit="10" stroke-dasharray="0,12,20,4,4" d="M4244.3 2.3L3676 796.2"/><path opacity=".2" fill="none" stroke="#FFF" stroke-width="2" stroke-linecap="round" stroke-linejoin="round" stroke-miterlimit="10" stroke-dasharray="0,120,80,12,12" d="M4276.3 2.3L3708 796.2"/><path opacity=".2" fill="none" stroke="#FFF" stroke-width="2" stroke-linecap="round" stroke-linejoin="round" stroke-miterlimit="10" stroke-dasharray="120,48,24,4,12" d="M4308.3 2.3L3740 796.2"/><path opacity=".2" fill="none" stroke="#FFF" stroke-width="2" stroke-linecap="round" stroke-linejoin="round" stroke-miterlimit="10" stroke-dasharray="0,24,24,12,4,0" d="M4340.3 2.3L3772 796.2"/><path opacity=".2" fill="none" stroke="#FFF" stroke-width="2" stroke-linecap="round" stroke-linejoin="round" stroke-miterlimit="10" stroke-dasharray="24,24,24" d="M4372.3 2.3L3804 796.2M4468.3 4.4L3900 798.3"/><path opacity=".2" fill="none" stroke="#FFF" stroke-width="2" stroke-linecap="round" stroke-linejoin="round" stroke-miterlimit="10" stroke-dasharray="0,36,12,12,4,0" d="M4500.3 4.4L3932 798.3"/><path opacity=".2" fill="none" stroke="#FFF" stroke-width="2" stroke-linecap="round" stroke-linejoin="round" stroke-miterlimit="10" stroke-dasharray="60,8,12" d="M4532.3 4.4L3964 798.3"/><path opacity=".2" fill="none" stroke="#FFF" stroke-width="2" stroke-linecap="round" stroke-linejoin="round" stroke-miterlimit="10" stroke-dasharray="16,8,40,12" d="M4564.3 4.4L3996 798.3"/><path opacity=".2" fill="none" stroke="#FFF" stroke-width="2" stroke-linecap="round" stroke-linejoin="round" stroke-miterlimit="10" stroke-dasharray="0,24,32,12" d="M4596.3 4.4L4028 798.3"/><path opacity=".2" fill="none" stroke="#FFF" stroke-width="2" stroke-linecap="round" stroke-linejoin="round" stroke-miterlimit="10" stroke-dasharray="200,4,4,8" d="M4628.3 4.4L4060 798.3"/><path opacity=".2" fill="none" stroke="#FFF" stroke-width="2" stroke-linecap="round" stroke-linejoin="round" stroke-miterlimit="10" stroke-dasharray="0,12,20,4,4" d="M4660.3 4.4L4092 798.3"/><path opacity=".2" fill="none" stroke="#FFF" stroke-width="2" stroke-linecap="round" stroke-linejoin="round" stroke-miterlimit="10" stroke-dasharray="0,120,80,12,12" d="M4692.3 4.4L4124 798.3"/><path opacity=".2" fill="none" stroke="#FFF" stroke-width="2" stroke-linecap="round" stroke-linejoin="round" stroke-miterlimit="10" stroke-dasharray="120,48,24,4,12" d="M4724.3 4.4L4156 798.3"/><path opacity=".2" fill="none" stroke="#FFF" stroke-width="2" stroke-linecap="round" stroke-linejoin="round" stroke-miterlimit="10" stroke-dasharray="0,24,24,12,4,0" d="M4756.3 4.4L4188 798.3"/><path opacity=".2" fill="none" stroke="#FFF" stroke-width="2" stroke-linecap="round" stroke-linejoin="round" stroke-miterlimit="10" stroke-dasharray="24,24,24" d="M4788.3 4.4l-549.7 767.8"/><path opacity=".2" fill="none" stroke="#FFF" stroke-width="2" stroke-linecap="round" stroke-linejoin="round" stroke-miterlimit="10" stroke-dasharray="220,12,4,8" d="M4820.3 4.4l-549.9 768.1"/><path opacity=".2" fill="none" stroke="#FFF" stroke-width="2" stroke-linecap="round" stroke-linejoin="round" stroke-miterlimit="10" stroke-dasharray="24,24,12,8" d="M5320 562.5l-172 237.9"/><path opacity=".2" fill="none" stroke="#FFF" stroke-width="2" stroke-linecap="round" stroke-linejoin="round" stroke-miterlimit="10" d="M5684.3 6.5L5116 800.4"/><path opacity=".2" fill="none" stroke="#FFF" stroke-width="2" stroke-linecap="round" stroke-linejoin="round" stroke-miterlimit="10" stroke-dasharray="200,4,4,8" d="M4948.3 4.4L4380 798.3"/><path opacity=".2" fill="none" stroke="#FFF" stroke-width="2" stroke-linecap="round" stroke-linejoin="round" stroke-miterlimit="10" stroke-dasharray="0,24,24,12,4,0" d="M4980.3 4.4L4430 773.1"/><path opacity=".2" fill="none" stroke="#FFF" stroke-width="2" stroke-linecap="round" stroke-linejoin="round" stroke-miterlimit="10" stroke-dasharray="120,48,24,4,12" d="M5012.3 4.4L4444 798.3"/><path opacity=".2" fill="none" stroke="#FFF" stroke-width="2" stroke-linecap="round" stroke-linejoin="round" stroke-miterlimit="10" stroke-dasharray="0,24,32,4,4" d="M4884.3 4.4l-549.2 767.2"/><path opacity=".2" fill="none" stroke="#FFF" stroke-width="2" stroke-linecap="round" stroke-linejoin="round" stroke-miterlimit="10" stroke-dasharray="0,12,20,4,4" d="M4916.3 4.4L4348 798.3"/><path opacity=".2" fill="none" stroke="#FFF" stroke-width="2" stroke-linecap="round" stroke-linejoin="round" stroke-miterlimit="10" stroke-dasharray="24,24,12,8" d="M4852.3 6.5l-547.6 764.9"/><path opacity=".2" fill="none" stroke="#FFF" stroke-width="2" stroke-linecap="round" stroke-linejoin="round" stroke-miterlimit="10" stroke-dasharray="24,4,4,12,1,24" d="M5044.3 4.4l-549.8 768.1"/><path opacity=".2" fill="none" stroke="#FFF" stroke-width="2" stroke-linecap="round" stroke-linejoin="round" stroke-miterlimit="10" stroke-dasharray="220,12,4,8" d="M5076.3 4.4l-549.8 768"/><path opacity=".2" fill="none" stroke="#FFF" stroke-width="2" stroke-linecap="round" stroke-linejoin="round" stroke-miterlimit="10" stroke-dasharray="4,48,24,4,12" d="M5108.3 4.4L4540 798.3"/><path opacity=".2" fill="none" stroke="#FFF" stroke-width="2" stroke-linecap="round" stroke-linejoin="round" stroke-miterlimit="10" stroke-dasharray="24,24,12,8" d="M5140.3 4.4L4572 798.3"/><path opacity=".2" fill="none" stroke="#FFF" stroke-width="2" stroke-linecap="round" stroke-linejoin="round" stroke-miterlimit="10" stroke-dasharray="0,12,20,4,4" d="M5172.3 4.4L4604 798.3M5204.3 4.4L4636 798.3"/><path opacity=".2" fill="none" stroke="#FFF" stroke-width="2" stroke-linecap="round" stroke-linejoin="round" stroke-miterlimit="10" stroke-dasharray="24,24,24" d="M5236.3 4.4L4668 798.3"/><path opacity=".2" fill="none" stroke="#FFF" stroke-width="2" stroke-linecap="round" stroke-linejoin="round" stroke-miterlimit="10" stroke-dasharray="200,4,4,8" d="M5268.3 4.4L4700 798.3"/><path opacity=".2" fill="none" stroke="#FFF" stroke-width="2" stroke-linecap="round" stroke-linejoin="round" stroke-miterlimit="10" stroke-dasharray="8,12,24" d="M5300.3 4.4L4732 798.3"/><path opacity=".2" fill="none" stroke="#FFF" stroke-width="2" stroke-linecap="round" stroke-linejoin="round" stroke-miterlimit="10" stroke-dasharray="24,24,24" d="M5332.3 4.4L4764 798.3"/><path opacity=".2" fill="none" stroke="#FFF" stroke-width="2" stroke-linecap="round" stroke-linejoin="round" stroke-miterlimit="10" stroke-dasharray="0,36,12,12,4,0" d="M5364.3 4.4L4796 798.3"/><path opacity=".2" fill="none" stroke="#FFF" stroke-width="2" stroke-linecap="round" stroke-linejoin="round" stroke-miterlimit="10" stroke-dasharray="60,8,12" d="M5396.3 4.4L4828 798.3"/><path opacity=".2" fill="none" stroke="#FFF" stroke-width="2" stroke-linecap="round" stroke-linejoin="round" stroke-miterlimit="10" stroke-dasharray="16,8,40,12" d="M5428.3 4.4L4860 798.3"/><path opacity=".2" fill="none" stroke="#FFF" stroke-width="2" stroke-linecap="round" stroke-linejoin="round" stroke-miterlimit="10" stroke-dasharray="0,24,32,12" d="M5460.3 4.4L4892 798.3"/><path opacity=".2" fill="none" stroke="#FFF" stroke-width="2" stroke-linecap="round" stroke-linejoin="round" stroke-miterlimit="10" stroke-dasharray="200,4,4,8" d="M5492.3 4.4L4924 798.3"/><path opacity=".2" fill="none" stroke="#FFF" stroke-width="2" stroke-linecap="round" stroke-linejoin="round" stroke-miterlimit="10" stroke-dasharray="0,12,20,4,4" d="M5524.3 4.4L4956 798.3"/><path opacity=".2" fill="none" stroke="#FFF" stroke-width="2" stroke-linecap="round" stroke-linejoin="round" stroke-miterlimit="10" stroke-dasharray="0,120,80,12,12" d="M5556.3 4.4L4988 798.3"/><path opacity=".2" fill="none" stroke="#FFF" stroke-width="2" stroke-linecap="round" stroke-linejoin="round" stroke-miterlimit="10" stroke-dasharray="120,48,24,4,12" d="M5588.3 4.4L5020 798.3"/><path opacity=".2" fill="none" stroke="#FFF" stroke-width="2" stroke-linecap="round" stroke-linejoin="round" stroke-miterlimit="10" stroke-dasharray="0,24,24,12,4,0" d="M5620.3 4.4L5052 798.3"/><path opacity=".2" fill="none" stroke="#FFF" stroke-width="2" stroke-linecap="round" stroke-linejoin="round" stroke-miterlimit="10" stroke-dasharray="24,24,24" d="M5652.3 4.4L5084 798.3"/><path fill="#FFF" d="M1721 1011c2.2 0 4 1.8 4 4s-1.8 4-4 4-4-1.8-4-4 1.8-4 4-4m0-2c-3.3 0-6 2.7-6 6s2.7 6 6 6 6-2.7 6-6-2.7-6-6-6z" opacity=".2"/><path opacity=".2" fill="none" stroke="#FFF" stroke-width="2" stroke-linecap="round" stroke-linejoin="round" stroke-miterlimit="10" d="M1608 988.2v4M1772 927.6v16.6M1580 987.2v37M1556 976v36M1680 820v88.2M1689 1001.2v79M1704 820v44.2M1692 820v76.2M1772 819v101.2M1721 916.2v92M1744 883.2v53M1748 820.2v32M1745 972v68M1772 1012v67.8M1588 1016.2v8M1572 888.2v49M1560 888.2v28"/><path fill="#FFF" d="M1690 952.2c1.1 0 2 .9 2 2s-.9 2-2 2-2-.9-2-2 .9-2 2-2m0-2c-2.2 0-4 1.8-4 4s1.8 4 4 4 4-1.8 4-4-1.8-4-4-4zM1572 948.2c1.1 0 2 .9 2 2s-.9 2-2 2-2-.9-2-2 .9-2 2-2m0-2c-2.2 0-4 1.8-4 4s1.8 4 4 4 4-1.8 4-4-1.8-4-4-4zM1620 1000.2c1.1 0 2 .9 2 2s-.9 2-2 2-2-.9-2-2 .9-2 2-2m0-2c-2.2 0-4 1.8-4 4s1.8 4 4 4 4-1.8 4-4-1.8-4-4-4z" opacity=".2"/><path opacity=".2" fill="none" stroke="#FFF" stroke-width="2" stroke-linecap="round" stroke-linejoin="round" stroke-miterlimit="10" d="M1620 920.2v4M1704 1008.2v4M1604 1001.2v23M1620 944.2v44M1620 888.2v24M1600 974v12M1600 902v64M1704 1024.2v56M532.3 2.3L-36 796.2"/><path opacity=".2" fill="none" stroke="#FFF" stroke-width="2" stroke-linecap="round" stroke-linejoin="round" stroke-miterlimit="10" stroke-dasharray="120,48,24,4,12" d="M436.3 0L-132 793.9"/><path opacity=".2" fill="none" stroke="#FFF" stroke-width="2" stroke-linecap="round" stroke-linejoin="round" stroke-miterlimit="10" stroke-dasharray="0,24,24,12,4,0" d="M468.3 0L-100 793.9"/><path opacity=".2" fill="none" stroke="#FFF" stroke-width="2" stroke-linecap="round" stroke-linejoin="round" stroke-miterlimit="10" stroke-dasharray="24,24,24" d="M500.3.2L-68 794.1"/><path opacity=".2" fill="none" stroke="#FFF" stroke-width="2" stroke-linecap="round" stroke-linejoin="round" stroke-miterlimit="10" stroke-dasharray="220,12,4,8" d="M3124.3 2.3L2556 796.2"/></g><g fill="#FFF"><path d="M2446 846c-4.4 0-8-3.6-8-8s3.6-8 8-8 8 3.6 8 8-3.6 8-8 8z"/><path d="M2446 832c3.3 0 6 2.7 6 6s-2.7 6-6 6-6-2.7-6-6 2.7-6 6-6m0-4c-5.5 0-10 4.5-10 10s4.5 10 10 10 10-4.5 10-10-4.5-10-10-10zM2472 830c-7.7 0-14-6.3-14-14s6.3-14 14-14 14 6.3 14 14-6.3 14-14 14z"/><path d="M2472 804c6.6 0 12 5.4 12 12s-5.4 12-12 12-12-5.4-12-12 5.4-12 12-12m0-4c-8.8 0-16 7.2-16 16s7.2 16 16 16 16-7.2 16-16-7.2-16-16-16z"/><g><path d="M2672 838c-16.7 0-33-5.7-46-16-13 10.4-29.3 16-46 16-27.9 0-53-15.3-65.7-40-40-.9-72.3-33.9-72.3-74s32.3-73 72.3-74c12.8-24.7 37.9-40 65.7-40 16.7 0 33 5.7 46 16 13-10.4 29.3-16 46-16 27.9 0 53 15.3 65.7 40 40 .9 72.3 33.9 72.3 74s-32.3 73-72.3 74c-12.7 24.7-37.8 40-65.7 40z"/><path d="M2672 612c28.3 0 52.7 16.3 64.5 40 39.5.3 71.5 32.4 71.5 72s-32 71.7-71.5 72c-11.8 23.7-36.2 40-64.5 40-17.5 0-33.5-6.2-46-16.6-12.5 10.4-28.5 16.6-46 16.6-28.3 0-52.7-16.3-64.5-40-39.5-.3-71.5-32.4-71.5-72s32-71.7 71.5-72c11.8-23.7 36.2-40 64.5-40 17.5 0 33.5 6.2 46 16.6 12.5-10.4 28.5-16.6 46-16.6m0-4c-16.6 0-32.8 5.5-46 15.5-13.2-10-29.4-15.5-46-15.5-14.4 0-28.4 4.1-40.6 11.7-11.1 7-20.2 16.8-26.4 28.3-19.3.7-37.3 8.6-50.9 22.4-14.2 14.3-22.1 33.4-22.1 53.6s7.8 39.2 22.1 53.6c13.7 13.7 31.7 21.6 50.9 22.4 6.2 11.5 15.3 21.3 26.4 28.3 12.1 7.7 26.2 11.7 40.6 11.7 16.6 0 32.8-5.5 46-15.5 13.2 10 29.4 15.5 46 15.5 14.4 0 28.4-4.1 40.6-11.7 11.1-7 20.2-16.8 26.4-28.3 19.3-.7 37.3-8.6 50.9-22.4 14.2-14.3 22.1-33.4 22.1-53.6s-7.8-39.2-22.1-53.6c-13.7-13.7-31.7-21.6-50.9-22.4-6.2-11.5-15.3-21.3-26.4-28.3-12.2-7.6-26.2-11.7-40.6-11.7z"/></g></g><g><defs><path id="s" d="M2672 836c28.3 0 52.7-16.3 64.5-40 39.5-.3 71.5-32.4 71.5-72s-32-71.7-71.5-72c-11.8-23.7-36.2-40-64.5-40-17.5 0-33.5 6.2-46 16.6-12.5-10.4-28.5-16.6-46-16.6-28.3 0-52.7 16.3-64.5 40-39.5.3-71.5 32.4-71.5 72s32 71.7 71.5 72c11.8 23.7 36.2 40 64.5 40"/></defs><clipPath id="t"><use xlink:href="#s" overflow="visible"/></clipPath><path clip-path="url(#t)" fill="#82D0D8" d="M2434.7 600h397v132h-397z"/><g><defs><path id="u" d="M2808 724c0-39.6-32-71.7-71.5-72-11.8-23.7-36.2-40-64.5-40-17.5 0-33.5 6.2-46 16.6-12.5-10.4-28.5-16.6-46-16.6-28.3 0-52.7 16.3-64.5 40-39.5.3-71.5 32.4-71.5 72s32 71.7 71.5 72c11.8 23.7 36.2 40 64.5 40 17.5 0 33.5-6.2 46-16.6 12.5 10.4 28.5 16.6 46 16.6 28.3 0 52.7-16.3 64.5-40 39.5-.3 71.5-32.4 71.5-72z"/></defs><clipPath id="v"><use xlink:href="#u" overflow="visible"/></clipPath><path clip-path="url(#v)" fill="#FFEEC0" d="M2833.2 700H2810c0-1.1-.9-2-2-2-6.5 0-9.6-1.8-13-3.7-3.7-2.1-7.5-4.3-15-4.3s-11.3 2.2-15 4.3c-3.4 1.9-6.5 3.7-13 3.7s-9.6-1.8-13-3.7c-3.7-2.1-7.5-4.3-15-4.3s-11.3 2.2-15 4.3c-3.4 1.9-6.5 3.7-13 3.7s-9.6-1.8-13-3.7c-3.7-2.1-7.5-4.3-15-4.3s-11.3 2.2-15 4.3c-3.4 1.9-6.5 3.7-13 3.7s-9.6-1.8-13-3.7c-3.7-2.1-7.5-4.3-15-4.3s-11.3 2.2-15 4.3c-3.4 1.9-6.5 3.7-13 3.7s-9.6-1.8-13-3.7c-3.7-2.1-7.5-4.3-15-4.3s-11.3 2.2-15 4.3c-3.4 1.9-6.5 3.7-13 3.7s-9.6-1.8-13-3.7c-3.7-2.1-7.5-4.3-15-4.3s-11.3 2.2-15 4.3c-3.4 1.9-6.5 3.7-13 3.7s-9.6-1.8-13-3.7c-3.7-2.1-7.5-4.3-15-4.3-1.1 0-2 .9-2 2 0 .5.2 1 .5 1.3h-.5c-14.1 0-25.6 6.1-25.6 13.5 0 7.5 11.5 13.5 25.6 13.5h2.1c-.1 1.2-.1 2.4-.1 3.7 0 39.6 32 71.7 71.5 72 11.8 23.7 36.2 40 64.5 40 17.5 0 33.5-6.2 46-16.6 12.5 10.4 28.5 16.6 46 16.6 28.3 0 52.7-16.3 64.5-40 39.5-.3 71.5-32.4 71.5-72 0-3.9-.3-7.7-.9-11.4h26.2V700zm-193.2 2h-3.9c-.1-.1-.1-.2-.2-.2 1.3.1 2.6.2 4.1.2 1.4 0 2.7-.1 3.9-.2l-.2.2h-3.7z"/></g></g><g><path fill="#699E64" d="M2572 670c-1.1 0-2-.9-2-2 0-6.4 20.1-10 34-10s34 3.6 34 10c0 1.1-.9 2-2 2h-64z"/><path fill="#699E64" d="M2604 660c17.7 0 32 4.7 32 8h-64c0-3.3 14.3-8 32-8m0-4c-8.4 0-16.9 1-23.7 2.9-8.4 2.3-12.3 5.2-12.3 9.1 0 2.2 1.8 4 4 4h64c2.2 0 4-1.8 4-4 0-3.9-3.9-6.8-12.3-9.1-6.8-1.9-15.3-2.9-23.7-2.9zM2572 658c-.5 0-1-.2-1.4-.6-4.6-4.6 7.1-21.3 17-31.1 11.3-11.3 23.2-18 28.2-18 1.2 0 2.2.4 2.9 1 .4.4.6.9.6 1.4 0 .5-.2 1-.6 1.4l-45.3 45.3c-.4.4-.9.6-1.4.6z"/><path fill="#699E64" d="M2615.8 610.3c.7 0 1.2.2 1.5.5L2572 656c-2.3-2.3 4.5-15.8 17-28.3 10.8-10.8 22.4-17.4 26.8-17.4m0-4c-6.3 0-19 8-29.6 18.6-6 6-11.2 12.6-14.7 18.8-4.3 7.6-5 12.4-2.3 15.1.8.8 1.8 1.2 2.8 1.2s2.1-.4 2.8-1.2l45.3-45.3c.8-.8 1.2-1.8 1.2-2.8s-.4-2.1-1.2-2.8c-.8-.7-2.1-1.6-4.3-1.6zM2560 658c-.5 0-1.1-.2-1.4-.6l-44-47.5c-.7-.8-.7-2 .1-2.8.7-.7 1.7-1 2.9-1 5 0 17 6.7 28.2 18 11.5 11.5 19.8 29.3 15.7 33.4-.5.3-1 .5-1.5.5z"/><path fill="#699E64" d="M2517.5 608c4.4 0 16 6.6 26.8 17.4 12.5 12.5 18.1 28.2 15.7 30.6l-44-47.5c.3-.4.8-.5 1.5-.5m0-4c-2.2 0-3.6.9-4.3 1.6-1.5 1.5-1.6 4-.1 5.5l44 47.5c.7.8 1.8 1.3 2.9 1.3h.1c1.1 0 2.1-.4 2.8-1.2 2.7-2.7 2.2-8-1.5-16-1.9-4.2-6.3-12.3-14.2-20.3-10.7-10.4-23.4-18.4-29.7-18.4z"/><g><defs><path id="w" d="M2808 724c0-39.6-32-71.7-71.5-72-11.8-23.7-36.2-40-64.5-40-17.5 0-33.5 6.2-46 16.6-12.5-10.4-28.5-16.6-46-16.6-28.3 0-52.7 16.3-64.5 40-39.5.3-71.5 32.4-71.5 72s32 71.7 71.5 72c11.8 23.7 36.2 40 64.5 40 17.5 0 33.5-6.2 46-16.6 12.5 10.4 28.5 16.6 46 16.6 28.3 0 52.7-16.3 64.5-40 39.5-.3 71.5-32.4 71.5-72z"/></defs><clipPath id="x"><use xlink:href="#w" overflow="visible"/></clipPath><g clip-path="url(#x)" fill="#A08264"><path d="M2492 806c-.9 0-1.7-.6-1.9-1.5-2.7-11.6-4.1-23.9-4.1-36.5 0-56.2 27.8-102 62-102 1 0 2.2-.1 3.5-.2 1.5-.1 3.1-.2 4.7-.2 1.8 0 3.2.2 4.3.5.9.2 1.5 1 1.5 1.9 0 .9-.6 1.7-1.5 1.9-28.3 7.9-50.5 51-50.5 98.1 0 12.3 1.3 24.3 4 35.7.1.6 0 1.2-.4 1.7s-1 .8-1.6.8c0-.1-20-.2-20-.2z"/><path d="M2556.2 667.6c1.4 0 2.7.1 3.8.4-28.4 7.9-52 50.5-52 100 0 12.7 1.4 24.9 4 36.1l-20-.1c-2.6-11.2-4-23.3-4-36 0-55.2 26.9-100 60-100 2.3 0 5.4-.4 8.2-.4m0-4c-1.6 0-3.2.1-4.8.2-1.3.1-2.5.2-3.4.2-17.5 0-33.8 11.1-45.9 31.2-11.7 19.5-18.1 45.3-18.1 72.8 0 12.7 1.4 25.1 4.1 36.9.4 1.8 2 3.1 3.9 3.1l20 .1c1.2 0 2.4-.6 3.1-1.5.8-1 1-2.2.8-3.4-2.6-11.2-3.9-23.1-3.9-35.2 0-23 5.3-45.6 14.9-63.7 9.2-17.3 21.3-28.8 34.2-32.4 1.7-.5 2.9-2.1 2.9-3.9 0-1.8-1.2-3.4-2.9-3.9-1.4-.3-2.9-.5-4.9-.5z"/></g></g><g><path fill="#699E64" d="M2496 670c-1.1 0-2-.9-2-2 0-6.4 20.1-10 34-10s34 3.6 34 10c0 1.1-.9 2-2 2h-64z"/><path fill="#699E64" d="M2528 660c17.7 0 32 4.7 32 8h-64c0-3.3 14.3-8 32-8m0-4c-8.4 0-16.9 1-23.7 2.9-8.4 2.3-12.3 5.2-12.3 9.1 0 2.2 1.8 4 4 4h64c2.2 0 4-1.8 4-4 0-3.9-3.9-6.8-12.3-9.1-6.8-1.9-15.3-2.9-23.7-2.9z"/></g></g><g><path fill="#EABD94" d="M2556 814c-1.1 0-2-.9-2-2s.9-2 2-2h20c1.1 0 2 .9 2 2s-.9 2-2 2h-20z"/><path fill="#EABD94" d="M2576 812h-20 20m0-4h-20c-2.2 0-4 1.8-4 4s1.8 4 4 4h20c2.2 0 4-1.8 4-4s-1.8-4-4-4z"/><g stroke="#D1A984" stroke-width="4" stroke-linecap="round" stroke-linejoin="round" stroke-miterlimit="10"><path fill="#B82266" d="M2562 806h8M2566 806v-12"/><path fill="#C64E85" d="M2562 786v4c0 2.2 1.8 4 4 4s4-1.8 4-4v-4"/></g></g><g><path fill="none" stroke="#A08264" stroke-width="8" stroke-linecap="round" stroke-linejoin="round" stroke-miterlimit="10" d="M2540 724l80 48h16s40-20 84 8"/><path fill="none" stroke="#E7BA9F" stroke-width="12" stroke-linecap="round" stroke-linejoin="round" stroke-miterlimit="10" d="M2578.5 738l9.5 30 16 12M2612 752l20 8 44-8 48 16h8"/><circle fill="#EB8D49" cx="2561" cy="721" r="10"/><g fill="#E7BA9F"><circle cx="2575.4" cy="714.6" r="2"/><path d="M2569.75 717.25l4.17-4.172 2.83 2.827-4.172 4.173z"/></g><path fill="#E7BA9F" stroke="#E7BA9F" stroke-width="4" stroke-miterlimit="10" d="M2568.6 721.4s-.6 6.6 7.4 10.6l-2.4 4.6-9.6-11.7 4.6-3.5z"/><circle fill="#C64E85" cx="2596" cy="734" r="8"/><path fill="none" stroke="#E7BA9F" stroke-width="12" stroke-linecap="round" stroke-linejoin="round" stroke-miterlimit="10" d="M2632 752l28-28 28 32"/><g fill="#C64E85"><path d="M2620 766c-.4 0-.7-.1-1.1-.3l-32-20c-.9-.5-1.2-1.7-.7-2.6.7-1.4.8-2.6.3-3.8-1.2-2.9-5.6-4.9-7.1-5.4-1-.3-1.6-1.4-1.3-2.4.2-.9 1-1.5 1.9-1.5h.4l20 4c.2 0 .3.1.5.2l24 12c.7.4 1.1 1.1 1.1 1.9 0 .8-.5 1.5-1.3 1.8-2.8 1.1-6.3 3.1-6.7 5.8-.6 3.4 3.3 6.8 3.3 6.8.8.7.9 1.9.3 2.7-.4.5-1 .8-1.6.8z"/><path d="M2580 732l20 4 24 12c-15.4 6.2-4 16-4 16l-32-20c4-8-8-12-8-12m0-4c-1.8 0-3.4 1.2-3.9 3-.5 2 .6 4.1 2.6 4.8 1.6.5 5.1 2.3 5.9 4.3.2.4.3 1-.2 2.1-.9 1.8-.3 4.1 1.5 5.2l32 20c.7.4 1.4.6 2.1.6 1.2 0 2.4-.6 3.2-1.6 1.2-1.7 1-4-.6-5.4-1-.9-2.9-3.2-2.6-5 .2-1.4 2.3-3 5.5-4.3 1.5-.6 2.4-2 2.5-3.5.1-1.6-.8-3-2.2-3.7l-24-12c-.3-.2-.7-.3-1-.3l-20-4c-.3-.2-.5-.2-.8-.2z"/></g><path fill="#C64E85" stroke="#C64E85" stroke-linecap="round" stroke-linejoin="round" stroke-miterlimit="10" d="M2624 744l16 8h-16"/><circle fill="#E7BA9F" cx="2566" cy="722" r="10"/><path fill="#EB8D49" d="M2568 756c0 4.4-3.6 8-8 8s-8-3.6-8-8 0-44 8-44c4.4 0 8 39.6 8 44z"/><path fill="none" stroke="#C64E85" stroke-width="2" stroke-linecap="round" stroke-linejoin="round" stroke-miterlimit="10" d="M2568 718l4-4"/><circle fill="#333" cx="2568" cy="718" r="3"/><path fill="#C64E85" d="M2568 716c1.1 0 2 .9 2 2s-.9 2-2 2-2-.9-2-2 .9-2 2-2m0-2c-2.2 0-4 1.8-4 4s1.8 4 4 4 4-1.8 4-4-1.8-4-4-4z"/><path fill="none" stroke="#A08264" stroke-width="8" stroke-linecap="round" stroke-linejoin="round" stroke-miterlimit="10" d="M2628 800v-24M2612 800h32"/></g></svg>